<?xml version="1.0" encoding="UTF-8" standalone="no"?>
<!DOCTYPE svg PUBLIC "-//W3C//DTD SVG 1.1//EN"
 "http://www.w3.org/Graphics/SVG/1.1/DTD/svg11.dtd">
<!-- Generated by graphviz version 2.38.0 (20140413.2041)
 -->
<!-- Title: cluster_Engine CO2 emission sub model Pages: 1 -->
<svg width="680pt" height="391pt"
 viewBox="0.00 0.00 680.00 391.00" xmlns="http://www.w3.org/2000/svg" xmlns:xlink="http://www.w3.org/1999/xlink">
<g id="graph0" class="graph" transform="scale(1 1) rotate(0) translate(4 387)">
<title>cluster_Engine CO2 emission sub model</title>
<polygon fill="white" stroke="none" points="-4,4 -4,-387 676,-387 676,4 -4,4"/>
<text text-anchor="start" x="244" y="-7.8" font-family="Times New Roman,serif" font-size="14.00">Engine CO2 emission sub model</text>
<!-- cluster_cluster_cluster_cluster_cluster_&#45;2202121249019829706&#45;34557024561712018977725836106349270227&#45;91116550568511492634584430279127280235&#45;913515229140654484 -->
<g id="node1" class="node"><title>cluster_cluster_cluster_cluster_cluster_&#45;2202121249019829706&#45;34557024561712018977725836106349270227&#45;91116550568511492634584430279127280235&#45;913515229140654484</title>
<g id="a_node1"><a xlink:title="calibration_status">
<path fill="cyan" stroke="black" d="M382,-215C382,-215 288,-215 288,-215 282,-215 276,-209 276,-203 276,-203 276,-191 276,-191 276,-185 282,-179 288,-179 288,-179 382,-179 382,-179 388,-179 394,-185 394,-191 394,-191 394,-203 394,-203 394,-209 388,-215 382,-215"/>
<text text-anchor="start" x="286" y="-192.8" font-family="Times New Roman,serif" font-size="14.00">calibration_status</text>
</a>
</g>
</g>
<!-- cluster_cluster_cluster_cluster_cluster_&#45;2202121249019829706&#45;34557024561712018977725836106349270227&#45;91116550568511492634584430279127280235954324233787266619 -->
<g id="node2" class="node"><title>cluster_cluster_cluster_cluster_cluster_&#45;2202121249019829706&#45;34557024561712018977725836106349270227&#45;91116550568511492634584430279127280235954324233787266619</title>
<g id="a_node2"><a xlink:title="CO2 instantaneous emissions vector [CO2g/s].">
<path fill="cyan" stroke="black" d="M376,-59C376,-59 296,-59 296,-59 290,-59 284,-53 284,-47 284,-47 284,-35 284,-35 284,-29 290,-23 296,-23 296,-23 376,-23 376,-23 382,-23 388,-29 388,-35 388,-35 388,-47 388,-47 388,-53 382,-59 376,-59"/>
<text text-anchor="start" x="294" y="-36.8" font-family="Times New Roman,serif" font-size="14.00">co2_emissions</text>
</a>
</g>
</g>
<!-- cluster_cluster_cluster_cluster_cluster_&#45;2202121249019829706&#45;34557024561712018977725836106349270227&#45;91116550568511492634584430279127280235&#45;8605549751720802218 -->
<g id="node3" class="node"><title>cluster_cluster_cluster_cluster_cluster_&#45;2202121249019829706&#45;34557024561712018977725836106349270227&#45;91116550568511492634584430279127280235&#45;8605549751720802218</title>
<g id="a_node3"><a xlink:title="CO2 emissions model (co2_emissions = models(params)).">
<path fill="cyan" stroke="black" d="M246,-215C246,-215 124,-215 124,-215 118,-215 112,-209 112,-203 112,-203 112,-191 112,-191 112,-185 118,-179 124,-179 124,-179 246,-179 246,-179 252,-179 258,-185 258,-191 258,-191 258,-203 258,-203 258,-209 252,-215 246,-215"/>
<text text-anchor="start" x="122" y="-192.8" font-family="Times New Roman,serif" font-size="14.00">co2_emissions_model</text>
</a>
</g>
</g>
<!-- cluster_cluster_cluster_cluster_cluster_&#45;2202121249019829706&#45;34557024561712018977725836106349270227&#45;91116550568511492634584430279127280235&#45;378114313029906217 -->
<g id="node7" class="node"><title>cluster_cluster_cluster_cluster_cluster_&#45;2202121249019829706&#45;34557024561712018977725836106349270227&#45;91116550568511492634584430279127280235&#45;378114313029906217</title>
<g id="a_node7"><a xlink:href="./../CP-ALL_error_vs_wltp_h/Engine_CO2_emission_sub_model/co2mpas.model.physical.engine.co2_emissionpredict_co2_emissions.txt" xlink:title="Predicts CO2 instantaneous emissions vector [CO2g/s].">
<polygon fill="orange" stroke="black" points="672,-143 0,-143 0,-95 672,-95 672,-143"/>
<text text-anchor="start" x="271" y="-125.8" font-family="Times New Roman,serif" font-size="14.00">predict_co2_emissions</text>
<polygon fill="none" stroke="black" points="8,-99 8,-120 84,-120 84,-99 8,-99"/>
<text text-anchor="start" x="11" y="-105.8" font-family="Times New Roman,serif" font-size="14.00">M_outputs=</text>
<polygon fill="none" stroke="black" points="84,-99 84,-120 664,-120 664,-99 84,-99"/>
<text text-anchor="start" x="87" y="-105.8" font-family="Times New Roman,serif" font-size="14.00">(&#39;active_cylinders&#39;, &#39;active_variable_valves&#39;, &#39;active_lean_burns&#39;, &#39;active_exhausted_gas_recirculations&#39;)</text>
</a>
</g>
</g>
<!-- cluster_cluster_cluster_cluster_cluster_&#45;2202121249019829706&#45;34557024561712018977725836106349270227&#45;91116550568511492634584430279127280235&#45;8605549751720802218&#45;&gt;cluster_cluster_cluster_cluster_cluster_&#45;2202121249019829706&#45;34557024561712018977725836106349270227&#45;91116550568511492634584430279127280235&#45;378114313029906217 -->
<g id="edge1" class="edge"><title>cluster_cluster_cluster_cluster_cluster_&#45;2202121249019829706&#45;34557024561712018977725836106349270227&#45;91116550568511492634584430279127280235&#45;8605549751720802218&#45;&gt;cluster_cluster_cluster_cluster_cluster_&#45;2202121249019829706&#45;34557024561712018977725836106349270227&#45;91116550568511492634584430279127280235&#45;378114313029906217</title>
<path fill="none" stroke="black" d="M185,-178.909C185,-178.909 185,-153.199 185,-153.199"/>
<polygon fill="black" stroke="black" points="188.5,-153.199 185,-143.199 181.5,-153.199 188.5,-153.199"/>
</g>
<!-- cluster_cluster_cluster_cluster_cluster_&#45;2202121249019829706&#45;34557024561712018977725836106349270227&#45;9111655056851149263458443027912728023556121151447196577 -->
<g id="node4" class="node"><title>cluster_cluster_cluster_cluster_cluster_&#45;2202121249019829706&#45;34557024561712018977725836106349270227&#45;9111655056851149263458443027912728023556121151447196577</title>
<g id="a_node4"><a xlink:title="CO2 emission model parameters (a2, b2, a, b, c, l, l2, t, trg).">
<path fill="cyan" stroke="black" d="M444,-383C444,-383 378,-383 378,-383 372,-383 366,-377 366,-371 366,-371 366,-347 366,-347 366,-341 372,-335 378,-335 378,-335 444,-335 444,-335 450,-335 456,-341 456,-347 456,-347 456,-371 456,-371 456,-377 450,-383 444,-383"/>
<text text-anchor="start" x="376" y="-365.8" font-family="Times New Roman,serif" font-size="14.00">co2_params</text>
<polygon fill="none" stroke="black" points="374,-339 374,-360 427,-360 427,-339 374,-339"/>
<text text-anchor="start" x="378" y="-345.8" font-family="Times New Roman,serif" font-size="14.00">default=</text>
<polygon fill="none" stroke="black" points="427,-339 427,-360 448,-360 448,-339 427,-339"/>
<text text-anchor="start" x="430" y="-345.8" font-family="Times New Roman,serif" font-size="14.00">{}</text>
</a>
</g>
</g>
<!-- cluster_cluster_cluster_cluster_cluster_&#45;2202121249019829706&#45;34557024561712018977725836106349270227&#45;91116550568511492634584430279127280235&#45;1157060426412552747 -->
<g id="node6" class="node"><title>cluster_cluster_cluster_cluster_cluster_&#45;2202121249019829706&#45;34557024561712018977725836106349270227&#45;91116550568511492634584430279127280235&#45;1157060426412552747</title>
<g id="a_node6"><a xlink:href="./../CP-ALL_error_vs_wltp_h/Engine_CO2_emission_sub_model/co2mpas.model.physical.engine.co2_emissiondefine_co2_params_calibrated.txt" xlink:title="Defines the calibrated co2_params if all co2_params are given.">
<polygon fill="springgreen" stroke="black" points="527,-299 295,-299 295,-251 527,-251 527,-299"/>
<text text-anchor="start" x="325" y="-281.8" font-family="Times New Roman,serif" font-size="14.00">define_co2_params_calibrated</text>
<polygon fill="none" stroke="black" points="303,-255 303,-276 394,-276 394,-255 303,-255"/>
<text text-anchor="start" x="306" y="-261.8" font-family="Times New Roman,serif" font-size="14.00">input_domain=</text>
<polygon fill="none" stroke="black" points="394,-255 394,-276 519,-276 519,-255 394,-255"/>
<text text-anchor="start" x="397" y="-261.8" font-family="Times New Roman,serif" font-size="14.00">missing_co2_params</text>
</a>
</g>
</g>
<!-- cluster_cluster_cluster_cluster_cluster_&#45;2202121249019829706&#45;34557024561712018977725836106349270227&#45;9111655056851149263458443027912728023556121151447196577&#45;&gt;cluster_cluster_cluster_cluster_cluster_&#45;2202121249019829706&#45;34557024561712018977725836106349270227&#45;91116550568511492634584430279127280235&#45;1157060426412552747 -->
<g id="edge2" class="edge"><title>cluster_cluster_cluster_cluster_cluster_&#45;2202121249019829706&#45;34557024561712018977725836106349270227&#45;9111655056851149263458443027912728023556121151447196577&#45;&gt;cluster_cluster_cluster_cluster_cluster_&#45;2202121249019829706&#45;34557024561712018977725836106349270227&#45;91116550568511492634584430279127280235&#45;1157060426412552747</title>
<path fill="none" stroke="black" d="M411,-334.704C411,-334.704 411,-309.242 411,-309.242"/>
<polygon fill="black" stroke="black" points="414.5,-309.242 411,-299.242 407.5,-309.242 414.5,-309.242"/>
</g>
<!-- cluster_cluster_cluster_cluster_cluster_&#45;2202121249019829706&#45;34557024561712018977725836106349270227&#45;91116550568511492634584430279127280235&#45;2013974788104753907 -->
<g id="node5" class="node"><title>cluster_cluster_cluster_cluster_cluster_&#45;2202121249019829706&#45;34557024561712018977725836106349270227&#45;91116550568511492634584430279127280235&#45;2013974788104753907</title>
<g id="a_node5"><a xlink:title="CO2 emission model parameters (a2, b2, a, b, c, l, l2, t, trg).">
<path fill="cyan" stroke="black" d="M552,-215C552,-215 424,-215 424,-215 418,-215 412,-209 412,-203 412,-203 412,-191 412,-191 412,-185 418,-179 424,-179 424,-179 552,-179 552,-179 558,-179 564,-185 564,-191 564,-191 564,-203 564,-203 564,-209 558,-215 552,-215"/>
<text text-anchor="start" x="422.5" y="-192.8" font-family="Times New Roman,serif" font-size="14.00">co2_params_calibrated</text>
</a>
</g>
</g>
<!-- cluster_cluster_cluster_cluster_cluster_&#45;2202121249019829706&#45;34557024561712018977725836106349270227&#45;91116550568511492634584430279127280235&#45;2013974788104753907&#45;&gt;cluster_cluster_cluster_cluster_cluster_&#45;2202121249019829706&#45;34557024561712018977725836106349270227&#45;91116550568511492634584430279127280235&#45;378114313029906217 -->
<g id="edge3" class="edge"><title>cluster_cluster_cluster_cluster_cluster_&#45;2202121249019829706&#45;34557024561712018977725836106349270227&#45;91116550568511492634584430279127280235&#45;2013974788104753907&#45;&gt;cluster_cluster_cluster_cluster_cluster_&#45;2202121249019829706&#45;34557024561712018977725836106349270227&#45;91116550568511492634584430279127280235&#45;378114313029906217</title>
<path fill="none" stroke="black" d="M488,-178.909C488,-178.909 488,-153.199 488,-153.199"/>
<polygon fill="black" stroke="black" points="491.5,-153.199 488,-143.199 484.5,-153.199 491.5,-153.199"/>
</g>
<!-- cluster_cluster_cluster_cluster_cluster_&#45;2202121249019829706&#45;34557024561712018977725836106349270227&#45;91116550568511492634584430279127280235&#45;1157060426412552747&#45;&gt;cluster_cluster_cluster_cluster_cluster_&#45;2202121249019829706&#45;34557024561712018977725836106349270227&#45;91116550568511492634584430279127280235&#45;913515229140654484 -->
<g id="edge4" class="edge"><title>cluster_cluster_cluster_cluster_cluster_&#45;2202121249019829706&#45;34557024561712018977725836106349270227&#45;91116550568511492634584430279127280235&#45;1157060426412552747&#45;&gt;cluster_cluster_cluster_cluster_cluster_&#45;2202121249019829706&#45;34557024561712018977725836106349270227&#45;91116550568511492634584430279127280235&#45;913515229140654484</title>
<path fill="none" stroke="black" d="M344.5,-250.748C344.5,-250.748 344.5,-225.288 344.5,-225.288"/>
<polygon fill="black" stroke="black" points="348,-225.287 344.5,-215.288 341,-225.288 348,-225.287"/>
</g>
<!-- cluster_cluster_cluster_cluster_cluster_&#45;2202121249019829706&#45;34557024561712018977725836106349270227&#45;91116550568511492634584430279127280235&#45;1157060426412552747&#45;&gt;cluster_cluster_cluster_cluster_cluster_&#45;2202121249019829706&#45;34557024561712018977725836106349270227&#45;91116550568511492634584430279127280235&#45;2013974788104753907 -->
<g id="edge5" class="edge"><title>cluster_cluster_cluster_cluster_cluster_&#45;2202121249019829706&#45;34557024561712018977725836106349270227&#45;91116550568511492634584430279127280235&#45;1157060426412552747&#45;&gt;cluster_cluster_cluster_cluster_cluster_&#45;2202121249019829706&#45;34557024561712018977725836106349270227&#45;91116550568511492634584430279127280235&#45;2013974788104753907</title>
<path fill="none" stroke="black" d="M469.5,-250.748C469.5,-250.748 469.5,-225.288 469.5,-225.288"/>
<polygon fill="black" stroke="black" points="473,-225.287 469.5,-215.288 466,-225.288 473,-225.287"/>
</g>
<!-- cluster_cluster_cluster_cluster_cluster_&#45;2202121249019829706&#45;34557024561712018977725836106349270227&#45;91116550568511492634584430279127280235&#45;378114313029906217&#45;&gt;cluster_cluster_cluster_cluster_cluster_&#45;2202121249019829706&#45;34557024561712018977725836106349270227&#45;91116550568511492634584430279127280235954324233787266619 -->
<g id="edge6" class="edge"><title>cluster_cluster_cluster_cluster_cluster_&#45;2202121249019829706&#45;34557024561712018977725836106349270227&#45;91116550568511492634584430279127280235&#45;378114313029906217&#45;&gt;cluster_cluster_cluster_cluster_cluster_&#45;2202121249019829706&#45;34557024561712018977725836106349270227&#45;91116550568511492634584430279127280235954324233787266619</title>
<path fill="none" stroke="black" d="M336,-94.7479C336,-94.7479 336,-69.2875 336,-69.2875"/>
<polygon fill="black" stroke="black" points="339.5,-69.2875 336,-59.2875 332.5,-69.2876 339.5,-69.2875"/>
</g>
</g>
</svg>
