<?xml version="1.0" encoding="UTF-8" standalone="no"?>
<!DOCTYPE svg PUBLIC "-//W3C//DTD SVG 1.1//EN"
 "http://www.w3.org/Graphics/SVG/1.1/DTD/svg11.dtd">
<!-- Generated by graphviz version 2.38.0 (20140413.2041)
 -->
<!-- Title: cluster_cold_start Pages: 1 -->
<svg width="1588pt" height="589pt"
 viewBox="0.00 0.00 1587.50 589.00" xmlns="http://www.w3.org/2000/svg" xmlns:xlink="http://www.w3.org/1999/xlink">
<g id="graph0" class="graph" transform="scale(1 1) rotate(0) translate(4 585)">
<title>cluster_cold_start</title>
<polygon fill="white" stroke="none" points="-4,4 -4,-585 1583.5,-585 1583.5,4 -4,4"/>
<text text-anchor="start" x="761.25" y="-7.8" font-family="Times New Roman,serif" font-size="14.00">cold_start</text>
<!-- cluster_cluster_cluster_3447218200353024149439999564736220059176580604985910809435413959875299472221 -->
<g id="node1" class="node"><title>cluster_cluster_cluster_3447218200353024149439999564736220059176580604985910809435413959875299472221</title>
<g id="a_node1"><a xlink:href="./../../extract_calibrated_models/engine_cold_start_speed_model_selector/ECSSM-wltp_h_errors/ECSSM-wltp_h_error_vs_wltp_h/cold_start/co2mpas.model.physical.engine.cold_startcalculate_cold_start_speeds_delta.txt" xlink:title="Calculates the engine speed delta and phases due to the cold start [RPM, &#45;].">
<polygon fill="springgreen" stroke="black" points="1325,-320 1111,-320 1111,-284 1325,-284 1325,-320"/>
<text text-anchor="start" x="1121.5" y="-297.8" font-family="Times New Roman,serif" font-size="14.00">calculate_cold_start_speeds_delta</text>
</a>
</g>
</g>
<!-- cluster_cluster_cluster_3447218200353024149439999564736220059176580604985910809436520122835744747430 -->
<g id="node6" class="node"><title>cluster_cluster_cluster_3447218200353024149439999564736220059176580604985910809436520122835744747430</title>
<g id="a_node6"><a xlink:title="Engine speed delta due to the cold start [RPM].">
<path fill="cyan" stroke="black" d="M1338,-248C1338,-248 1050,-248 1050,-248 1044,-248 1038,-242 1038,-236 1038,-236 1038,-212 1038,-212 1038,-206 1044,-200 1050,-200 1050,-200 1338,-200 1338,-200 1344,-200 1350,-206 1350,-212 1350,-212 1350,-236 1350,-236 1350,-242 1344,-248 1338,-248"/>
<text text-anchor="start" x="1125.5" y="-230.8" font-family="Times New Roman,serif" font-size="14.00">cold_start_speeds_delta</text>
<polygon fill="none" stroke="black" points="1046,-204 1046,-225 1140,-225 1140,-204 1046,-204"/>
<text text-anchor="start" x="1049" y="-210.8" font-family="Times New Roman,serif" font-size="14.00">remote child 0=</text>
<polygon fill="none" stroke="black" points="1140,-204 1140,-225 1342,-225 1342,-204 1140,-204"/>
<text text-anchor="start" x="1143" y="-210.8" font-family="Times New Roman,serif" font-size="14.00">cold_start:cold_start_speeds_delta</text>
</a>
</g>
</g>
<!-- cluster_cluster_cluster_3447218200353024149439999564736220059176580604985910809435413959875299472221&#45;&gt;cluster_cluster_cluster_3447218200353024149439999564736220059176580604985910809436520122835744747430 -->
<g id="edge1" class="edge"><title>cluster_cluster_cluster_3447218200353024149439999564736220059176580604985910809435413959875299472221&#45;&gt;cluster_cluster_cluster_3447218200353024149439999564736220059176580604985910809436520122835744747430</title>
<path fill="none" stroke="black" d="M1218,-283.909C1218,-283.909 1218,-258.199 1218,-258.199"/>
<polygon fill="black" stroke="black" points="1221.5,-258.199 1218,-248.199 1214.5,-258.199 1221.5,-258.199"/>
</g>
<!-- cluster_cluster_cluster_3447218200353024149439999564736220059176580604985910809437009720278189805066 -->
<g id="node2" class="node"><title>cluster_cluster_cluster_3447218200353024149439999564736220059176580604985910809437009720278189805066</title>
<g id="a_node2"><a xlink:href="./../../predict_nedc_h/engine_model/cold_start/co2mpas.model.physical.engine.cold_startcalibrate_cold_start_speed_model.txt" xlink:title="Calibrates the engine cold start speed model.">
<polygon fill="springgreen" stroke="black" points="1301,-164 1087,-164 1087,-128 1301,-128 1301,-164"/>
<text text-anchor="start" x="1097.5" y="-141.8" font-family="Times New Roman,serif" font-size="14.00">calibrate_cold_start_speed_model</text>
</a>
</g>
</g>
<!-- cluster_cluster_cluster_3447218200353024149439999564736220059176580604985910809437189501469097655148 -->
<g id="node5" class="node"><title>cluster_cluster_cluster_3447218200353024149439999564736220059176580604985910809437189501469097655148</title>
<g id="a_node5"><a xlink:title="Cold start speed model.">
<path fill="cyan" stroke="black" d="M1454.5,-92C1454.5,-92 1155.5,-92 1155.5,-92 1149.5,-92 1143.5,-86 1143.5,-80 1143.5,-80 1143.5,-35 1143.5,-35 1143.5,-29 1149.5,-23 1155.5,-23 1155.5,-23 1454.5,-23 1454.5,-23 1460.5,-23 1466.5,-29 1466.5,-35 1466.5,-35 1466.5,-80 1466.5,-80 1466.5,-86 1460.5,-92 1454.5,-92"/>
<text text-anchor="start" x="1236" y="-74.3" font-family="Times New Roman,serif" font-size="14.00">cold_start_speed_model</text>
<polygon fill="none" stroke="black" points="1152,-47.5 1152,-68.5 1254,-68.5 1254,-47.5 1152,-47.5"/>
<text text-anchor="start" x="1163" y="-54.3" font-family="Times New Roman,serif" font-size="14.00">remote child 1=</text>
<polygon fill="none" stroke="black" points="1254,-47.5 1254,-68.5 1459,-68.5 1459,-47.5 1254,-47.5"/>
<text text-anchor="start" x="1257" y="-54.3" font-family="Times New Roman,serif" font-size="14.00">cold_start:cold_start_speed_model</text>
<polygon fill="none" stroke="black" points="1152,-26.5 1152,-47.5 1254,-47.5 1254,-26.5 1152,-26.5"/>
<text text-anchor="start" x="1155" y="-33.3" font-family="Times New Roman,serif" font-size="14.00">remote parent 0=</text>
<polygon fill="none" stroke="black" points="1254,-26.5 1254,-47.5 1459,-47.5 1459,-26.5 1254,-26.5"/>
<text text-anchor="start" x="1257" y="-33.3" font-family="Times New Roman,serif" font-size="14.00">cold_start:cold_start_speed_model</text>
</a>
</g>
</g>
<!-- cluster_cluster_cluster_3447218200353024149439999564736220059176580604985910809437009720278189805066&#45;&gt;cluster_cluster_cluster_3447218200353024149439999564736220059176580604985910809437189501469097655148 -->
<g id="edge2" class="edge"><title>cluster_cluster_cluster_3447218200353024149439999564736220059176580604985910809437009720278189805066&#45;&gt;cluster_cluster_cluster_3447218200353024149439999564736220059176580604985910809437189501469097655148</title>
<path fill="none" stroke="black" d="M1222.25,-127.663C1222.25,-127.663 1222.25,-102.269 1222.25,-102.269"/>
<polygon fill="black" stroke="black" points="1225.75,-102.269 1222.25,-92.2692 1218.75,-102.269 1225.75,-102.269"/>
</g>
<!-- cluster_cluster_cluster_3447218200353024149439999564736220059176580604985910809436254013908059577927 -->
<g id="node3" class="node"><title>cluster_cluster_cluster_3447218200353024149439999564736220059176580604985910809436254013908059577927</title>
<g id="a_node3"><a xlink:href="./../../predict_nedc_h/engine_model/cold_start/co2mpas.model.physical.engine.cold_startidentify_cold_start_speeds_delta.txt" xlink:title="Identifies the engine speed delta due to the engine cold start [RPM].">
<polygon fill="springgreen" stroke="black" points="732,-320 526,-320 526,-284 732,-284 732,-320"/>
<text text-anchor="start" x="536" y="-297.8" font-family="Times New Roman,serif" font-size="14.00">identify_cold_start_speeds_delta</text>
</a>
</g>
</g>
<!-- cluster_cluster_cluster_3447218200353024149439999564736220059176580604985910809436254013908059577927&#45;&gt;cluster_cluster_cluster_3447218200353024149439999564736220059176580604985910809436520122835744747430 -->
<g id="edge3" class="edge"><title>cluster_cluster_cluster_3447218200353024149439999564736220059176580604985910809436254013908059577927&#45;&gt;cluster_cluster_cluster_3447218200353024149439999564736220059176580604985910809436520122835744747430</title>
<path fill="none" stroke="black" d="M732.046,-296C863.632,-296 1074.5,-296 1074.5,-296 1074.5,-296 1074.5,-258.376 1074.5,-258.376"/>
<polygon fill="black" stroke="black" points="1078,-258.376 1074.5,-248.376 1071,-258.376 1078,-258.376"/>
</g>
<!-- cluster_cluster_cluster_3447218200353024149439999564736220059176580604985910809436379047523413955815 -->
<g id="node4" class="node"><title>cluster_cluster_cluster_3447218200353024149439999564736220059176580604985910809436379047523413955815</title>
<g id="a_node4"><a xlink:href="./../../predict_nedc_h/engine_model/cold_start/co2mpas.model.physical.engine.cold_startidentify_cold_start_speeds_phases.txt" xlink:title="identify_cold_start_speeds_phases">
<polygon fill="springgreen" stroke="black" points="618,-497 400,-497 400,-461 618,-461 618,-497"/>
<text text-anchor="start" x="410" y="-474.8" font-family="Times New Roman,serif" font-size="14.00">identify_cold_start_speeds_phases</text>
</a>
</g>
</g>
<!-- cluster_cluster_cluster_3447218200353024149439999564736220059176580604985910809436125823232470091593 -->
<g id="node7" class="node"><title>cluster_cluster_cluster_3447218200353024149439999564736220059176580604985910809436125823232470091593</title>
<g id="a_node7"><a xlink:title="Phases when engine speed is affected by the cold start [&#45;].">
<path fill="cyan" stroke="black" d="M320,-425C320,-425 12,-425 12,-425 6,-425 0,-419 0,-413 0,-413 0,-368 0,-368 0,-362 6,-356 12,-356 12,-356 320,-356 320,-356 326,-356 332,-362 332,-368 332,-368 332,-413 332,-413 332,-419 326,-425 320,-425"/>
<text text-anchor="start" x="91.5" y="-407.3" font-family="Times New Roman,serif" font-size="14.00">cold_start_speeds_phases</text>
<polygon fill="none" stroke="black" points="8,-380.5 8,-401.5 110,-401.5 110,-380.5 8,-380.5"/>
<text text-anchor="start" x="19" y="-387.3" font-family="Times New Roman,serif" font-size="14.00">remote child 1=</text>
<polygon fill="none" stroke="black" points="110,-380.5 110,-401.5 324,-401.5 324,-380.5 110,-380.5"/>
<text text-anchor="start" x="113" y="-387.3" font-family="Times New Roman,serif" font-size="14.00">cold_start:cold_start_speeds_phases</text>
<polygon fill="none" stroke="black" points="8,-359.5 8,-380.5 110,-380.5 110,-359.5 8,-359.5"/>
<text text-anchor="start" x="11" y="-366.3" font-family="Times New Roman,serif" font-size="14.00">remote parent 0=</text>
<polygon fill="none" stroke="black" points="110,-359.5 110,-380.5 324,-380.5 324,-359.5 110,-359.5"/>
<text text-anchor="start" x="113" y="-366.3" font-family="Times New Roman,serif" font-size="14.00">cold_start:cold_start_speeds_phases</text>
</a>
</g>
</g>
<!-- cluster_cluster_cluster_3447218200353024149439999564736220059176580604985910809436379047523413955815&#45;&gt;cluster_cluster_cluster_3447218200353024149439999564736220059176580604985910809436125823232470091593 -->
<g id="edge4" class="edge"><title>cluster_cluster_cluster_3447218200353024149439999564736220059176580604985910809436379047523413955815&#45;&gt;cluster_cluster_cluster_3447218200353024149439999564736220059176580604985910809436125823232470091593</title>
<path fill="none" stroke="black" d="M399.904,-479C330.46,-479 253.5,-479 253.5,-479 253.5,-479 253.5,-435.224 253.5,-435.224"/>
<polygon fill="black" stroke="black" points="257,-435.224 253.5,-425.224 250,-435.224 257,-435.224"/>
</g>
<!-- cluster_cluster_cluster_3447218200353024149439999564736220059176580604985910809437189501469097655148&#45;&gt;cluster_cluster_cluster_3447218200353024149439999564736220059176580604985910809435413959875299472221 -->
<g id="edge5" class="edge"><title>cluster_cluster_cluster_3447218200353024149439999564736220059176580604985910809437189501469097655148&#45;&gt;cluster_cluster_cluster_3447218200353024149439999564736220059176580604985910809435413959875299472221</title>
<path fill="none" stroke="black" d="M1427.67,-92.1799C1427.67,-158.327 1427.67,-296 1427.67,-296 1427.67,-296 1335.29,-296 1335.29,-296"/>
<polygon fill="black" stroke="black" points="1335.29,-292.5 1325.29,-296 1335.29,-299.5 1335.29,-292.5"/>
</g>
<!-- cluster_cluster_cluster_3447218200353024149439999564736220059176580604985910809436520122835744747430&#45;&gt;cluster_cluster_cluster_3447218200353024149439999564736220059176580604985910809437009720278189805066 -->
<g id="edge6" class="edge"><title>cluster_cluster_cluster_3447218200353024149439999564736220059176580604985910809436520122835744747430&#45;&gt;cluster_cluster_cluster_3447218200353024149439999564736220059176580604985910809437009720278189805066</title>
<path fill="none" stroke="black" d="M1194,-199.748C1194,-199.748 1194,-174.288 1194,-174.288"/>
<polygon fill="black" stroke="black" points="1197.5,-174.287 1194,-164.288 1190.5,-174.288 1197.5,-174.287"/>
</g>
<!-- cluster_cluster_cluster_3447218200353024149439999564736220059176580604985910809436125823232470091593&#45;&gt;cluster_cluster_cluster_3447218200353024149439999564736220059176580604985910809437009720278189805066 -->
<g id="edge7" class="edge"><title>cluster_cluster_cluster_3447218200353024149439999564736220059176580604985910809436125823232470091593&#45;&gt;cluster_cluster_cluster_3447218200353024149439999564736220059176580604985910809437009720278189805066</title>
<path fill="none" stroke="black" d="M166,-355.776C166,-285.918 166,-135 166,-135 166,-135 1076.9,-135 1076.9,-135"/>
<polygon fill="black" stroke="black" points="1076.9,-138.5 1086.9,-135 1076.9,-131.5 1076.9,-138.5"/>
</g>
<!-- cluster_cluster_cluster_3447218200353024149439999564736220059176580604985910809436125823232470091593&#45;&gt;cluster_cluster_cluster_3447218200353024149439999564736220059176580604985910809436254013908059577927 -->
<g id="edge8" class="edge"><title>cluster_cluster_cluster_3447218200353024149439999564736220059176580604985910809436125823232470091593&#45;&gt;cluster_cluster_cluster_3447218200353024149439999564736220059176580604985910809436254013908059577927</title>
<path fill="none" stroke="black" d="M332.114,-361C441.458,-361 564.5,-361 564.5,-361 564.5,-361 564.5,-330.023 564.5,-330.023"/>
<polygon fill="black" stroke="black" points="568,-330.022 564.5,-320.023 561,-330.023 568,-330.022"/>
</g>
<!-- cluster_cluster_cluster_3447218200353024149439999564736220059176580604985910809434429227571388341383 -->
<g id="node8" class="node"><title>cluster_cluster_cluster_3447218200353024149439999564736220059176580604985910809434429227571388341383</title>
<g id="a_node8"><a xlink:title="Engine coolant temperature vector [°C].">
<path fill="cyan" stroke="black" d="M1471.5,-581C1471.5,-581 1148.5,-581 1148.5,-581 1142.5,-581 1136.5,-575 1136.5,-569 1136.5,-569 1136.5,-545 1136.5,-545 1136.5,-539 1142.5,-533 1148.5,-533 1148.5,-533 1471.5,-533 1471.5,-533 1477.5,-533 1483.5,-539 1483.5,-545 1483.5,-545 1483.5,-569 1483.5,-569 1483.5,-575 1477.5,-581 1471.5,-581"/>
<text text-anchor="start" x="1229" y="-563.8" font-family="Times New Roman,serif" font-size="14.00">engine_coolant_temperatures</text>
<polygon fill="none" stroke="black" points="1145,-537 1145,-558 1247,-558 1247,-537 1145,-537"/>
<text text-anchor="start" x="1148" y="-543.8" font-family="Times New Roman,serif" font-size="14.00">remote parent 0=</text>
<polygon fill="none" stroke="black" points="1247,-537 1247,-558 1476,-558 1476,-537 1247,-537"/>
<text text-anchor="start" x="1250" y="-543.8" font-family="Times New Roman,serif" font-size="14.00">cold_start:engine_coolant_temperatures</text>
</a>
</g>
</g>
<!-- cluster_cluster_cluster_3447218200353024149439999564736220059176580604985910809434429227571388341383&#45;&gt;cluster_cluster_cluster_3447218200353024149439999564736220059176580604985910809435413959875299472221 -->
<g id="edge9" class="edge"><title>cluster_cluster_cluster_3447218200353024149439999564736220059176580604985910809434429227571388341383&#45;&gt;cluster_cluster_cluster_3447218200353024149439999564736220059176580604985910809435413959875299472221</title>
<path fill="none" stroke="black" d="M1303.25,-532.55C1303.25,-532.55 1303.25,-330.047 1303.25,-330.047"/>
<polygon fill="black" stroke="black" points="1306.75,-330.047 1303.25,-320.047 1299.75,-330.047 1306.75,-330.047"/>
</g>
<!-- cluster_cluster_cluster_3447218200353024149439999564736220059176580604985910809434429227571388341383&#45;&gt;cluster_cluster_cluster_3447218200353024149439999564736220059176580604985910809437009720278189805066 -->
<g id="edge10" class="edge"><title>cluster_cluster_cluster_3447218200353024149439999564736220059176580604985910809434429227571388341383&#45;&gt;cluster_cluster_cluster_3447218200353024149439999564736220059176580604985910809437009720278189805066</title>
<path fill="none" stroke="black" d="M1136.35,-557C1059.2,-557 985.5,-557 985.5,-557 985.5,-557 985.5,-149 985.5,-149 985.5,-149 1076.7,-149 1076.7,-149"/>
<polygon fill="black" stroke="black" points="1076.7,-152.5 1086.7,-149 1076.7,-145.5 1076.7,-152.5"/>
</g>
<!-- cluster_cluster_cluster_3447218200353024149439999564736220059176580604985910809434429227571388341383&#45;&gt;cluster_cluster_cluster_3447218200353024149439999564736220059176580604985910809436379047523413955815 -->
<g id="edge11" class="edge"><title>cluster_cluster_cluster_3447218200353024149439999564736220059176580604985910809434429227571388341383&#45;&gt;cluster_cluster_cluster_3447218200353024149439999564736220059176580604985910809436379047523413955815</title>
<path fill="none" stroke="black" d="M1209,-532.748C1209,-509.851 1209,-479 1209,-479 1209,-479 628.375,-479 628.375,-479"/>
<polygon fill="black" stroke="black" points="628.375,-475.5 618.375,-479 628.375,-482.5 628.375,-475.5"/>
</g>
<!-- cluster_cluster_cluster_344721820035302414943999956473622005917658060498591080943&#45;3904256270299959966 -->
<g id="node9" class="node"><title>cluster_cluster_cluster_344721820035302414943999956473622005917658060498591080943&#45;3904256270299959966</title>
<g id="a_node9"><a xlink:title="Engine speed vector [RPM].">
<path fill="cyan" stroke="black" d="M629.5,-414.5C629.5,-414.5 362.5,-414.5 362.5,-414.5 356.5,-414.5 350.5,-408.5 350.5,-402.5 350.5,-402.5 350.5,-378.5 350.5,-378.5 350.5,-372.5 356.5,-366.5 362.5,-366.5 362.5,-366.5 629.5,-366.5 629.5,-366.5 635.5,-366.5 641.5,-372.5 641.5,-378.5 641.5,-378.5 641.5,-402.5 641.5,-402.5 641.5,-408.5 635.5,-414.5 629.5,-414.5"/>
<text text-anchor="start" x="442.5" y="-397.3" font-family="Times New Roman,serif" font-size="14.00">engine_speeds_out</text>
<polygon fill="none" stroke="black" points="359,-370.5 359,-391.5 461,-391.5 461,-370.5 359,-370.5"/>
<text text-anchor="start" x="362" y="-377.3" font-family="Times New Roman,serif" font-size="14.00">remote parent 0=</text>
<polygon fill="none" stroke="black" points="461,-370.5 461,-391.5 634,-391.5 634,-370.5 461,-370.5"/>
<text text-anchor="start" x="464" y="-377.3" font-family="Times New Roman,serif" font-size="14.00">cold_start:engine_speeds_out</text>
</a>
</g>
</g>
<!-- cluster_cluster_cluster_344721820035302414943999956473622005917658060498591080943&#45;3904256270299959966&#45;&gt;cluster_cluster_cluster_3447218200353024149439999564736220059176580604985910809436254013908059577927 -->
<g id="edge12" class="edge"><title>cluster_cluster_cluster_344721820035302414943999956473622005917658060498591080943&#45;3904256270299959966&#45;&gt;cluster_cluster_cluster_3447218200353024149439999564736220059176580604985910809436254013908059577927</title>
<path fill="none" stroke="black" d="M603,-366.317C603,-366.317 603,-330.257 603,-330.257"/>
<polygon fill="black" stroke="black" points="606.5,-330.257 603,-320.257 599.5,-330.257 606.5,-330.257"/>
</g>
<!-- cluster_cluster_cluster_344721820035302414943999956473622005917658060498591080943&#45;3168126550270477918 -->
<g id="node10" class="node"><title>cluster_cluster_cluster_344721820035302414943999956473622005917658060498591080943&#45;3168126550270477918</title>
<g id="a_node10"><a xlink:title="Engine speed at hot condition [RPM].">
<path fill="cyan" stroke="black" d="M964.5,-414.5C964.5,-414.5 671.5,-414.5 671.5,-414.5 665.5,-414.5 659.5,-408.5 659.5,-402.5 659.5,-402.5 659.5,-378.5 659.5,-378.5 659.5,-372.5 665.5,-366.5 671.5,-366.5 671.5,-366.5 964.5,-366.5 964.5,-366.5 970.5,-366.5 976.5,-372.5 976.5,-378.5 976.5,-378.5 976.5,-402.5 976.5,-402.5 976.5,-408.5 970.5,-414.5 964.5,-414.5"/>
<text text-anchor="start" x="752" y="-397.3" font-family="Times New Roman,serif" font-size="14.00">engine_speeds_out_hot</text>
<polygon fill="none" stroke="black" points="668,-370.5 668,-391.5 770,-391.5 770,-370.5 668,-370.5"/>
<text text-anchor="start" x="671" y="-377.3" font-family="Times New Roman,serif" font-size="14.00">remote parent 0=</text>
<polygon fill="none" stroke="black" points="770,-370.5 770,-391.5 969,-391.5 969,-370.5 770,-370.5"/>
<text text-anchor="start" x="773" y="-377.3" font-family="Times New Roman,serif" font-size="14.00">cold_start:engine_speeds_out_hot</text>
</a>
</g>
</g>
<!-- cluster_cluster_cluster_344721820035302414943999956473622005917658060498591080943&#45;3168126550270477918&#45;&gt;cluster_cluster_cluster_3447218200353024149439999564736220059176580604985910809435413959875299472221 -->
<g id="edge13" class="edge"><title>cluster_cluster_cluster_344721820035302414943999956473622005917658060498591080943&#45;3168126550270477918&#45;&gt;cluster_cluster_cluster_3447218200353024149439999564736220059176580604985910809435413959875299472221</title>
<path fill="none" stroke="black" d="M895,-366.193C895,-341.858 895,-308 895,-308 895,-308 1100.89,-308 1100.89,-308"/>
<polygon fill="black" stroke="black" points="1100.89,-311.5 1110.89,-308 1100.89,-304.5 1100.89,-311.5"/>
</g>
<!-- cluster_cluster_cluster_344721820035302414943999956473622005917658060498591080943&#45;3168126550270477918&#45;&gt;cluster_cluster_cluster_3447218200353024149439999564736220059176580604985910809437009720278189805066 -->
<g id="edge14" class="edge"><title>cluster_cluster_cluster_344721820035302414943999956473622005917658060498591080943&#45;3168126550270477918&#45;&gt;cluster_cluster_cluster_3447218200353024149439999564736220059176580604985910809437009720278189805066</title>
<path fill="none" stroke="black" d="M813.5,-366.22C813.5,-303.691 813.5,-142 813.5,-142 813.5,-142 1077,-142 1077,-142"/>
<polygon fill="black" stroke="black" points="1077,-145.5 1087,-142 1077,-138.5 1077,-145.5"/>
</g>
<!-- cluster_cluster_cluster_344721820035302414943999956473622005917658060498591080943&#45;3168126550270477918&#45;&gt;cluster_cluster_cluster_3447218200353024149439999564736220059176580604985910809436254013908059577927 -->
<g id="edge15" class="edge"><title>cluster_cluster_cluster_344721820035302414943999956473622005917658060498591080943&#45;3168126550270477918&#45;&gt;cluster_cluster_cluster_3447218200353024149439999564736220059176580604985910809436254013908059577927</title>
<path fill="none" stroke="black" d="M695.75,-366.317C695.75,-366.317 695.75,-330.257 695.75,-330.257"/>
<polygon fill="black" stroke="black" points="699.25,-330.257 695.75,-320.257 692.25,-330.257 699.25,-330.257"/>
</g>
<!-- cluster_cluster_cluster_344721820035302414943999956473622005917658060498591080943&#45;6449518302437248625 -->
<g id="node11" class="node"><title>cluster_cluster_cluster_344721820035302414943999956473622005917658060498591080943&#45;6449518302437248625</title>
<g id="a_node11"><a xlink:title="engine_thermostat_temperature">
<path fill="cyan" stroke="black" d="M521,-581C521,-581 187,-581 187,-581 181,-581 175,-575 175,-569 175,-569 175,-545 175,-545 175,-539 181,-533 187,-533 187,-533 521,-533 521,-533 527,-533 533,-539 533,-545 533,-545 533,-569 533,-569 533,-575 527,-581 521,-581"/>
<text text-anchor="start" x="266.5" y="-563.8" font-family="Times New Roman,serif" font-size="14.00">engine_thermostat_temperature</text>
<polygon fill="none" stroke="black" points="183,-537 183,-558 285,-558 285,-537 183,-537"/>
<text text-anchor="start" x="186" y="-543.8" font-family="Times New Roman,serif" font-size="14.00">remote parent 0=</text>
<polygon fill="none" stroke="black" points="285,-537 285,-558 525,-558 525,-537 285,-537"/>
<text text-anchor="start" x="288" y="-543.8" font-family="Times New Roman,serif" font-size="14.00">cold_start:engine_thermostat_temperature</text>
</a>
</g>
</g>
<!-- cluster_cluster_cluster_344721820035302414943999956473622005917658060498591080943&#45;6449518302437248625&#45;&gt;cluster_cluster_cluster_3447218200353024149439999564736220059176580604985910809436379047523413955815 -->
<g id="edge16" class="edge"><title>cluster_cluster_cluster_344721820035302414943999956473622005917658060498591080943&#45;6449518302437248625&#45;&gt;cluster_cluster_cluster_3447218200353024149439999564736220059176580604985910809436379047523413955815</title>
<path fill="none" stroke="black" d="M466.5,-532.748C466.5,-532.748 466.5,-507.288 466.5,-507.288"/>
<polygon fill="black" stroke="black" points="470,-507.287 466.5,-497.288 463,-507.288 470,-507.287"/>
</g>
<!-- cluster_cluster_cluster_344721820035302414943999956473622005917658060498591080943&#45;3009578804924602371 -->
<g id="node12" class="node"><title>cluster_cluster_cluster_344721820035302414943999956473622005917658060498591080943&#45;3009578804924602371</title>
<g id="a_node12"><a xlink:title="Engine speed idle median and std [RPM].">
<path fill="cyan" stroke="black" d="M1269.5,-414.5C1269.5,-414.5 1006.5,-414.5 1006.5,-414.5 1000.5,-414.5 994.5,-408.5 994.5,-402.5 994.5,-402.5 994.5,-378.5 994.5,-378.5 994.5,-372.5 1000.5,-366.5 1006.5,-366.5 1006.5,-366.5 1269.5,-366.5 1269.5,-366.5 1275.5,-366.5 1281.5,-372.5 1281.5,-378.5 1281.5,-378.5 1281.5,-402.5 1281.5,-402.5 1281.5,-408.5 1275.5,-414.5 1269.5,-414.5"/>
<text text-anchor="start" x="1087" y="-397.3" font-family="Times New Roman,serif" font-size="14.00">idle_engine_speed</text>
<polygon fill="none" stroke="black" points="1003,-370.5 1003,-391.5 1105,-391.5 1105,-370.5 1003,-370.5"/>
<text text-anchor="start" x="1006" y="-377.3" font-family="Times New Roman,serif" font-size="14.00">remote parent 0=</text>
<polygon fill="none" stroke="black" points="1105,-370.5 1105,-391.5 1274,-391.5 1274,-370.5 1105,-370.5"/>
<text text-anchor="start" x="1108" y="-377.3" font-family="Times New Roman,serif" font-size="14.00">cold_start:idle_engine_speed</text>
</a>
</g>
</g>
<!-- cluster_cluster_cluster_344721820035302414943999956473622005917658060498591080943&#45;3009578804924602371&#45;&gt;cluster_cluster_cluster_3447218200353024149439999564736220059176580604985910809435413959875299472221 -->
<g id="edge17" class="edge"><title>cluster_cluster_cluster_344721820035302414943999956473622005917658060498591080943&#45;3009578804924602371&#45;&gt;cluster_cluster_cluster_3447218200353024149439999564736220059176580604985910809435413959875299472221</title>
<path fill="none" stroke="black" d="M1196.25,-366.317C1196.25,-366.317 1196.25,-330.257 1196.25,-330.257"/>
<polygon fill="black" stroke="black" points="1199.75,-330.257 1196.25,-320.257 1192.75,-330.257 1199.75,-330.257"/>
</g>
<!-- cluster_cluster_cluster_344721820035302414943999956473622005917658060498591080943&#45;3009578804924602371&#45;&gt;cluster_cluster_cluster_3447218200353024149439999564736220059176580604985910809437009720278189805066 -->
<g id="edge18" class="edge"><title>cluster_cluster_cluster_344721820035302414943999956473622005917658060498591080943&#45;3009578804924602371&#45;&gt;cluster_cluster_cluster_3447218200353024149439999564736220059176580604985910809437009720278189805066</title>
<path fill="none" stroke="black" d="M1016.25,-366.288C1016.25,-306.373 1016.25,-156 1016.25,-156 1016.25,-156 1076.76,-156 1076.76,-156"/>
<polygon fill="black" stroke="black" points="1076.76,-159.5 1086.76,-156 1076.76,-152.5 1076.76,-159.5"/>
</g>
<!-- cluster_cluster_cluster_3447218200353024149439999564736220059176580604985910809432474993859311970617 -->
<g id="node13" class="node"><title>cluster_cluster_cluster_3447218200353024149439999564736220059176580604985910809432474993859311970617</title>
<g id="a_node13"><a xlink:title="If the engine is on [&#45;].">
<path fill="cyan" stroke="black" d="M1567.5,-414.5C1567.5,-414.5 1350.5,-414.5 1350.5,-414.5 1344.5,-414.5 1338.5,-408.5 1338.5,-402.5 1338.5,-402.5 1338.5,-378.5 1338.5,-378.5 1338.5,-372.5 1344.5,-366.5 1350.5,-366.5 1350.5,-366.5 1567.5,-366.5 1567.5,-366.5 1573.5,-366.5 1579.5,-372.5 1579.5,-378.5 1579.5,-378.5 1579.5,-402.5 1579.5,-402.5 1579.5,-408.5 1573.5,-414.5 1567.5,-414.5"/>
<text text-anchor="start" x="1430.5" y="-397.3" font-family="Times New Roman,serif" font-size="14.00">on_engine</text>
<polygon fill="none" stroke="black" points="1347,-370.5 1347,-391.5 1449,-391.5 1449,-370.5 1347,-370.5"/>
<text text-anchor="start" x="1350" y="-377.3" font-family="Times New Roman,serif" font-size="14.00">remote parent 0=</text>
<polygon fill="none" stroke="black" points="1449,-370.5 1449,-391.5 1572,-391.5 1572,-370.5 1449,-370.5"/>
<text text-anchor="start" x="1452" y="-377.3" font-family="Times New Roman,serif" font-size="14.00">cold_start:on_engine</text>
</a>
</g>
</g>
<!-- cluster_cluster_cluster_3447218200353024149439999564736220059176580604985910809432474993859311970617&#45;&gt;cluster_cluster_cluster_3447218200353024149439999564736220059176580604985910809435413959875299472221 -->
<g id="edge19" class="edge"><title>cluster_cluster_cluster_3447218200353024149439999564736220059176580604985910809432474993859311970617&#45;&gt;cluster_cluster_cluster_3447218200353024149439999564736220059176580604985910809435413959875299472221</title>
<path fill="none" stroke="black" d="M1344.25,-366.193C1344.25,-341.858 1344.25,-308 1344.25,-308 1344.25,-308 1335.08,-308 1335.08,-308"/>
<polygon fill="black" stroke="black" points="1335.08,-304.5 1325.08,-308 1335.08,-311.5 1335.08,-304.5"/>
</g>
<!-- cluster_cluster_cluster_3447218200353024149439999564736220059176580604985910809432474993859311970617&#45;&gt;cluster_cluster_cluster_3447218200353024149439999564736220059176580604985910809437009720278189805066 -->
<g id="edge20" class="edge"><title>cluster_cluster_cluster_3447218200353024149439999564736220059176580604985910809432474993859311970617&#45;&gt;cluster_cluster_cluster_3447218200353024149439999564736220059176580604985910809437009720278189805066</title>
<path fill="none" stroke="black" d="M1388.83,-366.163C1388.83,-304.319 1388.83,-146 1388.83,-146 1388.83,-146 1311.11,-146 1311.11,-146"/>
<polygon fill="black" stroke="black" points="1311.11,-142.5 1301.11,-146 1311.11,-149.5 1311.11,-142.5"/>
</g>
<!-- cluster_cluster_cluster_3447218200353024149439999564736220059176580604985910809433566090725529711883 -->
<g id="node14" class="node"><title>cluster_cluster_cluster_3447218200353024149439999564736220059176580604985910809433566090725529711883</title>
<g id="a_node14"><a xlink:title="on_idle">
<path fill="cyan" stroke="black" d="M764.5,-581C764.5,-581 563.5,-581 563.5,-581 557.5,-581 551.5,-575 551.5,-569 551.5,-569 551.5,-545 551.5,-545 551.5,-539 557.5,-533 563.5,-533 563.5,-533 764.5,-533 764.5,-533 770.5,-533 776.5,-539 776.5,-545 776.5,-545 776.5,-569 776.5,-569 776.5,-575 770.5,-581 764.5,-581"/>
<text text-anchor="start" x="643.5" y="-563.8" font-family="Times New Roman,serif" font-size="14.00">on_idle</text>
<polygon fill="none" stroke="black" points="560,-537 560,-558 662,-558 662,-537 560,-537"/>
<text text-anchor="start" x="563" y="-543.8" font-family="Times New Roman,serif" font-size="14.00">remote parent 0=</text>
<polygon fill="none" stroke="black" points="662,-537 662,-558 769,-558 769,-537 662,-537"/>
<text text-anchor="start" x="665" y="-543.8" font-family="Times New Roman,serif" font-size="14.00">cold_start:on_idle</text>
</a>
</g>
</g>
<!-- cluster_cluster_cluster_3447218200353024149439999564736220059176580604985910809433566090725529711883&#45;&gt;cluster_cluster_cluster_3447218200353024149439999564736220059176580604985910809436379047523413955815 -->
<g id="edge21" class="edge"><title>cluster_cluster_cluster_3447218200353024149439999564736220059176580604985910809433566090725529711883&#45;&gt;cluster_cluster_cluster_3447218200353024149439999564736220059176580604985910809436379047523413955815</title>
<path fill="none" stroke="black" d="M584.75,-532.748C584.75,-532.748 584.75,-507.288 584.75,-507.288"/>
<polygon fill="black" stroke="black" points="588.25,-507.287 584.75,-497.288 581.25,-507.288 588.25,-507.287"/>
</g>
</g>
</svg>
