<?xml version="1.0" encoding="UTF-8" standalone="no"?>
<!DOCTYPE svg PUBLIC "-//W3C//DTD SVG 1.1//EN"
 "http://www.w3.org/Graphics/SVG/1.1/DTD/svg11.dtd">
<!-- Generated by graphviz version 2.38.0 (20140413.2041)
 -->
<!-- Title: cluster_cmv_model Pages: 1 -->
<svg width="2178pt" height="349pt"
 viewBox="0.00 0.00 2178.00 349.00" xmlns="http://www.w3.org/2000/svg" xmlns:xlink="http://www.w3.org/1999/xlink">
<g id="graph0" class="graph" transform="scale(1 1) rotate(0) translate(4 345)">
<title>cluster_cmv_model</title>
<polygon fill="white" stroke="none" points="-4,4 -4,-345 2174,-345 2174,4 -4,4"/>
<text text-anchor="start" x="1051.5" y="-7.8" font-family="Times New Roman,serif" font-size="14.00">cmv_model</text>
<!-- cluster_cluster_cluster_cluster_&#45;5312595574835814363&#45;3079338983303448848506612701516435356&#45;406700203176877100&#45;8619711395951651950 -->
<g id="node1" class="node"><title>cluster_cluster_cluster_cluster_&#45;5312595574835814363&#45;3079338983303448848506612701516435356&#45;406700203176877100&#45;8619711395951651950</title>
<g id="a_node1"><a xlink:title="A gear shifting matrix (cmv or gspv).">
<path fill="cyan" stroke="black" d="M497.5,-341C497.5,-341 296.5,-341 296.5,-341 290.5,-341 284.5,-335 284.5,-329 284.5,-329 284.5,-284 284.5,-284 284.5,-278 290.5,-272 296.5,-272 296.5,-272 497.5,-272 497.5,-272 503.5,-272 509.5,-278 509.5,-284 509.5,-284 509.5,-329 509.5,-329 509.5,-335 503.5,-341 497.5,-341"/>
<text text-anchor="start" x="381.5" y="-323.3" font-family="Times New Roman,serif" font-size="14.00">CMV</text>
<polygon fill="none" stroke="black" points="293,-296.5 293,-317.5 395,-317.5 395,-296.5 293,-296.5"/>
<text text-anchor="start" x="304" y="-303.3" font-family="Times New Roman,serif" font-size="14.00">remote child 1=</text>
<polygon fill="none" stroke="black" points="395,-296.5 395,-317.5 502,-317.5 502,-296.5 395,-296.5"/>
<text text-anchor="start" x="398" y="-303.3" font-family="Times New Roman,serif" font-size="14.00">cmv_model:CMV</text>
<polygon fill="none" stroke="black" points="293,-275.5 293,-296.5 395,-296.5 395,-275.5 293,-275.5"/>
<text text-anchor="start" x="296" y="-282.3" font-family="Times New Roman,serif" font-size="14.00">remote parent 0=</text>
<polygon fill="none" stroke="black" points="395,-275.5 395,-296.5 502,-296.5 502,-275.5 395,-275.5"/>
<text text-anchor="start" x="398" y="-282.3" font-family="Times New Roman,serif" font-size="14.00">cmv_model:CMV</text>
</a>
</g>
</g>
<!-- cluster_cluster_cluster_cluster_&#45;5312595574835814363&#45;3079338983303448848506612701516435356&#45;4067002031768771005559161123170238860 -->
<g id="node4" class="node"><title>cluster_cluster_cluster_cluster_&#45;5312595574835814363&#45;3079338983303448848506612701516435356&#45;4067002031768771005559161123170238860</title>
<g id="a_node4"><a xlink:href="./../../../extract_calibrated_models/at_model_selector/AM-wltp_h_errors/AM-wltp_h_error_vs_wltp_h/Automatic_gear_model/cmv_model/co2mpas.model.physical.gear_box.at_gearprediction_gears_gsm.txt" xlink:title="Predicts gears with a gear shifting matrix (cmv or gspv) [&#45;].">
<polygon fill="springgreen" stroke="black" points="1191,-236 1047,-236 1047,-200 1191,-200 1191,-236"/>
<text text-anchor="start" x="1057" y="-213.8" font-family="Times New Roman,serif" font-size="14.00">prediction_gears_gsm</text>
</a>
</g>
</g>
<!-- cluster_cluster_cluster_cluster_&#45;5312595574835814363&#45;3079338983303448848506612701516435356&#45;406700203176877100&#45;8619711395951651950&#45;&gt;cluster_cluster_cluster_cluster_&#45;5312595574835814363&#45;3079338983303448848506612701516435356&#45;4067002031768771005559161123170238860 -->
<g id="edge1" class="edge"><title>cluster_cluster_cluster_cluster_&#45;5312595574835814363&#45;3079338983303448848506612701516435356&#45;406700203176877100&#45;8619711395951651950&#45;&gt;cluster_cluster_cluster_cluster_&#45;5312595574835814363&#45;3079338983303448848506612701516435356&#45;4067002031768771005559161123170238860</title>
<path fill="none" stroke="black" d="M509.713,-279C697.178,-279 1052.67,-279 1052.67,-279 1052.67,-279 1052.67,-246.302 1052.67,-246.302"/>
<polygon fill="black" stroke="black" points="1056.17,-246.302 1052.67,-236.302 1049.17,-246.302 1056.17,-246.302"/>
</g>
<!-- cluster_cluster_cluster_cluster_&#45;5312595574835814363&#45;3079338983303448848506612701516435356&#45;406700203176877100&#45;6281391710310240799 -->
<g id="node2" class="node"><title>cluster_cluster_cluster_cluster_&#45;5312595574835814363&#45;3079338983303448848506612701516435356&#45;406700203176877100&#45;6281391710310240799</title>
<g id="a_node2"><a xlink:title="Vehicle acceleration [m/s2].">
<path fill="cyan" stroke="black" d="M254,-330.5C254,-330.5 12,-330.5 12,-330.5 6,-330.5 0,-324.5 0,-318.5 0,-318.5 0,-294.5 0,-294.5 0,-288.5 6,-282.5 12,-282.5 12,-282.5 254,-282.5 254,-282.5 260,-282.5 266,-288.5 266,-294.5 266,-294.5 266,-318.5 266,-318.5 266,-324.5 260,-330.5 254,-330.5"/>
<text text-anchor="start" x="96.5" y="-313.3" font-family="Times New Roman,serif" font-size="14.00">accelerations</text>
<polygon fill="none" stroke="black" points="8,-286.5 8,-307.5 110,-307.5 110,-286.5 8,-286.5"/>
<text text-anchor="start" x="11" y="-293.3" font-family="Times New Roman,serif" font-size="14.00">remote parent 0=</text>
<polygon fill="none" stroke="black" points="110,-286.5 110,-307.5 258,-307.5 258,-286.5 110,-286.5"/>
<text text-anchor="start" x="113" y="-293.3" font-family="Times New Roman,serif" font-size="14.00">cmv_model:accelerations</text>
</a>
</g>
</g>
<!-- cluster_cluster_cluster_cluster_&#45;5312595574835814363&#45;3079338983303448848506612701516435356&#45;406700203176877100&#45;9062155745779228538 -->
<g id="node3" class="node"><title>cluster_cluster_cluster_cluster_&#45;5312595574835814363&#45;3079338983303448848506612701516435356&#45;406700203176877100&#45;9062155745779228538</title>
<g id="a_node3"><a xlink:href="./../../../extract_calibrated_models/at_model_selector/AM-wltp_h_errors/AM-wltp_h_error_vs_wltp_h/Automatic_gear_model/cmv_model/co2mpas.model.physical.gear_box.at_gearcalibrate_gear_shifting_cmv.txt" xlink:title="Calibrates a corrected matrix velocity to predict gears.">
<polygon fill="springgreen" stroke="black" points="1068,-59 890,-59 890,-23 1068,-23 1068,-59"/>
<text text-anchor="start" x="900.5" y="-36.8" font-family="Times New Roman,serif" font-size="14.00">calibrate_gear_shifting_cmv</text>
</a>
</g>
</g>
<!-- cluster_cluster_cluster_cluster_&#45;5312595574835814363&#45;3079338983303448848506612701516435356&#45;406700203176877100&#45;6281391710310240799&#45;&gt;cluster_cluster_cluster_cluster_&#45;5312595574835814363&#45;3079338983303448848506612701516435356&#45;406700203176877100&#45;9062155745779228538 -->
<g id="edge2" class="edge"><title>cluster_cluster_cluster_cluster_&#45;5312595574835814363&#45;3079338983303448848506612701516435356&#45;406700203176877100&#45;6281391710310240799&#45;&gt;cluster_cluster_cluster_cluster_&#45;5312595574835814363&#45;3079338983303448848506612701516435356&#45;406700203176877100&#45;9062155745779228538</title>
<path fill="none" stroke="black" d="M88.6667,-282.406C88.6667,-215.96 88.6667,-35 88.6667,-35 88.6667,-35 879.966,-35 879.966,-35"/>
<polygon fill="black" stroke="black" points="879.966,-38.5001 889.966,-35 879.966,-31.5001 879.966,-38.5001"/>
</g>
<!-- cluster_cluster_cluster_cluster_&#45;5312595574835814363&#45;3079338983303448848506612701516435356&#45;406700203176877100&#45;6281391710310240799&#45;&gt;cluster_cluster_cluster_cluster_&#45;5312595574835814363&#45;3079338983303448848506612701516435356&#45;4067002031768771005559161123170238860 -->
<g id="edge3" class="edge"><title>cluster_cluster_cluster_cluster_&#45;5312595574835814363&#45;3079338983303448848506612701516435356&#45;406700203176877100&#45;6281391710310240799&#45;&gt;cluster_cluster_cluster_cluster_&#45;5312595574835814363&#45;3079338983303448848506612701516435356&#45;4067002031768771005559161123170238860</title>
<path fill="none" stroke="black" d="M177.333,-282.164C177.333,-254.164 177.333,-212 177.333,-212 177.333,-212 1036.67,-212 1036.67,-212"/>
<polygon fill="black" stroke="black" points="1036.67,-215.5 1046.67,-212 1036.67,-208.5 1036.67,-215.5"/>
</g>
<!-- cluster_cluster_cluster_cluster_&#45;5312595574835814363&#45;3079338983303448848506612701516435356&#45;406700203176877100&#45;9062155745779228538&#45;&gt;cluster_cluster_cluster_cluster_&#45;5312595574835814363&#45;3079338983303448848506612701516435356&#45;406700203176877100&#45;8619711395951651950 -->
<g id="edge4" class="edge"><title>cluster_cluster_cluster_cluster_&#45;5312595574835814363&#45;3079338983303448848506612701516435356&#45;406700203176877100&#45;9062155745779228538&#45;&gt;cluster_cluster_cluster_cluster_&#45;5312595574835814363&#45;3079338983303448848506612701516435356&#45;406700203176877100&#45;8619711395951651950</title>
<path fill="none" stroke="black" d="M998.5,-59.3616C998.5,-114.525 998.5,-275 998.5,-275 998.5,-275 519.785,-275 519.785,-275"/>
<polygon fill="black" stroke="black" points="519.785,-271.5 509.785,-275 519.785,-278.5 519.785,-271.5"/>
</g>
<!-- cluster_cluster_cluster_cluster_&#45;5312595574835814363&#45;3079338983303448848506612701516435356&#45;4067002031768771005823726384603252559 -->
<g id="node9" class="node"><title>cluster_cluster_cluster_cluster_&#45;5312595574835814363&#45;3079338983303448848506612701516435356&#45;4067002031768771005823726384603252559</title>
<g id="a_node9"><a xlink:title="Gear vector [&#45;].">
<path fill="cyan" stroke="black" d="M1218.5,-164C1218.5,-164 1019.5,-164 1019.5,-164 1013.5,-164 1007.5,-158 1007.5,-152 1007.5,-152 1007.5,-107 1007.5,-107 1007.5,-101 1013.5,-95 1019.5,-95 1019.5,-95 1218.5,-95 1218.5,-95 1224.5,-95 1230.5,-101 1230.5,-107 1230.5,-107 1230.5,-152 1230.5,-152 1230.5,-158 1224.5,-164 1218.5,-164"/>
<text text-anchor="start" x="1104.5" y="-146.3" font-family="Times New Roman,serif" font-size="14.00">gears</text>
<polygon fill="none" stroke="black" points="1016,-119.5 1016,-140.5 1118,-140.5 1118,-119.5 1016,-119.5"/>
<text text-anchor="start" x="1027" y="-126.3" font-family="Times New Roman,serif" font-size="14.00">remote child 1=</text>
<polygon fill="none" stroke="black" points="1118,-119.5 1118,-140.5 1223,-140.5 1223,-119.5 1118,-119.5"/>
<text text-anchor="start" x="1121" y="-126.3" font-family="Times New Roman,serif" font-size="14.00">cmv_model:gears</text>
<polygon fill="none" stroke="black" points="1016,-98.5 1016,-119.5 1118,-119.5 1118,-98.5 1016,-98.5"/>
<text text-anchor="start" x="1019" y="-105.3" font-family="Times New Roman,serif" font-size="14.00">remote parent 0=</text>
<polygon fill="none" stroke="black" points="1118,-98.5 1118,-119.5 1223,-119.5 1223,-98.5 1118,-98.5"/>
<text text-anchor="start" x="1121" y="-105.3" font-family="Times New Roman,serif" font-size="14.00">cmv_model:gears</text>
</a>
</g>
</g>
<!-- cluster_cluster_cluster_cluster_&#45;5312595574835814363&#45;3079338983303448848506612701516435356&#45;4067002031768771005559161123170238860&#45;&gt;cluster_cluster_cluster_cluster_&#45;5312595574835814363&#45;3079338983303448848506612701516435356&#45;4067002031768771005823726384603252559 -->
<g id="edge5" class="edge"><title>cluster_cluster_cluster_cluster_&#45;5312595574835814363&#45;3079338983303448848506612701516435356&#45;4067002031768771005559161123170238860&#45;&gt;cluster_cluster_cluster_cluster_&#45;5312595574835814363&#45;3079338983303448848506612701516435356&#45;4067002031768771005823726384603252559</title>
<path fill="none" stroke="black" d="M1119,-199.663C1119,-199.663 1119,-174.269 1119,-174.269"/>
<polygon fill="black" stroke="black" points="1122.5,-174.269 1119,-164.269 1115.5,-174.269 1122.5,-174.269"/>
</g>
<!-- cluster_cluster_cluster_cluster_&#45;5312595574835814363&#45;3079338983303448848506612701516435356&#45;406700203176877100&#45;2328696801353446754 -->
<g id="node5" class="node"><title>cluster_cluster_cluster_cluster_&#45;5312595574835814363&#45;3079338983303448848506612701516435356&#45;406700203176877100&#45;2328696801353446754</title>
<g id="a_node5"><a xlink:title="A function to correct the predicted gear.">
<path fill="cyan" stroke="black" d="M780,-330.5C780,-330.5 540,-330.5 540,-330.5 534,-330.5 528,-324.5 528,-318.5 528,-318.5 528,-294.5 528,-294.5 528,-288.5 534,-282.5 540,-282.5 540,-282.5 780,-282.5 780,-282.5 786,-282.5 792,-288.5 792,-294.5 792,-294.5 792,-318.5 792,-318.5 792,-324.5 786,-330.5 780,-330.5"/>
<text text-anchor="start" x="624.5" y="-313.3" font-family="Times New Roman,serif" font-size="14.00">correct_gear</text>
<polygon fill="none" stroke="black" points="536,-286.5 536,-307.5 638,-307.5 638,-286.5 536,-286.5"/>
<text text-anchor="start" x="539" y="-293.3" font-family="Times New Roman,serif" font-size="14.00">remote parent 0=</text>
<polygon fill="none" stroke="black" points="638,-286.5 638,-307.5 784,-307.5 784,-286.5 638,-286.5"/>
<text text-anchor="start" x="641" y="-293.3" font-family="Times New Roman,serif" font-size="14.00">cmv_model:correct_gear</text>
</a>
</g>
</g>
<!-- cluster_cluster_cluster_cluster_&#45;5312595574835814363&#45;3079338983303448848506612701516435356&#45;406700203176877100&#45;2328696801353446754&#45;&gt;cluster_cluster_cluster_cluster_&#45;5312595574835814363&#45;3079338983303448848506612701516435356&#45;406700203176877100&#45;9062155745779228538 -->
<g id="edge6" class="edge"><title>cluster_cluster_cluster_cluster_&#45;5312595574835814363&#45;3079338983303448848506612701516435356&#45;406700203176877100&#45;2328696801353446754&#45;&gt;cluster_cluster_cluster_cluster_&#45;5312595574835814363&#45;3079338983303448848506612701516435356&#45;406700203176877100&#45;9062155745779228538</title>
<path fill="none" stroke="black" d="M608.25,-282.087C608.25,-217.488 608.25,-47 608.25,-47 608.25,-47 879.724,-47 879.724,-47"/>
<polygon fill="black" stroke="black" points="879.724,-50.5001 889.724,-47 879.724,-43.5001 879.724,-50.5001"/>
</g>
<!-- cluster_cluster_cluster_cluster_&#45;5312595574835814363&#45;3079338983303448848506612701516435356&#45;406700203176877100&#45;2328696801353446754&#45;&gt;cluster_cluster_cluster_cluster_&#45;5312595574835814363&#45;3079338983303448848506612701516435356&#45;4067002031768771005559161123170238860 -->
<g id="edge7" class="edge"><title>cluster_cluster_cluster_cluster_&#45;5312595574835814363&#45;3079338983303448848506612701516435356&#45;406700203176877100&#45;2328696801353446754&#45;&gt;cluster_cluster_cluster_cluster_&#45;5312595574835814363&#45;3079338983303448848506612701516435356&#45;4067002031768771005559161123170238860</title>
<path fill="none" stroke="black" d="M740.25,-282.193C740.25,-257.858 740.25,-224 740.25,-224 740.25,-224 1036.87,-224 1036.87,-224"/>
<polygon fill="black" stroke="black" points="1036.87,-227.5 1046.87,-224 1036.87,-220.5 1036.87,-227.5"/>
</g>
<!-- cluster_cluster_cluster_cluster_&#45;5312595574835814363&#45;3079338983303448848506612701516435356&#45;4067002031768771003659860576675406351 -->
<g id="node6" class="node"><title>cluster_cluster_cluster_cluster_&#45;5312595574835814363&#45;3079338983303448848506612701516435356&#45;4067002031768771003659860576675406351</title>
<g id="a_node6"><a xlink:title="Cycle type (WLTP or NEDC).">
<path fill="cyan" stroke="black" d="M1052,-330.5C1052,-330.5 822,-330.5 822,-330.5 816,-330.5 810,-324.5 810,-318.5 810,-318.5 810,-294.5 810,-294.5 810,-288.5 816,-282.5 822,-282.5 822,-282.5 1052,-282.5 1052,-282.5 1058,-282.5 1064,-288.5 1064,-294.5 1064,-294.5 1064,-318.5 1064,-318.5 1064,-324.5 1058,-330.5 1052,-330.5"/>
<text text-anchor="start" x="906.5" y="-313.3" font-family="Times New Roman,serif" font-size="14.00">cycle_type</text>
<polygon fill="none" stroke="black" points="818,-286.5 818,-307.5 920,-307.5 920,-286.5 818,-286.5"/>
<text text-anchor="start" x="821" y="-293.3" font-family="Times New Roman,serif" font-size="14.00">remote parent 0=</text>
<polygon fill="none" stroke="black" points="920,-286.5 920,-307.5 1056,-307.5 1056,-286.5 920,-286.5"/>
<text text-anchor="start" x="923" y="-293.3" font-family="Times New Roman,serif" font-size="14.00">cmv_model:cycle_type</text>
</a>
</g>
</g>
<!-- cluster_cluster_cluster_cluster_&#45;5312595574835814363&#45;3079338983303448848506612701516435356&#45;4067002031768771003659860576675406351&#45;&gt;cluster_cluster_cluster_cluster_&#45;5312595574835814363&#45;3079338983303448848506612701516435356&#45;4067002031768771005559161123170238860 -->
<g id="edge8" class="edge"><title>cluster_cluster_cluster_cluster_&#45;5312595574835814363&#45;3079338983303448848506612701516435356&#45;4067002031768771003659860576675406351&#45;&gt;cluster_cluster_cluster_cluster_&#45;5312595574835814363&#45;3079338983303448848506612701516435356&#45;4067002031768771005559161123170238860</title>
<path fill="none" stroke="black" d="M1058.33,-282.317C1058.33,-282.317 1058.33,-246.257 1058.33,-246.257"/>
<polygon fill="black" stroke="black" points="1061.83,-246.257 1058.33,-236.257 1054.83,-246.257 1061.83,-246.257"/>
</g>
<!-- cluster_cluster_cluster_cluster_&#45;5312595574835814363&#45;3079338983303448848506612701516435356&#45;406700203176877100&#45;3904256270299959966 -->
<g id="node7" class="node"><title>cluster_cluster_cluster_cluster_&#45;5312595574835814363&#45;3079338983303448848506612701516435356&#45;406700203176877100&#45;3904256270299959966</title>
<g id="a_node7"><a xlink:title="Engine speed vector [RPM].">
<path fill="cyan" stroke="black" d="M977.5,-153.5C977.5,-153.5 700.5,-153.5 700.5,-153.5 694.5,-153.5 688.5,-147.5 688.5,-141.5 688.5,-141.5 688.5,-117.5 688.5,-117.5 688.5,-111.5 694.5,-105.5 700.5,-105.5 700.5,-105.5 977.5,-105.5 977.5,-105.5 983.5,-105.5 989.5,-111.5 989.5,-117.5 989.5,-117.5 989.5,-141.5 989.5,-141.5 989.5,-147.5 983.5,-153.5 977.5,-153.5"/>
<text text-anchor="start" x="785.5" y="-136.3" font-family="Times New Roman,serif" font-size="14.00">engine_speeds_out</text>
<polygon fill="none" stroke="black" points="697,-109.5 697,-130.5 799,-130.5 799,-109.5 697,-109.5"/>
<text text-anchor="start" x="700" y="-116.3" font-family="Times New Roman,serif" font-size="14.00">remote parent 0=</text>
<polygon fill="none" stroke="black" points="799,-109.5 799,-130.5 982,-130.5 982,-109.5 799,-109.5"/>
<text text-anchor="start" x="802" y="-116.3" font-family="Times New Roman,serif" font-size="14.00">cmv_model:engine_speeds_out</text>
</a>
</g>
</g>
<!-- cluster_cluster_cluster_cluster_&#45;5312595574835814363&#45;3079338983303448848506612701516435356&#45;406700203176877100&#45;3904256270299959966&#45;&gt;cluster_cluster_cluster_cluster_&#45;5312595574835814363&#45;3079338983303448848506612701516435356&#45;406700203176877100&#45;9062155745779228538 -->
<g id="edge9" class="edge"><title>cluster_cluster_cluster_cluster_&#45;5312595574835814363&#45;3079338983303448848506612701516435356&#45;406700203176877100&#45;3904256270299959966&#45;&gt;cluster_cluster_cluster_cluster_&#45;5312595574835814363&#45;3079338983303448848506612701516435356&#45;406700203176877100&#45;9062155745779228538</title>
<path fill="none" stroke="black" d="M939.75,-105.317C939.75,-105.317 939.75,-69.2568 939.75,-69.2568"/>
<polygon fill="black" stroke="black" points="943.25,-69.2567 939.75,-59.2568 936.25,-69.2568 943.25,-69.2567"/>
</g>
<!-- cluster_cluster_cluster_cluster_&#45;5312595574835814363&#45;3079338983303448848506612701516435356&#45;4067002031768771002896906763587689886 -->
<g id="node8" class="node"><title>cluster_cluster_cluster_cluster_&#45;5312595574835814363&#45;3079338983303448848506612701516435356&#45;4067002031768771002896906763587689886</title>
<g id="a_node8"><a xlink:title="Gear filter function.">
<path fill="cyan" stroke="black" d="M1319.5,-330.5C1319.5,-330.5 1094.5,-330.5 1094.5,-330.5 1088.5,-330.5 1082.5,-324.5 1082.5,-318.5 1082.5,-318.5 1082.5,-294.5 1082.5,-294.5 1082.5,-288.5 1088.5,-282.5 1094.5,-282.5 1094.5,-282.5 1319.5,-282.5 1319.5,-282.5 1325.5,-282.5 1331.5,-288.5 1331.5,-294.5 1331.5,-294.5 1331.5,-318.5 1331.5,-318.5 1331.5,-324.5 1325.5,-330.5 1319.5,-330.5"/>
<text text-anchor="start" x="1179.5" y="-313.3" font-family="Times New Roman,serif" font-size="14.00">gear_filter</text>
<polygon fill="none" stroke="black" points="1091,-286.5 1091,-307.5 1193,-307.5 1193,-286.5 1091,-286.5"/>
<text text-anchor="start" x="1094" y="-293.3" font-family="Times New Roman,serif" font-size="14.00">remote parent 0=</text>
<polygon fill="none" stroke="black" points="1193,-286.5 1193,-307.5 1324,-307.5 1324,-286.5 1193,-286.5"/>
<text text-anchor="start" x="1196" y="-293.3" font-family="Times New Roman,serif" font-size="14.00">cmv_model:gear_filter</text>
</a>
</g>
</g>
<!-- cluster_cluster_cluster_cluster_&#45;5312595574835814363&#45;3079338983303448848506612701516435356&#45;4067002031768771002896906763587689886&#45;&gt;cluster_cluster_cluster_cluster_&#45;5312595574835814363&#45;3079338983303448848506612701516435356&#45;4067002031768771005559161123170238860 -->
<g id="edge10" class="edge"><title>cluster_cluster_cluster_cluster_&#45;5312595574835814363&#45;3079338983303448848506612701516435356&#45;4067002031768771002896906763587689886&#45;&gt;cluster_cluster_cluster_cluster_&#45;5312595574835814363&#45;3079338983303448848506612701516435356&#45;4067002031768771005559161123170238860</title>
<path fill="none" stroke="black" d="M1136.75,-282.317C1136.75,-282.317 1136.75,-246.257 1136.75,-246.257"/>
<polygon fill="black" stroke="black" points="1140.25,-246.257 1136.75,-236.257 1133.25,-246.257 1140.25,-246.257"/>
</g>
<!-- cluster_cluster_cluster_cluster_&#45;5312595574835814363&#45;3079338983303448848506612701516435356&#45;4067002031768771005823726384603252559&#45;&gt;cluster_cluster_cluster_cluster_&#45;5312595574835814363&#45;3079338983303448848506612701516435356&#45;406700203176877100&#45;9062155745779228538 -->
<g id="edge11" class="edge"><title>cluster_cluster_cluster_cluster_&#45;5312595574835814363&#45;3079338983303448848506612701516435356&#45;4067002031768771005823726384603252559&#45;&gt;cluster_cluster_cluster_cluster_&#45;5312595574835814363&#45;3079338983303448848506612701516435356&#45;406700203176877100&#45;9062155745779228538</title>
<path fill="none" stroke="black" d="M1037.75,-94.7765C1037.75,-94.7765 1037.75,-69.0777 1037.75,-69.0777"/>
<polygon fill="black" stroke="black" points="1041.25,-69.0777 1037.75,-59.0777 1034.25,-69.0778 1041.25,-69.0777"/>
</g>
<!-- cluster_cluster_cluster_cluster_&#45;5312595574835814363&#45;3079338983303448848506612701516435356&#45;406700203176877100&#45;3822089204281359213 -->
<g id="node10" class="node"><title>cluster_cluster_cluster_cluster_&#45;5312595574835814363&#45;3079338983303448848506612701516435356&#45;406700203176877100&#45;3822089204281359213</title>
<g id="a_node10"><a xlink:title="Maximum velocity to consider the vehicle stopped [km/h].">
<path fill="cyan" stroke="black" d="M1505.5,-164C1505.5,-164 1260.5,-164 1260.5,-164 1254.5,-164 1248.5,-158 1248.5,-152 1248.5,-152 1248.5,-107 1248.5,-107 1248.5,-101 1254.5,-95 1260.5,-95 1260.5,-95 1505.5,-95 1505.5,-95 1511.5,-95 1517.5,-101 1517.5,-107 1517.5,-107 1517.5,-152 1517.5,-152 1517.5,-158 1511.5,-164 1505.5,-164"/>
<text text-anchor="start" x="1345.5" y="-146.3" font-family="Times New Roman,serif" font-size="14.00">stop_velocity</text>
<polygon fill="none" stroke="black" points="1257,-119.5 1257,-140.5 1359,-140.5 1359,-119.5 1257,-119.5"/>
<text text-anchor="start" x="1310" y="-126.3" font-family="Times New Roman,serif" font-size="14.00">default=</text>
<polygon fill="none" stroke="black" points="1359,-119.5 1359,-140.5 1510,-140.5 1510,-119.5 1359,-119.5"/>
<text text-anchor="start" x="1362" y="-126.3" font-family="Times New Roman,serif" font-size="14.00">1.0000001192092896</text>
<polygon fill="none" stroke="black" points="1257,-98.5 1257,-119.5 1359,-119.5 1359,-98.5 1257,-98.5"/>
<text text-anchor="start" x="1260" y="-105.3" font-family="Times New Roman,serif" font-size="14.00">remote parent 0=</text>
<polygon fill="none" stroke="black" points="1359,-98.5 1359,-119.5 1510,-119.5 1510,-98.5 1359,-98.5"/>
<text text-anchor="start" x="1362" y="-105.3" font-family="Times New Roman,serif" font-size="14.00">cmv_model:stop_velocity</text>
</a>
</g>
</g>
<!-- cluster_cluster_cluster_cluster_&#45;5312595574835814363&#45;3079338983303448848506612701516435356&#45;406700203176877100&#45;3822089204281359213&#45;&gt;cluster_cluster_cluster_cluster_&#45;5312595574835814363&#45;3079338983303448848506612701516435356&#45;406700203176877100&#45;9062155745779228538 -->
<g id="edge12" class="edge"><title>cluster_cluster_cluster_cluster_&#45;5312595574835814363&#45;3079338983303448848506612701516435356&#45;406700203176877100&#45;3822089204281359213&#45;&gt;cluster_cluster_cluster_cluster_&#45;5312595574835814363&#45;3079338983303448848506612701516435356&#45;406700203176877100&#45;9062155745779228538</title>
<path fill="none" stroke="black" d="M1383,-94.8614C1383,-73.4378 1383,-50 1383,-50 1383,-50 1078.16,-50 1078.16,-50"/>
<polygon fill="black" stroke="black" points="1078.16,-46.5001 1068.16,-50 1078.16,-53.5001 1078.16,-46.5001"/>
</g>
<!-- cluster_cluster_cluster_cluster_&#45;5312595574835814363&#45;3079338983303448848506612701516435356&#45;406700203176877100&#45;1825562924159530342 -->
<g id="node11" class="node"><title>cluster_cluster_cluster_cluster_&#45;5312595574835814363&#45;3079338983303448848506612701516435356&#45;406700203176877100&#45;1825562924159530342</title>
<g id="a_node11"><a xlink:title="Time vector [s].">
<path fill="cyan" stroke="black" d="M1560.5,-330.5C1560.5,-330.5 1361.5,-330.5 1361.5,-330.5 1355.5,-330.5 1349.5,-324.5 1349.5,-318.5 1349.5,-318.5 1349.5,-294.5 1349.5,-294.5 1349.5,-288.5 1355.5,-282.5 1361.5,-282.5 1361.5,-282.5 1560.5,-282.5 1560.5,-282.5 1566.5,-282.5 1572.5,-288.5 1572.5,-294.5 1572.5,-294.5 1572.5,-318.5 1572.5,-318.5 1572.5,-324.5 1566.5,-330.5 1560.5,-330.5"/>
<text text-anchor="start" x="1446.5" y="-313.3" font-family="Times New Roman,serif" font-size="14.00">times</text>
<polygon fill="none" stroke="black" points="1358,-286.5 1358,-307.5 1460,-307.5 1460,-286.5 1358,-286.5"/>
<text text-anchor="start" x="1361" y="-293.3" font-family="Times New Roman,serif" font-size="14.00">remote parent 0=</text>
<polygon fill="none" stroke="black" points="1460,-286.5 1460,-307.5 1565,-307.5 1565,-286.5 1460,-286.5"/>
<text text-anchor="start" x="1463" y="-293.3" font-family="Times New Roman,serif" font-size="14.00">cmv_model:times</text>
</a>
</g>
</g>
<!-- cluster_cluster_cluster_cluster_&#45;5312595574835814363&#45;3079338983303448848506612701516435356&#45;406700203176877100&#45;1825562924159530342&#45;&gt;cluster_cluster_cluster_cluster_&#45;5312595574835814363&#45;3079338983303448848506612701516435356&#45;4067002031768771005559161123170238860 -->
<g id="edge13" class="edge"><title>cluster_cluster_cluster_cluster_&#45;5312595574835814363&#45;3079338983303448848506612701516435356&#45;406700203176877100&#45;1825562924159530342&#45;&gt;cluster_cluster_cluster_cluster_&#45;5312595574835814363&#45;3079338983303448848506612701516435356&#45;4067002031768771005559161123170238860</title>
<path fill="none" stroke="black" d="M1433.5,-282.215C1433.5,-258.836 1433.5,-227 1433.5,-227 1433.5,-227 1201.15,-227 1201.15,-227"/>
<polygon fill="black" stroke="black" points="1201.15,-223.5 1191.15,-227 1201.15,-230.5 1201.15,-223.5"/>
</g>
<!-- cluster_cluster_cluster_cluster_&#45;5312595574835814363&#45;3079338983303448848506612701516435356&#45;4067002031768771001395676110976739562 -->
<g id="node12" class="node"><title>cluster_cluster_cluster_cluster_&#45;5312595574835814363&#45;3079338983303448848506612701516435356&#45;4067002031768771001395676110976739562</title>
<g id="a_node12"><a xlink:title="Vehicle velocity [km/h].">
<path fill="cyan" stroke="black" d="M1823.5,-330.5C1823.5,-330.5 1602.5,-330.5 1602.5,-330.5 1596.5,-330.5 1590.5,-324.5 1590.5,-318.5 1590.5,-318.5 1590.5,-294.5 1590.5,-294.5 1590.5,-288.5 1596.5,-282.5 1602.5,-282.5 1602.5,-282.5 1823.5,-282.5 1823.5,-282.5 1829.5,-282.5 1835.5,-288.5 1835.5,-294.5 1835.5,-294.5 1835.5,-318.5 1835.5,-318.5 1835.5,-324.5 1829.5,-330.5 1823.5,-330.5"/>
<text text-anchor="start" x="1687.5" y="-313.3" font-family="Times New Roman,serif" font-size="14.00">velocities</text>
<polygon fill="none" stroke="black" points="1599,-286.5 1599,-307.5 1701,-307.5 1701,-286.5 1599,-286.5"/>
<text text-anchor="start" x="1602" y="-293.3" font-family="Times New Roman,serif" font-size="14.00">remote parent 0=</text>
<polygon fill="none" stroke="black" points="1701,-286.5 1701,-307.5 1828,-307.5 1828,-286.5 1701,-286.5"/>
<text text-anchor="start" x="1704" y="-293.3" font-family="Times New Roman,serif" font-size="14.00">cmv_model:velocities</text>
</a>
</g>
</g>
<!-- cluster_cluster_cluster_cluster_&#45;5312595574835814363&#45;3079338983303448848506612701516435356&#45;4067002031768771001395676110976739562&#45;&gt;cluster_cluster_cluster_cluster_&#45;5312595574835814363&#45;3079338983303448848506612701516435356&#45;406700203176877100&#45;9062155745779228538 -->
<g id="edge14" class="edge"><title>cluster_cluster_cluster_cluster_&#45;5312595574835814363&#45;3079338983303448848506612701516435356&#45;4067002031768771001395676110976739562&#45;&gt;cluster_cluster_cluster_cluster_&#45;5312595574835814363&#45;3079338983303448848506612701516435356&#45;406700203176877100&#45;9062155745779228538</title>
<path fill="none" stroke="black" d="M1753.83,-282.47C1753.83,-217.115 1753.83,-41 1753.83,-41 1753.83,-41 1078.26,-41 1078.26,-41"/>
<polygon fill="black" stroke="black" points="1078.26,-37.5001 1068.26,-41 1078.26,-44.5001 1078.26,-37.5001"/>
</g>
<!-- cluster_cluster_cluster_cluster_&#45;5312595574835814363&#45;3079338983303448848506612701516435356&#45;4067002031768771001395676110976739562&#45;&gt;cluster_cluster_cluster_cluster_&#45;5312595574835814363&#45;3079338983303448848506612701516435356&#45;4067002031768771005559161123170238860 -->
<g id="edge15" class="edge"><title>cluster_cluster_cluster_cluster_&#45;5312595574835814363&#45;3079338983303448848506612701516435356&#45;4067002031768771001395676110976739562&#45;&gt;cluster_cluster_cluster_cluster_&#45;5312595574835814363&#45;3079338983303448848506612701516435356&#45;4067002031768771005559161123170238860</title>
<path fill="none" stroke="black" d="M1672.17,-282.317C1672.17,-256.114 1672.17,-218 1672.17,-218 1672.17,-218 1201.03,-218 1201.03,-218"/>
<polygon fill="black" stroke="black" points="1201.03,-214.5 1191.03,-218 1201.03,-221.5 1201.03,-214.5"/>
</g>
<!-- cluster_cluster_cluster_cluster_&#45;5312595574835814363&#45;3079338983303448848506612701516435356&#45;4067002031768771005551426227045653540 -->
<g id="node13" class="node"><title>cluster_cluster_cluster_cluster_&#45;5312595574835814363&#45;3079338983303448848506612701516435356&#45;4067002031768771005551426227045653540</title>
<g id="a_node13"><a xlink:title="Constant velocity speed ratios of the gear box [km/(h*RPM)].">
<path fill="cyan" stroke="black" d="M2158,-330.5C2158,-330.5 1866,-330.5 1866,-330.5 1860,-330.5 1854,-324.5 1854,-318.5 1854,-318.5 1854,-294.5 1854,-294.5 1854,-288.5 1860,-282.5 1866,-282.5 1866,-282.5 2158,-282.5 2158,-282.5 2164,-282.5 2170,-288.5 2170,-294.5 2170,-294.5 2170,-318.5 2170,-318.5 2170,-324.5 2164,-330.5 2158,-330.5"/>
<text text-anchor="start" x="1950.5" y="-313.3" font-family="Times New Roman,serif" font-size="14.00">velocity_speed_ratios</text>
<polygon fill="none" stroke="black" points="1862,-286.5 1862,-307.5 1964,-307.5 1964,-286.5 1862,-286.5"/>
<text text-anchor="start" x="1865" y="-293.3" font-family="Times New Roman,serif" font-size="14.00">remote parent 0=</text>
<polygon fill="none" stroke="black" points="1964,-286.5 1964,-307.5 2162,-307.5 2162,-286.5 1964,-286.5"/>
<text text-anchor="start" x="1967" y="-293.3" font-family="Times New Roman,serif" font-size="14.00">cmv_model:velocity_speed_ratios</text>
</a>
</g>
</g>
<!-- cluster_cluster_cluster_cluster_&#45;5312595574835814363&#45;3079338983303448848506612701516435356&#45;4067002031768771005551426227045653540&#45;&gt;cluster_cluster_cluster_cluster_&#45;5312595574835814363&#45;3079338983303448848506612701516435356&#45;406700203176877100&#45;9062155745779228538 -->
<g id="edge16" class="edge"><title>cluster_cluster_cluster_cluster_&#45;5312595574835814363&#45;3079338983303448848506612701516435356&#45;4067002031768771005551426227045653540&#45;&gt;cluster_cluster_cluster_cluster_&#45;5312595574835814363&#45;3079338983303448848506612701516435356&#45;406700203176877100&#45;9062155745779228538</title>
<path fill="none" stroke="black" d="M2064.67,-282.14C2064.67,-214.96 2064.67,-32 2064.67,-32 2064.67,-32 1078.31,-32 1078.31,-32"/>
<polygon fill="black" stroke="black" points="1078.31,-28.5001 1068.31,-32 1078.31,-35.5001 1078.31,-28.5001"/>
</g>
<!-- cluster_cluster_cluster_cluster_&#45;5312595574835814363&#45;3079338983303448848506612701516435356&#45;4067002031768771005551426227045653540&#45;&gt;cluster_cluster_cluster_cluster_&#45;5312595574835814363&#45;3079338983303448848506612701516435356&#45;4067002031768771005559161123170238860 -->
<g id="edge17" class="edge"><title>cluster_cluster_cluster_cluster_&#45;5312595574835814363&#45;3079338983303448848506612701516435356&#45;4067002031768771005551426227045653540&#45;&gt;cluster_cluster_cluster_cluster_&#45;5312595574835814363&#45;3079338983303448848506612701516435356&#45;4067002031768771005559161123170238860</title>
<path fill="none" stroke="black" d="M1959.33,-282.399C1959.33,-253.526 1959.33,-209 1959.33,-209 1959.33,-209 1201.01,-209 1201.01,-209"/>
<polygon fill="black" stroke="black" points="1201.01,-205.5 1191.01,-209 1201.01,-212.5 1201.01,-205.5"/>
</g>
</g>
</svg>
