<?xml version="1.0" encoding="UTF-8" standalone="no"?>
<!DOCTYPE svg PUBLIC "-//W3C//DTD SVG 1.1//EN"
 "http://www.w3.org/Graphics/SVG/1.1/DTD/svg11.dtd">
<!-- Generated by graphviz version 2.38.0 (20140413.2041)
 -->
<!-- Title: cluster_dt_vatp_model Pages: 1 -->
<svg width="2426pt" height="349pt"
 viewBox="0.00 0.00 2426.00 349.00" xmlns="http://www.w3.org/2000/svg" xmlns:xlink="http://www.w3.org/1999/xlink">
<g id="graph0" class="graph" transform="scale(1 1) rotate(0) translate(4 345)">
<title>cluster_dt_vatp_model</title>
<polygon fill="white" stroke="none" points="-4,4 -4,-345 2422,-345 2422,4 -4,4"/>
<text text-anchor="start" x="1166.5" y="-7.8" font-family="Times New Roman,serif" font-size="14.00">dt_vatp_model</text>
<!-- cluster_cluster_cluster_cluster_&#45;5312595574835814363&#45;3079338983303448848506612701516435356&#45;14044540706983467096701040303363961724 -->
<g id="node1" class="node"><title>cluster_cluster_cluster_cluster_&#45;5312595574835814363&#45;3079338983303448848506612701516435356&#45;14044540706983467096701040303363961724</title>
<g id="a_node1"><a xlink:title="A decision tree classifier to predict gears.">
<path fill="cyan" stroke="black" d="M565.5,-341C565.5,-341 314.5,-341 314.5,-341 308.5,-341 302.5,-335 302.5,-329 302.5,-329 302.5,-284 302.5,-284 302.5,-278 308.5,-272 314.5,-272 314.5,-272 565.5,-272 565.5,-272 571.5,-272 577.5,-278 577.5,-284 577.5,-284 577.5,-329 577.5,-329 577.5,-335 571.5,-341 565.5,-341"/>
<text text-anchor="start" x="408.5" y="-323.3" font-family="Times New Roman,serif" font-size="14.00">DT_VATP</text>
<polygon fill="none" stroke="black" points="311,-296.5 311,-317.5 413,-317.5 413,-296.5 311,-296.5"/>
<text text-anchor="start" x="322" y="-303.3" font-family="Times New Roman,serif" font-size="14.00">remote child 1=</text>
<polygon fill="none" stroke="black" points="413,-296.5 413,-317.5 570,-317.5 570,-296.5 413,-296.5"/>
<text text-anchor="start" x="416" y="-303.3" font-family="Times New Roman,serif" font-size="14.00">dt_vatp_model:DT_VATP</text>
<polygon fill="none" stroke="black" points="311,-275.5 311,-296.5 413,-296.5 413,-275.5 311,-275.5"/>
<text text-anchor="start" x="314" y="-282.3" font-family="Times New Roman,serif" font-size="14.00">remote parent 0=</text>
<polygon fill="none" stroke="black" points="413,-275.5 413,-296.5 570,-296.5 570,-275.5 413,-275.5"/>
<text text-anchor="start" x="416" y="-282.3" font-family="Times New Roman,serif" font-size="14.00">dt_vatp_model:DT_VATP</text>
</a>
</g>
</g>
<!-- cluster_cluster_cluster_cluster_&#45;5312595574835814363&#45;3079338983303448848506612701516435356&#45;1404454070698346709&#45;412320468793053698 -->
<g id="node4" class="node"><title>cluster_cluster_cluster_cluster_&#45;5312595574835814363&#45;3079338983303448848506612701516435356&#45;1404454070698346709&#45;412320468793053698</title>
<g id="a_node4"><a xlink:href="./../../../extract_calibrated_models/at_model_selector/AM-wltp_h_errors/AM-wltp_h_error_vs_wltp_h/Automatic_gear_model/dt_va_model/co2mpas.model.physical.gear_box.at_gearprediction_gears_decision_tree.txt" xlink:title="Predicts gears with a decision tree classifier [&#45;].">
<polygon fill="springgreen" stroke="black" points="1228,-236 1032,-236 1032,-200 1228,-200 1228,-236"/>
<text text-anchor="start" x="1042.5" y="-213.8" font-family="Times New Roman,serif" font-size="14.00">prediction_gears_decision_tree</text>
</a>
</g>
</g>
<!-- cluster_cluster_cluster_cluster_&#45;5312595574835814363&#45;3079338983303448848506612701516435356&#45;14044540706983467096701040303363961724&#45;&gt;cluster_cluster_cluster_cluster_&#45;5312595574835814363&#45;3079338983303448848506612701516435356&#45;1404454070698346709&#45;412320468793053698 -->
<g id="edge1" class="edge"><title>cluster_cluster_cluster_cluster_&#45;5312595574835814363&#45;3079338983303448848506612701516435356&#45;14044540706983467096701040303363961724&#45;&gt;cluster_cluster_cluster_cluster_&#45;5312595574835814363&#45;3079338983303448848506612701516435356&#45;1404454070698346709&#45;412320468793053698</title>
<path fill="none" stroke="black" d="M577.799,-279C770.55,-279 1097.33,-279 1097.33,-279 1097.33,-279 1097.33,-246.302 1097.33,-246.302"/>
<polygon fill="black" stroke="black" points="1100.83,-246.302 1097.33,-236.302 1093.83,-246.302 1100.83,-246.302"/>
</g>
<!-- cluster_cluster_cluster_cluster_&#45;5312595574835814363&#45;3079338983303448848506612701516435356&#45;1404454070698346709&#45;6281391710310240799 -->
<g id="node2" class="node"><title>cluster_cluster_cluster_cluster_&#45;5312595574835814363&#45;3079338983303448848506612701516435356&#45;1404454070698346709&#45;6281391710310240799</title>
<g id="a_node2"><a xlink:title="Acceleration vector [m/s2].">
<path fill="cyan" stroke="black" d="M272,-330.5C272,-330.5 12,-330.5 12,-330.5 6,-330.5 0,-324.5 0,-318.5 0,-318.5 0,-294.5 0,-294.5 0,-288.5 6,-282.5 12,-282.5 12,-282.5 272,-282.5 272,-282.5 278,-282.5 284,-288.5 284,-294.5 284,-294.5 284,-318.5 284,-318.5 284,-324.5 278,-330.5 272,-330.5"/>
<text text-anchor="start" x="105.5" y="-313.3" font-family="Times New Roman,serif" font-size="14.00">accelerations</text>
<polygon fill="none" stroke="black" points="8,-286.5 8,-307.5 110,-307.5 110,-286.5 8,-286.5"/>
<text text-anchor="start" x="11" y="-293.3" font-family="Times New Roman,serif" font-size="14.00">remote parent 0=</text>
<polygon fill="none" stroke="black" points="110,-286.5 110,-307.5 276,-307.5 276,-286.5 110,-286.5"/>
<text text-anchor="start" x="113" y="-293.3" font-family="Times New Roman,serif" font-size="14.00">dt_vatp_model:accelerations</text>
</a>
</g>
</g>
<!-- cluster_cluster_cluster_cluster_&#45;5312595574835814363&#45;3079338983303448848506612701516435356&#45;1404454070698346709&#45;992705794952703737 -->
<g id="node3" class="node"><title>cluster_cluster_cluster_cluster_&#45;5312595574835814363&#45;3079338983303448848506612701516435356&#45;1404454070698346709&#45;992705794952703737</title>
<g id="a_node3"><a xlink:href="./../../../extract_calibrated_models/at_model_selector/AM-wltp_h_errors/AM-wltp_h_error_vs_wltp_h/Automatic_gear_model/dt_va_model/co2mpas.model.physical.gear_box.at_gearcalibrate_gear_shifting_decision_tree.txt" xlink:title="Calibrates a decision tree classifier to predict gears.">
<polygon fill="springgreen" stroke="black" points="1064,-59 836,-59 836,-23 1064,-23 1064,-59"/>
<text text-anchor="start" x="846" y="-36.8" font-family="Times New Roman,serif" font-size="14.00">calibrate_gear_shifting_decision_tree</text>
</a>
</g>
</g>
<!-- cluster_cluster_cluster_cluster_&#45;5312595574835814363&#45;3079338983303448848506612701516435356&#45;1404454070698346709&#45;6281391710310240799&#45;&gt;cluster_cluster_cluster_cluster_&#45;5312595574835814363&#45;3079338983303448848506612701516435356&#45;1404454070698346709&#45;992705794952703737 -->
<g id="edge2" class="edge"><title>cluster_cluster_cluster_cluster_&#45;5312595574835814363&#45;3079338983303448848506612701516435356&#45;1404454070698346709&#45;6281391710310240799&#45;&gt;cluster_cluster_cluster_cluster_&#45;5312595574835814363&#45;3079338983303448848506612701516435356&#45;1404454070698346709&#45;992705794952703737</title>
<path fill="none" stroke="black" d="M94.6667,-282.47C94.6667,-217.115 94.6667,-41 94.6667,-41 94.6667,-41 825.976,-41 825.976,-41"/>
<polygon fill="black" stroke="black" points="825.976,-44.5001 835.976,-41 825.976,-37.5001 825.976,-44.5001"/>
</g>
<!-- cluster_cluster_cluster_cluster_&#45;5312595574835814363&#45;3079338983303448848506612701516435356&#45;1404454070698346709&#45;6281391710310240799&#45;&gt;cluster_cluster_cluster_cluster_&#45;5312595574835814363&#45;3079338983303448848506612701516435356&#45;1404454070698346709&#45;412320468793053698 -->
<g id="edge3" class="edge"><title>cluster_cluster_cluster_cluster_&#45;5312595574835814363&#45;3079338983303448848506612701516435356&#45;1404454070698346709&#45;6281391710310240799&#45;&gt;cluster_cluster_cluster_cluster_&#45;5312595574835814363&#45;3079338983303448848506612701516435356&#45;1404454070698346709&#45;412320468793053698</title>
<path fill="none" stroke="black" d="M189.333,-282.164C189.333,-254.164 189.333,-212 189.333,-212 189.333,-212 1021.99,-212 1021.99,-212"/>
<polygon fill="black" stroke="black" points="1021.99,-215.5 1031.99,-212 1021.99,-208.5 1021.99,-215.5"/>
</g>
<!-- cluster_cluster_cluster_cluster_&#45;5312595574835814363&#45;3079338983303448848506612701516435356&#45;1404454070698346709&#45;992705794952703737&#45;&gt;cluster_cluster_cluster_cluster_&#45;5312595574835814363&#45;3079338983303448848506612701516435356&#45;14044540706983467096701040303363961724 -->
<g id="edge4" class="edge"><title>cluster_cluster_cluster_cluster_&#45;5312595574835814363&#45;3079338983303448848506612701516435356&#45;1404454070698346709&#45;992705794952703737&#45;&gt;cluster_cluster_cluster_cluster_&#45;5312595574835814363&#45;3079338983303448848506612701516435356&#45;14044540706983467096701040303363961724</title>
<path fill="none" stroke="black" d="M858.667,-59.3616C858.667,-114.525 858.667,-275 858.667,-275 858.667,-275 587.667,-275 587.667,-275"/>
<polygon fill="black" stroke="black" points="587.667,-271.5 577.667,-275 587.667,-278.5 587.667,-271.5"/>
</g>
<!-- cluster_cluster_cluster_cluster_&#45;5312595574835814363&#45;3079338983303448848506612701516435356&#45;14044540706983467095823726384603252559 -->
<g id="node8" class="node"><title>cluster_cluster_cluster_cluster_&#45;5312595574835814363&#45;3079338983303448848506612701516435356&#45;14044540706983467095823726384603252559</title>
<g id="a_node8"><a xlink:title="Gear vector [&#45;].">
<path fill="cyan" stroke="black" d="M1134,-164C1134,-164 916,-164 916,-164 910,-164 904,-158 904,-152 904,-152 904,-107 904,-107 904,-101 910,-95 916,-95 916,-95 1134,-95 1134,-95 1140,-95 1146,-101 1146,-107 1146,-107 1146,-152 1146,-152 1146,-158 1140,-164 1134,-164"/>
<text text-anchor="start" x="1010" y="-146.3" font-family="Times New Roman,serif" font-size="14.00">gears</text>
<polygon fill="none" stroke="black" points="912,-119.5 912,-140.5 1014,-140.5 1014,-119.5 912,-119.5"/>
<text text-anchor="start" x="923" y="-126.3" font-family="Times New Roman,serif" font-size="14.00">remote child 1=</text>
<polygon fill="none" stroke="black" points="1014,-119.5 1014,-140.5 1138,-140.5 1138,-119.5 1014,-119.5"/>
<text text-anchor="start" x="1017" y="-126.3" font-family="Times New Roman,serif" font-size="14.00">dt_vatp_model:gears</text>
<polygon fill="none" stroke="black" points="912,-98.5 912,-119.5 1014,-119.5 1014,-98.5 912,-98.5"/>
<text text-anchor="start" x="915" y="-105.3" font-family="Times New Roman,serif" font-size="14.00">remote parent 0=</text>
<polygon fill="none" stroke="black" points="1014,-98.5 1014,-119.5 1138,-119.5 1138,-98.5 1014,-98.5"/>
<text text-anchor="start" x="1017" y="-105.3" font-family="Times New Roman,serif" font-size="14.00">dt_vatp_model:gears</text>
</a>
</g>
</g>
<!-- cluster_cluster_cluster_cluster_&#45;5312595574835814363&#45;3079338983303448848506612701516435356&#45;1404454070698346709&#45;412320468793053698&#45;&gt;cluster_cluster_cluster_cluster_&#45;5312595574835814363&#45;3079338983303448848506612701516435356&#45;14044540706983467095823726384603252559 -->
<g id="edge5" class="edge"><title>cluster_cluster_cluster_cluster_&#45;5312595574835814363&#45;3079338983303448848506612701516435356&#45;1404454070698346709&#45;412320468793053698&#45;&gt;cluster_cluster_cluster_cluster_&#45;5312595574835814363&#45;3079338983303448848506612701516435356&#45;14044540706983467095823726384603252559</title>
<path fill="none" stroke="black" d="M1089,-199.663C1089,-199.663 1089,-174.269 1089,-174.269"/>
<polygon fill="black" stroke="black" points="1092.5,-174.269 1089,-164.269 1085.5,-174.269 1092.5,-174.269"/>
</g>
<!-- cluster_cluster_cluster_cluster_&#45;5312595574835814363&#45;3079338983303448848506612701516435356&#45;1404454070698346709&#45;2328696801353446754 -->
<g id="node5" class="node"><title>cluster_cluster_cluster_cluster_&#45;5312595574835814363&#45;3079338983303448848506612701516435356&#45;1404454070698346709&#45;2328696801353446754</title>
<g id="a_node5"><a xlink:title="A function to correct the gear predicted.">
<path fill="cyan" stroke="black" d="M1259.5,-330.5C1259.5,-330.5 1000.5,-330.5 1000.5,-330.5 994.5,-330.5 988.5,-324.5 988.5,-318.5 988.5,-318.5 988.5,-294.5 988.5,-294.5 988.5,-288.5 994.5,-282.5 1000.5,-282.5 1000.5,-282.5 1259.5,-282.5 1259.5,-282.5 1265.5,-282.5 1271.5,-288.5 1271.5,-294.5 1271.5,-294.5 1271.5,-318.5 1271.5,-318.5 1271.5,-324.5 1265.5,-330.5 1259.5,-330.5"/>
<text text-anchor="start" x="1095" y="-313.3" font-family="Times New Roman,serif" font-size="14.00">correct_gear</text>
<polygon fill="none" stroke="black" points="997,-286.5 997,-307.5 1099,-307.5 1099,-286.5 997,-286.5"/>
<text text-anchor="start" x="1000" y="-293.3" font-family="Times New Roman,serif" font-size="14.00">remote parent 0=</text>
<polygon fill="none" stroke="black" points="1099,-286.5 1099,-307.5 1264,-307.5 1264,-286.5 1099,-286.5"/>
<text text-anchor="start" x="1102" y="-293.3" font-family="Times New Roman,serif" font-size="14.00">dt_vatp_model:correct_gear</text>
</a>
</g>
</g>
<!-- cluster_cluster_cluster_cluster_&#45;5312595574835814363&#45;3079338983303448848506612701516435356&#45;1404454070698346709&#45;2328696801353446754&#45;&gt;cluster_cluster_cluster_cluster_&#45;5312595574835814363&#45;3079338983303448848506612701516435356&#45;1404454070698346709&#45;412320468793053698 -->
<g id="edge6" class="edge"><title>cluster_cluster_cluster_cluster_&#45;5312595574835814363&#45;3079338983303448848506612701516435356&#45;1404454070698346709&#45;2328696801353446754&#45;&gt;cluster_cluster_cluster_cluster_&#45;5312595574835814363&#45;3079338983303448848506612701516435356&#45;1404454070698346709&#45;412320468793053698</title>
<path fill="none" stroke="black" d="M1162.67,-282.317C1162.67,-282.317 1162.67,-246.257 1162.67,-246.257"/>
<polygon fill="black" stroke="black" points="1166.17,-246.257 1162.67,-236.257 1159.17,-246.257 1166.17,-246.257"/>
</g>
<!-- cluster_cluster_cluster_cluster_&#45;5312595574835814363&#45;3079338983303448848506612701516435356&#45;14044540706983467094429227571388341383 -->
<g id="node6" class="node"><title>cluster_cluster_cluster_cluster_&#45;5312595574835814363&#45;3079338983303448848506612701516435356&#45;14044540706983467094429227571388341383</title>
<g id="a_node6"><a xlink:title="Engine coolant temperature vector [°C].">
<path fill="cyan" stroke="black" d="M958.5,-330.5C958.5,-330.5 607.5,-330.5 607.5,-330.5 601.5,-330.5 595.5,-324.5 595.5,-318.5 595.5,-318.5 595.5,-294.5 595.5,-294.5 595.5,-288.5 601.5,-282.5 607.5,-282.5 607.5,-282.5 958.5,-282.5 958.5,-282.5 964.5,-282.5 970.5,-288.5 970.5,-294.5 970.5,-294.5 970.5,-318.5 970.5,-318.5 970.5,-324.5 964.5,-330.5 958.5,-330.5"/>
<text text-anchor="start" x="702" y="-313.3" font-family="Times New Roman,serif" font-size="14.00">engine_coolant_temperatures</text>
<polygon fill="none" stroke="black" points="604,-286.5 604,-307.5 706,-307.5 706,-286.5 604,-286.5"/>
<text text-anchor="start" x="607" y="-293.3" font-family="Times New Roman,serif" font-size="14.00">remote parent 0=</text>
<polygon fill="none" stroke="black" points="706,-286.5 706,-307.5 963,-307.5 963,-286.5 706,-286.5"/>
<text text-anchor="start" x="709" y="-293.3" font-family="Times New Roman,serif" font-size="14.00">dt_vatp_model:engine_coolant_temperatures</text>
</a>
</g>
</g>
<!-- cluster_cluster_cluster_cluster_&#45;5312595574835814363&#45;3079338983303448848506612701516435356&#45;14044540706983467094429227571388341383&#45;&gt;cluster_cluster_cluster_cluster_&#45;5312595574835814363&#45;3079338983303448848506612701516435356&#45;1404454070698346709&#45;992705794952703737 -->
<g id="edge7" class="edge"><title>cluster_cluster_cluster_cluster_&#45;5312595574835814363&#45;3079338983303448848506612701516435356&#45;14044540706983467094429227571388341383&#45;&gt;cluster_cluster_cluster_cluster_&#45;5312595574835814363&#45;3079338983303448848506612701516435356&#45;1404454070698346709&#45;992705794952703737</title>
<path fill="none" stroke="black" d="M881.333,-282.47C881.333,-282.47 881.333,-69.0174 881.333,-69.0174"/>
<polygon fill="black" stroke="black" points="884.833,-69.0174 881.333,-59.0174 877.833,-69.0174 884.833,-69.0174"/>
</g>
<!-- cluster_cluster_cluster_cluster_&#45;5312595574835814363&#45;3079338983303448848506612701516435356&#45;14044540706983467094429227571388341383&#45;&gt;cluster_cluster_cluster_cluster_&#45;5312595574835814363&#45;3079338983303448848506612701516435356&#45;1404454070698346709&#45;412320468793053698 -->
<g id="edge8" class="edge"><title>cluster_cluster_cluster_cluster_&#45;5312595574835814363&#45;3079338983303448848506612701516435356&#45;14044540706983467094429227571388341383&#45;&gt;cluster_cluster_cluster_cluster_&#45;5312595574835814363&#45;3079338983303448848506612701516435356&#45;1404454070698346709&#45;412320468793053698</title>
<path fill="none" stroke="black" d="M937.25,-282.193C937.25,-257.858 937.25,-224 937.25,-224 937.25,-224 1021.93,-224 1021.93,-224"/>
<polygon fill="black" stroke="black" points="1021.93,-227.5 1031.93,-224 1021.93,-220.5 1021.93,-227.5"/>
</g>
<!-- cluster_cluster_cluster_cluster_&#45;5312595574835814363&#45;3079338983303448848506612701516435356&#45;14044540706983467092896906763587689886 -->
<g id="node7" class="node"><title>cluster_cluster_cluster_cluster_&#45;5312595574835814363&#45;3079338983303448848506612701516435356&#45;14044540706983467092896906763587689886</title>
<g id="a_node7"><a xlink:title="Gear filter function.">
<path fill="cyan" stroke="black" d="M1546,-330.5C1546,-330.5 1302,-330.5 1302,-330.5 1296,-330.5 1290,-324.5 1290,-318.5 1290,-318.5 1290,-294.5 1290,-294.5 1290,-288.5 1296,-282.5 1302,-282.5 1302,-282.5 1546,-282.5 1546,-282.5 1552,-282.5 1558,-288.5 1558,-294.5 1558,-294.5 1558,-318.5 1558,-318.5 1558,-324.5 1552,-330.5 1546,-330.5"/>
<text text-anchor="start" x="1396" y="-313.3" font-family="Times New Roman,serif" font-size="14.00">gear_filter</text>
<polygon fill="none" stroke="black" points="1298,-286.5 1298,-307.5 1400,-307.5 1400,-286.5 1298,-286.5"/>
<text text-anchor="start" x="1301" y="-293.3" font-family="Times New Roman,serif" font-size="14.00">remote parent 0=</text>
<polygon fill="none" stroke="black" points="1400,-286.5 1400,-307.5 1550,-307.5 1550,-286.5 1400,-286.5"/>
<text text-anchor="start" x="1403" y="-293.3" font-family="Times New Roman,serif" font-size="14.00">dt_vatp_model:gear_filter</text>
</a>
</g>
</g>
<!-- cluster_cluster_cluster_cluster_&#45;5312595574835814363&#45;3079338983303448848506612701516435356&#45;14044540706983467092896906763587689886&#45;&gt;cluster_cluster_cluster_cluster_&#45;5312595574835814363&#45;3079338983303448848506612701516435356&#45;1404454070698346709&#45;412320468793053698 -->
<g id="edge9" class="edge"><title>cluster_cluster_cluster_cluster_&#45;5312595574835814363&#45;3079338983303448848506612701516435356&#45;14044540706983467092896906763587689886&#45;&gt;cluster_cluster_cluster_cluster_&#45;5312595574835814363&#45;3079338983303448848506612701516435356&#45;1404454070698346709&#45;412320468793053698</title>
<path fill="none" stroke="black" d="M1424,-282.092C1424,-259.049 1424,-228 1424,-228 1424,-228 1238.31,-228 1238.31,-228"/>
<polygon fill="black" stroke="black" points="1238.31,-224.5 1228.31,-228 1238.31,-231.5 1238.31,-224.5"/>
</g>
<!-- cluster_cluster_cluster_cluster_&#45;5312595574835814363&#45;3079338983303448848506612701516435356&#45;14044540706983467095823726384603252559&#45;&gt;cluster_cluster_cluster_cluster_&#45;5312595574835814363&#45;3079338983303448848506612701516435356&#45;1404454070698346709&#45;992705794952703737 -->
<g id="edge10" class="edge"><title>cluster_cluster_cluster_cluster_&#45;5312595574835814363&#45;3079338983303448848506612701516435356&#45;14044540706983467095823726384603252559&#45;&gt;cluster_cluster_cluster_cluster_&#45;5312595574835814363&#45;3079338983303448848506612701516435356&#45;1404454070698346709&#45;992705794952703737</title>
<path fill="none" stroke="black" d="M984,-94.7765C984,-94.7765 984,-69.0777 984,-69.0777"/>
<polygon fill="black" stroke="black" points="987.5,-69.0777 984,-59.0777 980.5,-69.0778 987.5,-69.0777"/>
</g>
<!-- cluster_cluster_cluster_cluster_&#45;5312595574835814363&#45;3079338983303448848506612701516435356&#45;1404454070698346709&#45;1694690716081511724 -->
<g id="node9" class="node"><title>cluster_cluster_cluster_cluster_&#45;5312595574835814363&#45;3079338983303448848506612701516435356&#45;1404454070698346709&#45;1694690716081511724</title>
<g id="a_node9"><a xlink:title="Motive power [kW].">
<path fill="cyan" stroke="black" d="M2123.5,-330.5C2123.5,-330.5 1848.5,-330.5 1848.5,-330.5 1842.5,-330.5 1836.5,-324.5 1836.5,-318.5 1836.5,-318.5 1836.5,-294.5 1836.5,-294.5 1836.5,-288.5 1842.5,-282.5 1848.5,-282.5 1848.5,-282.5 2123.5,-282.5 2123.5,-282.5 2129.5,-282.5 2135.5,-288.5 2135.5,-294.5 2135.5,-294.5 2135.5,-318.5 2135.5,-318.5 2135.5,-324.5 2129.5,-330.5 2123.5,-330.5"/>
<text text-anchor="start" x="1943" y="-313.3" font-family="Times New Roman,serif" font-size="14.00">motive_powers</text>
<polygon fill="none" stroke="black" points="1845,-286.5 1845,-307.5 1947,-307.5 1947,-286.5 1845,-286.5"/>
<text text-anchor="start" x="1848" y="-293.3" font-family="Times New Roman,serif" font-size="14.00">remote parent 0=</text>
<polygon fill="none" stroke="black" points="1947,-286.5 1947,-307.5 2128,-307.5 2128,-286.5 1947,-286.5"/>
<text text-anchor="start" x="1950" y="-293.3" font-family="Times New Roman,serif" font-size="14.00">dt_vatp_model:motive_powers</text>
</a>
</g>
</g>
<!-- cluster_cluster_cluster_cluster_&#45;5312595574835814363&#45;3079338983303448848506612701516435356&#45;1404454070698346709&#45;1694690716081511724&#45;&gt;cluster_cluster_cluster_cluster_&#45;5312595574835814363&#45;3079338983303448848506612701516435356&#45;1404454070698346709&#45;992705794952703737 -->
<g id="edge11" class="edge"><title>cluster_cluster_cluster_cluster_&#45;5312595574835814363&#45;3079338983303448848506612701516435356&#45;1404454070698346709&#45;1694690716081511724&#45;&gt;cluster_cluster_cluster_cluster_&#45;5312595574835814363&#45;3079338983303448848506612701516435356&#45;1404454070698346709&#45;992705794952703737</title>
<path fill="none" stroke="black" d="M2035.83,-282.087C2035.83,-217.488 2035.83,-47 2035.83,-47 2035.83,-47 1074.15,-47 1074.15,-47"/>
<polygon fill="black" stroke="black" points="1074.15,-43.5001 1064.15,-47 1074.15,-50.5001 1074.15,-43.5001"/>
</g>
<!-- cluster_cluster_cluster_cluster_&#45;5312595574835814363&#45;3079338983303448848506612701516435356&#45;1404454070698346709&#45;1694690716081511724&#45;&gt;cluster_cluster_cluster_cluster_&#45;5312595574835814363&#45;3079338983303448848506612701516435356&#45;1404454070698346709&#45;412320468793053698 -->
<g id="edge12" class="edge"><title>cluster_cluster_cluster_cluster_&#45;5312595574835814363&#45;3079338983303448848506612701516435356&#45;1404454070698346709&#45;1694690716081511724&#45;&gt;cluster_cluster_cluster_cluster_&#45;5312595574835814363&#45;3079338983303448848506612701516435356&#45;1404454070698346709&#45;412320468793053698</title>
<path fill="none" stroke="black" d="M1936.17,-282.197C1936.17,-254.791 1936.17,-214 1936.17,-214 1936.17,-214 1238.05,-214 1238.05,-214"/>
<polygon fill="black" stroke="black" points="1238.05,-210.5 1228.05,-214 1238.05,-217.5 1238.05,-210.5"/>
</g>
<!-- cluster_cluster_cluster_cluster_&#45;5312595574835814363&#45;3079338983303448848506612701516435356&#45;1404454070698346709&#45;1825562924159530342 -->
<g id="node10" class="node"><title>cluster_cluster_cluster_cluster_&#45;5312595574835814363&#45;3079338983303448848506612701516435356&#45;1404454070698346709&#45;1825562924159530342</title>
<g id="a_node10"><a xlink:title="Time vector [s].">
<path fill="cyan" stroke="black" d="M1806,-330.5C1806,-330.5 1588,-330.5 1588,-330.5 1582,-330.5 1576,-324.5 1576,-318.5 1576,-318.5 1576,-294.5 1576,-294.5 1576,-288.5 1582,-282.5 1588,-282.5 1588,-282.5 1806,-282.5 1806,-282.5 1812,-282.5 1818,-288.5 1818,-294.5 1818,-294.5 1818,-318.5 1818,-318.5 1818,-324.5 1812,-330.5 1806,-330.5"/>
<text text-anchor="start" x="1682" y="-313.3" font-family="Times New Roman,serif" font-size="14.00">times</text>
<polygon fill="none" stroke="black" points="1584,-286.5 1584,-307.5 1686,-307.5 1686,-286.5 1584,-286.5"/>
<text text-anchor="start" x="1587" y="-293.3" font-family="Times New Roman,serif" font-size="14.00">remote parent 0=</text>
<polygon fill="none" stroke="black" points="1686,-286.5 1686,-307.5 1810,-307.5 1810,-286.5 1686,-286.5"/>
<text text-anchor="start" x="1689" y="-293.3" font-family="Times New Roman,serif" font-size="14.00">dt_vatp_model:times</text>
</a>
</g>
</g>
<!-- cluster_cluster_cluster_cluster_&#45;5312595574835814363&#45;3079338983303448848506612701516435356&#45;1404454070698346709&#45;1825562924159530342&#45;&gt;cluster_cluster_cluster_cluster_&#45;5312595574835814363&#45;3079338983303448848506612701516435356&#45;1404454070698346709&#45;412320468793053698 -->
<g id="edge13" class="edge"><title>cluster_cluster_cluster_cluster_&#45;5312595574835814363&#45;3079338983303448848506612701516435356&#45;1404454070698346709&#45;1825562924159530342&#45;&gt;cluster_cluster_cluster_cluster_&#45;5312595574835814363&#45;3079338983303448848506612701516435356&#45;1404454070698346709&#45;412320468793053698</title>
<path fill="none" stroke="black" d="M1697,-282.228C1697,-256.95 1697,-221 1697,-221 1697,-221 1238.12,-221 1238.12,-221"/>
<polygon fill="black" stroke="black" points="1238.12,-217.5 1228.12,-221 1238.12,-224.5 1238.12,-217.5"/>
</g>
<!-- cluster_cluster_cluster_cluster_&#45;5312595574835814363&#45;3079338983303448848506612701516435356&#45;14044540706983467091395676110976739562 -->
<g id="node11" class="node"><title>cluster_cluster_cluster_cluster_&#45;5312595574835814363&#45;3079338983303448848506612701516435356&#45;14044540706983467091395676110976739562</title>
<g id="a_node11"><a xlink:title="Time series vectors.">
<path fill="cyan" stroke="black" d="M2406,-330.5C2406,-330.5 2166,-330.5 2166,-330.5 2160,-330.5 2154,-324.5 2154,-318.5 2154,-318.5 2154,-294.5 2154,-294.5 2154,-288.5 2160,-282.5 2166,-282.5 2166,-282.5 2406,-282.5 2406,-282.5 2412,-282.5 2418,-288.5 2418,-294.5 2418,-294.5 2418,-318.5 2418,-318.5 2418,-324.5 2412,-330.5 2406,-330.5"/>
<text text-anchor="start" x="2260" y="-313.3" font-family="Times New Roman,serif" font-size="14.00">velocities</text>
<polygon fill="none" stroke="black" points="2162,-286.5 2162,-307.5 2264,-307.5 2264,-286.5 2162,-286.5"/>
<text text-anchor="start" x="2165" y="-293.3" font-family="Times New Roman,serif" font-size="14.00">remote parent 0=</text>
<polygon fill="none" stroke="black" points="2264,-286.5 2264,-307.5 2410,-307.5 2410,-286.5 2264,-286.5"/>
<text text-anchor="start" x="2267" y="-293.3" font-family="Times New Roman,serif" font-size="14.00">dt_vatp_model:velocities</text>
</a>
</g>
</g>
<!-- cluster_cluster_cluster_cluster_&#45;5312595574835814363&#45;3079338983303448848506612701516435356&#45;14044540706983467091395676110976739562&#45;&gt;cluster_cluster_cluster_cluster_&#45;5312595574835814363&#45;3079338983303448848506612701516435356&#45;1404454070698346709&#45;992705794952703737 -->
<g id="edge14" class="edge"><title>cluster_cluster_cluster_cluster_&#45;5312595574835814363&#45;3079338983303448848506612701516435356&#45;14044540706983467091395676110976739562&#45;&gt;cluster_cluster_cluster_cluster_&#45;5312595574835814363&#45;3079338983303448848506612701516435356&#45;1404454070698346709&#45;992705794952703737</title>
<path fill="none" stroke="black" d="M2330,-282.406C2330,-215.96 2330,-35 2330,-35 2330,-35 1074.11,-35 1074.11,-35"/>
<polygon fill="black" stroke="black" points="1074.11,-31.5001 1064.11,-35 1074.11,-38.5001 1074.11,-31.5001"/>
</g>
<!-- cluster_cluster_cluster_cluster_&#45;5312595574835814363&#45;3079338983303448848506612701516435356&#45;14044540706983467091395676110976739562&#45;&gt;cluster_cluster_cluster_cluster_&#45;5312595574835814363&#45;3079338983303448848506612701516435356&#45;1404454070698346709&#45;412320468793053698 -->
<g id="edge15" class="edge"><title>cluster_cluster_cluster_cluster_&#45;5312595574835814363&#45;3079338983303448848506612701516435356&#45;14044540706983467091395676110976739562&#45;&gt;cluster_cluster_cluster_cluster_&#45;5312595574835814363&#45;3079338983303448848506612701516435356&#45;1404454070698346709&#45;412320468793053698</title>
<path fill="none" stroke="black" d="M2242,-282.414C2242,-252.967 2242,-207 2242,-207 2242,-207 1238.19,-207 1238.19,-207"/>
<polygon fill="black" stroke="black" points="1238.19,-203.5 1228.19,-207 1238.19,-210.5 1238.19,-203.5"/>
</g>
</g>
</svg>
