<?xml version="1.0" encoding="UTF-8" standalone="no"?>
<!DOCTYPE svg PUBLIC "-//W3C//DTD SVG 1.1//EN"
 "http://www.w3.org/Graphics/SVG/1.1/DTD/svg11.dtd">
<!-- Generated by graphviz version 2.38.0 (20140413.2041)
 -->
<!-- Title: cluster_dt_va_model Pages: 1 -->
<svg width="1325pt" height="235pt"
 viewBox="0.00 0.00 1324.50 235.00" xmlns="http://www.w3.org/2000/svg" xmlns:xlink="http://www.w3.org/1999/xlink">
<g id="graph0" class="graph" transform="scale(1 1) rotate(0) translate(4 231)">
<title>cluster_dt_va_model</title>
<polygon fill="white" stroke="none" points="-4,4 -4,-231 1320.5,-231 1320.5,4 -4,4"/>
<text text-anchor="start" x="621.25" y="-7.8" font-family="Times New Roman,serif" font-size="14.00">dt_va_model</text>
<!-- cluster_cluster_cluster_cluster_cluster_cluster_cluster_cluster_&#45;220212124901982970656214335412117874644487423537040413414&#45;2008554569736104303724736810557958213&#45;3079338983303448848506612701516435356&#45;74051086500145544681038131168075908976 -->
<g id="node1" class="node"><title>cluster_cluster_cluster_cluster_cluster_cluster_cluster_cluster_&#45;220212124901982970656214335412117874644487423537040413414&#45;2008554569736104303724736810557958213&#45;3079338983303448848506612701516435356&#45;74051086500145544681038131168075908976</title>
<g id="a_node1"><a xlink:title="A decision tree classifier to predict gears.">
<path fill="cyan" stroke="black" d="M514,-71C514,-71 299,-71 299,-71 293,-71 287,-65 287,-59 287,-59 287,-35 287,-35 287,-29 293,-23 299,-23 299,-23 514,-23 514,-23 520,-23 526,-29 526,-35 526,-35 526,-59 526,-59 526,-65 520,-71 514,-71"/>
<text text-anchor="start" x="384" y="-53.8" font-family="Times New Roman,serif" font-size="14.00">DT_VA</text>
<polygon fill="none" stroke="black" points="295.5,-27 295.5,-48 389.5,-48 389.5,-27 295.5,-27"/>
<text text-anchor="start" x="298.5" y="-33.8" font-family="Times New Roman,serif" font-size="14.00">remote child 0=</text>
<polygon fill="none" stroke="black" points="389.5,-27 389.5,-48 518.5,-48 518.5,-27 389.5,-27"/>
<text text-anchor="start" x="392.5" y="-33.8" font-family="Times New Roman,serif" font-size="14.00">dt_va_model:DT_VA</text>
</a>
</g>
</g>
<!-- cluster_cluster_cluster_cluster_cluster_cluster_cluster_cluster_&#45;220212124901982970656214335412117874644487423537040413414&#45;2008554569736104303724736810557958213&#45;3079338983303448848506612701516435356&#45;7405108650014554468&#45;6281391710310240799 -->
<g id="node2" class="node"><title>cluster_cluster_cluster_cluster_cluster_cluster_cluster_cluster_&#45;220212124901982970656214335412117874644487423537040413414&#45;2008554569736104303724736810557958213&#45;3079338983303448848506612701516435356&#45;7405108650014554468&#45;6281391710310240799</title>
<g id="a_node2"><a xlink:title="Acceleration vector [m/s2].">
<path fill="cyan" stroke="black" d="M261,-227C261,-227 12,-227 12,-227 6,-227 0,-221 0,-215 0,-215 0,-191 0,-191 0,-185 6,-179 12,-179 12,-179 261,-179 261,-179 267,-179 273,-185 273,-191 273,-191 273,-215 273,-215 273,-221 267,-227 261,-227"/>
<text text-anchor="start" x="100.5" y="-209.8" font-family="Times New Roman,serif" font-size="14.00">accelerations</text>
<polygon fill="none" stroke="black" points="8.5,-183 8.5,-204 110.5,-204 110.5,-183 8.5,-183"/>
<text text-anchor="start" x="11.5" y="-189.8" font-family="Times New Roman,serif" font-size="14.00">remote parent 0=</text>
<polygon fill="none" stroke="black" points="110.5,-183 110.5,-204 265.5,-204 265.5,-183 110.5,-183"/>
<text text-anchor="start" x="113.5" y="-189.8" font-family="Times New Roman,serif" font-size="14.00">dt_va_model:accelerations</text>
</a>
</g>
</g>
<!-- cluster_cluster_cluster_cluster_cluster_cluster_cluster_cluster_&#45;220212124901982970656214335412117874644487423537040413414&#45;2008554569736104303724736810557958213&#45;3079338983303448848506612701516435356&#45;7405108650014554468&#45;992705794952703737 -->
<g id="node3" class="node"><title>cluster_cluster_cluster_cluster_cluster_cluster_cluster_cluster_&#45;220212124901982970656214335412117874644487423537040413414&#45;2008554569736104303724736810557958213&#45;3079338983303448848506612701516435356&#45;7405108650014554468&#45;992705794952703737</title>
<g id="a_node3"><a xlink:href="./../../../../../../at_model_selector/AM-wltp_h_errors/AM-wltp_h_error_vs_wltp_h/Automatic_gear_model/dt_va_model/co2mpas.model.physical.gear_box.at_gearcalibrate_gear_shifting_decision_tree.txt" xlink:title="Calibrates a decision tree classifier to predict gears.">
<polygon fill="springgreen" stroke="black" points="520.5,-143 292.5,-143 292.5,-107 520.5,-107 520.5,-143"/>
<text text-anchor="start" x="302.5" y="-120.8" font-family="Times New Roman,serif" font-size="14.00">calibrate_gear_shifting_decision_tree</text>
</a>
</g>
</g>
<!-- cluster_cluster_cluster_cluster_cluster_cluster_cluster_cluster_&#45;220212124901982970656214335412117874644487423537040413414&#45;2008554569736104303724736810557958213&#45;3079338983303448848506612701516435356&#45;7405108650014554468&#45;6281391710310240799&#45;&gt;cluster_cluster_cluster_cluster_cluster_cluster_cluster_cluster_&#45;220212124901982970656214335412117874644487423537040413414&#45;2008554569736104303724736810557958213&#45;3079338983303448848506612701516435356&#45;7405108650014554468&#45;992705794952703737 -->
<g id="edge1" class="edge"><title>cluster_cluster_cluster_cluster_cluster_cluster_cluster_cluster_&#45;220212124901982970656214335412117874644487423537040413414&#45;2008554569736104303724736810557958213&#45;3079338983303448848506612701516435356&#45;7405108650014554468&#45;6281391710310240799&#45;&gt;cluster_cluster_cluster_cluster_cluster_cluster_cluster_cluster_&#45;220212124901982970656214335412117874644487423537040413414&#45;2008554569736104303724736810557958213&#45;3079338983303448848506612701516435356&#45;7405108650014554468&#45;992705794952703737</title>
<path fill="none" stroke="black" d="M136.5,-178.748C136.5,-155.851 136.5,-125 136.5,-125 136.5,-125 282.387,-125 282.387,-125"/>
<polygon fill="black" stroke="black" points="282.387,-128.5 292.387,-125 282.387,-121.5 282.387,-128.5"/>
</g>
<!-- cluster_cluster_cluster_cluster_cluster_cluster_cluster_cluster_&#45;220212124901982970656214335412117874644487423537040413414&#45;2008554569736104303724736810557958213&#45;3079338983303448848506612701516435356&#45;7405108650014554468&#45;992705794952703737&#45;&gt;cluster_cluster_cluster_cluster_cluster_cluster_cluster_cluster_&#45;220212124901982970656214335412117874644487423537040413414&#45;2008554569736104303724736810557958213&#45;3079338983303448848506612701516435356&#45;74051086500145544681038131168075908976 -->
<g id="edge2" class="edge"><title>cluster_cluster_cluster_cluster_cluster_cluster_cluster_cluster_&#45;220212124901982970656214335412117874644487423537040413414&#45;2008554569736104303724736810557958213&#45;3079338983303448848506612701516435356&#45;7405108650014554468&#45;992705794952703737&#45;&gt;cluster_cluster_cluster_cluster_cluster_cluster_cluster_cluster_&#45;220212124901982970656214335412117874644487423537040413414&#45;2008554569736104303724736810557958213&#45;3079338983303448848506612701516435356&#45;74051086500145544681038131168075908976</title>
<path fill="none" stroke="black" d="M406.5,-106.909C406.5,-106.909 406.5,-81.1988 406.5,-81.1988"/>
<polygon fill="black" stroke="black" points="410,-81.1988 406.5,-71.1988 403,-81.1988 410,-81.1988"/>
</g>
<!-- cluster_cluster_cluster_cluster_cluster_cluster_cluster_cluster_&#45;220212124901982970656214335412117874644487423537040413414&#45;2008554569736104303724736810557958213&#45;3079338983303448848506612701516435356&#45;74051086500145544682896906763587689886 -->
<g id="node4" class="node"><title>cluster_cluster_cluster_cluster_cluster_cluster_cluster_cluster_&#45;220212124901982970656214335412117874644487423537040413414&#45;2008554569736104303724736810557958213&#45;3079338983303448848506612701516435356&#45;74051086500145544682896906763587689886</title>
<g id="a_node4"><a xlink:title="gear_filter">
<path fill="cyan" stroke="black" d="M1056,-227C1056,-227 823,-227 823,-227 817,-227 811,-221 811,-215 811,-215 811,-191 811,-191 811,-185 817,-179 823,-179 823,-179 1056,-179 1056,-179 1062,-179 1068,-185 1068,-191 1068,-191 1068,-215 1068,-215 1068,-221 1062,-227 1056,-227"/>
<text text-anchor="start" x="912" y="-209.8" font-family="Times New Roman,serif" font-size="14.00">gear_filter</text>
<polygon fill="none" stroke="black" points="819.5,-183 819.5,-204 921.5,-204 921.5,-183 819.5,-183"/>
<text text-anchor="start" x="822.5" y="-189.8" font-family="Times New Roman,serif" font-size="14.00">remote parent 0=</text>
<polygon fill="none" stroke="black" points="921.5,-183 921.5,-204 1060.5,-204 1060.5,-183 921.5,-183"/>
<text text-anchor="start" x="924.5" y="-189.8" font-family="Times New Roman,serif" font-size="14.00">dt_va_model:gear_filter</text>
</a>
</g>
</g>
<!-- cluster_cluster_cluster_cluster_cluster_cluster_cluster_cluster_&#45;220212124901982970656214335412117874644487423537040413414&#45;2008554569736104303724736810557958213&#45;3079338983303448848506612701516435356&#45;74051086500145544685823726384603252559 -->
<g id="node5" class="node"><title>cluster_cluster_cluster_cluster_cluster_cluster_cluster_cluster_&#45;220212124901982970656214335412117874644487423537040413414&#45;2008554569736104303724736810557958213&#45;3079338983303448848506612701516435356&#45;74051086500145544685823726384603252559</title>
<g id="a_node5"><a xlink:title="Gear vector [&#45;].">
<path fill="cyan" stroke="black" d="M509.5,-227C509.5,-227 303.5,-227 303.5,-227 297.5,-227 291.5,-221 291.5,-215 291.5,-215 291.5,-191 291.5,-191 291.5,-185 297.5,-179 303.5,-179 303.5,-179 509.5,-179 509.5,-179 515.5,-179 521.5,-185 521.5,-191 521.5,-191 521.5,-215 521.5,-215 521.5,-221 515.5,-227 509.5,-227"/>
<text text-anchor="start" x="391.5" y="-209.8" font-family="Times New Roman,serif" font-size="14.00">gears</text>
<polygon fill="none" stroke="black" points="299.5,-183 299.5,-204 401.5,-204 401.5,-183 299.5,-183"/>
<text text-anchor="start" x="302.5" y="-189.8" font-family="Times New Roman,serif" font-size="14.00">remote parent 0=</text>
<polygon fill="none" stroke="black" points="401.5,-183 401.5,-204 513.5,-204 513.5,-183 401.5,-183"/>
<text text-anchor="start" x="404.5" y="-189.8" font-family="Times New Roman,serif" font-size="14.00">dt_va_model:gears</text>
</a>
</g>
</g>
<!-- cluster_cluster_cluster_cluster_cluster_cluster_cluster_cluster_&#45;220212124901982970656214335412117874644487423537040413414&#45;2008554569736104303724736810557958213&#45;3079338983303448848506612701516435356&#45;74051086500145544685823726384603252559&#45;&gt;cluster_cluster_cluster_cluster_cluster_cluster_cluster_cluster_&#45;220212124901982970656214335412117874644487423537040413414&#45;2008554569736104303724736810557958213&#45;3079338983303448848506612701516435356&#45;7405108650014554468&#45;992705794952703737 -->
<g id="edge3" class="edge"><title>cluster_cluster_cluster_cluster_cluster_cluster_cluster_cluster_&#45;220212124901982970656214335412117874644487423537040413414&#45;2008554569736104303724736810557958213&#45;3079338983303448848506612701516435356&#45;74051086500145544685823726384603252559&#45;&gt;cluster_cluster_cluster_cluster_cluster_cluster_cluster_cluster_&#45;220212124901982970656214335412117874644487423537040413414&#45;2008554569736104303724736810557958213&#45;3079338983303448848506612701516435356&#45;7405108650014554468&#45;992705794952703737</title>
<path fill="none" stroke="black" d="M406.5,-178.748C406.5,-178.748 406.5,-153.288 406.5,-153.288"/>
<polygon fill="black" stroke="black" points="410,-153.287 406.5,-143.288 403,-153.288 410,-153.287"/>
</g>
<!-- cluster_cluster_cluster_cluster_cluster_cluster_cluster_cluster_&#45;220212124901982970656214335412117874644487423537040413414&#45;2008554569736104303724736810557958213&#45;3079338983303448848506612701516435356&#45;7405108650014554468&#45;1825562924159530342 -->
<g id="node6" class="node"><title>cluster_cluster_cluster_cluster_cluster_cluster_cluster_cluster_&#45;220212124901982970656214335412117874644487423537040413414&#45;2008554569736104303724736810557958213&#45;3079338983303448848506612701516435356&#45;7405108650014554468&#45;1825562924159530342</title>
<g id="a_node6"><a xlink:title="times">
<path fill="cyan" stroke="black" d="M1304.5,-227C1304.5,-227 1098.5,-227 1098.5,-227 1092.5,-227 1086.5,-221 1086.5,-215 1086.5,-215 1086.5,-191 1086.5,-191 1086.5,-185 1092.5,-179 1098.5,-179 1098.5,-179 1304.5,-179 1304.5,-179 1310.5,-179 1316.5,-185 1316.5,-191 1316.5,-191 1316.5,-215 1316.5,-215 1316.5,-221 1310.5,-227 1304.5,-227"/>
<text text-anchor="start" x="1186.5" y="-209.8" font-family="Times New Roman,serif" font-size="14.00">times</text>
<polygon fill="none" stroke="black" points="1094.5,-183 1094.5,-204 1196.5,-204 1196.5,-183 1094.5,-183"/>
<text text-anchor="start" x="1097.5" y="-189.8" font-family="Times New Roman,serif" font-size="14.00">remote parent 0=</text>
<polygon fill="none" stroke="black" points="1196.5,-183 1196.5,-204 1308.5,-204 1308.5,-183 1196.5,-183"/>
<text text-anchor="start" x="1199.5" y="-189.8" font-family="Times New Roman,serif" font-size="14.00">dt_va_model:times</text>
</a>
</g>
</g>
<!-- cluster_cluster_cluster_cluster_cluster_cluster_cluster_cluster_&#45;220212124901982970656214335412117874644487423537040413414&#45;2008554569736104303724736810557958213&#45;3079338983303448848506612701516435356&#45;74051086500145544681395676110976739562 -->
<g id="node7" class="node"><title>cluster_cluster_cluster_cluster_cluster_cluster_cluster_cluster_&#45;220212124901982970656214335412117874644487423537040413414&#45;2008554569736104303724736810557958213&#45;3079338983303448848506612701516435356&#45;74051086500145544681395676110976739562</title>
<g id="a_node7"><a xlink:title="Time series vectors.">
<path fill="cyan" stroke="black" d="M781,-227C781,-227 552,-227 552,-227 546,-227 540,-221 540,-215 540,-215 540,-191 540,-191 540,-185 546,-179 552,-179 552,-179 781,-179 781,-179 787,-179 793,-185 793,-191 793,-191 793,-215 793,-215 793,-221 787,-227 781,-227"/>
<text text-anchor="start" x="641" y="-209.8" font-family="Times New Roman,serif" font-size="14.00">velocities</text>
<polygon fill="none" stroke="black" points="548.5,-183 548.5,-204 650.5,-204 650.5,-183 548.5,-183"/>
<text text-anchor="start" x="551.5" y="-189.8" font-family="Times New Roman,serif" font-size="14.00">remote parent 0=</text>
<polygon fill="none" stroke="black" points="650.5,-183 650.5,-204 785.5,-204 785.5,-183 650.5,-183"/>
<text text-anchor="start" x="653.5" y="-189.8" font-family="Times New Roman,serif" font-size="14.00">dt_va_model:velocities</text>
</a>
</g>
</g>
<!-- cluster_cluster_cluster_cluster_cluster_cluster_cluster_cluster_&#45;220212124901982970656214335412117874644487423537040413414&#45;2008554569736104303724736810557958213&#45;3079338983303448848506612701516435356&#45;74051086500145544681395676110976739562&#45;&gt;cluster_cluster_cluster_cluster_cluster_cluster_cluster_cluster_&#45;220212124901982970656214335412117874644487423537040413414&#45;2008554569736104303724736810557958213&#45;3079338983303448848506612701516435356&#45;7405108650014554468&#45;992705794952703737 -->
<g id="edge4" class="edge"><title>cluster_cluster_cluster_cluster_cluster_cluster_cluster_cluster_&#45;220212124901982970656214335412117874644487423537040413414&#45;2008554569736104303724736810557958213&#45;3079338983303448848506612701516435356&#45;74051086500145544681395676110976739562&#45;&gt;cluster_cluster_cluster_cluster_cluster_cluster_cluster_cluster_&#45;220212124901982970656214335412117874644487423537040413414&#45;2008554569736104303724736810557958213&#45;3079338983303448848506612701516435356&#45;7405108650014554468&#45;992705794952703737</title>
<path fill="none" stroke="black" d="M666.5,-178.748C666.5,-155.851 666.5,-125 666.5,-125 666.5,-125 530.54,-125 530.54,-125"/>
<polygon fill="black" stroke="black" points="530.54,-121.5 520.54,-125 530.54,-128.5 530.54,-121.5"/>
</g>
</g>
</svg>
