<?xml version="1.0" encoding="UTF-8" standalone="no"?>
<!DOCTYPE svg PUBLIC "-//W3C//DTD SVG 1.1//EN"
 "http://www.w3.org/Graphics/SVG/1.1/DTD/svg11.dtd">
<!-- Generated by graphviz version 2.38.0 (20140413.2041)
 -->
<!-- Title: cluster_cvt_model Pages: 1 -->
<svg width="2022pt" height="412pt"
 viewBox="0.00 0.00 2022.00 412.00" xmlns="http://www.w3.org/2000/svg" xmlns:xlink="http://www.w3.org/1999/xlink">
<g id="graph0" class="graph" transform="scale(1 1) rotate(0) translate(4 408)">
<title>cluster_cvt_model</title>
<polygon fill="white" stroke="none" points="-4,4 -4,-408 2018,-408 2018,4 -4,4"/>
<text text-anchor="start" x="977" y="-7.8" font-family="Times New Roman,serif" font-size="14.00">cvt_model</text>
<!-- cluster_cluster_cluster_2396385260629380429&#45;30793389833034488416666347105389957617477766655963245695 -->
<g id="node1" class="node"><title>cluster_cluster_cluster_2396385260629380429&#45;30793389833034488416666347105389957617477766655963245695</title>
<g id="a_node1"><a xlink:title="Continuously variable transmission model.">
<path fill="cyan" stroke="black" d="M727.5,-248C727.5,-248 536.5,-248 536.5,-248 530.5,-248 524.5,-242 524.5,-236 524.5,-236 524.5,-191 524.5,-191 524.5,-185 530.5,-179 536.5,-179 536.5,-179 727.5,-179 727.5,-179 733.5,-179 739.5,-185 739.5,-191 739.5,-191 739.5,-236 739.5,-236 739.5,-242 733.5,-248 727.5,-248"/>
<text text-anchor="start" x="618" y="-230.3" font-family="Times New Roman,serif" font-size="14.00">CVT</text>
<polygon fill="none" stroke="black" points="533,-203.5 533,-224.5 635,-224.5 635,-203.5 533,-203.5"/>
<text text-anchor="start" x="544" y="-210.3" font-family="Times New Roman,serif" font-size="14.00">remote child 1=</text>
<polygon fill="none" stroke="black" points="635,-203.5 635,-224.5 732,-224.5 732,-203.5 635,-203.5"/>
<text text-anchor="start" x="638" y="-210.3" font-family="Times New Roman,serif" font-size="14.00">cvt_model:CVT</text>
<polygon fill="none" stroke="black" points="533,-182.5 533,-203.5 635,-203.5 635,-182.5 533,-182.5"/>
<text text-anchor="start" x="536" y="-189.3" font-family="Times New Roman,serif" font-size="14.00">remote parent 0=</text>
<polygon fill="none" stroke="black" points="635,-182.5 635,-203.5 732,-203.5 732,-182.5 635,-182.5"/>
<text text-anchor="start" x="638" y="-189.3" font-family="Times New Roman,serif" font-size="14.00">cvt_model:CVT</text>
</a>
</g>
</g>
<!-- cluster_cluster_cluster_2396385260629380429&#45;3079338983303448841666634710538995761&#45;1173673408552268297 -->
<g id="node5" class="node"><title>cluster_cluster_cluster_2396385260629380429&#45;3079338983303448841666634710538995761&#45;1173673408552268297</title>
<g id="a_node5"><a xlink:href="./../../extract_calibrated_models/engine_speed_model_selector/ESM-wltp_h_errors/ESM-wltp_h_error_vs_wltp_h/CO2MPAS_physical_model/gear_box_model/cvt_model/co2mpas.model.physical.gear_box.cvtpredict_gear_box_speeds_in__gears_and_max_gear.txt" xlink:title="Predicts gear box speed vector, gear vector, and maximum gear [RPM, &#45;, &#45;].">
<polygon fill="springgreen" stroke="black" points="723,-143 405,-143 405,-107 723,-107 723,-143"/>
<text text-anchor="start" x="415.5" y="-120.8" font-family="Times New Roman,serif" font-size="14.00">predict_gear_box_speeds_in__gears_and_max_gear</text>
</a>
</g>
</g>
<!-- cluster_cluster_cluster_2396385260629380429&#45;30793389833034488416666347105389957617477766655963245695&#45;&gt;cluster_cluster_cluster_2396385260629380429&#45;3079338983303448841666634710538995761&#45;1173673408552268297 -->
<g id="edge1" class="edge"><title>cluster_cluster_cluster_2396385260629380429&#45;30793389833034488416666347105389957617477766655963245695&#45;&gt;cluster_cluster_cluster_2396385260629380429&#45;3079338983303448841666634710538995761&#45;1173673408552268297</title>
<path fill="none" stroke="black" d="M623.75,-178.776C623.75,-178.776 623.75,-153.078 623.75,-153.078"/>
<polygon fill="black" stroke="black" points="627.25,-153.078 623.75,-143.078 620.25,-153.078 627.25,-153.078"/>
</g>
<!-- cluster_cluster_cluster_2396385260629380429&#45;3079338983303448841666634710538995761&#45;6281391710310240799 -->
<g id="node2" class="node"><title>cluster_cluster_cluster_2396385260629380429&#45;3079338983303448841666634710538995761&#45;6281391710310240799</title>
<g id="a_node2"><a xlink:title="Vehicle acceleration [m/s2].">
<path fill="cyan" stroke="black" d="M579.5,-404C579.5,-404 344.5,-404 344.5,-404 338.5,-404 332.5,-398 332.5,-392 332.5,-392 332.5,-368 332.5,-368 332.5,-362 338.5,-356 344.5,-356 344.5,-356 579.5,-356 579.5,-356 585.5,-356 591.5,-362 591.5,-368 591.5,-368 591.5,-392 591.5,-392 591.5,-398 585.5,-404 579.5,-404"/>
<text text-anchor="start" x="426" y="-386.8" font-family="Times New Roman,serif" font-size="14.00">accelerations</text>
<polygon fill="none" stroke="black" points="341,-360 341,-381 443,-381 443,-360 341,-360"/>
<text text-anchor="start" x="344" y="-366.8" font-family="Times New Roman,serif" font-size="14.00">remote parent 0=</text>
<polygon fill="none" stroke="black" points="443,-360 443,-381 584,-381 584,-360 443,-360"/>
<text text-anchor="start" x="446" y="-366.8" font-family="Times New Roman,serif" font-size="14.00">cvt_model:accelerations</text>
</a>
</g>
</g>
<!-- cluster_cluster_cluster_2396385260629380429&#45;30793389833034488416666347105389957618804701423073270878 -->
<g id="node3" class="node"><title>cluster_cluster_cluster_2396385260629380429&#45;30793389833034488416666347105389957618804701423073270878</title>
<g id="a_node3"><a xlink:href="./cvt_model/co2mpas.model.physical.gear_box.cvtcalibrate_cvt.txt" xlink:title="Calibrates a model for continuously variable transmission (CVT).">
<polygon fill="springgreen" stroke="black" points="745,-320 653,-320 653,-284 745,-284 745,-320"/>
<text text-anchor="start" x="663" y="-297.8" font-family="Times New Roman,serif" font-size="14.00">calibrate_cvt</text>
</a>
</g>
</g>
<!-- cluster_cluster_cluster_2396385260629380429&#45;3079338983303448841666634710538995761&#45;6281391710310240799&#45;&gt;cluster_cluster_cluster_2396385260629380429&#45;30793389833034488416666347105389957618804701423073270878 -->
<g id="edge2" class="edge"><title>cluster_cluster_cluster_2396385260629380429&#45;3079338983303448841666634710538995761&#45;6281391710310240799&#45;&gt;cluster_cluster_cluster_2396385260629380429&#45;30793389833034488416666347105389957618804701423073270878</title>
<path fill="none" stroke="black" d="M558,-355.624C558,-334.736 558,-308 558,-308 558,-308 642.831,-308 642.831,-308"/>
<polygon fill="black" stroke="black" points="642.831,-311.5 652.831,-308 642.831,-304.5 642.831,-311.5"/>
</g>
<!-- cluster_cluster_cluster_2396385260629380429&#45;3079338983303448841666634710538995761&#45;6281391710310240799&#45;&gt;cluster_cluster_cluster_2396385260629380429&#45;3079338983303448841666634710538995761&#45;1173673408552268297 -->
<g id="edge3" class="edge"><title>cluster_cluster_cluster_2396385260629380429&#45;3079338983303448841666634710538995761&#45;6281391710310240799&#45;&gt;cluster_cluster_cluster_2396385260629380429&#45;3079338983303448841666634710538995761&#45;1173673408552268297</title>
<path fill="none" stroke="black" d="M464.75,-355.55C464.75,-355.55 464.75,-153.047 464.75,-153.047"/>
<polygon fill="black" stroke="black" points="468.25,-153.047 464.75,-143.047 461.25,-153.047 468.25,-153.047"/>
</g>
<!-- cluster_cluster_cluster_2396385260629380429&#45;30793389833034488416666347105389957618804701423073270878&#45;&gt;cluster_cluster_cluster_2396385260629380429&#45;30793389833034488416666347105389957617477766655963245695 -->
<g id="edge4" class="edge"><title>cluster_cluster_cluster_2396385260629380429&#45;30793389833034488416666347105389957618804701423073270878&#45;&gt;cluster_cluster_cluster_2396385260629380429&#45;30793389833034488416666347105389957617477766655963245695</title>
<path fill="none" stroke="black" d="M696.25,-283.663C696.25,-283.663 696.25,-258.269 696.25,-258.269"/>
<polygon fill="black" stroke="black" points="699.75,-258.269 696.25,-248.269 692.75,-258.269 699.75,-258.269"/>
</g>
<!-- cluster_cluster_cluster_2396385260629380429&#45;3079338983303448841666634710538995761&#45;17272262354286861 -->
<g id="node4" class="node"><title>cluster_cluster_cluster_2396385260629380429&#45;3079338983303448841666634710538995761&#45;17272262354286861</title>
<g id="a_node4"><a xlink:href="./cvt_model/co2mpas.model.physical.gear_box.cvtidentify_max_speed_velocity_ratio.txt" xlink:title="Identifies the maximum speed velocity ratio of the gear box [h*RPM/km].">
<polygon fill="springgreen" stroke="black" points="1533,-320 1317,-320 1317,-284 1533,-284 1533,-320"/>
<text text-anchor="start" x="1327" y="-297.8" font-family="Times New Roman,serif" font-size="14.00">identify_max_speed_velocity_ratio</text>
</a>
</g>
</g>
<!-- cluster_cluster_cluster_2396385260629380429&#45;3079338983303448841666634710538995761&#45;3266232678127081741 -->
<g id="node12" class="node"><title>cluster_cluster_cluster_2396385260629380429&#45;3079338983303448841666634710538995761&#45;3266232678127081741</title>
<g id="a_node12"><a xlink:title="Maximum speed velocity ratio of the gear box [h*RPM/km].">
<path fill="cyan" stroke="black" d="M1576,-237.5C1576,-237.5 1274,-237.5 1274,-237.5 1268,-237.5 1262,-231.5 1262,-225.5 1262,-225.5 1262,-201.5 1262,-201.5 1262,-195.5 1268,-189.5 1274,-189.5 1274,-189.5 1576,-189.5 1576,-189.5 1582,-189.5 1588,-195.5 1588,-201.5 1588,-201.5 1588,-225.5 1588,-225.5 1588,-231.5 1582,-237.5 1576,-237.5"/>
<text text-anchor="start" x="1351" y="-220.3" font-family="Times New Roman,serif" font-size="14.00">max_speed_velocity_ratio</text>
<polygon fill="none" stroke="black" points="1270,-193.5 1270,-214.5 1364,-214.5 1364,-193.5 1270,-193.5"/>
<text text-anchor="start" x="1273" y="-200.3" font-family="Times New Roman,serif" font-size="14.00">remote child 0=</text>
<polygon fill="none" stroke="black" points="1364,-193.5 1364,-214.5 1580,-214.5 1580,-193.5 1364,-193.5"/>
<text text-anchor="start" x="1367" y="-200.3" font-family="Times New Roman,serif" font-size="14.00">cvt_model:max_speed_velocity_ratio</text>
</a>
</g>
</g>
<!-- cluster_cluster_cluster_2396385260629380429&#45;3079338983303448841666634710538995761&#45;17272262354286861&#45;&gt;cluster_cluster_cluster_2396385260629380429&#45;3079338983303448841666634710538995761&#45;3266232678127081741 -->
<g id="edge5" class="edge"><title>cluster_cluster_cluster_2396385260629380429&#45;3079338983303448841666634710538995761&#45;17272262354286861&#45;&gt;cluster_cluster_cluster_2396385260629380429&#45;3079338983303448841666634710538995761&#45;3266232678127081741</title>
<path fill="none" stroke="black" d="M1425,-283.663C1425,-283.663 1425,-247.53 1425,-247.53"/>
<polygon fill="black" stroke="black" points="1428.5,-247.53 1425,-237.53 1421.5,-247.53 1428.5,-247.53"/>
</g>
<!-- cluster_cluster_cluster_2396385260629380429&#45;30793389833034488416666347105389957618629495254995206395 -->
<g id="node8" class="node"><title>cluster_cluster_cluster_2396385260629380429&#45;30793389833034488416666347105389957618629495254995206395</title>
<g id="a_node8"><a xlink:title="gear_box_speeds_in">
<path fill="cyan" stroke="black" d="M429.5,-71C429.5,-71 158.5,-71 158.5,-71 152.5,-71 146.5,-65 146.5,-59 146.5,-59 146.5,-35 146.5,-35 146.5,-29 152.5,-23 158.5,-23 158.5,-23 429.5,-23 429.5,-23 435.5,-23 441.5,-29 441.5,-35 441.5,-35 441.5,-59 441.5,-59 441.5,-65 435.5,-71 429.5,-71"/>
<text text-anchor="start" x="236" y="-53.8" font-family="Times New Roman,serif" font-size="14.00">gear_box_speeds_in</text>
<polygon fill="none" stroke="black" points="155,-27 155,-48 249,-48 249,-27 155,-27"/>
<text text-anchor="start" x="158" y="-33.8" font-family="Times New Roman,serif" font-size="14.00">remote child 0=</text>
<polygon fill="none" stroke="black" points="249,-27 249,-48 434,-48 434,-27 249,-27"/>
<text text-anchor="start" x="252" y="-33.8" font-family="Times New Roman,serif" font-size="14.00">cvt_model:gear_box_speeds_in</text>
</a>
</g>
</g>
<!-- cluster_cluster_cluster_2396385260629380429&#45;3079338983303448841666634710538995761&#45;1173673408552268297&#45;&gt;cluster_cluster_cluster_2396385260629380429&#45;30793389833034488416666347105389957618629495254995206395 -->
<g id="edge6" class="edge"><title>cluster_cluster_cluster_2396385260629380429&#45;3079338983303448841666634710538995761&#45;1173673408552268297&#45;&gt;cluster_cluster_cluster_2396385260629380429&#45;30793389833034488416666347105389957618629495254995206395</title>
<path fill="none" stroke="black" d="M423.25,-106.909C423.25,-106.909 423.25,-81.1988 423.25,-81.1988"/>
<polygon fill="black" stroke="black" points="426.75,-81.1988 423.25,-71.1988 419.75,-81.1988 426.75,-81.1988"/>
<polygon fill="none" stroke="black" points="352.75,-72.554 352.75,-93.554 403.75,-93.554 403.75,-72.554 352.75,-72.554"/>
<text text-anchor="start" x="355.75" y="-79.354" font-family="Times New Roman,serif" font-size="14.00">weight=</text>
<polygon fill="none" stroke="black" points="403.75,-72.554 403.75,-93.554 423.75,-93.554 423.75,-72.554 403.75,-72.554"/>
<text text-anchor="start" x="406.75" y="-79.354" font-family="Times New Roman,serif" font-size="14.00">10</text>
</g>
<!-- cluster_cluster_cluster_2396385260629380429&#45;30793389833034488416666347105389957615823726384603252559 -->
<g id="node9" class="node"><title>cluster_cluster_cluster_2396385260629380429&#45;30793389833034488416666347105389957615823726384603252559</title>
<g id="a_node9"><a xlink:title="gears">
<path fill="cyan" stroke="black" d="M656,-71C656,-71 472,-71 472,-71 466,-71 460,-65 460,-59 460,-59 460,-35 460,-35 460,-29 466,-23 472,-23 472,-23 656,-23 656,-23 662,-23 668,-29 668,-35 668,-35 668,-59 668,-59 668,-65 662,-71 656,-71"/>
<text text-anchor="start" x="549" y="-53.8" font-family="Times New Roman,serif" font-size="14.00">gears</text>
<polygon fill="none" stroke="black" points="468,-27 468,-48 562,-48 562,-27 468,-27"/>
<text text-anchor="start" x="471" y="-33.8" font-family="Times New Roman,serif" font-size="14.00">remote child 0=</text>
<polygon fill="none" stroke="black" points="562,-27 562,-48 660,-48 660,-27 562,-27"/>
<text text-anchor="start" x="565" y="-33.8" font-family="Times New Roman,serif" font-size="14.00">cvt_model:gears</text>
</a>
</g>
</g>
<!-- cluster_cluster_cluster_2396385260629380429&#45;3079338983303448841666634710538995761&#45;1173673408552268297&#45;&gt;cluster_cluster_cluster_2396385260629380429&#45;30793389833034488416666347105389957615823726384603252559 -->
<g id="edge7" class="edge"><title>cluster_cluster_cluster_2396385260629380429&#45;3079338983303448841666634710538995761&#45;1173673408552268297&#45;&gt;cluster_cluster_cluster_2396385260629380429&#45;30793389833034488416666347105389957615823726384603252559</title>
<path fill="none" stroke="black" d="M564,-106.909C564,-106.909 564,-81.1988 564,-81.1988"/>
<polygon fill="black" stroke="black" points="567.5,-81.1988 564,-71.1988 560.5,-81.1988 567.5,-81.1988"/>
</g>
<!-- cluster_cluster_cluster_2396385260629380429&#45;3079338983303448841666634710538995761&#45;3579311186073635 -->
<g id="node11" class="node"><title>cluster_cluster_cluster_2396385260629380429&#45;3079338983303448841666634710538995761&#45;3579311186073635</title>
<g id="a_node11"><a xlink:title="max_gear">
<path fill="cyan" stroke="black" d="M907.5,-71C907.5,-71 698.5,-71 698.5,-71 692.5,-71 686.5,-65 686.5,-59 686.5,-59 686.5,-35 686.5,-35 686.5,-29 692.5,-23 698.5,-23 698.5,-23 907.5,-23 907.5,-23 913.5,-23 919.5,-29 919.5,-35 919.5,-35 919.5,-59 919.5,-59 919.5,-65 913.5,-71 907.5,-71"/>
<text text-anchor="start" x="776" y="-53.8" font-family="Times New Roman,serif" font-size="14.00">max_gear</text>
<polygon fill="none" stroke="black" points="695,-27 695,-48 789,-48 789,-27 695,-27"/>
<text text-anchor="start" x="698" y="-33.8" font-family="Times New Roman,serif" font-size="14.00">remote child 0=</text>
<polygon fill="none" stroke="black" points="789,-27 789,-48 912,-48 912,-27 789,-27"/>
<text text-anchor="start" x="792" y="-33.8" font-family="Times New Roman,serif" font-size="14.00">cvt_model:max_gear</text>
</a>
</g>
</g>
<!-- cluster_cluster_cluster_2396385260629380429&#45;3079338983303448841666634710538995761&#45;1173673408552268297&#45;&gt;cluster_cluster_cluster_2396385260629380429&#45;3079338983303448841666634710538995761&#45;3579311186073635 -->
<g id="edge8" class="edge"><title>cluster_cluster_cluster_2396385260629380429&#45;3079338983303448841666634710538995761&#45;1173673408552268297&#45;&gt;cluster_cluster_cluster_2396385260629380429&#45;3079338983303448841666634710538995761&#45;3579311186073635</title>
<path fill="none" stroke="black" d="M704.75,-106.909C704.75,-106.909 704.75,-81.1988 704.75,-81.1988"/>
<polygon fill="black" stroke="black" points="708.25,-81.1988 704.75,-71.1988 701.25,-81.1988 708.25,-81.1988"/>
</g>
<!-- cluster_cluster_cluster_2396385260629380429&#45;3079338983303448841666634710538995761&#45;3904256270299959966 -->
<g id="node6" class="node"><title>cluster_cluster_cluster_2396385260629380429&#45;3079338983303448841666634710538995761&#45;3904256270299959966</title>
<g id="a_node6"><a xlink:title="Engine speed [RPM].">
<path fill="cyan" stroke="black" d="M1412,-404C1412,-404 1142,-404 1142,-404 1136,-404 1130,-398 1130,-392 1130,-392 1130,-368 1130,-368 1130,-362 1136,-356 1142,-356 1142,-356 1412,-356 1412,-356 1418,-356 1424,-362 1424,-368 1424,-368 1424,-392 1424,-392 1424,-398 1418,-404 1412,-404"/>
<text text-anchor="start" x="1223" y="-386.8" font-family="Times New Roman,serif" font-size="14.00">engine_speeds_out</text>
<polygon fill="none" stroke="black" points="1138,-360 1138,-381 1240,-381 1240,-360 1138,-360"/>
<text text-anchor="start" x="1141" y="-366.8" font-family="Times New Roman,serif" font-size="14.00">remote parent 0=</text>
<polygon fill="none" stroke="black" points="1240,-360 1240,-381 1416,-381 1416,-360 1240,-360"/>
<text text-anchor="start" x="1243" y="-366.8" font-family="Times New Roman,serif" font-size="14.00">cvt_model:engine_speeds_out</text>
</a>
</g>
</g>
<!-- cluster_cluster_cluster_2396385260629380429&#45;3079338983303448841666634710538995761&#45;3904256270299959966&#45;&gt;cluster_cluster_cluster_2396385260629380429&#45;30793389833034488416666347105389957618804701423073270878 -->
<g id="edge9" class="edge"><title>cluster_cluster_cluster_2396385260629380429&#45;3079338983303448841666634710538995761&#45;3904256270299959966&#45;&gt;cluster_cluster_cluster_2396385260629380429&#45;30793389833034488416666347105389957618804701423073270878</title>
<path fill="none" stroke="black" d="M1196,-355.766C1196,-330.023 1196,-293 1196,-293 1196,-293 755.31,-293 755.31,-293"/>
<polygon fill="black" stroke="black" points="755.31,-289.5 745.31,-293 755.31,-296.5 755.31,-289.5"/>
</g>
<!-- cluster_cluster_cluster_2396385260629380429&#45;3079338983303448841666634710538995761&#45;3904256270299959966&#45;&gt;cluster_cluster_cluster_2396385260629380429&#45;3079338983303448841666634710538995761&#45;17272262354286861 -->
<g id="edge10" class="edge"><title>cluster_cluster_cluster_2396385260629380429&#45;3079338983303448841666634710538995761&#45;3904256270299959966&#45;&gt;cluster_cluster_cluster_2396385260629380429&#45;3079338983303448841666634710538995761&#45;17272262354286861</title>
<path fill="none" stroke="black" d="M1370.5,-355.748C1370.5,-355.748 1370.5,-330.288 1370.5,-330.288"/>
<polygon fill="black" stroke="black" points="1374,-330.287 1370.5,-320.288 1367,-330.288 1374,-330.287"/>
</g>
<!-- cluster_cluster_cluster_2396385260629380429&#45;30793389833034488416666347105389957611221065230924752828 -->
<g id="node7" class="node"><title>cluster_cluster_cluster_2396385260629380429&#45;30793389833034488416666347105389957611221065230924752828</title>
<g id="a_node7"><a xlink:title="Gear box power vector [kW].">
<path fill="cyan" stroke="black" d="M302,-404C302,-404 12,-404 12,-404 6,-404 0,-398 0,-392 0,-392 0,-368 0,-368 0,-362 6,-356 12,-356 12,-356 302,-356 302,-356 308,-356 314,-362 314,-368 314,-368 314,-392 314,-392 314,-398 308,-404 302,-404"/>
<text text-anchor="start" x="93.5" y="-386.8" font-family="Times New Roman,serif" font-size="14.00">gear_box_powers_out</text>
<polygon fill="none" stroke="black" points="8,-360 8,-381 110,-381 110,-360 8,-360"/>
<text text-anchor="start" x="11" y="-366.8" font-family="Times New Roman,serif" font-size="14.00">remote parent 0=</text>
<polygon fill="none" stroke="black" points="110,-360 110,-381 306,-381 306,-360 110,-360"/>
<text text-anchor="start" x="113" y="-366.8" font-family="Times New Roman,serif" font-size="14.00">cvt_model:gear_box_powers_out</text>
</a>
</g>
</g>
<!-- cluster_cluster_cluster_2396385260629380429&#45;30793389833034488416666347105389957611221065230924752828&#45;&gt;cluster_cluster_cluster_2396385260629380429&#45;30793389833034488416666347105389957618804701423073270878 -->
<g id="edge11" class="edge"><title>cluster_cluster_cluster_2396385260629380429&#45;30793389833034488416666347105389957611221065230924752828&#45;&gt;cluster_cluster_cluster_2396385260629380429&#45;30793389833034488416666347105389957618804701423073270878</title>
<path fill="none" stroke="black" d="M258.167,-355.704C258.167,-330.895 258.167,-296 258.167,-296 258.167,-296 642.656,-296 642.656,-296"/>
<polygon fill="black" stroke="black" points="642.656,-299.5 652.656,-296 642.656,-292.5 642.656,-299.5"/>
</g>
<!-- cluster_cluster_cluster_2396385260629380429&#45;30793389833034488416666347105389957611221065230924752828&#45;&gt;cluster_cluster_cluster_2396385260629380429&#45;3079338983303448841666634710538995761&#45;1173673408552268297 -->
<g id="edge12" class="edge"><title>cluster_cluster_cluster_2396385260629380429&#45;30793389833034488416666347105389957611221065230924752828&#45;&gt;cluster_cluster_cluster_2396385260629380429&#45;3079338983303448841666634710538995761&#45;1173673408552268297</title>
<path fill="none" stroke="black" d="M202.333,-355.55C202.333,-291.725 202.333,-125 202.333,-125 202.333,-125 394.841,-125 394.841,-125"/>
<polygon fill="black" stroke="black" points="394.841,-128.5 404.841,-125 394.841,-121.5 394.841,-128.5"/>
</g>
<!-- cluster_cluster_cluster_2396385260629380429&#45;3079338983303448841666634710538995761&#45;3009578804924602371 -->
<g id="node10" class="node"><title>cluster_cluster_cluster_2396385260629380429&#45;3079338983303448841666634710538995761&#45;3009578804924602371</title>
<g id="a_node10"><a xlink:title="Engine speed idle median and std [RPM].">
<path fill="cyan" stroke="black" d="M2002,-404C2002,-404 1736,-404 1736,-404 1730,-404 1724,-398 1724,-392 1724,-392 1724,-368 1724,-368 1724,-362 1730,-356 1736,-356 1736,-356 2002,-356 2002,-356 2008,-356 2014,-362 2014,-368 2014,-368 2014,-392 2014,-392 2014,-398 2008,-404 2002,-404"/>
<text text-anchor="start" x="1817.5" y="-386.8" font-family="Times New Roman,serif" font-size="14.00">idle_engine_speed</text>
<polygon fill="none" stroke="black" points="1732,-360 1732,-381 1834,-381 1834,-360 1732,-360"/>
<text text-anchor="start" x="1735" y="-366.8" font-family="Times New Roman,serif" font-size="14.00">remote parent 0=</text>
<polygon fill="none" stroke="black" points="1834,-360 1834,-381 2006,-381 2006,-360 1834,-360"/>
<text text-anchor="start" x="1837" y="-366.8" font-family="Times New Roman,serif" font-size="14.00">cvt_model:idle_engine_speed</text>
</a>
</g>
</g>
<!-- cluster_cluster_cluster_2396385260629380429&#45;3079338983303448841666634710538995761&#45;3009578804924602371&#45;&gt;cluster_cluster_cluster_2396385260629380429&#45;3079338983303448841666634710538995761&#45;17272262354286861 -->
<g id="edge13" class="edge"><title>cluster_cluster_cluster_2396385260629380429&#45;3079338983303448841666634710538995761&#45;3009578804924602371&#45;&gt;cluster_cluster_cluster_2396385260629380429&#45;3079338983303448841666634710538995761&#45;17272262354286861</title>
<path fill="none" stroke="black" d="M1869,-355.748C1869,-332.851 1869,-302 1869,-302 1869,-302 1543.05,-302 1543.05,-302"/>
<polygon fill="black" stroke="black" points="1543.05,-298.5 1533.05,-302 1543.05,-305.5 1543.05,-298.5"/>
</g>
<!-- cluster_cluster_cluster_2396385260629380429&#45;30793389833034488416666347105389957612474993859311970617 -->
<g id="node13" class="node"><title>cluster_cluster_cluster_2396385260629380429&#45;30793389833034488416666347105389957612474993859311970617</title>
<g id="a_node13"><a xlink:title="If the engine is on [&#45;].">
<path fill="cyan" stroke="black" d="M842,-404C842,-404 622,-404 622,-404 616,-404 610,-398 610,-392 610,-392 610,-368 610,-368 610,-362 616,-356 622,-356 622,-356 842,-356 842,-356 848,-356 854,-362 854,-368 854,-368 854,-392 854,-392 854,-398 848,-404 842,-404"/>
<text text-anchor="start" x="703" y="-386.8" font-family="Times New Roman,serif" font-size="14.00">on_engine</text>
<polygon fill="none" stroke="black" points="618,-360 618,-381 720,-381 720,-360 618,-360"/>
<text text-anchor="start" x="621" y="-366.8" font-family="Times New Roman,serif" font-size="14.00">remote parent 0=</text>
<polygon fill="none" stroke="black" points="720,-360 720,-381 846,-381 846,-360 720,-360"/>
<text text-anchor="start" x="723" y="-366.8" font-family="Times New Roman,serif" font-size="14.00">cvt_model:on_engine</text>
</a>
</g>
</g>
<!-- cluster_cluster_cluster_2396385260629380429&#45;30793389833034488416666347105389957612474993859311970617&#45;&gt;cluster_cluster_cluster_2396385260629380429&#45;30793389833034488416666347105389957618804701423073270878 -->
<g id="edge14" class="edge"><title>cluster_cluster_cluster_2396385260629380429&#45;30793389833034488416666347105389957612474993859311970617&#45;&gt;cluster_cluster_cluster_2396385260629380429&#45;30793389833034488416666347105389957618804701423073270878</title>
<path fill="none" stroke="black" d="M699,-355.748C699,-355.748 699,-330.288 699,-330.288"/>
<polygon fill="black" stroke="black" points="702.5,-330.287 699,-320.288 695.5,-330.288 702.5,-330.287"/>
</g>
<!-- cluster_cluster_cluster_2396385260629380429&#45;3079338983303448841666634710538995761&#45;3822089204281359213 -->
<g id="node14" class="node"><title>cluster_cluster_cluster_2396385260629380429&#45;3079338983303448841666634710538995761&#45;3822089204281359213</title>
<g id="a_node14"><a xlink:title="Maximum velocity to consider the vehicle stopped [km/h].">
<path fill="cyan" stroke="black" d="M1693.5,-404C1693.5,-404 1454.5,-404 1454.5,-404 1448.5,-404 1442.5,-398 1442.5,-392 1442.5,-392 1442.5,-368 1442.5,-368 1442.5,-362 1448.5,-356 1454.5,-356 1454.5,-356 1693.5,-356 1693.5,-356 1699.5,-356 1705.5,-362 1705.5,-368 1705.5,-368 1705.5,-392 1705.5,-392 1705.5,-398 1699.5,-404 1693.5,-404"/>
<text text-anchor="start" x="1536.5" y="-386.8" font-family="Times New Roman,serif" font-size="14.00">stop_velocity</text>
<polygon fill="none" stroke="black" points="1451,-360 1451,-381 1553,-381 1553,-360 1451,-360"/>
<text text-anchor="start" x="1454" y="-366.8" font-family="Times New Roman,serif" font-size="14.00">remote parent 0=</text>
<polygon fill="none" stroke="black" points="1553,-360 1553,-381 1698,-381 1698,-360 1553,-360"/>
<text text-anchor="start" x="1556" y="-366.8" font-family="Times New Roman,serif" font-size="14.00">cvt_model:stop_velocity</text>
</a>
</g>
</g>
<!-- cluster_cluster_cluster_2396385260629380429&#45;3079338983303448841666634710538995761&#45;3822089204281359213&#45;&gt;cluster_cluster_cluster_2396385260629380429&#45;3079338983303448841666634710538995761&#45;17272262354286861 -->
<g id="edge15" class="edge"><title>cluster_cluster_cluster_2396385260629380429&#45;3079338983303448841666634710538995761&#45;3822089204281359213&#45;&gt;cluster_cluster_cluster_2396385260629380429&#45;3079338983303448841666634710538995761&#45;17272262354286861</title>
<path fill="none" stroke="black" d="M1487.75,-355.748C1487.75,-355.748 1487.75,-330.288 1487.75,-330.288"/>
<polygon fill="black" stroke="black" points="1491.25,-330.287 1487.75,-320.288 1484.25,-330.288 1491.25,-330.287"/>
</g>
<!-- cluster_cluster_cluster_2396385260629380429&#45;30793389833034488416666347105389957611395676110976739562 -->
<g id="node15" class="node"><title>cluster_cluster_cluster_2396385260629380429&#45;30793389833034488416666347105389957611395676110976739562</title>
<g id="a_node15"><a xlink:title="Vehicle velocity [km/h].">
<path fill="cyan" stroke="black" d="M1099.5,-404C1099.5,-404 884.5,-404 884.5,-404 878.5,-404 872.5,-398 872.5,-392 872.5,-392 872.5,-368 872.5,-368 872.5,-362 878.5,-356 884.5,-356 884.5,-356 1099.5,-356 1099.5,-356 1105.5,-356 1111.5,-362 1111.5,-368 1111.5,-368 1111.5,-392 1111.5,-392 1111.5,-398 1105.5,-404 1099.5,-404"/>
<text text-anchor="start" x="966.5" y="-386.8" font-family="Times New Roman,serif" font-size="14.00">velocities</text>
<polygon fill="none" stroke="black" points="881,-360 881,-381 983,-381 983,-360 881,-360"/>
<text text-anchor="start" x="884" y="-366.8" font-family="Times New Roman,serif" font-size="14.00">remote parent 0=</text>
<polygon fill="none" stroke="black" points="983,-360 983,-381 1104,-381 1104,-360 983,-360"/>
<text text-anchor="start" x="986" y="-366.8" font-family="Times New Roman,serif" font-size="14.00">cvt_model:velocities</text>
</a>
</g>
</g>
<!-- cluster_cluster_cluster_2396385260629380429&#45;30793389833034488416666347105389957611395676110976739562&#45;&gt;cluster_cluster_cluster_2396385260629380429&#45;30793389833034488416666347105389957618804701423073270878 -->
<g id="edge16" class="edge"><title>cluster_cluster_cluster_2396385260629380429&#45;30793389833034488416666347105389957611395676110976739562&#45;&gt;cluster_cluster_cluster_2396385260629380429&#45;30793389833034488416666347105389957618804701423073270878</title>
<path fill="none" stroke="black" d="M888.167,-355.748C888.167,-332.851 888.167,-302 888.167,-302 888.167,-302 755.275,-302 755.275,-302"/>
<polygon fill="black" stroke="black" points="755.275,-298.5 745.275,-302 755.275,-305.5 755.275,-298.5"/>
</g>
<!-- cluster_cluster_cluster_2396385260629380429&#45;30793389833034488416666347105389957611395676110976739562&#45;&gt;cluster_cluster_cluster_2396385260629380429&#45;3079338983303448841666634710538995761&#45;17272262354286861 -->
<g id="edge17" class="edge"><title>cluster_cluster_cluster_2396385260629380429&#45;30793389833034488416666347105389957611395676110976739562&#45;&gt;cluster_cluster_cluster_2396385260629380429&#45;3079338983303448841666634710538995761&#45;17272262354286861</title>
<path fill="none" stroke="black" d="M1015.5,-355.867C1015.5,-335.97 1015.5,-311 1015.5,-311 1015.5,-311 1306.87,-311 1306.87,-311"/>
<polygon fill="black" stroke="black" points="1306.87,-314.5 1316.87,-311 1306.87,-307.5 1306.87,-314.5"/>
</g>
<!-- cluster_cluster_cluster_2396385260629380429&#45;30793389833034488416666347105389957611395676110976739562&#45;&gt;cluster_cluster_cluster_2396385260629380429&#45;3079338983303448841666634710538995761&#45;1173673408552268297 -->
<g id="edge18" class="edge"><title>cluster_cluster_cluster_2396385260629380429&#45;30793389833034488416666347105389957611395676110976739562&#45;&gt;cluster_cluster_cluster_2396385260629380429&#45;3079338983303448841666634710538995761&#45;1173673408552268297</title>
<path fill="none" stroke="black" d="M903.833,-355.55C903.833,-291.725 903.833,-125 903.833,-125 903.833,-125 733.469,-125 733.469,-125"/>
<polygon fill="black" stroke="black" points="733.469,-121.5 723.469,-125 733.469,-128.5 733.469,-121.5"/>
</g>
</g>
</svg>
