<?xml version="1.0" encoding="UTF-8" standalone="no"?>
<!DOCTYPE svg PUBLIC "-//W3C//DTD SVG 1.1//EN"
 "http://www.w3.org/Graphics/SVG/1.1/DTD/svg11.dtd">
<!-- Generated by graphviz version 2.38.0 (20140413.2041)
 -->
<!-- Title: cluster_NEDC cycle model Pages: 1 -->
<svg width="2021pt" height="466pt"
 viewBox="0.00 0.00 2020.50 466.00" xmlns="http://www.w3.org/2000/svg" xmlns:xlink="http://www.w3.org/1999/xlink">
<g id="graph0" class="graph" transform="scale(1 1) rotate(0) translate(4 462)">
<title>cluster_NEDC cycle model</title>
<polygon fill="white" stroke="none" points="-4,4 -4,-462 2016.5,-462 2016.5,4 -4,4"/>
<text text-anchor="start" x="951.75" y="-7.8" font-family="Times New Roman,serif" font-size="14.00">NEDC cycle model</text>
<!-- cluster_cluster_cluster_3825410129914027761859141180460300773840080351465163819017235987046998144630 -->
<g id="node1" class="node"><title>cluster_cluster_cluster_3825410129914027761859141180460300773840080351465163819017235987046998144630</title>
<g id="a_node1"><a xlink:href="./NEDC_cycle_model/co2mpas.model.physical.cycle.NEDCnedc_velocities.txt" xlink:title="Returns the velocity profile according to NEDC and gear box type [km/h].">
<polygon fill="springgreen" stroke="black" points="362,-170 254,-170 254,-134 362,-134 362,-170"/>
<text text-anchor="start" x="264.5" y="-147.8" font-family="Times New Roman,serif" font-size="14.00">nedc_velocities</text>
</a>
</g>
</g>
<!-- cluster_cluster_cluster_3825410129914027761859141180460300773840080351465163819011395676110976739562 -->
<g id="node14" class="node"><title>cluster_cluster_cluster_3825410129914027761859141180460300773840080351465163819011395676110976739562</title>
<g id="a_node14"><a xlink:title="Velocity vector [km/h].">
<path fill="cyan" stroke="black" d="M436,-81.5C436,-81.5 180,-81.5 180,-81.5 174,-81.5 168,-75.5 168,-69.5 168,-69.5 168,-45.5 168,-45.5 168,-39.5 174,-33.5 180,-33.5 180,-33.5 436,-33.5 436,-33.5 442,-33.5 448,-39.5 448,-45.5 448,-45.5 448,-69.5 448,-69.5 448,-75.5 442,-81.5 436,-81.5"/>
<text text-anchor="start" x="282" y="-64.3" font-family="Times New Roman,serif" font-size="14.00">velocities</text>
<polygon fill="none" stroke="black" points="176,-37.5 176,-58.5 270,-58.5 270,-37.5 176,-37.5"/>
<text text-anchor="start" x="179" y="-44.3" font-family="Times New Roman,serif" font-size="14.00">remote child 0=</text>
<polygon fill="none" stroke="black" points="270,-37.5 270,-58.5 440,-58.5 440,-37.5 270,-37.5"/>
<text text-anchor="start" x="273" y="-44.3" font-family="Times New Roman,serif" font-size="14.00">NEDC cycle model:velocities</text>
</a>
</g>
</g>
<!-- cluster_cluster_cluster_3825410129914027761859141180460300773840080351465163819017235987046998144630&#45;&gt;cluster_cluster_cluster_3825410129914027761859141180460300773840080351465163819011395676110976739562 -->
<g id="edge1" class="edge"><title>cluster_cluster_cluster_3825410129914027761859141180460300773840080351465163819017235987046998144630&#45;&gt;cluster_cluster_cluster_3825410129914027761859141180460300773840080351465163819011395676110976739562</title>
<path fill="none" stroke="black" d="M308,-133.779C308,-133.779 308,-91.744 308,-91.744"/>
<polygon fill="black" stroke="black" points="311.5,-91.744 308,-81.744 304.5,-91.7441 311.5,-91.744"/>
</g>
<!-- cluster_cluster_cluster_382541012991402776185914118046030077384008035146516381901&#45;6215422529513533217 -->
<g id="node2" class="node"><title>cluster_cluster_cluster_382541012991402776185914118046030077384008035146516381901&#45;6215422529513533217</title>
<g id="a_node2"><a xlink:title="Gear box type (manual or automatic or cvt).">
<path fill="cyan" stroke="black" d="M308,-260C308,-260 12,-260 12,-260 6,-260 0,-254 0,-248 0,-248 0,-224 0,-224 0,-218 6,-212 12,-212 12,-212 308,-212 308,-212 314,-212 320,-218 320,-224 320,-224 320,-248 320,-248 320,-254 314,-260 308,-260"/>
<text text-anchor="start" x="117.5" y="-242.8" font-family="Times New Roman,serif" font-size="14.00">gear_box_type</text>
<polygon fill="none" stroke="black" points="8,-216 8,-237 110,-237 110,-216 8,-216"/>
<text text-anchor="start" x="11" y="-222.8" font-family="Times New Roman,serif" font-size="14.00">remote parent 0=</text>
<polygon fill="none" stroke="black" points="110,-216 110,-237 312,-237 312,-216 110,-216"/>
<text text-anchor="start" x="113" y="-222.8" font-family="Times New Roman,serif" font-size="14.00">NEDC cycle model:gear_box_type</text>
</a>
</g>
</g>
<!-- cluster_cluster_cluster_382541012991402776185914118046030077384008035146516381901&#45;6215422529513533217&#45;&gt;cluster_cluster_cluster_3825410129914027761859141180460300773840080351465163819017235987046998144630 -->
<g id="edge2" class="edge"><title>cluster_cluster_cluster_382541012991402776185914118046030077384008035146516381901&#45;6215422529513533217&#45;&gt;cluster_cluster_cluster_3825410129914027761859141180460300773840080351465163819017235987046998144630</title>
<path fill="none" stroke="black" d="M298,-211.704C298,-211.704 298,-180.102 298,-180.102"/>
<polygon fill="black" stroke="black" points="301.5,-180.102 298,-170.102 294.5,-180.102 301.5,-180.102"/>
</g>
<!-- cluster_cluster_cluster_382541012991402776185914118046030077384008035146516381901&#45;2840349884536709809 -->
<g id="node10" class="node"><title>cluster_cluster_cluster_382541012991402776185914118046030077384008035146516381901&#45;2840349884536709809</title>
<g id="a_node10"><a xlink:href="./NEDC_cycle_model/nedc_gears.txt" xlink:title="Returns the gear shifting profile according to NEDC [&#45;].">
<polygon fill="springgreen" stroke="black" points="908.5,-176 737.5,-176 737.5,-128 908.5,-128 908.5,-176"/>
<text text-anchor="start" x="791.5" y="-158.8" font-family="Times New Roman,serif" font-size="14.00">nedc_gears</text>
<polygon fill="none" stroke="black" points="746,-132 746,-153 837,-153 837,-132 746,-132"/>
<text text-anchor="start" x="749" y="-138.8" font-family="Times New Roman,serif" font-size="14.00">input_domain=</text>
<polygon fill="none" stroke="black" points="837,-132 837,-153 901,-153 901,-132 837,-132"/>
<text text-anchor="start" x="840" y="-138.8" font-family="Times New Roman,serif" font-size="14.00">&lt;lambda&gt;</text>
</a>
</g>
</g>
<!-- cluster_cluster_cluster_382541012991402776185914118046030077384008035146516381901&#45;6215422529513533217&#45;&gt;cluster_cluster_cluster_382541012991402776185914118046030077384008035146516381901&#45;2840349884536709809 -->
<g id="edge3" class="edge"><title>cluster_cluster_cluster_382541012991402776185914118046030077384008035146516381901&#45;6215422529513533217&#45;&gt;cluster_cluster_cluster_382541012991402776185914118046030077384008035146516381901&#45;2840349884536709809</title>
<path fill="none" stroke="black" d="M276,-211.568C276,-202.329 276,-194 276,-194 276,-194 782.333,-194 782.333,-194 782.333,-194 782.333,-186.432 782.333,-186.432"/>
<polygon fill="black" stroke="black" points="785.833,-186.432 782.333,-176.432 778.833,-186.432 785.833,-186.432"/>
</g>
<!-- cluster_cluster_cluster_3825410129914027761859141180460300773840080351465163819015823726384603252559 -->
<g id="node3" class="node"><title>cluster_cluster_cluster_3825410129914027761859141180460300773840080351465163819015823726384603252559</title>
<g id="a_node3"><a xlink:title="Gear vector [&#45;].">
<path fill="cyan" stroke="black" d="M944,-92C944,-92 702,-92 702,-92 696,-92 690,-86 690,-80 690,-80 690,-35 690,-35 690,-29 696,-23 702,-23 702,-23 944,-23 944,-23 950,-23 956,-29 956,-35 956,-35 956,-80 956,-80 956,-86 950,-92 944,-92"/>
<text text-anchor="start" x="808" y="-74.3" font-family="Times New Roman,serif" font-size="14.00">gears</text>
<polygon fill="none" stroke="black" points="698,-47.5 698,-68.5 800,-68.5 800,-47.5 698,-47.5"/>
<text text-anchor="start" x="709" y="-54.3" font-family="Times New Roman,serif" font-size="14.00">remote child 1=</text>
<polygon fill="none" stroke="black" points="800,-47.5 800,-68.5 948,-68.5 948,-47.5 800,-47.5"/>
<text text-anchor="start" x="803" y="-54.3" font-family="Times New Roman,serif" font-size="14.00">NEDC cycle model:gears</text>
<polygon fill="none" stroke="black" points="698,-26.5 698,-47.5 800,-47.5 800,-26.5 698,-26.5"/>
<text text-anchor="start" x="701" y="-33.3" font-family="Times New Roman,serif" font-size="14.00">remote parent 0=</text>
<polygon fill="none" stroke="black" points="800,-26.5 800,-47.5 948,-47.5 948,-26.5 800,-26.5"/>
<text text-anchor="start" x="803" y="-33.3" font-family="Times New Roman,serif" font-size="14.00">NEDC cycle model:gears</text>
</a>
</g>
</g>
<!-- cluster_cluster_cluster_3825410129914027761859141180460300773840080351465163819015710857425003681082 -->
<g id="node4" class="node"><title>cluster_cluster_cluster_3825410129914027761859141180460300773840080351465163819015710857425003681082</title>
<g id="a_node4"><a xlink:title="Initial temperature of the test cell [°C].">
<path fill="cyan" stroke="black" d="M1313,-447.5C1313,-447.5 1007,-447.5 1007,-447.5 1001,-447.5 995,-441.5 995,-435.5 995,-435.5 995,-390.5 995,-390.5 995,-384.5 1001,-378.5 1007,-378.5 1007,-378.5 1313,-378.5 1313,-378.5 1319,-378.5 1325,-384.5 1325,-390.5 1325,-390.5 1325,-435.5 1325,-435.5 1325,-441.5 1319,-447.5 1313,-447.5"/>
<text text-anchor="start" x="1109" y="-429.8" font-family="Times New Roman,serif" font-size="14.00">initial_temperature</text>
<polygon fill="none" stroke="black" points="1003,-403 1003,-424 1097,-424 1097,-403 1003,-403"/>
<text text-anchor="start" x="1048" y="-409.8" font-family="Times New Roman,serif" font-size="14.00">default=</text>
<polygon fill="none" stroke="black" points="1097,-403 1097,-424 1317,-424 1317,-403 1097,-403"/>
<text text-anchor="start" x="1100" y="-409.8" font-family="Times New Roman,serif" font-size="14.00">25.0</text>
<polygon fill="none" stroke="black" points="1003,-382 1003,-403 1097,-403 1097,-382 1003,-382"/>
<text text-anchor="start" x="1006" y="-388.8" font-family="Times New Roman,serif" font-size="14.00">remote child 0=</text>
<polygon fill="none" stroke="black" points="1097,-382 1097,-403 1317,-403 1317,-382 1097,-382"/>
<text text-anchor="start" x="1100" y="-388.8" font-family="Times New Roman,serif" font-size="14.00">NEDC cycle model:initial_temperature</text>
</a>
</g>
</g>
<!-- cluster_cluster_cluster_3825410129914027761859141180460300773840080351465163819013946548646462490374 -->
<g id="node5" class="node"><title>cluster_cluster_cluster_3825410129914027761859141180460300773840080351465163819013946548646462490374</title>
<g id="a_node5"><a xlink:title="K1 NEDC parameter (first or second gear) [&#45;].">
<path fill="cyan" stroke="black" d="M1166,-260C1166,-260 940,-260 940,-260 934,-260 928,-254 928,-248 928,-248 928,-224 928,-224 928,-218 934,-212 940,-212 940,-212 1166,-212 1166,-212 1172,-212 1178,-218 1178,-224 1178,-224 1178,-248 1178,-248 1178,-254 1172,-260 1166,-260"/>
<text text-anchor="start" x="1046" y="-242.8" font-family="Times New Roman,serif" font-size="14.00">k1</text>
<polygon fill="none" stroke="black" points="936,-216 936,-237 1038,-237 1038,-216 936,-216"/>
<text text-anchor="start" x="939" y="-222.8" font-family="Times New Roman,serif" font-size="14.00">remote parent 0=</text>
<polygon fill="none" stroke="black" points="1038,-216 1038,-237 1170,-237 1170,-216 1038,-216"/>
<text text-anchor="start" x="1041" y="-222.8" font-family="Times New Roman,serif" font-size="14.00">NEDC cycle model:k1</text>
</a>
</g>
</g>
<!-- cluster_cluster_cluster_3825410129914027761859141180460300773840080351465163819013946548646462490374&#45;&gt;cluster_cluster_cluster_382541012991402776185914118046030077384008035146516381901&#45;2840349884536709809 -->
<g id="edge4" class="edge"><title>cluster_cluster_cluster_3825410129914027761859141180460300773840080351465163819013946548646462490374&#45;&gt;cluster_cluster_cluster_382541012991402776185914118046030077384008035146516381901&#45;2840349884536709809</title>
<path fill="none" stroke="black" d="M942,-211.953C942,-189.688 942,-160 942,-160 942,-160 918.535,-160 918.535,-160"/>
<polygon fill="black" stroke="black" points="918.535,-156.5 908.535,-160 918.535,-163.5 918.535,-156.5"/>
</g>
<!-- cluster_cluster_cluster_3825410129914027761859141180460300773840080351465163819016922247875390761644 -->
<g id="node6" class="node"><title>cluster_cluster_cluster_3825410129914027761859141180460300773840080351465163819016922247875390761644</title>
<g id="a_node6"><a xlink:title="K2 NEDC parameter (first or second gear) [&#45;].">
<path fill="cyan" stroke="black" d="M1434,-260C1434,-260 1208,-260 1208,-260 1202,-260 1196,-254 1196,-248 1196,-248 1196,-224 1196,-224 1196,-218 1202,-212 1208,-212 1208,-212 1434,-212 1434,-212 1440,-212 1446,-218 1446,-224 1446,-224 1446,-248 1446,-248 1446,-254 1440,-260 1434,-260"/>
<text text-anchor="start" x="1314" y="-242.8" font-family="Times New Roman,serif" font-size="14.00">k2</text>
<polygon fill="none" stroke="black" points="1204,-216 1204,-237 1306,-237 1306,-216 1204,-216"/>
<text text-anchor="start" x="1207" y="-222.8" font-family="Times New Roman,serif" font-size="14.00">remote parent 0=</text>
<polygon fill="none" stroke="black" points="1306,-216 1306,-237 1438,-237 1438,-216 1306,-216"/>
<text text-anchor="start" x="1309" y="-222.8" font-family="Times New Roman,serif" font-size="14.00">NEDC cycle model:k2</text>
</a>
</g>
</g>
<!-- cluster_cluster_cluster_3825410129914027761859141180460300773840080351465163819016922247875390761644&#45;&gt;cluster_cluster_cluster_382541012991402776185914118046030077384008035146516381901&#45;2840349884536709809 -->
<g id="edge5" class="edge"><title>cluster_cluster_cluster_3825410129914027761859141180460300773840080351465163819016922247875390761644&#45;&gt;cluster_cluster_cluster_382541012991402776185914118046030077384008035146516381901&#45;2840349884536709809</title>
<path fill="none" stroke="black" d="M1321,-211.828C1321,-184.57 1321,-144 1321,-144 1321,-144 918.609,-144 918.609,-144"/>
<polygon fill="black" stroke="black" points="918.609,-140.5 908.609,-144 918.609,-147.5 918.609,-140.5"/>
</g>
<!-- cluster_cluster_cluster_382541012991402776185914118046030077384008035146516381901&#45;6047659993931640753 -->
<g id="node7" class="node"><title>cluster_cluster_cluster_382541012991402776185914118046030077384008035146516381901&#45;6047659993931640753</title>
<g id="a_node7"><a xlink:title="K5 NEDC parameter (first or second gear) [&#45;].">
<path fill="cyan" stroke="black" d="M860,-260C860,-260 634,-260 634,-260 628,-260 622,-254 622,-248 622,-248 622,-224 622,-224 622,-218 628,-212 634,-212 634,-212 860,-212 860,-212 866,-212 872,-218 872,-224 872,-224 872,-248 872,-248 872,-254 866,-260 860,-260"/>
<text text-anchor="start" x="740" y="-242.8" font-family="Times New Roman,serif" font-size="14.00">k5</text>
<polygon fill="none" stroke="black" points="630,-216 630,-237 732,-237 732,-216 630,-216"/>
<text text-anchor="start" x="633" y="-222.8" font-family="Times New Roman,serif" font-size="14.00">remote parent 0=</text>
<polygon fill="none" stroke="black" points="732,-216 732,-237 864,-237 864,-216 732,-216"/>
<text text-anchor="start" x="735" y="-222.8" font-family="Times New Roman,serif" font-size="14.00">NEDC cycle model:k5</text>
</a>
</g>
</g>
<!-- cluster_cluster_cluster_382541012991402776185914118046030077384008035146516381901&#45;6047659993931640753&#45;&gt;cluster_cluster_cluster_382541012991402776185914118046030077384008035146516381901&#45;2840349884536709809 -->
<g id="edge6" class="edge"><title>cluster_cluster_cluster_382541012991402776185914118046030077384008035146516381901&#45;6047659993931640753&#45;&gt;cluster_cluster_cluster_382541012991402776185914118046030077384008035146516381901&#45;2840349884536709809</title>
<path fill="none" stroke="black" d="M827.167,-211.704C827.167,-211.704 827.167,-186.242 827.167,-186.242"/>
<polygon fill="black" stroke="black" points="830.667,-186.242 827.167,-176.242 823.667,-186.242 830.667,-186.242"/>
</g>
<!-- cluster_cluster_cluster_382541012991402776185914118046030077384008035146516381901&#45;3579311186073635 -->
<g id="node8" class="node"><title>cluster_cluster_cluster_382541012991402776185914118046030077384008035146516381901&#45;3579311186073635</title>
<g id="a_node8"><a xlink:title="Maximum gear of the gear box [&#45;].">
<path fill="cyan" stroke="black" d="M965,-437C965,-437 699,-437 699,-437 693,-437 687,-431 687,-425 687,-425 687,-401 687,-401 687,-395 693,-389 699,-389 699,-389 965,-389 965,-389 971,-389 977,-395 977,-401 977,-401 977,-425 977,-425 977,-431 971,-437 965,-437"/>
<text text-anchor="start" x="804.5" y="-419.8" font-family="Times New Roman,serif" font-size="14.00">max_gear</text>
<polygon fill="none" stroke="black" points="695,-393 695,-414 797,-414 797,-393 695,-393"/>
<text text-anchor="start" x="698" y="-399.8" font-family="Times New Roman,serif" font-size="14.00">remote parent 0=</text>
<polygon fill="none" stroke="black" points="797,-393 797,-414 969,-414 969,-393 797,-393"/>
<text text-anchor="start" x="800" y="-399.8" font-family="Times New Roman,serif" font-size="14.00">NEDC cycle model:max_gear</text>
</a>
</g>
</g>
<!-- cluster_cluster_cluster_382541012991402776185914118046030077384008035146516381901&#45;3579311186073635&#45;&gt;cluster_cluster_cluster_382541012991402776185914118046030077384008035146516381901&#45;2840349884536709809 -->
<g id="edge7" class="edge"><title>cluster_cluster_cluster_382541012991402776185914118046030077384008035146516381901&#45;3579311186073635&#45;&gt;cluster_cluster_cluster_382541012991402776185914118046030077384008035146516381901&#45;2840349884536709809</title>
<path fill="none" stroke="black" d="M890.25,-388.914C890.25,-388.914 890.25,-186.028 890.25,-186.028"/>
<polygon fill="black" stroke="black" points="893.75,-186.028 890.25,-176.028 886.75,-186.028 893.75,-186.028"/>
</g>
<!-- cluster_cluster_cluster_3825410129914027761859141180460300773840080351465163819014112993811645272567 -->
<g id="node11" class="node"><title>cluster_cluster_cluster_3825410129914027761859141180460300773840080351465163819014112993811645272567</title>
<g id="a_node11"><a xlink:href="./NEDC_cycle_model/set_max_gear_as_default_k5.txt" xlink:title="Returns the same arguments.">
<polygon fill="springgreen" stroke="black" points="856,-332 672,-332 672,-296 856,-296 856,-332"/>
<text text-anchor="start" x="682.5" y="-309.8" font-family="Times New Roman,serif" font-size="14.00">set_max_gear_as_default_k5</text>
</a>
</g>
</g>
<!-- cluster_cluster_cluster_382541012991402776185914118046030077384008035146516381901&#45;3579311186073635&#45;&gt;cluster_cluster_cluster_3825410129914027761859141180460300773840080351465163819014112993811645272567 -->
<g id="edge8" class="edge"><title>cluster_cluster_cluster_382541012991402776185914118046030077384008035146516381901&#45;3579311186073635&#45;&gt;cluster_cluster_cluster_3825410129914027761859141180460300773840080351465163819014112993811645272567</title>
<path fill="none" stroke="black" d="M771.5,-388.782C771.5,-388.782 771.5,-342.069 771.5,-342.069"/>
<polygon fill="black" stroke="black" points="775,-342.069 771.5,-332.069 768,-342.069 775,-342.069"/>
</g>
<!-- cluster_cluster_cluster_3825410129914027761859141180460300773840080351465163819018234291147510982776 -->
<g id="node9" class="node"><title>cluster_cluster_cluster_3825410129914027761859141180460300773840080351465163819018234291147510982776</title>
<g id="a_node9"><a xlink:title="Maximum time [s].">
<path fill="cyan" stroke="black" d="M1613,-458C1613,-458 1355,-458 1355,-458 1349,-458 1343,-452 1343,-446 1343,-446 1343,-380 1343,-380 1343,-374 1349,-368 1355,-368 1355,-368 1613,-368 1613,-368 1619,-368 1625,-374 1625,-380 1625,-380 1625,-446 1625,-446 1625,-452 1619,-458 1613,-458"/>
<text text-anchor="start" x="1456.5" y="-440.8" font-family="Times New Roman,serif" font-size="14.00">max_time</text>
<polygon fill="none" stroke="black" points="1351,-414 1351,-435 1445,-435 1445,-414 1351,-414"/>
<text text-anchor="start" x="1396" y="-420.8" font-family="Times New Roman,serif" font-size="14.00">default=</text>
<polygon fill="none" stroke="black" points="1445,-414 1445,-435 1617,-435 1617,-414 1445,-414"/>
<text text-anchor="start" x="1448" y="-420.8" font-family="Times New Roman,serif" font-size="14.00">1180.0</text>
<polygon fill="none" stroke="black" points="1351,-393 1351,-414 1445,-414 1445,-393 1351,-393"/>
<text text-anchor="start" x="1377" y="-399.8" font-family="Times New Roman,serif" font-size="14.00">initial_dist=</text>
<polygon fill="none" stroke="black" points="1445,-393 1445,-414 1617,-414 1617,-393 1445,-393"/>
<text text-anchor="start" x="1448" y="-399.8" font-family="Times New Roman,serif" font-size="14.00">5</text>
<polygon fill="none" stroke="black" points="1351,-372 1351,-393 1445,-393 1445,-372 1351,-372"/>
<text text-anchor="start" x="1354" y="-378.8" font-family="Times New Roman,serif" font-size="14.00">remote child 0=</text>
<polygon fill="none" stroke="black" points="1445,-372 1445,-393 1617,-393 1617,-372 1445,-372"/>
<text text-anchor="start" x="1448" y="-378.8" font-family="Times New Roman,serif" font-size="14.00">NEDC cycle model:max_time</text>
</a>
</g>
</g>
<!-- cluster_cluster_cluster_382541012991402776185914118046030077384008035146516381901&#45;2840349884536709809&#45;&gt;cluster_cluster_cluster_3825410129914027761859141180460300773840080351465163819015823726384603252559 -->
<g id="edge9" class="edge"><title>cluster_cluster_cluster_382541012991402776185914118046030077384008035146516381901&#45;2840349884536709809&#45;&gt;cluster_cluster_cluster_3825410129914027761859141180460300773840080351465163819015823726384603252559</title>
<path fill="none" stroke="black" d="M823,-127.664C823,-127.664 823,-102.083 823,-102.083"/>
<polygon fill="black" stroke="black" points="826.5,-102.083 823,-92.0827 819.5,-102.083 826.5,-102.083"/>
</g>
<!-- cluster_cluster_cluster_3825410129914027761859141180460300773840080351465163819014112993811645272567&#45;&gt;cluster_cluster_cluster_382541012991402776185914118046030077384008035146516381901&#45;6047659993931640753 -->
<g id="edge10" class="edge"><title>cluster_cluster_cluster_3825410129914027761859141180460300773840080351465163819014112993811645272567&#45;&gt;cluster_cluster_cluster_382541012991402776185914118046030077384008035146516381901&#45;6047659993931640753</title>
<path fill="none" stroke="black" d="M764,-295.909C764,-295.909 764,-270.199 764,-270.199"/>
<polygon fill="black" stroke="black" points="767.5,-270.199 764,-260.199 760.5,-270.199 767.5,-270.199"/>
</g>
<!-- cluster_cluster_cluster_3825410129914027761859141180460300773840080351465163819011095843056856409543 -->
<g id="node12" class="node"><title>cluster_cluster_cluster_3825410129914027761859141180460300773840080351465163819011095843056856409543</title>
<g id="a_node12"><a xlink:title="time_sample_frequency">
<path fill="cyan" stroke="black" d="M2000.5,-437C2000.5,-437 1655.5,-437 1655.5,-437 1649.5,-437 1643.5,-431 1643.5,-425 1643.5,-425 1643.5,-401 1643.5,-401 1643.5,-395 1649.5,-389 1655.5,-389 1655.5,-389 2000.5,-389 2000.5,-389 2006.5,-389 2012.5,-395 2012.5,-401 2012.5,-401 2012.5,-425 2012.5,-425 2012.5,-431 2006.5,-437 2000.5,-437"/>
<text text-anchor="start" x="1762" y="-419.8" font-family="Times New Roman,serif" font-size="14.00">time_sample_frequency</text>
<polygon fill="none" stroke="black" points="1652,-393 1652,-414 1754,-414 1754,-393 1652,-393"/>
<text text-anchor="start" x="1655" y="-399.8" font-family="Times New Roman,serif" font-size="14.00">remote parent 0=</text>
<polygon fill="none" stroke="black" points="1754,-393 1754,-414 2005,-414 2005,-393 1754,-393"/>
<text text-anchor="start" x="1757" y="-399.8" font-family="Times New Roman,serif" font-size="14.00">NEDC cycle model:time_sample_frequency</text>
</a>
</g>
</g>
<!-- cluster_cluster_cluster_382541012991402776185914118046030077384008035146516381901&#45;1825562924159530342 -->
<g id="node13" class="node"><title>cluster_cluster_cluster_382541012991402776185914118046030077384008035146516381901&#45;1825562924159530342</title>
<g id="a_node13"><a xlink:title="Time vector [s].">
<path fill="cyan" stroke="black" d="M592,-260C592,-260 350,-260 350,-260 344,-260 338,-254 338,-248 338,-248 338,-224 338,-224 338,-218 344,-212 350,-212 350,-212 592,-212 592,-212 598,-212 604,-218 604,-224 604,-224 604,-248 604,-248 604,-254 598,-260 592,-260"/>
<text text-anchor="start" x="456" y="-242.8" font-family="Times New Roman,serif" font-size="14.00">times</text>
<polygon fill="none" stroke="black" points="346,-216 346,-237 448,-237 448,-216 346,-216"/>
<text text-anchor="start" x="349" y="-222.8" font-family="Times New Roman,serif" font-size="14.00">remote parent 0=</text>
<polygon fill="none" stroke="black" points="448,-216 448,-237 596,-237 596,-216 448,-216"/>
<text text-anchor="start" x="451" y="-222.8" font-family="Times New Roman,serif" font-size="14.00">NEDC cycle model:times</text>
</a>
</g>
</g>
<!-- cluster_cluster_cluster_382541012991402776185914118046030077384008035146516381901&#45;1825562924159530342&#45;&gt;cluster_cluster_cluster_3825410129914027761859141180460300773840080351465163819017235987046998144630 -->
<g id="edge11" class="edge"><title>cluster_cluster_cluster_382541012991402776185914118046030077384008035146516381901&#45;1825562924159530342&#45;&gt;cluster_cluster_cluster_3825410129914027761859141180460300773840080351465163819017235987046998144630</title>
<path fill="none" stroke="black" d="M350,-211.704C350,-211.704 350,-180.102 350,-180.102"/>
<polygon fill="black" stroke="black" points="353.5,-180.102 350,-170.102 346.5,-180.102 353.5,-180.102"/>
</g>
<!-- cluster_cluster_cluster_382541012991402776185914118046030077384008035146516381901&#45;1825562924159530342&#45;&gt;cluster_cluster_cluster_382541012991402776185914118046030077384008035146516381901&#45;2840349884536709809 -->
<g id="edge12" class="edge"><title>cluster_cluster_cluster_382541012991402776185914118046030077384008035146516381901&#45;1825562924159530342&#45;&gt;cluster_cluster_cluster_382541012991402776185914118046030077384008035146516381901&#45;2840349884536709809</title>
<path fill="none" stroke="black" d="M526,-211.704C526,-186.895 526,-152 526,-152 526,-152 727.494,-152 727.494,-152"/>
<polygon fill="black" stroke="black" points="727.494,-155.5 737.494,-152 727.494,-148.5 727.494,-155.5"/>
</g>
</g>
</svg>
