<?xml version="1.0" encoding="UTF-8" standalone="no"?>
<!DOCTYPE svg PUBLIC "-//W3C//DTD SVG 1.1//EN"
 "http://www.w3.org/Graphics/SVG/1.1/DTD/svg11.dtd">
<!-- Generated by graphviz version 2.38.0 (20140413.2041)
 -->
<!-- Title: cluster_ESM&#45;wltp_l errors Pages: 1 -->
<svg width="520pt" height="697pt"
 viewBox="0.00 0.00 520.00 697.00" xmlns="http://www.w3.org/2000/svg" xmlns:xlink="http://www.w3.org/1999/xlink">
<g id="graph0" class="graph" transform="scale(1 1) rotate(0) translate(4 693)">
<title>cluster_ESM&#45;wltp_l errors</title>
<polygon fill="white" stroke="none" points="-4,4 -4,-693 516,-693 516,4 -4,4"/>
<text text-anchor="start" x="203.5" y="-7.8" font-family="Times New Roman,serif" font-size="14.00">ESM&#45;wltp_l errors</text>
<!-- cluster_cluster_cluster_&#45;22021212490198297065621433541211787464448742353704041341477532400 -->
<g id="node1" class="node"><title>cluster_cluster_cluster_&#45;22021212490198297065621433541211787464448742353704041341477532400</title>
<g id="a_node1"><a xlink:title="start">
<polygon fill="red" stroke="black" points="138.683,-647.049 140.459,-647.148 142.216,-647.295 143.948,-647.491 145.648,-647.735 147.308,-648.027 148.923,-648.364 150.485,-648.748 151.989,-649.176 153.429,-649.647 154.8,-650.161 156.098,-650.715 157.317,-651.308 158.455,-651.939 159.507,-652.605 160.472,-653.306 161.346,-654.039 162.127,-654.801 162.815,-655.592 163.408,-656.408 163.906,-657.248 164.309,-658.109 164.617,-658.989 164.832,-659.886 164.956,-660.797 164.989,-661.719 164.934,-662.65 164.794,-663.587 164.571,-664.529 164.269,-665.471 163.89,-666.413 163.439,-667.35 162.918,-668.281 162.332,-669.203 161.685,-670.114 160.981,-671.011 160.223,-671.891 159.415,-672.752 158.561,-673.592 157.666,-674.408 156.732,-675.199 155.764,-675.961 154.764,-676.694 153.737,-677.395 152.684,-678.061 151.61,-678.692 150.516,-679.285 149.405,-679.839 148.28,-680.353 147.142,-680.824 145.994,-681.252 144.837,-681.636 143.672,-681.973 142.501,-682.265 141.325,-682.509 140.145,-682.705 138.963,-682.852 137.779,-682.951 136.593,-683 135.407,-683 134.221,-682.951 133.037,-682.852 131.855,-682.705 130.675,-682.509 129.499,-682.265 128.328,-681.973 127.163,-681.636 126.006,-681.252 124.858,-680.824 123.72,-680.353 122.595,-679.839 121.484,-679.285 120.39,-678.692 119.316,-678.061 118.263,-677.395 117.236,-676.694 116.236,-675.961 115.268,-675.199 114.334,-674.408 113.439,-673.592 112.585,-672.752 111.777,-671.891 111.019,-671.011 110.315,-670.114 109.668,-669.203 109.082,-668.281 108.561,-667.35 108.11,-666.413 107.731,-665.471 107.429,-664.529 107.206,-663.587 107.066,-662.65 107.011,-661.719 107.044,-660.797 107.168,-659.886 107.383,-658.989 107.691,-658.109 108.094,-657.248 108.592,-656.408 109.185,-655.592 109.873,-654.801 110.654,-654.039 111.528,-653.306 112.493,-652.605 113.545,-651.939 114.683,-651.308 115.902,-650.715 117.2,-650.161 118.571,-649.647 120.011,-649.176 121.515,-648.748 123.077,-648.364 124.692,-648.027 126.352,-647.735 128.052,-647.491 129.784,-647.295 131.541,-647.148 133.317,-647.049 135.105,-647 136.895,-647 138.683,-647.049"/>
<text text-anchor="middle" x="136" y="-661.3" font-family="Times New Roman,serif" font-size="14.00">start</text>
</a>
</g>
</g>
<!-- cluster_cluster_cluster_&#45;220212124901982970656214335412117874644487423537040413414&#45;3431188338771875485 -->
<g id="node10" class="node"><title>cluster_cluster_cluster_&#45;220212124901982970656214335412117874644487423537040413414&#45;3431188338771875485</title>
<g id="a_node10"><a xlink:title="error_settings">
<path fill="cyan" stroke="black" d="M222.5,-215C222.5,-215 149.5,-215 149.5,-215 143.5,-215 137.5,-209 137.5,-203 137.5,-203 137.5,-179 137.5,-179 137.5,-173 143.5,-167 149.5,-167 149.5,-167 222.5,-167 222.5,-167 228.5,-167 234.5,-173 234.5,-179 234.5,-179 234.5,-203 234.5,-203 234.5,-209 228.5,-215 222.5,-215"/>
<text text-anchor="start" x="148" y="-197.8" font-family="Times New Roman,serif" font-size="14.00">error_settings</text>
<polygon fill="none" stroke="black" points="146,-171 146,-192 202,-192 202,-171 146,-171"/>
<text text-anchor="start" x="153" y="-177.8" font-family="Times New Roman,serif" font-size="14.00">default=</text>
<polygon fill="none" stroke="black" points="202,-171 202,-192 227,-192 227,-171 202,-171"/>
<text text-anchor="start" x="205" y="-177.8" font-family="Times New Roman,serif" font-size="14.00">{}</text>
</a>
</g>
</g>
<!-- cluster_cluster_cluster_&#45;22021212490198297065621433541211787464448742353704041341477532400&#45;&gt;cluster_cluster_cluster_&#45;220212124901982970656214335412117874644487423537040413414&#45;3431188338771875485 -->
<g id="edge13" class="edge"><title>cluster_cluster_cluster_&#45;22021212490198297065621433541211787464448742353704041341477532400&#45;&gt;cluster_cluster_cluster_&#45;220212124901982970656214335412117874644487423537040413414&#45;3431188338771875485</title>
<path fill="none" stroke="black" d="M146.5,-647.85C146.5,-647.85 146.5,-225.14 146.5,-225.14"/>
<polygon fill="black" stroke="black" points="150,-225.14 146.5,-215.14 143,-225.14 150,-225.14"/>
<polygon fill="none" stroke="black" points="84,-435.995 84,-456.995 134,-456.995 134,-435.995 84,-435.995"/>
<text text-anchor="start" x="87" y="-442.795" font-family="Times New Roman,serif" font-size="14.00">inp_id=</text>
<polygon fill="none" stroke="black" points="134,-435.995 134,-456.995 147,-456.995 147,-435.995 134,-435.995"/>
<text text-anchor="start" x="137" y="-442.795" font-family="Times New Roman,serif" font-size="14.00">0</text>
</g>
<!-- cluster_cluster_cluster_&#45;2202121249019829706562143354121178746444874235370404134144712647501736754553 -->
<g id="node15" class="node"><title>cluster_cluster_cluster_&#45;2202121249019829706562143354121178746444874235370404134144712647501736754553</title>
<g id="a_node15"><a xlink:title="A sequence of data.">
<path fill="cyan" stroke="black" d="M95,-431C95,-431 59,-431 59,-431 53,-431 47,-425 47,-419 47,-419 47,-407 47,-407 47,-401 53,-395 59,-395 59,-395 95,-395 95,-395 101,-395 107,-401 107,-407 107,-407 107,-419 107,-419 107,-425 101,-431 95,-431"/>
<text text-anchor="start" x="57.5" y="-408.8" font-family="Times New Roman,serif" font-size="14.00">wltp_h</text>
</a>
</g>
</g>
<!-- cluster_cluster_cluster_&#45;22021212490198297065621433541211787464448742353704041341477532400&#45;&gt;cluster_cluster_cluster_&#45;2202121249019829706562143354121178746444874235370404134144712647501736754553 -->
<g id="edge14" class="edge"><title>cluster_cluster_cluster_&#45;22021212490198297065621433541211787464448742353704041341477532400&#45;&gt;cluster_cluster_cluster_&#45;2202121249019829706562143354121178746444874235370404134144712647501736754553</title>
<path fill="none" stroke="black" d="M113.5,-651.806C113.5,-599.955 113.5,-413 113.5,-413 113.5,-413 112.864,-413 112.864,-413"/>
<polygon fill="black" stroke="black" points="117.142,-409.5 107.142,-413 117.142,-416.5 117.142,-409.5"/>
<polygon fill="none" stroke="black" points="51,-531.585 51,-552.585 101,-552.585 101,-531.585 51,-531.585"/>
<text text-anchor="start" x="54" y="-538.385" font-family="Times New Roman,serif" font-size="14.00">inp_id=</text>
<polygon fill="none" stroke="black" points="101,-531.585 101,-552.585 114,-552.585 114,-531.585 101,-531.585"/>
<text text-anchor="start" x="104" y="-538.385" font-family="Times New Roman,serif" font-size="14.00">2</text>
</g>
<!-- cluster_cluster_cluster_&#45;220212124901982970656214335412117874644487423537040413414&#45;4779657526738643707 -->
<g id="node16" class="node"><title>cluster_cluster_cluster_&#45;220212124901982970656214335412117874644487423537040413414&#45;4779657526738643707</title>
<g id="a_node16"><a xlink:title="A sequence of data.">
<path fill="cyan" stroke="black" d="M500,-554C500,-554 468,-554 468,-554 462,-554 456,-548 456,-542 456,-542 456,-530 456,-530 456,-524 462,-518 468,-518 468,-518 500,-518 500,-518 506,-518 512,-524 512,-530 512,-530 512,-542 512,-542 512,-548 506,-554 500,-554"/>
<text text-anchor="start" x="466.5" y="-531.8" font-family="Times New Roman,serif" font-size="14.00">wltp_l</text>
</a>
</g>
</g>
<!-- cluster_cluster_cluster_&#45;22021212490198297065621433541211787464448742353704041341477532400&#45;&gt;cluster_cluster_cluster_&#45;220212124901982970656214335412117874644487423537040413414&#45;4779657526738643707 -->
<g id="edge15" class="edge"><title>cluster_cluster_cluster_&#45;22021212490198297065621433541211787464448742353704041341477532400&#45;&gt;cluster_cluster_cluster_&#45;220212124901982970656214335412117874644487423537040413414&#45;4779657526738643707</title>
<path fill="none" stroke="black" d="M155.5,-650.31C155.5,-638.199 155.5,-623 155.5,-623 155.5,-623 484,-623 484,-623 484,-623 484,-564.026 484,-564.026"/>
<polygon fill="black" stroke="black" points="487.5,-564.026 484,-554.026 480.5,-564.026 487.5,-564.026"/>
<polygon fill="none" stroke="black" points="336.082,-622.5 336.082,-643.5 386.082,-643.5 386.082,-622.5 336.082,-622.5"/>
<text text-anchor="start" x="339.082" y="-629.3" font-family="Times New Roman,serif" font-size="14.00">inp_id=</text>
<polygon fill="none" stroke="black" points="386.082,-622.5 386.082,-643.5 399.082,-643.5 399.082,-622.5 386.082,-622.5"/>
<text text-anchor="start" x="389.082" y="-629.3" font-family="Times New Roman,serif" font-size="14.00">1</text>
</g>
<!-- cluster_cluster_cluster_&#45;220212124901982970656214335412117874644487423537040413414&#45;2181095411792409824 -->
<g id="node2" class="node"><title>cluster_cluster_cluster_&#45;220212124901982970656214335412117874644487423537040413414&#45;2181095411792409824</title>
<g id="a_node2"><a xlink:title="A sequence of data.">
<path fill="cyan" stroke="black" d="M350,-359C350,-359 250,-359 250,-359 244,-359 238,-353 238,-347 238,-347 238,-335 238,-335 238,-329 244,-323 250,-323 250,-323 350,-323 350,-323 356,-323 362,-329 362,-335 362,-335 362,-347 362,-347 362,-353 356,-359 350,-359"/>
<text text-anchor="start" x="248.5" y="-336.8" font-family="Times New Roman,serif" font-size="14.00">calibrated_models</text>
</a>
</g>
</g>
<!-- cluster_cluster_cluster_&#45;220212124901982970656214335412117874644487423537040413414&#45;7067757294929678007 -->
<g id="node3" class="node"><title>cluster_cluster_cluster_&#45;220212124901982970656214335412117874644487423537040413414&#45;7067757294929678007</title>
<g id="a_node3"><a xlink:href="./../alternator_model_selector/AM-wltp_h_errors/co2mpas.dispatcher.utils.dspmap_list.txt" xlink:title="Returns a new dict.">
<polygon fill="springgreen" stroke="black" points="108,-287 40,-287 40,-251 108,-251 108,-287"/>
<text text-anchor="start" x="50" y="-264.8" font-family="Times New Roman,serif" font-size="14.00">map_list</text>
</a>
</g>
</g>
<!-- cluster_cluster_cluster_&#45;220212124901982970656214335412117874644487423537040413414&#45;2181095411792409824&#45;&gt;cluster_cluster_cluster_&#45;220212124901982970656214335412117874644487423537040413414&#45;7067757294929678007 -->
<g id="edge1" class="edge"><title>cluster_cluster_cluster_&#45;220212124901982970656214335412117874644487423537040413414&#45;2181095411792409824&#45;&gt;cluster_cluster_cluster_&#45;220212124901982970656214335412117874644487423537040413414&#45;7067757294929678007</title>
<path fill="none" stroke="black" d="M246,-322.831C246,-301.502 246,-269 246,-269 246,-269 118.393,-269 118.393,-269"/>
<polygon fill="black" stroke="black" points="118.393,-265.5 108.393,-269 118.393,-272.5 118.393,-265.5"/>
</g>
<!-- cluster_cluster_cluster_&#45;2202121249019829706562143354121178746444874235370404134144298277636058170859 -->
<g id="node4" class="node"><title>cluster_cluster_cluster_&#45;2202121249019829706562143354121178746444874235370404134144298277636058170859</title>
<g id="a_node4"><a xlink:href="./../alternator_model_selector/AM-wltp_h_errors/co2mpas.dispatcher.utils.dspmap_list.txt" xlink:title="Returns a new dict.">
<polygon fill="springgreen" stroke="black" points="346,-287 254,-287 254,-251 346,-251 346,-287"/>
<text text-anchor="start" x="264.5" y="-264.8" font-family="Times New Roman,serif" font-size="14.00">map_list&lt;0&gt;</text>
</a>
</g>
</g>
<!-- cluster_cluster_cluster_&#45;220212124901982970656214335412117874644487423537040413414&#45;2181095411792409824&#45;&gt;cluster_cluster_cluster_&#45;2202121249019829706562143354121178746444874235370404134144298277636058170859 -->
<g id="edge2" class="edge"><title>cluster_cluster_cluster_&#45;220212124901982970656214335412117874644487423537040413414&#45;2181095411792409824&#45;&gt;cluster_cluster_cluster_&#45;2202121249019829706562143354121178746444874235370404134144298277636058170859</title>
<path fill="none" stroke="black" d="M300,-322.831C300,-322.831 300,-297.413 300,-297.413"/>
<polygon fill="black" stroke="black" points="303.5,-297.413 300,-287.413 296.5,-297.413 303.5,-297.413"/>
</g>
<!-- cluster_cluster_cluster_&#45;2202121249019829706562143354121178746444874235370404134147702748476113788344 -->
<g id="node11" class="node"><title>cluster_cluster_cluster_&#45;2202121249019829706562143354121178746444874235370404134147702748476113788344</title>
<g id="a_node11"><a xlink:title="A unique dict with new values.">
<path fill="cyan" stroke="black" d="M107,-209C107,-209 41,-209 41,-209 35,-209 29,-203 29,-197 29,-197 29,-185 29,-185 29,-179 35,-173 41,-173 41,-173 107,-173 107,-173 113,-173 119,-179 119,-185 119,-185 119,-197 119,-197 119,-203 113,-209 107,-209"/>
<text text-anchor="start" x="39" y="-186.8" font-family="Times New Roman,serif" font-size="14.00">input/wltp_h</text>
</a>
</g>
</g>
<!-- cluster_cluster_cluster_&#45;220212124901982970656214335412117874644487423537040413414&#45;7067757294929678007&#45;&gt;cluster_cluster_cluster_&#45;2202121249019829706562143354121178746444874235370404134147702748476113788344 -->
<g id="edge3" class="edge"><title>cluster_cluster_cluster_&#45;220212124901982970656214335412117874644487423537040413414&#45;7067757294929678007&#45;&gt;cluster_cluster_cluster_&#45;2202121249019829706562143354121178746444874235370404134147702748476113788344</title>
<path fill="none" stroke="black" d="M74,-250.909C74,-250.909 74,-219.263 74,-219.263"/>
<polygon fill="black" stroke="black" points="77.5001,-219.263 74,-209.263 70.5001,-219.263 77.5001,-219.263"/>
</g>
<!-- cluster_cluster_cluster_&#45;2202121249019829706562143354121178746444874235370404134144919105944985796052 -->
<g id="node12" class="node"><title>cluster_cluster_cluster_&#45;2202121249019829706562143354121178746444874235370404134144919105944985796052</title>
<g id="a_node12"><a xlink:title="A unique dict with new values.">
<path fill="cyan" stroke="black" d="M330,-209C330,-209 266,-209 266,-209 260,-209 254,-203 254,-197 254,-197 254,-185 254,-185 254,-179 260,-173 266,-173 266,-173 330,-173 330,-173 336,-173 342,-179 342,-185 342,-185 342,-197 342,-197 342,-203 336,-209 330,-209"/>
<text text-anchor="start" x="264.5" y="-186.8" font-family="Times New Roman,serif" font-size="14.00">input/wltp_l</text>
</a>
</g>
</g>
<!-- cluster_cluster_cluster_&#45;2202121249019829706562143354121178746444874235370404134144298277636058170859&#45;&gt;cluster_cluster_cluster_&#45;2202121249019829706562143354121178746444874235370404134144919105944985796052 -->
<g id="edge4" class="edge"><title>cluster_cluster_cluster_&#45;2202121249019829706562143354121178746444874235370404134144298277636058170859&#45;&gt;cluster_cluster_cluster_&#45;2202121249019829706562143354121178746444874235370404134144919105944985796052</title>
<path fill="none" stroke="black" d="M298,-250.909C298,-250.909 298,-219.263 298,-219.263"/>
<polygon fill="black" stroke="black" points="301.5,-219.263 298,-209.263 294.5,-219.263 301.5,-219.263"/>
</g>
<!-- cluster_cluster_cluster_&#45;220212124901982970656214335412117874644487423537040413414&#45;5394324967932730695 -->
<g id="node5" class="node"><title>cluster_cluster_cluster_&#45;220212124901982970656214335412117874644487423537040413414&#45;5394324967932730695</title>
<g id="a_node5"><a xlink:href="./ESM-wltp_l_errors/ESM-wltp_l_error_vs_wltp_h.gv.svg" xlink:title="Calculates the error of calibrated model of a reference.">
<polygon fill="yellow" stroke="black" points="172,-131 0,-131 0,-95 178,-95 178,-125 172,-131"/>
<polyline fill="none" stroke="black" points="172,-131 172,-125 "/>
<polyline fill="none" stroke="black" points="178,-125 172,-125 "/>
<text text-anchor="start" x="10.5" y="-108.8" font-family="Times New Roman,serif" font-size="14.00">ESM&#45;wltp_l error vs wltp_h</text>
</a>
</g>
</g>
<!-- cluster_cluster_cluster_&#45;220212124901982970656214335412117874644487423537040413414&#45;2427563387242055365 -->
<g id="node8" class="node"><title>cluster_cluster_cluster_&#45;220212124901982970656214335412117874644487423537040413414&#45;2427563387242055365</title>
<g id="a_node8"><a xlink:title="error/wltp_h">
<path fill="cyan" stroke="black" d="M122,-59C122,-59 56,-59 56,-59 50,-59 44,-53 44,-47 44,-47 44,-35 44,-35 44,-29 50,-23 56,-23 56,-23 122,-23 122,-23 128,-23 134,-29 134,-35 134,-35 134,-47 134,-47 134,-53 128,-59 122,-59"/>
<text text-anchor="start" x="54" y="-36.8" font-family="Times New Roman,serif" font-size="14.00">error/wltp_h</text>
</a>
</g>
</g>
<!-- cluster_cluster_cluster_&#45;220212124901982970656214335412117874644487423537040413414&#45;5394324967932730695&#45;&gt;cluster_cluster_cluster_&#45;220212124901982970656214335412117874644487423537040413414&#45;2427563387242055365 -->
<g id="edge5" class="edge"><title>cluster_cluster_cluster_&#45;220212124901982970656214335412117874644487423537040413414&#45;5394324967932730695&#45;&gt;cluster_cluster_cluster_&#45;220212124901982970656214335412117874644487423537040413414&#45;2427563387242055365</title>
<path fill="none" stroke="black" d="M89,-94.8314C89,-94.8314 89,-69.4133 89,-69.4133"/>
<polygon fill="black" stroke="black" points="92.5001,-69.4132 89,-59.4133 85.5001,-69.4133 92.5001,-69.4132"/>
</g>
<!-- cluster_cluster_cluster_&#45;220212124901982970656214335412117874644487423537040413414&#45;2008554569736104303 -->
<g id="node6" class="node"><title>cluster_cluster_cluster_&#45;220212124901982970656214335412117874644487423537040413414&#45;2008554569736104303</title>
<g id="a_node6"><a xlink:href="./ESM-wltp_l_errors/ESM-wltp_l_error_vs_wltp_l.gv.svg" xlink:title="Calculates the error of calibrated model of a reference.">
<polygon fill="yellow" stroke="black" points="371,-131 203,-131 203,-95 377,-95 377,-125 371,-131"/>
<polyline fill="none" stroke="black" points="371,-131 371,-125 "/>
<polyline fill="none" stroke="black" points="377,-125 371,-125 "/>
<text text-anchor="start" x="213" y="-108.8" font-family="Times New Roman,serif" font-size="14.00">ESM&#45;wltp_l error vs wltp_l</text>
</a>
</g>
</g>
<!-- cluster_cluster_cluster_&#45;220212124901982970656214335412117874644487423537040413414&#45;7302022848986384642 -->
<g id="node9" class="node"><title>cluster_cluster_cluster_&#45;220212124901982970656214335412117874644487423537040413414&#45;7302022848986384642</title>
<g id="a_node9"><a xlink:title="error/wltp_l">
<path fill="cyan" stroke="black" d="M321,-59C321,-59 259,-59 259,-59 253,-59 247,-53 247,-47 247,-47 247,-35 247,-35 247,-29 253,-23 259,-23 259,-23 321,-23 321,-23 327,-23 333,-29 333,-35 333,-35 333,-47 333,-47 333,-53 327,-59 321,-59"/>
<text text-anchor="start" x="257" y="-36.8" font-family="Times New Roman,serif" font-size="14.00">error/wltp_l</text>
</a>
</g>
</g>
<!-- cluster_cluster_cluster_&#45;220212124901982970656214335412117874644487423537040413414&#45;2008554569736104303&#45;&gt;cluster_cluster_cluster_&#45;220212124901982970656214335412117874644487423537040413414&#45;7302022848986384642 -->
<g id="edge6" class="edge"><title>cluster_cluster_cluster_&#45;220212124901982970656214335412117874644487423537040413414&#45;2008554569736104303&#45;&gt;cluster_cluster_cluster_&#45;220212124901982970656214335412117874644487423537040413414&#45;7302022848986384642</title>
<path fill="none" stroke="black" d="M290,-94.8314C290,-94.8314 290,-69.4133 290,-69.4133"/>
<polygon fill="black" stroke="black" points="293.5,-69.4132 290,-59.4133 286.5,-69.4133 293.5,-69.4132"/>
</g>
<!-- cluster_cluster_cluster_&#45;220212124901982970656214335412117874644487423537040413414&#45;1177382896934224609 -->
<g id="node7" class="node"><title>cluster_cluster_cluster_&#45;220212124901982970656214335412117874644487423537040413414&#45;1177382896934224609</title>
<g id="a_node7"><a xlink:title="data_in">
<path fill="cyan" stroke="black" d="M279.5,-689C279.5,-689 194.5,-689 194.5,-689 188.5,-689 182.5,-683 182.5,-677 182.5,-677 182.5,-653 182.5,-653 182.5,-647 188.5,-641 194.5,-641 194.5,-641 279.5,-641 279.5,-641 285.5,-641 291.5,-647 291.5,-653 291.5,-653 291.5,-677 291.5,-677 291.5,-683 285.5,-689 279.5,-689"/>
<text text-anchor="start" x="217" y="-671.8" font-family="Times New Roman,serif" font-size="14.00">data_in</text>
<polygon fill="none" stroke="black" points="191,-645 191,-666 243,-666 243,-645 191,-645"/>
<text text-anchor="start" x="194" y="-651.8" font-family="Times New Roman,serif" font-size="14.00">default=</text>
<polygon fill="none" stroke="black" points="243,-645 243,-666 284,-666 284,-645 243,-645"/>
<text text-anchor="start" x="246" y="-651.8" font-family="Times New Roman,serif" font-size="14.00">wltp_l</text>
</a>
</g>
</g>
<!-- cluster_cluster_cluster_&#45;220212124901982970656214335412117874644487423537040413414&#45;3431188338771875485&#45;&gt;cluster_cluster_cluster_&#45;220212124901982970656214335412117874644487423537040413414&#45;5394324967932730695 -->
<g id="edge7" class="edge"><title>cluster_cluster_cluster_&#45;220212124901982970656214335412117874644487423537040413414&#45;3431188338771875485&#45;&gt;cluster_cluster_cluster_&#45;220212124901982970656214335412117874644487423537040413414&#45;5394324967932730695</title>
<path fill="none" stroke="black" d="M157.75,-166.748C157.75,-166.748 157.75,-141.288 157.75,-141.288"/>
<polygon fill="black" stroke="black" points="161.25,-141.287 157.75,-131.288 154.25,-141.288 161.25,-141.287"/>
</g>
<!-- cluster_cluster_cluster_&#45;220212124901982970656214335412117874644487423537040413414&#45;3431188338771875485&#45;&gt;cluster_cluster_cluster_&#45;220212124901982970656214335412117874644487423537040413414&#45;2008554569736104303 -->
<g id="edge8" class="edge"><title>cluster_cluster_cluster_&#45;220212124901982970656214335412117874644487423537040413414&#45;3431188338771875485&#45;&gt;cluster_cluster_cluster_&#45;220212124901982970656214335412117874644487423537040413414&#45;2008554569736104303</title>
<path fill="none" stroke="black" d="M218.75,-166.748C218.75,-166.748 218.75,-141.288 218.75,-141.288"/>
<polygon fill="black" stroke="black" points="222.25,-141.287 218.75,-131.288 215.25,-141.288 222.25,-141.287"/>
</g>
<!-- cluster_cluster_cluster_&#45;2202121249019829706562143354121178746444874235370404134147702748476113788344&#45;&gt;cluster_cluster_cluster_&#45;220212124901982970656214335412117874644487423537040413414&#45;5394324967932730695 -->
<g id="edge9" class="edge"><title>cluster_cluster_cluster_&#45;2202121249019829706562143354121178746444874235370404134147702748476113788344&#45;&gt;cluster_cluster_cluster_&#45;220212124901982970656214335412117874644487423537040413414&#45;5394324967932730695</title>
<path fill="none" stroke="black" d="M74,-172.909C74,-172.909 74,-141.263 74,-141.263"/>
<polygon fill="black" stroke="black" points="77.5001,-141.263 74,-131.263 70.5001,-141.263 77.5001,-141.263"/>
</g>
<!-- cluster_cluster_cluster_&#45;2202121249019829706562143354121178746444874235370404134144919105944985796052&#45;&gt;cluster_cluster_cluster_&#45;220212124901982970656214335412117874644487423537040413414&#45;2008554569736104303 -->
<g id="edge10" class="edge"><title>cluster_cluster_cluster_&#45;2202121249019829706562143354121178746444874235370404134144919105944985796052&#45;&gt;cluster_cluster_cluster_&#45;220212124901982970656214335412117874644487423537040413414&#45;2008554569736104303</title>
<path fill="none" stroke="black" d="M298,-172.909C298,-172.909 298,-141.263 298,-141.263"/>
<polygon fill="black" stroke="black" points="301.5,-141.263 298,-131.263 294.5,-141.263 301.5,-141.263"/>
</g>
<!-- cluster_cluster_cluster_&#45;220212124901982970656214335412117874644487423537040413414&#45;3274255707223734200 -->
<g id="node13" class="node"><title>cluster_cluster_cluster_&#45;220212124901982970656214335412117874644487423537040413414&#45;3274255707223734200</title>
<g id="a_node13"><a xlink:title="models">
<path fill="cyan" stroke="black" d="M425.5,-605C425.5,-605 176.5,-605 176.5,-605 170.5,-605 164.5,-599 164.5,-593 164.5,-593 164.5,-479 164.5,-479 164.5,-473 170.5,-467 176.5,-467 176.5,-467 425.5,-467 425.5,-467 431.5,-467 437.5,-473 437.5,-479 437.5,-479 437.5,-593 437.5,-593 437.5,-599 431.5,-605 425.5,-605"/>
<text text-anchor="start" x="281" y="-587.8" font-family="Times New Roman,serif" font-size="14.00">models</text>
<polygon fill="none" stroke="black" points="173,-471 173,-582 225,-582 225,-471 173,-471"/>
<text text-anchor="start" x="176" y="-522.8" font-family="Times New Roman,serif" font-size="14.00">default=</text>
<polygon fill="none" stroke="black" points="225,-471 225,-582 430,-582 430,-471 225,-471"/>
<text text-anchor="start" x="274.5" y="-567.8" font-family="Times New Roman,serif" font-size="14.00">[&#39;final_drive_ratio&#39;,</text>
<text text-anchor="start" x="275" y="-552.8" font-family="Times New Roman,serif" font-size="14.00"> &#39;gear_box_ratios&#39;,</text>
<text text-anchor="start" x="245.5" y="-537.8" font-family="Times New Roman,serif" font-size="14.00"> &#39;idle_engine_speed_median&#39;,</text>
<text text-anchor="start" x="256.5" y="-522.8" font-family="Times New Roman,serif" font-size="14.00"> &#39;idle_engine_speed_std&#39;,</text>
<text text-anchor="start" x="306" y="-507.8" font-family="Times New Roman,serif" font-size="14.00"> &#39;CVT&#39;,</text>
<text text-anchor="start" x="247" y="-492.8" font-family="Times New Roman,serif" font-size="14.00"> &#39;max_speed_velocity_ratio&#39;,</text>
<text text-anchor="start" x="228" y="-477.8" font-family="Times New Roman,serif" font-size="14.00"> &#39;tyre_dynamic_rolling_coefficient&#39;]</text>
</a>
</g>
</g>
<!-- cluster_cluster_cluster_&#45;220212124901982970656214335412117874644487423537040413414&#45;8800720961443810657 -->
<g id="node14" class="node"><title>cluster_cluster_cluster_&#45;220212124901982970656214335412117874644487423537040413414&#45;8800720961443810657</title>
<g id="a_node14"><a xlink:href="./ESM-wltp_h_errors/select_models.txt" xlink:title="select_models">
<polygon fill="springgreen" stroke="black" points="351,-431 251,-431 251,-395 351,-395 351,-431"/>
<text text-anchor="start" x="261" y="-408.8" font-family="Times New Roman,serif" font-size="14.00">select_models</text>
</a>
</g>
</g>
<!-- cluster_cluster_cluster_&#45;220212124901982970656214335412117874644487423537040413414&#45;3274255707223734200&#45;&gt;cluster_cluster_cluster_&#45;220212124901982970656214335412117874644487423537040413414&#45;8800720961443810657 -->
<g id="edge11" class="edge"><title>cluster_cluster_cluster_&#45;220212124901982970656214335412117874644487423537040413414&#45;3274255707223734200&#45;&gt;cluster_cluster_cluster_&#45;220212124901982970656214335412117874644487423537040413414&#45;8800720961443810657</title>
<path fill="none" stroke="black" d="M301,-466.95C301,-466.95 301,-441.373 301,-441.373"/>
<polygon fill="black" stroke="black" points="304.5,-441.373 301,-431.373 297.5,-441.373 304.5,-441.373"/>
</g>
<!-- cluster_cluster_cluster_&#45;220212124901982970656214335412117874644487423537040413414&#45;8800720961443810657&#45;&gt;cluster_cluster_cluster_&#45;220212124901982970656214335412117874644487423537040413414&#45;2181095411792409824 -->
<g id="edge12" class="edge"><title>cluster_cluster_cluster_&#45;220212124901982970656214335412117874644487423537040413414&#45;8800720961443810657&#45;&gt;cluster_cluster_cluster_&#45;220212124901982970656214335412117874644487423537040413414&#45;2181095411792409824</title>
<path fill="none" stroke="black" d="M301,-394.831C301,-394.831 301,-369.413 301,-369.413"/>
<polygon fill="black" stroke="black" points="304.5,-369.413 301,-359.413 297.5,-369.413 304.5,-369.413"/>
</g>
<!-- cluster_cluster_cluster_&#45;2202121249019829706562143354121178746444874235370404134144712647501736754553&#45;&gt;cluster_cluster_cluster_&#45;220212124901982970656214335412117874644487423537040413414&#45;7067757294929678007 -->
<g id="edge16" class="edge"><title>cluster_cluster_cluster_&#45;2202121249019829706562143354121178746444874235370404134144712647501736754553&#45;&gt;cluster_cluster_cluster_&#45;220212124901982970656214335412117874644487423537040413414&#45;7067757294929678007</title>
<path fill="none" stroke="black" d="M77,-394.762C77,-394.762 77,-297.09 77,-297.09"/>
<polygon fill="black" stroke="black" points="80.5001,-297.09 77,-287.09 73.5001,-297.09 80.5001,-297.09"/>
</g>
<!-- cluster_cluster_cluster_&#45;220212124901982970656214335412117874644487423537040413414&#45;4779657526738643707&#45;&gt;cluster_cluster_cluster_&#45;2202121249019829706562143354121178746444874235370404134144298277636058170859 -->
<g id="edge17" class="edge"><title>cluster_cluster_cluster_&#45;220212124901982970656214335412117874644487423537040413414&#45;4779657526738643707&#45;&gt;cluster_cluster_cluster_&#45;2202121249019829706562143354121178746444874235370404134144298277636058170859</title>
<path fill="none" stroke="black" d="M493.333,-517.648C493.333,-457.325 493.333,-269 493.333,-269 493.333,-269 356.308,-269 356.308,-269"/>
<polygon fill="black" stroke="black" points="356.308,-265.5 346.308,-269 356.308,-272.5 356.308,-265.5"/>
</g>
<!-- cluster_cluster_cluster_&#45;220212124901982970656214335412117874644487423537040413414&#45;4779657526738643707&#45;&gt;cluster_cluster_cluster_&#45;220212124901982970656214335412117874644487423537040413414&#45;8800720961443810657 -->
<g id="edge18" class="edge"><title>cluster_cluster_cluster_&#45;220212124901982970656214335412117874644487423537040413414&#45;4779657526738643707&#45;&gt;cluster_cluster_cluster_&#45;220212124901982970656214335412117874644487423537040413414&#45;8800720961443810657</title>
<path fill="none" stroke="black" d="M474.667,-517.851C474.667,-483.636 474.667,-413 474.667,-413 474.667,-413 361.232,-413 361.232,-413"/>
<polygon fill="black" stroke="black" points="361.232,-409.5 351.232,-413 361.232,-416.5 361.232,-409.5"/>
</g>
</g>
</svg>
