<?xml version="1.0" encoding="UTF-8" standalone="no"?>
<!DOCTYPE svg PUBLIC "-//W3C//DTD SVG 1.1//EN"
 "http://www.w3.org/Graphics/SVG/1.1/DTD/svg11.dtd">
<!-- Generated by graphviz version 2.38.0 (20140413.2041)
 -->
<!-- Title: cluster_ESM&#45;wltp_h errors Pages: 1 -->
<svg width="537pt" height="697pt"
 viewBox="0.00 0.00 537.00 697.00" xmlns="http://www.w3.org/2000/svg" xmlns:xlink="http://www.w3.org/1999/xlink">
<g id="graph0" class="graph" transform="scale(1 1) rotate(0) translate(4 693)">
<title>cluster_ESM&#45;wltp_h errors</title>
<polygon fill="white" stroke="none" points="-4,4 -4,-693 533,-693 533,4 -4,4"/>
<text text-anchor="start" x="210" y="-7.8" font-family="Times New Roman,serif" font-size="14.00">ESM&#45;wltp_h errors</text>
<!-- cluster_cluster_cluster_&#45;22021212490198297065621433541211787464&#45;569056499975895152177532400 -->
<g id="node1" class="node"><title>cluster_cluster_cluster_&#45;22021212490198297065621433541211787464&#45;569056499975895152177532400</title>
<g id="a_node1"><a xlink:title="start">
<polygon fill="red" stroke="black" points="151.683,-647.049 153.459,-647.148 155.216,-647.295 156.948,-647.491 158.648,-647.735 160.308,-648.027 161.923,-648.364 163.485,-648.748 164.989,-649.176 166.429,-649.647 167.8,-650.161 169.098,-650.715 170.317,-651.308 171.455,-651.939 172.507,-652.605 173.472,-653.306 174.346,-654.039 175.127,-654.801 175.815,-655.592 176.408,-656.408 176.906,-657.248 177.309,-658.109 177.617,-658.989 177.832,-659.886 177.956,-660.797 177.989,-661.719 177.934,-662.65 177.794,-663.587 177.571,-664.529 177.269,-665.471 176.89,-666.413 176.439,-667.35 175.918,-668.281 175.332,-669.203 174.685,-670.114 173.981,-671.011 173.223,-671.891 172.415,-672.752 171.561,-673.592 170.666,-674.408 169.732,-675.199 168.764,-675.961 167.764,-676.694 166.737,-677.395 165.684,-678.061 164.61,-678.692 163.516,-679.285 162.405,-679.839 161.28,-680.353 160.142,-680.824 158.994,-681.252 157.837,-681.636 156.672,-681.973 155.501,-682.265 154.325,-682.509 153.145,-682.705 151.963,-682.852 150.779,-682.951 149.593,-683 148.407,-683 147.221,-682.951 146.037,-682.852 144.855,-682.705 143.675,-682.509 142.499,-682.265 141.328,-681.973 140.163,-681.636 139.006,-681.252 137.858,-680.824 136.72,-680.353 135.595,-679.839 134.484,-679.285 133.39,-678.692 132.316,-678.061 131.263,-677.395 130.236,-676.694 129.236,-675.961 128.268,-675.199 127.334,-674.408 126.439,-673.592 125.585,-672.752 124.777,-671.891 124.019,-671.011 123.315,-670.114 122.668,-669.203 122.082,-668.281 121.561,-667.35 121.11,-666.413 120.731,-665.471 120.429,-664.529 120.206,-663.587 120.066,-662.65 120.011,-661.719 120.044,-660.797 120.168,-659.886 120.383,-658.989 120.691,-658.109 121.094,-657.248 121.592,-656.408 122.185,-655.592 122.873,-654.801 123.654,-654.039 124.528,-653.306 125.493,-652.605 126.545,-651.939 127.683,-651.308 128.902,-650.715 130.2,-650.161 131.571,-649.647 133.011,-649.176 134.515,-648.748 136.077,-648.364 137.692,-648.027 139.352,-647.735 141.052,-647.491 142.784,-647.295 144.541,-647.148 146.317,-647.049 148.105,-647 149.895,-647 151.683,-647.049"/>
<text text-anchor="middle" x="149" y="-661.3" font-family="Times New Roman,serif" font-size="14.00">start</text>
</a>
</g>
</g>
<!-- cluster_cluster_cluster_&#45;22021212490198297065621433541211787464&#45;5690564999758951521&#45;3431188338771875485 -->
<g id="node10" class="node"><title>cluster_cluster_cluster_&#45;22021212490198297065621433541211787464&#45;5690564999758951521&#45;3431188338771875485</title>
<g id="a_node10"><a xlink:title="error_settings">
<path fill="cyan" stroke="black" d="M222.5,-215C222.5,-215 149.5,-215 149.5,-215 143.5,-215 137.5,-209 137.5,-203 137.5,-203 137.5,-179 137.5,-179 137.5,-173 143.5,-167 149.5,-167 149.5,-167 222.5,-167 222.5,-167 228.5,-167 234.5,-173 234.5,-179 234.5,-179 234.5,-203 234.5,-203 234.5,-209 228.5,-215 222.5,-215"/>
<text text-anchor="start" x="148" y="-197.8" font-family="Times New Roman,serif" font-size="14.00">error_settings</text>
<polygon fill="none" stroke="black" points="146,-171 146,-192 202,-192 202,-171 146,-171"/>
<text text-anchor="start" x="153" y="-177.8" font-family="Times New Roman,serif" font-size="14.00">default=</text>
<polygon fill="none" stroke="black" points="202,-171 202,-192 227,-192 227,-171 202,-171"/>
<text text-anchor="start" x="205" y="-177.8" font-family="Times New Roman,serif" font-size="14.00">{}</text>
</a>
</g>
</g>
<!-- cluster_cluster_cluster_&#45;22021212490198297065621433541211787464&#45;569056499975895152177532400&#45;&gt;cluster_cluster_cluster_&#45;22021212490198297065621433541211787464&#45;5690564999758951521&#45;3431188338771875485 -->
<g id="edge13" class="edge"><title>cluster_cluster_cluster_&#45;22021212490198297065621433541211787464&#45;569056499975895152177532400&#45;&gt;cluster_cluster_cluster_&#45;22021212490198297065621433541211787464&#45;5690564999758951521&#45;3431188338771875485</title>
<path fill="none" stroke="black" d="M150.833,-646.997C150.833,-646.997 150.833,-225.278 150.833,-225.278"/>
<polygon fill="black" stroke="black" points="154.333,-225.278 150.833,-215.278 147.333,-225.278 154.333,-225.278"/>
<polygon fill="none" stroke="black" points="88.3333,-435.638 88.3333,-456.638 138.333,-456.638 138.333,-435.638 88.3333,-435.638"/>
<text text-anchor="start" x="91.3333" y="-442.438" font-family="Times New Roman,serif" font-size="14.00">inp_id=</text>
<polygon fill="none" stroke="black" points="138.333,-435.638 138.333,-456.638 151.333,-456.638 151.333,-435.638 138.333,-435.638"/>
<text text-anchor="start" x="141.333" y="-442.438" font-family="Times New Roman,serif" font-size="14.00">0</text>
</g>
<!-- cluster_cluster_cluster_&#45;22021212490198297065621433541211787464&#45;56905649997589515214712647501736754553 -->
<g id="node15" class="node"><title>cluster_cluster_cluster_&#45;22021212490198297065621433541211787464&#45;56905649997589515214712647501736754553</title>
<g id="a_node15"><a xlink:title="A sequence of data.">
<path fill="cyan" stroke="black" d="M517,-554C517,-554 481,-554 481,-554 475,-554 469,-548 469,-542 469,-542 469,-530 469,-530 469,-524 475,-518 481,-518 481,-518 517,-518 517,-518 523,-518 529,-524 529,-530 529,-530 529,-542 529,-542 529,-548 523,-554 517,-554"/>
<text text-anchor="start" x="479.5" y="-531.8" font-family="Times New Roman,serif" font-size="14.00">wltp_h</text>
</a>
</g>
</g>
<!-- cluster_cluster_cluster_&#45;22021212490198297065621433541211787464&#45;569056499975895152177532400&#45;&gt;cluster_cluster_cluster_&#45;22021212490198297065621433541211787464&#45;56905649997589515214712647501736754553 -->
<g id="edge14" class="edge"><title>cluster_cluster_cluster_&#45;22021212490198297065621433541211787464&#45;569056499975895152177532400&#45;&gt;cluster_cluster_cluster_&#45;22021212490198297065621433541211787464&#45;56905649997589515214712647501736754553</title>
<path fill="none" stroke="black" d="M164.167,-648.882C164.167,-637.038 164.167,-623 164.167,-623 164.167,-623 499,-623 499,-623 499,-623 499,-564.026 499,-564.026"/>
<polygon fill="black" stroke="black" points="502.5,-564.026 499,-554.026 495.5,-564.026 502.5,-564.026"/>
<polygon fill="none" stroke="black" points="348.629,-622.5 348.629,-643.5 398.629,-643.5 398.629,-622.5 348.629,-622.5"/>
<text text-anchor="start" x="351.629" y="-629.3" font-family="Times New Roman,serif" font-size="14.00">inp_id=</text>
<polygon fill="none" stroke="black" points="398.629,-622.5 398.629,-643.5 411.629,-643.5 411.629,-622.5 398.629,-622.5"/>
<text text-anchor="start" x="401.629" y="-629.3" font-family="Times New Roman,serif" font-size="14.00">1</text>
</g>
<!-- cluster_cluster_cluster_&#45;22021212490198297065621433541211787464&#45;5690564999758951521&#45;4779657526738643707 -->
<g id="node16" class="node"><title>cluster_cluster_cluster_&#45;22021212490198297065621433541211787464&#45;5690564999758951521&#45;4779657526738643707</title>
<g id="a_node16"><a xlink:title="A sequence of data.">
<path fill="cyan" stroke="black" d="M105,-431C105,-431 73,-431 73,-431 67,-431 61,-425 61,-419 61,-419 61,-407 61,-407 61,-401 67,-395 73,-395 73,-395 105,-395 105,-395 111,-395 117,-401 117,-407 117,-407 117,-419 117,-419 117,-425 111,-431 105,-431"/>
<text text-anchor="start" x="71.5" y="-408.8" font-family="Times New Roman,serif" font-size="14.00">wltp_l</text>
</a>
</g>
</g>
<!-- cluster_cluster_cluster_&#45;22021212490198297065621433541211787464&#45;569056499975895152177532400&#45;&gt;cluster_cluster_cluster_&#45;22021212490198297065621433541211787464&#45;5690564999758951521&#45;4779657526738643707 -->
<g id="edge15" class="edge"><title>cluster_cluster_cluster_&#45;22021212490198297065621433541211787464&#45;569056499975895152177532400&#45;&gt;cluster_cluster_cluster_&#45;22021212490198297065621433541211787464&#45;5690564999758951521&#45;4779657526738643707</title>
<path fill="none" stroke="black" d="M129.25,-650.362C129.25,-596.579 129.25,-413 129.25,-413 129.25,-413 127.391,-413 127.391,-413"/>
<polygon fill="black" stroke="black" points="127.391,-409.5 117.391,-413 127.391,-416.5 127.391,-409.5"/>
<polygon fill="none" stroke="black" points="66.75,-530.252 66.75,-551.252 116.75,-551.252 116.75,-530.252 66.75,-530.252"/>
<text text-anchor="start" x="69.75" y="-537.052" font-family="Times New Roman,serif" font-size="14.00">inp_id=</text>
<polygon fill="none" stroke="black" points="116.75,-530.252 116.75,-551.252 129.75,-551.252 129.75,-530.252 116.75,-530.252"/>
<text text-anchor="start" x="119.75" y="-537.052" font-family="Times New Roman,serif" font-size="14.00">2</text>
</g>
<!-- cluster_cluster_cluster_&#45;22021212490198297065621433541211787464&#45;5690564999758951521&#45;2181095411792409824 -->
<g id="node2" class="node"><title>cluster_cluster_cluster_&#45;22021212490198297065621433541211787464&#45;5690564999758951521&#45;2181095411792409824</title>
<g id="a_node2"><a xlink:title="A sequence of data.">
<path fill="cyan" stroke="black" d="M357,-359C357,-359 257,-359 257,-359 251,-359 245,-353 245,-347 245,-347 245,-335 245,-335 245,-329 251,-323 257,-323 257,-323 357,-323 357,-323 363,-323 369,-329 369,-335 369,-335 369,-347 369,-347 369,-353 363,-359 357,-359"/>
<text text-anchor="start" x="255.5" y="-336.8" font-family="Times New Roman,serif" font-size="14.00">calibrated_models</text>
</a>
</g>
</g>
<!-- cluster_cluster_cluster_&#45;22021212490198297065621433541211787464&#45;5690564999758951521&#45;7067757294929678007 -->
<g id="node3" class="node"><title>cluster_cluster_cluster_&#45;22021212490198297065621433541211787464&#45;5690564999758951521&#45;7067757294929678007</title>
<g id="a_node3"><a xlink:href="./../alternator_model_selector/AM-wltp_h_errors/co2mpas.dispatcher.utils.dspmap_list.txt" xlink:title="Returns a new dict.">
<polygon fill="springgreen" stroke="black" points="341,-287 273,-287 273,-251 341,-251 341,-287"/>
<text text-anchor="start" x="283" y="-264.8" font-family="Times New Roman,serif" font-size="14.00">map_list</text>
</a>
</g>
</g>
<!-- cluster_cluster_cluster_&#45;22021212490198297065621433541211787464&#45;5690564999758951521&#45;2181095411792409824&#45;&gt;cluster_cluster_cluster_&#45;22021212490198297065621433541211787464&#45;5690564999758951521&#45;7067757294929678007 -->
<g id="edge1" class="edge"><title>cluster_cluster_cluster_&#45;22021212490198297065621433541211787464&#45;5690564999758951521&#45;2181095411792409824&#45;&gt;cluster_cluster_cluster_&#45;22021212490198297065621433541211787464&#45;5690564999758951521&#45;7067757294929678007</title>
<path fill="none" stroke="black" d="M307,-322.831C307,-322.831 307,-297.413 307,-297.413"/>
<polygon fill="black" stroke="black" points="310.5,-297.413 307,-287.413 303.5,-297.413 310.5,-297.413"/>
</g>
<!-- cluster_cluster_cluster_&#45;22021212490198297065621433541211787464&#45;56905649997589515214298277636058170859 -->
<g id="node4" class="node"><title>cluster_cluster_cluster_&#45;22021212490198297065621433541211787464&#45;56905649997589515214298277636058170859</title>
<g id="a_node4"><a xlink:href="./../alternator_model_selector/AM-wltp_h_errors/co2mpas.dispatcher.utils.dspmap_list.txt" xlink:title="Returns a new dict.">
<polygon fill="springgreen" stroke="black" points="121,-287 29,-287 29,-251 121,-251 121,-287"/>
<text text-anchor="start" x="39.5" y="-264.8" font-family="Times New Roman,serif" font-size="14.00">map_list&lt;0&gt;</text>
</a>
</g>
</g>
<!-- cluster_cluster_cluster_&#45;22021212490198297065621433541211787464&#45;5690564999758951521&#45;2181095411792409824&#45;&gt;cluster_cluster_cluster_&#45;22021212490198297065621433541211787464&#45;56905649997589515214298277636058170859 -->
<g id="edge2" class="edge"><title>cluster_cluster_cluster_&#45;22021212490198297065621433541211787464&#45;5690564999758951521&#45;2181095411792409824&#45;&gt;cluster_cluster_cluster_&#45;22021212490198297065621433541211787464&#45;56905649997589515214298277636058170859</title>
<path fill="none" stroke="black" d="M251.5,-322.831C251.5,-301.502 251.5,-269 251.5,-269 251.5,-269 131.373,-269 131.373,-269"/>
<polygon fill="black" stroke="black" points="131.373,-265.5 121.373,-269 131.373,-272.5 131.373,-265.5"/>
</g>
<!-- cluster_cluster_cluster_&#45;22021212490198297065621433541211787464&#45;56905649997589515217702748476113788344 -->
<g id="node11" class="node"><title>cluster_cluster_cluster_&#45;22021212490198297065621433541211787464&#45;56905649997589515217702748476113788344</title>
<g id="a_node11"><a xlink:title="A unique dict with new values.">
<path fill="cyan" stroke="black" d="M336,-209C336,-209 270,-209 270,-209 264,-209 258,-203 258,-197 258,-197 258,-185 258,-185 258,-179 264,-173 270,-173 270,-173 336,-173 336,-173 342,-173 348,-179 348,-185 348,-185 348,-197 348,-197 348,-203 342,-209 336,-209"/>
<text text-anchor="start" x="268" y="-186.8" font-family="Times New Roman,serif" font-size="14.00">input/wltp_h</text>
</a>
</g>
</g>
<!-- cluster_cluster_cluster_&#45;22021212490198297065621433541211787464&#45;5690564999758951521&#45;7067757294929678007&#45;&gt;cluster_cluster_cluster_&#45;22021212490198297065621433541211787464&#45;56905649997589515217702748476113788344 -->
<g id="edge3" class="edge"><title>cluster_cluster_cluster_&#45;22021212490198297065621433541211787464&#45;5690564999758951521&#45;7067757294929678007&#45;&gt;cluster_cluster_cluster_&#45;22021212490198297065621433541211787464&#45;56905649997589515217702748476113788344</title>
<path fill="none" stroke="black" d="M307,-250.909C307,-250.909 307,-219.263 307,-219.263"/>
<polygon fill="black" stroke="black" points="310.5,-219.263 307,-209.263 303.5,-219.263 310.5,-219.263"/>
</g>
<!-- cluster_cluster_cluster_&#45;22021212490198297065621433541211787464&#45;56905649997589515214919105944985796052 -->
<g id="node12" class="node"><title>cluster_cluster_cluster_&#45;22021212490198297065621433541211787464&#45;56905649997589515214919105944985796052</title>
<g id="a_node12"><a xlink:title="A unique dict with new values.">
<path fill="cyan" stroke="black" d="M107,-209C107,-209 43,-209 43,-209 37,-209 31,-203 31,-197 31,-197 31,-185 31,-185 31,-179 37,-173 43,-173 43,-173 107,-173 107,-173 113,-173 119,-179 119,-185 119,-185 119,-197 119,-197 119,-203 113,-209 107,-209"/>
<text text-anchor="start" x="41.5" y="-186.8" font-family="Times New Roman,serif" font-size="14.00">input/wltp_l</text>
</a>
</g>
</g>
<!-- cluster_cluster_cluster_&#45;22021212490198297065621433541211787464&#45;56905649997589515214298277636058170859&#45;&gt;cluster_cluster_cluster_&#45;22021212490198297065621433541211787464&#45;56905649997589515214919105944985796052 -->
<g id="edge4" class="edge"><title>cluster_cluster_cluster_&#45;22021212490198297065621433541211787464&#45;56905649997589515214298277636058170859&#45;&gt;cluster_cluster_cluster_&#45;22021212490198297065621433541211787464&#45;56905649997589515214919105944985796052</title>
<path fill="none" stroke="black" d="M75,-250.909C75,-250.909 75,-219.263 75,-219.263"/>
<polygon fill="black" stroke="black" points="78.5001,-219.263 75,-209.263 71.5001,-219.263 78.5001,-219.263"/>
</g>
<!-- cluster_cluster_cluster_&#45;22021212490198297065621433541211787464&#45;5690564999758951521&#45;5633746949467439564 -->
<g id="node5" class="node"><title>cluster_cluster_cluster_&#45;22021212490198297065621433541211787464&#45;5690564999758951521&#45;5633746949467439564</title>
<g id="a_node5"><a xlink:href="./ESM-wltp_h_errors/ESM-wltp_h_error_vs_wltp_h.gv.svg" xlink:title="Calculates the error of calibrated model of a reference.">
<polygon fill="yellow" stroke="black" points="379,-131 203,-131 203,-95 385,-95 385,-125 379,-131"/>
<polyline fill="none" stroke="black" points="379,-131 379,-125 "/>
<polyline fill="none" stroke="black" points="385,-125 379,-125 "/>
<text text-anchor="start" x="213.5" y="-108.8" font-family="Times New Roman,serif" font-size="14.00">ESM&#45;wltp_h error vs wltp_h</text>
</a>
</g>
</g>
<!-- cluster_cluster_cluster_&#45;22021212490198297065621433541211787464&#45;5690564999758951521&#45;2427563387242055365 -->
<g id="node8" class="node"><title>cluster_cluster_cluster_&#45;22021212490198297065621433541211787464&#45;5690564999758951521&#45;2427563387242055365</title>
<g id="a_node8"><a xlink:title="error/wltp_h">
<path fill="cyan" stroke="black" d="M327,-59C327,-59 261,-59 261,-59 255,-59 249,-53 249,-47 249,-47 249,-35 249,-35 249,-29 255,-23 261,-23 261,-23 327,-23 327,-23 333,-23 339,-29 339,-35 339,-35 339,-47 339,-47 339,-53 333,-59 327,-59"/>
<text text-anchor="start" x="259" y="-36.8" font-family="Times New Roman,serif" font-size="14.00">error/wltp_h</text>
</a>
</g>
</g>
<!-- cluster_cluster_cluster_&#45;22021212490198297065621433541211787464&#45;5690564999758951521&#45;5633746949467439564&#45;&gt;cluster_cluster_cluster_&#45;22021212490198297065621433541211787464&#45;5690564999758951521&#45;2427563387242055365 -->
<g id="edge5" class="edge"><title>cluster_cluster_cluster_&#45;22021212490198297065621433541211787464&#45;5690564999758951521&#45;5633746949467439564&#45;&gt;cluster_cluster_cluster_&#45;22021212490198297065621433541211787464&#45;5690564999758951521&#45;2427563387242055365</title>
<path fill="none" stroke="black" d="M294,-94.8314C294,-94.8314 294,-69.4133 294,-69.4133"/>
<polygon fill="black" stroke="black" points="297.5,-69.4132 294,-59.4133 290.5,-69.4133 297.5,-69.4132"/>
</g>
<!-- cluster_cluster_cluster_&#45;22021212490198297065621433541211787464&#45;5690564999758951521&#45;7301319087660327121 -->
<g id="node6" class="node"><title>cluster_cluster_cluster_&#45;22021212490198297065621433541211787464&#45;5690564999758951521&#45;7301319087660327121</title>
<g id="a_node6"><a xlink:href="./ESM-wltp_h_errors/ESM-wltp_h_error_vs_wltp_l.gv.svg" xlink:title="Calculates the error of calibrated model of a reference.">
<polygon fill="yellow" stroke="black" points="172,-131 0,-131 0,-95 178,-95 178,-125 172,-131"/>
<polyline fill="none" stroke="black" points="172,-131 172,-125 "/>
<polyline fill="none" stroke="black" points="178,-125 172,-125 "/>
<text text-anchor="start" x="10.5" y="-108.8" font-family="Times New Roman,serif" font-size="14.00">ESM&#45;wltp_h error vs wltp_l</text>
</a>
</g>
</g>
<!-- cluster_cluster_cluster_&#45;22021212490198297065621433541211787464&#45;5690564999758951521&#45;7302022848986384642 -->
<g id="node9" class="node"><title>cluster_cluster_cluster_&#45;22021212490198297065621433541211787464&#45;5690564999758951521&#45;7302022848986384642</title>
<g id="a_node9"><a xlink:title="error/wltp_l">
<path fill="cyan" stroke="black" d="M120,-59C120,-59 58,-59 58,-59 52,-59 46,-53 46,-47 46,-47 46,-35 46,-35 46,-29 52,-23 58,-23 58,-23 120,-23 120,-23 126,-23 132,-29 132,-35 132,-35 132,-47 132,-47 132,-53 126,-59 120,-59"/>
<text text-anchor="start" x="56" y="-36.8" font-family="Times New Roman,serif" font-size="14.00">error/wltp_l</text>
</a>
</g>
</g>
<!-- cluster_cluster_cluster_&#45;22021212490198297065621433541211787464&#45;5690564999758951521&#45;7301319087660327121&#45;&gt;cluster_cluster_cluster_&#45;22021212490198297065621433541211787464&#45;5690564999758951521&#45;7302022848986384642 -->
<g id="edge6" class="edge"><title>cluster_cluster_cluster_&#45;22021212490198297065621433541211787464&#45;5690564999758951521&#45;7301319087660327121&#45;&gt;cluster_cluster_cluster_&#45;22021212490198297065621433541211787464&#45;5690564999758951521&#45;7302022848986384642</title>
<path fill="none" stroke="black" d="M89,-94.8314C89,-94.8314 89,-69.4133 89,-69.4133"/>
<polygon fill="black" stroke="black" points="92.5001,-69.4132 89,-59.4133 85.5001,-69.4133 92.5001,-69.4132"/>
</g>
<!-- cluster_cluster_cluster_&#45;22021212490198297065621433541211787464&#45;5690564999758951521&#45;1177382896934224609 -->
<g id="node7" class="node"><title>cluster_cluster_cluster_&#45;22021212490198297065621433541211787464&#45;5690564999758951521&#45;1177382896934224609</title>
<g id="a_node7"><a xlink:title="data_in">
<path fill="cyan" stroke="black" d="M296.5,-689C296.5,-689 207.5,-689 207.5,-689 201.5,-689 195.5,-683 195.5,-677 195.5,-677 195.5,-653 195.5,-653 195.5,-647 201.5,-641 207.5,-641 207.5,-641 296.5,-641 296.5,-641 302.5,-641 308.5,-647 308.5,-653 308.5,-653 308.5,-677 308.5,-677 308.5,-683 302.5,-689 296.5,-689"/>
<text text-anchor="start" x="232" y="-671.8" font-family="Times New Roman,serif" font-size="14.00">data_in</text>
<polygon fill="none" stroke="black" points="204,-645 204,-666 256,-666 256,-645 204,-645"/>
<text text-anchor="start" x="207" y="-651.8" font-family="Times New Roman,serif" font-size="14.00">default=</text>
<polygon fill="none" stroke="black" points="256,-645 256,-666 301,-666 301,-645 256,-645"/>
<text text-anchor="start" x="259" y="-651.8" font-family="Times New Roman,serif" font-size="14.00">wltp_h</text>
</a>
</g>
</g>
<!-- cluster_cluster_cluster_&#45;22021212490198297065621433541211787464&#45;5690564999758951521&#45;3431188338771875485&#45;&gt;cluster_cluster_cluster_&#45;22021212490198297065621433541211787464&#45;5690564999758951521&#45;5633746949467439564 -->
<g id="edge7" class="edge"><title>cluster_cluster_cluster_&#45;22021212490198297065621433541211787464&#45;5690564999758951521&#45;3431188338771875485&#45;&gt;cluster_cluster_cluster_&#45;22021212490198297065621433541211787464&#45;5690564999758951521&#45;5633746949467439564</title>
<path fill="none" stroke="black" d="M218.75,-166.748C218.75,-166.748 218.75,-141.288 218.75,-141.288"/>
<polygon fill="black" stroke="black" points="222.25,-141.287 218.75,-131.288 215.25,-141.288 222.25,-141.287"/>
</g>
<!-- cluster_cluster_cluster_&#45;22021212490198297065621433541211787464&#45;5690564999758951521&#45;3431188338771875485&#45;&gt;cluster_cluster_cluster_&#45;22021212490198297065621433541211787464&#45;5690564999758951521&#45;7301319087660327121 -->
<g id="edge8" class="edge"><title>cluster_cluster_cluster_&#45;22021212490198297065621433541211787464&#45;5690564999758951521&#45;3431188338771875485&#45;&gt;cluster_cluster_cluster_&#45;22021212490198297065621433541211787464&#45;5690564999758951521&#45;7301319087660327121</title>
<path fill="none" stroke="black" d="M157.75,-166.748C157.75,-166.748 157.75,-141.288 157.75,-141.288"/>
<polygon fill="black" stroke="black" points="161.25,-141.287 157.75,-131.288 154.25,-141.288 161.25,-141.287"/>
</g>
<!-- cluster_cluster_cluster_&#45;22021212490198297065621433541211787464&#45;56905649997589515217702748476113788344&#45;&gt;cluster_cluster_cluster_&#45;22021212490198297065621433541211787464&#45;5690564999758951521&#45;5633746949467439564 -->
<g id="edge9" class="edge"><title>cluster_cluster_cluster_&#45;22021212490198297065621433541211787464&#45;56905649997589515217702748476113788344&#45;&gt;cluster_cluster_cluster_&#45;22021212490198297065621433541211787464&#45;5690564999758951521&#45;5633746949467439564</title>
<path fill="none" stroke="black" d="M303,-172.909C303,-172.909 303,-141.263 303,-141.263"/>
<polygon fill="black" stroke="black" points="306.5,-141.263 303,-131.263 299.5,-141.263 306.5,-141.263"/>
</g>
<!-- cluster_cluster_cluster_&#45;22021212490198297065621433541211787464&#45;56905649997589515214919105944985796052&#45;&gt;cluster_cluster_cluster_&#45;22021212490198297065621433541211787464&#45;5690564999758951521&#45;7301319087660327121 -->
<g id="edge10" class="edge"><title>cluster_cluster_cluster_&#45;22021212490198297065621433541211787464&#45;56905649997589515214919105944985796052&#45;&gt;cluster_cluster_cluster_&#45;22021212490198297065621433541211787464&#45;5690564999758951521&#45;7301319087660327121</title>
<path fill="none" stroke="black" d="M75,-172.909C75,-172.909 75,-141.263 75,-141.263"/>
<polygon fill="black" stroke="black" points="78.5001,-141.263 75,-131.263 71.5001,-141.263 78.5001,-141.263"/>
</g>
<!-- cluster_cluster_cluster_&#45;22021212490198297065621433541211787464&#45;5690564999758951521&#45;3274255707223734200 -->
<g id="node13" class="node"><title>cluster_cluster_cluster_&#45;22021212490198297065621433541211787464&#45;5690564999758951521&#45;3274255707223734200</title>
<g id="a_node13"><a xlink:title="models">
<path fill="cyan" stroke="black" d="M438.5,-605C438.5,-605 189.5,-605 189.5,-605 183.5,-605 177.5,-599 177.5,-593 177.5,-593 177.5,-479 177.5,-479 177.5,-473 183.5,-467 189.5,-467 189.5,-467 438.5,-467 438.5,-467 444.5,-467 450.5,-473 450.5,-479 450.5,-479 450.5,-593 450.5,-593 450.5,-599 444.5,-605 438.5,-605"/>
<text text-anchor="start" x="294" y="-587.8" font-family="Times New Roman,serif" font-size="14.00">models</text>
<polygon fill="none" stroke="black" points="186,-471 186,-582 238,-582 238,-471 186,-471"/>
<text text-anchor="start" x="189" y="-522.8" font-family="Times New Roman,serif" font-size="14.00">default=</text>
<polygon fill="none" stroke="black" points="238,-471 238,-582 443,-582 443,-471 238,-471"/>
<text text-anchor="start" x="287.5" y="-567.8" font-family="Times New Roman,serif" font-size="14.00">[&#39;final_drive_ratio&#39;,</text>
<text text-anchor="start" x="288" y="-552.8" font-family="Times New Roman,serif" font-size="14.00"> &#39;gear_box_ratios&#39;,</text>
<text text-anchor="start" x="258.5" y="-537.8" font-family="Times New Roman,serif" font-size="14.00"> &#39;idle_engine_speed_median&#39;,</text>
<text text-anchor="start" x="269.5" y="-522.8" font-family="Times New Roman,serif" font-size="14.00"> &#39;idle_engine_speed_std&#39;,</text>
<text text-anchor="start" x="319" y="-507.8" font-family="Times New Roman,serif" font-size="14.00"> &#39;CVT&#39;,</text>
<text text-anchor="start" x="260" y="-492.8" font-family="Times New Roman,serif" font-size="14.00"> &#39;max_speed_velocity_ratio&#39;,</text>
<text text-anchor="start" x="241" y="-477.8" font-family="Times New Roman,serif" font-size="14.00"> &#39;tyre_dynamic_rolling_coefficient&#39;]</text>
</a>
</g>
</g>
<!-- cluster_cluster_cluster_&#45;22021212490198297065621433541211787464&#45;5690564999758951521&#45;8800720961443810657 -->
<g id="node14" class="node"><title>cluster_cluster_cluster_&#45;22021212490198297065621433541211787464&#45;5690564999758951521&#45;8800720961443810657</title>
<g id="a_node14"><a xlink:href="./ESM-wltp_h_errors/select_models.txt" xlink:title="select_models">
<polygon fill="springgreen" stroke="black" points="364,-431 264,-431 264,-395 364,-395 364,-431"/>
<text text-anchor="start" x="274" y="-408.8" font-family="Times New Roman,serif" font-size="14.00">select_models</text>
</a>
</g>
</g>
<!-- cluster_cluster_cluster_&#45;22021212490198297065621433541211787464&#45;5690564999758951521&#45;3274255707223734200&#45;&gt;cluster_cluster_cluster_&#45;22021212490198297065621433541211787464&#45;5690564999758951521&#45;8800720961443810657 -->
<g id="edge11" class="edge"><title>cluster_cluster_cluster_&#45;22021212490198297065621433541211787464&#45;5690564999758951521&#45;3274255707223734200&#45;&gt;cluster_cluster_cluster_&#45;22021212490198297065621433541211787464&#45;5690564999758951521&#45;8800720961443810657</title>
<path fill="none" stroke="black" d="M314,-466.95C314,-466.95 314,-441.373 314,-441.373"/>
<polygon fill="black" stroke="black" points="317.5,-441.373 314,-431.373 310.5,-441.373 317.5,-441.373"/>
</g>
<!-- cluster_cluster_cluster_&#45;22021212490198297065621433541211787464&#45;5690564999758951521&#45;8800720961443810657&#45;&gt;cluster_cluster_cluster_&#45;22021212490198297065621433541211787464&#45;5690564999758951521&#45;2181095411792409824 -->
<g id="edge12" class="edge"><title>cluster_cluster_cluster_&#45;22021212490198297065621433541211787464&#45;5690564999758951521&#45;8800720961443810657&#45;&gt;cluster_cluster_cluster_&#45;22021212490198297065621433541211787464&#45;5690564999758951521&#45;2181095411792409824</title>
<path fill="none" stroke="black" d="M314,-394.831C314,-394.831 314,-369.413 314,-369.413"/>
<polygon fill="black" stroke="black" points="317.5,-369.413 314,-359.413 310.5,-369.413 317.5,-369.413"/>
</g>
<!-- cluster_cluster_cluster_&#45;22021212490198297065621433541211787464&#45;56905649997589515214712647501736754553&#45;&gt;cluster_cluster_cluster_&#45;22021212490198297065621433541211787464&#45;5690564999758951521&#45;7067757294929678007 -->
<g id="edge16" class="edge"><title>cluster_cluster_cluster_&#45;22021212490198297065621433541211787464&#45;56905649997589515214712647501736754553&#45;&gt;cluster_cluster_cluster_&#45;22021212490198297065621433541211787464&#45;5690564999758951521&#45;7067757294929678007</title>
<path fill="none" stroke="black" d="M509,-517.648C509,-457.325 509,-269 509,-269 509,-269 351.267,-269 351.267,-269"/>
<polygon fill="black" stroke="black" points="351.267,-265.5 341.267,-269 351.267,-272.5 351.267,-265.5"/>
</g>
<!-- cluster_cluster_cluster_&#45;22021212490198297065621433541211787464&#45;56905649997589515214712647501736754553&#45;&gt;cluster_cluster_cluster_&#45;22021212490198297065621433541211787464&#45;5690564999758951521&#45;8800720961443810657 -->
<g id="edge17" class="edge"><title>cluster_cluster_cluster_&#45;22021212490198297065621433541211787464&#45;56905649997589515214712647501736754553&#45;&gt;cluster_cluster_cluster_&#45;22021212490198297065621433541211787464&#45;5690564999758951521&#45;8800720961443810657</title>
<path fill="none" stroke="black" d="M489,-517.851C489,-483.636 489,-413 489,-413 489,-413 374.148,-413 374.148,-413"/>
<polygon fill="black" stroke="black" points="374.148,-409.5 364.148,-413 374.148,-416.5 374.148,-409.5"/>
</g>
<!-- cluster_cluster_cluster_&#45;22021212490198297065621433541211787464&#45;5690564999758951521&#45;4779657526738643707&#45;&gt;cluster_cluster_cluster_&#45;22021212490198297065621433541211787464&#45;56905649997589515214298277636058170859 -->
<g id="edge18" class="edge"><title>cluster_cluster_cluster_&#45;22021212490198297065621433541211787464&#45;5690564999758951521&#45;4779657526738643707&#45;&gt;cluster_cluster_cluster_&#45;22021212490198297065621433541211787464&#45;56905649997589515214298277636058170859</title>
<path fill="none" stroke="black" d="M89,-394.762C89,-394.762 89,-297.09 89,-297.09"/>
<polygon fill="black" stroke="black" points="92.5001,-297.09 89,-287.09 85.5001,-297.09 92.5001,-297.09"/>
</g>
</g>
</svg>
