<?xml version="1.0" encoding="UTF-8" standalone="no"?>
<!DOCTYPE svg PUBLIC "-//W3C//DTD SVG 1.1//EN"
 "http://www.w3.org/Graphics/SVG/1.1/DTD/svg11.dtd">
<!-- Generated by graphviz version 2.38.0 (20140413.2041)
 -->
<!-- Title: cluster_ECTM&#45;wltp_h errors Pages: 1 -->
<svg width="569pt" height="622pt"
 viewBox="0.00 0.00 569.00 622.00" xmlns="http://www.w3.org/2000/svg" xmlns:xlink="http://www.w3.org/1999/xlink">
<g id="graph0" class="graph" transform="scale(1 1) rotate(0) translate(4 618)">
<title>cluster_ECTM&#45;wltp_h errors</title>
<polygon fill="white" stroke="none" points="-4,4 -4,-618 565,-618 565,4 -4,4"/>
<text text-anchor="start" x="221" y="-7.8" font-family="Times New Roman,serif" font-size="14.00">ECTM&#45;wltp_h errors</text>
<!-- cluster_cluster_cluster_&#45;2202121249019829706&#45;4797801915317572213396361712161103379777532400 -->
<g id="node1" class="node"><title>cluster_cluster_cluster_&#45;2202121249019829706&#45;4797801915317572213396361712161103379777532400</title>
<g id="a_node1"><a xlink:title="start">
<polygon fill="red" stroke="black" points="153.683,-572.049 155.459,-572.148 157.216,-572.295 158.948,-572.491 160.648,-572.735 162.308,-573.027 163.923,-573.364 165.485,-573.748 166.989,-574.176 168.429,-574.647 169.8,-575.161 171.098,-575.715 172.317,-576.308 173.455,-576.939 174.507,-577.605 175.472,-578.306 176.346,-579.039 177.127,-579.801 177.815,-580.592 178.408,-581.408 178.906,-582.248 179.309,-583.109 179.617,-583.989 179.832,-584.886 179.956,-585.797 179.989,-586.719 179.934,-587.65 179.794,-588.587 179.571,-589.529 179.269,-590.471 178.89,-591.413 178.439,-592.35 177.918,-593.281 177.332,-594.203 176.685,-595.114 175.981,-596.011 175.223,-596.891 174.415,-597.752 173.561,-598.592 172.666,-599.408 171.732,-600.199 170.764,-600.961 169.764,-601.694 168.737,-602.395 167.684,-603.061 166.61,-603.692 165.516,-604.285 164.405,-604.839 163.28,-605.353 162.142,-605.824 160.994,-606.252 159.837,-606.636 158.672,-606.973 157.501,-607.265 156.325,-607.509 155.145,-607.705 153.963,-607.852 152.779,-607.951 151.593,-608 150.407,-608 149.221,-607.951 148.037,-607.852 146.855,-607.705 145.675,-607.509 144.499,-607.265 143.328,-606.973 142.163,-606.636 141.006,-606.252 139.858,-605.824 138.72,-605.353 137.595,-604.839 136.484,-604.285 135.39,-603.692 134.316,-603.061 133.263,-602.395 132.236,-601.694 131.236,-600.961 130.268,-600.199 129.334,-599.408 128.439,-598.592 127.585,-597.752 126.777,-596.891 126.019,-596.011 125.315,-595.114 124.668,-594.203 124.082,-593.281 123.561,-592.35 123.11,-591.413 122.731,-590.471 122.429,-589.529 122.206,-588.587 122.066,-587.65 122.011,-586.719 122.044,-585.797 122.168,-584.886 122.383,-583.989 122.691,-583.109 123.094,-582.248 123.592,-581.408 124.185,-580.592 124.873,-579.801 125.654,-579.039 126.528,-578.306 127.493,-577.605 128.545,-576.939 129.683,-576.308 130.902,-575.715 132.2,-575.161 133.571,-574.647 135.011,-574.176 136.515,-573.748 138.077,-573.364 139.692,-573.027 141.352,-572.735 143.052,-572.491 144.784,-572.295 146.541,-572.148 148.317,-572.049 150.105,-572 151.895,-572 153.683,-572.049"/>
<text text-anchor="middle" x="151" y="-586.3" font-family="Times New Roman,serif" font-size="14.00">start</text>
</a>
</g>
</g>
<!-- cluster_cluster_cluster_&#45;2202121249019829706&#45;47978019153175722133963617121611033797&#45;3431188338771875485 -->
<g id="node10" class="node"><title>cluster_cluster_cluster_&#45;2202121249019829706&#45;47978019153175722133963617121611033797&#45;3431188338771875485</title>
<g id="a_node10"><a xlink:title="error_settings">
<path fill="cyan" stroke="black" d="M224.5,-215C224.5,-215 151.5,-215 151.5,-215 145.5,-215 139.5,-209 139.5,-203 139.5,-203 139.5,-179 139.5,-179 139.5,-173 145.5,-167 151.5,-167 151.5,-167 224.5,-167 224.5,-167 230.5,-167 236.5,-173 236.5,-179 236.5,-179 236.5,-203 236.5,-203 236.5,-209 230.5,-215 224.5,-215"/>
<text text-anchor="start" x="150" y="-197.8" font-family="Times New Roman,serif" font-size="14.00">error_settings</text>
<polygon fill="none" stroke="black" points="148,-171 148,-192 204,-192 204,-171 148,-171"/>
<text text-anchor="start" x="155" y="-177.8" font-family="Times New Roman,serif" font-size="14.00">default=</text>
<polygon fill="none" stroke="black" points="204,-171 204,-192 229,-192 229,-171 204,-171"/>
<text text-anchor="start" x="207" y="-177.8" font-family="Times New Roman,serif" font-size="14.00">{}</text>
</a>
</g>
</g>
<!-- cluster_cluster_cluster_&#45;2202121249019829706&#45;4797801915317572213396361712161103379777532400&#45;&gt;cluster_cluster_cluster_&#45;2202121249019829706&#45;47978019153175722133963617121611033797&#45;3431188338771875485 -->
<g id="edge13" class="edge"><title>cluster_cluster_cluster_&#45;2202121249019829706&#45;4797801915317572213396361712161103379777532400&#45;&gt;cluster_cluster_cluster_&#45;2202121249019829706&#45;47978019153175722133963617121611033797&#45;3431188338771875485</title>
<path fill="none" stroke="black" d="M152.833,-571.819C152.833,-571.819 152.833,-225.154 152.833,-225.154"/>
<polygon fill="black" stroke="black" points="156.333,-225.154 152.833,-215.154 149.333,-225.154 156.333,-225.154"/>
<polygon fill="none" stroke="black" points="153.333,-397.986 153.333,-418.986 203.333,-418.986 203.333,-397.986 153.333,-397.986"/>
<text text-anchor="start" x="156.333" y="-404.786" font-family="Times New Roman,serif" font-size="14.00">inp_id=</text>
<polygon fill="none" stroke="black" points="203.333,-397.986 203.333,-418.986 216.333,-418.986 216.333,-397.986 203.333,-397.986"/>
<text text-anchor="start" x="206.333" y="-404.786" font-family="Times New Roman,serif" font-size="14.00">0</text>
</g>
<!-- cluster_cluster_cluster_&#45;2202121249019829706&#45;479780191531757221339636171216110337974712647501736754553 -->
<g id="node15" class="node"><title>cluster_cluster_cluster_&#45;2202121249019829706&#45;479780191531757221339636171216110337974712647501736754553</title>
<g id="a_node15"><a xlink:title="A sequence of data.">
<path fill="cyan" stroke="black" d="M549,-516.5C549,-516.5 513,-516.5 513,-516.5 507,-516.5 501,-510.5 501,-504.5 501,-504.5 501,-492.5 501,-492.5 501,-486.5 507,-480.5 513,-480.5 513,-480.5 549,-480.5 549,-480.5 555,-480.5 561,-486.5 561,-492.5 561,-492.5 561,-504.5 561,-504.5 561,-510.5 555,-516.5 549,-516.5"/>
<text text-anchor="start" x="511.5" y="-494.3" font-family="Times New Roman,serif" font-size="14.00">wltp_h</text>
</a>
</g>
</g>
<!-- cluster_cluster_cluster_&#45;2202121249019829706&#45;4797801915317572213396361712161103379777532400&#45;&gt;cluster_cluster_cluster_&#45;2202121249019829706&#45;479780191531757221339636171216110337974712647501736754553 -->
<g id="edge14" class="edge"><title>cluster_cluster_cluster_&#45;2202121249019829706&#45;4797801915317572213396361712161103379777532400&#45;&gt;cluster_cluster_cluster_&#45;2202121249019829706&#45;479780191531757221339636171216110337974712647501736754553</title>
<path fill="none" stroke="black" d="M166.167,-573.882C166.167,-562.038 166.167,-548 166.167,-548 166.167,-548 531,-548 531,-548 531,-548 531,-526.651 531,-526.651"/>
<polygon fill="black" stroke="black" points="534.5,-526.651 531,-516.651 527.5,-526.651 534.5,-526.651"/>
<polygon fill="none" stroke="black" points="346.817,-547.5 346.817,-568.5 396.817,-568.5 396.817,-547.5 346.817,-547.5"/>
<text text-anchor="start" x="349.817" y="-554.3" font-family="Times New Roman,serif" font-size="14.00">inp_id=</text>
<polygon fill="none" stroke="black" points="396.817,-547.5 396.817,-568.5 409.817,-568.5 409.817,-547.5 396.817,-547.5"/>
<text text-anchor="start" x="399.817" y="-554.3" font-family="Times New Roman,serif" font-size="14.00">1</text>
</g>
<!-- cluster_cluster_cluster_&#45;2202121249019829706&#45;47978019153175722133963617121611033797&#45;4779657526738643707 -->
<g id="node16" class="node"><title>cluster_cluster_cluster_&#45;2202121249019829706&#45;47978019153175722133963617121611033797&#45;4779657526738643707</title>
<g id="a_node16"><a xlink:title="A sequence of data.">
<path fill="cyan" stroke="black" d="M107,-431C107,-431 75,-431 75,-431 69,-431 63,-425 63,-419 63,-419 63,-407 63,-407 63,-401 69,-395 75,-395 75,-395 107,-395 107,-395 113,-395 119,-401 119,-407 119,-407 119,-419 119,-419 119,-425 113,-431 107,-431"/>
<text text-anchor="start" x="73.5" y="-408.8" font-family="Times New Roman,serif" font-size="14.00">wltp_l</text>
</a>
</g>
</g>
<!-- cluster_cluster_cluster_&#45;2202121249019829706&#45;4797801915317572213396361712161103379777532400&#45;&gt;cluster_cluster_cluster_&#45;2202121249019829706&#45;47978019153175722133963617121611033797&#45;4779657526738643707 -->
<g id="edge15" class="edge"><title>cluster_cluster_cluster_&#45;2202121249019829706&#45;4797801915317572213396361712161103379777532400&#45;&gt;cluster_cluster_cluster_&#45;2202121249019829706&#45;47978019153175722133963617121611033797&#45;4779657526738643707</title>
<path fill="none" stroke="black" d="M131.25,-575.515C131.25,-533.243 131.25,-413 131.25,-413 131.25,-413 129.391,-413 129.391,-413"/>
<polygon fill="black" stroke="black" points="129.391,-409.5 119.391,-413 129.391,-416.5 129.391,-409.5"/>
<polygon fill="none" stroke="black" points="68.75,-492.828 68.75,-513.828 118.75,-513.828 118.75,-492.828 68.75,-492.828"/>
<text text-anchor="start" x="71.75" y="-499.628" font-family="Times New Roman,serif" font-size="14.00">inp_id=</text>
<polygon fill="none" stroke="black" points="118.75,-492.828 118.75,-513.828 131.75,-513.828 131.75,-492.828 118.75,-492.828"/>
<text text-anchor="start" x="121.75" y="-499.628" font-family="Times New Roman,serif" font-size="14.00">2</text>
</g>
<!-- cluster_cluster_cluster_&#45;2202121249019829706&#45;47978019153175722133963617121611033797&#45;2181095411792409824 -->
<g id="node2" class="node"><title>cluster_cluster_cluster_&#45;2202121249019829706&#45;47978019153175722133963617121611033797&#45;2181095411792409824</title>
<g id="a_node2"><a xlink:title="A sequence of data.">
<path fill="cyan" stroke="black" d="M373,-359C373,-359 273,-359 273,-359 267,-359 261,-353 261,-347 261,-347 261,-335 261,-335 261,-329 267,-323 273,-323 273,-323 373,-323 373,-323 379,-323 385,-329 385,-335 385,-335 385,-347 385,-347 385,-353 379,-359 373,-359"/>
<text text-anchor="start" x="271.5" y="-336.8" font-family="Times New Roman,serif" font-size="14.00">calibrated_models</text>
</a>
</g>
</g>
<!-- cluster_cluster_cluster_&#45;2202121249019829706&#45;47978019153175722133963617121611033797&#45;7067757294929678007 -->
<g id="node3" class="node"><title>cluster_cluster_cluster_&#45;2202121249019829706&#45;47978019153175722133963617121611033797&#45;7067757294929678007</title>
<g id="a_node3"><a xlink:href="./../alternator_model_selector/AM-wltp_h_errors/co2mpas.dispatcher.utils.dspmap_list.txt" xlink:title="Returns a new dict.">
<polygon fill="springgreen" stroke="black" points="357,-287 289,-287 289,-251 357,-251 357,-287"/>
<text text-anchor="start" x="299" y="-264.8" font-family="Times New Roman,serif" font-size="14.00">map_list</text>
</a>
</g>
</g>
<!-- cluster_cluster_cluster_&#45;2202121249019829706&#45;47978019153175722133963617121611033797&#45;2181095411792409824&#45;&gt;cluster_cluster_cluster_&#45;2202121249019829706&#45;47978019153175722133963617121611033797&#45;7067757294929678007 -->
<g id="edge1" class="edge"><title>cluster_cluster_cluster_&#45;2202121249019829706&#45;47978019153175722133963617121611033797&#45;2181095411792409824&#45;&gt;cluster_cluster_cluster_&#45;2202121249019829706&#45;47978019153175722133963617121611033797&#45;7067757294929678007</title>
<path fill="none" stroke="black" d="M323,-322.831C323,-322.831 323,-297.413 323,-297.413"/>
<polygon fill="black" stroke="black" points="326.5,-297.413 323,-287.413 319.5,-297.413 326.5,-297.413"/>
</g>
<!-- cluster_cluster_cluster_&#45;2202121249019829706&#45;479780191531757221339636171216110337974298277636058170859 -->
<g id="node4" class="node"><title>cluster_cluster_cluster_&#45;2202121249019829706&#45;479780191531757221339636171216110337974298277636058170859</title>
<g id="a_node4"><a xlink:href="./../alternator_model_selector/AM-wltp_h_errors/co2mpas.dispatcher.utils.dspmap_list.txt" xlink:title="Returns a new dict.">
<polygon fill="springgreen" stroke="black" points="123,-287 31,-287 31,-251 123,-251 123,-287"/>
<text text-anchor="start" x="41.5" y="-264.8" font-family="Times New Roman,serif" font-size="14.00">map_list&lt;0&gt;</text>
</a>
</g>
</g>
<!-- cluster_cluster_cluster_&#45;2202121249019829706&#45;47978019153175722133963617121611033797&#45;2181095411792409824&#45;&gt;cluster_cluster_cluster_&#45;2202121249019829706&#45;479780191531757221339636171216110337974298277636058170859 -->
<g id="edge2" class="edge"><title>cluster_cluster_cluster_&#45;2202121249019829706&#45;47978019153175722133963617121611033797&#45;2181095411792409824&#45;&gt;cluster_cluster_cluster_&#45;2202121249019829706&#45;479780191531757221339636171216110337974298277636058170859</title>
<path fill="none" stroke="black" d="M266.5,-322.831C266.5,-301.502 266.5,-269 266.5,-269 266.5,-269 133.357,-269 133.357,-269"/>
<polygon fill="black" stroke="black" points="133.357,-265.5 123.357,-269 133.357,-272.5 133.357,-265.5"/>
</g>
<!-- cluster_cluster_cluster_&#45;2202121249019829706&#45;479780191531757221339636171216110337977702748476113788344 -->
<g id="node11" class="node"><title>cluster_cluster_cluster_&#45;2202121249019829706&#45;479780191531757221339636171216110337977702748476113788344</title>
<g id="a_node11"><a xlink:title="A unique dict with new values.">
<path fill="cyan" stroke="black" d="M350,-209C350,-209 284,-209 284,-209 278,-209 272,-203 272,-197 272,-197 272,-185 272,-185 272,-179 278,-173 284,-173 284,-173 350,-173 350,-173 356,-173 362,-179 362,-185 362,-185 362,-197 362,-197 362,-203 356,-209 350,-209"/>
<text text-anchor="start" x="282" y="-186.8" font-family="Times New Roman,serif" font-size="14.00">input/wltp_h</text>
</a>
</g>
</g>
<!-- cluster_cluster_cluster_&#45;2202121249019829706&#45;47978019153175722133963617121611033797&#45;7067757294929678007&#45;&gt;cluster_cluster_cluster_&#45;2202121249019829706&#45;479780191531757221339636171216110337977702748476113788344 -->
<g id="edge3" class="edge"><title>cluster_cluster_cluster_&#45;2202121249019829706&#45;47978019153175722133963617121611033797&#45;7067757294929678007&#45;&gt;cluster_cluster_cluster_&#45;2202121249019829706&#45;479780191531757221339636171216110337977702748476113788344</title>
<path fill="none" stroke="black" d="M323,-250.909C323,-250.909 323,-219.263 323,-219.263"/>
<polygon fill="black" stroke="black" points="326.5,-219.263 323,-209.263 319.5,-219.263 326.5,-219.263"/>
</g>
<!-- cluster_cluster_cluster_&#45;2202121249019829706&#45;479780191531757221339636171216110337974919105944985796052 -->
<g id="node12" class="node"><title>cluster_cluster_cluster_&#45;2202121249019829706&#45;479780191531757221339636171216110337974919105944985796052</title>
<g id="a_node12"><a xlink:title="A unique dict with new values.">
<path fill="cyan" stroke="black" d="M109,-209C109,-209 45,-209 45,-209 39,-209 33,-203 33,-197 33,-197 33,-185 33,-185 33,-179 39,-173 45,-173 45,-173 109,-173 109,-173 115,-173 121,-179 121,-185 121,-185 121,-197 121,-197 121,-203 115,-209 109,-209"/>
<text text-anchor="start" x="43.5" y="-186.8" font-family="Times New Roman,serif" font-size="14.00">input/wltp_l</text>
</a>
</g>
</g>
<!-- cluster_cluster_cluster_&#45;2202121249019829706&#45;479780191531757221339636171216110337974298277636058170859&#45;&gt;cluster_cluster_cluster_&#45;2202121249019829706&#45;479780191531757221339636171216110337974919105944985796052 -->
<g id="edge4" class="edge"><title>cluster_cluster_cluster_&#45;2202121249019829706&#45;479780191531757221339636171216110337974298277636058170859&#45;&gt;cluster_cluster_cluster_&#45;2202121249019829706&#45;479780191531757221339636171216110337974919105944985796052</title>
<path fill="none" stroke="black" d="M77,-250.909C77,-250.909 77,-219.263 77,-219.263"/>
<polygon fill="black" stroke="black" points="80.5001,-219.263 77,-209.263 73.5001,-219.263 80.5001,-219.263"/>
</g>
<!-- cluster_cluster_cluster_&#45;2202121249019829706&#45;479780191531757221339636171216110337973957706717811189770 -->
<g id="node5" class="node"><title>cluster_cluster_cluster_&#45;2202121249019829706&#45;479780191531757221339636171216110337973957706717811189770</title>
<g id="a_node5"><a xlink:href="./ECTM-wltp_h_errors/ECTM-wltp_h_error_vs_wltp_h.gv.svg" xlink:title="Calculates the error of calibrated model of a reference.">
<polygon fill="yellow" stroke="black" points="400,-131 214,-131 214,-95 406,-95 406,-125 400,-131"/>
<polyline fill="none" stroke="black" points="400,-131 400,-125 "/>
<polyline fill="none" stroke="black" points="406,-125 400,-125 "/>
<text text-anchor="start" x="224" y="-108.8" font-family="Times New Roman,serif" font-size="14.00">ECTM&#45;wltp_h error vs wltp_h</text>
</a>
</g>
</g>
<!-- cluster_cluster_cluster_&#45;2202121249019829706&#45;47978019153175722133963617121611033797&#45;2427563387242055365 -->
<g id="node8" class="node"><title>cluster_cluster_cluster_&#45;2202121249019829706&#45;47978019153175722133963617121611033797&#45;2427563387242055365</title>
<g id="a_node8"><a xlink:title="error/wltp_h">
<path fill="cyan" stroke="black" d="M343,-59C343,-59 277,-59 277,-59 271,-59 265,-53 265,-47 265,-47 265,-35 265,-35 265,-29 271,-23 277,-23 277,-23 343,-23 343,-23 349,-23 355,-29 355,-35 355,-35 355,-47 355,-47 355,-53 349,-59 343,-59"/>
<text text-anchor="start" x="275" y="-36.8" font-family="Times New Roman,serif" font-size="14.00">error/wltp_h</text>
</a>
</g>
</g>
<!-- cluster_cluster_cluster_&#45;2202121249019829706&#45;479780191531757221339636171216110337973957706717811189770&#45;&gt;cluster_cluster_cluster_&#45;2202121249019829706&#45;47978019153175722133963617121611033797&#45;2427563387242055365 -->
<g id="edge5" class="edge"><title>cluster_cluster_cluster_&#45;2202121249019829706&#45;479780191531757221339636171216110337973957706717811189770&#45;&gt;cluster_cluster_cluster_&#45;2202121249019829706&#45;47978019153175722133963617121611033797&#45;2427563387242055365</title>
<path fill="none" stroke="black" d="M310,-94.8314C310,-94.8314 310,-69.4133 310,-69.4133"/>
<polygon fill="black" stroke="black" points="313.5,-69.4132 310,-59.4133 306.5,-69.4133 313.5,-69.4132"/>
</g>
<!-- cluster_cluster_cluster_&#45;2202121249019829706&#45;47978019153175722133963617121611033797&#45;6303251697708307538 -->
<g id="node6" class="node"><title>cluster_cluster_cluster_&#45;2202121249019829706&#45;47978019153175722133963617121611033797&#45;6303251697708307538</title>
<g id="a_node6"><a xlink:href="./ECTM-wltp_h_errors/ECTM-wltp_h_error_vs_wltp_l.gv.svg" xlink:title="Calculates the error of calibrated model of a reference.">
<polygon fill="yellow" stroke="black" points="182,-131 -1.42109e-014,-131 -1.42109e-014,-95 188,-95 188,-125 182,-131"/>
<polyline fill="none" stroke="black" points="182,-131 182,-125 "/>
<polyline fill="none" stroke="black" points="188,-125 182,-125 "/>
<text text-anchor="start" x="10" y="-108.8" font-family="Times New Roman,serif" font-size="14.00">ECTM&#45;wltp_h error vs wltp_l</text>
</a>
</g>
</g>
<!-- cluster_cluster_cluster_&#45;2202121249019829706&#45;47978019153175722133963617121611033797&#45;7302022848986384642 -->
<g id="node9" class="node"><title>cluster_cluster_cluster_&#45;2202121249019829706&#45;47978019153175722133963617121611033797&#45;7302022848986384642</title>
<g id="a_node9"><a xlink:title="error/wltp_l">
<path fill="cyan" stroke="black" d="M125,-59C125,-59 63,-59 63,-59 57,-59 51,-53 51,-47 51,-47 51,-35 51,-35 51,-29 57,-23 63,-23 63,-23 125,-23 125,-23 131,-23 137,-29 137,-35 137,-35 137,-47 137,-47 137,-53 131,-59 125,-59"/>
<text text-anchor="start" x="61" y="-36.8" font-family="Times New Roman,serif" font-size="14.00">error/wltp_l</text>
</a>
</g>
</g>
<!-- cluster_cluster_cluster_&#45;2202121249019829706&#45;47978019153175722133963617121611033797&#45;6303251697708307538&#45;&gt;cluster_cluster_cluster_&#45;2202121249019829706&#45;47978019153175722133963617121611033797&#45;7302022848986384642 -->
<g id="edge6" class="edge"><title>cluster_cluster_cluster_&#45;2202121249019829706&#45;47978019153175722133963617121611033797&#45;6303251697708307538&#45;&gt;cluster_cluster_cluster_&#45;2202121249019829706&#45;47978019153175722133963617121611033797&#45;7302022848986384642</title>
<path fill="none" stroke="black" d="M94,-94.8314C94,-94.8314 94,-69.4133 94,-69.4133"/>
<polygon fill="black" stroke="black" points="97.5001,-69.4132 94,-59.4133 90.5001,-69.4133 97.5001,-69.4132"/>
</g>
<!-- cluster_cluster_cluster_&#45;2202121249019829706&#45;47978019153175722133963617121611033797&#45;1177382896934224609 -->
<g id="node7" class="node"><title>cluster_cluster_cluster_&#45;2202121249019829706&#45;47978019153175722133963617121611033797&#45;1177382896934224609</title>
<g id="a_node7"><a xlink:title="data_in">
<path fill="cyan" stroke="black" d="M298.5,-614C298.5,-614 209.5,-614 209.5,-614 203.5,-614 197.5,-608 197.5,-602 197.5,-602 197.5,-578 197.5,-578 197.5,-572 203.5,-566 209.5,-566 209.5,-566 298.5,-566 298.5,-566 304.5,-566 310.5,-572 310.5,-578 310.5,-578 310.5,-602 310.5,-602 310.5,-608 304.5,-614 298.5,-614"/>
<text text-anchor="start" x="234" y="-596.8" font-family="Times New Roman,serif" font-size="14.00">data_in</text>
<polygon fill="none" stroke="black" points="206,-570 206,-591 258,-591 258,-570 206,-570"/>
<text text-anchor="start" x="209" y="-576.8" font-family="Times New Roman,serif" font-size="14.00">default=</text>
<polygon fill="none" stroke="black" points="258,-570 258,-591 303,-591 303,-570 258,-570"/>
<text text-anchor="start" x="261" y="-576.8" font-family="Times New Roman,serif" font-size="14.00">wltp_h</text>
</a>
</g>
</g>
<!-- cluster_cluster_cluster_&#45;2202121249019829706&#45;47978019153175722133963617121611033797&#45;3431188338771875485&#45;&gt;cluster_cluster_cluster_&#45;2202121249019829706&#45;479780191531757221339636171216110337973957706717811189770 -->
<g id="edge7" class="edge"><title>cluster_cluster_cluster_&#45;2202121249019829706&#45;47978019153175722133963617121611033797&#45;3431188338771875485&#45;&gt;cluster_cluster_cluster_&#45;2202121249019829706&#45;479780191531757221339636171216110337973957706717811189770</title>
<path fill="none" stroke="black" d="M225.25,-166.748C225.25,-166.748 225.25,-141.288 225.25,-141.288"/>
<polygon fill="black" stroke="black" points="228.75,-141.287 225.25,-131.288 221.75,-141.288 228.75,-141.287"/>
</g>
<!-- cluster_cluster_cluster_&#45;2202121249019829706&#45;47978019153175722133963617121611033797&#45;3431188338771875485&#45;&gt;cluster_cluster_cluster_&#45;2202121249019829706&#45;47978019153175722133963617121611033797&#45;6303251697708307538 -->
<g id="edge8" class="edge"><title>cluster_cluster_cluster_&#45;2202121249019829706&#45;47978019153175722133963617121611033797&#45;3431188338771875485&#45;&gt;cluster_cluster_cluster_&#45;2202121249019829706&#45;47978019153175722133963617121611033797&#45;6303251697708307538</title>
<path fill="none" stroke="black" d="M163.75,-166.748C163.75,-166.748 163.75,-141.288 163.75,-141.288"/>
<polygon fill="black" stroke="black" points="167.25,-141.287 163.75,-131.288 160.25,-141.288 167.25,-141.287"/>
</g>
<!-- cluster_cluster_cluster_&#45;2202121249019829706&#45;479780191531757221339636171216110337977702748476113788344&#45;&gt;cluster_cluster_cluster_&#45;2202121249019829706&#45;479780191531757221339636171216110337973957706717811189770 -->
<g id="edge9" class="edge"><title>cluster_cluster_cluster_&#45;2202121249019829706&#45;479780191531757221339636171216110337977702748476113788344&#45;&gt;cluster_cluster_cluster_&#45;2202121249019829706&#45;479780191531757221339636171216110337973957706717811189770</title>
<path fill="none" stroke="black" d="M317,-172.909C317,-172.909 317,-141.263 317,-141.263"/>
<polygon fill="black" stroke="black" points="320.5,-141.263 317,-131.263 313.5,-141.263 320.5,-141.263"/>
</g>
<!-- cluster_cluster_cluster_&#45;2202121249019829706&#45;479780191531757221339636171216110337974919105944985796052&#45;&gt;cluster_cluster_cluster_&#45;2202121249019829706&#45;47978019153175722133963617121611033797&#45;6303251697708307538 -->
<g id="edge10" class="edge"><title>cluster_cluster_cluster_&#45;2202121249019829706&#45;479780191531757221339636171216110337974919105944985796052&#45;&gt;cluster_cluster_cluster_&#45;2202121249019829706&#45;47978019153175722133963617121611033797&#45;6303251697708307538</title>
<path fill="none" stroke="black" d="M77,-172.909C77,-172.909 77,-141.263 77,-141.263"/>
<polygon fill="black" stroke="black" points="80.5001,-141.263 77,-131.263 73.5001,-141.263 80.5001,-141.263"/>
</g>
<!-- cluster_cluster_cluster_&#45;2202121249019829706&#45;47978019153175722133963617121611033797&#45;3274255707223734200 -->
<g id="node13" class="node"><title>cluster_cluster_cluster_&#45;2202121249019829706&#45;47978019153175722133963617121611033797&#45;3274255707223734200</title>
<g id="a_node13"><a xlink:title="Keys to select.">
<path fill="cyan" stroke="black" d="M470.5,-530C470.5,-530 191.5,-530 191.5,-530 185.5,-530 179.5,-524 179.5,-518 179.5,-518 179.5,-479 179.5,-479 179.5,-473 185.5,-467 191.5,-467 191.5,-467 470.5,-467 470.5,-467 476.5,-467 482.5,-473 482.5,-479 482.5,-479 482.5,-518 482.5,-518 482.5,-524 476.5,-530 470.5,-530"/>
<text text-anchor="start" x="311" y="-512.3" font-family="Times New Roman,serif" font-size="14.00">models</text>
<polygon fill="none" stroke="black" points="188,-470.5 188,-506.5 240,-506.5 240,-470.5 188,-470.5"/>
<text text-anchor="start" x="191" y="-484.8" font-family="Times New Roman,serif" font-size="14.00">default=</text>
<polygon fill="none" stroke="black" points="240,-470.5 240,-506.5 475,-506.5 475,-470.5 240,-470.5"/>
<text text-anchor="start" x="243" y="-492.3" font-family="Times New Roman,serif" font-size="14.00">[&#39;engine_temperature_regression_model&#39;,</text>
<text text-anchor="start" x="256.5" y="-477.3" font-family="Times New Roman,serif" font-size="14.00"> &#39;max_engine_coolant_temperature&#39;]</text>
</a>
</g>
</g>
<!-- cluster_cluster_cluster_&#45;2202121249019829706&#45;47978019153175722133963617121611033797&#45;8800720961443810657 -->
<g id="node14" class="node"><title>cluster_cluster_cluster_&#45;2202121249019829706&#45;47978019153175722133963617121611033797&#45;8800720961443810657</title>
<g id="a_node14"><a xlink:href="./../alternator_model_selector/AM-wltp_h_errors/AM-wltp_h_error_vs_wltp_h/select_inputs0.txt" xlink:title="Selects the chosen dictionary keys from the given dictionary.">
<polygon fill="springgreen" stroke="black" points="381,-431 281,-431 281,-395 381,-395 381,-431"/>
<text text-anchor="start" x="291" y="-408.8" font-family="Times New Roman,serif" font-size="14.00">select_models</text>
</a>
</g>
</g>
<!-- cluster_cluster_cluster_&#45;2202121249019829706&#45;47978019153175722133963617121611033797&#45;3274255707223734200&#45;&gt;cluster_cluster_cluster_&#45;2202121249019829706&#45;47978019153175722133963617121611033797&#45;8800720961443810657 -->
<g id="edge11" class="edge"><title>cluster_cluster_cluster_&#45;2202121249019829706&#45;47978019153175722133963617121611033797&#45;3274255707223734200&#45;&gt;cluster_cluster_cluster_&#45;2202121249019829706&#45;47978019153175722133963617121611033797&#45;8800720961443810657</title>
<path fill="none" stroke="black" d="M331,-466.663C331,-466.663 331,-441.204 331,-441.204"/>
<polygon fill="black" stroke="black" points="334.5,-441.204 331,-431.204 327.5,-441.204 334.5,-441.204"/>
</g>
<!-- cluster_cluster_cluster_&#45;2202121249019829706&#45;47978019153175722133963617121611033797&#45;8800720961443810657&#45;&gt;cluster_cluster_cluster_&#45;2202121249019829706&#45;47978019153175722133963617121611033797&#45;2181095411792409824 -->
<g id="edge12" class="edge"><title>cluster_cluster_cluster_&#45;2202121249019829706&#45;47978019153175722133963617121611033797&#45;8800720961443810657&#45;&gt;cluster_cluster_cluster_&#45;2202121249019829706&#45;47978019153175722133963617121611033797&#45;2181095411792409824</title>
<path fill="none" stroke="black" d="M331,-394.831C331,-394.831 331,-369.413 331,-369.413"/>
<polygon fill="black" stroke="black" points="334.5,-369.413 331,-359.413 327.5,-369.413 334.5,-369.413"/>
</g>
<!-- cluster_cluster_cluster_&#45;2202121249019829706&#45;479780191531757221339636171216110337974712647501736754553&#45;&gt;cluster_cluster_cluster_&#45;2202121249019829706&#45;47978019153175722133963617121611033797&#45;7067757294929678007 -->
<g id="edge16" class="edge"><title>cluster_cluster_cluster_&#45;2202121249019829706&#45;479780191531757221339636171216110337974712647501736754553&#45;&gt;cluster_cluster_cluster_&#45;2202121249019829706&#45;47978019153175722133963617121611033797&#45;7067757294929678007</title>
<path fill="none" stroke="black" d="M541,-480.492C541,-426.389 541,-269 541,-269 541,-269 367.063,-269 367.063,-269"/>
<polygon fill="black" stroke="black" points="367.063,-265.5 357.063,-269 367.062,-272.5 367.063,-265.5"/>
</g>
<!-- cluster_cluster_cluster_&#45;2202121249019829706&#45;479780191531757221339636171216110337974712647501736754553&#45;&gt;cluster_cluster_cluster_&#45;2202121249019829706&#45;47978019153175722133963617121611033797&#45;8800720961443810657 -->
<g id="edge17" class="edge"><title>cluster_cluster_cluster_&#45;2202121249019829706&#45;479780191531757221339636171216110337974712647501736754553&#45;&gt;cluster_cluster_cluster_&#45;2202121249019829706&#45;47978019153175722133963617121611033797&#45;8800720961443810657</title>
<path fill="none" stroke="black" d="M521,-480.368C521,-455.27 521,-413 521,-413 521,-413 391.418,-413 391.418,-413"/>
<polygon fill="black" stroke="black" points="391.418,-409.5 381.418,-413 391.418,-416.5 391.418,-409.5"/>
</g>
<!-- cluster_cluster_cluster_&#45;2202121249019829706&#45;47978019153175722133963617121611033797&#45;4779657526738643707&#45;&gt;cluster_cluster_cluster_&#45;2202121249019829706&#45;479780191531757221339636171216110337974298277636058170859 -->
<g id="edge18" class="edge"><title>cluster_cluster_cluster_&#45;2202121249019829706&#45;47978019153175722133963617121611033797&#45;4779657526738643707&#45;&gt;cluster_cluster_cluster_&#45;2202121249019829706&#45;479780191531757221339636171216110337974298277636058170859</title>
<path fill="none" stroke="black" d="M91,-394.762C91,-394.762 91,-297.09 91,-297.09"/>
<polygon fill="black" stroke="black" points="94.5001,-297.09 91,-287.09 87.5001,-297.09 94.5001,-297.09"/>
</g>
</g>
</svg>
