<?xml version="1.0" encoding="UTF-8" standalone="no"?>
<!DOCTYPE svg PUBLIC "-//W3C//DTD SVG 1.1//EN"
 "http://www.w3.org/Graphics/SVG/1.1/DTD/svg11.dtd">
<!-- Generated by graphviz version 2.38.0 (20140413.2041)
 -->
<!-- Title: cluster_ECTM&#45;wltp_l errors Pages: 1 -->
<svg width="558pt" height="622pt"
 viewBox="0.00 0.00 558.00 622.00" xmlns="http://www.w3.org/2000/svg" xmlns:xlink="http://www.w3.org/1999/xlink">
<g id="graph0" class="graph" transform="scale(1 1) rotate(0) translate(4 618)">
<title>cluster_ECTM&#45;wltp_l errors</title>
<polygon fill="white" stroke="none" points="-4,4 -4,-618 554,-618 554,4 -4,4"/>
<text text-anchor="start" x="217.5" y="-7.8" font-family="Times New Roman,serif" font-size="14.00">ECTM&#45;wltp_l errors</text>
<!-- cluster_cluster_cluster_&#45;2202121249019829706&#45;4797801915317572213489825052519576868777532400 -->
<g id="node1" class="node"><title>cluster_cluster_cluster_&#45;2202121249019829706&#45;4797801915317572213489825052519576868777532400</title>
<g id="a_node1"><a xlink:title="start">
<polygon fill="red" stroke="black" points="146.683,-572.049 148.459,-572.148 150.216,-572.295 151.948,-572.491 153.648,-572.735 155.308,-573.027 156.923,-573.364 158.485,-573.748 159.989,-574.176 161.429,-574.647 162.8,-575.161 164.098,-575.715 165.317,-576.308 166.455,-576.939 167.507,-577.605 168.472,-578.306 169.346,-579.039 170.127,-579.801 170.815,-580.592 171.408,-581.408 171.906,-582.248 172.309,-583.109 172.617,-583.989 172.832,-584.886 172.956,-585.797 172.989,-586.719 172.934,-587.65 172.794,-588.587 172.571,-589.529 172.269,-590.471 171.89,-591.413 171.439,-592.35 170.918,-593.281 170.332,-594.203 169.685,-595.114 168.981,-596.011 168.223,-596.891 167.415,-597.752 166.561,-598.592 165.666,-599.408 164.732,-600.199 163.764,-600.961 162.764,-601.694 161.737,-602.395 160.684,-603.061 159.61,-603.692 158.516,-604.285 157.405,-604.839 156.28,-605.353 155.142,-605.824 153.994,-606.252 152.837,-606.636 151.672,-606.973 150.501,-607.265 149.325,-607.509 148.145,-607.705 146.963,-607.852 145.779,-607.951 144.593,-608 143.407,-608 142.221,-607.951 141.037,-607.852 139.855,-607.705 138.675,-607.509 137.499,-607.265 136.328,-606.973 135.163,-606.636 134.006,-606.252 132.858,-605.824 131.72,-605.353 130.595,-604.839 129.484,-604.285 128.39,-603.692 127.316,-603.061 126.263,-602.395 125.236,-601.694 124.236,-600.961 123.268,-600.199 122.334,-599.408 121.439,-598.592 120.585,-597.752 119.777,-596.891 119.019,-596.011 118.315,-595.114 117.668,-594.203 117.082,-593.281 116.561,-592.35 116.11,-591.413 115.731,-590.471 115.429,-589.529 115.206,-588.587 115.066,-587.65 115.011,-586.719 115.044,-585.797 115.168,-584.886 115.383,-583.989 115.691,-583.109 116.094,-582.248 116.592,-581.408 117.185,-580.592 117.873,-579.801 118.654,-579.039 119.528,-578.306 120.493,-577.605 121.545,-576.939 122.683,-576.308 123.902,-575.715 125.2,-575.161 126.571,-574.647 128.011,-574.176 129.515,-573.748 131.077,-573.364 132.692,-573.027 134.352,-572.735 136.052,-572.491 137.784,-572.295 139.541,-572.148 141.317,-572.049 143.105,-572 144.895,-572 146.683,-572.049"/>
<text text-anchor="middle" x="144" y="-586.3" font-family="Times New Roman,serif" font-size="14.00">start</text>
</a>
</g>
</g>
<!-- cluster_cluster_cluster_&#45;2202121249019829706&#45;47978019153175722134898250525195768687&#45;3431188338771875485 -->
<g id="node10" class="node"><title>cluster_cluster_cluster_&#45;2202121249019829706&#45;47978019153175722134898250525195768687&#45;3431188338771875485</title>
<g id="a_node10"><a xlink:title="error_settings">
<path fill="cyan" stroke="black" d="M230.5,-215C230.5,-215 157.5,-215 157.5,-215 151.5,-215 145.5,-209 145.5,-203 145.5,-203 145.5,-179 145.5,-179 145.5,-173 151.5,-167 157.5,-167 157.5,-167 230.5,-167 230.5,-167 236.5,-167 242.5,-173 242.5,-179 242.5,-179 242.5,-203 242.5,-203 242.5,-209 236.5,-215 230.5,-215"/>
<text text-anchor="start" x="156" y="-197.8" font-family="Times New Roman,serif" font-size="14.00">error_settings</text>
<polygon fill="none" stroke="black" points="154,-171 154,-192 210,-192 210,-171 154,-171"/>
<text text-anchor="start" x="161" y="-177.8" font-family="Times New Roman,serif" font-size="14.00">default=</text>
<polygon fill="none" stroke="black" points="210,-171 210,-192 235,-192 235,-171 210,-171"/>
<text text-anchor="start" x="213" y="-177.8" font-family="Times New Roman,serif" font-size="14.00">{}</text>
</a>
</g>
</g>
<!-- cluster_cluster_cluster_&#45;2202121249019829706&#45;4797801915317572213489825052519576868777532400&#45;&gt;cluster_cluster_cluster_&#45;2202121249019829706&#45;47978019153175722134898250525195768687&#45;3431188338771875485 -->
<g id="edge13" class="edge"><title>cluster_cluster_cluster_&#45;2202121249019829706&#45;4797801915317572213489825052519576868777532400&#45;&gt;cluster_cluster_cluster_&#45;2202121249019829706&#45;47978019153175722134898250525195768687&#45;3431188338771875485</title>
<path fill="none" stroke="black" d="M154.5,-572.855C154.5,-572.855 154.5,-225.098 154.5,-225.098"/>
<polygon fill="black" stroke="black" points="158,-225.098 154.5,-215.098 151,-225.098 158,-225.098"/>
<polygon fill="none" stroke="black" points="155,-398.477 155,-419.477 205,-419.477 205,-398.477 155,-398.477"/>
<text text-anchor="start" x="158" y="-405.277" font-family="Times New Roman,serif" font-size="14.00">inp_id=</text>
<polygon fill="none" stroke="black" points="205,-398.477 205,-419.477 218,-419.477 218,-398.477 205,-398.477"/>
<text text-anchor="start" x="208" y="-405.277" font-family="Times New Roman,serif" font-size="14.00">0</text>
</g>
<!-- cluster_cluster_cluster_&#45;2202121249019829706&#45;479780191531757221348982505251957686874712647501736754553 -->
<g id="node15" class="node"><title>cluster_cluster_cluster_&#45;2202121249019829706&#45;479780191531757221348982505251957686874712647501736754553</title>
<g id="a_node15"><a xlink:title="A sequence of data.">
<path fill="cyan" stroke="black" d="M103,-431C103,-431 67,-431 67,-431 61,-431 55,-425 55,-419 55,-419 55,-407 55,-407 55,-401 61,-395 67,-395 67,-395 103,-395 103,-395 109,-395 115,-401 115,-407 115,-407 115,-419 115,-419 115,-425 109,-431 103,-431"/>
<text text-anchor="start" x="65.5" y="-408.8" font-family="Times New Roman,serif" font-size="14.00">wltp_h</text>
</a>
</g>
</g>
<!-- cluster_cluster_cluster_&#45;2202121249019829706&#45;4797801915317572213489825052519576868777532400&#45;&gt;cluster_cluster_cluster_&#45;2202121249019829706&#45;479780191531757221348982505251957686874712647501736754553 -->
<g id="edge14" class="edge"><title>cluster_cluster_cluster_&#45;2202121249019829706&#45;4797801915317572213489825052519576868777532400&#45;&gt;cluster_cluster_cluster_&#45;2202121249019829706&#45;479780191531757221348982505251957686874712647501736754553</title>
<path fill="none" stroke="black" d="M121.5,-576.696C121.5,-535.533 121.5,-413 121.5,-413 121.5,-413 120.864,-413 120.864,-413"/>
<polygon fill="black" stroke="black" points="125.142,-409.5 115.142,-413 125.142,-416.5 125.142,-409.5"/>
<polygon fill="none" stroke="black" points="59,-494.03 59,-515.03 109,-515.03 109,-494.03 59,-494.03"/>
<text text-anchor="start" x="62" y="-500.83" font-family="Times New Roman,serif" font-size="14.00">inp_id=</text>
<polygon fill="none" stroke="black" points="109,-494.03 109,-515.03 122,-515.03 122,-494.03 109,-494.03"/>
<text text-anchor="start" x="112" y="-500.83" font-family="Times New Roman,serif" font-size="14.00">2</text>
</g>
<!-- cluster_cluster_cluster_&#45;2202121249019829706&#45;47978019153175722134898250525195768687&#45;4779657526738643707 -->
<g id="node16" class="node"><title>cluster_cluster_cluster_&#45;2202121249019829706&#45;47978019153175722134898250525195768687&#45;4779657526738643707</title>
<g id="a_node16"><a xlink:title="A sequence of data.">
<path fill="cyan" stroke="black" d="M538,-516.5C538,-516.5 506,-516.5 506,-516.5 500,-516.5 494,-510.5 494,-504.5 494,-504.5 494,-492.5 494,-492.5 494,-486.5 500,-480.5 506,-480.5 506,-480.5 538,-480.5 538,-480.5 544,-480.5 550,-486.5 550,-492.5 550,-492.5 550,-504.5 550,-504.5 550,-510.5 544,-516.5 538,-516.5"/>
<text text-anchor="start" x="504.5" y="-494.3" font-family="Times New Roman,serif" font-size="14.00">wltp_l</text>
</a>
</g>
</g>
<!-- cluster_cluster_cluster_&#45;2202121249019829706&#45;4797801915317572213489825052519576868777532400&#45;&gt;cluster_cluster_cluster_&#45;2202121249019829706&#45;47978019153175722134898250525195768687&#45;4779657526738643707 -->
<g id="edge15" class="edge"><title>cluster_cluster_cluster_&#45;2202121249019829706&#45;4797801915317572213489825052519576868777532400&#45;&gt;cluster_cluster_cluster_&#45;2202121249019829706&#45;47978019153175722134898250525195768687&#45;4779657526738643707</title>
<path fill="none" stroke="black" d="M163.5,-575.31C163.5,-563.199 163.5,-548 163.5,-548 163.5,-548 522,-548 522,-548 522,-548 522,-526.651 522,-526.651"/>
<polygon fill="black" stroke="black" points="525.5,-526.651 522,-516.651 518.5,-526.651 525.5,-526.651"/>
<polygon fill="none" stroke="black" points="340.269,-547.5 340.269,-568.5 390.269,-568.5 390.269,-547.5 340.269,-547.5"/>
<text text-anchor="start" x="343.269" y="-554.3" font-family="Times New Roman,serif" font-size="14.00">inp_id=</text>
<polygon fill="none" stroke="black" points="390.269,-547.5 390.269,-568.5 403.269,-568.5 403.269,-547.5 390.269,-547.5"/>
<text text-anchor="start" x="393.269" y="-554.3" font-family="Times New Roman,serif" font-size="14.00">1</text>
</g>
<!-- cluster_cluster_cluster_&#45;2202121249019829706&#45;47978019153175722134898250525195768687&#45;2181095411792409824 -->
<g id="node2" class="node"><title>cluster_cluster_cluster_&#45;2202121249019829706&#45;47978019153175722134898250525195768687&#45;2181095411792409824</title>
<g id="a_node2"><a xlink:title="A sequence of data.">
<path fill="cyan" stroke="black" d="M369,-359C369,-359 269,-359 269,-359 263,-359 257,-353 257,-347 257,-347 257,-335 257,-335 257,-329 263,-323 269,-323 269,-323 369,-323 369,-323 375,-323 381,-329 381,-335 381,-335 381,-347 381,-347 381,-353 375,-359 369,-359"/>
<text text-anchor="start" x="267.5" y="-336.8" font-family="Times New Roman,serif" font-size="14.00">calibrated_models</text>
</a>
</g>
</g>
<!-- cluster_cluster_cluster_&#45;2202121249019829706&#45;47978019153175722134898250525195768687&#45;7067757294929678007 -->
<g id="node3" class="node"><title>cluster_cluster_cluster_&#45;2202121249019829706&#45;47978019153175722134898250525195768687&#45;7067757294929678007</title>
<g id="a_node3"><a xlink:href="./../alternator_model_selector/AM-wltp_h_errors/co2mpas.dispatcher.utils.dspmap_list.txt" xlink:title="Returns a new dict.">
<polygon fill="springgreen" stroke="black" points="116,-287 48,-287 48,-251 116,-251 116,-287"/>
<text text-anchor="start" x="58" y="-264.8" font-family="Times New Roman,serif" font-size="14.00">map_list</text>
</a>
</g>
</g>
<!-- cluster_cluster_cluster_&#45;2202121249019829706&#45;47978019153175722134898250525195768687&#45;2181095411792409824&#45;&gt;cluster_cluster_cluster_&#45;2202121249019829706&#45;47978019153175722134898250525195768687&#45;7067757294929678007 -->
<g id="edge1" class="edge"><title>cluster_cluster_cluster_&#45;2202121249019829706&#45;47978019153175722134898250525195768687&#45;2181095411792409824&#45;&gt;cluster_cluster_cluster_&#45;2202121249019829706&#45;47978019153175722134898250525195768687&#45;7067757294929678007</title>
<path fill="none" stroke="black" d="M261.5,-322.831C261.5,-301.502 261.5,-269 261.5,-269 261.5,-269 126.185,-269 126.185,-269"/>
<polygon fill="black" stroke="black" points="126.185,-265.5 116.185,-269 126.185,-272.5 126.185,-265.5"/>
</g>
<!-- cluster_cluster_cluster_&#45;2202121249019829706&#45;479780191531757221348982505251957686874298277636058170859 -->
<g id="node4" class="node"><title>cluster_cluster_cluster_&#45;2202121249019829706&#45;479780191531757221348982505251957686874298277636058170859</title>
<g id="a_node4"><a xlink:href="./../alternator_model_selector/AM-wltp_h_errors/co2mpas.dispatcher.utils.dspmap_list.txt" xlink:title="Returns a new dict.">
<polygon fill="springgreen" stroke="black" points="365,-287 273,-287 273,-251 365,-251 365,-287"/>
<text text-anchor="start" x="283.5" y="-264.8" font-family="Times New Roman,serif" font-size="14.00">map_list&lt;0&gt;</text>
</a>
</g>
</g>
<!-- cluster_cluster_cluster_&#45;2202121249019829706&#45;47978019153175722134898250525195768687&#45;2181095411792409824&#45;&gt;cluster_cluster_cluster_&#45;2202121249019829706&#45;479780191531757221348982505251957686874298277636058170859 -->
<g id="edge2" class="edge"><title>cluster_cluster_cluster_&#45;2202121249019829706&#45;47978019153175722134898250525195768687&#45;2181095411792409824&#45;&gt;cluster_cluster_cluster_&#45;2202121249019829706&#45;479780191531757221348982505251957686874298277636058170859</title>
<path fill="none" stroke="black" d="M319,-322.831C319,-322.831 319,-297.413 319,-297.413"/>
<polygon fill="black" stroke="black" points="322.5,-297.413 319,-287.413 315.5,-297.413 322.5,-297.413"/>
</g>
<!-- cluster_cluster_cluster_&#45;2202121249019829706&#45;479780191531757221348982505251957686877702748476113788344 -->
<g id="node11" class="node"><title>cluster_cluster_cluster_&#45;2202121249019829706&#45;479780191531757221348982505251957686877702748476113788344</title>
<g id="a_node11"><a xlink:title="A unique dict with new values.">
<path fill="cyan" stroke="black" d="M115,-209C115,-209 49,-209 49,-209 43,-209 37,-203 37,-197 37,-197 37,-185 37,-185 37,-179 43,-173 49,-173 49,-173 115,-173 115,-173 121,-173 127,-179 127,-185 127,-185 127,-197 127,-197 127,-203 121,-209 115,-209"/>
<text text-anchor="start" x="47" y="-186.8" font-family="Times New Roman,serif" font-size="14.00">input/wltp_h</text>
</a>
</g>
</g>
<!-- cluster_cluster_cluster_&#45;2202121249019829706&#45;47978019153175722134898250525195768687&#45;7067757294929678007&#45;&gt;cluster_cluster_cluster_&#45;2202121249019829706&#45;479780191531757221348982505251957686877702748476113788344 -->
<g id="edge3" class="edge"><title>cluster_cluster_cluster_&#45;2202121249019829706&#45;47978019153175722134898250525195768687&#45;7067757294929678007&#45;&gt;cluster_cluster_cluster_&#45;2202121249019829706&#45;479780191531757221348982505251957686877702748476113788344</title>
<path fill="none" stroke="black" d="M82,-250.909C82,-250.909 82,-219.263 82,-219.263"/>
<polygon fill="black" stroke="black" points="85.5001,-219.263 82,-209.263 78.5001,-219.263 85.5001,-219.263"/>
</g>
<!-- cluster_cluster_cluster_&#45;2202121249019829706&#45;479780191531757221348982505251957686874919105944985796052 -->
<g id="node12" class="node"><title>cluster_cluster_cluster_&#45;2202121249019829706&#45;479780191531757221348982505251957686874919105944985796052</title>
<g id="a_node12"><a xlink:title="A unique dict with new values.">
<path fill="cyan" stroke="black" d="M342,-209C342,-209 278,-209 278,-209 272,-209 266,-203 266,-197 266,-197 266,-185 266,-185 266,-179 272,-173 278,-173 278,-173 342,-173 342,-173 348,-173 354,-179 354,-185 354,-185 354,-197 354,-197 354,-203 348,-209 342,-209"/>
<text text-anchor="start" x="276.5" y="-186.8" font-family="Times New Roman,serif" font-size="14.00">input/wltp_l</text>
</a>
</g>
</g>
<!-- cluster_cluster_cluster_&#45;2202121249019829706&#45;479780191531757221348982505251957686874298277636058170859&#45;&gt;cluster_cluster_cluster_&#45;2202121249019829706&#45;479780191531757221348982505251957686874919105944985796052 -->
<g id="edge4" class="edge"><title>cluster_cluster_cluster_&#45;2202121249019829706&#45;479780191531757221348982505251957686874298277636058170859&#45;&gt;cluster_cluster_cluster_&#45;2202121249019829706&#45;479780191531757221348982505251957686874919105944985796052</title>
<path fill="none" stroke="black" d="M313.5,-250.909C313.5,-250.909 313.5,-219.263 313.5,-219.263"/>
<polygon fill="black" stroke="black" points="317,-219.263 313.5,-209.263 310,-219.263 317,-219.263"/>
</g>
<!-- cluster_cluster_cluster_&#45;2202121249019829706&#45;47978019153175722134898250525195768687&#45;5399583351982059936 -->
<g id="node5" class="node"><title>cluster_cluster_cluster_&#45;2202121249019829706&#45;47978019153175722134898250525195768687&#45;5399583351982059936</title>
<g id="a_node5"><a xlink:href="./ECTM-wltp_l_errors/ECTM-wltp_l_error_vs_wltp_h.gv.svg" xlink:title="Calculates the error of calibrated model of a reference.">
<polygon fill="yellow" stroke="black" points="182,-131 -1.42109e-014,-131 -1.42109e-014,-95 188,-95 188,-125 182,-131"/>
<polyline fill="none" stroke="black" points="182,-131 182,-125 "/>
<polyline fill="none" stroke="black" points="188,-125 182,-125 "/>
<text text-anchor="start" x="10" y="-108.8" font-family="Times New Roman,serif" font-size="14.00">ECTM&#45;wltp_l error vs wltp_h</text>
</a>
</g>
</g>
<!-- cluster_cluster_cluster_&#45;2202121249019829706&#45;47978019153175722134898250525195768687&#45;2427563387242055365 -->
<g id="node8" class="node"><title>cluster_cluster_cluster_&#45;2202121249019829706&#45;47978019153175722134898250525195768687&#45;2427563387242055365</title>
<g id="a_node8"><a xlink:title="error/wltp_h">
<path fill="cyan" stroke="black" d="M127,-59C127,-59 61,-59 61,-59 55,-59 49,-53 49,-47 49,-47 49,-35 49,-35 49,-29 55,-23 61,-23 61,-23 127,-23 127,-23 133,-23 139,-29 139,-35 139,-35 139,-47 139,-47 139,-53 133,-59 127,-59"/>
<text text-anchor="start" x="59" y="-36.8" font-family="Times New Roman,serif" font-size="14.00">error/wltp_h</text>
</a>
</g>
</g>
<!-- cluster_cluster_cluster_&#45;2202121249019829706&#45;47978019153175722134898250525195768687&#45;5399583351982059936&#45;&gt;cluster_cluster_cluster_&#45;2202121249019829706&#45;47978019153175722134898250525195768687&#45;2427563387242055365 -->
<g id="edge5" class="edge"><title>cluster_cluster_cluster_&#45;2202121249019829706&#45;47978019153175722134898250525195768687&#45;5399583351982059936&#45;&gt;cluster_cluster_cluster_&#45;2202121249019829706&#45;47978019153175722134898250525195768687&#45;2427563387242055365</title>
<path fill="none" stroke="black" d="M94,-94.8314C94,-94.8314 94,-69.4133 94,-69.4133"/>
<polygon fill="black" stroke="black" points="97.5001,-69.4132 94,-59.4133 90.5001,-69.4133 97.5001,-69.4132"/>
</g>
<!-- cluster_cluster_cluster_&#45;2202121249019829706&#45;479780191531757221348982505251957686877116738889880361451 -->
<g id="node6" class="node"><title>cluster_cluster_cluster_&#45;2202121249019829706&#45;479780191531757221348982505251957686877116738889880361451</title>
<g id="a_node6"><a xlink:href="./ECTM-wltp_l_errors/ECTM-wltp_l_error_vs_wltp_l.gv.svg" xlink:title="Calculates the error of calibrated model of a reference.">
<polygon fill="yellow" stroke="black" points="390,-131 212,-131 212,-95 396,-95 396,-125 390,-131"/>
<polyline fill="none" stroke="black" points="390,-131 390,-125 "/>
<polyline fill="none" stroke="black" points="396,-125 390,-125 "/>
<text text-anchor="start" x="222" y="-108.8" font-family="Times New Roman,serif" font-size="14.00">ECTM&#45;wltp_l error vs wltp_l</text>
</a>
</g>
</g>
<!-- cluster_cluster_cluster_&#45;2202121249019829706&#45;47978019153175722134898250525195768687&#45;7302022848986384642 -->
<g id="node9" class="node"><title>cluster_cluster_cluster_&#45;2202121249019829706&#45;47978019153175722134898250525195768687&#45;7302022848986384642</title>
<g id="a_node9"><a xlink:title="error/wltp_l">
<path fill="cyan" stroke="black" d="M335,-59C335,-59 273,-59 273,-59 267,-59 261,-53 261,-47 261,-47 261,-35 261,-35 261,-29 267,-23 273,-23 273,-23 335,-23 335,-23 341,-23 347,-29 347,-35 347,-35 347,-47 347,-47 347,-53 341,-59 335,-59"/>
<text text-anchor="start" x="271" y="-36.8" font-family="Times New Roman,serif" font-size="14.00">error/wltp_l</text>
</a>
</g>
</g>
<!-- cluster_cluster_cluster_&#45;2202121249019829706&#45;479780191531757221348982505251957686877116738889880361451&#45;&gt;cluster_cluster_cluster_&#45;2202121249019829706&#45;47978019153175722134898250525195768687&#45;7302022848986384642 -->
<g id="edge6" class="edge"><title>cluster_cluster_cluster_&#45;2202121249019829706&#45;479780191531757221348982505251957686877116738889880361451&#45;&gt;cluster_cluster_cluster_&#45;2202121249019829706&#45;47978019153175722134898250525195768687&#45;7302022848986384642</title>
<path fill="none" stroke="black" d="M304,-94.8314C304,-94.8314 304,-69.4133 304,-69.4133"/>
<polygon fill="black" stroke="black" points="307.5,-69.4132 304,-59.4133 300.5,-69.4133 307.5,-69.4132"/>
</g>
<!-- cluster_cluster_cluster_&#45;2202121249019829706&#45;47978019153175722134898250525195768687&#45;1177382896934224609 -->
<g id="node7" class="node"><title>cluster_cluster_cluster_&#45;2202121249019829706&#45;47978019153175722134898250525195768687&#45;1177382896934224609</title>
<g id="a_node7"><a xlink:title="data_in">
<path fill="cyan" stroke="black" d="M287.5,-614C287.5,-614 202.5,-614 202.5,-614 196.5,-614 190.5,-608 190.5,-602 190.5,-602 190.5,-578 190.5,-578 190.5,-572 196.5,-566 202.5,-566 202.5,-566 287.5,-566 287.5,-566 293.5,-566 299.5,-572 299.5,-578 299.5,-578 299.5,-602 299.5,-602 299.5,-608 293.5,-614 287.5,-614"/>
<text text-anchor="start" x="225" y="-596.8" font-family="Times New Roman,serif" font-size="14.00">data_in</text>
<polygon fill="none" stroke="black" points="199,-570 199,-591 251,-591 251,-570 199,-570"/>
<text text-anchor="start" x="202" y="-576.8" font-family="Times New Roman,serif" font-size="14.00">default=</text>
<polygon fill="none" stroke="black" points="251,-570 251,-591 292,-591 292,-570 251,-570"/>
<text text-anchor="start" x="254" y="-576.8" font-family="Times New Roman,serif" font-size="14.00">wltp_l</text>
</a>
</g>
</g>
<!-- cluster_cluster_cluster_&#45;2202121249019829706&#45;47978019153175722134898250525195768687&#45;3431188338771875485&#45;&gt;cluster_cluster_cluster_&#45;2202121249019829706&#45;47978019153175722134898250525195768687&#45;5399583351982059936 -->
<g id="edge7" class="edge"><title>cluster_cluster_cluster_&#45;2202121249019829706&#45;47978019153175722134898250525195768687&#45;3431188338771875485&#45;&gt;cluster_cluster_cluster_&#45;2202121249019829706&#45;47978019153175722134898250525195768687&#45;5399583351982059936</title>
<path fill="none" stroke="black" d="M166.75,-166.748C166.75,-166.748 166.75,-141.288 166.75,-141.288"/>
<polygon fill="black" stroke="black" points="170.25,-141.287 166.75,-131.288 163.25,-141.288 170.25,-141.287"/>
</g>
<!-- cluster_cluster_cluster_&#45;2202121249019829706&#45;47978019153175722134898250525195768687&#45;3431188338771875485&#45;&gt;cluster_cluster_cluster_&#45;2202121249019829706&#45;479780191531757221348982505251957686877116738889880361451 -->
<g id="edge8" class="edge"><title>cluster_cluster_cluster_&#45;2202121249019829706&#45;47978019153175722134898250525195768687&#45;3431188338771875485&#45;&gt;cluster_cluster_cluster_&#45;2202121249019829706&#45;479780191531757221348982505251957686877116738889880361451</title>
<path fill="none" stroke="black" d="M227.25,-166.748C227.25,-166.748 227.25,-141.288 227.25,-141.288"/>
<polygon fill="black" stroke="black" points="230.75,-141.287 227.25,-131.288 223.75,-141.288 230.75,-141.287"/>
</g>
<!-- cluster_cluster_cluster_&#45;2202121249019829706&#45;479780191531757221348982505251957686877702748476113788344&#45;&gt;cluster_cluster_cluster_&#45;2202121249019829706&#45;47978019153175722134898250525195768687&#45;5399583351982059936 -->
<g id="edge9" class="edge"><title>cluster_cluster_cluster_&#45;2202121249019829706&#45;479780191531757221348982505251957686877702748476113788344&#45;&gt;cluster_cluster_cluster_&#45;2202121249019829706&#45;47978019153175722134898250525195768687&#45;5399583351982059936</title>
<path fill="none" stroke="black" d="M82,-172.909C82,-172.909 82,-141.263 82,-141.263"/>
<polygon fill="black" stroke="black" points="85.5001,-141.263 82,-131.263 78.5001,-141.263 85.5001,-141.263"/>
</g>
<!-- cluster_cluster_cluster_&#45;2202121249019829706&#45;479780191531757221348982505251957686874919105944985796052&#45;&gt;cluster_cluster_cluster_&#45;2202121249019829706&#45;479780191531757221348982505251957686877116738889880361451 -->
<g id="edge10" class="edge"><title>cluster_cluster_cluster_&#45;2202121249019829706&#45;479780191531757221348982505251957686874919105944985796052&#45;&gt;cluster_cluster_cluster_&#45;2202121249019829706&#45;479780191531757221348982505251957686877116738889880361451</title>
<path fill="none" stroke="black" d="M310,-172.909C310,-172.909 310,-141.263 310,-141.263"/>
<polygon fill="black" stroke="black" points="313.5,-141.263 310,-131.263 306.5,-141.263 313.5,-141.263"/>
</g>
<!-- cluster_cluster_cluster_&#45;2202121249019829706&#45;47978019153175722134898250525195768687&#45;3274255707223734200 -->
<g id="node13" class="node"><title>cluster_cluster_cluster_&#45;2202121249019829706&#45;47978019153175722134898250525195768687&#45;3274255707223734200</title>
<g id="a_node13"><a xlink:title="Keys to select.">
<path fill="cyan" stroke="black" d="M463.5,-530C463.5,-530 184.5,-530 184.5,-530 178.5,-530 172.5,-524 172.5,-518 172.5,-518 172.5,-479 172.5,-479 172.5,-473 178.5,-467 184.5,-467 184.5,-467 463.5,-467 463.5,-467 469.5,-467 475.5,-473 475.5,-479 475.5,-479 475.5,-518 475.5,-518 475.5,-524 469.5,-530 463.5,-530"/>
<text text-anchor="start" x="304" y="-512.3" font-family="Times New Roman,serif" font-size="14.00">models</text>
<polygon fill="none" stroke="black" points="181,-470.5 181,-506.5 233,-506.5 233,-470.5 181,-470.5"/>
<text text-anchor="start" x="184" y="-484.8" font-family="Times New Roman,serif" font-size="14.00">default=</text>
<polygon fill="none" stroke="black" points="233,-470.5 233,-506.5 468,-506.5 468,-470.5 233,-470.5"/>
<text text-anchor="start" x="236" y="-492.3" font-family="Times New Roman,serif" font-size="14.00">[&#39;engine_temperature_regression_model&#39;,</text>
<text text-anchor="start" x="249.5" y="-477.3" font-family="Times New Roman,serif" font-size="14.00"> &#39;max_engine_coolant_temperature&#39;]</text>
</a>
</g>
</g>
<!-- cluster_cluster_cluster_&#45;2202121249019829706&#45;47978019153175722134898250525195768687&#45;8800720961443810657 -->
<g id="node14" class="node"><title>cluster_cluster_cluster_&#45;2202121249019829706&#45;47978019153175722134898250525195768687&#45;8800720961443810657</title>
<g id="a_node14"><a xlink:href="./../alternator_model_selector/AM-wltp_h_errors/AM-wltp_h_error_vs_wltp_h/select_inputs0.txt" xlink:title="Selects the chosen dictionary keys from the given dictionary.">
<polygon fill="springgreen" stroke="black" points="374,-431 274,-431 274,-395 374,-395 374,-431"/>
<text text-anchor="start" x="284" y="-408.8" font-family="Times New Roman,serif" font-size="14.00">select_models</text>
</a>
</g>
</g>
<!-- cluster_cluster_cluster_&#45;2202121249019829706&#45;47978019153175722134898250525195768687&#45;3274255707223734200&#45;&gt;cluster_cluster_cluster_&#45;2202121249019829706&#45;47978019153175722134898250525195768687&#45;8800720961443810657 -->
<g id="edge11" class="edge"><title>cluster_cluster_cluster_&#45;2202121249019829706&#45;47978019153175722134898250525195768687&#45;3274255707223734200&#45;&gt;cluster_cluster_cluster_&#45;2202121249019829706&#45;47978019153175722134898250525195768687&#45;8800720961443810657</title>
<path fill="none" stroke="black" d="M324,-466.663C324,-466.663 324,-441.204 324,-441.204"/>
<polygon fill="black" stroke="black" points="327.5,-441.204 324,-431.204 320.5,-441.204 327.5,-441.204"/>
</g>
<!-- cluster_cluster_cluster_&#45;2202121249019829706&#45;47978019153175722134898250525195768687&#45;8800720961443810657&#45;&gt;cluster_cluster_cluster_&#45;2202121249019829706&#45;47978019153175722134898250525195768687&#45;2181095411792409824 -->
<g id="edge12" class="edge"><title>cluster_cluster_cluster_&#45;2202121249019829706&#45;47978019153175722134898250525195768687&#45;8800720961443810657&#45;&gt;cluster_cluster_cluster_&#45;2202121249019829706&#45;47978019153175722134898250525195768687&#45;2181095411792409824</title>
<path fill="none" stroke="black" d="M324,-394.831C324,-394.831 324,-369.413 324,-369.413"/>
<polygon fill="black" stroke="black" points="327.5,-369.413 324,-359.413 320.5,-369.413 327.5,-369.413"/>
</g>
<!-- cluster_cluster_cluster_&#45;2202121249019829706&#45;479780191531757221348982505251957686874712647501736754553&#45;&gt;cluster_cluster_cluster_&#45;2202121249019829706&#45;47978019153175722134898250525195768687&#45;7067757294929678007 -->
<g id="edge16" class="edge"><title>cluster_cluster_cluster_&#45;2202121249019829706&#45;479780191531757221348982505251957686874712647501736754553&#45;&gt;cluster_cluster_cluster_&#45;2202121249019829706&#45;47978019153175722134898250525195768687&#45;7067757294929678007</title>
<path fill="none" stroke="black" d="M85,-394.762C85,-394.762 85,-297.09 85,-297.09"/>
<polygon fill="black" stroke="black" points="88.5001,-297.09 85,-287.09 81.5001,-297.09 88.5001,-297.09"/>
</g>
<!-- cluster_cluster_cluster_&#45;2202121249019829706&#45;47978019153175722134898250525195768687&#45;4779657526738643707&#45;&gt;cluster_cluster_cluster_&#45;2202121249019829706&#45;479780191531757221348982505251957686874298277636058170859 -->
<g id="edge17" class="edge"><title>cluster_cluster_cluster_&#45;2202121249019829706&#45;47978019153175722134898250525195768687&#45;4779657526738643707&#45;&gt;cluster_cluster_cluster_&#45;2202121249019829706&#45;479780191531757221348982505251957686874298277636058170859</title>
<path fill="none" stroke="black" d="M531.333,-480.492C531.333,-426.389 531.333,-269 531.333,-269 531.333,-269 375.073,-269 375.073,-269"/>
<polygon fill="black" stroke="black" points="375.073,-265.5 365.073,-269 375.073,-272.5 375.073,-265.5"/>
</g>
<!-- cluster_cluster_cluster_&#45;2202121249019829706&#45;47978019153175722134898250525195768687&#45;4779657526738643707&#45;&gt;cluster_cluster_cluster_&#45;2202121249019829706&#45;47978019153175722134898250525195768687&#45;8800720961443810657 -->
<g id="edge18" class="edge"><title>cluster_cluster_cluster_&#45;2202121249019829706&#45;47978019153175722134898250525195768687&#45;4779657526738643707&#45;&gt;cluster_cluster_cluster_&#45;2202121249019829706&#45;47978019153175722134898250525195768687&#45;8800720961443810657</title>
<path fill="none" stroke="black" d="M512.667,-480.368C512.667,-455.27 512.667,-413 512.667,-413 512.667,-413 384.064,-413 384.064,-413"/>
<polygon fill="black" stroke="black" points="384.064,-409.5 374.064,-413 384.064,-416.5 384.064,-409.5"/>
</g>
</g>
</svg>
