<?xml version="1.0" encoding="UTF-8"?>
<!DOCTYPE svg PUBLIC "-//W3C//DTD SVG 1.1//EN" "http://www.w3.org/Graphics/SVG/1.1/DTD/svg11.dtd">
<svg version="1.2" width="299.52mm" height="75.35mm" viewBox="-2 0 29952 7535" preserveAspectRatio="xMidYMid" fill-rule="evenodd" stroke-width="28.222" stroke-linejoin="round" xmlns="http://www.w3.org/2000/svg" xmlns:ooo="http://xml.openoffice.org/svg/export" xmlns:xlink="http://www.w3.org/1999/xlink" xmlns:presentation="http://sun.com/xmlns/staroffice/presentation" xmlns:smil="http://www.w3.org/2001/SMIL20/" xmlns:anim="urn:oasis:names:tc:opendocument:xmlns:animation:1.0" xml:space="preserve">
 <defs class="ClipPathGroup">
  <clipPath id="presentation_clip_path" clipPathUnits="userSpaceOnUse">
   <rect x="-2" y="0" width="29952" height="7535"/>
  </clipPath>
  <clipPath id="presentation_clip_path_shrink" clipPathUnits="userSpaceOnUse">
   <rect x="27" y="7" width="29893" height="7520"/>
  </clipPath>
 </defs>
 <defs class="TextShapeIndex">
  <g ooo:slide="id1" ooo:id-list="id3 id4 id5 id6 id7 id8 id9 id10 id11 id12 id13 id14 id15 id16 id17 id18 id19 id20 id21 id22"/>
 </defs>
 <defs class="EmbeddedBulletChars">
  <g id="bullet-char-template(57356)" transform="scale(0.00048828125,-0.00048828125)">
   <path d="M 580,1141 L 1163,571 580,0 -4,571 580,1141 Z"/>
  </g>
  <g id="bullet-char-template(57354)" transform="scale(0.00048828125,-0.00048828125)">
   <path d="M 8,1128 L 1137,1128 1137,0 8,0 8,1128 Z"/>
  </g>
  <g id="bullet-char-template(10146)" transform="scale(0.00048828125,-0.00048828125)">
   <path d="M 174,0 L 602,739 174,1481 1456,739 174,0 Z M 1358,739 L 309,1346 659,739 1358,739 Z"/>
  </g>
  <g id="bullet-char-template(10132)" transform="scale(0.00048828125,-0.00048828125)">
   <path d="M 2015,739 L 1276,0 717,0 1260,543 174,543 174,936 1260,936 717,1481 1274,1481 2015,739 Z"/>
  </g>
  <g id="bullet-char-template(10007)" transform="scale(0.00048828125,-0.00048828125)">
   <path d="M 0,-2 C -7,14 -16,27 -25,37 L 356,567 C 262,823 215,952 215,954 215,979 228,992 255,992 264,992 276,990 289,987 310,991 331,999 354,1012 L 381,999 492,748 772,1049 836,1024 860,1049 C 881,1039 901,1025 922,1006 886,937 835,863 770,784 769,783 710,716 594,584 L 774,223 C 774,196 753,168 711,139 L 727,119 C 717,90 699,76 672,76 641,76 570,178 457,381 L 164,-76 C 142,-110 111,-127 72,-127 30,-127 9,-110 8,-76 1,-67 -2,-52 -2,-32 -2,-23 -1,-13 0,-2 Z"/>
  </g>
  <g id="bullet-char-template(10004)" transform="scale(0.00048828125,-0.00048828125)">
   <path d="M 285,-33 C 182,-33 111,30 74,156 52,228 41,333 41,471 41,549 55,616 82,672 116,743 169,778 240,778 293,778 328,747 346,684 L 369,508 C 377,444 397,411 428,410 L 1163,1116 C 1174,1127 1196,1133 1229,1133 1271,1133 1292,1118 1292,1087 L 1292,965 C 1292,929 1282,901 1262,881 L 442,47 C 390,-6 338,-33 285,-33 Z"/>
  </g>
  <g id="bullet-char-template(9679)" transform="scale(0.00048828125,-0.00048828125)">
   <path d="M 813,0 C 632,0 489,54 383,161 276,268 223,411 223,592 223,773 276,916 383,1023 489,1130 632,1184 813,1184 992,1184 1136,1130 1245,1023 1353,916 1407,772 1407,592 1407,412 1353,268 1245,161 1136,54 992,0 813,0 Z"/>
  </g>
  <g id="bullet-char-template(8226)" transform="scale(0.00048828125,-0.00048828125)">
   <path d="M 346,457 C 273,457 209,483 155,535 101,586 74,649 74,723 74,796 101,859 155,911 209,963 273,989 346,989 419,989 480,963 531,910 582,859 608,796 608,723 608,648 583,586 532,535 482,483 420,457 346,457 Z"/>
  </g>
  <g id="bullet-char-template(8211)" transform="scale(0.00048828125,-0.00048828125)">
   <path d="M -4,459 L 1135,459 1135,606 -4,606 -4,459 Z"/>
  </g>
  <g id="bullet-char-template(61548)" transform="scale(0.00048828125,-0.00048828125)">
   <path d="M 173,740 C 173,903 231,1043 346,1159 462,1274 601,1332 765,1332 928,1332 1067,1274 1183,1159 1299,1043 1357,903 1357,740 1357,577 1299,437 1183,322 1067,206 928,148 765,148 601,148 462,206 346,322 231,437 173,577 173,740 Z"/>
  </g>
 </defs>
 <defs class="TextEmbeddedBitmaps"/>
 <g class="SlideGroup">
  <g>
   <g id="container-id1">
    <g id="id1" class="Slide" clip-path="url(#presentation_clip_path)">
     <g class="Page">
      <g class="com.sun.star.drawing.PolyPolygonShape">
       <g id="id3">
        <rect class="BoundingBox" stroke="none" fill="none" x="104" y="131" width="29704" height="5649"/>
       </g>
      </g>
      <g class="com.sun.star.drawing.PolyPolygonShape">
       <g id="id4">
        <rect class="BoundingBox" stroke="none" fill="none" x="105" y="133" width="29699" height="5648"/>
       </g>
      </g>
      <g class="com.sun.star.drawing.PolyPolygonShape">
       <g id="id5">
        <rect class="BoundingBox" stroke="none" fill="none" x="105" y="130" width="29738" height="5687"/>
       </g>
      </g>
      <g class="com.sun.star.drawing.ClosedBezierShape">
       <g id="id6">
        <rect class="BoundingBox" stroke="none" fill="none" x="105" y="131" width="29738" height="5686"/>
        <path fill="rgb(238,238,238)" stroke="none" d="M 120,5815 C 81,5279 120,4956 212,4576 236,4472 282,4382 320,4286 436,3973 645,3748 849,3553 1069,3340 1432,3071 1749,2896 2032,2739 2315,2581 2600,2433 2906,2273 3215,2133 3525,1999 3709,1922 4624,1605 5176,1447 5695,1298 6456,1109 6595,1082 6949,1009 7301,954 7656,899 8004,844 8581,757 8700,743 8819,734 10460,518 10542,507 10623,498 11812,359 11888,350 12193,313 12493,288 13048,233 13739,169 14142,141 14648,133 15068,119 15225,173 15587,437 15692,507 18574,2309 19066,2534 19354,2664 19401,2672 20343,2753 20798,2792 22178,2862 23393,2909 23722,2918 26162,3016 26423,3027 27716,3089 27743,3122 28155,3180 28567,3241 29048,3427 29260,3561 29472,3695 29760,3902 29841,4257 L 120,5815 Z"/>
       </g>
      </g>
      <g class="com.sun.star.drawing.PolyPolygonShape">
       <g id="id7">
        <rect class="BoundingBox" stroke="none" fill="none" x="662" y="3344" width="8819" height="4191"/>
       </g>
      </g>
      <g class="com.sun.star.drawing.PolyPolygonShape">
       <g id="id8">
        <rect class="BoundingBox" stroke="none" fill="none" x="662" y="3344" width="8818" height="4191"/>
       </g>
      </g>
      <g class="com.sun.star.drawing.PolyPolygonShape">
       <g id="id9">
        <rect class="BoundingBox" stroke="none" fill="none" x="662" y="3343" width="8817" height="4188"/>
       </g>
      </g>
      <g class="com.sun.star.drawing.ClosedBezierShape">
       <g id="id10">
        <rect class="BoundingBox" stroke="none" fill="none" x="662" y="3343" width="8816" height="4187"/>
        <path fill="rgb(241,194,50)" stroke="none" d="M 3861,4826 L 3716,4916 C 3622,4797 3510,4694 3366,4626 3221,4551 3066,4517 2897,4517 2625,4517 2393,4603 2203,4786 2011,4962 1913,5179 1917,5441 1913,5693 2011,5911 2203,6091 2397,6271 2628,6360 2897,6360 3067,6360 3221,6323 3369,6255 3510,6178 3624,6083 3716,5958 L 3855,6053 C 3752,6200 3612,6312 3447,6402 3277,6484 3096,6529 2900,6529 2742,6529 2592,6499 2448,6443 2307,6386 2185,6308 2076,6206 1968,6110 1893,5996 1831,5866 1768,5727 1735,5585 1735,5441 1732,5282 1768,5147 1828,5013 1891,4879 1968,4763 2076,4668 2180,4572 2305,4493 2445,4436 2592,4374 2741,4344 2897,4344 3099,4344 3277,4392 3450,4482 3616,4567 3755,4681 3861,4826 Z M 4159,4638 L 4005,4728 C 3886,4561 3725,4429 3535,4327 3337,4227 3127,4177 2897,4177 2653,4177 2432,4235 2225,4344 2022,4466 1857,4616 1737,4803 1620,4999 1560,5209 1557,5441 1557,5668 1620,5881 1737,6071 1857,6261 2020,6415 2226,6529 2432,6639 2653,6692 2900,6692 3127,6692 3340,6646 3535,6546 3731,6446 3886,6312 4010,6146 L 4160,6241 C 4019,6433 3837,6580 3616,6692 3396,6807 3155,6861 2900,6861 2625,6861 2370,6796 2137,6674 1905,6546 1716,6372 1582,6155 1448,5937 1380,5693 1380,5441 1380,5176 1448,4942 1581,4724 1716,4501 1901,4327 2137,4200 2372,4077 2625,4013 2897,4013 3154,4013 3394,4068 3616,4177 3837,4288 4015,4444 4159,4638 Z M 4455,4453 L 4306,4541 C 4150,4325 3947,4157 3700,4032 3452,3908 3184,3849 2897,3849 2668,3849 2445,3888 2241,3969 2030,4054 1848,4169 1693,4307 1538,4453 1425,4623 1336,4818 1242,5013 1200,5217 1201,5441 1201,5655 1247,5866 1335,6060 1425,6255 1542,6421 1698,6566 1848,6707 2031,6820 2242,6904 2448,6986 2670,7029 2900,7029 3191,7029 3456,6965 3700,6839 3950,6716 4152,6546 4306,6331 L 4450,6433 C 4279,6667 4056,6851 3785,6986 3512,7127 3216,7197 2900,7197 2560,7197 2248,7115 1957,6964 1670,6802 1442,6590 1276,6318 1106,6053 1018,5755 1018,5441 1020,5116 1107,4826 1273,4554 1441,4282 1668,4068 1953,3912 2247,3758 2557,3680 2897,3680 3216,3680 3510,3749 3787,3888 4060,4024 4280,4212 4455,4453 Z M 4744,4258 L 4599,4344 C 4410,4092 4166,3888 3866,3737 3572,3587 3244,3513 2897,3513 2617,3513 2351,3562 2100,3663 1847,3764 1625,3904 1442,4070 1257,4242 1112,4453 1005,4692 897,4928 841,5173 841,5441 842,5698 897,5952 1005,6187 1116,6422 1261,6629 1442,6802 1625,6971 1848,7109 2105,7210 2356,7311 2620,7361 2897,7361 3246,7361 3572,7289 3871,7136 4169,6982 4411,6777 4600,6520 L 4746,6621 C 4537,6897 4275,7121 3955,7286 3624,7447 3277,7529 2900,7529 2598,7529 2305,7474 2031,7366 1757,7254 1518,7101 1318,6920 1120,6730 960,6514 843,6255 722,5996 663,5723 662,5441 662,5149 718,4884 842,4626 957,4367 1116,4139 1317,3954 1516,3767 1756,3623 2028,3513 2301,3399 2593,3344 2896,3344 3275,3344 3629,3429 3950,3593 4277,3758 4544,3977 4744,4258 Z M 6545,4786 C 6353,4962 6254,5179 6255,5441 6254,5693 6349,5911 6545,6091 6739,6271 6970,6360 7243,6360 7515,6360 7745,6271 7934,6091 8129,5911 8228,5693 8228,5441 8227,5179 8128,4962 7938,4786 7742,4603 7513,4517 7239,4517 6966,4517 6736,4603 6545,4786 Z M 6173,5866 C 6110,5727 6079,5585 6079,5441 6076,5282 6108,5147 6168,5013 6230,4879 6316,4763 6416,4668 6520,4572 6645,4493 6790,4436 6933,4374 7084,4344 7239,4344 7398,4344 7552,4374 7695,4436 7835,4493 7957,4572 8064,4668 8169,4763 8252,4879 8313,5013 8372,5147 8407,5282 8407,5441 8407,5585 8372,5727 8315,5866 8253,5996 8169,6110 8064,6206 7958,6308 7835,6386 7695,6443 7552,6499 7402,6529 7243,6529 7086,6529 6934,6499 6790,6443 6646,6386 6524,6308 6416,6206 6315,6110 6233,5996 6173,5866 Z M 6076,4803 C 5961,4999 5903,5209 5901,5441 5901,5668 5959,5881 6080,6071 6198,6261 6361,6415 6571,6529 6774,6639 7001,6692 7243,6692 7485,6692 7713,6639 7915,6529 8122,6415 8284,6261 8408,6071 8525,5881 8583,5668 8585,5441 8585,5209 8525,4999 8407,4803 8284,4616 8122,4466 7914,4344 7713,4235 7484,4177 7239,4177 6998,4177 6771,4235 6571,4344 6361,4466 6199,4616 6076,4803 Z M 5924,6155 C 5786,5937 5720,5693 5721,5441 5720,5176 5786,4942 5920,4724 6059,4501 6245,4327 6479,4200 6711,4077 6965,4013 7239,4013 7517,4013 7773,4077 8008,4200 8235,4327 8422,4501 8558,4724 8697,4942 8763,5176 8760,5441 8760,5693 8695,5937 8558,6155 8423,6372 8238,6546 8004,6674 7773,6796 7519,6861 7243,6861 6966,6861 6711,6796 6479,6674 6248,6546 6060,6372 5924,6155 Z M 5676,4818 C 5586,5013 5541,5217 5541,5441 5543,5655 5586,5866 5676,6060 5766,6255 5886,6421 6040,6566 6189,6707 6371,6820 6583,6904 6791,6986 7011,7029 7243,7029 7473,7029 7697,6986 7903,6904 8114,6820 8292,6707 8447,6566 8597,6421 8719,6255 8808,6060 8898,5866 8942,5655 8942,5441 8942,5217 8895,5013 8808,4818 8719,4623 8595,4453 8445,4307 8292,4169 8113,4054 7902,3969 7692,3888 7472,3849 7239,3849 7010,3849 6790,3888 6580,3969 6370,4054 6189,4169 6036,4307 5885,4453 5766,4623 5676,4818 Z M 5615,6318 C 5448,6053 5364,5755 5364,5441 5365,5116 5449,4826 5615,4554 5785,4282 6009,4068 6299,3912 6586,3758 6899,3680 7239,3680 7579,3680 7895,3758 8182,3912 8469,4068 8698,4282 8867,4554 9039,4826 9120,5116 9120,5441 9119,5755 9035,6053 8867,6318 8698,6590 8470,6802 8184,6964 7898,7115 7579,7197 7240,7197 6899,7197 6589,7115 6301,6964 6010,6802 5786,6590 5615,6318 Z M 5345,4692 C 5243,4928 5184,5173 5185,5441 5189,5698 5243,5952 5346,6187 5455,6422 5599,6629 5786,6802 5971,6971 6190,7109 6443,7210 6698,7311 6961,7361 7240,7361 7519,7361 7789,7311 8042,7210 8298,7109 8513,6971 8698,6802 8879,6629 9027,6422 9138,6187 9244,5952 9298,5698 9298,5441 9298,5173 9242,4928 9135,4692 9025,4453 8879,4242 8697,4070 8513,3904 8297,3764 8039,3663 7785,3562 7517,3513 7239,3513 6961,3513 6696,3562 6441,3663 6189,3764 5971,3904 5784,4070 5598,4242 5454,4453 5345,4692 Z M 5184,6255 C 5061,5996 4996,5723 4996,5441 4997,5149 5060,4884 5184,4626 5303,4367 5459,4139 5659,3954 5860,3767 6096,3623 6371,3513 6646,3399 6935,3344 7236,3344 7542,3344 7833,3399 8110,3513 8384,3623 8622,3767 8823,3954 9023,4139 9182,4367 9300,4626 9417,4884 9477,5149 9477,5441 9477,5723 9419,5996 9300,6255 9183,6514 9025,6730 8825,6920 8625,7101 8388,7254 8113,7366 7835,7474 7547,7529 7240,7529 6939,7529 6651,7474 6373,7366 6098,7254 5861,7101 5665,6920 5464,6730 5303,6514 5184,6255 Z"/>
       </g>
      </g>
      <g class="com.sun.star.drawing.PolyPolygonShape">
       <g id="id11">
        <rect class="BoundingBox" stroke="none" fill="none" x="9659" y="5248" width="1482" height="2124"/>
       </g>
      </g>
      <g class="com.sun.star.drawing.PolyPolygonShape">
       <g id="id12">
        <rect class="BoundingBox" stroke="none" fill="none" x="9656" y="5250" width="1483" height="2118"/>
       </g>
      </g>
      <g class="com.sun.star.drawing.PolyPolygonShape">
       <g id="id13">
        <rect class="BoundingBox" stroke="none" fill="none" x="9659" y="5250" width="1477" height="2118"/>
       </g>
      </g>
      <g class="com.sun.star.drawing.ClosedBezierShape">
       <g id="id14">
        <rect class="BoundingBox" stroke="none" fill="none" x="9658" y="5250" width="1476" height="2116"/>
        <path fill="rgb(241,194,50)" stroke="none" d="M 9700,7030 L 9700,6847 11032,6847 11032,7030 9700,7030 Z M 9698,7197 L 9703,7017 11036,7017 11031,7197 9698,7197 Z M 9700,7365 L 9700,7185 11031,7185 11032,7365 9700,7365 Z M 9919,6896 L 9689,6896 C 9784,6773 9860,6674 9922,6606 9972,6534 10020,6474 10057,6428 10101,6383 10134,6339 10172,6282 10209,6240 10234,6203 10253,6178 10277,6148 10299,6124 10322,6099 10338,6072 10352,6053 10363,6040 10371,6028 10383,6015 10384,5999 10394,5993 10405,5985 10408,5982 10407,5980 10407,5969 10407,5969 10407,5957 10394,5944 10371,5943 10358,5938 10313,5937 10238,5937 10112,5937 9970,5954 9809,5993 L 9770,5825 C 9820,5805 9890,5787 9977,5770 10064,5751 10151,5744 10231,5744 10282,5744 10327,5750 10362,5756 10407,5758 10446,5774 10482,5793 10518,5805 10548,5829 10563,5859 10588,5892 10596,5928 10600,5969 10596,6012 10576,6060 10538,6118 10498,6173 10405,6298 10244,6492 10124,6646 10013,6778 9919,6896 Z M 10124,6896 L 9885,6896 C 10241,6461 10437,6204 10470,6162 10537,6075 10576,6015 10580,5985 10581,5974 10587,5968 10586,5957 10587,5829 10470,5764 10234,5764 10163,5764 10082,5774 10003,5787 9922,5798 9847,5819 9775,5842 L 9734,5656 C 9910,5608 10078,5583 10238,5583 10293,5583 10344,5585 10393,5594 10446,5600 10498,5611 10542,5630 10593,5649 10632,5669 10663,5698 10696,5726 10726,5764 10743,5812 10766,5853 10779,5903 10779,5957 10779,6015 10750,6087 10693,6162 10640,6247 10480,6458 10209,6787 10178,6824 10151,6863 10124,6896 Z M 10331,6896 L 10101,6896 C 10427,6487 10618,6232 10675,6148 10732,6060 10763,5998 10766,5944 10766,5884 10750,5829 10721,5782 10696,5731 10662,5695 10608,5673 10563,5643 10508,5630 10448,5614 10383,5606 10313,5595 10234,5595 10087,5595 9922,5624 9739,5679 L 9698,5498 C 9895,5438 10077,5413 10234,5413 10313,5413 10384,5420 10456,5426 10526,5438 10586,5455 10648,5481 10712,5510 10767,5541 10811,5583 10857,5624 10891,5679 10916,5735 10942,5800 10955,5872 10957,5944 10954,6004 10942,6060 10916,6115 10889,6173 10832,6254 10751,6372 10671,6477 10533,6656 10331,6896 Z M 10552,6896 L 10313,6896 C 10533,6631 10682,6446 10758,6339 10836,6219 10889,6144 10912,6094 10931,6043 10944,5988 10942,5937 10942,5867 10931,5800 10911,5741 10887,5685 10856,5641 10817,5606 10775,5569 10726,5533 10670,5508 10608,5479 10548,5463 10476,5450 10406,5435 10321,5426 10238,5426 10087,5426 9903,5461 9698,5513 L 9659,5335 C 9870,5275 10064,5250 10234,5250 10368,5250 10490,5264 10593,5289 10705,5318 10795,5354 10880,5413 10960,5468 11022,5536 11069,5625 11111,5716 11136,5824 11132,5937 11136,6009 11124,6075 11100,6144 11070,6204 11017,6298 10939,6414 10860,6529 10727,6691 10552,6896 Z"/>
       </g>
      </g>
      <g class="com.sun.star.drawing.PolyPolygonShape">
       <g id="id15">
        <rect class="BoundingBox" stroke="none" fill="none" x="11644" y="3924" width="17872" height="3612"/>
       </g>
      </g>
      <g class="com.sun.star.drawing.PolyPolygonShape">
       <g id="id16">
        <rect class="BoundingBox" stroke="none" fill="none" x="11645" y="3924" width="17868" height="3611"/>
       </g>
      </g>
      <g class="com.sun.star.drawing.PolyPolygonShape">
       <g id="id17">
        <rect class="BoundingBox" stroke="none" fill="none" x="11644" y="3924" width="17866" height="3609"/>
       </g>
      </g>
      <g class="com.sun.star.drawing.ClosedBezierShape">
       <g id="id18">
        <rect class="BoundingBox" stroke="none" fill="none" x="11645" y="3924" width="17863" height="3608"/>
        <path fill="rgb(241,194,50)" stroke="none" d="M 13958,5343 L 13959,7445 13783,7445 13780,5343 C 13778,5298 13775,5261 13759,5233 13740,5198 13725,5174 13696,5154 13670,5139 13639,5127 13599,5117 13558,5104 13520,5103 13478,5097 13443,5093 13395,5093 13338,5093 13284,5093 13236,5093 13194,5097 13159,5103 13119,5104 13080,5117 13038,5127 13005,5139 12981,5154 12958,5174 12934,5198 12919,5233 12905,5261 12896,5298 12896,5343 L 12900,7445 12720,7445 12718,5343 C 12718,5068 12924,4929 13338,4929 13753,4929 13958,5068 13958,5343 Z M 14318,5343 L 14319,7445 14139,7445 14136,5343 C 14136,5148 14064,5003 13915,4906 13769,4809 13574,4760 13334,4760 13103,4760 12909,4809 12761,4906 12614,5003 12540,5148 12540,5343 L 12543,7445 12364,7445 12361,5343 C 12361,5181 12405,5046 12496,4929 12583,4809 12700,4723 12846,4674 12989,4619 13155,4593 13334,4593 13521,4593 13684,4619 13830,4674 13974,4723 14093,4809 14184,4929 14269,5046 14318,5181 14318,5343 Z M 14675,5343 L 14676,7445 14499,7445 14495,5343 C 14496,5198 14468,5068 14405,4948 14340,4834 14259,4735 14151,4659 14049,4587 13925,4525 13786,4488 13650,4448 13501,4429 13334,4429 13176,4429 13028,4448 12889,4488 12749,4525 12628,4587 12519,4659 12418,4735 12330,4834 12275,4948 12213,5068 12183,5198 12183,5343 L 12184,7445 12003,7445 12001,5343 C 12001,5178 12038,5024 12111,4886 12178,4749 12271,4634 12394,4543 12518,4454 12658,4385 12818,4332 12981,4285 13155,4260 13334,4260 13521,4260 13699,4285 13856,4332 14019,4385 14161,4454 14280,4543 14401,4634 14501,4749 14569,4886 14638,5024 14675,5178 14675,5343 Z M 15036,7445 L 14855,7445 14853,5343 C 14853,5178 14811,5016 14730,4862 14651,4705 14543,4573 14408,4460 14271,4347 14111,4257 13925,4194 13736,4128 13540,4093 13334,4093 13056,4093 12801,4142 12580,4243 12350,4340 12168,4485 12028,4674 11894,4871 11821,5092 11824,5343 L 11825,7445 11646,7445 11645,5343 C 11644,5133 11690,4936 11780,4759 11870,4574 11989,4429 12144,4304 12295,4188 12478,4093 12678,4025 12886,3955 13105,3924 13338,3924 13746,3924 14103,4025 14405,4218 14706,4025 15064,3924 15474,3924 15705,3924 15924,3955 16130,4025 16337,4093 16517,4188 16673,4304 16825,4429 16945,4574 17039,4759 17123,4936 17169,5133 17173,5343 L 17173,7445 16989,7445 16988,5343 C 16988,5092 16919,4871 16783,4675 16649,4485 16467,4340 16237,4243 16006,4142 15753,4093 15474,4093 15121,4093 14814,4172 14553,4328 14590,4355 14634,4399 14683,4447 14909,4323 15169,4260 15474,4260 15658,4260 15833,4285 15990,4332 16154,4385 16299,4454 16417,4543 16537,4634 16638,4749 16705,4886 16774,5024 16810,5178 16810,5343 L 16813,7445 16635,7445 16633,5343 C 16633,5198 16604,5068 16543,4948 16480,4834 16399,4735 16289,4659 16185,4587 16059,4525 15924,4488 15786,4448 15636,4429 15474,4429 15213,4429 14981,4478 14793,4574 14818,4619 14850,4665 14881,4719 15044,4635 15239,4593 15474,4593 15658,4593 15819,4619 15965,4674 16113,4723 16229,4809 16320,4929 16407,5046 16454,5181 16455,5343 L 16457,7445 16275,7445 16274,5343 C 16274,5148 16200,5003 16050,4906 15903,4809 15709,4760 15474,4760 15259,4760 15084,4797 14950,4871 14970,4931 14989,4987 15001,5037 15103,4967 15264,4929 15475,4929 15888,4929 16093,5068 16093,5343 L 16095,7445 15918,7445 15915,5343 C 15915,5298 15909,5261 15895,5233 15876,5198 15861,5174 15831,5154 15806,5139 15775,5127 15738,5117 15693,5104 15655,5103 15614,5097 15580,5093 15530,5093 15474,5093 15419,5093 15370,5093 15330,5097 15295,5103 15253,5104 15214,5117 15174,5127 15139,5139 15119,5154 15093,5174 15069,5198 15056,5233 15043,5261 15034,5298 15036,5343 L 15036,7445 Z M 19005,5870 L 19762,5870 C 19908,5870 20035,5827 20142,5745 20245,5652 20298,5537 20298,5386 20294,5266 20243,5159 20135,5068 20024,4972 19902,4929 19762,4929 L 18510,4929 18513,7445 18333,7445 18332,4760 19762,4760 C 19950,4760 20118,4822 20262,4948 20408,5077 20477,5218 20477,5386 20474,5584 20408,5745 20268,5858 20129,5977 19958,6033 19762,6033 L 19005,6033 19005,5870 Z M 19005,6202 L 19762,6202 C 20008,6202 20219,6127 20393,5973 20568,5822 20667,5623 20666,5386 20667,5174 20567,4991 20388,4831 20212,4672 20000,4593 19760,4593 L 18149,4593 18154,7445 17974,7445 17973,4429 19762,4429 C 20050,4429 20300,4519 20513,4713 20731,4906 20843,5127 20843,5386 20843,5662 20737,5901 20519,6091 20307,6273 20052,6367 19762,6367 L 19005,6367 19005,6202 Z M 19008,6536 L 19762,6536 C 19987,6536 20192,6483 20385,6388 20574,6290 20731,6151 20851,5973 20962,5802 21019,5597 21023,5386 21019,5183 20962,5002 20848,4828 20737,4657 20581,4515 20383,4413 20192,4313 19982,4260 19760,4260 L 17793,4260 17798,7445 17619,7445 17614,4093 19760,4093 C 19945,4093 20133,4129 20307,4197 20485,4268 20644,4359 20773,4478 20903,4593 21004,4730 21082,4889 21163,5048 21198,5212 21199,5386 21199,5586 21163,5773 21087,5942 21011,6108 20906,6247 20774,6358 20643,6466 20485,6553 20314,6610 20137,6676 19958,6702 19763,6702 L 19008,6702 19008,6536 Z M 18869,7445 L 18692,7445 18689,5093 19762,5093 C 19857,5093 19942,5123 20013,5181 20083,5233 20119,5298 20119,5386 20119,5593 20000,5696 19762,5696 L 19005,5696 19005,5527 19760,5527 C 19879,5527 19942,5483 19942,5386 19942,5349 19924,5321 19887,5292 19855,5277 19810,5261 19762,5261 L 18868,5261 18869,7445 Z M 24136,5797 C 24136,5587 24069,5439 23941,5327 23807,5218 23634,5164 23422,5164 23238,5164 23082,5224 22953,5337 22822,5459 22754,5599 22754,5772 22757,5861 22769,5947 22797,6017 22823,6092 22859,6157 22907,6205 22948,6252 23003,6291 23063,6326 23129,6352 23197,6380 23266,6391 23336,6405 23407,6411 23486,6411 23672,6411 23848,6373 24001,6280 L 24001,6447 C 23841,6532 23667,6567 23484,6567 23362,6567 23251,6553 23144,6523 23041,6491 22944,6447 22856,6388 22769,6326 22703,6242 22653,6135 22603,6030 22579,5911 22579,5772 22579,5549 22656,5368 22817,5221 22979,5073 23179,4996 23418,4996 23688,4996 23903,5068 24069,5206 24236,5343 24313,5542 24316,5797 L 24316,7445 24137,7445 24136,5797 Z M 24676,5797 L 24674,7445 24497,7445 24497,5797 C 24494,5496 24393,5261 24197,5087 23994,4917 23736,4831 23418,4831 23129,4831 22886,4921 22691,5103 22494,5283 22399,5502 22401,5772 22401,5928 22429,6070 22486,6195 22547,6321 22626,6422 22729,6495 22831,6570 22941,6631 23066,6670 23192,6709 23324,6732 23463,6732 23651,6732 23831,6689 24003,6603 L 24001,6785 C 23819,6852 23643,6891 23461,6891 23297,6891 23137,6865 22992,6820 22844,6771 22712,6700 22597,6608 22481,6521 22391,6403 22319,6257 22257,6116 22218,5953 22218,5772 22218,5459 22336,5198 22566,4983 22797,4767 23081,4663 23418,4663 23659,4663 23874,4707 24063,4800 24251,4889 24403,5022 24511,5193 24618,5362 24674,5566 24676,5797 Z M 25031,5797 L 25032,7445 24853,7445 24853,5797 C 24851,5531 24788,5304 24663,5109 24541,4909 24368,4760 24149,4657 23932,4549 23692,4497 23418,4497 23167,4497 22931,4555 22718,4665 22503,4778 22338,4931 22222,5127 22103,5321 22041,5537 22041,5772 22042,5967 22079,6151 22157,6315 22236,6477 22338,6608 22473,6712 22604,6821 22753,6900 22922,6965 23091,7021 23267,7051 23453,7051 23636,7051 23819,7014 24004,6941 L 24003,7109 C 23813,7176 23632,7210 23442,7210 23159,7210 22894,7152 22656,7027 22416,6910 22223,6735 22078,6513 21934,6291 21861,6046 21862,5772 21862,5568 21903,5386 21984,5206 22062,5031 22172,4877 22307,4749 22444,4619 22611,4518 22807,4447 23001,4368 23199,4329 23418,4329 23723,4329 23994,4392 24238,4507 24486,4629 24676,4804 24819,5024 24961,5248 25031,5502 25031,5797 Z M 25391,5797 L 25391,7445 25211,7445 25210,5797 C 25210,5472 25133,5189 24973,4937 24813,4692 24601,4503 24329,4368 24057,4230 23754,4165 23418,4165 23098,4165 22806,4237 22538,4375 22269,4519 22059,4713 21913,4964 21761,5206 21687,5478 21684,5772 21684,5961 21719,6141 21784,6315 21848,6483 21937,6634 22048,6762 22166,6891 22297,7001 22442,7094 22591,7187 22751,7256 22918,7304 23097,7356 23267,7375 23441,7375 23641,7375 23824,7340 24003,7271 L 24004,7445 C 23817,7501 23629,7531 23437,7531 23231,7531 23042,7506 22853,7454 22659,7400 22486,7326 22324,7219 22163,7116 22018,7000 21894,6857 21776,6719 21679,6548 21609,6365 21538,6177 21501,5977 21501,5772 21503,5524 21556,5292 21648,5077 21744,4862 21878,4672 22047,4512 22212,4355 22416,4230 22657,4140 22898,4040 23151,3994 23418,3994 23697,3994 23953,4038 24194,4128 24437,4212 24644,4332 24823,4485 24997,4642 25135,4828 25237,5054 25337,5279 25391,5524 25391,5797 Z M 28027,5857 L 27743,5857 C 27393,5857 27128,5786 26940,5647 26756,5514 26662,5334 26660,5097 26660,4881 26768,4703 26991,4555 27210,4413 27517,4340 27916,4340 28183,4340 28428,4375 28658,4447 28890,4512 29078,4609 29230,4729 L 29090,4834 C 28955,4730 28785,4650 28577,4593 28373,4535 28152,4507 27915,4507 27565,4507 27298,4562 27112,4674 26928,4785 26837,4929 26837,5097 26837,5284 26915,5429 27066,5527 27217,5628 27443,5681 27743,5681 L 28016,5681 C 28367,5681 28641,5755 28827,5885 29016,6015 29110,6201 29108,6430 29110,6646 29002,6827 28780,6972 28558,7116 28248,7189 27852,7189 27587,7189 27340,7157 27111,7087 26885,7021 26690,6927 26540,6797 L 26678,6694 C 26816,6797 26985,6882 27190,6937 27397,6996 27617,7025 27852,7025 28202,7025 28472,6966 28652,6852 28837,6747 28930,6598 28930,6430 28931,6247 28858,6102 28703,6002 28550,5905 28323,5857 28027,5857 Z M 28027,6185 L 27743,6185 C 27281,6185 26925,6091 26678,5896 26428,5689 26300,5429 26298,5097 26300,4948 26337,4807 26410,4675 26478,4547 26581,4430 26715,4329 26850,4230 27022,4153 27227,4097 27431,4038 27662,4009 27916,4009 28237,4009 28533,4050 28815,4142 29092,4237 29322,4359 29506,4519 L 29361,4619 C 29196,4478 28985,4369 28733,4297 28477,4213 28206,4174 27916,4174 27472,4174 27117,4260 26866,4440 26610,4613 26480,4834 26483,5097 26483,5383 26592,5599 26812,5773 27027,5940 27337,6017 27742,6017 L 28016,6017 C 28506,6017 28752,6158 28753,6430 28752,6553 28678,6654 28527,6735 28377,6820 28150,6852 27852,6852 27642,6852 27447,6837 27267,6790 27087,6741 26940,6677 26821,6585 L 26961,6483 C 27171,6622 27467,6689 27853,6689 28100,6689 28285,6664 28397,6615 28515,6567 28572,6507 28572,6430 28572,6338 28531,6278 28452,6242 28368,6205 28227,6185 28027,6185 Z M 28030,5511 L 27743,5511 C 27260,5511 27017,5371 27016,5097 27016,4977 27093,4874 27242,4792 27390,4713 27616,4674 27916,4674 28127,4674 28321,4699 28502,4743 28683,4790 28831,4858 28947,4937 L 28806,5039 C 28602,4909 28300,4843 27916,4843 27666,4843 27485,4866 27368,4916 27253,4964 27193,5024 27193,5097 27196,5183 27237,5249 27316,5284 27400,5327 27540,5339 27742,5339 L 28027,5339 C 28486,5339 28837,5441 29090,5641 29340,5841 29467,6103 29467,6430 29467,6578 29433,6720 29361,6852 29290,6989 29186,7102 29056,7201 28923,7297 28750,7376 28546,7435 28335,7494 28108,7521 27852,7521 27533,7521 27235,7476 26956,7387 26681,7297 26448,7171 26260,7009 L 26405,6910 C 26572,7054 26783,7160 27041,7241 27290,7316 27562,7357 27852,7357 28300,7357 28652,7266 28908,7094 29162,6915 29287,6694 29290,6430 29287,6151 29180,5928 28961,5766 28742,5597 28430,5511 28030,5511 Z"/>
       </g>
      </g>
      <g class="com.sun.star.drawing.PolyPolygonShape">
       <g id="id19">
        <rect class="BoundingBox" stroke="none" fill="none" x="0" y="0" width="29907" height="5761"/>
       </g>
      </g>
      <g class="com.sun.star.drawing.PolyPolygonShape">
       <g id="id20">
        <rect class="BoundingBox" stroke="none" fill="none" x="0" y="0" width="29951" height="5759"/>
       </g>
      </g>
      <g class="com.sun.star.drawing.PolyPolygonShape">
       <g id="id21">
        <rect class="BoundingBox" stroke="none" fill="none" x="1" y="0" width="29924" height="5817"/>
       </g>
      </g>
      <g class="com.sun.star.drawing.ClosedBezierShape">
       <g id="id22">
        <rect class="BoundingBox" stroke="none" fill="none" x="-3" y="0" width="29927" height="5808"/>
        <path fill="rgb(39,79,140)" stroke="none" d="M 104,5807 C 52,5807 11,5797 1,5723 -6,5608 1,5468 1,5375 1,5048 40,4813 111,4526 L 212,4550 111,4525 C 136,4417 184,4323 224,4223 284,4057 371,3913 469,3787 564,3662 671,3553 776,3452 1001,3233 1375,2958 1699,2778 1982,2620 2267,2463 2551,2314 2861,2153 3171,2012 3484,1878 3670,1798 4590,1480 5149,1319 5667,1171 6427,981 6574,954 L 6595,1055 6576,954 6575,954 C 6930,880 7284,824 7641,769 7989,714 8569,626 8688,613 L 8689,613 8693,613 C 8811,604 10445,388 10526,376 L 10529,376 C 10610,368 11791,230 11875,220 12029,201 12180,186 12364,168 12455,160 12554,150 12664,139 12775,129 12899,118 13036,104 L 13038,104 C 13385,70 13660,48 13910,31 14161,16 14389,6 14644,4 14685,1 14724,0 14760,0 14850,0 14929,5 15003,16 15078,26 15147,44 15215,70 15282,95 15349,129 15422,173 15490,213 15562,263 15647,324 15765,404 18622,2189 19109,2414 19175,2444 19230,2467 19287,2488 19343,2507 19400,2520 19475,2533 19517,2539 19562,2547 19613,2553 19667,2559 19728,2565 19797,2573 19867,2579 19948,2588 20038,2595 20130,2603 20234,2613 20353,2623 20805,2663 22184,2733 23397,2779 23728,2789 26167,2887 26428,2897 26591,2905 26733,2912 26858,2919 26983,2926 27092,2933 27187,2939 27284,2946 27367,2952 27439,2958 27512,2963 27574,2969 27629,2976 27686,2982 27736,2988 27781,2993 27824,2999 27867,3006 27908,3012 27989,3024 28067,3037 28168,3051 L 28171,3051 C 28383,3082 28612,3146 28817,3219 28921,3256 29016,3294 29098,3333 29186,3372 29259,3412 29314,3447 L 29316,3447 C 29428,3518 29568,3629 29692,3769 29754,3839 29812,3919 29861,4004 29874,4028 29887,4052 29899,4077 29903,4087 29908,4097 29912,4106 29931,4154 29923,4206 29889,4234 29844,4272 29762,4269 29724,4189 29722,4188 29693,4132 29679,4107 29639,4033 29589,3968 29536,3907 29428,3783 29303,3686 29204,3623 L 29203,3623 C 29154,3591 29089,3557 29012,3522 28934,3484 28843,3449 28747,3414 28556,3346 28339,3287 28139,3257 28037,3243 27958,3228 27877,3216 27837,3212 27797,3206 27753,3199 27709,3194 27662,3188 27609,3182 27554,3177 27493,3171 27422,3164 27349,3158 27268,3152 27174,3146 27079,3139 26971,3133 26847,3127 26722,3119 26579,3112 26418,3103 26156,3093 23718,2996 23391,2987 L 23389,2987 C 22172,2939 20790,2869 20334,2829 20217,2820 20112,2810 20019,2803 19928,2794 19848,2788 19775,2779 19704,2772 19643,2765 19588,2759 19532,2752 19484,2745 19442,2738 19353,2722 19285,2707 19222,2684 19159,2663 19098,2635 19023,2603 L 19022,2602 C 18529,2377 15634,566 15529,495 L 15528,494 15525,494 C 15447,436 15378,389 15313,350 15254,314 15198,286 15142,264 15087,244 15032,230 14970,220 14908,213 14839,208 14760,208 14725,208 14689,210 14650,210 L 14649,210 C 14398,214 14173,224 13924,239 13674,255 13401,279 13056,310 12919,324 12795,336 12685,345 12574,356 12475,366 12383,375 12201,393 12051,408 11900,426 L 11899,426 C 11823,435 10641,574 10554,583 10464,595 8856,805 8713,819 L 8700,716 8708,819 8711,819 C 8591,834 8018,921 7673,975 7319,1030 6967,1084 6617,1156 L 6615,1156 6614,1156 C 6476,1184 5720,1373 5205,1520 4656,1678 3749,1992 3565,2068 3259,2202 2951,2340 2649,2498 2364,2647 2082,2803 1799,2959 1490,3131 1136,3393 920,3602 821,3696 724,3798 634,3913 549,4024 471,4151 417,4296 L 417,4298 C 381,4388 336,4475 314,4573 L 314,4575 C 246,4847 212,5068 205,5376 203,5465 196,5735 198,5716 190,5802 159,5807 104,5807 Z M 320,4261 L 224,4223 224,4224 320,4261 Z M 14645,4 L 14644,4 14648,106 14645,4 Z M 28141,3257 L 28154,3153 28139,3257 28141,3257 Z"/>
       </g>
      </g>
     </g>
    </g>
   </g>
  </g>
 </g>
</svg>