<?xml version="1.0" encoding="UTF-8"?>
<!DOCTYPE svg PUBLIC "-//W3C//DTD SVG 1.1//EN" "http://www.w3.org/Graphics/SVG/1.1/DTD/svg11.dtd">
<svg version="1.2" width="133.87mm" height="24.66mm" viewBox="3286 9202 13387 2466" preserveAspectRatio="xMidYMid" fill-rule="evenodd" stroke-width="28.222" stroke-linejoin="round" xmlns="http://www.w3.org/2000/svg" xmlns:ooo="http://xml.openoffice.org/svg/export" xmlns:xlink="http://www.w3.org/1999/xlink" xmlns:presentation="http://sun.com/xmlns/staroffice/presentation" xmlns:smil="http://www.w3.org/2001/SMIL20/" xmlns:anim="urn:oasis:names:tc:opendocument:xmlns:animation:1.0" xml:space="preserve">
 <defs class="ClipPathGroup">
  <clipPath id="presentation_clip_path" clipPathUnits="userSpaceOnUse">
   <rect x="3286" y="9202" width="13387" height="2466"/>
  </clipPath>
 </defs>
 <defs class="TextShapeIndex">
  <g ooo:slide="id1" ooo:id-list="id3 id4 id5 id6 id7 id8 id9 id10 id11 id12 id13 id14 id15 id16"/>
 </defs>
 <defs class="EmbeddedBulletChars">
  <g id="bullet-char-template(57356)" transform="scale(0.00048828125,-0.00048828125)">
   <path d="M 580,1141 L 1163,571 580,0 -4,571 580,1141 Z"/>
  </g>
  <g id="bullet-char-template(57354)" transform="scale(0.00048828125,-0.00048828125)">
   <path d="M 8,1128 L 1137,1128 1137,0 8,0 8,1128 Z"/>
  </g>
  <g id="bullet-char-template(10146)" transform="scale(0.00048828125,-0.00048828125)">
   <path d="M 174,0 L 602,739 174,1481 1456,739 174,0 Z M 1358,739 L 309,1346 659,739 1358,739 Z"/>
  </g>
  <g id="bullet-char-template(10132)" transform="scale(0.00048828125,-0.00048828125)">
   <path d="M 2015,739 L 1276,0 717,0 1260,543 174,543 174,936 1260,936 717,1481 1274,1481 2015,739 Z"/>
  </g>
  <g id="bullet-char-template(10007)" transform="scale(0.00048828125,-0.00048828125)">
   <path d="M 0,-2 C -7,14 -16,27 -25,37 L 356,567 C 262,823 215,952 215,954 215,979 228,992 255,992 264,992 276,990 289,987 310,991 331,999 354,1012 L 381,999 492,748 772,1049 836,1024 860,1049 C 881,1039 901,1025 922,1006 886,937 835,863 770,784 769,783 710,716 594,584 L 774,223 C 774,196 753,168 711,139 L 727,119 C 717,90 699,76 672,76 641,76 570,178 457,381 L 164,-76 C 142,-110 111,-127 72,-127 30,-127 9,-110 8,-76 1,-67 -2,-52 -2,-32 -2,-23 -1,-13 0,-2 Z"/>
  </g>
  <g id="bullet-char-template(10004)" transform="scale(0.00048828125,-0.00048828125)">
   <path d="M 285,-33 C 182,-33 111,30 74,156 52,228 41,333 41,471 41,549 55,616 82,672 116,743 169,778 240,778 293,778 328,747 346,684 L 369,508 C 377,444 397,411 428,410 L 1163,1116 C 1174,1127 1196,1133 1229,1133 1271,1133 1292,1118 1292,1087 L 1292,965 C 1292,929 1282,901 1262,881 L 442,47 C 390,-6 338,-33 285,-33 Z"/>
  </g>
  <g id="bullet-char-template(9679)" transform="scale(0.00048828125,-0.00048828125)">
   <path d="M 813,0 C 632,0 489,54 383,161 276,268 223,411 223,592 223,773 276,916 383,1023 489,1130 632,1184 813,1184 992,1184 1136,1130 1245,1023 1353,916 1407,772 1407,592 1407,412 1353,268 1245,161 1136,54 992,0 813,0 Z"/>
  </g>
  <g id="bullet-char-template(8226)" transform="scale(0.00048828125,-0.00048828125)">
   <path d="M 346,457 C 273,457 209,483 155,535 101,586 74,649 74,723 74,796 101,859 155,911 209,963 273,989 346,989 419,989 480,963 531,910 582,859 608,796 608,723 608,648 583,586 532,535 482,483 420,457 346,457 Z"/>
  </g>
  <g id="bullet-char-template(8211)" transform="scale(0.00048828125,-0.00048828125)">
   <path d="M -4,459 L 1135,459 1135,606 -4,606 -4,459 Z"/>
  </g>
 </defs>
 <defs class="TextEmbeddedBitmaps"/>
 <g class="SlideGroup">
  <g>
   <g id="id1" class="Slide" clip-path="url(#presentation_clip_path)">
    <g class="Page">
     <g class="com.sun.star.drawing.PolyPolygonShape">
      <g id="id3">
       <rect class="BoundingBox" stroke="none" fill="none" x="3472" y="10431" width="4013" height="1238"/>
      </g>
     </g>
     <g class="com.sun.star.drawing.ClosedBezierShape">
      <g id="id4">
       <rect class="BoundingBox" stroke="none" fill="none" x="3472" y="10431" width="4012" height="1237"/>
       <path fill="rgb(241,194,50)" stroke="none" d="M 4928,10869 L 4862,10896 C 4820,10860 4768,10831 4703,10810 4637,10788 4567,10778 4490,10778 4367,10778 4262,10804 4174,10857 4086,10910 4043,10974 4043,11050 4043,11125 4086,11189 4174,11242 4262,11295 4367,11322 4490,11322 4567,11322 4637,11311 4703,11290 4768,11268 4820,11239 4862,11203 L 4926,11231 C 4878,11274 4815,11308 4739,11333 4662,11358 4579,11371 4490,11371 4419,11371 4351,11362 4285,11346 4220,11329 4164,11306 4116,11277 4068,11248 4032,11214 4004,11175 3976,11134 3961,11093 3961,11050 3961,11005 3976,10964 4004,10925 4032,10885 4068,10851 4116,10822 4164,10794 4220,10771 4285,10754 4351,10736 4419,10728 4490,10728 4581,10728 4663,10741 4741,10767 4817,10792 4880,10826 4928,10869 Z M 5063,10813 L 4994,10840 C 4939,10791 4867,10752 4779,10722 4690,10693 4594,10678 4490,10678 4379,10678 4278,10695 4184,10728 4091,10762 4017,10807 3962,10863 3908,10920 3880,10982 3880,11050 3880,11117 3908,11180 3962,11236 4017,11293 4091,11338 4184,11371 4278,11404 4379,11420 4490,11420 4594,11420 4690,11406 4779,11376 4868,11347 4939,11308 4996,11258 L 5063,11286 C 4999,11343 4918,11387 4817,11420 4716,11453 4607,11469 4490,11469 4366,11469 4250,11451 4144,11413 4037,11376 3952,11325 3891,11261 3830,11196 3799,11125 3799,11050 3799,10973 3830,10903 3891,10839 3952,10774 4037,10723 4144,10685 4250,10648 4366,10629 4490,10629 4607,10629 4716,10645 4817,10678 4918,10711 4999,10757 5063,10813 Z M 5199,10759 L 5131,10785 C 5060,10721 4968,10672 4855,10635 4743,10598 4620,10580 4490,10580 4386,10580 4285,10592 4191,10617 4095,10641 4012,10675 3943,10716 3873,10759 3819,10809 3779,10867 3738,10925 3718,10985 3718,11050 3718,11113 3738,11175 3779,11233 3819,11291 3873,11340 3943,11382 4012,11424 4095,11457 4191,11482 4285,11506 4386,11519 4490,11519 4622,11519 4743,11500 4855,11463 4968,11426 5060,11376 5131,11313 L 5196,11343 C 5118,11412 5017,11467 4893,11507 4769,11548 4635,11569 4490,11569 4336,11569 4194,11545 4062,11499 3931,11452 3827,11389 3751,11310 3675,11231 3635,11143 3635,11050 3635,10955 3675,10869 3751,10789 3827,10709 3931,10646 4062,10600 4194,10554 4336,10531 4490,10531 4635,10531 4769,10551 4895,10592 5019,10633 5120,10688 5199,10759 Z M 5331,10702 L 5264,10728 C 5178,10652 5067,10592 4931,10548 4796,10503 4648,10481 4490,10481 4364,10481 4243,10496 4128,10526 4012,10556 3911,10596 3828,10647 3744,10697 3678,10759 3628,10829 3579,10899 3554,10972 3554,11050 3554,11126 3579,11201 3628,11271 3678,11341 3744,11401 3828,11452 3911,11502 4012,11543 4128,11573 4243,11603 4364,11618 4490,11618 4648,11618 4796,11596 4931,11550 5068,11505 5179,11445 5265,11369 L 5331,11399 C 5237,11481 5116,11546 4969,11595 4820,11643 4662,11667 4490,11667 4353,11667 4220,11651 4095,11619 3971,11586 3862,11541 3771,11486 3680,11431 3607,11366 3554,11290 3499,11214 3473,11133 3473,11050 3473,10965 3499,10886 3554,10810 3607,10733 3680,10667 3771,10612 3862,10557 3971,10514 4095,10481 4220,10448 4353,10432 4490,10432 4662,10432 4822,10456 4969,10505 5118,10553 5239,10619 5331,10702 Z M 6148,10857 C 6060,10910 6017,10974 6017,11050 6017,11125 6060,11189 6148,11242 6236,11295 6341,11322 6465,11322 6589,11322 6694,11295 6781,11242 6869,11189 6914,11125 6914,11050 6914,10974 6869,10910 6781,10857 6694,10804 6589,10778 6465,10778 6341,10778 6236,10804 6148,10857 Z M 5978,11175 C 5950,11134 5936,11093 5936,11050 5936,11005 5950,10964 5978,10925 6006,10885 6044,10851 6090,10822 6138,10794 6194,10771 6260,10754 6325,10736 6394,10728 6465,10728 6537,10728 6606,10736 6671,10754 6735,10771 6791,10794 6839,10822 6887,10851 6925,10885 6953,10925 6980,10964 6995,11005 6995,11050 6995,11093 6980,11134 6953,11175 6925,11214 6887,11248 6839,11277 6791,11306 6735,11329 6671,11346 6606,11362 6537,11371 6465,11371 6394,11371 6325,11362 6260,11346 6194,11329 6138,11306 6090,11277 6044,11248 6006,11214 5978,11175 Z M 5936,10863 C 5882,10920 5855,10982 5855,11050 5855,11117 5882,11180 5936,11236 5991,11293 6065,11338 6160,11371 6252,11404 6355,11420 6465,11420 6576,11420 6679,11404 6771,11371 6866,11338 6940,11293 6995,11236 7049,11180 7076,11117 7076,11050 7076,10982 7049,10920 6995,10863 6940,10807 6866,10762 6771,10728 6679,10695 6576,10678 6465,10678 6355,10678 6252,10695 6160,10728 6065,10762 5991,10807 5936,10863 Z M 5865,11261 C 5804,11196 5773,11125 5773,11050 5773,10973 5804,10903 5865,10839 5928,10774 6012,10723 6118,10685 6224,10648 6340,10629 6465,10629 6591,10629 6707,10648 6813,10685 6918,10723 7003,10774 7064,10839 7127,10903 7157,10973 7157,11050 7157,11125 7127,11196 7064,11261 7003,11325 6918,11376 6813,11413 6707,11451 6591,11469 6465,11469 6340,11469 6224,11451 6118,11413 6012,11376 5928,11325 5865,11261 Z M 5753,10867 C 5712,10925 5692,10985 5692,11050 5692,11113 5712,11175 5753,11233 5794,11291 5849,11340 5918,11382 5986,11424 6069,11457 6165,11482 6260,11506 6360,11519 6465,11519 6570,11519 6671,11506 6766,11482 6862,11457 6943,11424 7013,11382 7082,11340 7137,11291 7178,11233 7218,11175 7239,11113 7239,11050 7239,10985 7218,10925 7178,10867 7137,10809 7082,10759 7013,10716 6943,10675 6862,10641 6766,10617 6671,10592 6570,10580 6465,10580 6360,10580 6260,10592 6165,10617 6069,10641 5986,10675 5918,10716 5849,10759 5794,10809 5753,10867 Z M 5725,11310 C 5649,11231 5611,11143 5611,11050 5611,10955 5649,10869 5725,10789 5803,10709 5905,10646 6037,10600 6168,10554 6310,10531 6465,10531 6619,10531 6763,10554 6894,10600 7024,10646 7128,10709 7205,10789 7282,10869 7320,10955 7320,11050 7320,11143 7282,11231 7205,11310 7128,11389 7024,11452 6894,11499 6763,11545 6619,11569 6465,11569 6310,11569 6168,11545 6037,11499 5905,11452 5803,11389 5725,11310 Z M 5602,10829 C 5555,10899 5530,10972 5530,11050 5530,11126 5555,11201 5602,11271 5652,11341 5718,11401 5803,11452 5887,11502 5986,11543 6102,11573 6217,11603 6338,11618 6465,11618 6591,11618 6713,11603 6829,11573 6945,11543 7044,11502 7128,11452 7211,11401 7277,11341 7327,11271 7376,11201 7401,11126 7401,11050 7401,10972 7376,10899 7327,10829 7277,10759 7211,10697 7128,10647 7044,10596 6945,10556 6829,10526 6713,10496 6591,10481 6465,10481 6338,10481 6217,10496 6102,10526 5986,10556 5887,10596 5803,10647 5718,10697 5652,10759 5602,10829 Z M 5528,11290 C 5474,11214 5445,11133 5445,11050 5445,10965 5474,10886 5528,10810 5583,10733 5655,10667 5746,10612 5837,10557 5945,10514 6070,10481 6196,10448 6327,10432 6465,10432 6603,10432 6735,10448 6861,10481 6986,10514 7094,10557 7185,10612 7276,10667 7348,10733 7401,10810 7456,10886 7482,10965 7482,11050 7482,11133 7456,11214 7401,11290 7348,11366 7276,11431 7185,11486 7094,11541 6986,11586 6861,11619 6735,11651 6603,11667 6465,11667 6327,11667 6196,11651 6070,11619 5945,11586 5837,11541 5746,11486 5655,11431 5583,11366 5528,11290 Z"/>
      </g>
     </g>
     <g class="com.sun.star.drawing.PolyPolygonShape">
      <g id="id5">
       <rect class="BoundingBox" stroke="none" fill="none" x="7568" y="10995" width="671" height="625"/>
      </g>
     </g>
     <g class="com.sun.star.drawing.ClosedBezierShape">
      <g id="id6">
       <rect class="BoundingBox" stroke="none" fill="none" x="7568" y="10995" width="670" height="624"/>
       <path fill="rgb(241,194,50)" stroke="none" d="M 7586,11519 L 7586,11465 8190,11465 8190,11519 7586,11519 Z M 7586,11569 L 7586,11515 8190,11515 8190,11569 7586,11569 Z M 7586,11618 L 7586,11565 8190,11565 8190,11618 7586,11618 Z M 7686,11480 L 7580,11480 C 7624,11443 7659,11415 7686,11394 7710,11373 7732,11356 7748,11342 7767,11328 7783,11315 7800,11300 7816,11287 7829,11276 7838,11269 7849,11261 7858,11253 7868,11246 7876,11238 7882,11232 7887,11228 7891,11224 7896,11221 7897,11217 7901,11214 7904,11212 7906,11211 7906,11210 7906,11208 7906,11208 7906,11204 7901,11201 7892,11200 7884,11198 7864,11197 7831,11197 7773,11197 7709,11203 7636,11215 L 7618,11165 C 7641,11159 7672,11153 7712,11149 7752,11144 7791,11142 7828,11142 7851,11142 7871,11143 7887,11145 7907,11146 7924,11150 7940,11155 7957,11159 7970,11166 7978,11175 7988,11184 7993,11195 7993,11208 7993,11220 7983,11235 7965,11252 7947,11268 7904,11304 7833,11361 7778,11406 7729,11446 7686,11480 Z M 7778,11480 L 7671,11480 C 7831,11351 7920,11278 7935,11265 7965,11239 7982,11221 7985,11212 7985,11209 7987,11207 7987,11204 7987,11166 7934,11147 7829,11147 7795,11147 7760,11150 7724,11153 7687,11157 7653,11163 7620,11170 L 7601,11116 C 7682,11101 7758,11094 7831,11094 7856,11094 7879,11095 7901,11097 7925,11099 7947,11102 7968,11108 7990,11113 8008,11119 8023,11128 8038,11136 8051,11147 8059,11161 8069,11173 8074,11188 8074,11204 8074,11221 8061,11242 8036,11265 8011,11289 7939,11350 7818,11448 7803,11459 7790,11470 7778,11480 Z M 7872,11480 L 7767,11480 C 7914,11359 8001,11285 8028,11260 8054,11235 8068,11216 8068,11201 8068,11182 8061,11166 8049,11152 8038,11138 8021,11127 7998,11120 7977,11112 7953,11107 7925,11103 7896,11100 7864,11098 7829,11098 7762,11098 7687,11105 7603,11121 L 7585,11068 C 7676,11051 7757,11043 7828,11043 7864,11043 7897,11045 7929,11048 7960,11051 7988,11056 8016,11064 8044,11072 8069,11082 8089,11094 8111,11105 8125,11121 8137,11139 8149,11158 8155,11178 8155,11201 8155,11218 8149,11235 8137,11251 8124,11268 8099,11292 8063,11325 8026,11357 7963,11409 7872,11480 Z M 7972,11480 L 7864,11480 C 7963,11402 8031,11347 8066,11315 8101,11282 8124,11259 8134,11244 8144,11229 8149,11213 8149,11197 8149,11177 8144,11158 8134,11141 8124,11124 8109,11111 8091,11100 8073,11089 8051,11079 8025,11071 7998,11063 7970,11058 7937,11054 7906,11050 7869,11048 7831,11048 7762,11048 7679,11057 7586,11073 L 7568,11020 C 7664,11003 7752,10995 7829,10995 7889,10995 7944,10999 7991,11007 8041,11014 8082,11026 8120,11043 8157,11059 8185,11080 8206,11106 8226,11133 8236,11164 8236,11197 8236,11219 8231,11239 8220,11259 8208,11278 8183,11304 8147,11338 8111,11372 8051,11419 7972,11480 Z"/>
      </g>
     </g>
     <g class="com.sun.star.drawing.PolyPolygonShape">
      <g id="id7">
       <rect class="BoundingBox" stroke="none" fill="none" x="8434" y="10579" width="8133" height="1068"/>
      </g>
     </g>
     <g class="com.sun.star.drawing.ClosedBezierShape">
      <g id="id8">
       <rect class="BoundingBox" stroke="none" fill="none" x="8473" y="10351" width="8131" height="1067"/>
       <path fill="rgb(241,194,50)" stroke="none" d="M 9526,10771 L 9526,11390 9445,11390 9445,10771 C 9445,10758 9442,10746 9435,10737 9427,10728 9419,10720 9407,10715 9396,10710 9381,10706 9362,10703 9344,10700 9326,10699 9308,10698 9291,10697 9270,10697 9243,10697 9219,10697 9197,10697 9179,10698 9162,10699 9144,10700 9126,10703 9108,10706 9093,10710 9081,10715 9070,10720 9060,10728 9053,10737 9047,10746 9043,10758 9043,10771 L 9043,11390 8961,11390 8961,10771 C 8961,10689 9055,10648 9243,10648 9432,10648 9526,10689 9526,10771 Z M 9690,10771 L 9690,11390 9607,11390 9607,10771 C 9607,10713 9574,10670 9506,10641 9439,10613 9351,10598 9243,10598 9136,10598 9048,10613 8981,10641 8914,10670 8880,10713 8880,10771 L 8880,11390 8799,11390 8799,10771 C 8799,10723 8819,10682 8860,10648 8900,10613 8954,10588 9020,10573 9085,10557 9161,10549 9243,10549 9328,10549 9402,10557 9468,10573 9534,10588 9587,10613 9629,10648 9668,10682 9690,10723 9690,10771 Z M 9852,10771 L 9852,11390 9771,11390 9771,10771 C 9771,10728 9758,10689 9730,10654 9701,10620 9663,10591 9615,10569 9567,10547 9511,10529 9448,10518 9386,10506 9318,10500 9243,10500 9171,10500 9103,10506 9040,10518 8976,10529 8921,10547 8871,10569 8824,10591 8785,10620 8759,10654 8731,10689 8718,10728 8718,10771 L 8718,11390 8635,11390 8635,10771 C 8635,10721 8652,10676 8685,10635 8716,10595 8759,10561 8814,10534 8870,10508 8934,10487 9007,10472 9081,10458 9161,10451 9243,10451 9328,10451 9407,10458 9480,10472 9554,10487 9619,10508 9673,10534 9728,10561 9773,10595 9804,10635 9835,10676 9852,10721 9852,10771 Z M 10016,11390 L 9933,11390 9933,10771 C 9933,10721 9915,10673 9878,10628 9842,10582 9792,10543 9731,10510 9670,10477 9596,10450 9511,10431 9425,10411 9336,10401 9243,10401 9116,10401 9000,10416 8898,10445 8794,10474 8711,10517 8648,10573 8585,10630 8554,10696 8554,10771 L 8554,11390 8473,11390 8473,10771 C 8473,10708 8493,10650 8534,10597 8576,10544 8630,10500 8700,10464 8769,10429 8852,10401 8944,10381 9038,10361 9138,10351 9243,10351 9430,10351 9592,10381 9730,10438 9867,10381 10029,10351 10216,10351 10321,10351 10421,10361 10515,10381 10609,10401 10690,10429 10761,10464 10831,10500 10885,10544 10927,10597 10966,10650 10988,10708 10988,10771 L 10988,11390 10905,11390 10905,10771 C 10905,10696 10874,10631 10812,10574 10750,10517 10667,10474 10563,10445 10459,10416 10343,10401 10216,10401 10057,10401 9916,10424 9797,10470 9815,10479 9834,10491 9855,10505 9959,10469 10078,10451 10216,10451 10300,10451 10379,10458 10452,10472 10526,10487 10591,10508 10645,10534 10700,10561 10745,10595 10776,10635 10807,10676 10824,10721 10824,10771 L 10824,11390 10743,11390 10743,10771 C 10743,10728 10730,10689 10702,10654 10674,10620 10636,10591 10588,10569 10540,10547 10483,10529 10421,10518 10358,10506 10290,10500 10216,10500 10097,10500 9992,10515 9905,10544 9918,10557 9933,10571 9946,10587 10021,10562 10110,10549 10216,10549 10300,10549 10374,10557 10440,10573 10507,10588 10559,10613 10601,10648 10640,10682 10662,10723 10662,10771 L 10662,11390 10579,11390 10579,10771 C 10579,10713 10546,10670 10478,10641 10411,10613 10323,10598 10216,10598 10118,10598 10039,10609 9978,10631 9987,10649 9996,10665 10001,10680 10047,10659 10120,10648 10216,10648 10404,10648 10498,10689 10498,10771 L 10498,11390 10417,11390 10417,10771 C 10417,10758 10414,10746 10407,10737 10399,10728 10391,10720 10379,10715 10368,10710 10353,10706 10335,10703 10316,10700 10298,10699 10280,10698 10264,10697 10242,10697 10216,10697 10191,10697 10169,10697 10151,10698 10135,10699 10116,10700 10098,10703 10080,10706 10065,10710 10054,10715 10042,10720 10032,10728 10025,10737 10019,10746 10016,10758 10016,10771 L 10016,11390 Z M 11823,10925 L 12167,10925 C 12234,10925 12292,10912 12340,10888 12388,10862 12411,10827 12411,10783 12411,10747 12386,10716 12337,10689 12287,10661 12231,10648 12167,10648 L 11598,10648 11598,11390 11517,11390 11517,10598 12167,10598 C 12254,10598 12330,10617 12395,10654 12461,10691 12492,10733 12492,10783 12492,10841 12461,10888 12398,10922 12335,10957 12257,10974 12167,10974 L 11823,10974 11823,10925 Z M 11823,11023 L 12167,11023 C 12279,11023 12375,11001 12454,10956 12534,10911 12577,10853 12577,10783 12577,10720 12534,10666 12453,10619 12372,10572 12276,10549 12167,10549 L 11434,10549 11434,11390 11353,11390 11353,10500 12167,10500 C 12299,10500 12413,10528 12510,10584 12608,10641 12658,10706 12658,10783 12658,10865 12610,10934 12512,10990 12416,11045 12300,11072 12167,11072 L 11823,11072 11823,11023 Z M 11823,11122 L 12167,11122 C 12269,11122 12363,11107 12451,11078 12537,11049 12608,11008 12661,10956 12712,10904 12739,10846 12739,10783 12739,10724 12712,10669 12661,10618 12610,10567 12540,10526 12451,10496 12363,10466 12269,10451 12167,10451 L 11272,10451 11272,11390 11191,11390 11191,10401 12167,10401 C 12252,10401 12337,10412 12416,10432 12497,10453 12568,10480 12626,10515 12686,10549 12732,10590 12767,10636 12803,10683 12820,10732 12820,10783 12820,10842 12803,10897 12768,10946 12734,10995 12686,11036 12626,11069 12567,11101 12497,11127 12418,11144 12338,11162 12256,11171 12167,11171 L 11823,11171 11823,11122 Z M 11760,11390 L 11679,11390 11679,10697 12167,10697 C 12211,10697 12249,10705 12282,10722 12314,10738 12330,10758 12330,10783 12330,10844 12276,10874 12167,10874 L 11823,10874 11823,10825 12167,10825 C 12221,10825 12249,10811 12249,10783 12249,10772 12241,10763 12224,10756 12209,10750 12190,10746 12167,10746 L 11760,10746 11760,11390 Z M 14157,10903 C 14157,10843 14127,10798 14068,10765 14008,10733 13929,10717 13831,10717 13749,10717 13678,10735 13618,10769 13559,10805 13529,10847 13529,10896 13529,10923 13535,10948 13547,10969 13559,10991 13575,11009 13597,11024 13616,11038 13641,11050 13669,11059 13699,11068 13729,11075 13760,11079 13792,11083 13825,11085 13860,11085 13945,11085 14025,11073 14096,11047 L 14096,11096 C 14022,11120 13944,11131 13860,11131 13805,11131 13754,11127 13706,11118 13658,11109 13615,11096 13575,11078 13535,11060 13504,11035 13483,11004 13459,10972 13448,10937 13448,10896 13448,10832 13484,10778 13557,10734 13630,10690 13722,10668 13831,10668 13954,10668 14051,10689 14126,10730 14202,10771 14238,10829 14238,10903 L 14238,11390 14157,11390 14157,10903 Z M 14402,10903 L 14402,11390 14321,11390 14321,10903 C 14321,10816 14274,10746 14184,10695 14093,10644 13975,10619 13831,10619 13699,10619 13588,10646 13499,10699 13410,10752 13367,10818 13367,10896 13367,10942 13380,10984 13406,11021 13433,11058 13469,11088 13516,11110 13562,11132 13613,11149 13669,11161 13727,11173 13787,11179 13850,11179 13936,11179 14018,11166 14096,11142 L 14096,11195 C 14013,11216 13932,11226 13848,11226 13774,11226 13702,11219 13636,11205 13569,11191 13509,11170 13456,11143 13403,11117 13362,11082 13330,11039 13301,10997 13284,10949 13284,10896 13284,10805 13337,10728 13443,10664 13547,10601 13678,10570 13831,10570 13941,10570 14038,10583 14124,10610 14210,10636 14278,10675 14327,10726 14377,10776 14402,10836 14402,10903 Z M 14564,10903 L 14564,11390 14483,11390 14483,10903 C 14483,10826 14455,10759 14397,10701 14341,10642 14263,10598 14164,10567 14066,10536 13955,10520 13831,10520 13716,10520 13608,10537 13512,10571 13415,10604 13340,10649 13286,10706 13231,10763 13203,10827 13203,10896 13203,10954 13221,11008 13256,11056 13292,11104 13339,11143 13400,11174 13459,11206 13527,11230 13603,11248 13681,11265 13760,11273 13845,11273 13929,11273 14013,11263 14096,11241 L 14096,11291 C 14010,11311 13926,11320 13841,11320 13712,11320 13592,11303 13483,11267 13373,11232 13286,11180 13220,11115 13155,11050 13122,10977 13122,10896 13122,10837 13140,10783 13177,10730 13213,10678 13263,10633 13325,10595 13388,10557 13463,10527 13552,10505 13640,10482 13732,10471 13831,10471 13970,10471 14094,10489 14205,10524 14316,10560 14403,10611 14468,10676 14532,10742 14564,10818 14564,10903 Z M 14727,10903 L 14727,11390 14645,11390 14645,10903 C 14645,10809 14610,10725 14539,10651 14466,10578 14369,10522 14245,10482 14122,10442 13984,10422 13831,10422 13686,10422 13552,10443 13430,10485 13309,10528 13213,10585 13145,10658 13076,10730 13041,10810 13041,10896 13041,10952 13056,11005 13086,11056 13116,11106 13155,11150 13206,11188 13259,11226 13319,11259 13385,11286 13453,11314 13526,11334 13603,11349 13683,11363 13762,11370 13841,11370 13931,11370 14015,11359 14096,11339 L 14096,11390 C 14012,11407 13926,11416 13838,11416 13745,11416 13658,11408 13572,11393 13484,11377 13405,11355 13332,11324 13258,11294 13193,11258 13137,11217 13082,11175 13038,11126 13006,11071 12975,11016 12958,10957 12958,10896 12958,10824 12982,10756 13025,10692 13069,10628 13129,10572 13206,10525 13282,10479 13375,10442 13484,10414 13593,10386 13709,10372 13831,10372 13957,10372 14074,10385 14185,10411 14294,10436 14390,10472 14470,10517 14549,10563 14612,10618 14658,10685 14704,10751 14727,10824 14727,10903 Z M 15928,10920 L 15799,10920 C 15640,10920 15519,10900 15433,10860 15349,10821 15306,10767 15306,10698 15306,10634 15356,10581 15457,10538 15556,10496 15696,10474 15878,10474 15999,10474 16111,10485 16215,10505 16320,10525 16407,10553 16475,10589 L 16412,10620 C 16351,10590 16273,10566 16179,10549 16087,10532 15986,10524 15878,10524 15719,10524 15597,10540 15513,10573 15428,10606 15387,10648 15387,10698 15387,10753 15422,10796 15491,10825 15559,10855 15662,10870 15799,10870 L 15923,10870 C 16083,10870 16207,10890 16292,10929 16378,10968 16420,11022 16420,11090 16420,11154 16371,11208 16270,11251 16169,11294 16029,11315 15848,11315 15728,11315 15615,11305 15511,11285 15407,11265 15319,11237 15250,11200 L 15314,11168 C 15376,11200 15453,11224 15546,11240 15640,11257 15741,11266 15848,11266 16007,11266 16130,11249 16212,11216 16296,11183 16339,11141 16339,11090 16339,11036 16305,10993 16235,10964 16166,10935 16063,10920 15928,10920 Z M 15928,11018 L 15799,11018 C 15589,11018 15427,10990 15314,10932 15200,10873 15142,10796 15142,10698 15142,10654 15159,10612 15192,10574 15223,10535 15270,10501 15331,10471 15392,10442 15470,10419 15564,10402 15658,10385 15762,10376 15878,10376 16024,10376 16159,10389 16287,10416 16412,10443 16518,10480 16602,10528 L 16536,10557 C 16460,10515 16364,10483 16249,10460 16133,10437 16010,10425 15878,10425 15675,10425 15514,10451 15399,10503 15283,10555 15225,10620 15225,10698 15225,10782 15275,10847 15374,10897 15473,10945 15615,10969 15799,10969 L 15923,10969 C 16146,10969 16258,11010 16258,11090 16258,11127 16224,11157 16156,11180 16087,11205 15984,11216 15848,11216 15753,11216 15663,11210 15582,11196 15500,11182 15432,11163 15379,11137 L 15443,11107 C 15538,11147 15672,11166 15848,11166 15961,11166 16045,11159 16096,11145 16149,11131 16176,11113 16176,11090 16176,11064 16158,11046 16121,11035 16083,11024 16019,11018 15928,11018 Z M 15928,10820 L 15799,10820 C 15579,10820 15468,10779 15468,10698 15468,10662 15503,10632 15571,10608 15638,10585 15741,10573 15878,10573 15974,10573 16062,10580 16144,10593 16227,10607 16295,10626 16348,10651 L 16283,10681 C 16189,10642 16053,10622 15878,10622 15764,10622 15681,10629 15629,10643 15576,10658 15549,10676 15549,10698 15549,10724 15569,10743 15605,10754 15642,10765 15706,10770 15799,10770 L 15928,10770 C 16138,10770 16298,10800 16412,10858 16526,10916 16583,10994 16583,11090 16583,11134 16568,11176 16535,11216 16502,11255 16455,11289 16396,11318 16335,11347 16257,11371 16163,11388 16068,11405 15964,11414 15848,11414 15703,11414 15567,11400 15440,11373 15314,11347 15209,11310 15124,11262 L 15189,11232 C 15266,11274 15362,11307 15478,11330 15592,11353 15716,11364 15848,11364 16052,11364 16212,11338 16328,11286 16444,11234 16502,11168 16502,11090 16502,11008 16452,10942 16353,10894 16254,10845 16111,10820 15928,10820 Z"/>
      </g>
     </g>
     <g class="com.sun.star.drawing.PolyPolygonShape">
      <g id="id9">
       <rect class="BoundingBox" stroke="none" fill="none" x="3322" y="9484" width="7115" height="1235"/>
      </g>
     </g>
     <g class="com.sun.star.drawing.PolyPolygonShape">
      <g id="id10">
       <rect class="BoundingBox" stroke="none" fill="none" x="3322" y="9484" width="7115" height="1235"/>
      </g>
     </g>
     <g class="com.sun.star.drawing.PolyPolygonShape">
      <g id="id11">
       <rect class="BoundingBox" stroke="none" fill="none" x="3286" y="9462" width="7187" height="1279"/>
      </g>
     </g>
     <g class="com.sun.star.drawing.OpenBezierShape">
      <g id="id12">
       <rect class="BoundingBox" stroke="none" fill="none" x="3359" y="9203" width="7167" height="1630"/>
       <path fill="none" stroke="rgb(28,69,135)" stroke-width="106" stroke-linejoin="round" d="M 10472,9257 C 6572,9257 3413,9938 3413,10779"/>
      </g>
     </g>
     <g class="com.sun.star.drawing.PolyPolygonShape">
      <g id="id13">
       <rect class="BoundingBox" stroke="none" fill="none" x="10430" y="9483" width="6155" height="1012"/>
      </g>
     </g>
     <g class="com.sun.star.drawing.PolyPolygonShape">
      <g id="id14">
       <rect class="BoundingBox" stroke="none" fill="none" x="10393" y="9461" width="6229" height="1056"/>
      </g>
     </g>
     <g class="com.sun.star.drawing.OpenBezierShape">
      <g id="id15">
       <rect class="BoundingBox" stroke="none" fill="none" x="10415" y="9201" width="6260" height="1117"/>
       <path fill="none" stroke="rgb(28,69,135)" stroke-width="106" stroke-linejoin="round" d="M 16621,10263 C 13744,10265 11219,9852 10469,9255"/>
      </g>
     </g>
     <g class="com.sun.star.drawing.OpenBezierShape">
      <g id="id16">
       <rect class="BoundingBox" stroke="none" fill="none" x="10415" y="9201" width="6006" height="1117"/>
       <path fill="none" stroke="rgb(28,69,135)" stroke-width="106" stroke-linejoin="round" d="M 16367,10263 C 13609,10265 11188,9852 10469,9255"/>
      </g>
     </g>
    </g>
   </g>
  </g>
 </g>
</svg>