<?xml version="1.0" encoding="UTF-8" standalone="no"?>
<!DOCTYPE svg PUBLIC "-//W3C//DTD SVG 1.1//EN"
 "http://www.w3.org/Graphics/SVG/1.1/DTD/svg11.dtd">
<!-- Generated by graphviz version 2.38.0 (20140413.2041)
 -->
<!-- Title: CO2MPAS model Pages: 1 -->
<svg width="1708pt" height="823pt"
 viewBox="0.00 0.00 1708.00 823.00" xmlns="http://www.w3.org/2000/svg" xmlns:xlink="http://www.w3.org/1999/xlink">
<g id="graph0" class="graph" transform="scale(1 1) rotate(0) translate(4 819)">
<title>CO2MPAS model</title>
<polygon fill="white" stroke="none" points="-4,4 -4,-819 1704,-819 1704,4 -4,4"/>
<text text-anchor="middle" x="850" y="-7.8" font-family="Times New Roman,serif" font-size="14.00">CO2MPAS model</text>
<!-- 3825410129914027761 -->
<g id="node1" class="node"><title>3825410129914027761</title>
<g id="a_node1"><a xlink:href="./CO2MPAS%20model/calculate_precondition_output.gv.svg" xlink:title="Wraps all functions needed to calculate the precondition outputs.">
<polygon fill="yellow" stroke="black" points="1090,-731 906,-731 906,-695 1096,-695 1096,-725 1090,-731"/>
<polyline fill="none" stroke="black" points="1090,-731 1090,-725 "/>
<polyline fill="none" stroke="black" points="1096,-725 1090,-725 "/>
<text text-anchor="start" x="916" y="-708.8" font-family="Times New Roman,serif" font-size="14.00">calculate_precondition_output</text>
</a>
</g>
</g>
<!-- 959863222787796486 -->
<g id="node29" class="node"><title>959863222787796486</title>
<g id="a_node29"><a xlink:title="Dictionary that has all outputs of the precondition cycle.">
<path fill="cyan" stroke="black" d="M1076,-653C1076,-653 926,-653 926,-653 920,-653 914,-647 914,-641 914,-641 914,-629 914,-629 914,-623 920,-617 926,-617 926,-617 1076,-617 1076,-617 1082,-617 1088,-623 1088,-629 1088,-629 1088,-641 1088,-641 1088,-647 1082,-653 1076,-653"/>
<text text-anchor="start" x="924" y="-630.8" font-family="Times New Roman,serif" font-size="14.00">output.precondition.wltp_p</text>
</a>
</g>
</g>
<!-- 3825410129914027761&#45;&gt;959863222787796486 -->
<g id="edge1" class="edge"><title>3825410129914027761&#45;&gt;959863222787796486</title>
<path fill="none" stroke="black" d="M1001,-694.909C1001,-694.909 1001,-663.263 1001,-663.263"/>
<polygon fill="black" stroke="black" points="1004.5,-663.263 1001,-653.263 997.5,-663.263 1004.5,-663.263"/>
</g>
<!-- 550621390334780039 -->
<g id="node2" class="node"><title>550621390334780039</title>
<g id="a_node2"><a xlink:href="./CO2MPAS%20model/calibrate_with_wltp_h.gv.svg" xlink:title="Wraps all functions needed to calibrate the models to predict light&#45;vehicles&#x27; CO2 emissions.">
<polygon fill="yellow" stroke="black" points="1320,-431 1182,-431 1182,-395 1326,-395 1326,-425 1320,-431"/>
<polyline fill="none" stroke="black" points="1320,-431 1320,-425 "/>
<polyline fill="none" stroke="black" points="1326,-425 1320,-425 "/>
<text text-anchor="start" x="1192" y="-408.8" font-family="Times New Roman,serif" font-size="14.00">calibrate_with_wltp_h</text>
</a>
</g>
</g>
<!-- &#45;5288412062942350318 -->
<g id="node27" class="node"><title>&#45;5288412062942350318</title>
<g id="a_node27"><a xlink:title="Output data.">
<path fill="cyan" stroke="black" d="M1323,-353C1323,-353 1187,-353 1187,-353 1181,-353 1175,-347 1175,-341 1175,-341 1175,-329 1175,-329 1175,-323 1181,-317 1187,-317 1187,-317 1323,-317 1323,-317 1329,-317 1335,-323 1335,-329 1335,-329 1335,-341 1335,-341 1335,-347 1329,-353 1323,-353"/>
<text text-anchor="start" x="1185" y="-330.8" font-family="Times New Roman,serif" font-size="14.00">output.calibration.wltp_h</text>
</a>
</g>
</g>
<!-- 550621390334780039&#45;&gt;&#45;5288412062942350318 -->
<g id="edge2" class="edge"><title>550621390334780039&#45;&gt;&#45;5288412062942350318</title>
<path fill="none" stroke="black" d="M1254,-394.909C1254,-394.909 1254,-363.263 1254,-363.263"/>
<polygon fill="black" stroke="black" points="1257.5,-363.263 1254,-353.263 1250.5,-363.263 1257.5,-363.263"/>
</g>
<!-- &#45;4721245168724643076 -->
<g id="node3" class="node"><title>&#45;4721245168724643076</title>
<g id="a_node3"><a xlink:href="./CO2MPAS%20model/calibrate_with_wltp_l.gv.svg" xlink:title="Wraps all functions needed to calibrate the models to predict light&#45;vehicles&#x27; CO2 emissions.">
<polygon fill="yellow" stroke="black" points="835,-431 701,-431 701,-395 841,-395 841,-425 835,-431"/>
<polyline fill="none" stroke="black" points="835,-431 835,-425 "/>
<polyline fill="none" stroke="black" points="841,-425 835,-425 "/>
<text text-anchor="start" x="711" y="-408.8" font-family="Times New Roman,serif" font-size="14.00">calibrate_with_wltp_l</text>
</a>
</g>
</g>
<!-- 8441958173072262256 -->
<g id="node28" class="node"><title>8441958173072262256</title>
<g id="a_node28"><a xlink:title="Output data.">
<path fill="cyan" stroke="black" d="M836,-353C836,-353 704,-353 704,-353 698,-353 692,-347 692,-341 692,-341 692,-329 692,-329 692,-323 698,-317 704,-317 704,-317 836,-317 836,-317 842,-317 848,-323 848,-329 848,-329 848,-341 848,-341 848,-347 842,-353 836,-353"/>
<text text-anchor="start" x="702" y="-330.8" font-family="Times New Roman,serif" font-size="14.00">output.calibration.wltp_l</text>
</a>
</g>
</g>
<!-- &#45;4721245168724643076&#45;&gt;8441958173072262256 -->
<g id="edge3" class="edge"><title>&#45;4721245168724643076&#45;&gt;8441958173072262256</title>
<path fill="none" stroke="black" d="M771,-394.909C771,-394.909 771,-363.263 771,-363.263"/>
<polygon fill="black" stroke="black" points="774.5,-363.263 771,-353.263 767.5,-363.263 774.5,-363.263"/>
</g>
<!-- &#45;3616154880395745865 -->
<g id="node4" class="node"><title>&#45;3616154880395745865</title>
<g id="a_node4"><a xlink:href="./CO2MPAS%20model/co2mpas.modelselect_calibration_data.txt" xlink:title="Updates cycle inputs with the precondition outputs.">
<polygon fill="springgreen" stroke="black" points="1318,-575 1170,-575 1170,-539 1318,-539 1318,-575"/>
<text text-anchor="start" x="1180" y="-552.8" font-family="Times New Roman,serif" font-size="14.00">select_calibration_data</text>
</a>
</g>
</g>
<!-- 823541152470222410 -->
<g id="node10" class="node"><title>823541152470222410</title>
<g id="a_node10"><a xlink:title="Dictionary that has all inputs of the calibration cycle.">
<path fill="cyan" stroke="black" d="M1314,-503C1314,-503 1190,-503 1190,-503 1184,-503 1178,-497 1178,-491 1178,-491 1178,-479 1178,-479 1178,-473 1184,-467 1190,-467 1190,-467 1314,-467 1314,-467 1320,-467 1326,-473 1326,-479 1326,-479 1326,-491 1326,-491 1326,-497 1320,-503 1314,-503"/>
<text text-anchor="start" x="1188.5" y="-480.8" font-family="Times New Roman,serif" font-size="14.00">data.calibration.wltp_h</text>
</a>
</g>
</g>
<!-- &#45;3616154880395745865&#45;&gt;823541152470222410 -->
<g id="edge4" class="edge"><title>&#45;3616154880395745865&#45;&gt;823541152470222410</title>
<path fill="none" stroke="black" d="M1248,-538.831C1248,-538.831 1248,-513.413 1248,-513.413"/>
<polygon fill="black" stroke="black" points="1251.5,-513.413 1248,-503.413 1244.5,-513.413 1251.5,-513.413"/>
</g>
<!-- 3508682867401627509 -->
<g id="node5" class="node"><title>3508682867401627509</title>
<g id="a_node5"><a xlink:href="./CO2MPAS%20model/co2mpas.modelselect_calibration_data.txt" xlink:title="Updates cycle inputs with the precondition outputs.">
<polygon fill="springgreen" stroke="black" points="877,-575 705,-575 705,-539 877,-539 877,-575"/>
<text text-anchor="start" x="715.5" y="-552.8" font-family="Times New Roman,serif" font-size="14.00">select_calibration_data&lt;0&gt;</text>
</a>
</g>
</g>
<!-- 8631535833606269716 -->
<g id="node11" class="node"><title>8631535833606269716</title>
<g id="a_node11"><a xlink:title="Dictionary that has all inputs of the calibration cycle.">
<path fill="cyan" stroke="black" d="M835,-503C835,-503 715,-503 715,-503 709,-503 703,-497 703,-491 703,-491 703,-479 703,-479 703,-473 709,-467 715,-467 715,-467 835,-467 835,-467 841,-467 847,-473 847,-479 847,-479 847,-491 847,-491 847,-497 841,-503 835,-503"/>
<text text-anchor="start" x="713" y="-480.8" font-family="Times New Roman,serif" font-size="14.00">data.calibration.wltp_l</text>
</a>
</g>
</g>
<!-- 3508682867401627509&#45;&gt;8631535833606269716 -->
<g id="edge5" class="edge"><title>3508682867401627509&#45;&gt;8631535833606269716</title>
<path fill="none" stroke="black" d="M776,-538.831C776,-538.831 776,-513.413 776,-513.413"/>
<polygon fill="black" stroke="black" points="779.5,-513.413 776,-503.413 772.5,-513.413 779.5,-513.413"/>
</g>
<!-- 5635915267124089766 -->
<g id="node6" class="node"><title>5635915267124089766</title>
<g id="a_node6"><a xlink:href="./CO2MPAS%20model/co2mpas.modelselect_prediction_data.txt" xlink:title="Selects the data required to predict the CO2 emissions with CO2MPAS model.">
<polygon fill="springgreen" stroke="black" points="1634,-275 1486,-275 1486,-239 1634,-239 1634,-275"/>
<text text-anchor="start" x="1496.5" y="-252.8" font-family="Times New Roman,serif" font-size="14.00">select_prediction_data</text>
</a>
</g>
</g>
<!-- &#45;3429256789844815396 -->
<g id="node16" class="node"><title>&#45;3429256789844815396</title>
<g id="a_node16"><a xlink:title="Data required to predict the CO2 emissions with CO2MPAS model.">
<path fill="cyan" stroke="black" d="M1688,-203C1688,-203 1566,-203 1566,-203 1560,-203 1554,-197 1554,-191 1554,-191 1554,-179 1554,-179 1554,-173 1560,-167 1566,-167 1566,-167 1688,-167 1688,-167 1694,-167 1700,-173 1700,-179 1700,-179 1700,-191 1700,-191 1700,-197 1694,-203 1688,-203"/>
<text text-anchor="start" x="1564" y="-180.8" font-family="Times New Roman,serif" font-size="14.00">data.prediction.wltp_h</text>
</a>
</g>
</g>
<!-- 5635915267124089766&#45;&gt;&#45;3429256789844815396 -->
<g id="edge6" class="edge"><title>5635915267124089766&#45;&gt;&#45;3429256789844815396</title>
<path fill="none" stroke="black" d="M1594,-238.831C1594,-238.831 1594,-213.413 1594,-213.413"/>
<polygon fill="black" stroke="black" points="1597.5,-213.413 1594,-203.413 1590.5,-213.413 1597.5,-213.413"/>
</g>
<!-- &#45;3526676934247528577 -->
<g id="node7" class="node"><title>&#45;3526676934247528577</title>
<g id="a_node7"><a xlink:href="./CO2MPAS%20model/co2mpas.modelselect_prediction_data.txt" xlink:title="Selects the data required to predict the CO2 emissions with CO2MPAS model.">
<polygon fill="springgreen" stroke="black" points="504,-275 334,-275 334,-239 504,-239 504,-275"/>
<text text-anchor="start" x="344" y="-252.8" font-family="Times New Roman,serif" font-size="14.00">select_prediction_data&lt;0&gt;</text>
</a>
</g>
</g>
<!-- 115318835249511749 -->
<g id="node17" class="node"><title>115318835249511749</title>
<g id="a_node17"><a xlink:title="Data required to predict the CO2 emissions with CO2MPAS model.">
<path fill="cyan" stroke="black" d="M298,-203C298,-203 180,-203 180,-203 174,-203 168,-197 168,-191 168,-191 168,-179 168,-179 168,-173 174,-167 180,-167 180,-167 298,-167 298,-167 304,-167 310,-173 310,-179 310,-179 310,-191 310,-191 310,-197 304,-203 298,-203"/>
<text text-anchor="start" x="178" y="-180.8" font-family="Times New Roman,serif" font-size="14.00">data.prediction.wltp_l</text>
</a>
</g>
</g>
<!-- &#45;3526676934247528577&#45;&gt;115318835249511749 -->
<g id="edge7" class="edge"><title>&#45;3526676934247528577&#45;&gt;115318835249511749</title>
<path fill="none" stroke="black" d="M333.744,-257C287.22,-257 239,-257 239,-257 239,-257 239,-213.169 239,-213.169"/>
<polygon fill="black" stroke="black" points="242.5,-213.169 239,-203.169 235.5,-213.169 242.5,-213.169"/>
</g>
<!-- &#45;4074391296593179274 -->
<g id="node8" class="node"><title>&#45;4074391296593179274</title>
<g id="a_node8"><a xlink:title="config.selector.all">
<path fill="cyan" stroke="black" d="M973.5,-359C973.5,-359 878.5,-359 878.5,-359 872.5,-359 866.5,-353 866.5,-347 866.5,-347 866.5,-323 866.5,-323 866.5,-317 872.5,-311 878.5,-311 878.5,-311 973.5,-311 973.5,-311 979.5,-311 985.5,-317 985.5,-323 985.5,-323 985.5,-347 985.5,-347 985.5,-353 979.5,-359 973.5,-359"/>
<text text-anchor="start" x="877" y="-341.8" font-family="Times New Roman,serif" font-size="14.00">config.selector.all</text>
<polygon fill="none" stroke="black" points="875,-315 875,-336 942,-336 942,-315 875,-315"/>
<text text-anchor="start" x="893" y="-321.8" font-family="Times New Roman,serif" font-size="14.00">default=</text>
<polygon fill="none" stroke="black" points="942,-315 942,-336 978,-336 978,-315 942,-315"/>
<text text-anchor="start" x="945" y="-321.8" font-family="Times New Roman,serif" font-size="14.00">{}</text>
</a>
</g>
</g>
<!-- &#45;2202121249019829706 -->
<g id="node18" class="node"><title>&#45;2202121249019829706</title>
<g id="a_node18"><a xlink:href="./CO2MPAS%20model/extract_calibrated_models.gv.svg" xlink:title="Select the calibrated models.">
<polygon fill="yellowgreen" stroke="black" points="1092,-275 930,-275 930,-239 1098,-239 1098,-269 1092,-275"/>
<polyline fill="none" stroke="black" points="1092,-275 1092,-269 "/>
<polyline fill="none" stroke="black" points="1098,-269 1092,-269 "/>
<text text-anchor="start" x="940" y="-252.8" font-family="Times New Roman,serif" font-size="14.00">extract_calibrated_models</text>
</a>
</g>
</g>
<!-- &#45;4074391296593179274&#45;&gt;&#45;2202121249019829706 -->
<g id="edge8" class="edge"><title>&#45;4074391296593179274&#45;&gt;&#45;2202121249019829706</title>
<path fill="none" stroke="black" d="M957.75,-310.748C957.75,-310.748 957.75,-285.288 957.75,-285.288"/>
<polygon fill="black" stroke="black" points="961.25,-285.287 957.75,-275.288 954.25,-285.288 961.25,-285.287"/>
</g>
<!-- 1085489875506326479 -->
<g id="node9" class="node"><title>1085489875506326479</title>
<g id="a_node9"><a xlink:title="data.calibration.model_scores">
<path fill="cyan" stroke="black" d="M1096,-203C1096,-203 932,-203 932,-203 926,-203 920,-197 920,-191 920,-191 920,-179 920,-179 920,-173 926,-167 932,-167 932,-167 1096,-167 1096,-167 1102,-167 1108,-173 1108,-179 1108,-179 1108,-191 1108,-191 1108,-197 1102,-203 1096,-203"/>
<text text-anchor="start" x="930" y="-180.8" font-family="Times New Roman,serif" font-size="14.00">data.calibration.model_scores</text>
</a>
</g>
</g>
<!-- 823541152470222410&#45;&gt;550621390334780039 -->
<g id="edge9" class="edge"><title>823541152470222410&#45;&gt;550621390334780039</title>
<path fill="none" stroke="black" d="M1254,-466.831C1254,-466.831 1254,-441.413 1254,-441.413"/>
<polygon fill="black" stroke="black" points="1257.5,-441.413 1254,-431.413 1250.5,-441.413 1257.5,-441.413"/>
</g>
<!-- 8631535833606269716&#45;&gt;&#45;4721245168724643076 -->
<g id="edge10" class="edge"><title>8631535833606269716&#45;&gt;&#45;4721245168724643076</title>
<path fill="none" stroke="black" d="M772,-466.831C772,-466.831 772,-441.413 772,-441.413"/>
<polygon fill="black" stroke="black" points="775.5,-441.413 772,-431.413 768.5,-441.413 775.5,-441.413"/>
</g>
<!-- &#45;572625333081964411 -->
<g id="node12" class="node"><title>&#45;572625333081964411</title>
<g id="a_node12"><a xlink:title="data.prediction.models_nedc_h">
<path fill="cyan" stroke="black" d="M1312,-203C1312,-203 1138,-203 1138,-203 1132,-203 1126,-197 1126,-191 1126,-191 1126,-179 1126,-179 1126,-173 1132,-167 1138,-167 1138,-167 1312,-167 1312,-167 1318,-167 1324,-173 1324,-179 1324,-179 1324,-191 1324,-191 1324,-197 1318,-203 1312,-203"/>
<text text-anchor="start" x="1136.5" y="-180.8" font-family="Times New Roman,serif" font-size="14.00">data.prediction.models_nedc_h</text>
</a>
</g>
</g>
<!-- 2396385260629380429 -->
<g id="node34" class="node"><title>2396385260629380429</title>
<g id="a_node34"><a xlink:href="./CO2MPAS%20model/predict_nedc_h.gv.svg" xlink:title="Wraps all functions needed to calibrate and predict light&#45;vehicles&#x27; CO2 emissions.">
<polygon fill="yellow" stroke="black" points="1073,-131 971,-131 971,-95 1079,-95 1079,-125 1073,-131"/>
<polyline fill="none" stroke="black" points="1073,-131 1073,-125 "/>
<polyline fill="none" stroke="black" points="1079,-125 1073,-125 "/>
<text text-anchor="start" x="981" y="-108.8" font-family="Times New Roman,serif" font-size="14.00">predict_nedc_h</text>
</a>
</g>
</g>
<!-- &#45;572625333081964411&#45;&gt;2396385260629380429 -->
<g id="edge11" class="edge"><title>&#45;572625333081964411&#45;&gt;2396385260629380429</title>
<path fill="none" stroke="black" d="M1225,-166.831C1225,-145.502 1225,-113 1225,-113 1225,-113 1089.12,-113 1089.12,-113"/>
<polygon fill="black" stroke="black" points="1089.12,-109.5 1079.12,-113 1089.12,-116.5 1089.12,-109.5"/>
</g>
<!-- 4965506154368868826 -->
<g id="node13" class="node"><title>4965506154368868826</title>
<g id="a_node13"><a xlink:title="data.prediction.models_nedc_l">
<path fill="cyan" stroke="black" d="M510,-203C510,-203 340,-203 340,-203 334,-203 328,-197 328,-191 328,-191 328,-179 328,-179 328,-173 334,-167 340,-167 340,-167 510,-167 510,-167 516,-167 522,-173 522,-179 522,-179 522,-191 522,-191 522,-197 516,-203 510,-203"/>
<text text-anchor="start" x="338.5" y="-180.8" font-family="Times New Roman,serif" font-size="14.00">data.prediction.models_nedc_l</text>
</a>
</g>
</g>
<!-- 3447218200353024149 -->
<g id="node35" class="node"><title>3447218200353024149</title>
<g id="a_node35"><a xlink:href="./CO2MPAS%20model/predict_nedc_l.gv.svg" xlink:title="Wraps all functions needed to calibrate and predict light&#45;vehicles&#x27; CO2 emissions.">
<polygon fill="yellow" stroke="black" points="297,-131 197,-131 197,-95 303,-95 303,-125 297,-131"/>
<polyline fill="none" stroke="black" points="297,-131 297,-125 "/>
<polyline fill="none" stroke="black" points="303,-125 297,-125 "/>
<text text-anchor="start" x="207.5" y="-108.8" font-family="Times New Roman,serif" font-size="14.00">predict_nedc_l</text>
</a>
</g>
</g>
<!-- 4965506154368868826&#45;&gt;3447218200353024149 -->
<g id="edge12" class="edge"><title>4965506154368868826&#45;&gt;3447218200353024149</title>
<path fill="none" stroke="black" d="M390.5,-166.965C390.5,-147.424 390.5,-119 390.5,-119 390.5,-119 313.117,-119 313.117,-119"/>
<polygon fill="black" stroke="black" points="313.117,-115.5 303.117,-119 313.117,-122.5 313.117,-115.5"/>
</g>
<!-- &#45;345014585680352324 -->
<g id="node14" class="node"><title>&#45;345014585680352324</title>
<g id="a_node14"><a xlink:title="data.prediction.models_wltp_h">
<path fill="cyan" stroke="black" d="M1524,-203C1524,-203 1354,-203 1354,-203 1348,-203 1342,-197 1342,-191 1342,-191 1342,-179 1342,-179 1342,-173 1348,-167 1354,-167 1354,-167 1524,-167 1524,-167 1530,-167 1536,-173 1536,-179 1536,-179 1536,-191 1536,-191 1536,-197 1530,-203 1524,-203"/>
<text text-anchor="start" x="1352" y="-180.8" font-family="Times New Roman,serif" font-size="14.00">data.prediction.models_wltp_h</text>
</a>
</g>
</g>
<!-- &#45;5312595574835814363 -->
<g id="node36" class="node"><title>&#45;5312595574835814363</title>
<g id="a_node36"><a xlink:href="./CO2MPAS%20model/predict_wltp_h.gv.svg" xlink:title="Wraps all functions needed to predict CO2 emissions.">
<polygon fill="yellow" stroke="black" points="1580,-131 1480,-131 1480,-95 1586,-95 1586,-125 1580,-131"/>
<polyline fill="none" stroke="black" points="1580,-131 1580,-125 "/>
<polyline fill="none" stroke="black" points="1586,-125 1580,-125 "/>
<text text-anchor="start" x="1490.5" y="-108.8" font-family="Times New Roman,serif" font-size="14.00">predict_wltp_h</text>
</a>
</g>
</g>
<!-- &#45;345014585680352324&#45;&gt;&#45;5312595574835814363 -->
<g id="edge13" class="edge"><title>&#45;345014585680352324&#45;&gt;&#45;5312595574835814363</title>
<path fill="none" stroke="black" d="M1508,-166.831C1508,-166.831 1508,-141.413 1508,-141.413"/>
<polygon fill="black" stroke="black" points="1511.5,-141.413 1508,-131.413 1504.5,-141.413 1511.5,-141.413"/>
</g>
<!-- 2765554393638124834 -->
<g id="node15" class="node"><title>2765554393638124834</title>
<g id="a_node15"><a xlink:title="data.prediction.models_wltp_l">
<path fill="cyan" stroke="black" d="M718,-203C718,-203 552,-203 552,-203 546,-203 540,-197 540,-191 540,-191 540,-179 540,-179 540,-173 546,-167 552,-167 552,-167 718,-167 718,-167 724,-167 730,-173 730,-179 730,-179 730,-191 730,-191 730,-197 724,-203 718,-203"/>
<text text-anchor="start" x="550" y="-180.8" font-family="Times New Roman,serif" font-size="14.00">data.prediction.models_wltp_l</text>
</a>
</g>
</g>
<!-- 1514673138058506975 -->
<g id="node37" class="node"><title>1514673138058506975</title>
<g id="a_node37"><a xlink:href="./CO2MPAS%20model/predict_wltp_l.gv.svg" xlink:title="Wraps all functions needed to predict CO2 emissions.">
<polygon fill="yellow" stroke="black" points="575,-131 479,-131 479,-95 581,-95 581,-125 575,-131"/>
<polyline fill="none" stroke="black" points="575,-131 575,-125 "/>
<polyline fill="none" stroke="black" points="581,-125 575,-125 "/>
<text text-anchor="start" x="489" y="-108.8" font-family="Times New Roman,serif" font-size="14.00">predict_wltp_l</text>
</a>
</g>
</g>
<!-- 2765554393638124834&#45;&gt;1514673138058506975 -->
<g id="edge14" class="edge"><title>2765554393638124834&#45;&gt;1514673138058506975</title>
<path fill="none" stroke="black" d="M560.5,-166.831C560.5,-166.831 560.5,-141.413 560.5,-141.413"/>
<polygon fill="black" stroke="black" points="564,-141.413 560.5,-131.413 557,-141.413 564,-141.413"/>
</g>
<!-- &#45;3429256789844815396&#45;&gt;&#45;5312595574835814363 -->
<g id="edge15" class="edge"><title>&#45;3429256789844815396&#45;&gt;&#45;5312595574835814363</title>
<path fill="none" stroke="black" d="M1570,-166.831C1570,-166.831 1570,-141.413 1570,-141.413"/>
<polygon fill="black" stroke="black" points="1573.5,-141.413 1570,-131.413 1566.5,-141.413 1573.5,-141.413"/>
</g>
<!-- 115318835249511749&#45;&gt;1514673138058506975 -->
<g id="edge16" class="edge"><title>115318835249511749&#45;&gt;1514673138058506975</title>
<path fill="none" stroke="black" d="M306.5,-166.909C306.5,-143.867 306.5,-107 306.5,-107 306.5,-107 468.725,-107 468.725,-107"/>
<polygon fill="black" stroke="black" points="468.725,-110.5 478.725,-107 468.725,-103.5 468.725,-110.5"/>
</g>
<!-- &#45;2202121249019829706&#45;&gt;1085489875506326479 -->
<g id="edge17" class="edge"><title>&#45;2202121249019829706&#45;&gt;1085489875506326479</title>
<path fill="none" stroke="black" d="M1014,-238.831C1014,-238.831 1014,-213.413 1014,-213.413"/>
<polygon fill="black" stroke="black" points="1017.5,-213.413 1014,-203.413 1010.5,-213.413 1017.5,-213.413"/>
</g>
<!-- &#45;2202121249019829706&#45;&gt;&#45;572625333081964411 -->
<g id="edge18" class="edge"><title>&#45;2202121249019829706&#45;&gt;&#45;572625333081964411</title>
<path fill="none" stroke="black" d="M1098.17,-246C1121.83,-246 1141.25,-246 1141.25,-246 1141.25,-246 1141.25,-213.302 1141.25,-213.302"/>
<polygon fill="black" stroke="black" points="1144.75,-213.302 1141.25,-203.302 1137.75,-213.302 1144.75,-213.302"/>
</g>
<!-- &#45;2202121249019829706&#45;&gt;4965506154368868826 -->
<g id="edge19" class="edge"><title>&#45;2202121249019829706&#45;&gt;4965506154368868826</title>
<path fill="none" stroke="black" d="M929.861,-257C787.159,-257 513,-257 513,-257 513,-257 513,-213.169 513,-213.169"/>
<polygon fill="black" stroke="black" points="516.5,-213.169 513,-203.169 509.5,-213.169 516.5,-213.169"/>
</g>
<!-- &#45;2202121249019829706&#45;&gt;&#45;345014585680352324 -->
<g id="edge20" class="edge"><title>&#45;2202121249019829706&#45;&gt;&#45;345014585680352324</title>
<path fill="none" stroke="black" d="M1098.24,-253C1215.44,-253 1413.5,-253 1413.5,-253 1413.5,-253 1413.5,-213.223 1413.5,-213.223"/>
<polygon fill="black" stroke="black" points="1417,-213.223 1413.5,-203.223 1410,-213.223 1417,-213.223"/>
</g>
<!-- &#45;2202121249019829706&#45;&gt;2765554393638124834 -->
<g id="edge21" class="edge"><title>&#45;2202121249019829706&#45;&gt;2765554393638124834</title>
<path fill="none" stroke="black" d="M930,-248C840.329,-248 711,-248 711,-248 711,-248 711,-213.222 711,-213.222"/>
<polygon fill="black" stroke="black" points="714.5,-213.222 711,-203.222 707.5,-213.222 714.5,-213.222"/>
</g>
<!-- &#45;8784995189004313023 -->
<g id="node19" class="node"><title>&#45;8784995189004313023</title>
<g id="a_node19"><a xlink:title="Dictionary that has inputs of the calibration cycle.">
<path fill="cyan" stroke="black" d="M1308,-659C1308,-659 1180,-659 1180,-659 1174,-659 1168,-653 1168,-647 1168,-647 1168,-623 1168,-623 1168,-617 1174,-611 1180,-611 1180,-611 1308,-611 1308,-611 1314,-611 1320,-617 1320,-623 1320,-623 1320,-647 1320,-647 1320,-653 1314,-659 1308,-659"/>
<text text-anchor="start" x="1178" y="-641.8" font-family="Times New Roman,serif" font-size="14.00">input.calibration.wltp_h</text>
<polygon fill="none" stroke="black" points="1176,-615 1176,-636 1260,-636 1260,-615 1176,-615"/>
<text text-anchor="start" x="1211" y="-621.8" font-family="Times New Roman,serif" font-size="14.00">default=</text>
<polygon fill="none" stroke="black" points="1260,-615 1260,-636 1312,-636 1312,-615 1260,-615"/>
<text text-anchor="start" x="1263" y="-621.8" font-family="Times New Roman,serif" font-size="14.00">{}</text>
</a>
</g>
</g>
<!-- &#45;8784995189004313023&#45;&gt;&#45;3616154880395745865 -->
<g id="edge22" class="edge"><title>&#45;8784995189004313023&#45;&gt;&#45;3616154880395745865</title>
<path fill="none" stroke="black" d="M1244,-610.748C1244,-610.748 1244,-585.288 1244,-585.288"/>
<polygon fill="black" stroke="black" points="1247.5,-585.287 1244,-575.288 1240.5,-585.288 1247.5,-585.287"/>
</g>
<!-- 227225334136654229 -->
<g id="node20" class="node"><title>227225334136654229</title>
<g id="a_node20"><a xlink:title="Dictionary that has inputs of the calibration cycle.">
<path fill="cyan" stroke="black" d="M853,-659C853,-659 729,-659 729,-659 723,-659 717,-653 717,-647 717,-647 717,-623 717,-623 717,-617 723,-611 729,-611 729,-611 853,-611 853,-611 859,-611 865,-617 865,-623 865,-623 865,-647 865,-647 865,-653 859,-659 853,-659"/>
<text text-anchor="start" x="727" y="-641.8" font-family="Times New Roman,serif" font-size="14.00">input.calibration.wltp_l</text>
<polygon fill="none" stroke="black" points="725,-615 725,-636 807,-636 807,-615 725,-615"/>
<text text-anchor="start" x="758" y="-621.8" font-family="Times New Roman,serif" font-size="14.00">default=</text>
<polygon fill="none" stroke="black" points="807,-615 807,-636 857,-636 857,-615 807,-615"/>
<text text-anchor="start" x="810" y="-621.8" font-family="Times New Roman,serif" font-size="14.00">{}</text>
</a>
</g>
</g>
<!-- 227225334136654229&#45;&gt;3508682867401627509 -->
<g id="edge23" class="edge"><title>227225334136654229&#45;&gt;3508682867401627509</title>
<path fill="none" stroke="black" d="M791,-610.748C791,-610.748 791,-585.288 791,-585.288"/>
<polygon fill="black" stroke="black" points="794.5,-585.287 791,-575.288 787.5,-585.288 794.5,-585.287"/>
</g>
<!-- &#45;1496160022092452199 -->
<g id="node21" class="node"><title>&#45;1496160022092452199</title>
<g id="a_node21"><a xlink:title="Dictionary that has all inputs of the calibration cycle.">
<path fill="cyan" stroke="black" d="M1071.5,-815C1071.5,-815 930.5,-815 930.5,-815 924.5,-815 918.5,-809 918.5,-803 918.5,-803 918.5,-779 918.5,-779 918.5,-773 924.5,-767 930.5,-767 930.5,-767 1071.5,-767 1071.5,-767 1077.5,-767 1083.5,-773 1083.5,-779 1083.5,-779 1083.5,-803 1083.5,-803 1083.5,-809 1077.5,-815 1071.5,-815"/>
<text text-anchor="start" x="929" y="-797.8" font-family="Times New Roman,serif" font-size="14.00">input.precondition.wltp_p</text>
<polygon fill="none" stroke="black" points="927,-771 927,-792 1017,-792 1017,-771 927,-771"/>
<text text-anchor="start" x="968" y="-777.8" font-family="Times New Roman,serif" font-size="14.00">default=</text>
<polygon fill="none" stroke="black" points="1017,-771 1017,-792 1076,-792 1076,-771 1017,-771"/>
<text text-anchor="start" x="1020" y="-777.8" font-family="Times New Roman,serif" font-size="14.00">{}</text>
</a>
</g>
</g>
<!-- &#45;1496160022092452199&#45;&gt;3825410129914027761 -->
<g id="edge24" class="edge"><title>&#45;1496160022092452199&#45;&gt;3825410129914027761</title>
<path fill="none" stroke="black" d="M1001,-766.748C1001,-766.748 1001,-741.288 1001,-741.288"/>
<polygon fill="black" stroke="black" points="1004.5,-741.287 1001,-731.288 997.5,-741.288 1004.5,-741.287"/>
</g>
<!-- &#45;1862540257222345675 -->
<g id="node22" class="node"><title>&#45;1862540257222345675</title>
<g id="a_node22"><a xlink:title="input.prediction.models">
<path fill="cyan" stroke="black" d="M1144.5,-359C1144.5,-359 1015.5,-359 1015.5,-359 1009.5,-359 1003.5,-353 1003.5,-347 1003.5,-347 1003.5,-323 1003.5,-323 1003.5,-317 1009.5,-311 1015.5,-311 1015.5,-311 1144.5,-311 1144.5,-311 1150.5,-311 1156.5,-317 1156.5,-323 1156.5,-323 1156.5,-347 1156.5,-347 1156.5,-353 1150.5,-359 1144.5,-359"/>
<text text-anchor="start" x="1014" y="-341.8" font-family="Times New Roman,serif" font-size="14.00">input.prediction.models</text>
<polygon fill="none" stroke="black" points="1012,-315 1012,-336 1096,-336 1096,-315 1012,-315"/>
<text text-anchor="start" x="1047" y="-321.8" font-family="Times New Roman,serif" font-size="14.00">default=</text>
<polygon fill="none" stroke="black" points="1096,-315 1096,-336 1149,-336 1149,-315 1096,-315"/>
<text text-anchor="start" x="1099" y="-321.8" font-family="Times New Roman,serif" font-size="14.00">{}</text>
</a>
</g>
</g>
<!-- &#45;1862540257222345675&#45;&gt;&#45;2202121249019829706 -->
<g id="edge25" class="edge"><title>&#45;1862540257222345675&#45;&gt;&#45;2202121249019829706</title>
<path fill="none" stroke="black" d="M1050.75,-310.748C1050.75,-310.748 1050.75,-285.288 1050.75,-285.288"/>
<polygon fill="black" stroke="black" points="1054.25,-285.287 1050.75,-275.288 1047.25,-285.288 1054.25,-285.287"/>
</g>
<!-- 9161072767365098193 -->
<g id="node23" class="node"><title>9161072767365098193</title>
<g id="a_node23"><a xlink:title="input.prediction.nedc_h">
<path fill="cyan" stroke="black" d="M890,-203C890,-203 760,-203 760,-203 754,-203 748,-197 748,-191 748,-191 748,-179 748,-179 748,-173 754,-167 760,-167 760,-167 890,-167 890,-167 896,-167 902,-173 902,-179 902,-179 902,-191 902,-191 902,-197 896,-203 890,-203"/>
<text text-anchor="start" x="758.5" y="-180.8" font-family="Times New Roman,serif" font-size="14.00">input.prediction.nedc_h</text>
</a>
</g>
</g>
<!-- 9161072767365098193&#45;&gt;2396385260629380429 -->
<g id="edge26" class="edge"><title>9161072767365098193&#45;&gt;2396385260629380429</title>
<path fill="none" stroke="black" d="M825,-166.831C825,-145.502 825,-113 825,-113 825,-113 960.877,-113 960.877,-113"/>
<polygon fill="black" stroke="black" points="960.877,-116.5 970.877,-113 960.877,-109.5 960.877,-116.5"/>
</g>
<!-- &#45;7365516798602546217 -->
<g id="node24" class="node"><title>&#45;7365516798602546217</title>
<g id="a_node24"><a xlink:title="input.prediction.nedc_l">
<path fill="cyan" stroke="black" d="M138,-203C138,-203 12,-203 12,-203 6,-203 0,-197 0,-191 0,-191 0,-179 0,-179 0,-173 6,-167 12,-167 12,-167 138,-167 138,-167 144,-167 150,-173 150,-179 150,-179 150,-191 150,-191 150,-197 144,-203 138,-203"/>
<text text-anchor="start" x="10" y="-180.8" font-family="Times New Roman,serif" font-size="14.00">input.prediction.nedc_l</text>
</a>
</g>
</g>
<!-- &#45;7365516798602546217&#45;&gt;3447218200353024149 -->
<g id="edge27" class="edge"><title>&#45;7365516798602546217&#45;&gt;3447218200353024149</title>
<path fill="none" stroke="black" d="M75,-166.831C75,-145.502 75,-113 75,-113 75,-113 186.543,-113 186.543,-113"/>
<polygon fill="black" stroke="black" points="186.543,-116.5 196.543,-113 186.543,-109.5 186.543,-116.5"/>
</g>
<!-- 452935485129617162 -->
<g id="node25" class="node"><title>452935485129617162</title>
<g id="a_node25"><a xlink:title="New data.">
<path fill="cyan" stroke="black" d="M1623,-359C1623,-359 1497,-359 1497,-359 1491,-359 1485,-353 1485,-347 1485,-347 1485,-323 1485,-323 1485,-317 1491,-311 1497,-311 1497,-311 1623,-311 1623,-311 1629,-311 1635,-317 1635,-323 1635,-323 1635,-347 1635,-347 1635,-353 1629,-359 1623,-359"/>
<text text-anchor="start" x="1495" y="-341.8" font-family="Times New Roman,serif" font-size="14.00">input.prediction.wltp_h</text>
<polygon fill="none" stroke="black" points="1493,-315 1493,-336 1576,-336 1576,-315 1493,-315"/>
<text text-anchor="start" x="1527" y="-321.8" font-family="Times New Roman,serif" font-size="14.00">default=</text>
<polygon fill="none" stroke="black" points="1576,-315 1576,-336 1627,-336 1627,-315 1576,-315"/>
<text text-anchor="start" x="1579" y="-321.8" font-family="Times New Roman,serif" font-size="14.00">{}</text>
</a>
</g>
</g>
<!-- 452935485129617162&#45;&gt;5635915267124089766 -->
<g id="edge28" class="edge"><title>452935485129617162&#45;&gt;5635915267124089766</title>
<path fill="none" stroke="black" d="M1560,-310.748C1560,-310.748 1560,-285.288 1560,-285.288"/>
<polygon fill="black" stroke="black" points="1563.5,-285.287 1560,-275.288 1556.5,-285.288 1563.5,-285.287"/>
</g>
<!-- 36178765731549146 -->
<g id="node26" class="node"><title>36178765731549146</title>
<g id="a_node26"><a xlink:title="New data.">
<path fill="cyan" stroke="black" d="M480.5,-359C480.5,-359 357.5,-359 357.5,-359 351.5,-359 345.5,-353 345.5,-347 345.5,-347 345.5,-323 345.5,-323 345.5,-317 351.5,-311 357.5,-311 357.5,-311 480.5,-311 480.5,-311 486.5,-311 492.5,-317 492.5,-323 492.5,-323 492.5,-347 492.5,-347 492.5,-353 486.5,-359 480.5,-359"/>
<text text-anchor="start" x="356" y="-341.8" font-family="Times New Roman,serif" font-size="14.00">input.prediction.wltp_l</text>
<polygon fill="none" stroke="black" points="354,-315 354,-336 435,-336 435,-315 354,-315"/>
<text text-anchor="start" x="386" y="-321.8" font-family="Times New Roman,serif" font-size="14.00">default=</text>
<polygon fill="none" stroke="black" points="435,-315 435,-336 485,-336 485,-315 435,-315"/>
<text text-anchor="start" x="438" y="-321.8" font-family="Times New Roman,serif" font-size="14.00">{}</text>
</a>
</g>
</g>
<!-- 36178765731549146&#45;&gt;&#45;3526676934247528577 -->
<g id="edge29" class="edge"><title>36178765731549146&#45;&gt;&#45;3526676934247528577</title>
<path fill="none" stroke="black" d="M419,-310.748C419,-310.748 419,-285.288 419,-285.288"/>
<polygon fill="black" stroke="black" points="422.5,-285.287 419,-275.288 415.5,-285.288 422.5,-285.287"/>
</g>
<!-- &#45;5288412062942350318&#45;&gt;5635915267124089766 -->
<g id="edge30" class="edge"><title>&#45;5288412062942350318&#45;&gt;5635915267124089766</title>
<path fill="none" stroke="black" d="M1329.5,-316.777C1329.5,-296.635 1329.5,-267 1329.5,-267 1329.5,-267 1475.8,-267 1475.8,-267"/>
<polygon fill="black" stroke="black" points="1475.8,-270.5 1485.8,-267 1475.8,-263.5 1475.8,-270.5"/>
</g>
<!-- &#45;5288412062942350318&#45;&gt;&#45;2202121249019829706 -->
<g id="edge31" class="edge"><title>&#45;5288412062942350318&#45;&gt;&#45;2202121249019829706</title>
<path fill="none" stroke="black" d="M1249.5,-316.845C1249.5,-294.648 1249.5,-260 1249.5,-260 1249.5,-260 1108.02,-260 1108.02,-260"/>
<polygon fill="black" stroke="black" points="1108.02,-256.5 1098.02,-260 1108.02,-263.5 1108.02,-256.5"/>
</g>
<!-- 8441958173072262256&#45;&gt;&#45;3526676934247528577 -->
<g id="edge32" class="edge"><title>8441958173072262256&#45;&gt;&#45;3526676934247528577</title>
<path fill="none" stroke="black" d="M691.763,-335C611.483,-335 498.25,-335 498.25,-335 498.25,-335 498.25,-285.091 498.25,-285.091"/>
<polygon fill="black" stroke="black" points="501.75,-285.091 498.25,-275.091 494.75,-285.091 501.75,-285.091"/>
</g>
<!-- 8441958173072262256&#45;&gt;&#45;2202121249019829706 -->
<g id="edge33" class="edge"><title>8441958173072262256&#45;&gt;&#45;2202121249019829706</title>
<path fill="none" stroke="black" d="M798,-316.871C798,-296.428 798,-266 798,-266 798,-266 919.87,-266 919.87,-266"/>
<polygon fill="black" stroke="black" points="919.87,-269.5 929.87,-266 919.87,-262.5 919.87,-269.5"/>
</g>
<!-- 959863222787796486&#45;&gt;&#45;3616154880395745865 -->
<g id="edge34" class="edge"><title>959863222787796486&#45;&gt;&#45;3616154880395745865</title>
<path fill="none" stroke="black" d="M1045.75,-616.909C1045.75,-593.867 1045.75,-557 1045.75,-557 1045.75,-557 1159.9,-557 1159.9,-557"/>
<polygon fill="black" stroke="black" points="1159.9,-560.5 1169.9,-557 1159.9,-553.5 1159.9,-560.5"/>
</g>
<!-- 959863222787796486&#45;&gt;3508682867401627509 -->
<g id="edge35" class="edge"><title>959863222787796486&#45;&gt;3508682867401627509</title>
<path fill="none" stroke="black" d="M913.927,-635C890.246,-635 871,-635 871,-635 871,-635 871,-585.091 871,-585.091"/>
<polygon fill="black" stroke="black" points="874.5,-585.091 871,-575.091 867.5,-585.091 874.5,-585.091"/>
</g>
<!-- &#45;6298090975118020478 -->
<g id="node30" class="node"><title>&#45;6298090975118020478</title>
<g id="a_node30"><a xlink:title="output.prediction.nedc_h">
<path fill="cyan" stroke="black" d="M1094,-59C1094,-59 956,-59 956,-59 950,-59 944,-53 944,-47 944,-47 944,-35 944,-35 944,-29 950,-23 956,-23 956,-23 1094,-23 1094,-23 1100,-23 1106,-29 1106,-35 1106,-35 1106,-47 1106,-47 1106,-53 1100,-59 1094,-59"/>
<text text-anchor="start" x="954" y="-36.8" font-family="Times New Roman,serif" font-size="14.00">output.prediction.nedc_h</text>
</a>
</g>
</g>
<!-- &#45;484705785448462358 -->
<g id="node31" class="node"><title>&#45;484705785448462358</title>
<g id="a_node31"><a xlink:title="output.prediction.nedc_l">
<path fill="cyan" stroke="black" d="M317,-59C317,-59 183,-59 183,-59 177,-59 171,-53 171,-47 171,-47 171,-35 171,-35 171,-29 177,-23 183,-23 183,-23 317,-23 317,-23 323,-23 329,-29 329,-35 329,-35 329,-47 329,-47 329,-53 323,-59 317,-59"/>
<text text-anchor="start" x="181" y="-36.8" font-family="Times New Roman,serif" font-size="14.00">output.prediction.nedc_l</text>
</a>
</g>
</g>
<!-- &#45;6518969205130116072 -->
<g id="node32" class="node"><title>&#45;6518969205130116072</title>
<g id="a_node32"><a xlink:title="output.prediction.wltp_h">
<path fill="cyan" stroke="black" d="M1601,-59C1601,-59 1465,-59 1465,-59 1459,-59 1453,-53 1453,-47 1453,-47 1453,-35 1453,-35 1453,-29 1459,-23 1465,-23 1465,-23 1601,-23 1601,-23 1607,-23 1613,-29 1613,-35 1613,-35 1613,-47 1613,-47 1613,-53 1607,-59 1601,-59"/>
<text text-anchor="start" x="1463.5" y="-36.8" font-family="Times New Roman,serif" font-size="14.00">output.prediction.wltp_h</text>
</a>
</g>
</g>
<!-- &#45;8390045252649368909 -->
<g id="node33" class="node"><title>&#45;8390045252649368909</title>
<g id="a_node33"><a xlink:title="output.prediction.wltp_l">
<path fill="cyan" stroke="black" d="M596,-59C596,-59 464,-59 464,-59 458,-59 452,-53 452,-47 452,-47 452,-35 452,-35 452,-29 458,-23 464,-23 464,-23 596,-23 596,-23 602,-23 608,-29 608,-35 608,-35 608,-47 608,-47 608,-53 602,-59 596,-59"/>
<text text-anchor="start" x="462.5" y="-36.8" font-family="Times New Roman,serif" font-size="14.00">output.prediction.wltp_l</text>
</a>
</g>
</g>
<!-- 2396385260629380429&#45;&gt;&#45;6298090975118020478 -->
<g id="edge36" class="edge"><title>2396385260629380429&#45;&gt;&#45;6298090975118020478</title>
<path fill="none" stroke="black" d="M1025,-94.8314C1025,-94.8314 1025,-69.4133 1025,-69.4133"/>
<polygon fill="black" stroke="black" points="1028.5,-69.4132 1025,-59.4133 1021.5,-69.4133 1028.5,-69.4132"/>
</g>
<!-- 3447218200353024149&#45;&gt;&#45;484705785448462358 -->
<g id="edge37" class="edge"><title>3447218200353024149&#45;&gt;&#45;484705785448462358</title>
<path fill="none" stroke="black" d="M250,-94.8314C250,-94.8314 250,-69.4133 250,-69.4133"/>
<polygon fill="black" stroke="black" points="253.5,-69.4132 250,-59.4133 246.5,-69.4133 253.5,-69.4132"/>
</g>
<!-- &#45;5312595574835814363&#45;&gt;&#45;6518969205130116072 -->
<g id="edge38" class="edge"><title>&#45;5312595574835814363&#45;&gt;&#45;6518969205130116072</title>
<path fill="none" stroke="black" d="M1533,-94.8314C1533,-94.8314 1533,-69.4133 1533,-69.4133"/>
<polygon fill="black" stroke="black" points="1536.5,-69.4132 1533,-59.4133 1529.5,-69.4133 1536.5,-69.4132"/>
</g>
<!-- 1514673138058506975&#45;&gt;&#45;8390045252649368909 -->
<g id="edge39" class="edge"><title>1514673138058506975&#45;&gt;&#45;8390045252649368909</title>
<path fill="none" stroke="black" d="M530,-94.8314C530,-94.8314 530,-69.4133 530,-69.4133"/>
<polygon fill="black" stroke="black" points="533.5,-69.4132 530,-59.4133 526.5,-69.4133 533.5,-69.4132"/>
</g>
</g>
</svg>
