<?xml version="1.0" encoding="UTF-8"?>
<!DOCTYPE svg PUBLIC "-//W3C//DTD SVG 1.1//EN" "http://www.w3.org/Graphics/SVG/1.1/DTD/svg11.dtd">
<svg version="1.2" width="374.4mm" height="94.19mm" viewBox="0 0 37440 9419" preserveAspectRatio="xMidYMid" fill-rule="evenodd" stroke-width="28.222" stroke-linejoin="round" xmlns="http://www.w3.org/2000/svg" xmlns:ooo="http://xml.openoffice.org/svg/export" xmlns:xlink="http://www.w3.org/1999/xlink" xmlns:presentation="http://sun.com/xmlns/staroffice/presentation" xmlns:smil="http://www.w3.org/2001/SMIL20/" xmlns:anim="urn:oasis:names:tc:opendocument:xmlns:animation:1.0" xml:space="preserve">
 <defs class="ClipPathGroup">
  <clipPath id="presentation_clip_path" clipPathUnits="userSpaceOnUse">
   <rect x="0" y="0" width="37440" height="9419"/>
  </clipPath>
  <clipPath id="presentation_clip_path_shrink" clipPathUnits="userSpaceOnUse">
   <rect x="37" y="9" width="37366" height="9401"/>
  </clipPath>
 </defs>
 <defs class="TextShapeIndex">
  <g ooo:slide="id1" ooo:id-list="id3 id4 id5 id6 id7 id8 id9 id10 id11 id12 id13 id14 id15 id16 id17 id18 id19 id20 id21 id22 id23"/>
 </defs>
 <defs class="EmbeddedBulletChars">
  <g id="bullet-char-template(57356)" transform="scale(0.00048828125,-0.00048828125)">
   <path d="M 580,1141 L 1163,571 580,0 -4,571 580,1141 Z"/>
  </g>
  <g id="bullet-char-template(57354)" transform="scale(0.00048828125,-0.00048828125)">
   <path d="M 8,1128 L 1137,1128 1137,0 8,0 8,1128 Z"/>
  </g>
  <g id="bullet-char-template(10146)" transform="scale(0.00048828125,-0.00048828125)">
   <path d="M 174,0 L 602,739 174,1481 1456,739 174,0 Z M 1358,739 L 309,1346 659,739 1358,739 Z"/>
  </g>
  <g id="bullet-char-template(10132)" transform="scale(0.00048828125,-0.00048828125)">
   <path d="M 2015,739 L 1276,0 717,0 1260,543 174,543 174,936 1260,936 717,1481 1274,1481 2015,739 Z"/>
  </g>
  <g id="bullet-char-template(10007)" transform="scale(0.00048828125,-0.00048828125)">
   <path d="M 0,-2 C -7,14 -16,27 -25,37 L 356,567 C 262,823 215,952 215,954 215,979 228,992 255,992 264,992 276,990 289,987 310,991 331,999 354,1012 L 381,999 492,748 772,1049 836,1024 860,1049 C 881,1039 901,1025 922,1006 886,937 835,863 770,784 769,783 710,716 594,584 L 774,223 C 774,196 753,168 711,139 L 727,119 C 717,90 699,76 672,76 641,76 570,178 457,381 L 164,-76 C 142,-110 111,-127 72,-127 30,-127 9,-110 8,-76 1,-67 -2,-52 -2,-32 -2,-23 -1,-13 0,-2 Z"/>
  </g>
  <g id="bullet-char-template(10004)" transform="scale(0.00048828125,-0.00048828125)">
   <path d="M 285,-33 C 182,-33 111,30 74,156 52,228 41,333 41,471 41,549 55,616 82,672 116,743 169,778 240,778 293,778 328,747 346,684 L 369,508 C 377,444 397,411 428,410 L 1163,1116 C 1174,1127 1196,1133 1229,1133 1271,1133 1292,1118 1292,1087 L 1292,965 C 1292,929 1282,901 1262,881 L 442,47 C 390,-6 338,-33 285,-33 Z"/>
  </g>
  <g id="bullet-char-template(9679)" transform="scale(0.00048828125,-0.00048828125)">
   <path d="M 813,0 C 632,0 489,54 383,161 276,268 223,411 223,592 223,773 276,916 383,1023 489,1130 632,1184 813,1184 992,1184 1136,1130 1245,1023 1353,916 1407,772 1407,592 1407,412 1353,268 1245,161 1136,54 992,0 813,0 Z"/>
  </g>
  <g id="bullet-char-template(8226)" transform="scale(0.00048828125,-0.00048828125)">
   <path d="M 346,457 C 273,457 209,483 155,535 101,586 74,649 74,723 74,796 101,859 155,911 209,963 273,989 346,989 419,989 480,963 531,910 582,859 608,796 608,723 608,648 583,586 532,535 482,483 420,457 346,457 Z"/>
  </g>
  <g id="bullet-char-template(8211)" transform="scale(0.00048828125,-0.00048828125)">
   <path d="M -4,459 L 1135,459 1135,606 -4,606 -4,459 Z"/>
  </g>
  <g id="bullet-char-template(61548)" transform="scale(0.00048828125,-0.00048828125)">
   <path d="M 173,740 C 173,903 231,1043 346,1159 462,1274 601,1332 765,1332 928,1332 1067,1274 1183,1159 1299,1043 1357,903 1357,740 1357,577 1299,437 1183,322 1067,206 928,148 765,148 601,148 462,206 346,322 231,437 173,577 173,740 Z"/>
  </g>
 </defs>
 <defs class="TextEmbeddedBitmaps"/>
 <g>
  <g id="id2" class="Master_Slide">
   <g id="bg-id2" class="Background"/>
   <g id="bo-id2" class="BackgroundObjects"/>
  </g>
 </g>
 <g class="SlideGroup">
  <g>
   <g id="container-id1">
    <g id="id1" class="Slide" clip-path="url(#presentation_clip_path)">
     <g class="Page">
      <g class="com.sun.star.drawing.PolyPolygonShape">
       <g id="id3">
        <rect class="BoundingBox" stroke="none" fill="none" x="133" y="163" width="37132" height="7064"/>
       </g>
      </g>
      <g class="com.sun.star.drawing.PolyPolygonShape">
       <g id="id4">
        <rect class="BoundingBox" stroke="none" fill="none" x="134" y="165" width="37126" height="7063"/>
       </g>
      </g>
      <g class="com.sun.star.drawing.PolyPolygonShape">
       <g id="id5">
        <rect class="BoundingBox" stroke="none" fill="none" x="134" y="163" width="37174" height="7111"/>
       </g>
      </g>
      <g class="com.sun.star.drawing.PolyPolygonShape">
       <g id="id6">
        <rect class="BoundingBox" stroke="none" fill="none" x="134" y="164" width="37174" height="7109"/>
       </g>
      </g>
      <g class="com.sun.star.drawing.ClosedBezierShape">
       <g id="id7">
        <rect class="BoundingBox" stroke="none" fill="none" x="133" y="163" width="37173" height="7109"/>
        <defs>
         <mask id="mask1">
          <g>
           <defs>
            <linearGradient id="gradient1" x1="18719" y1="164" x2="18719" y2="7270" gradientUnits="userSpaceOnUse">
             <stop offset="0" style="stop-color:rgb(255,255,255)"/>
             <stop offset="1" style="stop-color:rgb(0,0,0)"/>
            </linearGradient>
           </defs>
           <path style="fill:url(#gradient1)" d="M 134,164 L 37305,164 37305,7270 134,7270 134,164 Z"/>
          </g>
         </mask>
        </defs>
        <g style="mask:url(#mask1)">
         <path fill="rgb(254,254,233)" stroke="none" d="M 153,7270 C 104,6600 153,6196 268,5721 298,5591 355,5478 403,5358 548,4967 809,4686 1064,4442 1339,4176 1793,3839 2189,3620 2543,3424 2897,3227 3253,3042 3635,2842 4022,2667 4409,2499 4639,2403 5783,2006 6473,1809 7122,1623 8073,1386 8247,1353 8689,1261 9129,1193 9573,1124 10008,1055 10729,946 10878,929 11027,918 13078,648 13181,634 13282,623 14768,449 14863,438 15244,391 15619,360 16313,291 17177,211 17681,176 18313,166 18838,149 19035,216 19487,546 19618,634 23221,2887 23836,3168 24196,3330 24255,3340 25432,3442 26001,3490 27726,3578 29245,3637 29656,3648 32706,3770 33032,3784 34649,3862 34682,3903 35197,3976 35712,4052 36314,4284 36579,4452 36844,4619 37204,4878 37305,5322 L 153,7270 Z"/>
        </g>
       </g>
      </g>
      <g class="com.sun.star.drawing.PolyPolygonShape">
       <g id="id8">
        <rect class="BoundingBox" stroke="none" fill="none" x="830" y="4179" width="11026" height="5242"/>
       </g>
      </g>
      <g class="com.sun.star.drawing.PolyPolygonShape">
       <g id="id9">
        <rect class="BoundingBox" stroke="none" fill="none" x="830" y="4179" width="11024" height="5242"/>
       </g>
      </g>
      <g class="com.sun.star.drawing.PolyPolygonShape">
       <g id="id10">
        <rect class="BoundingBox" stroke="none" fill="none" x="830" y="4179" width="11023" height="5237"/>
       </g>
      </g>
      <g class="com.sun.star.drawing.PolyPolygonShape">
       <g id="id11">
        <rect class="BoundingBox" stroke="none" fill="none" x="830" y="4179" width="11022" height="5236"/>
       </g>
      </g>
      <g class="com.sun.star.drawing.ClosedBezierShape">
       <g id="id12">
        <rect class="BoundingBox" stroke="none" fill="none" x="829" y="4180" width="11022" height="5233"/>
        <path fill="rgb(241,194,50)" stroke="none" d="M 4829,6033 L 4648,6145 C 4530,5997 4390,5868 4210,5783 4029,5689 3835,5647 3624,5647 3284,5647 2994,5754 2756,5983 2516,6203 2394,6474 2399,6802 2394,7117 2516,7389 2756,7614 2999,7839 3288,7951 3624,7951 3837,7951 4029,7904 4214,7819 4390,7723 4533,7604 4648,7448 L 4822,7567 C 4693,7751 4518,7891 4312,8003 4099,8106 3873,8162 3628,8162 3430,8162 3243,8125 3063,8054 2886,7983 2734,7886 2598,7758 2463,7638 2369,7496 2291,7333 2213,7159 2171,6982 2171,6802 2168,6603 2213,6434 2288,6267 2366,6099 2463,5954 2598,5835 2728,5715 2884,5617 3059,5545 3243,5468 3429,5430 3624,5430 3877,5430 4099,5490 4315,5603 4523,5709 4697,5852 4829,6033 Z M 5202,5798 L 5009,5910 C 4860,5702 4659,5537 4422,5409 4174,5284 3912,5221 3624,5221 3319,5221 3043,5294 2784,5430 2530,5583 2324,5770 2174,6004 2028,6249 1953,6512 1949,6802 1949,7086 2028,7352 2174,7589 2324,7827 2528,8019 2785,8162 3043,8300 3319,8366 3628,8366 3912,8366 4178,8308 4422,8183 4667,8058 4860,7891 5015,7683 L 5203,7802 C 5027,8042 4799,8226 4523,8366 4248,8510 3947,8577 3628,8577 3284,8577 2965,8496 2674,8343 2384,8183 2148,7966 1980,7694 1813,7422 1728,7117 1728,6802 1728,6470 1813,6178 1979,5905 2148,5627 2379,5409 2674,5250 2968,5096 3284,5016 3624,5016 3945,5016 4245,5085 4523,5221 4799,5360 5022,5555 5202,5798 Z M 5572,5567 L 5385,5677 C 5190,5406 4937,5196 4628,5040 4318,4885 3983,4811 3624,4811 3338,4811 3059,4860 2804,4961 2540,5068 2313,5211 2119,5384 1925,5567 1784,5779 1673,6023 1555,6267 1503,6522 1504,6802 1504,7069 1561,7333 1671,7576 1784,7819 1930,8027 2125,8208 2313,8385 2541,8526 2805,8631 3063,8733 3340,8787 3628,8787 3992,8787 4323,8707 4628,8550 4940,8396 5193,8183 5385,7914 L 5565,8042 C 5352,8335 5073,8565 4734,8733 4393,8910 4023,8997 3628,8997 3203,8997 2813,8895 2449,8706 2090,8503 1805,8238 1598,7898 1385,7567 1275,7194 1275,6802 1278,6395 1386,6033 1594,5693 1804,5353 2088,5085 2444,4890 2811,4698 3199,4600 3624,4600 4023,4600 4390,4686 4737,4860 5078,5030 5353,5265 5572,5567 Z M 5933,5323 L 5752,5430 C 5515,5115 5210,4860 4835,4671 4468,4484 4058,4391 3624,4391 3274,4391 2941,4453 2628,4579 2311,4705 2034,4880 1805,5088 1574,5303 1393,5567 1259,5865 1124,6160 1054,6467 1054,6802 1055,7123 1124,7441 1259,7734 1398,8028 1579,8287 1805,8503 2034,8715 2313,8887 2634,9013 2948,9140 3278,9202 3624,9202 4060,9202 4468,9112 4842,8921 5214,8728 5517,8472 5753,8151 L 5935,8277 C 5674,8622 5347,8902 4947,9108 4533,9310 4099,9412 3628,9412 3250,9412 2884,9343 2541,9208 2199,9068 1900,8877 1650,8651 1403,8413 1203,8143 1056,7819 905,7496 831,7154 830,6802 830,6437 900,6105 1055,5783 1199,5459 1398,5174 1649,4943 1898,4709 2198,4529 2538,4391 2879,4249 3244,4180 3623,4180 4097,4180 4539,4286 4940,4491 5349,4698 5683,4971 5933,5323 Z M 8184,5983 C 7944,6203 7821,6474 7822,6802 7821,7117 7939,7389 8184,7614 8427,7839 8716,7951 9057,7951 9397,7951 9685,7839 9921,7614 10165,7389 10288,7117 10288,6802 10287,6474 10163,6203 9926,5983 9681,5754 9395,5647 9052,5647 8711,5647 8423,5754 8184,5983 Z M 7719,7333 C 7641,7159 7602,6982 7602,6802 7598,6603 7638,6434 7713,6267 7791,6099 7898,5954 8023,5835 8153,5715 8309,5617 8491,5545 8669,5468 8858,5430 9052,5430 9251,5430 9443,5468 9622,5545 9797,5617 9950,5715 10083,5835 10215,5954 10318,6099 10395,6267 10468,6434 10512,6603 10512,6802 10512,6982 10468,7159 10397,7333 10320,7496 10215,7638 10083,7758 9951,7886 9797,7983 9622,8054 9443,8125 9256,8162 9057,8162 8861,8162 8671,8125 8491,8054 8311,7983 8158,7886 8023,7758 7897,7638 7794,7496 7719,7333 Z M 7598,6004 C 7454,6249 7382,6512 7379,6802 7379,7086 7452,7352 7603,7589 7751,7827 7954,8019 8217,8162 8471,8300 8754,8366 9057,8366 9360,8366 9645,8300 9897,8162 10156,8019 10358,7827 10513,7589 10660,7352 10732,7086 10735,6802 10735,6512 10660,6249 10512,6004 10358,5770 10156,5583 9896,5430 9645,5294 9358,5221 9052,5221 8751,5221 8467,5294 8217,5430 7954,5583 7752,5770 7598,6004 Z M 7408,7694 C 7236,7422 7153,7117 7154,6802 7153,6470 7236,6178 7403,5905 7577,5627 7809,5409 8102,5250 8392,5096 8709,5016 9052,5016 9400,5016 9720,5096 10013,5250 10297,5409 10531,5627 10701,5905 10875,6178 10957,6470 10953,6802 10953,7117 10872,7422 10701,7694 10532,7966 10301,8183 10008,8343 9720,8496 9402,8577 9057,8577 8711,8577 8392,8496 8102,8343 7813,8183 7578,7966 7408,7694 Z M 7098,6023 C 6986,6267 6929,6522 6929,6802 6932,7069 6986,7333 7098,7576 7211,7819 7361,8027 7553,8208 7739,8385 7967,8526 8232,8631 8492,8733 8767,8787 9057,8787 9345,8787 9625,8733 9882,8631 10146,8526 10368,8385 10562,8208 10750,8027 10902,7819 11013,7576 11126,7333 11181,7069 11181,6802 11181,6522 11122,6267 11013,6023 10902,5779 10747,5567 10560,5384 10368,5211 10145,5068 9881,4961 9618,4860 9343,4811 9052,4811 8766,4811 8491,4860 8228,4961 7966,5068 7739,5211 7548,5384 7359,5567 7211,5779 7098,6023 Z M 7022,7898 C 6813,7567 6708,7194 6708,6802 6709,6395 6814,6033 7022,5693 7234,5353 7514,5085 7877,4890 8236,4698 8627,4600 9052,4600 9477,4600 9872,4698 10231,4890 10590,5085 10876,5353 11087,5693 11302,6033 11403,6395 11403,6802 11402,7194 11297,7567 11087,7898 10876,8238 10591,8503 10233,8706 9876,8895 9477,8997 9053,8997 8627,8997 8239,8895 7879,8706 7516,8503 7236,8238 7022,7898 Z M 6684,5865 C 6557,6160 6483,6467 6484,6802 6489,7123 6557,7441 6686,7734 6822,8028 7002,8287 7236,8503 7467,8715 7741,8887 8057,9013 8376,9140 8704,9202 9053,9202 9402,9202 9740,9140 10056,9013 10376,8887 10645,8715 10876,8503 11102,8287 11287,8028 11426,7734 11558,7441 11626,7123 11626,6802 11626,6467 11556,6160 11422,5865 11285,5567 11102,5303 10875,5088 10645,4880 10375,4705 10052,4579 9735,4453 9400,4391 9052,4391 8704,4391 8373,4453 8054,4579 7739,4705 7467,4880 7233,5088 7001,5303 6821,5567 6684,5865 Z M 6483,7819 C 6329,7496 6248,7154 6248,6802 6249,6437 6328,6105 6483,5783 6632,5459 6827,5174 7077,4943 7328,4709 7623,4529 7967,4391 8311,4249 8672,4180 9048,4180 9431,4180 9795,4249 10141,4391 10483,4529 10781,4709 11032,4943 11282,5174 11481,5459 11628,5783 11775,6105 11850,6437 11850,6802 11850,7154 11777,7496 11628,7819 11482,8143 11285,8413 11035,8651 10785,8877 10488,9068 10145,9208 9797,9343 9437,9412 9053,9412 8677,9412 8317,9343 7969,9208 7626,9068 7329,8877 7084,8651 6833,8413 6632,8143 6483,7819 Z"/>
       </g>
      </g>
      <g class="com.sun.star.drawing.PolyPolygonShape">
       <g id="id13">
        <rect class="BoundingBox" stroke="none" fill="none" x="14557" y="4905" width="22342" height="4517"/>
       </g>
      </g>
      <g class="com.sun.star.drawing.PolyPolygonShape">
       <g id="id14">
        <rect class="BoundingBox" stroke="none" fill="none" x="14558" y="4905" width="22338" height="4516"/>
       </g>
      </g>
      <g class="com.sun.star.drawing.PolyPolygonShape">
       <g id="id15">
        <rect class="BoundingBox" stroke="none" fill="none" x="14557" y="4904" width="22334" height="4514"/>
       </g>
      </g>
      <g class="com.sun.star.drawing.PolyPolygonShape">
       <g id="id16">
        <rect class="BoundingBox" stroke="none" fill="none" x="14559" y="4905" width="22331" height="4512"/>
       </g>
      </g>
      <g class="com.sun.star.drawing.ClosedBezierShape">
       <g id="id17">
        <rect class="BoundingBox" stroke="none" fill="none" x="14559" y="4905" width="22329" height="4511"/>
        <path fill="rgb(241,194,50)" stroke="none" d="M 17450,6679 L 17452,9307 17232,9307 17228,6679 C 17225,6623 17222,6577 17202,6542 17178,6498 17159,6468 17123,6443 17090,6424 17052,6409 17002,6397 16950,6380 16903,6379 16850,6372 16807,6367 16747,6367 16675,6367 16608,6367 16548,6367 16495,6372 16452,6379 16402,6380 16353,6397 16300,6409 16259,6424 16229,6443 16200,6468 16170,6498 16152,6542 16134,6577 16123,6623 16123,6679 L 16128,9307 15903,9307 15900,6679 C 15900,6335 16158,6162 16675,6162 17194,6162 17450,6335 17450,6679 Z M 17900,6679 L 17902,9307 17677,9307 17673,6679 C 17673,6435 17583,6254 17397,6133 17214,6011 16970,5950 16670,5950 16382,5950 16139,6011 15954,6133 15770,6254 15678,6435 15678,6679 L 15682,9307 15458,9307 15454,6679 C 15454,6477 15509,6308 15623,6162 15732,6011 15878,5904 16060,5843 16239,5774 16447,5741 16670,5741 16904,5741 17108,5774 17290,5843 17470,5904 17619,6011 17733,6162 17839,6308 17900,6477 17900,6679 Z M 18347,6679 L 18348,9307 18127,9307 18122,6679 C 18123,6498 18088,6335 18009,6185 17928,6043 17827,5919 17692,5824 17564,5734 17409,5656 17235,5610 17065,5560 16879,5536 16670,5536 16473,5536 16288,5560 16114,5610 15939,5656 15788,5734 15652,5824 15525,5919 15415,6043 15347,6185 15269,6335 15232,6498 15232,6679 L 15233,9307 15007,9307 15004,6679 C 15004,6473 15050,6280 15142,6108 15225,5936 15342,5793 15495,5679 15650,5568 15825,5481 16025,5415 16229,5356 16447,5325 16670,5325 16904,5325 17127,5356 17323,5415 17527,5481 17704,5568 17853,5679 18004,5793 18129,5936 18214,6108 18300,6280 18347,6473 18347,6679 Z M 18798,9307 L 18572,9307 18569,6679 C 18569,6473 18517,6270 18415,6078 18317,5881 18182,5716 18013,5575 17842,5434 17642,5321 17409,5243 17173,5160 16928,5116 16670,5116 16323,5116 16004,5178 15728,5304 15440,5425 15213,5606 15038,5843 14870,6089 14779,6365 14783,6679 L 14784,9307 14560,9307 14559,6679 C 14558,6417 14615,6170 14728,5949 14840,5718 14989,5536 15183,5380 15372,5235 15600,5116 15850,5031 16110,4944 16384,4905 16675,4905 17185,4905 17632,5031 18009,5273 18385,5031 18833,4905 19345,4905 19634,4905 19908,4944 20166,5031 20424,5116 20649,5235 20844,5380 21034,5536 21184,5718 21302,5949 21407,6170 21464,6417 21469,6679 L 21469,9307 21239,9307 21238,6679 C 21238,6365 21152,6089 20982,5844 20814,5606 20587,5425 20299,5304 20010,5178 19694,5116 19345,5116 18904,5116 18520,5215 18194,5410 18240,5444 18295,5499 18357,5559 18639,5404 18964,5325 19345,5325 19575,5325 19794,5356 19990,5415 20196,5481 20377,5568 20524,5679 20674,5793 20801,5936 20884,6108 20971,6280 21016,6473 21016,6679 L 21019,9307 20797,9307 20794,6679 C 20794,6498 20758,6335 20682,6185 20603,6043 20502,5919 20364,5824 20234,5734 20077,5656 19908,5610 19735,5560 19548,5536 19345,5536 19019,5536 18729,5598 18494,5718 18525,5774 18565,5831 18604,5899 18808,5794 19052,5741 19345,5741 19575,5741 19777,5774 19959,5843 20144,5904 20289,6011 20403,6162 20512,6308 20571,6477 20572,6679 L 20574,9307 20347,9307 20346,6679 C 20346,6435 20253,6254 20065,6133 19882,6011 19639,5950 19345,5950 19077,5950 18858,5996 18690,6089 18715,6164 18739,6234 18754,6297 18882,6209 19083,6162 19347,6162 19863,6162 20119,6335 20119,6679 L 20122,9307 19900,9307 19897,6679 C 19897,6623 19889,6577 19872,6542 19848,6498 19829,6468 19792,6443 19760,6424 19722,6409 19675,6397 19619,6380 19572,6379 19520,6372 19478,6367 19415,6367 19345,6367 19277,6367 19215,6367 19165,6372 19122,6379 19069,6380 19020,6397 18970,6409 18927,6424 18902,6443 18869,6468 18839,6498 18823,6542 18807,6577 18795,6623 18798,6679 L 18798,9307 Z M 23759,7338 L 24706,7338 C 24888,7338 25047,7284 25181,7182 25309,7065 25376,6922 25376,6733 25371,6583 25307,6449 25172,6335 25033,6215 24881,6162 24706,6162 L 23141,6162 23144,9307 22919,9307 22918,5950 24706,5950 C 24941,5950 25151,6028 25331,6185 25513,6347 25599,6523 25599,6733 25596,6980 25513,7182 25338,7323 25164,7472 24951,7542 24706,7542 L 23759,7542 23759,7338 Z M 23759,7753 L 24706,7753 C 25013,7753 25277,7659 25494,7467 25713,7278 25837,7029 25836,6733 25837,6468 25712,6239 25488,6039 25268,5840 25003,5741 24703,5741 L 22689,5741 22696,9307 22471,9307 22469,5536 24706,5536 C 25066,5536 25378,5649 25644,5891 25917,6133 26057,6409 26057,6733 26057,7078 25925,7377 25652,7614 25387,7842 25068,7959 24706,7959 L 23759,7959 23759,7753 Z M 23763,8171 L 24706,8171 C 24987,8171 25243,8104 25484,7986 25721,7863 25917,7689 26067,7467 26206,7253 26277,6997 26282,6733 26277,6479 26206,6253 26063,6035 25925,5821 25730,5644 25482,5516 25243,5391 24981,5325 24703,5325 L 22244,5325 22251,9307 22027,9307 22021,5116 24703,5116 C 24934,5116 25169,5161 25387,5246 25609,5335 25808,5449 25970,5598 26132,5741 26258,5913 26356,6112 26457,6310 26501,6515 26502,6733 26502,6983 26457,7217 26362,7428 26267,7636 26136,7809 25971,7948 25807,8083 25609,8192 25396,8263 25174,8346 24951,8378 24707,8378 L 23763,8378 23763,8171 Z M 23589,9307 L 23368,9307 23364,6367 24706,6367 C 24824,6367 24931,6404 25019,6477 25107,6542 25152,6623 25152,6733 25152,6992 25003,7120 24706,7120 L 23759,7120 23759,6909 24703,6909 C 24852,6909 24931,6854 24931,6733 24931,6687 24908,6652 24862,6615 24822,6597 24766,6577 24706,6577 L 23588,6577 23589,9307 Z M 30173,7247 C 30173,6984 30090,6799 29930,6659 29762,6523 29546,6455 29281,6455 29051,6455 28856,6530 28695,6672 28531,6824 28446,6999 28446,7216 28450,7327 28465,7434 28500,7522 28532,7616 28577,7697 28637,7757 28688,7816 28757,7864 28832,7908 28915,7941 29000,7976 29086,7989 29173,8007 29262,8014 29361,8014 29593,8014 29813,7967 30005,7851 L 30005,8059 C 29805,8166 29587,8209 29358,8209 29206,8209 29067,8192 28933,8154 28805,8114 28683,8059 28573,7986 28465,7908 28382,7803 28320,7669 28257,7538 28227,7389 28227,7216 28227,6937 28323,6710 28525,6527 28727,6342 28977,6245 29276,6245 29613,6245 29882,6335 30090,6508 30298,6679 30395,6928 30398,7247 L 30398,9307 30175,9307 30173,7247 Z M 30848,7247 L 30846,9307 30625,9307 30625,7247 C 30621,6870 30495,6577 30250,6359 29996,6147 29673,6039 29276,6039 28915,6039 28611,6152 28367,6379 28121,6604 28002,6878 28005,7216 28005,7411 28040,7588 28111,7744 28187,7902 28286,8028 28415,8119 28542,8213 28680,8290 28836,8338 28993,8387 29158,8416 29332,8416 29567,8416 29792,8362 30007,8254 L 30005,8482 C 29777,8566 29557,8615 29330,8615 29125,8615 28925,8582 28743,8526 28558,8465 28393,8376 28250,8261 28105,8152 27992,8004 27902,7822 27825,7646 27776,7442 27776,7216 27776,6824 27923,6498 28211,6229 28500,5959 28855,5829 29276,5829 29577,5829 29846,5884 30082,6000 30317,6112 30507,6278 30642,6492 30776,6703 30846,6958 30848,7247 Z M 31292,7247 L 31293,9307 31070,9307 31070,7247 C 31067,6914 30988,6630 30832,6387 30680,6137 30463,5950 30190,5821 29918,5686 29618,5621 29276,5621 28962,5621 28667,5694 28401,5831 28132,5973 27926,6164 27781,6409 27632,6652 27555,6922 27555,7216 27556,7459 27602,7689 27700,7894 27798,8097 27926,8261 28095,8391 28258,8527 28445,8626 28656,8707 28867,8777 29087,8815 29320,8815 29548,8815 29777,8768 30008,8677 L 30007,8887 C 29770,8971 29543,9013 29306,9013 28952,9013 28621,8941 28323,8785 28023,8638 27782,8420 27601,8142 27421,7864 27330,7558 27331,7216 27331,6960 27382,6733 27483,6508 27581,6289 27718,6097 27887,5936 28058,5774 28267,5648 28512,5559 28755,5460 29002,5411 29276,5411 29657,5411 29996,5490 30301,5634 30611,5786 30848,6005 31027,6280 31205,6560 31292,6878 31292,7247 Z M 31742,7247 L 31742,9307 31517,9307 31516,7247 C 31516,6840 31420,6487 31220,6172 31020,5865 30755,5629 30415,5460 30075,5288 29696,5206 29276,5206 28876,5206 28511,5296 28176,5469 27840,5649 27577,5891 27395,6205 27205,6508 27112,6848 27108,7216 27108,7452 27152,7677 27233,7894 27313,8104 27425,8293 27563,8453 27711,8615 27875,8752 28056,8868 28242,8985 28442,9071 28651,9131 28875,9196 29087,9220 29305,9220 29555,9220 29783,9176 30007,9090 L 30008,9307 C 29775,9377 29540,9415 29300,9415 29042,9415 28806,9383 28570,9318 28327,9251 28111,9158 27908,9025 27707,8896 27526,8751 27371,8572 27223,8400 27102,8186 27015,7957 26926,7722 26880,7472 26880,7216 26882,6905 26948,6615 27063,6347 27183,6078 27351,5840 27562,5640 27768,5444 28023,5288 28325,5175 28626,5050 28942,4993 29276,4993 29625,4993 29945,5048 30246,5160 30550,5265 30808,5415 31032,5606 31250,5803 31422,6035 31550,6318 31675,6599 31742,6905 31742,7247 Z M 35037,7322 L 34682,7322 C 34245,7322 33914,7233 33679,7059 33449,6893 33331,6668 33329,6372 33329,6102 33464,5879 33742,5694 34016,5516 34400,5425 34899,5425 35232,5425 35539,5469 35826,5559 36116,5640 36351,5761 36541,5911 L 36366,6043 C 36197,5913 35985,5813 35725,5741 35470,5669 35194,5634 34897,5634 34460,5634 34126,5703 33894,5843 33664,5981 33550,6162 33550,6372 33550,6605 33647,6787 33836,6909 34025,7035 34307,7102 34682,7102 L 35024,7102 C 35462,7102 35805,7194 36037,7357 36274,7519 36391,7752 36389,8038 36391,8308 36256,8535 35979,8716 35701,8896 35314,8987 34819,8987 34487,8987 34179,8947 33892,8860 33610,8777 33366,8660 33179,8497 L 33351,8368 C 33524,8497 33735,8603 33991,8672 34250,8746 34525,8782 34819,8782 35256,8782 35594,8708 35819,8566 36050,8435 36166,8248 36166,8038 36167,7809 36076,7628 35882,7503 35691,7382 35407,7322 35037,7322 Z M 35037,7732 L 34682,7732 C 34105,7732 33660,7614 33351,7371 33039,7112 32879,6787 32876,6372 32879,6185 32925,6009 33016,5844 33101,5684 33230,5538 33397,5411 33566,5288 33781,5191 34037,5121 34292,5048 34581,5011 34899,5011 35300,5011 35670,5063 36022,5178 36369,5296 36656,5449 36886,5649 L 36705,5774 C 36499,5598 36235,5461 35920,5371 35600,5266 35261,5218 34899,5218 34344,5218 33900,5325 33586,5550 33266,5766 33104,6043 33107,6372 33107,6729 33244,6999 33519,7217 33787,7426 34175,7522 34681,7522 L 35024,7522 C 35636,7522 35944,7698 35945,8038 35944,8192 35851,8318 35662,8420 35475,8526 35191,8566 34819,8566 34556,8566 34312,8547 34087,8488 33862,8427 33679,8347 33530,8232 L 33705,8104 C 33967,8278 34337,8362 34820,8362 35129,8362 35360,8331 35500,8269 35647,8209 35719,8134 35719,8038 35719,7923 35667,7848 35569,7803 35464,7757 35287,7732 35037,7732 Z M 35041,6889 L 34682,6889 C 34079,6889 33775,6714 33774,6372 33774,6222 33870,6093 34056,5990 34241,5891 34524,5843 34899,5843 35162,5843 35405,5874 35631,5929 35857,5988 36042,6073 36187,6172 L 36011,6299 C 35756,6137 35379,6054 34899,6054 34586,6054 34360,6083 34214,6145 34070,6205 33995,6280 33995,6372 33999,6479 34050,6562 34149,6605 34254,6659 34429,6674 34681,6674 L 35037,6674 C 35611,6674 36050,6802 36366,7052 36679,7302 36837,7629 36837,8038 36837,8223 36795,8401 36705,8566 36616,8737 36486,8878 36324,9002 36157,9122 35941,9221 35686,9295 35422,9368 35139,9402 34819,9402 34420,9402 34047,9346 33699,9235 33355,9122 33064,8965 32829,8762 L 33010,8638 C 33219,8818 33482,8951 33805,9052 34116,9146 34456,9197 34819,9197 35379,9197 35819,9083 36139,8868 36456,8645 36612,8368 36616,8038 36612,7689 36479,7411 36205,7208 35931,6997 35541,6889 35041,6889 Z"/>
       </g>
      </g>
      <g class="com.sun.star.drawing.PolyPolygonShape">
       <g id="id18">
        <rect class="BoundingBox" stroke="none" fill="none" x="3" y="0" width="37386" height="7203"/>
       </g>
      </g>
      <g class="com.sun.star.drawing.PolyPolygonShape">
       <g id="id19">
        <rect class="BoundingBox" stroke="none" fill="none" x="3" y="0" width="37441" height="7201"/>
       </g>
      </g>
      <g class="com.sun.star.drawing.PolyPolygonShape">
       <g id="id20">
        <rect class="BoundingBox" stroke="none" fill="none" x="4" y="0" width="37407" height="7273"/>
       </g>
      </g>
      <g class="com.sun.star.drawing.PolyPolygonShape">
       <g id="id21">
        <rect class="BoundingBox" stroke="none" fill="none" x="-1" y="0" width="37411" height="7262"/>
       </g>
      </g>
      <g class="com.sun.star.drawing.OpenBezierShape">
       <g id="id22">
        <rect class="BoundingBox" stroke="none" fill="none" x="-36" y="-37" width="37379" height="7320"/>
        <path fill="none" stroke="rgb(28,68,135)" stroke-width="282" stroke-linejoin="round" stroke-linecap="round" d="M 111,7141 C 111,7141 62,5776 253,5414 511,4930 1083,4381 1425,4072 1826,3708 2561,3236 2946,3037 3331,2837 4276,2417 5148,2116 6017,1816 6908,1565 7577,1419 8014,1322 9193,1106 10270,939 11369,768 12311,663 12311,663 12311,663 13738,474 14224,431 14709,388 15665,289 16264,247 16863,204 18793,105 18793,105 18793,105 19549,552 20104,917 20679,1299 21354,1754 21774,2003 22214,2265 22892,2705 23159,2831 23441,2965 23653,3057 23873,3144 24098,3236 24559,3321 24742,3345 24898,3364 26769,3502 26769,3502 L 28851,3588 30522,3644 33640,3755 C 33640,3755 34558,3815 34731,3831 34925,3846 35353,3924 35559,3990 35787,4064 36003,4140 36230,4243 36450,4344 36629,4473 36757,4572 36886,4671 36995,4768 37057,4871 37115,4965 37201,5171 37201,5171"/>
       </g>
      </g>
      <g class="com.sun.star.drawing.ClosedBezierShape">
       <g id="id23">
        <rect class="BoundingBox" stroke="none" fill="none" x="12041" y="6885" width="1659" height="2426"/>
        <path fill="rgb(241,195,48)" stroke="none" d="M 12041,6886 L 13311,6893 C 13311,6893 13576,7096 13609,7169 13741,7367 13694,7670 13674,7728 13654,7788 13516,8038 13476,8111 13438,8183 13073,8670 13073,8670 L 13531,8682 13556,9290 12086,9310 12094,8709 12903,7597 12179,7617 12041,6886 Z"/>
       </g>
      </g>
     </g>
    </g>
   </g>
  </g>
 </g>
</svg>