<?xml version="1.0" encoding="UTF-8"?>
<!DOCTYPE svg PUBLIC "-//W3C//DTD SVG 1.1//EN" "http://www.w3.org/Graphics/SVG/1.1/DTD/svg11.dtd">
<svg version="1.2" width="80.63mm" height="21.99mm" viewBox="2572 6644 8063 2199" preserveAspectRatio="xMidYMid" fill-rule="evenodd" stroke-width="28.222" stroke-linejoin="round" xmlns="http://www.w3.org/2000/svg" xmlns:ooo="http://xml.openoffice.org/svg/export" xmlns:xlink="http://www.w3.org/1999/xlink" xmlns:presentation="http://sun.com/xmlns/staroffice/presentation" xmlns:smil="http://www.w3.org/2001/SMIL20/" xmlns:anim="urn:oasis:names:tc:opendocument:xmlns:animation:1.0" xml:space="preserve">
 <defs class="ClipPathGroup">
  <clipPath id="presentation_clip_path" clipPathUnits="userSpaceOnUse">
   <rect x="2572" y="6644" width="8063" height="2199"/>
  </clipPath>
 </defs>
 <defs class="TextShapeIndex">
  <g ooo:slide="id1" ooo:id-list="id3 id4 id5 id6 id7 id8 id9 id10"/>
 </defs>
 <defs class="EmbeddedBulletChars">
  <g id="bullet-char-template(57356)" transform="scale(0.00048828125,-0.00048828125)">
   <path d="M 580,1141 L 1163,571 580,0 -4,571 580,1141 Z"/>
  </g>
  <g id="bullet-char-template(57354)" transform="scale(0.00048828125,-0.00048828125)">
   <path d="M 8,1128 L 1137,1128 1137,0 8,0 8,1128 Z"/>
  </g>
  <g id="bullet-char-template(10146)" transform="scale(0.00048828125,-0.00048828125)">
   <path d="M 174,0 L 602,739 174,1481 1456,739 174,0 Z M 1358,739 L 309,1346 659,739 1358,739 Z"/>
  </g>
  <g id="bullet-char-template(10132)" transform="scale(0.00048828125,-0.00048828125)">
   <path d="M 2015,739 L 1276,0 717,0 1260,543 174,543 174,936 1260,936 717,1481 1274,1481 2015,739 Z"/>
  </g>
  <g id="bullet-char-template(10007)" transform="scale(0.00048828125,-0.00048828125)">
   <path d="M 0,-2 C -7,14 -16,27 -25,37 L 356,567 C 262,823 215,952 215,954 215,979 228,992 255,992 264,992 276,990 289,987 310,991 331,999 354,1012 L 381,999 492,748 772,1049 836,1024 860,1049 C 881,1039 901,1025 922,1006 886,937 835,863 770,784 769,783 710,716 594,584 L 774,223 C 774,196 753,168 711,139 L 727,119 C 717,90 699,76 672,76 641,76 570,178 457,381 L 164,-76 C 142,-110 111,-127 72,-127 30,-127 9,-110 8,-76 1,-67 -2,-52 -2,-32 -2,-23 -1,-13 0,-2 Z"/>
  </g>
  <g id="bullet-char-template(10004)" transform="scale(0.00048828125,-0.00048828125)">
   <path d="M 285,-33 C 182,-33 111,30 74,156 52,228 41,333 41,471 41,549 55,616 82,672 116,743 169,778 240,778 293,778 328,747 346,684 L 369,508 C 377,444 397,411 428,410 L 1163,1116 C 1174,1127 1196,1133 1229,1133 1271,1133 1292,1118 1292,1087 L 1292,965 C 1292,929 1282,901 1262,881 L 442,47 C 390,-6 338,-33 285,-33 Z"/>
  </g>
  <g id="bullet-char-template(9679)" transform="scale(0.00048828125,-0.00048828125)">
   <path d="M 813,0 C 632,0 489,54 383,161 276,268 223,411 223,592 223,773 276,916 383,1023 489,1130 632,1184 813,1184 992,1184 1136,1130 1245,1023 1353,916 1407,772 1407,592 1407,412 1353,268 1245,161 1136,54 992,0 813,0 Z"/>
  </g>
  <g id="bullet-char-template(8226)" transform="scale(0.00048828125,-0.00048828125)">
   <path d="M 346,457 C 273,457 209,483 155,535 101,586 74,649 74,723 74,796 101,859 155,911 209,963 273,989 346,989 419,989 480,963 531,910 582,859 608,796 608,723 608,648 583,586 532,535 482,483 420,457 346,457 Z"/>
  </g>
  <g id="bullet-char-template(8211)" transform="scale(0.00048828125,-0.00048828125)">
   <path d="M -4,459 L 1135,459 1135,606 -4,606 -4,459 Z"/>
  </g>
 </defs>
 <defs class="TextEmbeddedBitmaps"/>
 <g class="SlideGroup">
  <g>
   <g id="id1" class="Slide" clip-path="url(#presentation_clip_path)">
    <g class="Page">
     <g class="com.sun.star.drawing.ClosedBezierShape">
      <g id="id3">
       <rect class="BoundingBox" stroke="none" fill="none" x="2685" y="7612" width="2425" height="1232"/>
       <path fill="rgb(241,194,50)" stroke="none" d="M 3565,8048 L 3525,8075 C 3500,8039 3468,8010 3429,7989 3389,7967 3347,7957 3300,7957 3226,7957 3162,7983 3109,8036 3056,8089 3030,8153 3030,8228 3030,8303 3056,8366 3109,8419 3162,8472 3226,8499 3300,8499 3347,8499 3389,8488 3429,8467 3468,8445 3500,8416 3525,8380 L 3564,8408 C 3535,8451 3497,8485 3451,8510 3404,8535 3354,8548 3300,8548 3257,8548 3216,8539 3176,8523 3137,8506 3103,8483 3074,8454 3045,8425 3023,8391 3006,8352 2989,8312 2980,8271 2980,8228 2980,8184 2989,8143 3006,8104 3023,8064 3045,8030 3074,8001 3103,7973 3137,7950 3176,7933 3216,7916 3257,7908 3300,7908 3355,7908 3405,7920 3452,7946 3498,7971 3536,8005 3565,8048 Z M 3647,7992 L 3605,8019 C 3572,7970 3528,7931 3475,7902 3421,7873 3363,7858 3300,7858 3233,7858 3172,7875 3115,7908 3059,7941 3014,7986 2981,8042 2948,8099 2931,8161 2931,8228 2931,8295 2948,8357 2981,8413 3014,8470 3059,8515 3115,8548 3172,8581 3233,8597 3300,8597 3363,8597 3421,8583 3475,8553 3529,8524 3572,8485 3606,8435 L 3647,8463 C 3608,8520 3559,8564 3498,8597 3437,8630 3371,8646 3300,8646 3225,8646 3155,8628 3091,8590 3026,8553 2975,8502 2938,8438 2901,8373 2882,8303 2882,8228 2882,8152 2901,8082 2938,8018 2975,7953 3026,7903 3091,7865 3155,7828 3225,7809 3300,7809 3371,7809 3437,7825 3498,7858 3559,7891 3608,7936 3647,7992 Z M 3729,7938 L 3688,7964 C 3645,7901 3589,7852 3521,7815 3453,7778 3379,7760 3300,7760 3237,7760 3176,7772 3119,7797 3061,7821 3011,7855 2969,7896 2927,7938 2894,7988 2870,8046 2845,8104 2833,8164 2833,8228 2833,8291 2845,8352 2870,8410 2894,8468 2927,8517 2969,8559 3011,8601 3061,8634 3119,8659 3176,8683 3237,8696 3300,8696 3380,8696 3453,8677 3521,8640 3589,8603 3645,8553 3688,8490 L 3727,8520 C 3680,8589 3619,8644 3544,8684 3469,8725 3388,8745 3300,8745 3207,8745 3121,8722 3041,8676 2962,8629 2899,8566 2853,8487 2807,8408 2783,8321 2783,8228 2783,8134 2807,8048 2853,7968 2899,7889 2962,7826 3041,7780 3121,7734 3207,7711 3300,7711 3388,7711 3469,7731 3545,7772 3620,7813 3681,7868 3729,7938 Z M 3809,7882 L 3768,7908 C 3716,7832 3649,7772 3567,7728 3485,7683 3396,7661 3300,7661 3224,7661 3151,7676 3081,7706 3011,7736 2950,7776 2900,7827 2849,7877 2809,7938 2779,8008 2749,8078 2734,8151 2734,8228 2734,8304 2749,8378 2779,8448 2809,8518 2849,8578 2900,8629 2950,8679 3011,8720 3081,8749 3151,8779 3224,8794 3300,8794 3396,8794 3485,8772 3567,8727 3650,8682 3717,8622 3769,8546 L 3809,8576 C 3752,8658 3679,8723 3590,8771 3500,8819 3404,8843 3300,8843 3217,8843 3137,8827 3061,8795 2986,8762 2920,8718 2865,8663 2810,8608 2766,8543 2734,8467 2701,8391 2685,8311 2685,8228 2685,8144 2701,8065 2734,7989 2766,7913 2810,7847 2865,7792 2920,7737 2986,7694 3061,7661 3137,7628 3217,7612 3300,7612 3404,7612 3501,7636 3590,7685 3680,7733 3753,7799 3809,7882 Z M 4302,8036 C 4249,8089 4223,8153 4223,8228 4223,8303 4249,8366 4302,8419 4355,8472 4419,8499 4494,8499 4569,8499 4632,8472 4685,8419 4738,8366 4765,8303 4765,8228 4765,8153 4738,8089 4685,8036 4632,7983 4569,7957 4494,7957 4419,7957 4355,7983 4302,8036 Z M 4199,8352 C 4182,8312 4174,8271 4174,8228 4174,8184 4182,8143 4199,8104 4216,8064 4239,8030 4267,8001 4296,7973 4330,7950 4370,7933 4409,7916 4451,7908 4494,7908 4537,7908 4579,7916 4618,7933 4657,7950 4691,7973 4720,8001 4749,8030 4772,8064 4789,8104 4805,8143 4814,8184 4814,8228 4814,8271 4805,8312 4789,8352 4772,8391 4749,8425 4720,8454 4691,8483 4657,8506 4618,8523 4579,8539 4537,8548 4494,8548 4451,8548 4409,8539 4370,8523 4330,8506 4296,8483 4267,8454 4239,8425 4216,8391 4199,8352 Z M 4174,8042 C 4141,8099 4125,8161 4125,8228 4125,8295 4141,8357 4174,8413 4207,8470 4252,8515 4309,8548 4365,8581 4427,8597 4494,8597 4561,8597 4623,8581 4679,8548 4736,8515 4781,8470 4814,8413 4847,8357 4863,8295 4863,8228 4863,8161 4847,8099 4814,8042 4781,7986 4736,7941 4679,7908 4623,7875 4561,7858 4494,7858 4427,7858 4365,7875 4309,7908 4252,7941 4207,7986 4174,8042 Z M 4131,8438 C 4094,8373 4075,8303 4075,8228 4075,8152 4094,8082 4131,8018 4169,7953 4220,7903 4284,7865 4348,7828 4418,7809 4494,7809 4570,7809 4640,7828 4704,7865 4768,7903 4819,7953 4856,8018 4894,8082 4912,8152 4912,8228 4912,8303 4894,8373 4856,8438 4819,8502 4768,8553 4704,8590 4640,8628 4570,8646 4494,8646 4418,8646 4348,8628 4284,8590 4220,8553 4169,8502 4131,8438 Z M 4063,8046 C 4038,8104 4026,8164 4026,8228 4026,8291 4038,8352 4063,8410 4088,8468 4121,8517 4163,8559 4204,8601 4254,8634 4312,8659 4370,8683 4430,8696 4494,8696 4557,8696 4618,8683 4676,8659 4734,8634 4783,8601 4825,8559 4867,8517 4900,8468 4925,8410 4949,8352 4962,8291 4962,8228 4962,8164 4949,8104 4925,8046 4900,7988 4867,7938 4825,7896 4783,7855 4734,7821 4676,7797 4618,7772 4557,7760 4494,7760 4430,7760 4370,7772 4312,7797 4254,7821 4204,7855 4163,7896 4121,7938 4088,7988 4063,8046 Z M 4046,8487 C 4000,8408 3977,8321 3977,8228 3977,8134 4000,8048 4046,7968 4093,7889 4155,7826 4235,7780 4314,7734 4400,7711 4494,7711 4587,7711 4674,7734 4753,7780 4832,7826 4895,7889 4941,7968 4988,8048 5011,8134 5011,8228 5011,8321 4988,8408 4941,8487 4895,8566 4832,8629 4753,8676 4674,8722 4587,8745 4494,8745 4400,8745 4314,8722 4235,8676 4155,8629 4093,8566 4046,8487 Z M 3972,8008 C 3943,8078 3928,8151 3928,8228 3928,8304 3943,8378 3972,8448 4002,8518 4042,8578 4093,8629 4144,8679 4204,8720 4274,8749 4344,8779 4417,8794 4494,8794 4570,8794 4644,8779 4714,8749 4784,8720 4844,8679 4895,8629 4945,8578 4985,8518 5015,8448 5045,8378 5060,8304 5060,8228 5060,8151 5045,8078 5015,8008 4985,7938 4945,7877 4895,7827 4844,7776 4784,7736 4714,7706 4644,7676 4570,7661 4494,7661 4417,7661 4344,7676 4274,7706 4204,7736 4144,7776 4093,7827 4042,7877 4002,7938 3972,8008 Z M 3927,8467 C 3895,8391 3878,8311 3878,8228 3878,8144 3895,8065 3927,7989 3960,7913 4004,7847 4059,7792 4114,7737 4179,7694 4255,7661 4331,7628 4410,7612 4494,7612 4577,7612 4657,7628 4733,7661 4809,7694 4874,7737 4929,7792 4984,7847 5028,7913 5060,7989 5093,8065 5109,8144 5109,8228 5109,8311 5093,8391 5060,8467 5028,8543 4984,8608 4929,8663 4874,8718 4809,8762 4733,8795 4657,8827 4577,8843 4494,8843 4410,8843 4331,8827 4255,8795 4179,8762 4114,8718 4059,8663 4004,8608 3960,8543 3927,8467 Z"/>
      </g>
     </g>
     <g class="com.sun.star.drawing.ClosedBezierShape">
      <g id="id4">
       <rect class="BoundingBox" stroke="none" fill="none" x="5162" y="8174" width="404" height="621"/>
       <path fill="rgb(241,194,50)" stroke="none" d="M 5173,8696 L 5173,8642 5537,8642 5537,8696 5173,8696 Z M 5173,8745 L 5173,8692 5537,8692 5537,8745 5173,8745 Z M 5173,8794 L 5173,8741 5537,8741 5537,8794 5173,8794 Z M 5233,8657 L 5169,8657 C 5196,8620 5217,8592 5233,8571 5248,8550 5261,8533 5271,8519 5282,8505 5292,8492 5302,8478 5312,8465 5320,8454 5325,8447 5332,8439 5337,8431 5343,8424 5348,8416 5352,8410 5355,8406 5357,8402 5360,8399 5361,8395 5363,8392 5364,8390 5365,8389 5365,8388 5365,8386 5365,8386 5365,8382 5363,8379 5358,8378 5353,8376 5341,8375 5321,8375 5286,8375 5247,8381 5203,8393 L 5192,8343 C 5206,8337 5225,8331 5249,8327 5273,8323 5297,8321 5319,8321 5333,8321 5345,8322 5355,8324 5366,8325 5376,8328 5386,8333 5396,8337 5404,8344 5409,8353 5415,8362 5418,8373 5418,8386 5418,8398 5412,8413 5401,8430 5390,8446 5364,8482 5322,8538 5289,8583 5259,8623 5233,8657 Z M 5289,8657 L 5224,8657 C 5321,8528 5374,8456 5383,8443 5401,8417 5411,8399 5413,8390 5413,8387 5414,8385 5414,8382 5414,8344 5382,8326 5320,8326 5299,8326 5278,8328 5256,8331 5234,8335 5213,8341 5193,8348 L 5182,8295 C 5231,8280 5277,8273 5321,8273 5336,8273 5350,8274 5363,8276 5377,8278 5390,8281 5403,8287 5416,8292 5427,8298 5436,8307 5445,8315 5453,8326 5458,8339 5464,8351 5467,8366 5467,8382 5467,8399 5459,8420 5444,8443 5429,8467 5385,8527 5313,8625 5304,8636 5296,8647 5289,8657 Z M 5346,8657 L 5282,8657 C 5370,8536 5423,8463 5439,8438 5455,8413 5463,8394 5463,8379 5463,8360 5459,8344 5452,8330 5445,8317 5435,8306 5421,8299 5408,8291 5394,8286 5377,8282 5360,8279 5341,8277 5320,8277 5279,8277 5234,8284 5183,8300 L 5172,8247 C 5227,8230 5276,8222 5319,8222 5341,8222 5361,8224 5379,8227 5398,8230 5415,8235 5432,8243 5449,8251 5464,8261 5476,8273 5489,8284 5498,8300 5505,8318 5512,8336 5516,8356 5516,8379 5516,8396 5512,8413 5505,8429 5497,8446 5482,8470 5460,8502 5438,8534 5400,8586 5346,8657 Z M 5405,8657 L 5341,8657 C 5400,8579 5441,8524 5462,8492 5483,8460 5497,8437 5503,8422 5509,8407 5512,8391 5512,8375 5512,8355 5509,8336 5503,8320 5497,8303 5488,8290 5477,8279 5466,8268 5453,8258 5437,8250 5421,8242 5404,8237 5384,8233 5365,8229 5344,8227 5321,8227 5279,8227 5229,8236 5173,8252 L 5162,8199 C 5220,8182 5273,8174 5320,8174 5356,8174 5388,8178 5417,8186 5447,8193 5472,8205 5495,8222 5517,8238 5534,8259 5547,8285 5559,8312 5565,8342 5565,8375 5565,8397 5562,8417 5555,8437 5548,8456 5533,8482 5511,8515 5489,8549 5453,8596 5405,8657 Z"/>
      </g>
     </g>
     <g class="com.sun.star.drawing.ClosedBezierShape">
      <g id="id5">
       <rect class="BoundingBox" stroke="none" fill="none" x="5686" y="7759" width="4917" height="1063"/>
       <path fill="rgb(241,194,50)" stroke="none" d="M 6323,8179 L 6323,8795 6274,8795 6274,8179 C 6274,8166 6272,8154 6268,8145 6263,8136 6258,8128 6251,8123 6244,8118 6235,8114 6224,8111 6213,8108 6202,8107 6191,8106 6181,8105 6168,8105 6152,8105 6137,8105 6124,8105 6113,8106 6103,8107 6092,8108 6081,8111 6070,8114 6061,8118 6054,8123 6047,8128 6041,8136 6037,8145 6033,8154 6031,8166 6031,8179 L 6031,8795 5981,8795 5981,8179 C 5981,8097 6038,8056 6152,8056 6266,8056 6323,8097 6323,8179 Z M 6422,8179 L 6422,8795 6372,8795 6372,8179 C 6372,8121 6352,8078 6311,8049 6270,8021 6217,8006 6152,8006 6087,8006 6034,8021 5993,8049 5953,8078 5932,8121 5932,8179 L 5932,8795 5883,8795 5883,8179 C 5883,8131 5895,8090 5920,8056 5944,8021 5977,7996 6017,7981 6056,7965 6102,7957 6152,7957 6203,7957 6248,7965 6288,7981 6328,7996 6360,8021 6385,8056 6409,8090 6422,8131 6422,8179 Z M 6520,8179 L 6520,8795 6471,8795 6471,8179 C 6471,8136 6463,8097 6446,8062 6429,8028 6406,7999 6377,7977 6348,7955 6314,7937 6276,7926 6238,7914 6197,7908 6152,7908 6108,7908 6067,7914 6029,7926 5990,7937 5957,7955 5927,7977 5898,7999 5875,8028 5859,8062 5842,8097 5834,8136 5834,8179 L 5834,8795 5784,8795 5784,8179 C 5784,8129 5794,8084 5814,8043 5833,8003 5859,7969 5892,7942 5926,7916 5965,7895 6009,7880 6054,7866 6102,7859 6152,7859 6203,7859 6251,7866 6295,7880 6340,7895 6379,7916 6412,7942 6445,7969 6472,8003 6491,8043 6510,8084 6520,8129 6520,8179 Z M 6619,8795 L 6569,8795 6569,8179 C 6569,8129 6558,8081 6536,8036 6514,7990 6484,7951 6447,7918 6410,7885 6365,7858 6314,7839 6262,7819 6208,7809 6152,7809 6075,7809 6005,7824 5943,7853 5880,7882 5830,7925 5792,7981 5754,8038 5735,8104 5735,8179 L 5735,8795 5686,8795 5686,8179 C 5686,8116 5698,8058 5723,8005 5748,7952 5781,7908 5823,7872 5865,7837 5915,7809 5971,7789 6028,7770 6088,7760 6152,7760 6265,7760 6363,7789 6446,7846 6529,7789 6627,7760 6740,7760 6804,7760 6864,7770 6921,7789 6978,7809 7027,7837 7070,7872 7112,7908 7145,7952 7170,8005 7194,8058 7207,8116 7207,8179 L 7207,8795 7157,8795 7157,8179 C 7157,8104 7138,8039 7101,7982 7063,7925 7013,7882 6950,7853 6887,7824 6817,7809 6740,7809 6644,7809 6559,7832 6487,7878 6498,7887 6509,7899 6522,7913 6585,7877 6657,7859 6740,7859 6791,7859 6839,7866 6883,7880 6928,7895 6967,7916 7000,7942 7033,7969 7060,8003 7079,8043 7098,8084 7108,8129 7108,8179 L 7108,8795 7059,8795 7059,8179 C 7059,8136 7051,8097 7034,8062 7017,8028 6994,7999 6965,7977 6936,7955 6902,7937 6864,7926 6826,7914 6785,7908 6740,7908 6668,7908 6605,7923 6552,7952 6560,7965 6569,7979 6577,7995 6622,7970 6676,7957 6740,7957 6791,7957 6836,7965 6876,7981 6916,7996 6948,8021 6973,8056 6997,8090 7010,8131 7010,8179 L 7010,8795 6960,8795 6960,8179 C 6960,8121 6940,8078 6899,8049 6858,8021 6805,8006 6740,8006 6681,8006 6633,8017 6596,8039 6602,8057 6607,8073 6610,8088 6638,8067 6682,8056 6740,8056 6854,8056 6911,8097 6911,8179 L 6911,8795 6862,8795 6862,8179 C 6862,8166 6860,8154 6856,8145 6851,8136 6846,8128 6839,8123 6832,8118 6823,8114 6812,8111 6801,8108 6790,8107 6779,8106 6769,8105 6756,8105 6740,8105 6725,8105 6712,8105 6701,8106 6691,8107 6680,8108 6669,8111 6658,8114 6649,8118 6642,8123 6635,8128 6629,8136 6625,8145 6621,8154 6619,8166 6619,8179 L 6619,8795 Z M 7712,8331 L 7920,8331 C 7961,8331 7996,8318 8025,8294 8054,8269 8068,8234 8068,8190 8068,8155 8053,8124 8023,8097 7993,8069 7959,8056 7920,8056 L 7576,8056 7576,8795 7527,8795 7527,8006 7920,8006 C 7973,8006 8019,8025 8058,8062 8098,8099 8117,8141 8117,8190 8117,8248 8098,8294 8060,8328 8022,8363 7975,8380 7920,8380 L 7712,8380 7712,8331 Z M 7712,8429 L 7920,8429 C 7988,8429 8046,8407 8094,8362 8142,8317 8167,8260 8167,8190 8167,8128 8142,8074 8093,8027 8044,7980 7986,7957 7920,7957 L 7477,7957 7477,8795 7428,8795 7428,7908 7920,7908 C 8000,7908 8069,7936 8128,7992 8186,8049 8216,8114 8216,8190 8216,8272 8187,8340 8129,8396 8071,8451 8001,8478 7920,8478 L 7712,8478 7712,8429 Z M 7712,8528 L 7920,8528 C 7982,8528 8039,8513 8092,8484 8144,8455 8186,8414 8218,8362 8249,8310 8265,8253 8265,8190 8265,8132 8249,8077 8218,8026 8187,7975 8145,7934 8092,7904 8039,7874 7982,7859 7920,7859 L 7379,7859 7379,8795 7330,8795 7330,7809 7920,7809 C 7972,7809 8023,7820 8071,7840 8120,7861 8162,7888 8197,7923 8233,7957 8261,7998 8282,8044 8304,8091 8314,8140 8314,8190 8314,8249 8304,8303 8283,8352 8262,8401 8233,8442 8197,8475 8161,8507 8120,8533 8072,8550 8024,8568 7974,8577 7920,8577 L 7712,8577 7712,8528 Z M 7674,8795 L 7625,8795 7625,8105 7920,8105 C 7947,8105 7970,8113 7990,8130 8009,8146 8019,8166 8019,8190 8019,8251 7986,8281 7920,8281 L 7712,8281 7712,8232 7920,8232 C 7953,8232 7970,8218 7970,8190 7970,8180 7965,8171 7955,8164 7946,8158 7934,8154 7920,8154 L 7674,8154 7674,8795 Z M 9123,8309 C 9123,8250 9105,8205 9069,8173 9033,8141 8985,8125 8926,8125 8876,8125 8833,8143 8797,8177 8761,8212 8743,8254 8743,8302 8743,8329 8747,8354 8754,8375 8761,8397 8771,8415 8784,8430 8796,8444 8811,8456 8828,8465 8846,8474 8864,8481 8883,8485 8902,8489 8922,8491 8943,8491 8995,8491 9043,8479 9086,8453 L 9086,8502 C 9041,8526 8994,8537 8943,8537 8910,8537 8879,8533 8850,8524 8821,8515 8795,8502 8771,8484 8747,8466 8728,8441 8715,8410 8701,8378 8694,8343 8694,8302 8694,8239 8716,8186 8760,8142 8804,8098 8860,8076 8926,8076 9000,8076 9059,8097 9104,8138 9150,8179 9172,8236 9172,8309 L 9172,8795 9123,8795 9123,8309 Z M 9271,8309 L 9271,8795 9222,8795 9222,8309 C 9222,8223 9194,8154 9139,8103 9084,8052 9013,8027 8926,8027 8846,8027 8779,8054 8725,8107 8671,8160 8645,8225 8645,8302 8645,8348 8653,8390 8669,8427 8685,8464 8707,8494 8735,8516 8763,8538 8794,8555 8828,8567 8863,8579 8899,8585 8937,8585 8989,8585 9039,8572 9086,8548 L 9086,8600 C 9036,8621 8987,8631 8936,8631 8891,8631 8848,8624 8808,8610 8767,8596 8731,8576 8699,8549 8667,8523 8642,8488 8623,8445 8605,8403 8595,8355 8595,8302 8595,8212 8627,8136 8691,8072 8754,8009 8833,7978 8926,7978 8992,7978 9051,7991 9103,8018 9155,8044 9196,8083 9226,8134 9256,8184 9271,8243 9271,8309 Z M 9369,8309 L 9369,8795 9320,8795 9320,8309 C 9320,8233 9303,8167 9268,8109 9234,8050 9187,8006 9127,7975 9068,7944 9001,7928 8926,7928 8856,7928 8791,7945 8733,7979 8674,8012 8629,8057 8596,8114 8563,8171 8546,8234 8546,8302 8546,8360 8557,8414 8578,8462 8600,8510 8628,8549 8665,8580 8701,8611 8742,8635 8788,8653 8835,8670 8883,8678 8934,8678 8985,8678 9036,8668 9086,8646 L 9086,8696 C 9034,8716 8983,8725 8932,8725 8854,8725 8781,8708 8715,8672 8649,8637 8596,8586 8556,8521 8517,8456 8497,8383 8497,8302 8497,8244 8508,8190 8530,8138 8552,8086 8582,8041 8620,8003 8658,7965 8703,7935 8757,7913 8810,7890 8866,7879 8926,7879 9010,7879 9085,7897 9152,7932 9219,7968 9272,8019 9311,8084 9350,8150 9369,8225 9369,8309 Z M 9468,8309 L 9468,8795 9418,8795 9418,8309 C 9418,8216 9397,8133 9354,8059 9310,7986 9251,7930 9176,7890 9102,7850 9018,7830 8926,7830 8838,7830 8757,7851 8683,7893 8610,7936 8552,7993 8511,8066 8469,8138 8448,8217 8448,8302 8448,8358 8457,8411 8475,8462 8493,8512 8517,8556 8548,8594 8580,8631 8616,8664 8656,8691 8697,8719 8741,8739 8788,8754 8836,8768 8884,8775 8932,8775 8986,8775 9037,8764 9086,8744 L 9086,8795 C 9035,8812 8983,8821 8930,8821 8874,8821 8821,8813 8769,8798 8716,8782 8668,8760 8624,8729 8579,8699 8540,8663 8506,8622 8473,8581 8446,8532 8427,8477 8408,8422 8398,8363 8398,8302 8398,8231 8412,8164 8438,8100 8465,8036 8501,7980 8548,7933 8594,7887 8650,7850 8716,7822 8782,7794 8852,7781 8926,7781 9002,7781 9073,7793 9140,7819 9206,7844 9264,7880 9312,7925 9360,7971 9398,8026 9426,8093 9454,8159 9468,8231 9468,8309 Z M 10194,8326 L 10116,8326 C 10020,8326 9947,8306 9895,8267 9844,8228 9818,8175 9818,8106 9818,8042 9848,7989 9909,7946 9969,7904 10054,7882 10164,7882 10237,7882 10305,7893 10368,7913 10431,7933 10484,7961 10525,7997 L 10487,8028 C 10450,7998 10403,7974 10346,7957 10290,7940 10229,7932 10164,7932 10068,7932 9994,7948 9943,7981 9892,8014 9867,8056 9867,8106 9867,8161 9888,8203 9930,8232 9971,8262 10033,8277 10116,8277 L 10191,8277 C 10288,8277 10363,8296 10414,8335 10466,8374 10492,8428 10492,8496 10492,8560 10462,8613 10401,8656 10340,8699 10255,8720 10146,8720 10073,8720 10005,8710 9942,8690 9879,8670 9826,8642 9784,8605 L 9823,8574 C 9860,8605 9907,8629 9963,8645 10020,8662 10081,8671 10146,8671 10242,8671 10316,8654 10366,8621 10417,8589 10443,8547 10443,8496 10443,8442 10422,8399 10380,8370 10338,8341 10276,8326 10194,8326 Z M 10194,8424 L 10116,8424 C 9989,8424 9891,8396 9823,8338 9754,8280 9719,8203 9719,8106 9719,8062 9729,8020 9749,7982 9768,7943 9796,7909 9833,7879 9870,7850 9917,7827 9974,7810 10031,7793 10094,7784 10164,7784 10252,7784 10334,7797 10411,7824 10487,7851 10551,7888 10602,7936 L 10562,7965 C 10516,7923 10458,7891 10388,7868 10318,7845 10244,7833 10164,7833 10041,7833 9944,7859 9874,7911 9804,7963 9769,8028 9769,8106 9769,8189 9799,8254 9859,8303 9919,8351 10005,8375 10116,8375 L 10191,8375 C 10326,8375 10394,8416 10394,8496 10394,8533 10373,8563 10332,8586 10290,8610 10228,8621 10146,8621 10088,8621 10034,8615 9985,8601 9935,8588 9894,8569 9862,8543 L 9901,8513 C 9958,8553 10039,8572 10146,8572 10214,8572 10265,8565 10296,8551 10328,8537 10344,8519 10344,8496 10344,8470 10333,8452 10311,8441 10288,8430 10249,8424 10194,8424 Z M 10194,8227 L 10116,8227 C 9983,8227 9916,8187 9916,8106 9916,8070 9937,8040 9978,8016 10019,7993 10081,7981 10164,7981 10222,7981 10275,7988 10325,8001 10375,8015 10416,8034 10448,8059 L 10409,8089 C 10352,8050 10270,8030 10164,8030 10095,8030 10045,8037 10013,8051 9981,8066 9965,8084 9965,8106 9965,8132 9977,8151 9999,8162 10021,8173 10060,8178 10116,8178 L 10194,8178 C 10321,8178 10418,8207 10487,8265 10556,8322 10590,8400 10590,8496 10590,8540 10581,8582 10561,8621 10541,8660 10513,8694 10477,8723 10440,8752 10393,8776 10336,8793 10279,8810 10216,8819 10146,8819 10058,8819 9976,8805 9899,8778 9823,8752 9759,8715 9708,8667 L 9747,8637 C 9794,8679 9852,8712 9922,8735 9991,8758 10066,8769 10146,8769 10269,8769 10366,8743 10436,8691 10506,8639 10541,8574 10541,8496 10541,8414 10511,8348 10451,8300 10391,8252 10305,8227 10194,8227 Z"/>
      </g>
     </g>
     <g class="com.sun.star.drawing.ClosedBezierShape">
      <g id="id6">
       <rect class="BoundingBox" stroke="none" fill="none" x="2594" y="6667" width="4301" height="1229"/>
      </g>
     </g>
     <g class="com.sun.star.drawing.ClosedBezierShape">
      <g id="id7">
       <rect class="BoundingBox" stroke="none" fill="none" x="2594" y="6667" width="4301" height="1229"/>
      </g>
     </g>
     <g class="com.sun.star.drawing.OpenBezierShape">
      <g id="id8">
       <rect class="BoundingBox" stroke="none" fill="none" x="2572" y="6645" width="4345" height="1273"/>
       <path fill="none" stroke="rgb(28,69,135)" stroke-width="44" stroke-linejoin="round" d="M 6894,6668 C 4519,6668 2594,7218 2594,7895"/>
      </g>
     </g>
     <g class="com.sun.star.drawing.ClosedBezierShape">
      <g id="id9">
       <rect class="BoundingBox" stroke="none" fill="none" x="6893" y="6666" width="3721" height="1007"/>
      </g>
     </g>
     <g class="com.sun.star.drawing.OpenBezierShape">
      <g id="id10">
       <rect class="BoundingBox" stroke="none" fill="none" x="6871" y="6644" width="3765" height="1051"/>
       <path fill="none" stroke="rgb(28,69,135)" stroke-width="44" stroke-linejoin="round" d="M 10613,7671 C 8873,7673 7347,7261 6893,6666"/>
      </g>
     </g>
    </g>
   </g>
  </g>
 </g>
</svg>