<?xml version="1.0" encoding="UTF-8"?>
<!DOCTYPE svg PUBLIC "-//W3C//DTD SVG 1.1//EN"
 "http://www.w3.org/Graphics/SVG/1.1/DTD/svg11.dtd">
<svg width="374.81mm" height="94.6mm" viewBox="-36 -37 37481 9460" preserveAspectRatio="xMidYMid" fill-rule="evenodd" stroke-width="28.222" stroke-linejoin="round" xmlns="http://www.w3.org/2000/svg" xml:space="preserve">
  <g>
   <rect class="BoundingBox" stroke="none" fill="none" x="134" y="163" width="37173" height="7110"/>
   <defs>
    <mask id="mask1">
     <g>
      <defs>
       <linearGradient id="gradient1" x1="18720" y1="164" x2="18720" y2="7271" gradientUnits="userSpaceOnUse">
        <stop offset="0" style="stop-color:rgb(255,255,255)"/>
        <stop offset="1" style="stop-color:rgb(0,0,0)"/>
       </linearGradient>
      </defs>
      <path style="fill:url(#gradient1)" d="M 134,164 L 37306,164 37306,7271 134,7271 134,164 Z"/>
     </g>
    </mask>
   </defs>
   <g style="mask:url(#mask1)">
    <path fill="rgb(255,255,255)" stroke="none" d="M 153,7271 C 104,6601 153,6197 268,5722 298,5592 355,5479 403,5359 548,4968 809,4687 1064,4443 1339,4177 1793,3840 2189,3621 2543,3425 2897,3228 3253,3042 3635,2842 4022,2667 4409,2499 4639,2403 5783,2006 6473,1809 7122,1623 8073,1386 8247,1353 8689,1261 9129,1193 9573,1124 10008,1055 10729,946 10878,929 11027,918 13078,648 13181,634 13282,623 14768,449 14863,438 15244,391 15619,360 16313,291 17177,211 17681,176 18313,166 18838,149 19035,216 19487,546 19618,634 23221,2887 23837,3169 24197,3331 24256,3341 25433,3443 26002,3491 27727,3579 29246,3638 29657,3649 32707,3771 33033,3785 34650,3863 34683,3904 35198,3977 35713,4053 36315,4285 36580,4453 36845,4620 37205,4879 37306,5323 L 153,7271 Z"/>
   </g>
  </g>
  <g>
   <rect class="BoundingBox" stroke="none" fill="none" x="830" y="4180" width="11022" height="5234"/>
   <path fill="rgb(241,194,50)" stroke="none" d="M 4829,6033 L 4648,6145 C 4530,5997 4390,5868 4210,5783 4029,5689 3835,5647 3624,5647 3284,5647 2994,5754 2756,5983 2516,6203 2394,6474 2399,6803 2394,7118 2516,7390 2756,7615 2999,7840 3288,7952 3624,7952 3837,7952 4029,7905 4214,7820 4390,7724 4533,7605 4648,7449 L 4822,7568 C 4693,7752 4518,7892 4312,8004 4099,8107 3873,8163 3628,8163 3430,8163 3243,8126 3063,8055 2886,7984 2734,7887 2598,7759 2463,7639 2369,7497 2291,7334 2213,7160 2171,6983 2171,6803 2168,6603 2213,6434 2288,6267 2366,6099 2463,5954 2598,5835 2728,5715 2884,5617 3059,5545 3243,5468 3429,5430 3624,5430 3877,5430 4099,5490 4315,5603 4523,5709 4697,5852 4829,6033 Z M 5202,5798 L 5009,5910 C 4860,5702 4659,5537 4422,5409 4174,5284 3912,5221 3624,5221 3319,5221 3043,5294 2784,5430 2530,5583 2324,5770 2174,6004 2028,6249 1953,6512 1949,6803 1949,7087 2028,7353 2174,7590 2324,7828 2528,8020 2785,8163 3043,8301 3319,8367 3628,8367 3912,8367 4178,8309 4422,8184 4667,8059 4860,7892 5015,7684 L 5203,7803 C 5027,8043 4799,8227 4523,8367 4248,8511 3947,8578 3628,8578 3284,8578 2965,8497 2674,8344 2384,8184 2148,7967 1980,7695 1813,7423 1728,7118 1728,6803 1728,6470 1813,6178 1979,5905 2148,5627 2379,5409 2674,5250 2968,5096 3284,5016 3624,5016 3945,5016 4245,5085 4523,5221 4799,5360 5022,5555 5202,5798 Z M 5572,5567 L 5385,5677 C 5190,5406 4937,5196 4628,5040 4318,4885 3983,4811 3624,4811 3338,4811 3059,4860 2804,4961 2540,5068 2313,5211 2119,5384 1925,5567 1784,5779 1673,6023 1555,6267 1503,6522 1504,6803 1504,7070 1561,7334 1671,7577 1784,7820 1930,8028 2125,8209 2313,8386 2541,8527 2805,8632 3063,8734 3340,8788 3628,8788 3992,8788 4323,8708 4628,8551 4940,8397 5193,8184 5385,7915 L 5565,8043 C 5352,8336 5073,8566 4734,8734 4393,8911 4023,8998 3628,8998 3203,8998 2813,8896 2449,8707 2090,8504 1805,8239 1598,7899 1385,7568 1275,7195 1275,6803 1278,6395 1386,6033 1594,5693 1804,5353 2088,5085 2444,4890 2811,4698 3199,4600 3624,4600 4023,4600 4390,4686 4737,4860 5078,5030 5353,5265 5572,5567 Z M 5933,5323 L 5752,5430 C 5515,5115 5210,4860 4835,4671 4468,4484 4058,4391 3624,4391 3274,4391 2941,4453 2628,4579 2311,4705 2034,4880 1805,5088 1574,5303 1393,5567 1259,5865 1124,6160 1054,6467 1054,6803 1055,7124 1124,7442 1259,7735 1398,8029 1579,8288 1805,8504 2034,8716 2313,8888 2634,9014 2948,9141 3278,9203 3624,9203 4060,9203 4468,9113 4842,8922 5214,8729 5517,8473 5753,8152 L 5935,8278 C 5674,8623 5347,8903 4947,9109 4533,9311 4099,9413 3628,9413 3250,9413 2884,9344 2541,9209 2199,9069 1900,8878 1650,8652 1403,8414 1203,8144 1056,7820 905,7497 831,7155 830,6803 830,6437 900,6105 1055,5783 1199,5459 1398,5174 1649,4943 1898,4709 2198,4529 2538,4391 2879,4249 3244,4180 3623,4180 4097,4180 4539,4286 4940,4491 5349,4698 5683,4971 5933,5323 Z M 8185,5983 C 7945,6203 7822,6474 7823,6803 7822,7118 7940,7390 8185,7615 8428,7840 8717,7952 9058,7952 9398,7952 9686,7840 9922,7615 10166,7390 10289,7118 10289,6803 10288,6474 10164,6203 9927,5983 9682,5754 9396,5647 9053,5647 8712,5647 8424,5754 8185,5983 Z M 7720,7334 C 7642,7160 7603,6983 7603,6803 7599,6603 7639,6434 7714,6267 7792,6099 7899,5954 8024,5835 8154,5715 8310,5617 8492,5545 8670,5468 8859,5430 9053,5430 9252,5430 9444,5468 9623,5545 9798,5617 9951,5715 10084,5835 10216,5954 10319,6099 10396,6267 10469,6434 10513,6603 10513,6803 10513,6983 10469,7160 10398,7334 10321,7497 10216,7639 10084,7759 9952,7887 9798,7984 9623,8055 9444,8126 9257,8163 9058,8163 8862,8163 8672,8126 8492,8055 8312,7984 8159,7887 8024,7759 7898,7639 7795,7497 7720,7334 Z M 7599,6004 C 7455,6249 7383,6512 7380,6803 7380,7087 7453,7353 7604,7590 7752,7828 7955,8020 8218,8163 8472,8301 8755,8367 9058,8367 9361,8367 9646,8301 9898,8163 10157,8020 10359,7828 10514,7590 10661,7353 10733,7087 10736,6803 10736,6512 10661,6249 10513,6004 10359,5770 10157,5583 9897,5430 9646,5294 9359,5221 9053,5221 8752,5221 8468,5294 8218,5430 7955,5583 7753,5770 7599,6004 Z M 7409,7695 C 7237,7423 7154,7118 7155,6803 7154,6470 7237,6178 7404,5905 7578,5627 7810,5409 8103,5250 8393,5096 8710,5016 9053,5016 9401,5016 9721,5096 10014,5250 10298,5409 10532,5627 10702,5905 10876,6178 10958,6470 10954,6803 10954,7118 10873,7423 10702,7695 10533,7967 10302,8184 10009,8344 9721,8497 9403,8578 9058,8578 8712,8578 8393,8497 8103,8344 7814,8184 7579,7967 7409,7695 Z M 7099,6023 C 6987,6267 6930,6522 6930,6803 6933,7070 6987,7334 7099,7577 7212,7820 7362,8028 7554,8209 7740,8386 7968,8527 8233,8632 8493,8734 8768,8788 9058,8788 9346,8788 9626,8734 9883,8632 10147,8527 10369,8386 10563,8209 10751,8028 10903,7820 11014,7577 11127,7334 11182,7070 11182,6803 11182,6522 11123,6267 11014,6023 10903,5779 10748,5567 10561,5384 10369,5211 10146,5068 9882,4961 9619,4860 9344,4811 9053,4811 8767,4811 8492,4860 8229,4961 7967,5068 7740,5211 7549,5384 7360,5567 7212,5779 7099,6023 Z M 7023,7899 C 6814,7568 6709,7195 6709,6803 6710,6395 6815,6033 7023,5693 7235,5353 7515,5085 7878,4890 8237,4698 8628,4600 9053,4600 9478,4600 9873,4698 10232,4890 10591,5085 10877,5353 11088,5693 11303,6033 11404,6395 11404,6803 11403,7195 11298,7568 11088,7899 10877,8239 10592,8504 10234,8707 9877,8896 9478,8998 9054,8998 8628,8998 8240,8896 7880,8707 7517,8504 7237,8239 7023,7899 Z M 6685,5865 C 6558,6160 6484,6467 6485,6803 6490,7124 6558,7442 6687,7735 6823,8029 7003,8288 7237,8504 7468,8716 7742,8888 8058,9014 8377,9141 8705,9203 9054,9203 9403,9203 9741,9141 10057,9014 10377,8888 10646,8716 10877,8504 11103,8288 11288,8029 11427,7735 11559,7442 11627,7124 11627,6803 11627,6467 11557,6160 11423,5865 11286,5567 11103,5303 10876,5088 10646,4880 10376,4705 10053,4579 9736,4453 9401,4391 9053,4391 8705,4391 8374,4453 8055,4579 7740,4705 7468,4880 7234,5088 7002,5303 6822,5567 6685,5865 Z M 6484,7820 C 6329,7497 6248,7155 6248,6803 6249,6437 6328,6105 6484,5783 6633,5459 6828,5174 7078,4943 7329,4709 7624,4529 7968,4391 8312,4249 8673,4180 9049,4180 9432,4180 9796,4249 10142,4391 10484,4529 10782,4709 11033,4943 11283,5174 11482,5459 11629,5783 11776,6105 11851,6437 11851,6803 11851,7155 11778,7497 11629,7820 11483,8144 11286,8414 11036,8652 10786,8878 10489,9069 10146,9209 9798,9344 9438,9413 9054,9413 8678,9413 8318,9344 7970,9209 7627,9069 7330,8878 7085,8652 6834,8414 6633,8144 6484,7820 Z"/>
  </g>
  <g>
   <rect class="BoundingBox" stroke="none" fill="none" x="14559" y="4905" width="22330" height="4512"/>
   <path fill="rgb(241,194,50)" stroke="none" d="M 17450,6679 L 17452,9308 17232,9308 17228,6679 C 17225,6623 17222,6577 17202,6542 17178,6498 17159,6468 17123,6443 17090,6424 17052,6409 17002,6397 16950,6380 16903,6379 16850,6372 16807,6367 16747,6367 16675,6367 16608,6367 16548,6367 16495,6372 16452,6379 16402,6380 16353,6397 16300,6409 16259,6424 16229,6443 16200,6468 16170,6498 16152,6542 16134,6577 16123,6623 16123,6679 L 16128,9308 15903,9308 15900,6679 C 15900,6335 16158,6162 16675,6162 17194,6162 17450,6335 17450,6679 Z M 17900,6679 L 17902,9308 17677,9308 17673,6679 C 17673,6435 17583,6254 17397,6133 17214,6011 16970,5950 16670,5950 16382,5950 16139,6011 15954,6133 15770,6254 15678,6435 15678,6679 L 15682,9308 15458,9308 15454,6679 C 15454,6477 15509,6308 15623,6162 15732,6011 15878,5904 16060,5843 16239,5774 16447,5741 16670,5741 16904,5741 17108,5774 17290,5843 17470,5904 17619,6011 17733,6162 17839,6308 17900,6477 17900,6679 Z M 18347,6679 L 18348,9308 18127,9308 18122,6679 C 18123,6498 18088,6335 18009,6185 17928,6043 17827,5919 17692,5824 17564,5734 17409,5656 17235,5610 17065,5560 16879,5536 16670,5536 16473,5536 16288,5560 16114,5610 15939,5656 15788,5734 15652,5824 15525,5919 15415,6043 15347,6185 15269,6335 15232,6498 15232,6679 L 15233,9308 15007,9308 15004,6679 C 15004,6473 15050,6280 15142,6108 15225,5936 15342,5793 15495,5679 15650,5568 15825,5481 16025,5415 16229,5356 16447,5325 16670,5325 16904,5325 17127,5356 17323,5415 17527,5481 17704,5568 17853,5679 18004,5793 18129,5936 18214,6108 18300,6280 18347,6473 18347,6679 Z M 18798,9308 L 18572,9308 18569,6679 C 18569,6473 18517,6270 18415,6078 18317,5881 18182,5716 18013,5575 17842,5434 17642,5321 17409,5243 17173,5160 16928,5116 16670,5116 16323,5116 16004,5178 15728,5304 15440,5425 15213,5606 15038,5843 14870,6089 14779,6365 14783,6679 L 14784,9308 14560,9308 14559,6679 C 14558,6417 14615,6170 14728,5949 14840,5718 14989,5536 15183,5380 15372,5235 15600,5116 15850,5031 16110,4944 16384,4905 16675,4905 17185,4905 17632,5031 18009,5273 18385,5031 18833,4905 19345,4905 19634,4905 19908,4944 20166,5031 20424,5116 20649,5235 20844,5380 21034,5536 21184,5718 21302,5949 21407,6170 21464,6417 21469,6679 L 21469,9308 21239,9308 21238,6679 C 21238,6365 21152,6089 20982,5844 20814,5606 20587,5425 20299,5304 20010,5178 19694,5116 19345,5116 18904,5116 18520,5215 18194,5410 18240,5444 18295,5499 18357,5559 18639,5404 18964,5325 19345,5325 19575,5325 19794,5356 19990,5415 20196,5481 20377,5568 20524,5679 20674,5793 20801,5936 20884,6108 20971,6280 21016,6473 21016,6679 L 21019,9308 20797,9308 20794,6679 C 20794,6498 20758,6335 20682,6185 20603,6043 20502,5919 20364,5824 20234,5734 20077,5656 19908,5610 19735,5560 19548,5536 19345,5536 19019,5536 18729,5598 18494,5718 18525,5774 18565,5831 18604,5899 18808,5794 19052,5741 19345,5741 19575,5741 19777,5774 19959,5843 20144,5904 20289,6011 20403,6162 20512,6308 20571,6477 20572,6679 L 20574,9308 20347,9308 20346,6679 C 20346,6435 20253,6254 20065,6133 19882,6011 19639,5950 19345,5950 19077,5950 18858,5996 18690,6089 18715,6164 18739,6234 18754,6297 18882,6209 19083,6162 19347,6162 19863,6162 20119,6335 20119,6679 L 20122,9308 19900,9308 19897,6679 C 19897,6623 19889,6577 19872,6542 19848,6498 19829,6468 19792,6443 19760,6424 19722,6409 19675,6397 19619,6380 19572,6379 19520,6372 19478,6367 19415,6367 19345,6367 19277,6367 19215,6367 19165,6372 19122,6379 19069,6380 19020,6397 18970,6409 18927,6424 18902,6443 18869,6468 18839,6498 18823,6542 18807,6577 18795,6623 18798,6679 L 18798,9308 Z M 23759,7339 L 24706,7339 C 24888,7339 25047,7285 25181,7183 25309,7065 25376,6922 25376,6733 25371,6583 25307,6449 25172,6335 25033,6215 24881,6162 24706,6162 L 23141,6162 23144,9308 22919,9308 22918,5950 24706,5950 C 24941,5950 25151,6028 25331,6185 25513,6347 25599,6523 25599,6733 25596,6980 25513,7183 25338,7324 25164,7473 24951,7543 24706,7543 L 23759,7543 23759,7339 Z M 23759,7754 L 24706,7754 C 25013,7754 25277,7660 25494,7468 25713,7279 25838,7029 25837,6733 25838,6468 25712,6239 25488,6039 25268,5840 25003,5741 24703,5741 L 22689,5741 22696,9308 22471,9308 22469,5536 24706,5536 C 25066,5536 25378,5649 25644,5891 25918,6133 26058,6409 26058,6733 26058,7078 25926,7378 25652,7615 25387,7843 25068,7960 24706,7960 L 23759,7960 23759,7754 Z M 23763,8172 L 24706,8172 C 24987,8172 25243,8105 25484,7987 25721,7864 25918,7690 26068,7468 26207,7254 26278,6997 26283,6733 26278,6479 26207,6253 26064,6035 25926,5821 25731,5644 25482,5516 25243,5391 24981,5325 24703,5325 L 22244,5325 22251,9308 22027,9308 22021,5116 24703,5116 C 24934,5116 25169,5161 25387,5246 25609,5335 25809,5449 25971,5598 26133,5741 26259,5913 26357,6112 26458,6310 26502,6515 26503,6733 26503,6983 26458,7218 26363,7429 26268,7637 26137,7810 25972,7949 25808,8084 25609,8193 25396,8264 25174,8347 24951,8379 24707,8379 L 23763,8379 23763,8172 Z M 23589,9308 L 23368,9308 23364,6367 24706,6367 C 24824,6367 24931,6404 25019,6477 25107,6542 25152,6623 25152,6733 25152,6992 25003,7120 24706,7120 L 23759,7120 23759,6909 24703,6909 C 24852,6909 24931,6854 24931,6733 24931,6687 24908,6652 24862,6615 24822,6597 24766,6577 24706,6577 L 23588,6577 23589,9308 Z M 30174,7248 C 30174,6984 30091,6799 29931,6659 29763,6523 29547,6455 29282,6455 29052,6455 28857,6530 28696,6672 28532,6824 28447,6999 28447,7217 28451,7328 28466,7435 28501,7523 28533,7617 28578,7698 28638,7758 28689,7817 28758,7865 28833,7909 28916,7942 29001,7977 29087,7990 29174,8008 29263,8015 29362,8015 29594,8015 29814,7968 30006,7852 L 30006,8060 C 29806,8167 29588,8210 29359,8210 29207,8210 29068,8193 28934,8155 28806,8115 28684,8060 28574,7987 28466,7909 28383,7804 28321,7670 28258,7539 28228,7390 28228,7217 28228,6937 28324,6710 28526,6527 28728,6342 28978,6245 29277,6245 29614,6245 29883,6335 30091,6508 30299,6679 30396,6928 30399,7248 L 30399,9308 30176,9308 30174,7248 Z M 30849,7248 L 30847,9308 30626,9308 30626,7248 C 30622,6870 30496,6577 30251,6359 29997,6147 29674,6039 29277,6039 28916,6039 28612,6152 28368,6379 28122,6604 28003,6878 28006,7217 28006,7412 28041,7589 28112,7745 28188,7903 28287,8029 28416,8120 28543,8214 28681,8291 28837,8339 28994,8388 29159,8417 29333,8417 29568,8417 29793,8363 30008,8255 L 30006,8483 C 29778,8567 29558,8616 29331,8616 29126,8616 28926,8583 28744,8527 28559,8466 28394,8377 28251,8262 28106,8153 27993,8005 27903,7823 27826,7647 27777,7443 27777,7217 27777,6824 27924,6498 28212,6229 28501,5959 28856,5829 29277,5829 29578,5829 29847,5884 30083,6000 30318,6112 30508,6278 30643,6492 30777,6703 30847,6958 30849,7248 Z M 31293,7248 L 31294,9308 31071,9308 31071,7248 C 31068,6914 30989,6630 30833,6387 30681,6137 30464,5950 30191,5821 29919,5686 29619,5621 29277,5621 28963,5621 28668,5694 28402,5831 28133,5973 27927,6164 27782,6409 27633,6652 27556,6922 27556,7217 27557,7460 27603,7690 27701,7895 27799,8098 27927,8262 28096,8392 28259,8528 28446,8627 28657,8708 28868,8778 29088,8816 29321,8816 29549,8816 29778,8769 30009,8678 L 30008,8888 C 29771,8972 29544,9014 29307,9014 28953,9014 28622,8942 28324,8786 28024,8639 27783,8421 27602,8143 27422,7865 27331,7559 27332,7217 27332,6960 27383,6733 27484,6508 27582,6289 27719,6097 27888,5936 28059,5774 28268,5648 28513,5559 28756,5460 29003,5411 29277,5411 29658,5411 29997,5490 30302,5634 30612,5786 30849,6005 31028,6280 31206,6560 31293,6878 31293,7248 Z M 31743,7248 L 31743,9308 31518,9308 31517,7248 C 31517,6840 31421,6487 31221,6172 31021,5865 30756,5629 30416,5460 30076,5288 29697,5206 29277,5206 28877,5206 28512,5296 28177,5469 27841,5649 27578,5891 27396,6205 27206,6508 27113,6848 27109,7217 27109,7453 27153,7678 27234,7895 27314,8105 27426,8294 27564,8454 27712,8616 27876,8753 28057,8869 28243,8986 28443,9072 28652,9132 28876,9197 29088,9221 29306,9221 29556,9221 29784,9177 30008,9091 L 30009,9308 C 29776,9378 29541,9416 29301,9416 29043,9416 28807,9384 28571,9319 28328,9252 28112,9159 27909,9026 27708,8897 27527,8752 27372,8573 27224,8401 27103,8187 27016,7958 26927,7723 26881,7473 26881,7217 26883,6905 26949,6615 27064,6347 27184,6078 27352,5840 27563,5640 27769,5444 28024,5288 28326,5175 28627,5050 28943,4993 29277,4993 29626,4993 29946,5048 30247,5160 30551,5265 30809,5415 31033,5606 31251,5803 31423,6035 31551,6318 31676,6599 31743,6905 31743,7248 Z M 35038,7323 L 34683,7323 C 34246,7323 33915,7234 33680,7059 33450,6893 33332,6668 33330,6372 33330,6102 33465,5879 33743,5694 34017,5516 34401,5425 34900,5425 35233,5425 35540,5469 35827,5559 36117,5640 36352,5761 36542,5911 L 36367,6043 C 36198,5913 35986,5813 35726,5741 35471,5669 35195,5634 34898,5634 34461,5634 34127,5703 33895,5843 33665,5981 33551,6162 33551,6372 33551,6605 33648,6787 33837,6909 34026,7035 34308,7102 34683,7102 L 35025,7102 C 35463,7102 35806,7195 36038,7358 36275,7520 36392,7753 36390,8039 36392,8309 36257,8536 35980,8717 35702,8897 35315,8988 34820,8988 34488,8988 34180,8948 33893,8861 33611,8778 33367,8661 33180,8498 L 33352,8369 C 33525,8498 33736,8604 33992,8673 34251,8747 34526,8783 34820,8783 35257,8783 35595,8709 35820,8567 36051,8436 36167,8249 36167,8039 36168,7810 36077,7629 35883,7504 35692,7383 35408,7323 35038,7323 Z M 35038,7733 L 34683,7733 C 34106,7733 33661,7615 33352,7372 33040,7112 32880,6787 32877,6372 32880,6185 32926,6009 33017,5844 33102,5684 33231,5538 33398,5411 33567,5288 33782,5191 34038,5121 34293,5048 34582,5011 34900,5011 35301,5011 35671,5063 36023,5178 36370,5296 36657,5449 36887,5649 L 36706,5774 C 36500,5598 36236,5461 35921,5371 35601,5266 35262,5218 34900,5218 34345,5218 33901,5325 33587,5550 33267,5766 33105,6043 33108,6372 33108,6729 33245,6999 33520,7218 33788,7427 34176,7523 34682,7523 L 35025,7523 C 35637,7523 35945,7699 35946,8039 35945,8193 35852,8319 35663,8421 35476,8527 35192,8567 34820,8567 34557,8567 34313,8548 34088,8489 33863,8428 33680,8348 33531,8233 L 33706,8105 C 33968,8279 34338,8363 34821,8363 35130,8363 35361,8332 35501,8270 35648,8210 35720,8135 35720,8039 35720,7924 35668,7849 35570,7804 35465,7758 35288,7733 35038,7733 Z M 35042,6889 L 34683,6889 C 34080,6889 33776,6714 33775,6372 33775,6222 33871,6093 34057,5990 34242,5891 34525,5843 34900,5843 35163,5843 35406,5874 35632,5929 35858,5988 36043,6073 36188,6172 L 36012,6299 C 35757,6137 35380,6054 34900,6054 34587,6054 34361,6083 34215,6145 34071,6205 33996,6280 33996,6372 34000,6479 34051,6562 34150,6605 34255,6659 34430,6674 34682,6674 L 35038,6674 C 35612,6674 36051,6802 36367,7052 36680,7303 36838,7630 36838,8039 36838,8224 36796,8402 36706,8567 36617,8738 36487,8879 36325,9003 36158,9123 35942,9222 35687,9296 35423,9369 35140,9403 34820,9403 34421,9403 34048,9347 33700,9236 33356,9123 33065,8966 32830,8763 L 33011,8639 C 33220,8819 33483,8952 33806,9053 34117,9147 34457,9198 34820,9198 35380,9198 35820,9084 36140,8869 36457,8646 36613,8369 36617,8039 36613,7690 36480,7412 36206,7209 35932,6997 35542,6889 35042,6889 Z"/>
  </g>
  <g>
   <rect class="BoundingBox" stroke="none" fill="none" x="-35" y="-36" width="37380" height="7320"/>
   <path fill="none" stroke="rgb(28,68,135)" stroke-width="282" stroke-linejoin="round" d="M 112,7142 C 112,7142 63,5777 254,5415 512,4931 1084,4382 1426,4073 1827,3709 2562,3236 2947,3037 3332,2837 4277,2417 5149,2116 6018,1816 6909,1565 7578,1419 8015,1322 9194,1106 10271,939 11370,768 12312,663 12312,663 12312,663 13739,474 14225,431 14710,388 15666,289 16265,247 16864,204 18794,105 18794,105 18794,105 19550,552 20105,917 20680,1299 21355,1754 21775,2003 22215,2265 22893,2705 23160,2831 23442,2965 23654,3057 23874,3144 24099,3236 24560,3321 24743,3345 24899,3364 26770,3502 26770,3502 L 28852,3588 30523,3645 33642,3756 C 33642,3756 34560,3816 34733,3832 34927,3847 35355,3925 35561,3991 35789,4065 36005,4141 36232,4244 36452,4345 36631,4474 36759,4573 36888,4672 36997,4769 37059,4872 37117,4966 37203,5172 37203,5172"/>
  </g>
  <g>
   <rect class="BoundingBox" stroke="none" fill="none" x="12041" y="6886" width="1661" height="2426"/>
   <path fill="rgb(241,195,48)" stroke="none" d="M 12041,6886 L 13313,6893 C 13313,6893 13578,7096 13611,7169 13743,7367 13696,7670 13676,7728 13656,7788 13518,8038 13478,8112 13440,8184 13074,8671 13074,8671 L 13533,8683 13558,9291 12086,9311 12094,8710 12904,7597 12179,7617 12041,6886 Z"/>
  </g>
 </svg>