<?xml version="1.0" encoding="UTF-8"?>
<!DOCTYPE svg PUBLIC "-//W3C//DTD SVG 1.1//EN" "http://www.w3.org/Graphics/SVG/1.1/DTD/svg11.dtd">
<svg version="1.2" width="136.88mm" height="24.69mm" viewBox="-214 -1 13688 2469" preserveAspectRatio="xMidYMid" fill-rule="evenodd" stroke-width="28.222" stroke-linejoin="round" xmlns="http://www.w3.org/2000/svg" xmlns:ooo="http://xml.openoffice.org/svg/export" xmlns:xlink="http://www.w3.org/1999/xlink" xmlns:presentation="http://sun.com/xmlns/staroffice/presentation" xmlns:smil="http://www.w3.org/2001/SMIL20/" xmlns:anim="urn:oasis:names:tc:opendocument:xmlns:animation:1.0" xml:space="preserve">
 <defs class="ClipPathGroup">
  <clipPath id="presentation_clip_path" clipPathUnits="userSpaceOnUse">
   <rect x="-214" y="-1" width="13688" height="2469"/>
  </clipPath>
 </defs>
 <defs class="TextShapeIndex">
  <g ooo:slide="id1" ooo:id-list="id3 id4 id5 id6 id7 id8 id9 id10 id11 id12 id13 id14 id15 id16 id17 id18 id19 id20 id21 id22"/>
 </defs>
 <defs class="EmbeddedBulletChars">
  <g id="bullet-char-template(57356)" transform="scale(0.00048828125,-0.00048828125)">
   <path d="M 580,1141 L 1163,571 580,0 -4,571 580,1141 Z"/>
  </g>
  <g id="bullet-char-template(57354)" transform="scale(0.00048828125,-0.00048828125)">
   <path d="M 8,1128 L 1137,1128 1137,0 8,0 8,1128 Z"/>
  </g>
  <g id="bullet-char-template(10146)" transform="scale(0.00048828125,-0.00048828125)">
   <path d="M 174,0 L 602,739 174,1481 1456,739 174,0 Z M 1358,739 L 309,1346 659,739 1358,739 Z"/>
  </g>
  <g id="bullet-char-template(10132)" transform="scale(0.00048828125,-0.00048828125)">
   <path d="M 2015,739 L 1276,0 717,0 1260,543 174,543 174,936 1260,936 717,1481 1274,1481 2015,739 Z"/>
  </g>
  <g id="bullet-char-template(10007)" transform="scale(0.00048828125,-0.00048828125)">
   <path d="M 0,-2 C -7,14 -16,27 -25,37 L 356,567 C 262,823 215,952 215,954 215,979 228,992 255,992 264,992 276,990 289,987 310,991 331,999 354,1012 L 381,999 492,748 772,1049 836,1024 860,1049 C 881,1039 901,1025 922,1006 886,937 835,863 770,784 769,783 710,716 594,584 L 774,223 C 774,196 753,168 711,139 L 727,119 C 717,90 699,76 672,76 641,76 570,178 457,381 L 164,-76 C 142,-110 111,-127 72,-127 30,-127 9,-110 8,-76 1,-67 -2,-52 -2,-32 -2,-23 -1,-13 0,-2 Z"/>
  </g>
  <g id="bullet-char-template(10004)" transform="scale(0.00048828125,-0.00048828125)">
   <path d="M 285,-33 C 182,-33 111,30 74,156 52,228 41,333 41,471 41,549 55,616 82,672 116,743 169,778 240,778 293,778 328,747 346,684 L 369,508 C 377,444 397,411 428,410 L 1163,1116 C 1174,1127 1196,1133 1229,1133 1271,1133 1292,1118 1292,1087 L 1292,965 C 1292,929 1282,901 1262,881 L 442,47 C 390,-6 338,-33 285,-33 Z"/>
  </g>
  <g id="bullet-char-template(9679)" transform="scale(0.00048828125,-0.00048828125)">
   <path d="M 813,0 C 632,0 489,54 383,161 276,268 223,411 223,592 223,773 276,916 383,1023 489,1130 632,1184 813,1184 992,1184 1136,1130 1245,1023 1353,916 1407,772 1407,592 1407,412 1353,268 1245,161 1136,54 992,0 813,0 Z"/>
  </g>
  <g id="bullet-char-template(8226)" transform="scale(0.00048828125,-0.00048828125)">
   <path d="M 346,457 C 273,457 209,483 155,535 101,586 74,649 74,723 74,796 101,859 155,911 209,963 273,989 346,989 419,989 480,963 531,910 582,859 608,796 608,723 608,648 583,586 532,535 482,483 420,457 346,457 Z"/>
  </g>
  <g id="bullet-char-template(8211)" transform="scale(0.00048828125,-0.00048828125)">
   <path d="M -4,459 L 1135,459 1135,606 -4,606 -4,459 Z"/>
  </g>
 </defs>
 <defs class="TextEmbeddedBitmaps"/>
 <g class="SlideGroup">
  <g>
   <g id="id1" class="Slide" clip-path="url(#presentation_clip_path)">
    <g class="Page">
     <g class="com.sun.star.drawing.PolyPolygonShape">
      <g id="id3">
       <rect class="BoundingBox" stroke="none" fill="none" x="-214" y="1253" width="4259" height="1216"/>
      </g>
     </g>
     <g class="com.sun.star.drawing.PolyPolygonShape">
      <g id="id4">
       <rect class="BoundingBox" stroke="none" fill="none" x="-214" y="1253" width="4258" height="1216"/>
      </g>
     </g>
     <g class="com.sun.star.drawing.ClosedBezierShape">
      <g id="id5">
       <rect class="BoundingBox" stroke="none" fill="none" x="44" y="1310" width="4101" height="1158"/>
       <path fill="rgb(241,194,50)" stroke="none" d="M 1633,1719 L 1554,1744 C 1529,1711 1491,1683 1437,1664 1381,1643 1316,1634 1239,1634 1116,1634 998,1658 885,1708 771,1757 696,1817 659,1889 622,1959 634,2019 696,2069 758,2118 850,2143 973,2143 1050,2143 1125,2133 1202,2114 1277,2093 1343,2066 1403,2032 L 1453,2058 C 1384,2099 1305,2130 1217,2154 1127,2177 1038,2189 949,2189 878,2189 814,2181 756,2166 700,2150 655,2129 621,2101 587,2074 568,2042 559,2006 551,1968 556,1929 577,1889 599,1846 634,1808 681,1771 729,1734 782,1702 844,1675 905,1649 973,1627 1046,1611 1121,1595 1193,1587 1264,1587 1355,1587 1430,1599 1496,1624 1559,1647 1606,1679 1633,1719 Z M 1795,1667 L 1713,1692 C 1682,1646 1629,1610 1556,1582 1481,1554 1392,1540 1288,1540 1177,1540 1068,1556 958,1587 848,1619 752,1661 670,1713 588,1767 530,1825 496,1889 463,1952 460,2011 487,2063 514,2116 566,2158 643,2189 721,2220 814,2235 925,2235 1029,2235 1132,2222 1236,2194 1339,2167 1429,2130 1510,2084 L 1564,2110 C 1472,2163 1369,2204 1252,2235 1135,2266 1018,2281 901,2281 777,2281 670,2264 582,2229 494,2194 433,2146 404,2086 374,2026 378,1959 415,1889 453,1816 518,1751 610,1691 703,1630 813,1582 939,1547 1063,1512 1188,1495 1312,1495 1429,1495 1530,1510 1615,1540 1700,1571 1758,1614 1795,1667 Z M 1957,1616 L 1877,1640 C 1837,1581 1769,1535 1674,1500 1580,1466 1466,1449 1336,1449 1232,1449 1125,1460 1019,1483 911,1506 812,1538 722,1576 631,1616 553,1663 485,1717 415,1771 366,1827 334,1889 303,1948 293,2006 305,2060 317,2114 347,2160 397,2200 445,2239 512,2270 596,2293 678,2316 773,2328 877,2328 1009,2328 1139,2310 1269,2275 1400,2241 1517,2194 1618,2135 L 1669,2163 C 1557,2228 1429,2279 1286,2316 1142,2355 997,2374 852,2374 698,2374 568,2352 458,2309 350,2265 277,2206 240,2132 202,2058 205,1976 251,1889 298,1799 380,1719 495,1644 610,1569 745,1510 898,1467 1053,1424 1206,1403 1360,1403 1505,1403 1629,1422 1735,1460 1839,1498 1913,1550 1957,1616 Z M 2117,1563 L 2038,1587 C 1989,1516 1907,1460 1793,1419 1680,1377 1542,1356 1384,1356 1258,1356 1130,1370 1000,1398 870,1426 749,1464 641,1511 533,1558 436,1616 352,1682 269,1747 208,1815 170,1889 133,1960 121,2030 136,2096 152,2161 188,2217 247,2265 306,2312 387,2350 488,2378 589,2406 702,2420 828,2420 986,2420 1145,2400 1303,2357 1462,2315 1602,2258 1725,2187 L 1776,2215 C 1642,2292 1490,2353 1319,2399 1146,2444 976,2466 804,2466 667,2466 542,2451 433,2421 325,2390 238,2348 174,2297 110,2245 68,2185 53,2114 35,2042 48,1967 89,1889 131,1809 195,1735 288,1664 378,1592 483,1530 601,1479 719,1427 849,1387 989,1356 1130,1325 1271,1310 1408,1310 1580,1310 1729,1333 1852,1379 1977,1424 2066,1485 2117,1563 Z M 2860,1708 C 2746,1757 2671,1817 2634,1889 2597,1959 2609,2019 2671,2069 2733,2118 2825,2143 2949,2143 3073,2143 3191,2118 3304,2069 3418,2019 3494,1959 3531,1889 3568,1817 3555,1757 3493,1708 3431,1658 3339,1634 3215,1634 3091,1634 2973,1658 2860,1708 Z M 2534,2006 C 2526,1968 2532,1929 2553,1889 2575,1846 2609,1808 2656,1771 2704,1734 2759,1702 2819,1675 2880,1649 2948,1627 3022,1611 3096,1595 3169,1587 3240,1587 3312,1587 3377,1595 3433,1611 3489,1627 3533,1649 3568,1675 3602,1702 3623,1734 3631,1771 3639,1808 3634,1846 3612,1889 3591,1929 3556,1968 3509,2006 3462,2042 3407,2074 3345,2101 3283,2129 3216,2150 3143,2166 3070,2181 2997,2189 2925,2189 2854,2189 2789,2181 2732,2166 2675,2150 2630,2129 2596,2101 2564,2074 2543,2042 2534,2006 Z M 2645,1713 C 2563,1767 2506,1825 2472,1889 2439,1952 2435,2011 2462,2063 2489,2116 2541,2158 2620,2189 2696,2220 2791,2235 2901,2235 3012,2235 3123,2220 3231,2189 3342,2158 3438,2116 3521,2063 3602,2011 3660,1952 3693,1889 3727,1825 3730,1767 3704,1713 3676,1661 3624,1619 3546,1587 3470,1556 3375,1540 3264,1540 3154,1540 3043,1556 2935,1587 2823,1619 2727,1661 2645,1713 Z M 2379,2086 C 2349,2026 2353,1959 2390,1889 2428,1816 2493,1751 2585,1691 2680,1630 2789,1582 2914,1547 3038,1512 3163,1495 3288,1495 3414,1495 3521,1512 3609,1547 3695,1582 3755,1630 3784,1691 3816,1751 3812,1816 3774,1889 3737,1959 3672,2026 3578,2086 3485,2146 3376,2194 3252,2229 3128,2264 3003,2281 2877,2281 2752,2281 2645,2264 2557,2229 2470,2194 2410,2146 2379,2086 Z M 2460,1717 C 2390,1771 2341,1827 2309,1889 2278,1948 2268,2006 2280,2060 2293,2114 2324,2160 2373,2200 2420,2239 2487,2270 2571,2293 2654,2316 2748,2328 2853,2328 2958,2328 3065,2316 3172,2293 3280,2270 3377,2239 3468,2200 3557,2160 3636,2114 3705,2060 3774,2006 3825,1948 3856,1889 3888,1827 3896,1771 3885,1717 3872,1663 3841,1616 3793,1576 3744,1538 3679,1506 3595,1483 3512,1460 3417,1449 3312,1449 3207,1449 3101,1460 2994,1483 2886,1506 2787,1538 2698,1576 2608,1616 2529,1663 2460,1717 Z M 2215,2132 C 2177,2058 2182,1976 2228,1889 2275,1799 2355,1719 2470,1644 2587,1569 2720,1510 2874,1467 3028,1424 3181,1403 3336,1403 3490,1403 3623,1424 3731,1467 3839,1510 3912,1569 3950,1644 3988,1719 3984,1799 3937,1889 3891,1976 3810,2058 3695,2132 3579,2206 3444,2265 3291,2309 3138,2352 2982,2374 2828,2374 2673,2374 2543,2352 2434,2309 2325,2265 2254,2206 2215,2132 Z M 2327,1682 C 2246,1747 2185,1815 2147,1889 2110,1960 2098,2030 2111,2096 2127,2161 2163,2217 2223,2265 2283,2312 2362,2350 2463,2378 2564,2406 2677,2420 2804,2420 2930,2420 3060,2406 3190,2378 3321,2350 3440,2312 3548,2265 3656,2217 3752,2161 3836,2096 3919,2030 3981,1960 4018,1889 4056,1815 4067,1747 4052,1682 4036,1616 4001,1558 3942,1511 3883,1464 3804,1426 3702,1398 3601,1370 3486,1356 3360,1356 3233,1356 3105,1370 2975,1398 2845,1426 2726,1464 2617,1511 2508,1558 2411,1616 2327,1682 Z M 2028,2114 C 2010,2042 2020,1967 2061,1889 2103,1809 2170,1735 2263,1664 2355,1592 2459,1530 2577,1479 2695,1427 2824,1387 2965,1356 3107,1325 3246,1310 3384,1310 3522,1310 3646,1325 3756,1356 3865,1387 3952,1427 4016,1479 4080,1530 4120,1592 4136,1664 4153,1735 4141,1809 4099,1889 4058,1967 3993,2042 3901,2114 3810,2185 3707,2245 3589,2297 3471,2348 3341,2390 3200,2421 3058,2451 2918,2466 2780,2466 2642,2466 2519,2451 2409,2421 2300,2390 2214,2348 2150,2297 2086,2245 2045,2185 2028,2114 Z"/>
      </g>
     </g>
     <g class="com.sun.star.drawing.PolyPolygonShape">
      <g id="id6">
       <rect class="BoundingBox" stroke="none" fill="none" x="3891" y="1806" width="797" height="615"/>
      </g>
     </g>
     <g class="com.sun.star.drawing.PolyPolygonShape">
      <g id="id7">
       <rect class="BoundingBox" stroke="none" fill="none" x="3891" y="1806" width="796" height="614"/>
      </g>
     </g>
     <g class="com.sun.star.drawing.ClosedBezierShape">
      <g id="id8">
       <rect class="BoundingBox" stroke="none" fill="none" x="3924" y="1836" width="876" height="586"/>
       <path fill="rgb(241,194,50)" stroke="none" d="M 3973,2328 L 3999,2277 4604,2277 4578,2328 3973,2328 Z M 3948,2374 L 3975,2324 4580,2324 4553,2374 3948,2374 Z M 3924,2420 L 3950,2371 4555,2371 4529,2420 3924,2420 Z M 4092,2291 L 3986,2291 C 4048,2257 4097,2230 4134,2211 4168,2191 4198,2175 4221,2162 4247,2149 4269,2137 4294,2122 4317,2110 4335,2100 4347,2093 4362,2085 4375,2078 4389,2071 4400,2064 4409,2058 4416,2055 4422,2051 4429,2048 4432,2044 4437,2042 4442,2040 4445,2039 4445,2038 4446,2036 4446,2036 4448,2032 4444,2029 4435,2028 4428,2027 4408,2026 4375,2026 4317,2026 4251,2031 4172,2042 L 4178,1996 C 4204,1990 4238,1985 4280,1981 4322,1976 4362,1974 4399,1974 4422,1974 4442,1975 4457,1977 4477,1978 4492,1982 4506,1986 4521,1990 4531,1997 4534,2005 4540,2014 4539,2024 4533,2036 4527,2047 4510,2061 4484,2077 4458,2092 4397,2126 4297,2180 4220,2222 4151,2259 4092,2291 Z M 4184,2291 L 4077,2291 C 4300,2171 4426,2101 4447,2089 4490,2065 4516,2048 4523,2040 4525,2037 4528,2035 4529,2032 4548,1997 4504,1979 4398,1979 4364,1979 4327,1982 4290,1985 4251,1988 4214,1994 4178,2000 L 4185,1950 C 4273,1936 4353,1929 4426,1929 4451,1929 4473,1930 4494,1932 4518,1934 4539,1937 4557,1942 4577,1947 4592,1953 4602,1961 4613,1969 4621,1979 4622,1992 4626,2003 4624,2017 4616,2032 4608,2048 4585,2068 4548,2089 4512,2112 4409,2170 4239,2261 4219,2272 4201,2282 4184,2291 Z M 4278,2291 L 4173,2291 C 4380,2178 4504,2108 4543,2085 4581,2061 4604,2043 4612,2029 4621,2012 4622,1997 4616,1984 4612,1970 4601,1960 4581,1954 4564,1946 4542,1942 4516,1938 4488,1935 4457,1933 4422,1933 4355,1933 4276,1940 4185,1955 L 4193,1905 C 4292,1889 4377,1882 4448,1882 4484,1882 4516,1884 4547,1886 4577,1889 4602,1894 4626,1901 4651,1909 4671,1918 4685,1929 4701,1940 4708,1955 4711,1971 4714,1989 4710,2008 4699,2029 4690,2045 4676,2061 4656,2076 4635,2092 4598,2114 4545,2146 4493,2176 4404,2225 4278,2291 Z M 4379,2291 L 4270,2291 C 4408,2218 4503,2167 4553,2137 4605,2105 4639,2084 4657,2070 4674,2056 4687,2041 4694,2026 4704,2007 4709,1989 4707,1973 4705,1957 4697,1945 4684,1935 4671,1925 4654,1915 4632,1908 4609,1900 4583,1896 4552,1892 4523,1888 4486,1886 4448,1886 4379,1886 4292,1895 4191,1910 L 4199,1860 C 4303,1844 4395,1837 4472,1837 4532,1837 4586,1841 4629,1848 4676,1855 4711,1866 4741,1882 4770,1897 4788,1916 4796,1941 4803,1966 4798,1995 4781,2026 4771,2046 4756,2065 4735,2084 4714,2101 4676,2126 4623,2158 4571,2190 4488,2234 4379,2291 Z"/>
      </g>
     </g>
     <g class="com.sun.star.drawing.PolyPolygonShape">
      <g id="id9">
       <rect class="BoundingBox" stroke="none" fill="none" x="4752" y="1398" width="8346" height="1050"/>
      </g>
     </g>
     <g class="com.sun.star.drawing.PolyPolygonShape">
      <g id="id10">
       <rect class="BoundingBox" stroke="none" fill="none" x="4836" y="1174" width="8344" height="1049"/>
      </g>
     </g>
     <g class="com.sun.star.drawing.ClosedBezierShape">
      <g id="id11">
       <rect class="BoundingBox" stroke="none" fill="none" x="4922" y="1234" width="8554" height="999"/>
       <path fill="rgb(241,194,50)" stroke="none" d="M 6279,1627 L 5976,2207 5895,2207 6198,1627 C 6204,1615 6207,1604 6204,1596 6201,1587 6197,1580 6187,1575 6178,1570 6165,1567 6148,1564 6131,1561 6114,1560 6096,1559 6080,1558 6059,1558 6032,1558 6008,1558 5986,1558 5967,1559 5950,1560 5931,1561 5912,1564 5892,1567 5875,1570 5861,1575 5848,1580 5834,1587 5822,1596 5812,1604 5802,1615 5796,1627 L 5493,2207 5411,2207 5714,1627 C 5754,1551 5868,1512 6056,1512 6245,1512 6319,1551 6279,1627 Z M 6443,1627 L 6140,2207 6057,2207 6360,1627 C 6388,1573 6376,1533 6322,1506 6269,1480 6188,1466 6080,1466 5973,1466 5878,1480 5797,1506 5716,1533 5661,1573 5633,1627 L 5330,2207 5249,2207 5552,1627 C 5575,1582 5615,1544 5673,1512 5730,1480 5796,1456 5869,1442 5942,1427 6022,1420 6104,1420 6189,1420 6259,1427 6317,1442 6376,1456 6417,1480 6442,1512 6464,1544 6466,1582 6443,1627 Z M 6605,1627 L 6302,2207 6221,2207 6524,1627 C 6545,1587 6551,1551 6540,1518 6527,1486 6504,1459 6466,1438 6429,1418 6382,1401 6324,1391 6268,1380 6203,1374 6128,1374 6056,1374 5985,1380 5916,1391 5847,1401 5783,1418 5722,1438 5665,1459 5611,1486 5569,1518 5524,1551 5492,1587 5471,1627 L 5168,2207 5085,2207 5388,1627 C 5412,1581 5451,1539 5504,1500 5555,1463 5614,1431 5682,1406 5751,1381 5825,1362 5906,1348 5987,1335 6070,1328 6152,1328 6237,1328 6313,1335 6379,1348 6445,1362 6500,1381 6541,1406 6583,1431 6612,1463 6623,1500 6634,1539 6629,1581 6605,1627 Z M 6466,2207 L 6383,2207 6686,1627 C 6710,1581 6715,1536 6700,1494 6687,1451 6656,1414 6611,1383 6566,1352 6505,1327 6430,1309 6353,1291 6269,1281 6176,1281 6049,1281 5926,1295 5810,1323 5692,1350 5588,1390 5497,1442 5407,1496 5343,1557 5307,1627 L 5004,2207 4923,2207 5226,1627 C 5256,1568 5305,1514 5372,1465 5440,1415 5515,1374 5603,1340 5689,1308 5785,1281 5887,1263 5991,1244 6096,1235 6201,1235 6388,1235 6535,1263 6645,1316 6810,1263 6987,1235 7174,1235 7279,1235 7374,1244 7458,1263 7542,1281 7610,1308 7664,1340 7716,1374 7749,1415 7765,1465 7778,1514 7771,1568 7741,1627 L 7438,2207 7355,2207 7658,1627 C 7694,1557 7695,1496 7661,1443 7627,1390 7565,1350 7475,1323 7385,1295 7276,1281 7149,1281 6990,1281 6838,1303 6697,1346 6710,1354 6723,1366 6738,1379 6859,1345 6987,1328 7125,1328 7209,1328 7285,1335 7351,1348 7417,1362 7472,1381 7513,1406 7555,1431 7584,1463 7595,1500 7606,1539 7601,1581 7577,1627 L 7274,2207 7193,2207 7496,1627 C 7517,1587 7523,1551 7512,1518 7500,1486 7477,1459 7439,1438 7402,1418 7354,1401 7297,1391 7240,1380 7175,1374 7101,1374 6982,1374 6870,1388 6769,1415 6775,1427 6783,1440 6789,1455 6876,1432 6971,1420 7077,1420 7161,1420 7231,1427 7289,1442 7349,1456 7389,1480 7414,1512 7436,1544 7438,1582 7415,1627 L 7112,2207 7029,2207 7332,1627 C 7360,1573 7348,1533 7294,1506 7241,1480 7160,1466 7053,1466 6955,1466 6871,1476 6799,1496 6799,1513 6800,1528 6798,1542 6854,1523 6933,1512 7029,1512 7217,1512 7291,1551 7251,1627 L 6948,2207 6867,2207 7170,1627 C 7176,1615 7179,1604 7176,1596 7173,1587 7169,1580 7159,1575 7150,1570 7137,1567 7121,1564 7103,1561 7086,1560 7068,1559 7053,1558 7031,1558 7005,1558 6980,1558 6958,1558 6939,1559 6923,1560 6903,1561 6884,1564 6864,1567 6847,1570 6834,1575 6820,1580 6806,1587 6794,1596 6784,1604 6775,1615 6769,1627 L 6466,2207 Z M 8500,1772 L 8844,1772 C 8911,1772 8975,1760 9035,1738 9096,1712 9136,1680 9158,1639 9175,1605 9165,1576 9130,1551 9093,1524 9044,1512 8980,1512 L 8411,1512 8048,2207 7967,2207 8354,1466 9004,1466 C 9091,1466 9158,1483 9205,1518 9253,1553 9263,1592 9239,1639 9210,1693 9156,1738 9076,1769 8996,1802 8910,1818 8820,1818 L 8476,1818 8500,1772 Z M 8452,1864 L 8796,1864 C 8908,1864 9015,1843 9116,1801 9218,1759 9291,1704 9325,1639 9356,1580 9338,1529 9280,1485 9222,1441 9137,1420 9028,1420 L 8295,1420 7884,2207 7803,2207 8238,1374 9052,1374 C 9184,1374 9284,1400 9354,1453 9425,1506 9443,1567 9406,1639 9366,1715 9283,1781 9157,1833 9034,1884 8905,1910 8772,1910 L 8428,1910 8452,1864 Z M 8404,1956 L 8748,1956 C 8850,1956 8951,1942 9053,1915 9153,1888 9245,1850 9324,1801 9400,1753 9456,1697 9487,1639 9516,1583 9515,1532 9489,1484 9463,1437 9413,1398 9338,1370 9265,1342 9178,1328 9076,1328 L 8181,1328 7722,2207 7641,2207 8124,1281 9100,1281 C 9185,1281 9265,1292 9334,1310 9405,1330 9464,1355 9505,1388 9548,1420 9574,1458 9587,1501 9600,1545 9593,1591 9568,1639 9539,1694 9495,1746 9436,1792 9378,1838 9310,1876 9234,1907 9159,1937 9075,1961 8988,1977 8899,1994 8813,2002 8724,2002 L 8380,2002 8404,1956 Z M 8210,2207 L 8129,2207 8468,1558 8956,1558 C 9000,1558 9034,1566 9059,1582 9083,1596 9089,1615 9077,1639 9047,1696 8978,1724 8869,1724 L 8525,1724 8549,1678 8893,1678 C 8947,1678 8982,1665 8996,1639 9001,1628 8998,1620 8984,1613 8972,1608 8955,1604 8932,1604 L 8525,1604 8210,2207 Z M 10846,1752 C 10875,1695 10867,1653 10825,1622 10780,1592 10709,1577 10611,1577 10529,1577 10449,1594 10373,1625 10296,1659 10245,1698 10221,1745 10208,1770 10202,1794 10203,1813 10205,1834 10212,1851 10227,1865 10239,1878 10258,1889 10281,1898 10307,1906 10334,1913 10363,1916 10393,1920 10425,1922 10460,1922 10545,1922 10631,1911 10714,1886 L 10690,1932 C 10605,1955 10521,1965 10437,1965 10382,1965 10333,1961 10290,1953 10246,1944 10209,1932 10178,1915 10147,1898 10128,1875 10122,1846 10114,1816 10120,1783 10140,1745 10172,1684 10234,1634 10329,1593 10423,1552 10526,1531 10635,1531 10758,1531 10845,1551 10900,1589 10956,1627 10963,1682 10927,1752 L 10689,2207 10608,2207 10846,1752 Z M 11091,1752 L 10853,2207 10772,2207 11010,1752 C 11053,1669 11040,1604 10975,1556 10909,1509 10803,1485 10659,1485 10527,1485 10403,1510 10288,1560 10173,1610 10098,1671 10059,1745 10037,1788 10029,1827 10037,1862 10046,1897 10067,1925 10104,1945 10139,1966 10181,1982 10232,1993 10284,2004 10341,2010 10404,2010 10490,2010 10578,1998 10668,1975 L 10642,2025 C 10549,2044 10463,2054 10379,2054 10305,2054 10236,2047 10177,2034 10117,2021 10067,2001 10027,1976 9987,1952 9963,1919 9952,1879 9944,1840 9950,1795 9976,1745 10021,1659 10112,1587 10249,1527 10384,1468 10530,1439 10683,1439 10793,1439 10883,1452 10956,1477 11030,1501 11079,1538 11103,1585 11128,1632 11124,1688 11091,1752 Z M 11253,1752 L 11015,2207 10934,2207 11172,1752 C 11210,1679 11214,1616 11185,1562 11158,1507 11101,1466 11017,1437 10934,1408 10831,1393 10707,1393 10592,1393 10476,1409 10363,1440 10250,1471 10153,1513 10071,1567 9989,1620 9929,1680 9895,1745 9867,1799 9858,1850 9870,1895 9882,1940 9910,1976 9956,2005 10000,2035 10056,2057 10123,2074 10193,2090 10268,2098 10353,2098 10437,2098 10526,2088 10620,2068 L 10595,2114 C 10499,2133 10411,2142 10326,2142 10197,2142 10085,2126 9994,2092 9901,2059 9839,2011 9805,1950 9772,1889 9774,1821 9814,1745 9843,1689 9888,1639 9951,1589 10012,1540 10084,1498 10165,1463 10246,1427 10336,1399 10436,1379 10535,1357 10632,1347 10731,1347 10870,1347 10985,1364 11079,1396 11173,1430 11235,1478 11268,1539 11300,1600 11295,1671 11253,1752 Z M 11416,1752 L 11178,2207 11096,2207 11334,1752 C 11380,1663 11386,1584 11351,1515 11314,1447 11244,1395 11140,1357 11036,1320 10908,1301 10755,1301 10610,1301 10466,1321 10323,1360 10181,1400 10057,1453 9954,1522 9850,1589 9776,1664 9733,1745 9706,1798 9695,1847 9700,1895 9705,1942 9723,1983 9755,2018 9790,2054 9834,2085 9887,2110 9941,2136 10004,2155 10074,2169 10147,2182 10222,2188 10301,2188 10391,2188 10481,2178 10572,2159 L 10547,2207 C 10454,2223 10364,2231 10276,2231 10183,2231 10100,2224 10021,2210 9941,2195 9873,2174 9815,2145 9756,2117 9708,2084 9672,2045 9638,2006 9618,1960 9613,1909 9608,1857 9620,1802 9650,1745 9686,1677 9743,1613 9817,1553 9892,1494 9980,1441 10080,1397 10178,1354 10289,1320 10412,1294 10535,1267 10658,1254 10780,1254 10906,1254 11016,1266 11114,1291 11211,1314 11290,1348 11348,1390 11404,1433 11440,1484 11454,1547 11467,1609 11455,1677 11416,1752 Z M 12608,1768 L 12479,1768 C 12320,1768 12209,1749 12143,1711 12078,1674 12062,1624 12095,1559 12127,1499 12202,1450 12324,1409 12444,1370 12595,1350 12777,1350 12898,1350 13004,1360 13099,1379 13194,1397 13267,1424 13318,1457 L 13239,1486 C 13193,1458 13127,1436 13041,1420 12957,1404 12860,1396 12752,1396 12593,1396 12463,1411 12363,1442 12262,1473 12201,1512 12176,1559 12149,1611 12163,1651 12218,1678 12272,1706 12367,1720 12504,1720 L 12628,1720 C 12788,1720 12902,1740 12968,1776 13035,1812 13051,1863 13017,1927 12986,1986 12911,2037 12789,2077 12667,2117 12516,2137 12335,2137 12215,2137 12107,2128 12013,2109 11919,2090 11844,2064 11794,2029 L 11873,1999 C 11920,2029 11985,2052 12070,2067 12156,2083 12252,2091 12359,2091 12518,2091 12650,2075 12748,2044 12848,2014 12911,1974 12936,1927 12963,1876 12950,1836 12894,1809 12839,1782 12743,1768 12608,1768 Z M 12560,1859 L 12431,1859 C 12221,1859 12073,1833 11988,1779 11904,1723 11883,1651 11931,1559 11953,1518 11990,1479 12042,1443 12092,1407 12156,1375 12231,1347 12306,1320 12396,1298 12498,1282 12600,1266 12709,1258 12825,1258 12971,1258 13099,1270 13214,1295 13326,1321 13414,1355 13474,1400 L 13394,1427 C 13339,1388 13258,1358 13155,1337 13050,1315 12933,1304 12801,1304 12598,1304 12424,1328 12284,1377 12142,1425 12052,1486 12014,1559 11973,1638 11991,1698 12066,1746 12141,1791 12271,1813 12455,1813 L 12579,1813 C 12802,1813 12894,1852 12855,1927 12837,1961 12789,1989 12709,2011 12628,2034 12520,2044 12384,2044 12289,2044 12202,2039 12127,2026 12052,2013 11994,1995 11953,1970 L 12032,1942 C 12107,1980 12232,1998 12408,1998 12521,1998 12609,1991 12666,1978 12726,1965 12762,1948 12773,1927 12786,1902 12777,1885 12745,1875 12713,1865 12651,1859 12560,1859 Z M 12658,1673 L 12529,1673 C 12309,1673 12218,1635 12257,1559 12275,1525 12325,1497 12404,1475 12482,1453 12591,1442 12728,1442 12824,1442 12909,1449 12985,1461 13061,1474 13119,1492 13160,1515 L 13081,1543 C 13006,1507 12879,1488 12704,1488 12590,1488 12504,1495 12445,1508 12385,1522 12349,1539 12338,1559 12326,1583 12336,1601 12367,1611 12399,1622 12460,1626 12553,1626 L 12682,1626 C 12892,1626 13037,1654 13123,1709 13208,1764 13227,1837 13180,1927 13159,1968 13123,2007 13071,2044 13019,2081 12955,2113 12882,2140 12807,2167 12717,2189 12615,2205 12511,2221 12403,2229 12287,2229 12142,2229 12013,2216 11899,2191 11786,2167 11699,2132 11637,2087 L 11717,2059 C 11773,2099 11853,2129 11958,2151 12061,2172 12179,2183 12311,2183 12515,2183 12688,2158 12830,2110 12971,2061 13061,1999 13099,1927 13139,1850 13122,1788 13046,1743 12971,1697 12841,1673 12658,1673 Z"/>
      </g>
     </g>
     <g class="com.sun.star.drawing.PolyPolygonShape">
      <g id="id12">
       <rect class="BoundingBox" stroke="none" fill="none" x="36" y="282" width="7117" height="1237"/>
      </g>
     </g>
     <g class="com.sun.star.drawing.PolyPolygonShape">
      <g id="id13">
       <rect class="BoundingBox" stroke="none" fill="none" x="36" y="282" width="7117" height="1237"/>
      </g>
     </g>
     <g class="com.sun.star.drawing.PolyPolygonShape">
      <g id="id14">
       <rect class="BoundingBox" stroke="none" fill="none" x="0" y="260" width="7189" height="1281"/>
      </g>
     </g>
     <g class="com.sun.star.drawing.PolyPolygonShape">
      <g id="id15">
       <rect class="BoundingBox" stroke="none" fill="none" x="73" y="1" width="7169" height="1632"/>
      </g>
     </g>
     <g class="com.sun.star.drawing.OpenBezierShape">
      <g id="id16">
       <rect class="BoundingBox" stroke="none" fill="none" x="74" y="1" width="7167" height="1631"/>
       <path fill="none" stroke="rgb(28,69,135)" stroke-width="106" stroke-linejoin="round" d="M 7187,55 C 3286,55 127,736 127,1578"/>
      </g>
     </g>
     <g class="com.sun.star.drawing.PolyPolygonShape">
      <g id="id17">
       <rect class="BoundingBox" stroke="none" fill="none" x="7143" y="281" width="6158" height="1014"/>
      </g>
     </g>
     <g class="com.sun.star.drawing.PolyPolygonShape">
      <g id="id18">
       <rect class="BoundingBox" stroke="none" fill="none" x="7107" y="259" width="6232" height="1058"/>
      </g>
     </g>
     <g class="com.sun.star.drawing.PolyPolygonShape">
      <g id="id19">
       <rect class="BoundingBox" stroke="none" fill="none" x="7129" y="-1" width="6262" height="1119"/>
      </g>
     </g>
     <g class="com.sun.star.drawing.OpenBezierShape">
      <g id="id20">
       <rect class="BoundingBox" stroke="none" fill="none" x="7130" y="0" width="6260" height="1117"/>
       <path fill="none" stroke="rgb(28,69,135)" stroke-width="106" stroke-linejoin="round" d="M 13336,1062 C 10459,1064 7933,651 7183,53"/>
      </g>
     </g>
     <g class="com.sun.star.drawing.PolyPolygonShape">
      <g id="id21">
       <rect class="BoundingBox" stroke="none" fill="none" x="7129" y="-1" width="6008" height="1119"/>
      </g>
     </g>
     <g class="com.sun.star.drawing.OpenBezierShape">
      <g id="id22">
       <rect class="BoundingBox" stroke="none" fill="none" x="7130" y="0" width="6006" height="1117"/>
       <path fill="none" stroke="rgb(28,69,135)" stroke-width="106" stroke-linejoin="round" d="M 13082,1062 C 10324,1064 7902,651 7183,53"/>
      </g>
     </g>
    </g>
   </g>
  </g>
 </g>
</svg>