<?xml version="1.0" encoding="UTF-8" standalone="no"?>
<!DOCTYPE svg PUBLIC "-//W3C//DTD SVG 1.1//EN"
 "http://www.w3.org/Graphics/SVG/1.1/DTD/svg11.dtd">
<!-- Generated by graphviz version 2.38.0 (20140413.2041)
 -->
<!-- Title: Wheel model Pages: 1 -->
<svg width="1674pt" height="928pt"
 viewBox="0.00 0.00 1674.00 928.00" xmlns="http://www.w3.org/2000/svg" xmlns:xlink="http://www.w3.org/1999/xlink">
<g id="graph0" class="graph" transform="scale(1 1) rotate(0) translate(4 924)">
<title>Wheel model</title>
<polygon fill="white" stroke="none" points="-4,4 -4,-924 1670,-924 1670,4 -4,4"/>
<text text-anchor="middle" x="833" y="-7.8" font-family="Times New Roman,serif" font-size="14.00">Wheel model</text>
<!-- &#45;6281391710310240799 -->
<g id="node1" class="node"><title>&#45;6281391710310240799</title>
<g id="a_node1"><a xlink:title="Vehicle acceleration [m/s2].">
<path fill="cyan" stroke="black" d="M934,-914C934,-914 864,-914 864,-914 858,-914 852,-908 852,-902 852,-902 852,-890 852,-890 852,-884 858,-878 864,-878 864,-878 934,-878 934,-878 940,-878 946,-884 946,-890 946,-890 946,-902 946,-902 946,-908 940,-914 934,-914"/>
<text text-anchor="start" x="862.5" y="-891.8" font-family="Times New Roman,serif" font-size="14.00">accelerations</text>
</a>
</g>
</g>
<!-- 8169825034403301710 -->
<g id="node14" class="node"><title>8169825034403301710</title>
<g id="a_node14"><a xlink:href="./Wheel%20model/co2mpas.model.physical.wheelsidentify_r_dynamic_v2.txt" xlink:title="Identifies the dynamic radius of the wheels [m].">
<polygon fill="springgreen" stroke="black" points="971,-836 821,-836 821,-788 971,-788 971,-836"/>
<text text-anchor="start" x="831" y="-818.8" font-family="Times New Roman,serif" font-size="14.00">identify_r_dynamic_v2</text>
<polygon fill="none" stroke="black" points="829,-792 829,-813 911,-813 911,-792 829,-792"/>
<text text-anchor="start" x="863" y="-798.8" font-family="Times New Roman,serif" font-size="14.00">weight=</text>
<polygon fill="none" stroke="black" points="911,-792 911,-813 963,-813 963,-792 911,-792"/>
<text text-anchor="start" x="914" y="-798.8" font-family="Times New Roman,serif" font-size="14.00">11</text>
</a>
</g>
</g>
<!-- &#45;6281391710310240799&#45;&gt;8169825034403301710 -->
<g id="edge1" class="edge"><title>&#45;6281391710310240799&#45;&gt;8169825034403301710</title>
<path fill="none" stroke="black" d="M899,-877.773C899,-877.773 899,-846.25 899,-846.25"/>
<polygon fill="black" stroke="black" points="902.5,-846.25 899,-836.25 895.5,-846.251 902.5,-846.25"/>
</g>
<!-- 5336250277280352593 -->
<g id="node2" class="node"><title>5336250277280352593</title>
<g id="a_node2"><a xlink:title="Time window used to apply gear change filters [s].">
<path fill="cyan" stroke="black" d="M1222,-920C1222,-920 1066,-920 1066,-920 1060,-920 1054,-914 1054,-908 1054,-908 1054,-884 1054,-884 1054,-878 1060,-872 1066,-872 1066,-872 1222,-872 1222,-872 1228,-872 1234,-878 1234,-884 1234,-884 1234,-908 1234,-908 1234,-914 1228,-920 1222,-920"/>
<text text-anchor="start" x="1064" y="-902.8" font-family="Times New Roman,serif" font-size="14.00">change_gear_window_width</text>
<polygon fill="none" stroke="black" points="1062,-876 1062,-897 1158,-897 1158,-876 1062,-876"/>
<text text-anchor="start" x="1109" y="-882.8" font-family="Times New Roman,serif" font-size="14.00">default=</text>
<polygon fill="none" stroke="black" points="1158,-876 1158,-897 1226,-897 1226,-876 1158,-876"/>
<text text-anchor="start" x="1161" y="-882.8" font-family="Times New Roman,serif" font-size="14.00">4.0</text>
</a>
</g>
</g>
<!-- 5336250277280352593&#45;&gt;8169825034403301710 -->
<g id="edge2" class="edge"><title>5336250277280352593&#45;&gt;8169825034403301710</title>
<path fill="none" stroke="black" d="M1065.5,-871.91C1065.5,-851.661 1065.5,-826 1065.5,-826 1065.5,-826 981.332,-826 981.332,-826"/>
<polygon fill="black" stroke="black" points="981.332,-822.5 971.332,-826 981.332,-829.5 981.332,-822.5"/>
</g>
<!-- 8098376436667938382 -->
<g id="node3" class="node"><title>8098376436667938382</title>
<g id="a_node3"><a xlink:href="./Wheel%20model/co2mpas.dispatcher.utils.dspbypass.txt" xlink:title="Returns the same arguments.">
<polygon fill="springgreen" stroke="black" points="972,-524 912,-524 912,-488 972,-488 972,-524"/>
<text text-anchor="start" x="922" y="-501.8" font-family="Times New Roman,serif" font-size="14.00">bypass</text>
</a>
</g>
</g>
<!-- 4265334911799283412 -->
<g id="node32" class="node"><title>4265334911799283412</title>
<g id="a_node32"><a xlink:title="Power at the wheels [kW].">
<path fill="cyan" stroke="black" d="M1002,-452C1002,-452 924,-452 924,-452 918,-452 912,-446 912,-440 912,-440 912,-428 912,-428 912,-422 918,-416 924,-416 924,-416 1002,-416 1002,-416 1008,-416 1014,-422 1014,-428 1014,-428 1014,-440 1014,-440 1014,-446 1008,-452 1002,-452"/>
<text text-anchor="start" x="922.5" y="-429.8" font-family="Times New Roman,serif" font-size="14.00">wheel_powers</text>
</a>
</g>
</g>
<!-- 8098376436667938382&#45;&gt;4265334911799283412 -->
<g id="edge3" class="edge"><title>8098376436667938382&#45;&gt;4265334911799283412</title>
<path fill="none" stroke="black" d="M942,-487.831C942,-487.831 942,-462.413 942,-462.413"/>
<polygon fill="black" stroke="black" points="945.5,-462.413 942,-452.413 938.5,-462.413 945.5,-462.413"/>
</g>
<!-- &#45;8133458596870071772 -->
<g id="node4" class="node"><title>&#45;8133458596870071772</title>
<g id="a_node4"><a xlink:href="./Wheel%20model/co2mpas.model.physical.wheelscalculate_r_dynamic.txt" xlink:title="Calculates the dynamic radius of the wheels [m].">
<polygon fill="springgreen" stroke="black" points="854,-59 718,-59 718,-23 854,-23 854,-59"/>
<text text-anchor="start" x="728.5" y="-36.8" font-family="Times New Roman,serif" font-size="14.00">calculate_r_dynamic</text>
</a>
</g>
</g>
<!-- 2855877872949932050 -->
<g id="node23" class="node"><title>2855877872949932050</title>
<g id="a_node23"><a xlink:title="Dynamic radius of the wheels [m].">
<path fill="cyan" stroke="black" d="M669,-752C669,-752 613,-752 613,-752 607,-752 601,-746 601,-740 601,-740 601,-728 601,-728 601,-722 607,-716 613,-716 613,-716 669,-716 669,-716 675,-716 681,-722 681,-728 681,-728 681,-740 681,-740 681,-746 675,-752 669,-752"/>
<text text-anchor="start" x="611" y="-729.8" font-family="Times New Roman,serif" font-size="14.00">r_dynamic</text>
</a>
</g>
</g>
<!-- &#45;8133458596870071772&#45;&gt;2855877872949932050 -->
<g id="edge4" class="edge"><title>&#45;8133458596870071772&#45;&gt;2855877872949932050</title>
<path fill="none" stroke="black" d="M806.5,-59.2953C806.5,-168.071 806.5,-725 806.5,-725 806.5,-725 691.063,-725 691.063,-725"/>
<polygon fill="black" stroke="black" points="691.063,-721.5 681.063,-725 691.063,-728.5 691.063,-721.5"/>
</g>
<!-- &#45;2425025618165759793 -->
<g id="node5" class="node"><title>&#45;2425025618165759793</title>
<g id="a_node5"><a xlink:href="./Wheel%20model/co2mpas.model.physical.wheelscalculate_r_wheels.txt" xlink:title="Calculates the radius of the wheels [m] from the tyre dimensions.">
<polygon fill="springgreen" stroke="black" points="787,-380 661,-380 661,-344 787,-344 787,-380"/>
<text text-anchor="start" x="671" y="-357.8" font-family="Times New Roman,serif" font-size="14.00">calculate_r_wheels</text>
</a>
</g>
</g>
<!-- &#45;6958772390179552731 -->
<g id="node24" class="node"><title>&#45;6958772390179552731</title>
<g id="a_node24"><a xlink:title="Radius of the wheels [m].">
<path fill="cyan" stroke="black" d="M780,-308C780,-308 734,-308 734,-308 728,-308 722,-302 722,-296 722,-296 722,-284 722,-284 722,-278 728,-272 734,-272 734,-272 780,-272 780,-272 786,-272 792,-278 792,-284 792,-284 792,-296 792,-296 792,-302 786,-308 780,-308"/>
<text text-anchor="start" x="732" y="-285.8" font-family="Times New Roman,serif" font-size="14.00">r_wheels</text>
</a>
</g>
</g>
<!-- &#45;2425025618165759793&#45;&gt;&#45;6958772390179552731 -->
<g id="edge5" class="edge"><title>&#45;2425025618165759793&#45;&gt;&#45;6958772390179552731</title>
<path fill="none" stroke="black" d="M754.5,-343.831C754.5,-343.831 754.5,-318.413 754.5,-318.413"/>
<polygon fill="black" stroke="black" points="758,-318.413 754.5,-308.413 751,-318.413 758,-318.413"/>
</g>
<!-- 2112108384676229004 -->
<g id="node6" class="node"><title>2112108384676229004</title>
<g id="a_node6"><a xlink:href="./Wheel%20model/co2mpas.model.physical.wheelscalculate_tyre_dimensions.txt" xlink:title="Calculates the tyre dimensions from the tyre code.">
<polygon fill="springgreen" stroke="black" points="780,-524 612,-524 612,-488 780,-488 780,-524"/>
<text text-anchor="start" x="622" y="-501.8" font-family="Times New Roman,serif" font-size="14.00">calculate_tyre_dimensions</text>
</a>
</g>
</g>
<!-- &#45;7900771477228139136 -->
<g id="node28" class="node"><title>&#45;7900771477228139136</title>
<g id="a_node28"><a xlink:title="Tyre dimensions.">
<path fill="cyan" stroke="black" d="M740,-452C740,-452 652,-452 652,-452 646,-452 640,-446 640,-440 640,-440 640,-428 640,-428 640,-422 646,-416 652,-416 652,-416 740,-416 740,-416 746,-416 752,-422 752,-428 752,-428 752,-440 752,-440 752,-446 746,-452 740,-452"/>
<text text-anchor="start" x="650" y="-429.8" font-family="Times New Roman,serif" font-size="14.00">tyre_dimensions</text>
</a>
</g>
</g>
<!-- 2112108384676229004&#45;&gt;&#45;7900771477228139136 -->
<g id="edge6" class="edge"><title>2112108384676229004&#45;&gt;&#45;7900771477228139136</title>
<path fill="none" stroke="black" d="M696,-487.831C696,-487.831 696,-462.413 696,-462.413"/>
<polygon fill="black" stroke="black" points="699.5,-462.413 696,-452.413 692.5,-462.413 699.5,-462.413"/>
</g>
<!-- &#45;3822542323593959402 -->
<g id="node7" class="node"><title>&#45;3822542323593959402</title>
<g id="a_node7"><a xlink:href="./Wheel%20model/co2mpas.model.physical.wheelscalculate_wheel_powers.txt" xlink:title="Calculates power at the wheels [kW].">
<polygon fill="springgreen" stroke="black" points="1146,-524 990,-524 990,-488 1146,-488 1146,-524"/>
<text text-anchor="start" x="1000" y="-501.8" font-family="Times New Roman,serif" font-size="14.00">calculate_wheel_powers</text>
</a>
</g>
</g>
<!-- &#45;3822542323593959402&#45;&gt;4265334911799283412 -->
<g id="edge7" class="edge"><title>&#45;3822542323593959402&#45;&gt;4265334911799283412</title>
<path fill="none" stroke="black" d="M1002,-487.831C1002,-487.831 1002,-462.413 1002,-462.413"/>
<polygon fill="black" stroke="black" points="1005.5,-462.413 1002,-452.413 998.5,-462.413 1005.5,-462.413"/>
</g>
<!-- 2725884252126388092 -->
<g id="node8" class="node"><title>2725884252126388092</title>
<g id="a_node8"><a xlink:href="./Wheel%20model/co2mpas.model.physical.wheelscalculate_wheel_speeds.txt" xlink:title="Calculates rotating speed of the wheels [RPM].">
<polygon fill="springgreen" stroke="black" points="1077,-674 923,-674 923,-638 1077,-638 1077,-674"/>
<text text-anchor="start" x="933" y="-651.8" font-family="Times New Roman,serif" font-size="14.00">calculate_wheel_speeds</text>
</a>
</g>
</g>
<!-- 5436702292339844777 -->
<g id="node33" class="node"><title>5436702292339844777</title>
<g id="a_node33"><a xlink:title="Rotating speed of the wheel [RPM].">
<path fill="cyan" stroke="black" d="M1095,-596C1095,-596 1019,-596 1019,-596 1013,-596 1007,-590 1007,-584 1007,-584 1007,-572 1007,-572 1007,-566 1013,-560 1019,-560 1019,-560 1095,-560 1095,-560 1101,-560 1107,-566 1107,-572 1107,-572 1107,-584 1107,-584 1107,-590 1101,-596 1095,-596"/>
<text text-anchor="start" x="1017.5" y="-573.8" font-family="Times New Roman,serif" font-size="14.00">wheel_speeds</text>
</a>
</g>
</g>
<!-- 2725884252126388092&#45;&gt;5436702292339844777 -->
<g id="edge8" class="edge"><title>2725884252126388092&#45;&gt;5436702292339844777</title>
<path fill="none" stroke="black" d="M1042,-637.909C1042,-637.909 1042,-606.263 1042,-606.263"/>
<polygon fill="black" stroke="black" points="1045.5,-606.263 1042,-596.263 1038.5,-606.263 1045.5,-606.263"/>
</g>
<!-- &#45;1226440015792347640 -->
<g id="node9" class="node"><title>&#45;1226440015792347640</title>
<g id="a_node9"><a xlink:href="./Wheel%20model/co2mpas.model.physical.wheelscalculate_wheel_torques.txt" xlink:title="Calculates torque at the wheels [N*m].">
<polygon fill="springgreen" stroke="black" points="1040,-380 882,-380 882,-344 1040,-344 1040,-380"/>
<text text-anchor="start" x="892.5" y="-357.8" font-family="Times New Roman,serif" font-size="14.00">calculate_wheel_torques</text>
</a>
</g>
</g>
<!-- 6946978649088081256 -->
<g id="node34" class="node"><title>6946978649088081256</title>
<g id="a_node34"><a xlink:title="Torque at the wheel [N*m].">
<path fill="cyan" stroke="black" d="M1053,-308C1053,-308 975,-308 975,-308 969,-308 963,-302 963,-296 963,-296 963,-284 963,-284 963,-278 969,-272 975,-272 975,-272 1053,-272 1053,-272 1059,-272 1065,-278 1065,-284 1065,-284 1065,-296 1065,-296 1065,-302 1059,-308 1053,-308"/>
<text text-anchor="start" x="973" y="-285.8" font-family="Times New Roman,serif" font-size="14.00">wheel_torques</text>
</a>
</g>
</g>
<!-- &#45;1226440015792347640&#45;&gt;6946978649088081256 -->
<g id="edge9" class="edge"><title>&#45;1226440015792347640&#45;&gt;6946978649088081256</title>
<path fill="none" stroke="black" d="M1001.5,-343.831C1001.5,-343.831 1001.5,-318.413 1001.5,-318.413"/>
<polygon fill="black" stroke="black" points="1005,-318.413 1001.5,-308.413 998,-318.413 1005,-318.413"/>
</g>
<!-- 3691077626194248443 -->
<g id="node10" class="node"><title>3691077626194248443</title>
<g id="a_node10"><a xlink:href="./Wheel%20model/co2mpas.model.physical.wheelsdefault_tyre_code.txt" xlink:title="Return one of the most popular tyre code according to the r dynamic.">
<polygon fill="springgreen" stroke="black" points="702,-680 580,-680 580,-632 702,-632 702,-680"/>
<text text-anchor="start" x="590" y="-662.8" font-family="Times New Roman,serif" font-size="14.00">default_tyre_code</text>
<polygon fill="none" stroke="black" points="588,-636 588,-657 660,-657 660,-636 588,-636"/>
<text text-anchor="start" x="612" y="-642.8" font-family="Times New Roman,serif" font-size="14.00">weight=</text>
<polygon fill="none" stroke="black" points="660,-636 660,-657 694,-657 694,-636 660,-636"/>
<text text-anchor="start" x="663" y="-642.8" font-family="Times New Roman,serif" font-size="14.00">5</text>
</a>
</g>
</g>
<!-- &#45;8410037120583442267 -->
<g id="node27" class="node"><title>&#45;8410037120583442267</title>
<g id="a_node27"><a xlink:title="Tyre code (e.g.,P225/70R14).">
<path fill="cyan" stroke="black" d="M668,-596C668,-596 614,-596 614,-596 608,-596 602,-590 602,-584 602,-584 602,-572 602,-572 602,-566 608,-560 614,-560 614,-560 668,-560 668,-560 674,-560 680,-566 680,-572 680,-572 680,-584 680,-584 680,-590 674,-596 668,-596"/>
<text text-anchor="start" x="612.5" y="-573.8" font-family="Times New Roman,serif" font-size="14.00">tyre_code</text>
</a>
</g>
</g>
<!-- 3691077626194248443&#45;&gt;&#45;8410037120583442267 -->
<g id="edge10" class="edge"><title>3691077626194248443&#45;&gt;&#45;8410037120583442267</title>
<path fill="none" stroke="black" d="M641,-631.748C641,-631.748 641,-606.288 641,-606.288"/>
<polygon fill="black" stroke="black" points="644.5,-606.287 641,-596.288 637.5,-606.288 644.5,-606.287"/>
</g>
<!-- &#45;3533790554034877312 -->
<g id="node11" class="node"><title>&#45;3533790554034877312</title>
<g id="a_node11"><a xlink:href="./Wheel%20model/co2mpas.model.physical.wheelsdefine_tyre_code.txt" xlink:title="Returns the tyre code from the tyre dimensions.">
<polygon fill="springgreen" stroke="black" points="643,-380 525,-380 525,-344 643,-344 643,-380"/>
<text text-anchor="start" x="535" y="-357.8" font-family="Times New Roman,serif" font-size="14.00">define_tyre_code</text>
</a>
</g>
</g>
<!-- &#45;3533790554034877312&#45;&gt;&#45;8410037120583442267 -->
<g id="edge11" class="edge"><title>&#45;3533790554034877312&#45;&gt;&#45;8410037120583442267</title>
<path fill="none" stroke="black" d="M607,-380.045C607,-380.045 607,-549.855 607,-549.855"/>
<polygon fill="black" stroke="black" points="603.5,-549.855 607,-559.855 610.5,-549.855 603.5,-549.855"/>
</g>
<!-- &#45;7460222912313512932 -->
<g id="node12" class="node"><title>&#45;7460222912313512932</title>
<g id="a_node12"><a xlink:href="./Wheel%20model/co2mpas.model.physical.wheelsidentify_r_dynamic.txt" xlink:title="Identifies the dynamic radius of the wheels [m].">
<polygon fill="springgreen" stroke="black" points="374,-830 244,-830 244,-794 374,-794 374,-830"/>
<text text-anchor="start" x="254.5" y="-807.8" font-family="Times New Roman,serif" font-size="14.00">identify_r_dynamic</text>
</a>
</g>
</g>
<!-- &#45;7460222912313512932&#45;&gt;2855877872949932050 -->
<g id="edge12" class="edge"><title>&#45;7460222912313512932&#45;&gt;2855877872949932050</title>
<path fill="none" stroke="black" d="M309,-793.831C309,-772.502 309,-740 309,-740 309,-740 590.953,-740 590.953,-740"/>
<polygon fill="black" stroke="black" points="590.953,-743.5 600.953,-740 590.953,-736.5 590.953,-743.5"/>
</g>
<!-- 8791732617949976591 -->
<g id="node13" class="node"><title>8791732617949976591</title>
<g id="a_node13"><a xlink:href="./Wheel%20model/co2mpas.model.physical.wheelsidentify_r_dynamic_v1.txt" xlink:title="Identifies the dynamic radius of the wheels [m].">
<polygon fill="springgreen" stroke="black" points="633,-836 483,-836 483,-788 633,-788 633,-836"/>
<text text-anchor="start" x="493" y="-818.8" font-family="Times New Roman,serif" font-size="14.00">identify_r_dynamic_v1</text>
<polygon fill="none" stroke="black" points="491,-792 491,-813 573,-813 573,-792 491,-792"/>
<text text-anchor="start" x="525" y="-798.8" font-family="Times New Roman,serif" font-size="14.00">weight=</text>
<polygon fill="none" stroke="black" points="573,-792 573,-813 625,-813 625,-792 573,-792"/>
<text text-anchor="start" x="576" y="-798.8" font-family="Times New Roman,serif" font-size="14.00">10</text>
</a>
</g>
</g>
<!-- 8791732617949976591&#45;&gt;2855877872949932050 -->
<g id="edge13" class="edge"><title>8791732617949976591&#45;&gt;2855877872949932050</title>
<path fill="none" stroke="black" d="M617,-787.748C617,-787.748 617,-762.288 617,-762.288"/>
<polygon fill="black" stroke="black" points="620.5,-762.287 617,-752.288 613.5,-762.288 620.5,-762.287"/>
</g>
<!-- 8169825034403301710&#45;&gt;2855877872949932050 -->
<g id="edge14" class="edge"><title>8169825034403301710&#45;&gt;2855877872949932050</title>
<path fill="none" stroke="black" d="M832,-787.867C832,-767.97 832,-743 832,-743 832,-743 691.04,-743 691.04,-743"/>
<polygon fill="black" stroke="black" points="691.04,-739.5 681.04,-743 691.04,-746.5 691.04,-739.5"/>
</g>
<!-- &#45;5189711838589110315 -->
<g id="node15" class="node"><title>&#45;5189711838589110315</title>
<g id="a_node15"><a xlink:href="./Wheel%20model/co2mpas.model.physical.wheelsidentify_tyre_dynamic_rolling_coefficient.txt" xlink:title="Identifies the dynamic rolling coefficient [&#45;].">
<polygon fill="springgreen" stroke="black" points="758,-236 504,-236 504,-200 758,-200 758,-236"/>
<text text-anchor="start" x="514.5" y="-213.8" font-family="Times New Roman,serif" font-size="14.00">identify_tyre_dynamic_rolling_coefficient</text>
</a>
</g>
</g>
<!-- &#45;1827130348584404111 -->
<g id="node29" class="node"><title>&#45;1827130348584404111</title>
<g id="a_node29"><a xlink:title="Dynamic rolling coefficient [&#45;].">
<path fill="cyan" stroke="black" d="M736,-164C736,-164 548,-164 548,-164 542,-164 536,-158 536,-152 536,-152 536,-107 536,-107 536,-101 542,-95 548,-95 548,-95 736,-95 736,-95 742,-95 748,-101 748,-107 748,-107 748,-152 748,-152 748,-158 742,-164 736,-164"/>
<text text-anchor="start" x="550" y="-146.3" font-family="Times New Roman,serif" font-size="14.00">tyre_dynamic_rolling_coefficient</text>
<polygon fill="none" stroke="black" points="544,-119.5 544,-140.5 615,-140.5 615,-119.5 544,-119.5"/>
<text text-anchor="start" x="566" y="-126.3" font-family="Times New Roman,serif" font-size="14.00">default=</text>
<polygon fill="none" stroke="black" points="615,-119.5 615,-140.5 740,-140.5 740,-119.5 615,-119.5"/>
<text text-anchor="start" x="618" y="-126.3" font-family="Times New Roman,serif" font-size="14.00">0.9713375796178343</text>
<polygon fill="none" stroke="black" points="544,-98.5 544,-119.5 615,-119.5 615,-98.5 544,-98.5"/>
<text text-anchor="start" x="547" y="-105.3" font-family="Times New Roman,serif" font-size="14.00">initial_dist=</text>
<polygon fill="none" stroke="black" points="615,-98.5 615,-119.5 740,-119.5 740,-98.5 615,-98.5"/>
<text text-anchor="start" x="618" y="-105.3" font-family="Times New Roman,serif" font-size="14.00">50</text>
</a>
</g>
</g>
<!-- &#45;5189711838589110315&#45;&gt;&#45;1827130348584404111 -->
<g id="edge15" class="edge"><title>&#45;5189711838589110315&#45;&gt;&#45;1827130348584404111</title>
<path fill="none" stroke="black" d="M642,-199.663C642,-199.663 642,-174.269 642,-174.269"/>
<polygon fill="black" stroke="black" points="645.5,-174.269 642,-164.269 638.5,-174.269 645.5,-174.269"/>
</g>
<!-- &#45;3904256270299959966 -->
<g id="node16" class="node"><title>&#45;3904256270299959966</title>
<g id="a_node16"><a xlink:title="Engine speed [RPM].">
<path fill="cyan" stroke="black" d="M610,-914C610,-914 506,-914 506,-914 500,-914 494,-908 494,-902 494,-902 494,-890 494,-890 494,-884 500,-878 506,-878 506,-878 610,-878 610,-878 616,-878 622,-884 622,-890 622,-890 622,-902 622,-902 622,-908 616,-914 610,-914"/>
<text text-anchor="start" x="504" y="-891.8" font-family="Times New Roman,serif" font-size="14.00">engine_speeds_out</text>
</a>
</g>
</g>
<!-- &#45;3904256270299959966&#45;&gt;8791732617949976591 -->
<g id="edge16" class="edge"><title>&#45;3904256270299959966&#45;&gt;8791732617949976591</title>
<path fill="none" stroke="black" d="M558,-877.773C558,-877.773 558,-846.25 558,-846.25"/>
<polygon fill="black" stroke="black" points="561.5,-846.25 558,-836.25 554.5,-846.251 561.5,-846.25"/>
</g>
<!-- &#45;3904256270299959966&#45;&gt;8169825034403301710 -->
<g id="edge17" class="edge"><title>&#45;3904256270299959966&#45;&gt;8169825034403301710</title>
<path fill="none" stroke="black" d="M622.306,-902C630.862,-902 636.75,-902 636.75,-902 636.75,-902 636.75,-812 636.75,-812 636.75,-812 810.666,-812 810.666,-812"/>
<polygon fill="black" stroke="black" points="810.666,-815.5 820.666,-812 810.666,-808.5 810.666,-815.5"/>
</g>
<!-- &#45;3989215812469180633 -->
<g id="node17" class="node"><title>&#45;3989215812469180633</title>
<g id="a_node17"><a xlink:title="Final drive ratio [&#45;].">
<path fill="cyan" stroke="black" d="M464,-914C464,-914 376,-914 376,-914 370,-914 364,-908 364,-902 364,-902 364,-890 364,-890 364,-884 370,-878 376,-878 376,-878 464,-878 464,-878 470,-878 476,-884 476,-890 476,-890 476,-902 476,-902 476,-908 470,-914 464,-914"/>
<text text-anchor="start" x="374.5" y="-891.8" font-family="Times New Roman,serif" font-size="14.00">final_drive_ratio</text>
</a>
</g>
</g>
<!-- &#45;3989215812469180633&#45;&gt;&#45;7460222912313512932 -->
<g id="edge18" class="edge"><title>&#45;3989215812469180633&#45;&gt;&#45;7460222912313512932</title>
<path fill="none" stroke="black" d="M369,-877.773C369,-877.773 369,-840.191 369,-840.191"/>
<polygon fill="black" stroke="black" points="372.5,-840.191 369,-830.191 365.5,-840.191 372.5,-840.191"/>
</g>
<!-- &#45;3989215812469180633&#45;&gt;8791732617949976591 -->
<g id="edge19" class="edge"><title>&#45;3989215812469180633&#45;&gt;8791732617949976591</title>
<path fill="none" stroke="black" d="M476.14,-896C484.97,-896 491.25,-896 491.25,-896 491.25,-896 491.25,-846.296 491.25,-846.296"/>
<polygon fill="black" stroke="black" points="494.75,-846.296 491.25,-836.296 487.75,-846.296 494.75,-846.296"/>
</g>
<!-- &#45;3989215812469180633&#45;&gt;8169825034403301710 -->
<g id="edge20" class="edge"><title>&#45;3989215812469180633&#45;&gt;8169825034403301710</title>
<path fill="none" stroke="black" d="M425,-877.857C425,-871.539 425,-866 425,-866 425,-866 827.25,-866 827.25,-866 827.25,-866 827.25,-846.157 827.25,-846.157"/>
<polygon fill="black" stroke="black" points="830.75,-846.157 827.25,-836.157 823.75,-846.157 830.75,-846.157"/>
</g>
<!-- &#45;9126591676917095117 -->
<g id="node18" class="node"><title>&#45;9126591676917095117</title>
<g id="a_node18"><a xlink:title="Gear box ratios [&#45;].">
<path fill="cyan" stroke="black" d="M262,-914C262,-914 174,-914 174,-914 168,-914 162,-908 162,-902 162,-902 162,-890 162,-890 162,-884 168,-878 174,-878 174,-878 262,-878 262,-878 268,-878 274,-884 274,-890 274,-890 274,-902 274,-902 274,-908 268,-914 262,-914"/>
<text text-anchor="start" x="172.5" y="-891.8" font-family="Times New Roman,serif" font-size="14.00">gear_box_ratios</text>
</a>
</g>
</g>
<!-- &#45;9126591676917095117&#45;&gt;&#45;7460222912313512932 -->
<g id="edge21" class="edge"><title>&#45;9126591676917095117&#45;&gt;&#45;7460222912313512932</title>
<path fill="none" stroke="black" d="M251.5,-877.773C251.5,-877.773 251.5,-840.191 251.5,-840.191"/>
<polygon fill="black" stroke="black" points="255,-840.191 251.5,-830.191 248,-840.191 255,-840.191"/>
</g>
<!-- &#45;9126591676917095117&#45;&gt;8791732617949976591 -->
<g id="edge22" class="edge"><title>&#45;9126591676917095117&#45;&gt;8791732617949976591</title>
<path fill="none" stroke="black" d="M259,-877.718C259,-862.052 259,-842 259,-842 259,-842 485.75,-842 485.75,-842 485.75,-842 485.75,-841.422 485.75,-841.422"/>
<polygon fill="black" stroke="black" points="489.25,-846.216 485.75,-836.216 482.25,-846.216 489.25,-846.216"/>
</g>
<!-- &#45;9126591676917095117&#45;&gt;8169825034403301710 -->
<g id="edge23" class="edge"><title>&#45;9126591676917095117&#45;&gt;8169825034403301710</title>
<path fill="none" stroke="black" d="M266.5,-877.578C266.5,-868.721 266.5,-860 266.5,-860 266.5,-860 824.125,-860 824.125,-860 824.125,-860 824.125,-846.281 824.125,-846.281"/>
<polygon fill="black" stroke="black" points="827.625,-846.281 824.125,-836.281 820.625,-846.281 827.625,-846.281"/>
</g>
<!-- 5823726384603252559 -->
<g id="node19" class="node"><title>5823726384603252559</title>
<g id="a_node19"><a xlink:title="Gear vector [&#45;].">
<path fill="cyan" stroke="black" d="M334,-914C334,-914 304,-914 304,-914 298,-914 292,-908 292,-902 292,-902 292,-890 292,-890 292,-884 298,-878 304,-878 304,-878 334,-878 334,-878 340,-878 346,-884 346,-890 346,-890 346,-902 346,-902 346,-908 340,-914 334,-914"/>
<text text-anchor="start" x="304" y="-891.8" font-family="Times New Roman,serif" font-size="14.00">gears</text>
</a>
</g>
</g>
<!-- 5823726384603252559&#45;&gt;8791732617949976591 -->
<g id="edge24" class="edge"><title>5823726384603252559&#45;&gt;8791732617949976591</title>
<path fill="none" stroke="black" d="M319,-877.853C319,-864.26 319,-848 319,-848 319,-848 488.5,-848 488.5,-848 488.5,-848 488.5,-846.212 488.5,-846.212"/>
<polygon fill="black" stroke="black" points="492,-846.212 488.5,-836.212 485,-846.212 492,-846.212"/>
</g>
<!-- &#45;3009578804924602371 -->
<g id="node20" class="node"><title>&#45;3009578804924602371</title>
<g id="a_node20"><a xlink:title="Engine speed idle median and std [RPM].">
<path fill="cyan" stroke="black" d="M1364,-914C1364,-914 1264,-914 1264,-914 1258,-914 1252,-908 1252,-902 1252,-902 1252,-890 1252,-890 1252,-884 1258,-878 1264,-878 1264,-878 1364,-878 1364,-878 1370,-878 1376,-884 1376,-890 1376,-890 1376,-902 1376,-902 1376,-908 1370,-914 1364,-914"/>
<text text-anchor="start" x="1262.5" y="-891.8" font-family="Times New Roman,serif" font-size="14.00">idle_engine_speed</text>
</a>
</g>
</g>
<!-- &#45;3009578804924602371&#45;&gt;8169825034403301710 -->
<g id="edge25" class="edge"><title>&#45;3009578804924602371&#45;&gt;8169825034403301710</title>
<path fill="none" stroke="black" d="M1314,-877.847C1314,-854.243 1314,-816 1314,-816 1314,-816 981.213,-816 981.213,-816"/>
<polygon fill="black" stroke="black" points="981.213,-812.5 971.213,-816 981.213,-819.5 981.213,-812.5"/>
</g>
<!-- &#45;1694690716081511724 -->
<g id="node21" class="node"><title>&#45;1694690716081511724</title>
<g id="a_node21"><a xlink:title="motive_powers">
<path fill="cyan" stroke="black" d="M977,-596C977,-596 893,-596 893,-596 887,-596 881,-590 881,-584 881,-584 881,-572 881,-572 881,-566 887,-560 893,-560 893,-560 977,-560 977,-560 983,-560 989,-566 989,-572 989,-572 989,-584 989,-584 989,-590 983,-596 977,-596"/>
<text text-anchor="start" x="891.5" y="-573.8" font-family="Times New Roman,serif" font-size="14.00">motive_powers</text>
</a>
</g>
</g>
<!-- &#45;1694690716081511724&#45;&gt;8098376436667938382 -->
<g id="edge26" class="edge"><title>&#45;1694690716081511724&#45;&gt;8098376436667938382</title>
<path fill="none" stroke="black" d="M942,-559.831C942,-559.831 942,-534.413 942,-534.413"/>
<polygon fill="black" stroke="black" points="945.5,-534.413 942,-524.413 938.5,-534.413 945.5,-534.413"/>
</g>
<!-- &#45;3007001203767642810 -->
<g id="node22" class="node"><title>&#45;3007001203767642810</title>
<g id="a_node22"><a xlink:title="Maximum acceleration to be at constant velocity [m/s2].">
<path fill="cyan" stroke="black" d="M1582,-920C1582,-920 1406,-920 1406,-920 1400,-920 1394,-914 1394,-908 1394,-908 1394,-884 1394,-884 1394,-878 1400,-872 1406,-872 1406,-872 1582,-872 1582,-872 1588,-872 1594,-878 1594,-884 1594,-884 1594,-908 1594,-908 1594,-914 1588,-920 1582,-920"/>
<text text-anchor="start" x="1437.5" y="-902.8" font-family="Times New Roman,serif" font-size="14.00">plateau_acceleration</text>
<polygon fill="none" stroke="black" points="1402,-876 1402,-897 1454,-897 1454,-876 1402,-876"/>
<text text-anchor="start" x="1405" y="-882.8" font-family="Times New Roman,serif" font-size="14.00">default=</text>
<polygon fill="none" stroke="black" points="1454,-876 1454,-897 1586,-897 1586,-876 1454,-876"/>
<text text-anchor="start" x="1457" y="-882.8" font-family="Times New Roman,serif" font-size="14.00">0.10000011920928956</text>
</a>
</g>
</g>
<!-- &#45;3007001203767642810&#45;&gt;8169825034403301710 -->
<g id="edge27" class="edge"><title>&#45;3007001203767642810&#45;&gt;8169825034403301710</title>
<path fill="none" stroke="black" d="M1494,-871.68C1494,-845.329 1494,-807 1494,-807 1494,-807 981.132,-807 981.132,-807"/>
<polygon fill="black" stroke="black" points="981.132,-803.5 971.132,-807 981.132,-810.5 981.132,-803.5"/>
</g>
<!-- 2855877872949932050&#45;&gt;2725884252126388092 -->
<g id="edge28" class="edge"><title>2855877872949932050&#45;&gt;2725884252126388092</title>
<path fill="none" stroke="black" d="M681.004,-734C763.949,-734 947,-734 947,-734 947,-734 947,-684.091 947,-684.091"/>
<polygon fill="black" stroke="black" points="950.5,-684.091 947,-674.091 943.5,-684.091 950.5,-684.091"/>
</g>
<!-- 2855877872949932050&#45;&gt;3691077626194248443 -->
<g id="edge29" class="edge"><title>2855877872949932050&#45;&gt;3691077626194248443</title>
<path fill="none" stroke="black" d="M641,-715.909C641,-715.909 641,-690.199 641,-690.199"/>
<polygon fill="black" stroke="black" points="644.5,-690.199 641,-680.199 637.5,-690.199 644.5,-690.199"/>
</g>
<!-- 2855877872949932050&#45;&gt;&#45;5189711838589110315 -->
<g id="edge30" class="edge"><title>2855877872949932050&#45;&gt;&#45;5189711838589110315</title>
<path fill="none" stroke="black" d="M600.975,-728C563.914,-728 514.5,-728 514.5,-728 514.5,-728 514.5,-246.151 514.5,-246.151"/>
<polygon fill="black" stroke="black" points="518,-246.151 514.5,-236.151 511,-246.151 518,-246.151"/>
</g>
<!-- &#45;6958772390179552731&#45;&gt;&#45;8133458596870071772 -->
<g id="edge31" class="edge"><title>&#45;6958772390179552731&#45;&gt;&#45;8133458596870071772</title>
<path fill="none" stroke="black" d="M775,-271.69C775,-271.69 775,-69.0006 775,-69.0006"/>
<polygon fill="black" stroke="black" points="778.5,-69.0005 775,-59.0006 771.5,-69.0006 778.5,-69.0005"/>
</g>
<!-- &#45;6958772390179552731&#45;&gt;8169825034403301710 -->
<g id="edge32" class="edge"><title>&#45;6958772390179552731&#45;&gt;8169825034403301710</title>
<path fill="none" stroke="black" d="M792.476,-290C816.166,-290 843,-290 843,-290 843,-290 843,-777.87 843,-777.87"/>
<polygon fill="black" stroke="black" points="839.5,-777.87 843,-787.87 846.5,-777.87 839.5,-777.87"/>
</g>
<!-- &#45;6958772390179552731&#45;&gt;&#45;5189711838589110315 -->
<g id="edge33" class="edge"><title>&#45;6958772390179552731&#45;&gt;&#45;5189711838589110315</title>
<path fill="none" stroke="black" d="M740,-271.831C740,-271.831 740,-246.413 740,-246.413"/>
<polygon fill="black" stroke="black" points="743.5,-246.413 740,-236.413 736.5,-246.413 743.5,-246.413"/>
</g>
<!-- &#45;3822089204281359213 -->
<g id="node25" class="node"><title>&#45;3822089204281359213</title>
<g id="a_node25"><a xlink:title="Maximum velocity to consider the vehicle stopped [km/h].">
<path fill="cyan" stroke="black" d="M821.5,-920C821.5,-920 652.5,-920 652.5,-920 646.5,-920 640.5,-914 640.5,-908 640.5,-908 640.5,-884 640.5,-884 640.5,-878 646.5,-872 652.5,-872 652.5,-872 821.5,-872 821.5,-872 827.5,-872 833.5,-878 833.5,-884 833.5,-884 833.5,-908 833.5,-908 833.5,-914 827.5,-920 821.5,-920"/>
<text text-anchor="start" x="699.5" y="-902.8" font-family="Times New Roman,serif" font-size="14.00">stop_velocity</text>
<polygon fill="none" stroke="black" points="649,-876 649,-897 701,-897 701,-876 649,-876"/>
<text text-anchor="start" x="652" y="-882.8" font-family="Times New Roman,serif" font-size="14.00">default=</text>
<polygon fill="none" stroke="black" points="701,-876 701,-897 826,-897 826,-876 701,-876"/>
<text text-anchor="start" x="704" y="-882.8" font-family="Times New Roman,serif" font-size="14.00">1.0000001192092896</text>
</a>
</g>
</g>
<!-- &#45;3822089204281359213&#45;&gt;8791732617949976591 -->
<g id="edge34" class="edge"><title>&#45;3822089204281359213&#45;&gt;8791732617949976591</title>
<path fill="none" stroke="black" d="M640.222,-890C631.381,-890 625.667,-890 625.667,-890 625.667,-890 625.667,-846.252 625.667,-846.252"/>
<polygon fill="black" stroke="black" points="629.167,-846.252 625.667,-836.252 622.167,-846.252 629.167,-846.252"/>
</g>
<!-- &#45;3822089204281359213&#45;&gt;8169825034403301710 -->
<g id="edge35" class="edge"><title>&#45;3822089204281359213&#45;&gt;8169825034403301710</title>
<path fill="none" stroke="black" d="M830.375,-871.704C830.375,-871.704 830.375,-846.242 830.375,-846.242"/>
<polygon fill="black" stroke="black" points="833.875,-846.242 830.375,-836.242 826.875,-846.242 833.875,-846.242"/>
</g>
<!-- &#45;1825562924159530342 -->
<g id="node26" class="node"><title>&#45;1825562924159530342</title>
<g id="a_node26"><a xlink:title="Time vector [s].">
<path fill="cyan" stroke="black" d="M1654,-914C1654,-914 1624,-914 1624,-914 1618,-914 1612,-908 1612,-902 1612,-902 1612,-890 1612,-890 1612,-884 1618,-878 1624,-878 1624,-878 1654,-878 1654,-878 1660,-878 1666,-884 1666,-890 1666,-890 1666,-902 1666,-902 1666,-908 1660,-914 1654,-914"/>
<text text-anchor="start" x="1624" y="-891.8" font-family="Times New Roman,serif" font-size="14.00">times</text>
</a>
</g>
</g>
<!-- &#45;1825562924159530342&#45;&gt;8169825034403301710 -->
<g id="edge36" class="edge"><title>&#45;1825562924159530342&#45;&gt;8169825034403301710</title>
<path fill="none" stroke="black" d="M1639,-877.842C1639,-849.261 1639,-797 1639,-797 1639,-797 981.332,-797 981.332,-797"/>
<polygon fill="black" stroke="black" points="981.332,-793.5 971.332,-797 981.332,-800.5 981.332,-793.5"/>
</g>
<!-- &#45;8410037120583442267&#45;&gt;2112108384676229004 -->
<g id="edge37" class="edge"><title>&#45;8410037120583442267&#45;&gt;2112108384676229004</title>
<path fill="none" stroke="black" d="M646,-559.831C646,-559.831 646,-534.413 646,-534.413"/>
<polygon fill="black" stroke="black" points="649.5,-534.413 646,-524.413 642.5,-534.413 649.5,-534.413"/>
</g>
<!-- &#45;7900771477228139136&#45;&gt;&#45;2425025618165759793 -->
<g id="edge38" class="edge"><title>&#45;7900771477228139136&#45;&gt;&#45;2425025618165759793</title>
<path fill="none" stroke="black" d="M706.5,-415.831C706.5,-415.831 706.5,-390.413 706.5,-390.413"/>
<polygon fill="black" stroke="black" points="710,-390.413 706.5,-380.413 703,-390.413 710,-390.413"/>
</g>
<!-- &#45;7900771477228139136&#45;&gt;&#45;3533790554034877312 -->
<g id="edge39" class="edge"><title>&#45;7900771477228139136&#45;&gt;&#45;3533790554034877312</title>
<path fill="none" stroke="black" d="M652,-415.831C652,-394.502 652,-362 652,-362 652,-362 651.111,-362 651.111,-362"/>
<polygon fill="black" stroke="black" points="653.11,-358.5 643.11,-362 653.11,-365.5 653.11,-358.5"/>
</g>
<!-- &#45;1827130348584404111&#45;&gt;&#45;8133458596870071772 -->
<g id="edge40" class="edge"><title>&#45;1827130348584404111&#45;&gt;&#45;8133458596870071772</title>
<path fill="none" stroke="black" d="M733,-94.7765C733,-94.7765 733,-69.0777 733,-69.0777"/>
<polygon fill="black" stroke="black" points="736.5,-69.0777 733,-59.0777 729.5,-69.0778 736.5,-69.0777"/>
</g>
<!-- 1395676110976739562 -->
<g id="node30" class="node"><title>1395676110976739562</title>
<g id="a_node30"><a xlink:title="Vehicle velocity [km/h].">
<path fill="cyan" stroke="black" d="M1024,-914C1024,-914 976,-914 976,-914 970,-914 964,-908 964,-902 964,-902 964,-890 964,-890 964,-884 970,-878 976,-878 976,-878 1024,-878 1024,-878 1030,-878 1036,-884 1036,-890 1036,-890 1036,-902 1036,-902 1036,-908 1030,-914 1024,-914"/>
<text text-anchor="start" x="974" y="-891.8" font-family="Times New Roman,serif" font-size="14.00">velocities</text>
</a>
</g>
</g>
<!-- 1395676110976739562&#45;&gt;2725884252126388092 -->
<g id="edge41" class="edge"><title>1395676110976739562&#45;&gt;2725884252126388092</title>
<path fill="none" stroke="black" d="M1003.5,-877.961C1003.5,-877.961 1003.5,-684.248 1003.5,-684.248"/>
<polygon fill="black" stroke="black" points="1007,-684.248 1003.5,-674.248 1000,-684.248 1007,-684.248"/>
</g>
<!-- 1395676110976739562&#45;&gt;8791732617949976591 -->
<g id="edge42" class="edge"><title>1395676110976739562&#45;&gt;8791732617949976591</title>
<path fill="none" stroke="black" d="M966.333,-877.944C966.333,-866.561 966.333,-854 966.333,-854 966.333,-854 629.333,-854 629.333,-854 629.333,-854 629.333,-846.432 629.333,-846.432"/>
<polygon fill="black" stroke="black" points="632.833,-846.432 629.333,-836.432 625.833,-846.432 632.833,-846.432"/>
</g>
<!-- 1395676110976739562&#45;&gt;8169825034403301710 -->
<g id="edge43" class="edge"><title>1395676110976739562&#45;&gt;8169825034403301710</title>
<path fill="none" stroke="black" d="M968.667,-877.773C968.667,-877.773 968.667,-846.25 968.667,-846.25"/>
<polygon fill="black" stroke="black" points="972.167,-846.25 968.667,-836.25 965.167,-846.251 972.167,-846.25"/>
</g>
<!-- 5551426227045653540 -->
<g id="node31" class="node"><title>5551426227045653540</title>
<g id="a_node31"><a xlink:title="Constant velocity speed ratios of the gear box [km/(h*RPM)].">
<path fill="cyan" stroke="black" d="M132,-914C132,-914 12,-914 12,-914 6,-914 0,-908 0,-902 0,-902 0,-890 0,-890 0,-884 6,-878 12,-878 12,-878 132,-878 132,-878 138,-878 144,-884 144,-890 144,-890 144,-902 144,-902 144,-908 138,-914 132,-914"/>
<text text-anchor="start" x="10.5" y="-891.8" font-family="Times New Roman,serif" font-size="14.00">velocity_speed_ratios</text>
</a>
</g>
</g>
<!-- 5551426227045653540&#45;&gt;&#45;7460222912313512932 -->
<g id="edge44" class="edge"><title>5551426227045653540&#45;&gt;&#45;7460222912313512932</title>
<path fill="none" stroke="black" d="M72,-877.773C72,-853.068 72,-812 72,-812 72,-812 233.925,-812 233.925,-812"/>
<polygon fill="black" stroke="black" points="233.925,-815.5 243.925,-812 233.925,-808.5 233.925,-815.5"/>
</g>
<!-- 4265334911799283412&#45;&gt;&#45;1226440015792347640 -->
<g id="edge45" class="edge"><title>4265334911799283412&#45;&gt;&#45;1226440015792347640</title>
<path fill="none" stroke="black" d="M963,-415.831C963,-415.831 963,-390.413 963,-390.413"/>
<polygon fill="black" stroke="black" points="966.5,-390.413 963,-380.413 959.5,-390.413 966.5,-390.413"/>
</g>
<!-- 5436702292339844777&#45;&gt;&#45;3822542323593959402 -->
<g id="edge46" class="edge"><title>5436702292339844777&#45;&gt;&#45;3822542323593959402</title>
<path fill="none" stroke="black" d="M1073.67,-559.831C1073.67,-559.831 1073.67,-534.413 1073.67,-534.413"/>
<polygon fill="black" stroke="black" points="1077.17,-534.413 1073.67,-524.413 1070.17,-534.413 1077.17,-534.413"/>
</g>
<!-- 5436702292339844777&#45;&gt;&#45;1226440015792347640 -->
<g id="edge47" class="edge"><title>5436702292339844777&#45;&gt;&#45;1226440015792347640</title>
<path fill="none" stroke="black" d="M1040.33,-559.578C1040.33,-550.721 1040.33,-542 1040.33,-542 1040.33,-542 897,-542 897,-542 897,-542 897,-390.25 897,-390.25"/>
<polygon fill="black" stroke="black" points="900.5,-390.25 897,-380.25 893.5,-390.25 900.5,-390.25"/>
</g>
<!-- 6946978649088081256&#45;&gt;&#45;3822542323593959402 -->
<g id="edge48" class="edge"><title>6946978649088081256&#45;&gt;&#45;3822542323593959402</title>
<path fill="none" stroke="black" d="M1052.5,-308.045C1052.5,-308.045 1052.5,-477.855 1052.5,-477.855"/>
<polygon fill="black" stroke="black" points="1049,-477.855 1052.5,-487.855 1056,-477.855 1049,-477.855"/>
</g>
</g>
</svg>
