<?xml version="1.0" encoding="UTF-8" standalone="no"?>
<!DOCTYPE svg PUBLIC "-//W3C//DTD SVG 1.1//EN"
 "http://www.w3.org/Graphics/SVG/1.1/DTD/svg11.dtd">
<!-- Generated by graphviz version 2.38.0 (20140413.2041)
 -->
<!-- Title: cluster_gspv_model Pages: 1 -->
<svg width="2508pt" height="349pt"
 viewBox="0.00 0.00 2508.00 349.00" xmlns="http://www.w3.org/2000/svg" xmlns:xlink="http://www.w3.org/1999/xlink">
<g id="graph0" class="graph" transform="scale(1 1) rotate(0) translate(4 345)">
<title>cluster_gspv_model</title>
<polygon fill="white" stroke="none" points="-4,4 -4,-345 2504,-345 2504,4 -4,4"/>
<text text-anchor="start" x="1215" y="-7.8" font-family="Times New Roman,serif" font-size="14.00">gspv_model</text>
<!-- cluster_cluster_cluster_cluster_550621390334780039&#45;3079338983303448848506612701516435356&#45;5720292259009206857&#45;4756211150966240656 -->
<g id="node1" class="node"><title>cluster_cluster_cluster_cluster_550621390334780039&#45;3079338983303448848506612701516435356&#45;5720292259009206857&#45;4756211150966240656</title>
<g id="a_node1"><a xlink:title="A gear shifting matrix (cmv or gspv).">
<path fill="cyan" stroke="black" d="M221,-341C221,-341 12,-341 12,-341 6,-341 0,-335 0,-329 0,-329 0,-284 0,-284 0,-278 6,-272 12,-272 12,-272 221,-272 221,-272 227,-272 233,-278 233,-284 233,-284 233,-329 233,-329 233,-335 227,-341 221,-341"/>
<text text-anchor="start" x="98.5" y="-323.3" font-family="Times New Roman,serif" font-size="14.00">GSPV</text>
<polygon fill="none" stroke="black" points="8.5,-296.5 8.5,-317.5 110.5,-317.5 110.5,-296.5 8.5,-296.5"/>
<text text-anchor="start" x="19.5" y="-303.3" font-family="Times New Roman,serif" font-size="14.00">remote child 1=</text>
<polygon fill="none" stroke="black" points="110.5,-296.5 110.5,-317.5 225.5,-317.5 225.5,-296.5 110.5,-296.5"/>
<text text-anchor="start" x="113.5" y="-303.3" font-family="Times New Roman,serif" font-size="14.00">gspv_model:GSPV</text>
<polygon fill="none" stroke="black" points="8.5,-275.5 8.5,-296.5 110.5,-296.5 110.5,-275.5 8.5,-275.5"/>
<text text-anchor="start" x="11.5" y="-282.3" font-family="Times New Roman,serif" font-size="14.00">remote parent 0=</text>
<polygon fill="none" stroke="black" points="110.5,-275.5 110.5,-296.5 225.5,-296.5 225.5,-275.5 110.5,-275.5"/>
<text text-anchor="start" x="113.5" y="-282.3" font-family="Times New Roman,serif" font-size="14.00">gspv_model:GSPV</text>
</a>
</g>
</g>
<!-- cluster_cluster_cluster_cluster_550621390334780039&#45;3079338983303448848506612701516435356&#45;57202922590092068575559161123170238860 -->
<g id="node4" class="node"><title>cluster_cluster_cluster_cluster_550621390334780039&#45;3079338983303448848506612701516435356&#45;57202922590092068575559161123170238860</title>
<g id="a_node4"><a xlink:href="./cmv_model/co2mpas.model.physical.gear_box.at_gearprediction_gears_gsm.txt" xlink:title="Predicts gears with a gear shifting matrix (cmv or gspv) [&#45;].">
<polygon fill="springgreen" stroke="black" points="1345.5,-236 1201.5,-236 1201.5,-200 1345.5,-200 1345.5,-236"/>
<text text-anchor="start" x="1211.5" y="-213.8" font-family="Times New Roman,serif" font-size="14.00">prediction_gears_gsm</text>
</a>
</g>
</g>
<!-- cluster_cluster_cluster_cluster_550621390334780039&#45;3079338983303448848506612701516435356&#45;5720292259009206857&#45;4756211150966240656&#45;&gt;cluster_cluster_cluster_cluster_550621390334780039&#45;3079338983303448848506612701516435356&#45;57202922590092068575559161123170238860 -->
<g id="edge1" class="edge"><title>cluster_cluster_cluster_cluster_550621390334780039&#45;3079338983303448848506612701516435356&#45;5720292259009206857&#45;4756211150966240656&#45;&gt;cluster_cluster_cluster_cluster_550621390334780039&#45;3079338983303448848506612701516435356&#45;57202922590092068575559161123170238860</title>
<path fill="none" stroke="black" d="M233.049,-277C520.032,-277 1237.67,-277 1237.67,-277 1237.67,-277 1237.67,-246.023 1237.67,-246.023"/>
<polygon fill="black" stroke="black" points="1241.17,-246.022 1237.67,-236.023 1234.17,-246.023 1241.17,-246.022"/>
</g>
<!-- cluster_cluster_cluster_cluster_550621390334780039&#45;3079338983303448848506612701516435356&#45;5720292259009206857&#45;6281391710310240799 -->
<g id="node2" class="node"><title>cluster_cluster_cluster_cluster_550621390334780039&#45;3079338983303448848506612701516435356&#45;5720292259009206857&#45;6281391710310240799</title>
<g id="a_node2"><a xlink:title="Vehicle acceleration [m/s2].">
<path fill="cyan" stroke="black" d="M1298,-330.5C1298,-330.5 1053,-330.5 1053,-330.5 1047,-330.5 1041,-324.5 1041,-318.5 1041,-318.5 1041,-294.5 1041,-294.5 1041,-288.5 1047,-282.5 1053,-282.5 1053,-282.5 1298,-282.5 1298,-282.5 1304,-282.5 1310,-288.5 1310,-294.5 1310,-294.5 1310,-318.5 1310,-318.5 1310,-324.5 1304,-330.5 1298,-330.5"/>
<text text-anchor="start" x="1139.5" y="-313.3" font-family="Times New Roman,serif" font-size="14.00">accelerations</text>
<polygon fill="none" stroke="black" points="1049.5,-286.5 1049.5,-307.5 1151.5,-307.5 1151.5,-286.5 1049.5,-286.5"/>
<text text-anchor="start" x="1052.5" y="-293.3" font-family="Times New Roman,serif" font-size="14.00">remote parent 0=</text>
<polygon fill="none" stroke="black" points="1151.5,-286.5 1151.5,-307.5 1302.5,-307.5 1302.5,-286.5 1151.5,-286.5"/>
<text text-anchor="start" x="1154.5" y="-293.3" font-family="Times New Roman,serif" font-size="14.00">gspv_model:accelerations</text>
</a>
</g>
</g>
<!-- cluster_cluster_cluster_cluster_550621390334780039&#45;3079338983303448848506612701516435356&#45;5720292259009206857&#45;6281391710310240799&#45;&gt;cluster_cluster_cluster_cluster_550621390334780039&#45;3079338983303448848506612701516435356&#45;57202922590092068575559161123170238860 -->
<g id="edge2" class="edge"><title>cluster_cluster_cluster_cluster_550621390334780039&#45;3079338983303448848506612701516435356&#45;5720292259009206857&#45;6281391710310240799&#45;&gt;cluster_cluster_cluster_cluster_550621390334780039&#45;3079338983303448848506612701516435356&#45;57202922590092068575559161123170238860</title>
<path fill="none" stroke="black" d="M1273.83,-282.317C1273.83,-282.317 1273.83,-246.257 1273.83,-246.257"/>
<polygon fill="black" stroke="black" points="1277.33,-246.257 1273.83,-236.257 1270.33,-246.257 1277.33,-246.257"/>
</g>
<!-- cluster_cluster_cluster_cluster_550621390334780039&#45;3079338983303448848506612701516435356&#45;5720292259009206857&#45;7520287387281748918 -->
<g id="node3" class="node"><title>cluster_cluster_cluster_cluster_550621390334780039&#45;3079338983303448848506612701516435356&#45;5720292259009206857&#45;7520287387281748918</title>
<g id="a_node3"><a xlink:href="./gspv_model/co2mpas.model.physical.gear_box.at_gearcalibrate_gspv.txt" xlink:title="Identifies gear shifting power velocity matrix.">
<polygon fill="springgreen" stroke="black" points="1843.5,-59 1741.5,-59 1741.5,-23 1843.5,-23 1843.5,-59"/>
<text text-anchor="start" x="1751.5" y="-36.8" font-family="Times New Roman,serif" font-size="14.00">calibrate_gspv</text>
</a>
</g>
</g>
<!-- cluster_cluster_cluster_cluster_550621390334780039&#45;3079338983303448848506612701516435356&#45;5720292259009206857&#45;7520287387281748918&#45;&gt;cluster_cluster_cluster_cluster_550621390334780039&#45;3079338983303448848506612701516435356&#45;5720292259009206857&#45;4756211150966240656 -->
<g id="edge3" class="edge"><title>cluster_cluster_cluster_cluster_550621390334780039&#45;3079338983303448848506612701516435356&#45;5720292259009206857&#45;7520287387281748918&#45;&gt;cluster_cluster_cluster_cluster_550621390334780039&#45;3079338983303448848506612701516435356&#45;5720292259009206857&#45;4756211150966240656</title>
<path fill="none" stroke="black" d="M1741.43,-32C1460.54,-32 116.5,-32 116.5,-32 116.5,-32 116.5,-261.734 116.5,-261.734"/>
<polygon fill="black" stroke="black" points="113,-261.734 116.5,-271.734 120,-261.734 113,-261.734"/>
</g>
<!-- cluster_cluster_cluster_cluster_550621390334780039&#45;3079338983303448848506612701516435356&#45;57202922590092068575823726384603252559 -->
<g id="node8" class="node"><title>cluster_cluster_cluster_cluster_550621390334780039&#45;3079338983303448848506612701516435356&#45;57202922590092068575823726384603252559</title>
<g id="a_node8"><a xlink:title="Gear vector [&#45;].">
<path fill="cyan" stroke="black" d="M1473.5,-164C1473.5,-164 1271.5,-164 1271.5,-164 1265.5,-164 1259.5,-158 1259.5,-152 1259.5,-152 1259.5,-107 1259.5,-107 1259.5,-101 1265.5,-95 1271.5,-95 1271.5,-95 1473.5,-95 1473.5,-95 1479.5,-95 1485.5,-101 1485.5,-107 1485.5,-107 1485.5,-152 1485.5,-152 1485.5,-158 1479.5,-164 1473.5,-164"/>
<text text-anchor="start" x="1357.5" y="-146.3" font-family="Times New Roman,serif" font-size="14.00">gears</text>
<polygon fill="none" stroke="black" points="1267.5,-119.5 1267.5,-140.5 1369.5,-140.5 1369.5,-119.5 1267.5,-119.5"/>
<text text-anchor="start" x="1278.5" y="-126.3" font-family="Times New Roman,serif" font-size="14.00">remote child 1=</text>
<polygon fill="none" stroke="black" points="1369.5,-119.5 1369.5,-140.5 1477.5,-140.5 1477.5,-119.5 1369.5,-119.5"/>
<text text-anchor="start" x="1372.5" y="-126.3" font-family="Times New Roman,serif" font-size="14.00">gspv_model:gears</text>
<polygon fill="none" stroke="black" points="1267.5,-98.5 1267.5,-119.5 1369.5,-119.5 1369.5,-98.5 1267.5,-98.5"/>
<text text-anchor="start" x="1270.5" y="-105.3" font-family="Times New Roman,serif" font-size="14.00">remote parent 0=</text>
<polygon fill="none" stroke="black" points="1369.5,-98.5 1369.5,-119.5 1477.5,-119.5 1477.5,-98.5 1369.5,-98.5"/>
<text text-anchor="start" x="1372.5" y="-105.3" font-family="Times New Roman,serif" font-size="14.00">gspv_model:gears</text>
</a>
</g>
</g>
<!-- cluster_cluster_cluster_cluster_550621390334780039&#45;3079338983303448848506612701516435356&#45;57202922590092068575559161123170238860&#45;&gt;cluster_cluster_cluster_cluster_550621390334780039&#45;3079338983303448848506612701516435356&#45;57202922590092068575823726384603252559 -->
<g id="edge4" class="edge"><title>cluster_cluster_cluster_cluster_550621390334780039&#45;3079338983303448848506612701516435356&#45;57202922590092068575559161123170238860&#45;&gt;cluster_cluster_cluster_cluster_550621390334780039&#45;3079338983303448848506612701516435356&#45;57202922590092068575823726384603252559</title>
<path fill="none" stroke="black" d="M1302.5,-199.663C1302.5,-199.663 1302.5,-174.269 1302.5,-174.269"/>
<polygon fill="black" stroke="black" points="1306,-174.269 1302.5,-164.269 1299,-174.269 1306,-174.269"/>
</g>
<!-- cluster_cluster_cluster_cluster_550621390334780039&#45;3079338983303448848506612701516435356&#45;5720292259009206857&#45;2328696801353446754 -->
<g id="node5" class="node"><title>cluster_cluster_cluster_cluster_550621390334780039&#45;3079338983303448848506612701516435356&#45;5720292259009206857&#45;2328696801353446754</title>
<g id="a_node5"><a xlink:title="A function to correct the gear predicted.">
<path fill="cyan" stroke="black" d="M1583,-330.5C1583,-330.5 1340,-330.5 1340,-330.5 1334,-330.5 1328,-324.5 1328,-318.5 1328,-318.5 1328,-294.5 1328,-294.5 1328,-288.5 1334,-282.5 1340,-282.5 1340,-282.5 1583,-282.5 1583,-282.5 1589,-282.5 1595,-288.5 1595,-294.5 1595,-294.5 1595,-318.5 1595,-318.5 1595,-324.5 1589,-330.5 1583,-330.5"/>
<text text-anchor="start" x="1426.5" y="-313.3" font-family="Times New Roman,serif" font-size="14.00">correct_gear</text>
<polygon fill="none" stroke="black" points="1336.5,-286.5 1336.5,-307.5 1438.5,-307.5 1438.5,-286.5 1336.5,-286.5"/>
<text text-anchor="start" x="1339.5" y="-293.3" font-family="Times New Roman,serif" font-size="14.00">remote parent 0=</text>
<polygon fill="none" stroke="black" points="1438.5,-286.5 1438.5,-307.5 1587.5,-307.5 1587.5,-286.5 1438.5,-286.5"/>
<text text-anchor="start" x="1441.5" y="-293.3" font-family="Times New Roman,serif" font-size="14.00">gspv_model:correct_gear</text>
</a>
</g>
</g>
<!-- cluster_cluster_cluster_cluster_550621390334780039&#45;3079338983303448848506612701516435356&#45;5720292259009206857&#45;2328696801353446754&#45;&gt;cluster_cluster_cluster_cluster_550621390334780039&#45;3079338983303448848506612701516435356&#45;57202922590092068575559161123170238860 -->
<g id="edge5" class="edge"><title>cluster_cluster_cluster_cluster_550621390334780039&#45;3079338983303448848506612701516435356&#45;5720292259009206857&#45;2328696801353446754&#45;&gt;cluster_cluster_cluster_cluster_550621390334780039&#45;3079338983303448848506612701516435356&#45;57202922590092068575559161123170238860</title>
<path fill="none" stroke="black" d="M1336.75,-282.317C1336.75,-282.317 1336.75,-246.257 1336.75,-246.257"/>
<polygon fill="black" stroke="black" points="1340.25,-246.257 1336.75,-236.257 1333.25,-246.257 1340.25,-246.257"/>
</g>
<!-- cluster_cluster_cluster_cluster_550621390334780039&#45;3079338983303448848506612701516435356&#45;57202922590092068573659860576675406351 -->
<g id="node6" class="node"><title>cluster_cluster_cluster_cluster_550621390334780039&#45;3079338983303448848506612701516435356&#45;57202922590092068573659860576675406351</title>
<g id="a_node6"><a xlink:title="Cycle type (WLTP or NEDC).">
<path fill="cyan" stroke="black" d="M496,-330.5C496,-330.5 263,-330.5 263,-330.5 257,-330.5 251,-324.5 251,-318.5 251,-318.5 251,-294.5 251,-294.5 251,-288.5 257,-282.5 263,-282.5 263,-282.5 496,-282.5 496,-282.5 502,-282.5 508,-288.5 508,-294.5 508,-294.5 508,-318.5 508,-318.5 508,-324.5 502,-330.5 496,-330.5"/>
<text text-anchor="start" x="349.5" y="-313.3" font-family="Times New Roman,serif" font-size="14.00">cycle_type</text>
<polygon fill="none" stroke="black" points="259.5,-286.5 259.5,-307.5 361.5,-307.5 361.5,-286.5 259.5,-286.5"/>
<text text-anchor="start" x="262.5" y="-293.3" font-family="Times New Roman,serif" font-size="14.00">remote parent 0=</text>
<polygon fill="none" stroke="black" points="361.5,-286.5 361.5,-307.5 500.5,-307.5 500.5,-286.5 361.5,-286.5"/>
<text text-anchor="start" x="364.5" y="-293.3" font-family="Times New Roman,serif" font-size="14.00">gspv_model:cycle_type</text>
</a>
</g>
</g>
<!-- cluster_cluster_cluster_cluster_550621390334780039&#45;3079338983303448848506612701516435356&#45;57202922590092068573659860576675406351&#45;&gt;cluster_cluster_cluster_cluster_550621390334780039&#45;3079338983303448848506612701516435356&#45;57202922590092068575559161123170238860 -->
<g id="edge6" class="edge"><title>cluster_cluster_cluster_cluster_550621390334780039&#45;3079338983303448848506612701516435356&#45;57202922590092068573659860576675406351&#45;&gt;cluster_cluster_cluster_cluster_550621390334780039&#45;3079338983303448848506612701516435356&#45;57202922590092068575559161123170238860</title>
<path fill="none" stroke="black" d="M379.5,-282.399C379.5,-253.526 379.5,-209 379.5,-209 379.5,-209 1191.47,-209 1191.47,-209"/>
<polygon fill="black" stroke="black" points="1191.47,-212.5 1201.47,-209 1191.47,-205.5 1191.47,-212.5"/>
</g>
<!-- cluster_cluster_cluster_cluster_550621390334780039&#45;3079338983303448848506612701516435356&#45;57202922590092068572896906763587689886 -->
<g id="node7" class="node"><title>cluster_cluster_cluster_cluster_550621390334780039&#45;3079338983303448848506612701516435356&#45;57202922590092068572896906763587689886</title>
<g id="a_node7"><a xlink:title="Gear filter function.">
<path fill="cyan" stroke="black" d="M766.5,-330.5C766.5,-330.5 538.5,-330.5 538.5,-330.5 532.5,-330.5 526.5,-324.5 526.5,-318.5 526.5,-318.5 526.5,-294.5 526.5,-294.5 526.5,-288.5 532.5,-282.5 538.5,-282.5 538.5,-282.5 766.5,-282.5 766.5,-282.5 772.5,-282.5 778.5,-288.5 778.5,-294.5 778.5,-294.5 778.5,-318.5 778.5,-318.5 778.5,-324.5 772.5,-330.5 766.5,-330.5"/>
<text text-anchor="start" x="624.5" y="-313.3" font-family="Times New Roman,serif" font-size="14.00">gear_filter</text>
<polygon fill="none" stroke="black" points="534.5,-286.5 534.5,-307.5 636.5,-307.5 636.5,-286.5 534.5,-286.5"/>
<text text-anchor="start" x="537.5" y="-293.3" font-family="Times New Roman,serif" font-size="14.00">remote parent 0=</text>
<polygon fill="none" stroke="black" points="636.5,-286.5 636.5,-307.5 770.5,-307.5 770.5,-286.5 636.5,-286.5"/>
<text text-anchor="start" x="639.5" y="-293.3" font-family="Times New Roman,serif" font-size="14.00">gspv_model:gear_filter</text>
</a>
</g>
</g>
<!-- cluster_cluster_cluster_cluster_550621390334780039&#45;3079338983303448848506612701516435356&#45;57202922590092068572896906763587689886&#45;&gt;cluster_cluster_cluster_cluster_550621390334780039&#45;3079338983303448848506612701516435356&#45;57202922590092068575559161123170238860 -->
<g id="edge7" class="edge"><title>cluster_cluster_cluster_cluster_550621390334780039&#45;3079338983303448848506612701516435356&#45;57202922590092068572896906763587689886&#45;&gt;cluster_cluster_cluster_cluster_550621390334780039&#45;3079338983303448848506612701516435356&#45;57202922590092068575559161123170238860</title>
<path fill="none" stroke="black" d="M652.5,-282.317C652.5,-256.114 652.5,-218 652.5,-218 652.5,-218 1191.35,-218 1191.35,-218"/>
<polygon fill="black" stroke="black" points="1191.35,-221.5 1201.35,-218 1191.35,-214.5 1191.35,-221.5"/>
</g>
<!-- cluster_cluster_cluster_cluster_550621390334780039&#45;3079338983303448848506612701516435356&#45;57202922590092068575823726384603252559&#45;&gt;cluster_cluster_cluster_cluster_550621390334780039&#45;3079338983303448848506612701516435356&#45;5720292259009206857&#45;7520287387281748918 -->
<g id="edge8" class="edge"><title>cluster_cluster_cluster_cluster_550621390334780039&#45;3079338983303448848506612701516435356&#45;57202922590092068575823726384603252559&#45;&gt;cluster_cluster_cluster_cluster_550621390334780039&#45;3079338983303448848506612701516435356&#45;5720292259009206857&#45;7520287387281748918</title>
<path fill="none" stroke="black" d="M1372.5,-94.7765C1372.5,-69.9827 1372.5,-41 1372.5,-41 1372.5,-41 1731.42,-41 1731.42,-41"/>
<polygon fill="black" stroke="black" points="1731.42,-44.5001 1741.42,-41 1731.42,-37.5001 1731.42,-44.5001"/>
</g>
<!-- cluster_cluster_cluster_cluster_550621390334780039&#45;3079338983303448848506612701516435356&#45;5720292259009206857&#45;1694690716081511724 -->
<g id="node9" class="node"><title>cluster_cluster_cluster_cluster_550621390334780039&#45;3079338983303448848506612701516435356&#45;5720292259009206857&#45;1694690716081511724</title>
<g id="a_node9"><a xlink:title="Power at wheels vector [kW].">
<path fill="cyan" stroke="black" d="M1884,-330.5C1884,-330.5 1625,-330.5 1625,-330.5 1619,-330.5 1613,-324.5 1613,-318.5 1613,-318.5 1613,-294.5 1613,-294.5 1613,-288.5 1619,-282.5 1625,-282.5 1625,-282.5 1884,-282.5 1884,-282.5 1890,-282.5 1896,-288.5 1896,-294.5 1896,-294.5 1896,-318.5 1896,-318.5 1896,-324.5 1890,-330.5 1884,-330.5"/>
<text text-anchor="start" x="1711.5" y="-313.3" font-family="Times New Roman,serif" font-size="14.00">motive_powers</text>
<polygon fill="none" stroke="black" points="1621.5,-286.5 1621.5,-307.5 1723.5,-307.5 1723.5,-286.5 1621.5,-286.5"/>
<text text-anchor="start" x="1624.5" y="-293.3" font-family="Times New Roman,serif" font-size="14.00">remote parent 0=</text>
<polygon fill="none" stroke="black" points="1723.5,-286.5 1723.5,-307.5 1888.5,-307.5 1888.5,-286.5 1723.5,-286.5"/>
<text text-anchor="start" x="1726.5" y="-293.3" font-family="Times New Roman,serif" font-size="14.00">gspv_model:motive_powers</text>
</a>
</g>
</g>
<!-- cluster_cluster_cluster_cluster_550621390334780039&#45;3079338983303448848506612701516435356&#45;5720292259009206857&#45;1694690716081511724&#45;&gt;cluster_cluster_cluster_cluster_550621390334780039&#45;3079338983303448848506612701516435356&#45;5720292259009206857&#45;7520287387281748918 -->
<g id="edge9" class="edge"><title>cluster_cluster_cluster_cluster_550621390334780039&#45;3079338983303448848506612701516435356&#45;5720292259009206857&#45;1694690716081511724&#45;&gt;cluster_cluster_cluster_cluster_550621390334780039&#45;3079338983303448848506612701516435356&#45;5720292259009206857&#45;7520287387281748918</title>
<path fill="none" stroke="black" d="M1696.67,-282.369C1696.67,-218.517 1696.67,-50 1696.67,-50 1696.67,-50 1731.5,-50 1731.5,-50"/>
<polygon fill="black" stroke="black" points="1731.5,-53.5001 1741.5,-50 1731.5,-46.5001 1731.5,-53.5001"/>
</g>
<!-- cluster_cluster_cluster_cluster_550621390334780039&#45;3079338983303448848506612701516435356&#45;5720292259009206857&#45;1694690716081511724&#45;&gt;cluster_cluster_cluster_cluster_550621390334780039&#45;3079338983303448848506612701516435356&#45;57202922590092068575559161123170238860 -->
<g id="edge10" class="edge"><title>cluster_cluster_cluster_cluster_550621390334780039&#45;3079338983303448848506612701516435356&#45;5720292259009206857&#45;1694690716081511724&#45;&gt;cluster_cluster_cluster_cluster_550621390334780039&#45;3079338983303448848506612701516435356&#45;57202922590092068575559161123170238860</title>
<path fill="none" stroke="black" d="M1654.83,-282.215C1654.83,-258.836 1654.83,-227 1654.83,-227 1654.83,-227 1355.67,-227 1355.67,-227"/>
<polygon fill="black" stroke="black" points="1355.67,-223.5 1345.67,-227 1355.67,-230.5 1355.67,-223.5"/>
</g>
<!-- cluster_cluster_cluster_cluster_550621390334780039&#45;3079338983303448848506612701516435356&#45;5720292259009206857&#45;3822089204281359213 -->
<g id="node10" class="node"><title>cluster_cluster_cluster_cluster_550621390334780039&#45;3079338983303448848506612701516435356&#45;5720292259009206857&#45;3822089204281359213</title>
<g id="a_node10"><a xlink:title="Maximum velocity to consider the vehicle stopped [km/h].">
<path fill="cyan" stroke="black" d="M1998.5,-164C1998.5,-164 1750.5,-164 1750.5,-164 1744.5,-164 1738.5,-158 1738.5,-152 1738.5,-152 1738.5,-107 1738.5,-107 1738.5,-101 1744.5,-95 1750.5,-95 1750.5,-95 1998.5,-95 1998.5,-95 2004.5,-95 2010.5,-101 2010.5,-107 2010.5,-107 2010.5,-152 2010.5,-152 2010.5,-158 2004.5,-164 1998.5,-164"/>
<text text-anchor="start" x="1836.5" y="-146.3" font-family="Times New Roman,serif" font-size="14.00">stop_velocity</text>
<polygon fill="none" stroke="black" points="1746.5,-119.5 1746.5,-140.5 1848.5,-140.5 1848.5,-119.5 1746.5,-119.5"/>
<text text-anchor="start" x="1799.5" y="-126.3" font-family="Times New Roman,serif" font-size="14.00">default=</text>
<polygon fill="none" stroke="black" points="1848.5,-119.5 1848.5,-140.5 2002.5,-140.5 2002.5,-119.5 1848.5,-119.5"/>
<text text-anchor="start" x="1851.5" y="-126.3" font-family="Times New Roman,serif" font-size="14.00">1.0000001192092896</text>
<polygon fill="none" stroke="black" points="1746.5,-98.5 1746.5,-119.5 1848.5,-119.5 1848.5,-98.5 1746.5,-98.5"/>
<text text-anchor="start" x="1749.5" y="-105.3" font-family="Times New Roman,serif" font-size="14.00">remote parent 0=</text>
<polygon fill="none" stroke="black" points="1848.5,-98.5 1848.5,-119.5 2002.5,-119.5 2002.5,-98.5 1848.5,-98.5"/>
<text text-anchor="start" x="1851.5" y="-105.3" font-family="Times New Roman,serif" font-size="14.00">gspv_model:stop_velocity</text>
</a>
</g>
</g>
<!-- cluster_cluster_cluster_cluster_550621390334780039&#45;3079338983303448848506612701516435356&#45;5720292259009206857&#45;3822089204281359213&#45;&gt;cluster_cluster_cluster_cluster_550621390334780039&#45;3079338983303448848506612701516435356&#45;5720292259009206857&#45;7520287387281748918 -->
<g id="edge11" class="edge"><title>cluster_cluster_cluster_cluster_550621390334780039&#45;3079338983303448848506612701516435356&#45;5720292259009206857&#45;3822089204281359213&#45;&gt;cluster_cluster_cluster_cluster_550621390334780039&#45;3079338983303448848506612701516435356&#45;5720292259009206857&#45;7520287387281748918</title>
<path fill="none" stroke="black" d="M1792.5,-94.7765C1792.5,-94.7765 1792.5,-69.0777 1792.5,-69.0777"/>
<polygon fill="black" stroke="black" points="1796,-69.0777 1792.5,-59.0777 1789,-69.0778 1796,-69.0777"/>
</g>
<!-- cluster_cluster_cluster_cluster_550621390334780039&#45;3079338983303448848506612701516435356&#45;5720292259009206857&#45;1825562924159530342 -->
<g id="node11" class="node"><title>cluster_cluster_cluster_cluster_550621390334780039&#45;3079338983303448848506612701516435356&#45;5720292259009206857&#45;1825562924159530342</title>
<g id="a_node11"><a xlink:title="Time vector [s].">
<path fill="cyan" stroke="black" d="M1010.5,-330.5C1010.5,-330.5 808.5,-330.5 808.5,-330.5 802.5,-330.5 796.5,-324.5 796.5,-318.5 796.5,-318.5 796.5,-294.5 796.5,-294.5 796.5,-288.5 802.5,-282.5 808.5,-282.5 808.5,-282.5 1010.5,-282.5 1010.5,-282.5 1016.5,-282.5 1022.5,-288.5 1022.5,-294.5 1022.5,-294.5 1022.5,-318.5 1022.5,-318.5 1022.5,-324.5 1016.5,-330.5 1010.5,-330.5"/>
<text text-anchor="start" x="894.5" y="-313.3" font-family="Times New Roman,serif" font-size="14.00">times</text>
<polygon fill="none" stroke="black" points="804.5,-286.5 804.5,-307.5 906.5,-307.5 906.5,-286.5 804.5,-286.5"/>
<text text-anchor="start" x="807.5" y="-293.3" font-family="Times New Roman,serif" font-size="14.00">remote parent 0=</text>
<polygon fill="none" stroke="black" points="906.5,-286.5 906.5,-307.5 1014.5,-307.5 1014.5,-286.5 906.5,-286.5"/>
<text text-anchor="start" x="909.5" y="-293.3" font-family="Times New Roman,serif" font-size="14.00">gspv_model:times</text>
</a>
</g>
</g>
<!-- cluster_cluster_cluster_cluster_550621390334780039&#45;3079338983303448848506612701516435356&#45;5720292259009206857&#45;1825562924159530342&#45;&gt;cluster_cluster_cluster_cluster_550621390334780039&#45;3079338983303448848506612701516435356&#45;57202922590092068575559161123170238860 -->
<g id="edge12" class="edge"><title>cluster_cluster_cluster_cluster_550621390334780039&#45;3079338983303448848506612701516435356&#45;5720292259009206857&#45;1825562924159530342&#45;&gt;cluster_cluster_cluster_cluster_550621390334780039&#45;3079338983303448848506612701516435356&#45;57202922590092068575559161123170238860</title>
<path fill="none" stroke="black" d="M909.5,-282.215C909.5,-258.836 909.5,-227 909.5,-227 909.5,-227 1191.15,-227 1191.15,-227"/>
<polygon fill="black" stroke="black" points="1191.15,-230.5 1201.15,-227 1191.15,-223.5 1191.15,-230.5"/>
</g>
<!-- cluster_cluster_cluster_cluster_550621390334780039&#45;3079338983303448848506612701516435356&#45;57202922590092068571395676110976739562 -->
<g id="node12" class="node"><title>cluster_cluster_cluster_cluster_550621390334780039&#45;3079338983303448848506612701516435356&#45;57202922590092068571395676110976739562</title>
<g id="a_node12"><a xlink:title="Vehicle velocity [km/h].">
<path fill="cyan" stroke="black" d="M2150.5,-330.5C2150.5,-330.5 1926.5,-330.5 1926.5,-330.5 1920.5,-330.5 1914.5,-324.5 1914.5,-318.5 1914.5,-318.5 1914.5,-294.5 1914.5,-294.5 1914.5,-288.5 1920.5,-282.5 1926.5,-282.5 1926.5,-282.5 2150.5,-282.5 2150.5,-282.5 2156.5,-282.5 2162.5,-288.5 2162.5,-294.5 2162.5,-294.5 2162.5,-318.5 2162.5,-318.5 2162.5,-324.5 2156.5,-330.5 2150.5,-330.5"/>
<text text-anchor="start" x="2012.5" y="-313.3" font-family="Times New Roman,serif" font-size="14.00">velocities</text>
<polygon fill="none" stroke="black" points="1922.5,-286.5 1922.5,-307.5 2024.5,-307.5 2024.5,-286.5 1922.5,-286.5"/>
<text text-anchor="start" x="1925.5" y="-293.3" font-family="Times New Roman,serif" font-size="14.00">remote parent 0=</text>
<polygon fill="none" stroke="black" points="2024.5,-286.5 2024.5,-307.5 2154.5,-307.5 2154.5,-286.5 2024.5,-286.5"/>
<text text-anchor="start" x="2027.5" y="-293.3" font-family="Times New Roman,serif" font-size="14.00">gspv_model:velocities</text>
</a>
</g>
</g>
<!-- cluster_cluster_cluster_cluster_550621390334780039&#45;3079338983303448848506612701516435356&#45;57202922590092068571395676110976739562&#45;&gt;cluster_cluster_cluster_cluster_550621390334780039&#45;3079338983303448848506612701516435356&#45;5720292259009206857&#45;7520287387281748918 -->
<g id="edge13" class="edge"><title>cluster_cluster_cluster_cluster_550621390334780039&#45;3079338983303448848506612701516435356&#45;57202922590092068571395676110976739562&#45;&gt;cluster_cluster_cluster_cluster_550621390334780039&#45;3079338983303448848506612701516435356&#45;5720292259009206857&#45;7520287387281748918</title>
<path fill="none" stroke="black" d="M2086.5,-282.087C2086.5,-217.488 2086.5,-47 2086.5,-47 2086.5,-47 1853.71,-47 1853.71,-47"/>
<polygon fill="black" stroke="black" points="1853.71,-43.5001 1843.71,-47 1853.71,-50.5001 1853.71,-43.5001"/>
</g>
<!-- cluster_cluster_cluster_cluster_550621390334780039&#45;3079338983303448848506612701516435356&#45;57202922590092068571395676110976739562&#45;&gt;cluster_cluster_cluster_cluster_550621390334780039&#45;3079338983303448848506612701516435356&#45;57202922590092068575559161123170238860 -->
<g id="edge14" class="edge"><title>cluster_cluster_cluster_cluster_550621390334780039&#45;3079338983303448848506612701516435356&#45;57202922590092068571395676110976739562&#45;&gt;cluster_cluster_cluster_cluster_550621390334780039&#45;3079338983303448848506612701516435356&#45;57202922590092068575559161123170238860</title>
<path fill="none" stroke="black" d="M1962.5,-282.317C1962.5,-256.114 1962.5,-218 1962.5,-218 1962.5,-218 1355.61,-218 1355.61,-218"/>
<polygon fill="black" stroke="black" points="1355.61,-214.5 1345.61,-218 1355.61,-221.5 1355.61,-214.5"/>
</g>
<!-- cluster_cluster_cluster_cluster_550621390334780039&#45;3079338983303448848506612701516435356&#45;57202922590092068575551426227045653540 -->
<g id="node13" class="node"><title>cluster_cluster_cluster_cluster_550621390334780039&#45;3079338983303448848506612701516435356&#45;57202922590092068575551426227045653540</title>
<g id="a_node13"><a xlink:title="Constant velocity speed ratios of the gear box [km/(h*RPM)].">
<path fill="cyan" stroke="black" d="M2488,-330.5C2488,-330.5 2193,-330.5 2193,-330.5 2187,-330.5 2181,-324.5 2181,-318.5 2181,-318.5 2181,-294.5 2181,-294.5 2181,-288.5 2187,-282.5 2193,-282.5 2193,-282.5 2488,-282.5 2488,-282.5 2494,-282.5 2500,-288.5 2500,-294.5 2500,-294.5 2500,-318.5 2500,-318.5 2500,-324.5 2494,-330.5 2488,-330.5"/>
<text text-anchor="start" x="2279.5" y="-313.3" font-family="Times New Roman,serif" font-size="14.00">velocity_speed_ratios</text>
<polygon fill="none" stroke="black" points="2189.5,-286.5 2189.5,-307.5 2291.5,-307.5 2291.5,-286.5 2189.5,-286.5"/>
<text text-anchor="start" x="2192.5" y="-293.3" font-family="Times New Roman,serif" font-size="14.00">remote parent 0=</text>
<polygon fill="none" stroke="black" points="2291.5,-286.5 2291.5,-307.5 2492.5,-307.5 2492.5,-286.5 2291.5,-286.5"/>
<text text-anchor="start" x="2294.5" y="-293.3" font-family="Times New Roman,serif" font-size="14.00">gspv_model:velocity_speed_ratios</text>
</a>
</g>
</g>
<!-- cluster_cluster_cluster_cluster_550621390334780039&#45;3079338983303448848506612701516435356&#45;57202922590092068575551426227045653540&#45;&gt;cluster_cluster_cluster_cluster_550621390334780039&#45;3079338983303448848506612701516435356&#45;5720292259009206857&#45;7520287387281748918 -->
<g id="edge15" class="edge"><title>cluster_cluster_cluster_cluster_550621390334780039&#45;3079338983303448848506612701516435356&#45;57202922590092068575551426227045653540&#45;&gt;cluster_cluster_cluster_cluster_550621390334780039&#45;3079338983303448848506612701516435356&#45;5720292259009206857&#45;7520287387281748918</title>
<path fill="none" stroke="black" d="M2393.67,-282.406C2393.67,-215.96 2393.67,-35 2393.67,-35 2393.67,-35 1853.76,-35 1853.76,-35"/>
<polygon fill="black" stroke="black" points="1853.76,-31.5001 1843.76,-35 1853.76,-38.5001 1853.76,-31.5001"/>
</g>
<!-- cluster_cluster_cluster_cluster_550621390334780039&#45;3079338983303448848506612701516435356&#45;57202922590092068575551426227045653540&#45;&gt;cluster_cluster_cluster_cluster_550621390334780039&#45;3079338983303448848506612701516435356&#45;57202922590092068575559161123170238860 -->
<g id="edge16" class="edge"><title>cluster_cluster_cluster_cluster_550621390334780039&#45;3079338983303448848506612701516435356&#45;57202922590092068575551426227045653540&#45;&gt;cluster_cluster_cluster_cluster_550621390334780039&#45;3079338983303448848506612701516435356&#45;57202922590092068575559161123170238860</title>
<path fill="none" stroke="black" d="M2287.33,-282.399C2287.33,-253.526 2287.33,-209 2287.33,-209 2287.33,-209 1355.6,-209 1355.6,-209"/>
<polygon fill="black" stroke="black" points="1355.6,-205.5 1345.6,-209 1355.6,-212.5 1355.6,-205.5"/>
</g>
</g>
</svg>
