<?xml version="1.0" encoding="UTF-8" standalone="no"?>
<!DOCTYPE svg PUBLIC "-//W3C//DTD SVG 1.1//EN"
 "http://www.w3.org/Graphics/SVG/1.1/DTD/svg11.dtd">
<!-- Generated by graphviz version 2.38.0 (20140413.2041)
 -->
<!-- Title: cluster_AM&#45;wltp_h errors Pages: 1 -->
<svg width="538pt" height="742pt"
 viewBox="0.00 0.00 538.00 742.00" xmlns="http://www.w3.org/2000/svg" xmlns:xlink="http://www.w3.org/1999/xlink">
<g id="graph0" class="graph" transform="scale(1 1) rotate(0) translate(4 738)">
<title>cluster_AM&#45;wltp_h errors</title>
<polygon fill="white" stroke="none" points="-4,4 -4,-738 534,-738 534,4 -4,4"/>
<text text-anchor="start" x="214" y="-7.8" font-family="Times New Roman,serif" font-size="14.00">AM&#45;wltp_h errors</text>
<!-- cluster_cluster_cluster_&#45;2202121249019829706&#45;8685971429576544073295869519530479636577532400 -->
<g id="node1" class="node"><title>cluster_cluster_cluster_&#45;2202121249019829706&#45;8685971429576544073295869519530479636577532400</title>
<g id="a_node1"><a xlink:title="start">
<polygon fill="red" stroke="black" points="142.683,-692.049 144.459,-692.148 146.216,-692.295 147.948,-692.491 149.648,-692.735 151.308,-693.027 152.923,-693.364 154.485,-693.748 155.989,-694.176 157.429,-694.647 158.8,-695.161 160.098,-695.715 161.317,-696.308 162.455,-696.939 163.507,-697.605 164.472,-698.306 165.346,-699.039 166.127,-699.801 166.815,-700.592 167.408,-701.408 167.906,-702.248 168.309,-703.109 168.617,-703.989 168.832,-704.886 168.956,-705.797 168.989,-706.719 168.934,-707.65 168.794,-708.587 168.571,-709.529 168.269,-710.471 167.89,-711.413 167.439,-712.35 166.918,-713.281 166.332,-714.203 165.685,-715.114 164.981,-716.011 164.223,-716.891 163.415,-717.752 162.561,-718.592 161.666,-719.408 160.732,-720.199 159.764,-720.961 158.764,-721.694 157.737,-722.395 156.684,-723.061 155.61,-723.692 154.516,-724.285 153.405,-724.839 152.28,-725.353 151.142,-725.824 149.994,-726.252 148.837,-726.636 147.672,-726.973 146.501,-727.265 145.325,-727.509 144.145,-727.705 142.963,-727.852 141.779,-727.951 140.593,-728 139.407,-728 138.221,-727.951 137.037,-727.852 135.855,-727.705 134.675,-727.509 133.499,-727.265 132.328,-726.973 131.163,-726.636 130.006,-726.252 128.858,-725.824 127.72,-725.353 126.595,-724.839 125.484,-724.285 124.39,-723.692 123.316,-723.061 122.263,-722.395 121.236,-721.694 120.236,-720.961 119.268,-720.199 118.334,-719.408 117.439,-718.592 116.585,-717.752 115.777,-716.891 115.019,-716.011 114.315,-715.114 113.668,-714.203 113.082,-713.281 112.561,-712.35 112.11,-711.413 111.731,-710.471 111.429,-709.529 111.206,-708.587 111.066,-707.65 111.011,-706.719 111.044,-705.797 111.168,-704.886 111.383,-703.989 111.691,-703.109 112.094,-702.248 112.592,-701.408 113.185,-700.592 113.873,-699.801 114.654,-699.039 115.528,-698.306 116.493,-697.605 117.545,-696.939 118.683,-696.308 119.902,-695.715 121.2,-695.161 122.571,-694.647 124.011,-694.176 125.515,-693.748 127.077,-693.364 128.692,-693.027 130.352,-692.735 132.052,-692.491 133.784,-692.295 135.541,-692.148 137.317,-692.049 139.105,-692 140.895,-692 142.683,-692.049"/>
<text text-anchor="middle" x="140" y="-706.3" font-family="Times New Roman,serif" font-size="14.00">start</text>
</a>
</g>
</g>
<!-- cluster_cluster_cluster_&#45;2202121249019829706&#45;86859714295765440732958695195304796365&#45;3431188338771875485 -->
<g id="node10" class="node"><title>cluster_cluster_cluster_&#45;2202121249019829706&#45;86859714295765440732958695195304796365&#45;3431188338771875485</title>
<g id="a_node10"><a xlink:title="error_settings">
<path fill="cyan" stroke="black" d="M213.5,-215C213.5,-215 140.5,-215 140.5,-215 134.5,-215 128.5,-209 128.5,-203 128.5,-203 128.5,-179 128.5,-179 128.5,-173 134.5,-167 140.5,-167 140.5,-167 213.5,-167 213.5,-167 219.5,-167 225.5,-173 225.5,-179 225.5,-179 225.5,-203 225.5,-203 225.5,-209 219.5,-215 213.5,-215"/>
<text text-anchor="start" x="139" y="-197.8" font-family="Times New Roman,serif" font-size="14.00">error_settings</text>
<polygon fill="none" stroke="black" points="137,-171 137,-192 193,-192 193,-171 137,-171"/>
<text text-anchor="start" x="144" y="-177.8" font-family="Times New Roman,serif" font-size="14.00">default=</text>
<polygon fill="none" stroke="black" points="193,-171 193,-192 218,-192 218,-171 193,-171"/>
<text text-anchor="start" x="196" y="-177.8" font-family="Times New Roman,serif" font-size="14.00">{}</text>
</a>
</g>
</g>
<!-- cluster_cluster_cluster_&#45;2202121249019829706&#45;8685971429576544073295869519530479636577532400&#45;&gt;cluster_cluster_cluster_&#45;2202121249019829706&#45;86859714295765440732958695195304796365&#45;3431188338771875485 -->
<g id="edge13" class="edge"><title>cluster_cluster_cluster_&#45;2202121249019829706&#45;8685971429576544073295869519530479636577532400&#45;&gt;cluster_cluster_cluster_&#45;2202121249019829706&#45;86859714295765440732958695195304796365&#45;3431188338771875485</title>
<path fill="none" stroke="black" d="M141.833,-691.833C141.833,-691.833 141.833,-225.045 141.833,-225.045"/>
<polygon fill="black" stroke="black" points="145.333,-225.045 141.833,-215.045 138.333,-225.045 145.333,-225.045"/>
<polygon fill="none" stroke="black" points="79.3333,-457.939 79.3333,-478.939 129.333,-478.939 129.333,-457.939 79.3333,-457.939"/>
<text text-anchor="start" x="82.3333" y="-464.739" font-family="Times New Roman,serif" font-size="14.00">inp_id=</text>
<polygon fill="none" stroke="black" points="129.333,-457.939 129.333,-478.939 142.333,-478.939 142.333,-457.939 129.333,-457.939"/>
<text text-anchor="start" x="132.333" y="-464.739" font-family="Times New Roman,serif" font-size="14.00">0</text>
</g>
<!-- cluster_cluster_cluster_&#45;2202121249019829706&#45;868597142957654407329586951953047963654712647501736754553 -->
<g id="node15" class="node"><title>cluster_cluster_cluster_&#45;2202121249019829706&#45;868597142957654407329586951953047963654712647501736754553</title>
<g id="a_node15"><a xlink:title="A sequence of data.">
<path fill="cyan" stroke="black" d="M518,-576.5C518,-576.5 482,-576.5 482,-576.5 476,-576.5 470,-570.5 470,-564.5 470,-564.5 470,-552.5 470,-552.5 470,-546.5 476,-540.5 482,-540.5 482,-540.5 518,-540.5 518,-540.5 524,-540.5 530,-546.5 530,-552.5 530,-552.5 530,-564.5 530,-564.5 530,-570.5 524,-576.5 518,-576.5"/>
<text text-anchor="start" x="480.5" y="-554.3" font-family="Times New Roman,serif" font-size="14.00">wltp_h</text>
</a>
</g>
</g>
<!-- cluster_cluster_cluster_&#45;2202121249019829706&#45;8685971429576544073295869519530479636577532400&#45;&gt;cluster_cluster_cluster_&#45;2202121249019829706&#45;868597142957654407329586951953047963654712647501736754553 -->
<g id="edge14" class="edge"><title>cluster_cluster_cluster_&#45;2202121249019829706&#45;8685971429576544073295869519530479636577532400&#45;&gt;cluster_cluster_cluster_&#45;2202121249019829706&#45;868597142957654407329586951953047963654712647501736754553</title>
<path fill="none" stroke="black" d="M155.167,-693.882C155.167,-682.038 155.167,-668 155.167,-668 155.167,-668 500,-668 500,-668 500,-668 500,-586.582 500,-586.582"/>
<polygon fill="black" stroke="black" points="503.5,-586.582 500,-576.582 496.5,-586.582 503.5,-586.582"/>
<polygon fill="none" stroke="black" points="355.852,-667.5 355.852,-688.5 405.852,-688.5 405.852,-667.5 355.852,-667.5"/>
<text text-anchor="start" x="358.852" y="-674.3" font-family="Times New Roman,serif" font-size="14.00">inp_id=</text>
<polygon fill="none" stroke="black" points="405.852,-667.5 405.852,-688.5 418.852,-688.5 418.852,-667.5 405.852,-667.5"/>
<text text-anchor="start" x="408.852" y="-674.3" font-family="Times New Roman,serif" font-size="14.00">1</text>
</g>
<!-- cluster_cluster_cluster_&#45;2202121249019829706&#45;86859714295765440732958695195304796365&#45;4779657526738643707 -->
<g id="node16" class="node"><title>cluster_cluster_cluster_&#45;2202121249019829706&#45;86859714295765440732958695195304796365&#45;4779657526738643707</title>
<g id="a_node16"><a xlink:title="A sequence of data.">
<path fill="cyan" stroke="black" d="M96,-431C96,-431 64,-431 64,-431 58,-431 52,-425 52,-419 52,-419 52,-407 52,-407 52,-401 58,-395 64,-395 64,-395 96,-395 96,-395 102,-395 108,-401 108,-407 108,-407 108,-419 108,-419 108,-425 102,-431 96,-431"/>
<text text-anchor="start" x="62.5" y="-408.8" font-family="Times New Roman,serif" font-size="14.00">wltp_l</text>
</a>
</g>
</g>
<!-- cluster_cluster_cluster_&#45;2202121249019829706&#45;8685971429576544073295869519530479636577532400&#45;&gt;cluster_cluster_cluster_&#45;2202121249019829706&#45;86859714295765440732958695195304796365&#45;4779657526738643707 -->
<g id="edge15" class="edge"><title>cluster_cluster_cluster_&#45;2202121249019829706&#45;8685971429576544073295869519530479636577532400&#45;&gt;cluster_cluster_cluster_&#45;2202121249019829706&#45;86859714295765440732958695195304796365&#45;4779657526738643707</title>
<path fill="none" stroke="black" d="M120.25,-695.272C120.25,-635.343 120.25,-413 120.25,-413 120.25,-413 118.391,-413 118.391,-413"/>
<polygon fill="black" stroke="black" points="118.391,-409.5 108.391,-413 118.391,-416.5 118.391,-409.5"/>
<polygon fill="none" stroke="black" points="57.75,-552.707 57.75,-573.707 107.75,-573.707 107.75,-552.707 57.75,-552.707"/>
<text text-anchor="start" x="60.75" y="-559.507" font-family="Times New Roman,serif" font-size="14.00">inp_id=</text>
<polygon fill="none" stroke="black" points="107.75,-552.707 107.75,-573.707 120.75,-573.707 120.75,-552.707 107.75,-552.707"/>
<text text-anchor="start" x="110.75" y="-559.507" font-family="Times New Roman,serif" font-size="14.00">2</text>
</g>
<!-- cluster_cluster_cluster_&#45;2202121249019829706&#45;86859714295765440732958695195304796365&#45;2181095411792409824 -->
<g id="node2" class="node"><title>cluster_cluster_cluster_&#45;2202121249019829706&#45;86859714295765440732958695195304796365&#45;2181095411792409824</title>
<g id="a_node2"><a xlink:title="A sequence of data.">
<path fill="cyan" stroke="black" d="M352,-359C352,-359 252,-359 252,-359 246,-359 240,-353 240,-347 240,-347 240,-335 240,-335 240,-329 246,-323 252,-323 252,-323 352,-323 352,-323 358,-323 364,-329 364,-335 364,-335 364,-347 364,-347 364,-353 358,-359 352,-359"/>
<text text-anchor="start" x="250.5" y="-336.8" font-family="Times New Roman,serif" font-size="14.00">calibrated_models</text>
</a>
</g>
</g>
<!-- cluster_cluster_cluster_&#45;2202121249019829706&#45;86859714295765440732958695195304796365&#45;7067757294929678007 -->
<g id="node3" class="node"><title>cluster_cluster_cluster_&#45;2202121249019829706&#45;86859714295765440732958695195304796365&#45;7067757294929678007</title>
<g id="a_node3"><a xlink:href="./../alternator_model_selector/AM-wltp_h_errors/co2mpas.dispatcher.utils.dspmap_list.txt" xlink:title="Returns a new dict.">
<polygon fill="springgreen" stroke="black" points="336,-287 268,-287 268,-251 336,-251 336,-287"/>
<text text-anchor="start" x="278" y="-264.8" font-family="Times New Roman,serif" font-size="14.00">map_list</text>
</a>
</g>
</g>
<!-- cluster_cluster_cluster_&#45;2202121249019829706&#45;86859714295765440732958695195304796365&#45;2181095411792409824&#45;&gt;cluster_cluster_cluster_&#45;2202121249019829706&#45;86859714295765440732958695195304796365&#45;7067757294929678007 -->
<g id="edge1" class="edge"><title>cluster_cluster_cluster_&#45;2202121249019829706&#45;86859714295765440732958695195304796365&#45;2181095411792409824&#45;&gt;cluster_cluster_cluster_&#45;2202121249019829706&#45;86859714295765440732958695195304796365&#45;7067757294929678007</title>
<path fill="none" stroke="black" d="M302,-322.831C302,-322.831 302,-297.413 302,-297.413"/>
<polygon fill="black" stroke="black" points="305.5,-297.413 302,-287.413 298.5,-297.413 305.5,-297.413"/>
</g>
<!-- cluster_cluster_cluster_&#45;2202121249019829706&#45;868597142957654407329586951953047963654298277636058170859 -->
<g id="node4" class="node"><title>cluster_cluster_cluster_&#45;2202121249019829706&#45;868597142957654407329586951953047963654298277636058170859</title>
<g id="a_node4"><a xlink:href="./../alternator_model_selector/AM-wltp_h_errors/co2mpas.dispatcher.utils.dspmap_list.txt" xlink:title="Returns a new dict.">
<polygon fill="springgreen" stroke="black" points="112,-287 20,-287 20,-251 112,-251 112,-287"/>
<text text-anchor="start" x="30.5" y="-264.8" font-family="Times New Roman,serif" font-size="14.00">map_list&lt;0&gt;</text>
</a>
</g>
</g>
<!-- cluster_cluster_cluster_&#45;2202121249019829706&#45;86859714295765440732958695195304796365&#45;2181095411792409824&#45;&gt;cluster_cluster_cluster_&#45;2202121249019829706&#45;868597142957654407329586951953047963654298277636058170859 -->
<g id="edge2" class="edge"><title>cluster_cluster_cluster_&#45;2202121249019829706&#45;86859714295765440732958695195304796365&#45;2181095411792409824&#45;&gt;cluster_cluster_cluster_&#45;2202121249019829706&#45;868597142957654407329586951953047963654298277636058170859</title>
<path fill="none" stroke="black" d="M245.5,-322.831C245.5,-301.502 245.5,-269 245.5,-269 245.5,-269 122.226,-269 122.226,-269"/>
<polygon fill="black" stroke="black" points="122.226,-265.5 112.226,-269 122.226,-272.5 122.226,-265.5"/>
</g>
<!-- cluster_cluster_cluster_&#45;2202121249019829706&#45;868597142957654407329586951953047963657702748476113788344 -->
<g id="node11" class="node"><title>cluster_cluster_cluster_&#45;2202121249019829706&#45;868597142957654407329586951953047963657702748476113788344</title>
<g id="a_node11"><a xlink:title="A unique dict with new values.">
<path fill="cyan" stroke="black" d="M329,-209C329,-209 263,-209 263,-209 257,-209 251,-203 251,-197 251,-197 251,-185 251,-185 251,-179 257,-173 263,-173 263,-173 329,-173 329,-173 335,-173 341,-179 341,-185 341,-185 341,-197 341,-197 341,-203 335,-209 329,-209"/>
<text text-anchor="start" x="261" y="-186.8" font-family="Times New Roman,serif" font-size="14.00">input/wltp_h</text>
</a>
</g>
</g>
<!-- cluster_cluster_cluster_&#45;2202121249019829706&#45;86859714295765440732958695195304796365&#45;7067757294929678007&#45;&gt;cluster_cluster_cluster_&#45;2202121249019829706&#45;868597142957654407329586951953047963657702748476113788344 -->
<g id="edge3" class="edge"><title>cluster_cluster_cluster_&#45;2202121249019829706&#45;86859714295765440732958695195304796365&#45;7067757294929678007&#45;&gt;cluster_cluster_cluster_&#45;2202121249019829706&#45;868597142957654407329586951953047963657702748476113788344</title>
<path fill="none" stroke="black" d="M302,-250.909C302,-250.909 302,-219.263 302,-219.263"/>
<polygon fill="black" stroke="black" points="305.5,-219.263 302,-209.263 298.5,-219.263 305.5,-219.263"/>
</g>
<!-- cluster_cluster_cluster_&#45;2202121249019829706&#45;868597142957654407329586951953047963654919105944985796052 -->
<g id="node12" class="node"><title>cluster_cluster_cluster_&#45;2202121249019829706&#45;868597142957654407329586951953047963654919105944985796052</title>
<g id="a_node12"><a xlink:title="A unique dict with new values.">
<path fill="cyan" stroke="black" d="M98,-209C98,-209 34,-209 34,-209 28,-209 22,-203 22,-197 22,-197 22,-185 22,-185 22,-179 28,-173 34,-173 34,-173 98,-173 98,-173 104,-173 110,-179 110,-185 110,-185 110,-197 110,-197 110,-203 104,-209 98,-209"/>
<text text-anchor="start" x="32.5" y="-186.8" font-family="Times New Roman,serif" font-size="14.00">input/wltp_l</text>
</a>
</g>
</g>
<!-- cluster_cluster_cluster_&#45;2202121249019829706&#45;868597142957654407329586951953047963654298277636058170859&#45;&gt;cluster_cluster_cluster_&#45;2202121249019829706&#45;868597142957654407329586951953047963654919105944985796052 -->
<g id="edge4" class="edge"><title>cluster_cluster_cluster_&#45;2202121249019829706&#45;868597142957654407329586951953047963654298277636058170859&#45;&gt;cluster_cluster_cluster_&#45;2202121249019829706&#45;868597142957654407329586951953047963654919105944985796052</title>
<path fill="none" stroke="black" d="M66,-250.909C66,-250.909 66,-219.263 66,-219.263"/>
<polygon fill="black" stroke="black" points="69.5001,-219.263 66,-209.263 62.5001,-219.263 69.5001,-219.263"/>
</g>
<!-- cluster_cluster_cluster_&#45;2202121249019829706&#45;86859714295765440732958695195304796365780796865716420896 -->
<g id="node5" class="node"><title>cluster_cluster_cluster_&#45;2202121249019829706&#45;86859714295765440732958695195304796365780796865716420896</title>
<g id="a_node5"><a xlink:href="./AM-wltp_h_errors/AM-wltp_h_error_vs_wltp_h.gv.svg" xlink:title="Calculates the error of calibrated model of a reference.">
<polygon fill="yellow" stroke="black" points="368,-131 200,-131 200,-95 374,-95 374,-125 368,-131"/>
<polyline fill="none" stroke="black" points="368,-131 368,-125 "/>
<polyline fill="none" stroke="black" points="374,-125 368,-125 "/>
<text text-anchor="start" x="210" y="-108.8" font-family="Times New Roman,serif" font-size="14.00">AM&#45;wltp_h error vs wltp_h</text>
</a>
</g>
</g>
<!-- cluster_cluster_cluster_&#45;2202121249019829706&#45;86859714295765440732958695195304796365&#45;2427563387242055365 -->
<g id="node8" class="node"><title>cluster_cluster_cluster_&#45;2202121249019829706&#45;86859714295765440732958695195304796365&#45;2427563387242055365</title>
<g id="a_node8"><a xlink:title="error/wltp_h">
<path fill="cyan" stroke="black" d="M320,-59C320,-59 254,-59 254,-59 248,-59 242,-53 242,-47 242,-47 242,-35 242,-35 242,-29 248,-23 254,-23 254,-23 320,-23 320,-23 326,-23 332,-29 332,-35 332,-35 332,-47 332,-47 332,-53 326,-59 320,-59"/>
<text text-anchor="start" x="252" y="-36.8" font-family="Times New Roman,serif" font-size="14.00">error/wltp_h</text>
</a>
</g>
</g>
<!-- cluster_cluster_cluster_&#45;2202121249019829706&#45;86859714295765440732958695195304796365780796865716420896&#45;&gt;cluster_cluster_cluster_&#45;2202121249019829706&#45;86859714295765440732958695195304796365&#45;2427563387242055365 -->
<g id="edge5" class="edge"><title>cluster_cluster_cluster_&#45;2202121249019829706&#45;86859714295765440732958695195304796365780796865716420896&#45;&gt;cluster_cluster_cluster_&#45;2202121249019829706&#45;86859714295765440732958695195304796365&#45;2427563387242055365</title>
<path fill="none" stroke="black" d="M287,-94.8314C287,-94.8314 287,-69.4133 287,-69.4133"/>
<polygon fill="black" stroke="black" points="290.5,-69.4132 287,-59.4133 283.5,-69.4133 290.5,-69.4132"/>
</g>
<!-- cluster_cluster_cluster_&#45;2202121249019829706&#45;86859714295765440732958695195304796365&#45;7657194543931302675 -->
<g id="node6" class="node"><title>cluster_cluster_cluster_&#45;2202121249019829706&#45;86859714295765440732958695195304796365&#45;7657194543931302675</title>
<g id="a_node6"><a xlink:href="./AM-wltp_h_errors/AM-wltp_h_error_vs_wltp_l.gv.svg" xlink:title="Calculates the error of calibrated model of a reference.">
<polygon fill="yellow" stroke="black" points="166,-131 0,-131 0,-95 172,-95 172,-125 166,-131"/>
<polyline fill="none" stroke="black" points="166,-131 166,-125 "/>
<polyline fill="none" stroke="black" points="172,-125 166,-125 "/>
<text text-anchor="start" x="10.5" y="-108.8" font-family="Times New Roman,serif" font-size="14.00">AM&#45;wltp_h error vs wltp_l</text>
</a>
</g>
</g>
<!-- cluster_cluster_cluster_&#45;2202121249019829706&#45;86859714295765440732958695195304796365&#45;7302022848986384642 -->
<g id="node9" class="node"><title>cluster_cluster_cluster_&#45;2202121249019829706&#45;86859714295765440732958695195304796365&#45;7302022848986384642</title>
<g id="a_node9"><a xlink:title="error/wltp_l">
<path fill="cyan" stroke="black" d="M117,-59C117,-59 55,-59 55,-59 49,-59 43,-53 43,-47 43,-47 43,-35 43,-35 43,-29 49,-23 55,-23 55,-23 117,-23 117,-23 123,-23 129,-29 129,-35 129,-35 129,-47 129,-47 129,-53 123,-59 117,-59"/>
<text text-anchor="start" x="53" y="-36.8" font-family="Times New Roman,serif" font-size="14.00">error/wltp_l</text>
</a>
</g>
</g>
<!-- cluster_cluster_cluster_&#45;2202121249019829706&#45;86859714295765440732958695195304796365&#45;7657194543931302675&#45;&gt;cluster_cluster_cluster_&#45;2202121249019829706&#45;86859714295765440732958695195304796365&#45;7302022848986384642 -->
<g id="edge6" class="edge"><title>cluster_cluster_cluster_&#45;2202121249019829706&#45;86859714295765440732958695195304796365&#45;7657194543931302675&#45;&gt;cluster_cluster_cluster_&#45;2202121249019829706&#45;86859714295765440732958695195304796365&#45;7302022848986384642</title>
<path fill="none" stroke="black" d="M86,-94.8314C86,-94.8314 86,-69.4133 86,-69.4133"/>
<polygon fill="black" stroke="black" points="89.5001,-69.4132 86,-59.4133 82.5001,-69.4133 89.5001,-69.4132"/>
</g>
<!-- cluster_cluster_cluster_&#45;2202121249019829706&#45;86859714295765440732958695195304796365&#45;1177382896934224609 -->
<g id="node7" class="node"><title>cluster_cluster_cluster_&#45;2202121249019829706&#45;86859714295765440732958695195304796365&#45;1177382896934224609</title>
<g id="a_node7"><a xlink:title="data_in">
<path fill="cyan" stroke="black" d="M287.5,-734C287.5,-734 198.5,-734 198.5,-734 192.5,-734 186.5,-728 186.5,-722 186.5,-722 186.5,-698 186.5,-698 186.5,-692 192.5,-686 198.5,-686 198.5,-686 287.5,-686 287.5,-686 293.5,-686 299.5,-692 299.5,-698 299.5,-698 299.5,-722 299.5,-722 299.5,-728 293.5,-734 287.5,-734"/>
<text text-anchor="start" x="223" y="-716.8" font-family="Times New Roman,serif" font-size="14.00">data_in</text>
<polygon fill="none" stroke="black" points="195,-690 195,-711 247,-711 247,-690 195,-690"/>
<text text-anchor="start" x="198" y="-696.8" font-family="Times New Roman,serif" font-size="14.00">default=</text>
<polygon fill="none" stroke="black" points="247,-690 247,-711 292,-711 292,-690 247,-690"/>
<text text-anchor="start" x="250" y="-696.8" font-family="Times New Roman,serif" font-size="14.00">wltp_h</text>
</a>
</g>
</g>
<!-- cluster_cluster_cluster_&#45;2202121249019829706&#45;86859714295765440732958695195304796365&#45;3431188338771875485&#45;&gt;cluster_cluster_cluster_&#45;2202121249019829706&#45;86859714295765440732958695195304796365780796865716420896 -->
<g id="edge7" class="edge"><title>cluster_cluster_cluster_&#45;2202121249019829706&#45;86859714295765440732958695195304796365&#45;3431188338771875485&#45;&gt;cluster_cluster_cluster_&#45;2202121249019829706&#45;86859714295765440732958695195304796365780796865716420896</title>
<path fill="none" stroke="black" d="M212.75,-166.748C212.75,-166.748 212.75,-141.288 212.75,-141.288"/>
<polygon fill="black" stroke="black" points="216.25,-141.287 212.75,-131.288 209.25,-141.288 216.25,-141.287"/>
</g>
<!-- cluster_cluster_cluster_&#45;2202121249019829706&#45;86859714295765440732958695195304796365&#45;3431188338771875485&#45;&gt;cluster_cluster_cluster_&#45;2202121249019829706&#45;86859714295765440732958695195304796365&#45;7657194543931302675 -->
<g id="edge8" class="edge"><title>cluster_cluster_cluster_&#45;2202121249019829706&#45;86859714295765440732958695195304796365&#45;3431188338771875485&#45;&gt;cluster_cluster_cluster_&#45;2202121249019829706&#45;86859714295765440732958695195304796365&#45;7657194543931302675</title>
<path fill="none" stroke="black" d="M150.25,-166.748C150.25,-166.748 150.25,-141.288 150.25,-141.288"/>
<polygon fill="black" stroke="black" points="153.75,-141.287 150.25,-131.288 146.75,-141.288 153.75,-141.287"/>
</g>
<!-- cluster_cluster_cluster_&#45;2202121249019829706&#45;868597142957654407329586951953047963657702748476113788344&#45;&gt;cluster_cluster_cluster_&#45;2202121249019829706&#45;86859714295765440732958695195304796365780796865716420896 -->
<g id="edge9" class="edge"><title>cluster_cluster_cluster_&#45;2202121249019829706&#45;868597142957654407329586951953047963657702748476113788344&#45;&gt;cluster_cluster_cluster_&#45;2202121249019829706&#45;86859714295765440732958695195304796365780796865716420896</title>
<path fill="none" stroke="black" d="M296,-172.909C296,-172.909 296,-141.263 296,-141.263"/>
<polygon fill="black" stroke="black" points="299.5,-141.263 296,-131.263 292.5,-141.263 299.5,-141.263"/>
</g>
<!-- cluster_cluster_cluster_&#45;2202121249019829706&#45;868597142957654407329586951953047963654919105944985796052&#45;&gt;cluster_cluster_cluster_&#45;2202121249019829706&#45;86859714295765440732958695195304796365&#45;7657194543931302675 -->
<g id="edge10" class="edge"><title>cluster_cluster_cluster_&#45;2202121249019829706&#45;868597142957654407329586951953047963654919105944985796052&#45;&gt;cluster_cluster_cluster_&#45;2202121249019829706&#45;86859714295765440732958695195304796365&#45;7657194543931302675</title>
<path fill="none" stroke="black" d="M66,-172.909C66,-172.909 66,-141.263 66,-141.263"/>
<polygon fill="black" stroke="black" points="69.5001,-141.263 66,-131.263 62.5001,-141.263 69.5001,-141.263"/>
</g>
<!-- cluster_cluster_cluster_&#45;2202121249019829706&#45;86859714295765440732958695195304796365&#45;3274255707223734200 -->
<g id="node13" class="node"><title>cluster_cluster_cluster_&#45;2202121249019829706&#45;86859714295765440732958695195304796365&#45;3274255707223734200</title>
<g id="a_node13"><a xlink:title="models">
<path fill="cyan" stroke="black" d="M439.5,-650C439.5,-650 180.5,-650 180.5,-650 174.5,-650 168.5,-644 168.5,-638 168.5,-638 168.5,-479 168.5,-479 168.5,-473 174.5,-467 180.5,-467 180.5,-467 439.5,-467 439.5,-467 445.5,-467 451.5,-473 451.5,-479 451.5,-479 451.5,-638 451.5,-638 451.5,-644 445.5,-650 439.5,-650"/>
<text text-anchor="start" x="290" y="-632.3" font-family="Times New Roman,serif" font-size="14.00">models</text>
<polygon fill="none" stroke="black" points="177,-470.5 177,-626.5 229,-626.5 229,-470.5 177,-470.5"/>
<text text-anchor="start" x="180" y="-544.8" font-family="Times New Roman,serif" font-size="14.00">default=</text>
<polygon fill="none" stroke="black" points="229,-470.5 229,-626.5 444,-626.5 444,-470.5 229,-470.5"/>
<text text-anchor="start" x="291.5" y="-612.3" font-family="Times New Roman,serif" font-size="14.00">[&#39;MVL&#39;, &#39;CMV&#39;,</text>
<text text-anchor="start" x="282" y="-597.3" font-family="Times New Roman,serif" font-size="14.00"> &#39;CMV_Cold_Hot&#39;,</text>
<text text-anchor="start" x="272.5" y="-582.3" font-family="Times New Roman,serif" font-size="14.00"> &#39;DT_VA&#39;, &#39;DT_VAT&#39;,</text>
<text text-anchor="start" x="302.5" y="-567.3" font-family="Times New Roman,serif" font-size="14.00"> &#39;DT_VAP&#39;,</text>
<text text-anchor="start" x="273" y="-552.3" font-family="Times New Roman,serif" font-size="14.00"> &#39;DT_VATP&#39;, &#39;GSPV&#39;,</text>
<text text-anchor="start" x="279" y="-537.3" font-family="Times New Roman,serif" font-size="14.00"> &#39;GSPV_Cold_Hot&#39;,</text>
<text text-anchor="start" x="268.5" y="-522.3" font-family="Times New Roman,serif" font-size="14.00"> &#39;specific_gear_shifting&#39;,</text>
<text text-anchor="start" x="249.5" y="-507.3" font-family="Times New Roman,serif" font-size="14.00"> &#39;change_gear_window_width&#39;,</text>
<text text-anchor="start" x="232" y="-492.3" font-family="Times New Roman,serif" font-size="14.00"> &#39;max_velocity_full_load_correction&#39;,</text>
<text text-anchor="start" x="273" y="-477.3" font-family="Times New Roman,serif" font-size="14.00"> &#39;plateau_acceleration&#39;]</text>
</a>
</g>
</g>
<!-- cluster_cluster_cluster_&#45;2202121249019829706&#45;86859714295765440732958695195304796365&#45;8800720961443810657 -->
<g id="node14" class="node"><title>cluster_cluster_cluster_&#45;2202121249019829706&#45;86859714295765440732958695195304796365&#45;8800720961443810657</title>
<g id="a_node14"><a xlink:href="./AM-wltp_h_errors/select_models.txt" xlink:title="select_models">
<polygon fill="springgreen" stroke="black" points="360,-431 260,-431 260,-395 360,-395 360,-431"/>
<text text-anchor="start" x="270" y="-408.8" font-family="Times New Roman,serif" font-size="14.00">select_models</text>
</a>
</g>
</g>
<!-- cluster_cluster_cluster_&#45;2202121249019829706&#45;86859714295765440732958695195304796365&#45;3274255707223734200&#45;&gt;cluster_cluster_cluster_&#45;2202121249019829706&#45;86859714295765440732958695195304796365&#45;8800720961443810657 -->
<g id="edge11" class="edge"><title>cluster_cluster_cluster_&#45;2202121249019829706&#45;86859714295765440732958695195304796365&#45;3274255707223734200&#45;&gt;cluster_cluster_cluster_&#45;2202121249019829706&#45;86859714295765440732958695195304796365&#45;8800720961443810657</title>
<path fill="none" stroke="black" d="M310,-466.765C310,-466.765 310,-441.352 310,-441.352"/>
<polygon fill="black" stroke="black" points="313.5,-441.352 310,-431.352 306.5,-441.352 313.5,-441.352"/>
</g>
<!-- cluster_cluster_cluster_&#45;2202121249019829706&#45;86859714295765440732958695195304796365&#45;8800720961443810657&#45;&gt;cluster_cluster_cluster_&#45;2202121249019829706&#45;86859714295765440732958695195304796365&#45;2181095411792409824 -->
<g id="edge12" class="edge"><title>cluster_cluster_cluster_&#45;2202121249019829706&#45;86859714295765440732958695195304796365&#45;8800720961443810657&#45;&gt;cluster_cluster_cluster_&#45;2202121249019829706&#45;86859714295765440732958695195304796365&#45;2181095411792409824</title>
<path fill="none" stroke="black" d="M310,-394.831C310,-394.831 310,-369.413 310,-369.413"/>
<polygon fill="black" stroke="black" points="313.5,-369.413 310,-359.413 306.5,-369.413 313.5,-369.413"/>
</g>
<!-- cluster_cluster_cluster_&#45;2202121249019829706&#45;868597142957654407329586951953047963654712647501736754553&#45;&gt;cluster_cluster_cluster_&#45;2202121249019829706&#45;86859714295765440732958695195304796365&#45;7067757294929678007 -->
<g id="edge16" class="edge"><title>cluster_cluster_cluster_&#45;2202121249019829706&#45;868597142957654407329586951953047963654712647501736754553&#45;&gt;cluster_cluster_cluster_&#45;2202121249019829706&#45;86859714295765440732958695195304796365&#45;7067757294929678007</title>
<path fill="none" stroke="black" d="M510,-540.39C510,-477.012 510,-269 510,-269 510,-269 346.347,-269 346.347,-269"/>
<polygon fill="black" stroke="black" points="346.347,-265.5 336.347,-269 346.347,-272.5 346.347,-265.5"/>
</g>
<!-- cluster_cluster_cluster_&#45;2202121249019829706&#45;868597142957654407329586951953047963654712647501736754553&#45;&gt;cluster_cluster_cluster_&#45;2202121249019829706&#45;86859714295765440732958695195304796365&#45;8800720961443810657 -->
<g id="edge17" class="edge"><title>cluster_cluster_cluster_&#45;2202121249019829706&#45;868597142957654407329586951953047963654712647501736754553&#45;&gt;cluster_cluster_cluster_&#45;2202121249019829706&#45;86859714295765440732958695195304796365&#45;8800720961443810657</title>
<path fill="none" stroke="black" d="M490,-540.367C490,-501.363 490,-413 490,-413 490,-413 370.14,-413 370.14,-413"/>
<polygon fill="black" stroke="black" points="370.14,-409.5 360.14,-413 370.14,-416.5 370.14,-409.5"/>
</g>
<!-- cluster_cluster_cluster_&#45;2202121249019829706&#45;86859714295765440732958695195304796365&#45;4779657526738643707&#45;&gt;cluster_cluster_cluster_&#45;2202121249019829706&#45;868597142957654407329586951953047963654298277636058170859 -->
<g id="edge18" class="edge"><title>cluster_cluster_cluster_&#45;2202121249019829706&#45;86859714295765440732958695195304796365&#45;4779657526738643707&#45;&gt;cluster_cluster_cluster_&#45;2202121249019829706&#45;868597142957654407329586951953047963654298277636058170859</title>
<path fill="none" stroke="black" d="M80,-394.762C80,-394.762 80,-297.09 80,-297.09"/>
<polygon fill="black" stroke="black" points="83.5001,-297.09 80,-287.09 76.5001,-297.09 83.5001,-297.09"/>
</g>
</g>
</svg>
