<?xml version="1.0" encoding="UTF-8" standalone="no"?>
<!DOCTYPE svg PUBLIC "-//W3C//DTD SVG 1.1//EN"
 "http://www.w3.org/Graphics/SVG/1.1/DTD/svg11.dtd">
<!-- Generated by graphviz version 2.38.0 (20140413.2041)
 -->
<!-- Title: cluster_AM&#45;wltp_l errors Pages: 1 -->
<svg width="524pt" height="742pt"
 viewBox="0.00 0.00 524.00 742.00" xmlns="http://www.w3.org/2000/svg" xmlns:xlink="http://www.w3.org/1999/xlink">
<g id="graph0" class="graph" transform="scale(1 1) rotate(0) translate(4 738)">
<title>cluster_AM&#45;wltp_l errors</title>
<polygon fill="white" stroke="none" points="-4,4 -4,-738 520,-738 520,4 -4,4"/>
<text text-anchor="start" x="209" y="-7.8" font-family="Times New Roman,serif" font-size="14.00">AM&#45;wltp_l errors</text>
<!-- cluster_cluster_cluster_&#45;2202121249019829706&#45;8685971429576544073&#45;417421260726540492877532400 -->
<g id="node1" class="node"><title>cluster_cluster_cluster_&#45;2202121249019829706&#45;8685971429576544073&#45;417421260726540492877532400</title>
<g id="a_node1"><a xlink:title="start">
<polygon fill="red" stroke="black" points="132.683,-692.049 134.459,-692.148 136.216,-692.295 137.948,-692.491 139.648,-692.735 141.308,-693.027 142.923,-693.364 144.485,-693.748 145.989,-694.176 147.429,-694.647 148.8,-695.161 150.098,-695.715 151.317,-696.308 152.455,-696.939 153.507,-697.605 154.472,-698.306 155.346,-699.039 156.127,-699.801 156.815,-700.592 157.408,-701.408 157.906,-702.248 158.309,-703.109 158.617,-703.989 158.832,-704.886 158.956,-705.797 158.989,-706.719 158.934,-707.65 158.794,-708.587 158.571,-709.529 158.269,-710.471 157.89,-711.413 157.439,-712.35 156.918,-713.281 156.332,-714.203 155.685,-715.114 154.981,-716.011 154.223,-716.891 153.415,-717.752 152.561,-718.592 151.666,-719.408 150.732,-720.199 149.764,-720.961 148.764,-721.694 147.737,-722.395 146.684,-723.061 145.61,-723.692 144.516,-724.285 143.405,-724.839 142.28,-725.353 141.142,-725.824 139.994,-726.252 138.837,-726.636 137.672,-726.973 136.501,-727.265 135.325,-727.509 134.145,-727.705 132.963,-727.852 131.779,-727.951 130.593,-728 129.407,-728 128.221,-727.951 127.037,-727.852 125.855,-727.705 124.675,-727.509 123.499,-727.265 122.328,-726.973 121.163,-726.636 120.006,-726.252 118.858,-725.824 117.72,-725.353 116.595,-724.839 115.484,-724.285 114.39,-723.692 113.316,-723.061 112.263,-722.395 111.236,-721.694 110.236,-720.961 109.268,-720.199 108.334,-719.408 107.439,-718.592 106.585,-717.752 105.777,-716.891 105.019,-716.011 104.315,-715.114 103.668,-714.203 103.082,-713.281 102.561,-712.35 102.11,-711.413 101.731,-710.471 101.429,-709.529 101.206,-708.587 101.066,-707.65 101.011,-706.719 101.044,-705.797 101.168,-704.886 101.383,-703.989 101.691,-703.109 102.094,-702.248 102.592,-701.408 103.185,-700.592 103.873,-699.801 104.654,-699.039 105.528,-698.306 106.493,-697.605 107.545,-696.939 108.683,-696.308 109.902,-695.715 111.2,-695.161 112.571,-694.647 114.011,-694.176 115.515,-693.748 117.077,-693.364 118.692,-693.027 120.352,-692.735 122.052,-692.491 123.784,-692.295 125.541,-692.148 127.317,-692.049 129.105,-692 130.895,-692 132.683,-692.049"/>
<text text-anchor="middle" x="130" y="-706.3" font-family="Times New Roman,serif" font-size="14.00">start</text>
</a>
</g>
</g>
<!-- cluster_cluster_cluster_&#45;2202121249019829706&#45;8685971429576544073&#45;4174212607265404928&#45;3431188338771875485 -->
<g id="node10" class="node"><title>cluster_cluster_cluster_&#45;2202121249019829706&#45;8685971429576544073&#45;4174212607265404928&#45;3431188338771875485</title>
<g id="a_node10"><a xlink:title="error_settings">
<path fill="cyan" stroke="black" d="M216.5,-215C216.5,-215 143.5,-215 143.5,-215 137.5,-215 131.5,-209 131.5,-203 131.5,-203 131.5,-179 131.5,-179 131.5,-173 137.5,-167 143.5,-167 143.5,-167 216.5,-167 216.5,-167 222.5,-167 228.5,-173 228.5,-179 228.5,-179 228.5,-203 228.5,-203 228.5,-209 222.5,-215 216.5,-215"/>
<text text-anchor="start" x="142" y="-197.8" font-family="Times New Roman,serif" font-size="14.00">error_settings</text>
<polygon fill="none" stroke="black" points="140,-171 140,-192 196,-192 196,-171 140,-171"/>
<text text-anchor="start" x="147" y="-177.8" font-family="Times New Roman,serif" font-size="14.00">default=</text>
<polygon fill="none" stroke="black" points="196,-171 196,-192 221,-192 221,-171 196,-171"/>
<text text-anchor="start" x="199" y="-177.8" font-family="Times New Roman,serif" font-size="14.00">{}</text>
</a>
</g>
</g>
<!-- cluster_cluster_cluster_&#45;2202121249019829706&#45;8685971429576544073&#45;417421260726540492877532400&#45;&gt;cluster_cluster_cluster_&#45;2202121249019829706&#45;8685971429576544073&#45;4174212607265404928&#45;3431188338771875485 -->
<g id="edge13" class="edge"><title>cluster_cluster_cluster_&#45;2202121249019829706&#45;8685971429576544073&#45;417421260726540492877532400&#45;&gt;cluster_cluster_cluster_&#45;2202121249019829706&#45;8685971429576544073&#45;4174212607265404928&#45;3431188338771875485</title>
<path fill="none" stroke="black" d="M140.5,-692.732C140.5,-692.732 140.5,-225.196 140.5,-225.196"/>
<polygon fill="black" stroke="black" points="144,-225.196 140.5,-215.196 137,-225.196 144,-225.196"/>
<polygon fill="none" stroke="black" points="78,-458.464 78,-479.464 128,-479.464 128,-458.464 78,-458.464"/>
<text text-anchor="start" x="81" y="-465.264" font-family="Times New Roman,serif" font-size="14.00">inp_id=</text>
<polygon fill="none" stroke="black" points="128,-458.464 128,-479.464 141,-479.464 141,-458.464 128,-458.464"/>
<text text-anchor="start" x="131" y="-465.264" font-family="Times New Roman,serif" font-size="14.00">0</text>
</g>
<!-- cluster_cluster_cluster_&#45;2202121249019829706&#45;8685971429576544073&#45;41742126072654049284712647501736754553 -->
<g id="node15" class="node"><title>cluster_cluster_cluster_&#45;2202121249019829706&#45;8685971429576544073&#45;41742126072654049284712647501736754553</title>
<g id="a_node15"><a xlink:title="A sequence of data.">
<path fill="cyan" stroke="black" d="M89,-431C89,-431 53,-431 53,-431 47,-431 41,-425 41,-419 41,-419 41,-407 41,-407 41,-401 47,-395 53,-395 53,-395 89,-395 89,-395 95,-395 101,-401 101,-407 101,-407 101,-419 101,-419 101,-425 95,-431 89,-431"/>
<text text-anchor="start" x="51.5" y="-408.8" font-family="Times New Roman,serif" font-size="14.00">wltp_h</text>
</a>
</g>
</g>
<!-- cluster_cluster_cluster_&#45;2202121249019829706&#45;8685971429576544073&#45;417421260726540492877532400&#45;&gt;cluster_cluster_cluster_&#45;2202121249019829706&#45;8685971429576544073&#45;41742126072654049284712647501736754553 -->
<g id="edge14" class="edge"><title>cluster_cluster_cluster_&#45;2202121249019829706&#45;8685971429576544073&#45;417421260726540492877532400&#45;&gt;cluster_cluster_cluster_&#45;2202121249019829706&#45;8685971429576544073&#45;41742126072654049284712647501736754553</title>
<path fill="none" stroke="black" d="M107.5,-696.855C107.5,-639.377 107.5,-413 107.5,-413 107.5,-413 106.864,-413 106.864,-413"/>
<polygon fill="black" stroke="black" points="111.142,-409.5 101.142,-413 111.142,-416.5 111.142,-409.5"/>
<polygon fill="none" stroke="black" points="45,-554.11 45,-575.11 95,-575.11 95,-554.11 45,-554.11"/>
<text text-anchor="start" x="48" y="-560.91" font-family="Times New Roman,serif" font-size="14.00">inp_id=</text>
<polygon fill="none" stroke="black" points="95,-554.11 95,-575.11 108,-575.11 108,-554.11 95,-554.11"/>
<text text-anchor="start" x="98" y="-560.91" font-family="Times New Roman,serif" font-size="14.00">2</text>
</g>
<!-- cluster_cluster_cluster_&#45;2202121249019829706&#45;8685971429576544073&#45;4174212607265404928&#45;4779657526738643707 -->
<g id="node16" class="node"><title>cluster_cluster_cluster_&#45;2202121249019829706&#45;8685971429576544073&#45;4174212607265404928&#45;4779657526738643707</title>
<g id="a_node16"><a xlink:title="A sequence of data.">
<path fill="cyan" stroke="black" d="M504,-576.5C504,-576.5 472,-576.5 472,-576.5 466,-576.5 460,-570.5 460,-564.5 460,-564.5 460,-552.5 460,-552.5 460,-546.5 466,-540.5 472,-540.5 472,-540.5 504,-540.5 504,-540.5 510,-540.5 516,-546.5 516,-552.5 516,-552.5 516,-564.5 516,-564.5 516,-570.5 510,-576.5 504,-576.5"/>
<text text-anchor="start" x="470.5" y="-554.3" font-family="Times New Roman,serif" font-size="14.00">wltp_l</text>
</a>
</g>
</g>
<!-- cluster_cluster_cluster_&#45;2202121249019829706&#45;8685971429576544073&#45;417421260726540492877532400&#45;&gt;cluster_cluster_cluster_&#45;2202121249019829706&#45;8685971429576544073&#45;4174212607265404928&#45;4779657526738643707 -->
<g id="edge15" class="edge"><title>cluster_cluster_cluster_&#45;2202121249019829706&#45;8685971429576544073&#45;417421260726540492877532400&#45;&gt;cluster_cluster_cluster_&#45;2202121249019829706&#45;8685971429576544073&#45;4174212607265404928&#45;4779657526738643707</title>
<path fill="none" stroke="black" d="M149.5,-695.31C149.5,-683.199 149.5,-668 149.5,-668 149.5,-668 488,-668 488,-668 488,-668 488,-586.582 488,-586.582"/>
<polygon fill="black" stroke="black" points="491.5,-586.582 488,-576.582 484.5,-586.582 491.5,-586.582"/>
<polygon fill="none" stroke="black" points="346.304,-667.5 346.304,-688.5 396.304,-688.5 396.304,-667.5 346.304,-667.5"/>
<text text-anchor="start" x="349.304" y="-674.3" font-family="Times New Roman,serif" font-size="14.00">inp_id=</text>
<polygon fill="none" stroke="black" points="396.304,-667.5 396.304,-688.5 409.304,-688.5 409.304,-667.5 396.304,-667.5"/>
<text text-anchor="start" x="399.304" y="-674.3" font-family="Times New Roman,serif" font-size="14.00">1</text>
</g>
<!-- cluster_cluster_cluster_&#45;2202121249019829706&#45;8685971429576544073&#45;4174212607265404928&#45;2181095411792409824 -->
<g id="node2" class="node"><title>cluster_cluster_cluster_&#45;2202121249019829706&#45;8685971429576544073&#45;4174212607265404928&#45;2181095411792409824</title>
<g id="a_node2"><a xlink:title="A sequence of data.">
<path fill="cyan" stroke="black" d="M347,-359C347,-359 247,-359 247,-359 241,-359 235,-353 235,-347 235,-347 235,-335 235,-335 235,-329 241,-323 247,-323 247,-323 347,-323 347,-323 353,-323 359,-329 359,-335 359,-335 359,-347 359,-347 359,-353 353,-359 347,-359"/>
<text text-anchor="start" x="245.5" y="-336.8" font-family="Times New Roman,serif" font-size="14.00">calibrated_models</text>
</a>
</g>
</g>
<!-- cluster_cluster_cluster_&#45;2202121249019829706&#45;8685971429576544073&#45;4174212607265404928&#45;7067757294929678007 -->
<g id="node3" class="node"><title>cluster_cluster_cluster_&#45;2202121249019829706&#45;8685971429576544073&#45;4174212607265404928&#45;7067757294929678007</title>
<g id="a_node3"><a xlink:href="./../alternator_model_selector/AM-wltp_h_errors/co2mpas.dispatcher.utils.dspmap_list.txt" xlink:title="Returns a new dict.">
<polygon fill="springgreen" stroke="black" points="102,-287 34,-287 34,-251 102,-251 102,-287"/>
<text text-anchor="start" x="44" y="-264.8" font-family="Times New Roman,serif" font-size="14.00">map_list</text>
</a>
</g>
</g>
<!-- cluster_cluster_cluster_&#45;2202121249019829706&#45;8685971429576544073&#45;4174212607265404928&#45;2181095411792409824&#45;&gt;cluster_cluster_cluster_&#45;2202121249019829706&#45;8685971429576544073&#45;4174212607265404928&#45;7067757294929678007 -->
<g id="edge1" class="edge"><title>cluster_cluster_cluster_&#45;2202121249019829706&#45;8685971429576544073&#45;4174212607265404928&#45;2181095411792409824&#45;&gt;cluster_cluster_cluster_&#45;2202121249019829706&#45;8685971429576544073&#45;4174212607265404928&#45;7067757294929678007</title>
<path fill="none" stroke="black" d="M242,-322.831C242,-301.502 242,-269 242,-269 242,-269 112.377,-269 112.377,-269"/>
<polygon fill="black" stroke="black" points="112.377,-265.5 102.377,-269 112.377,-272.5 112.377,-265.5"/>
</g>
<!-- cluster_cluster_cluster_&#45;2202121249019829706&#45;8685971429576544073&#45;41742126072654049284298277636058170859 -->
<g id="node4" class="node"><title>cluster_cluster_cluster_&#45;2202121249019829706&#45;8685971429576544073&#45;41742126072654049284298277636058170859</title>
<g id="a_node4"><a xlink:href="./../alternator_model_selector/AM-wltp_h_errors/co2mpas.dispatcher.utils.dspmap_list.txt" xlink:title="Returns a new dict.">
<polygon fill="springgreen" stroke="black" points="343,-287 251,-287 251,-251 343,-251 343,-287"/>
<text text-anchor="start" x="261.5" y="-264.8" font-family="Times New Roman,serif" font-size="14.00">map_list&lt;0&gt;</text>
</a>
</g>
</g>
<!-- cluster_cluster_cluster_&#45;2202121249019829706&#45;8685971429576544073&#45;4174212607265404928&#45;2181095411792409824&#45;&gt;cluster_cluster_cluster_&#45;2202121249019829706&#45;8685971429576544073&#45;41742126072654049284298277636058170859 -->
<g id="edge2" class="edge"><title>cluster_cluster_cluster_&#45;2202121249019829706&#45;8685971429576544073&#45;4174212607265404928&#45;2181095411792409824&#45;&gt;cluster_cluster_cluster_&#45;2202121249019829706&#45;8685971429576544073&#45;41742126072654049284298277636058170859</title>
<path fill="none" stroke="black" d="M297,-322.831C297,-322.831 297,-297.413 297,-297.413"/>
<polygon fill="black" stroke="black" points="300.5,-297.413 297,-287.413 293.5,-297.413 300.5,-297.413"/>
</g>
<!-- cluster_cluster_cluster_&#45;2202121249019829706&#45;8685971429576544073&#45;41742126072654049287702748476113788344 -->
<g id="node11" class="node"><title>cluster_cluster_cluster_&#45;2202121249019829706&#45;8685971429576544073&#45;41742126072654049287702748476113788344</title>
<g id="a_node11"><a xlink:title="A unique dict with new values.">
<path fill="cyan" stroke="black" d="M101,-209C101,-209 35,-209 35,-209 29,-209 23,-203 23,-197 23,-197 23,-185 23,-185 23,-179 29,-173 35,-173 35,-173 101,-173 101,-173 107,-173 113,-179 113,-185 113,-185 113,-197 113,-197 113,-203 107,-209 101,-209"/>
<text text-anchor="start" x="33" y="-186.8" font-family="Times New Roman,serif" font-size="14.00">input/wltp_h</text>
</a>
</g>
</g>
<!-- cluster_cluster_cluster_&#45;2202121249019829706&#45;8685971429576544073&#45;4174212607265404928&#45;7067757294929678007&#45;&gt;cluster_cluster_cluster_&#45;2202121249019829706&#45;8685971429576544073&#45;41742126072654049287702748476113788344 -->
<g id="edge3" class="edge"><title>cluster_cluster_cluster_&#45;2202121249019829706&#45;8685971429576544073&#45;4174212607265404928&#45;7067757294929678007&#45;&gt;cluster_cluster_cluster_&#45;2202121249019829706&#45;8685971429576544073&#45;41742126072654049287702748476113788344</title>
<path fill="none" stroke="black" d="M68,-250.909C68,-250.909 68,-219.263 68,-219.263"/>
<polygon fill="black" stroke="black" points="71.5001,-219.263 68,-209.263 64.5001,-219.263 71.5001,-219.263"/>
</g>
<!-- cluster_cluster_cluster_&#45;2202121249019829706&#45;8685971429576544073&#45;41742126072654049284919105944985796052 -->
<g id="node12" class="node"><title>cluster_cluster_cluster_&#45;2202121249019829706&#45;8685971429576544073&#45;41742126072654049284919105944985796052</title>
<g id="a_node12"><a xlink:title="A unique dict with new values.">
<path fill="cyan" stroke="black" d="M325,-209C325,-209 261,-209 261,-209 255,-209 249,-203 249,-197 249,-197 249,-185 249,-185 249,-179 255,-173 261,-173 261,-173 325,-173 325,-173 331,-173 337,-179 337,-185 337,-185 337,-197 337,-197 337,-203 331,-209 325,-209"/>
<text text-anchor="start" x="259.5" y="-186.8" font-family="Times New Roman,serif" font-size="14.00">input/wltp_l</text>
</a>
</g>
</g>
<!-- cluster_cluster_cluster_&#45;2202121249019829706&#45;8685971429576544073&#45;41742126072654049284298277636058170859&#45;&gt;cluster_cluster_cluster_&#45;2202121249019829706&#45;8685971429576544073&#45;41742126072654049284919105944985796052 -->
<g id="edge4" class="edge"><title>cluster_cluster_cluster_&#45;2202121249019829706&#45;8685971429576544073&#45;41742126072654049284298277636058170859&#45;&gt;cluster_cluster_cluster_&#45;2202121249019829706&#45;8685971429576544073&#45;41742126072654049284919105944985796052</title>
<path fill="none" stroke="black" d="M294,-250.909C294,-250.909 294,-219.263 294,-219.263"/>
<polygon fill="black" stroke="black" points="297.5,-219.263 294,-209.263 290.5,-219.263 297.5,-219.263"/>
</g>
<!-- cluster_cluster_cluster_&#45;2202121249019829706&#45;8685971429576544073&#45;4174212607265404928978186106006331128 -->
<g id="node5" class="node"><title>cluster_cluster_cluster_&#45;2202121249019829706&#45;8685971429576544073&#45;4174212607265404928978186106006331128</title>
<g id="a_node5"><a xlink:href="./AM-wltp_l_errors/AM-wltp_l_error_vs_wltp_h.gv.svg" xlink:title="Calculates the error of calibrated model of a reference.">
<polygon fill="yellow" stroke="black" points="166,-131 0,-131 0,-95 172,-95 172,-125 166,-131"/>
<polyline fill="none" stroke="black" points="166,-131 166,-125 "/>
<polyline fill="none" stroke="black" points="172,-125 166,-125 "/>
<text text-anchor="start" x="10.5" y="-108.8" font-family="Times New Roman,serif" font-size="14.00">AM&#45;wltp_l error vs wltp_h</text>
</a>
</g>
</g>
<!-- cluster_cluster_cluster_&#45;2202121249019829706&#45;8685971429576544073&#45;4174212607265404928&#45;2427563387242055365 -->
<g id="node8" class="node"><title>cluster_cluster_cluster_&#45;2202121249019829706&#45;8685971429576544073&#45;4174212607265404928&#45;2427563387242055365</title>
<g id="a_node8"><a xlink:title="error/wltp_h">
<path fill="cyan" stroke="black" d="M119,-59C119,-59 53,-59 53,-59 47,-59 41,-53 41,-47 41,-47 41,-35 41,-35 41,-29 47,-23 53,-23 53,-23 119,-23 119,-23 125,-23 131,-29 131,-35 131,-35 131,-47 131,-47 131,-53 125,-59 119,-59"/>
<text text-anchor="start" x="51" y="-36.8" font-family="Times New Roman,serif" font-size="14.00">error/wltp_h</text>
</a>
</g>
</g>
<!-- cluster_cluster_cluster_&#45;2202121249019829706&#45;8685971429576544073&#45;4174212607265404928978186106006331128&#45;&gt;cluster_cluster_cluster_&#45;2202121249019829706&#45;8685971429576544073&#45;4174212607265404928&#45;2427563387242055365 -->
<g id="edge5" class="edge"><title>cluster_cluster_cluster_&#45;2202121249019829706&#45;8685971429576544073&#45;4174212607265404928978186106006331128&#45;&gt;cluster_cluster_cluster_&#45;2202121249019829706&#45;8685971429576544073&#45;4174212607265404928&#45;2427563387242055365</title>
<path fill="none" stroke="black" d="M86,-94.8314C86,-94.8314 86,-69.4133 86,-69.4133"/>
<polygon fill="black" stroke="black" points="89.5001,-69.4132 86,-59.4133 82.5001,-69.4133 89.5001,-69.4132"/>
</g>
<!-- cluster_cluster_cluster_&#45;2202121249019829706&#45;8685971429576544073&#45;4174212607265404928&#45;4970331641515606702 -->
<g id="node6" class="node"><title>cluster_cluster_cluster_&#45;2202121249019829706&#45;8685971429576544073&#45;4174212607265404928&#45;4970331641515606702</title>
<g id="a_node6"><a xlink:href="./AM-wltp_l_errors/AM-wltp_l_error_vs_wltp_l.gv.svg" xlink:title="Calculates the error of calibrated model of a reference.">
<polygon fill="yellow" stroke="black" points="361,-131 199,-131 199,-95 367,-95 367,-125 361,-131"/>
<polyline fill="none" stroke="black" points="361,-131 361,-125 "/>
<polyline fill="none" stroke="black" points="367,-125 361,-125 "/>
<text text-anchor="start" x="209.5" y="-108.8" font-family="Times New Roman,serif" font-size="14.00">AM&#45;wltp_l error vs wltp_l</text>
</a>
</g>
</g>
<!-- cluster_cluster_cluster_&#45;2202121249019829706&#45;8685971429576544073&#45;4174212607265404928&#45;7302022848986384642 -->
<g id="node9" class="node"><title>cluster_cluster_cluster_&#45;2202121249019829706&#45;8685971429576544073&#45;4174212607265404928&#45;7302022848986384642</title>
<g id="a_node9"><a xlink:title="error/wltp_l">
<path fill="cyan" stroke="black" d="M314,-59C314,-59 252,-59 252,-59 246,-59 240,-53 240,-47 240,-47 240,-35 240,-35 240,-29 246,-23 252,-23 252,-23 314,-23 314,-23 320,-23 326,-29 326,-35 326,-35 326,-47 326,-47 326,-53 320,-59 314,-59"/>
<text text-anchor="start" x="250" y="-36.8" font-family="Times New Roman,serif" font-size="14.00">error/wltp_l</text>
</a>
</g>
</g>
<!-- cluster_cluster_cluster_&#45;2202121249019829706&#45;8685971429576544073&#45;4174212607265404928&#45;4970331641515606702&#45;&gt;cluster_cluster_cluster_&#45;2202121249019829706&#45;8685971429576544073&#45;4174212607265404928&#45;7302022848986384642 -->
<g id="edge6" class="edge"><title>cluster_cluster_cluster_&#45;2202121249019829706&#45;8685971429576544073&#45;4174212607265404928&#45;4970331641515606702&#45;&gt;cluster_cluster_cluster_&#45;2202121249019829706&#45;8685971429576544073&#45;4174212607265404928&#45;7302022848986384642</title>
<path fill="none" stroke="black" d="M283,-94.8314C283,-94.8314 283,-69.4133 283,-69.4133"/>
<polygon fill="black" stroke="black" points="286.5,-69.4132 283,-59.4133 279.5,-69.4133 286.5,-69.4132"/>
</g>
<!-- cluster_cluster_cluster_&#45;2202121249019829706&#45;8685971429576544073&#45;4174212607265404928&#45;1177382896934224609 -->
<g id="node7" class="node"><title>cluster_cluster_cluster_&#45;2202121249019829706&#45;8685971429576544073&#45;4174212607265404928&#45;1177382896934224609</title>
<g id="a_node7"><a xlink:title="data_in">
<path fill="cyan" stroke="black" d="M273.5,-734C273.5,-734 188.5,-734 188.5,-734 182.5,-734 176.5,-728 176.5,-722 176.5,-722 176.5,-698 176.5,-698 176.5,-692 182.5,-686 188.5,-686 188.5,-686 273.5,-686 273.5,-686 279.5,-686 285.5,-692 285.5,-698 285.5,-698 285.5,-722 285.5,-722 285.5,-728 279.5,-734 273.5,-734"/>
<text text-anchor="start" x="211" y="-716.8" font-family="Times New Roman,serif" font-size="14.00">data_in</text>
<polygon fill="none" stroke="black" points="185,-690 185,-711 237,-711 237,-690 185,-690"/>
<text text-anchor="start" x="188" y="-696.8" font-family="Times New Roman,serif" font-size="14.00">default=</text>
<polygon fill="none" stroke="black" points="237,-690 237,-711 278,-711 278,-690 237,-690"/>
<text text-anchor="start" x="240" y="-696.8" font-family="Times New Roman,serif" font-size="14.00">wltp_l</text>
</a>
</g>
</g>
<!-- cluster_cluster_cluster_&#45;2202121249019829706&#45;8685971429576544073&#45;4174212607265404928&#45;3431188338771875485&#45;&gt;cluster_cluster_cluster_&#45;2202121249019829706&#45;8685971429576544073&#45;4174212607265404928978186106006331128 -->
<g id="edge7" class="edge"><title>cluster_cluster_cluster_&#45;2202121249019829706&#45;8685971429576544073&#45;4174212607265404928&#45;3431188338771875485&#45;&gt;cluster_cluster_cluster_&#45;2202121249019829706&#45;8685971429576544073&#45;4174212607265404928978186106006331128</title>
<path fill="none" stroke="black" d="M151.75,-166.748C151.75,-166.748 151.75,-141.288 151.75,-141.288"/>
<polygon fill="black" stroke="black" points="155.25,-141.287 151.75,-131.288 148.25,-141.288 155.25,-141.287"/>
</g>
<!-- cluster_cluster_cluster_&#45;2202121249019829706&#45;8685971429576544073&#45;4174212607265404928&#45;3431188338771875485&#45;&gt;cluster_cluster_cluster_&#45;2202121249019829706&#45;8685971429576544073&#45;4174212607265404928&#45;4970331641515606702 -->
<g id="edge8" class="edge"><title>cluster_cluster_cluster_&#45;2202121249019829706&#45;8685971429576544073&#45;4174212607265404928&#45;3431188338771875485&#45;&gt;cluster_cluster_cluster_&#45;2202121249019829706&#45;8685971429576544073&#45;4174212607265404928&#45;4970331641515606702</title>
<path fill="none" stroke="black" d="M213.75,-166.748C213.75,-166.748 213.75,-141.288 213.75,-141.288"/>
<polygon fill="black" stroke="black" points="217.25,-141.287 213.75,-131.288 210.25,-141.288 217.25,-141.287"/>
</g>
<!-- cluster_cluster_cluster_&#45;2202121249019829706&#45;8685971429576544073&#45;41742126072654049287702748476113788344&#45;&gt;cluster_cluster_cluster_&#45;2202121249019829706&#45;8685971429576544073&#45;4174212607265404928978186106006331128 -->
<g id="edge9" class="edge"><title>cluster_cluster_cluster_&#45;2202121249019829706&#45;8685971429576544073&#45;41742126072654049287702748476113788344&#45;&gt;cluster_cluster_cluster_&#45;2202121249019829706&#45;8685971429576544073&#45;4174212607265404928978186106006331128</title>
<path fill="none" stroke="black" d="M68,-172.909C68,-172.909 68,-141.263 68,-141.263"/>
<polygon fill="black" stroke="black" points="71.5001,-141.263 68,-131.263 64.5001,-141.263 71.5001,-141.263"/>
</g>
<!-- cluster_cluster_cluster_&#45;2202121249019829706&#45;8685971429576544073&#45;41742126072654049284919105944985796052&#45;&gt;cluster_cluster_cluster_&#45;2202121249019829706&#45;8685971429576544073&#45;4174212607265404928&#45;4970331641515606702 -->
<g id="edge10" class="edge"><title>cluster_cluster_cluster_&#45;2202121249019829706&#45;8685971429576544073&#45;41742126072654049284919105944985796052&#45;&gt;cluster_cluster_cluster_&#45;2202121249019829706&#45;8685971429576544073&#45;4174212607265404928&#45;4970331641515606702</title>
<path fill="none" stroke="black" d="M293,-172.909C293,-172.909 293,-141.263 293,-141.263"/>
<polygon fill="black" stroke="black" points="296.5,-141.263 293,-131.263 289.5,-141.263 296.5,-141.263"/>
</g>
<!-- cluster_cluster_cluster_&#45;2202121249019829706&#45;8685971429576544073&#45;4174212607265404928&#45;3274255707223734200 -->
<g id="node13" class="node"><title>cluster_cluster_cluster_&#45;2202121249019829706&#45;8685971429576544073&#45;4174212607265404928&#45;3274255707223734200</title>
<g id="a_node13"><a xlink:title="models">
<path fill="cyan" stroke="black" d="M429.5,-650C429.5,-650 170.5,-650 170.5,-650 164.5,-650 158.5,-644 158.5,-638 158.5,-638 158.5,-479 158.5,-479 158.5,-473 164.5,-467 170.5,-467 170.5,-467 429.5,-467 429.5,-467 435.5,-467 441.5,-473 441.5,-479 441.5,-479 441.5,-638 441.5,-638 441.5,-644 435.5,-650 429.5,-650"/>
<text text-anchor="start" x="280" y="-632.3" font-family="Times New Roman,serif" font-size="14.00">models</text>
<polygon fill="none" stroke="black" points="167,-470.5 167,-626.5 219,-626.5 219,-470.5 167,-470.5"/>
<text text-anchor="start" x="170" y="-544.8" font-family="Times New Roman,serif" font-size="14.00">default=</text>
<polygon fill="none" stroke="black" points="219,-470.5 219,-626.5 434,-626.5 434,-470.5 219,-470.5"/>
<text text-anchor="start" x="281.5" y="-612.3" font-family="Times New Roman,serif" font-size="14.00">[&#39;MVL&#39;, &#39;CMV&#39;,</text>
<text text-anchor="start" x="272" y="-597.3" font-family="Times New Roman,serif" font-size="14.00"> &#39;CMV_Cold_Hot&#39;,</text>
<text text-anchor="start" x="262.5" y="-582.3" font-family="Times New Roman,serif" font-size="14.00"> &#39;DT_VA&#39;, &#39;DT_VAT&#39;,</text>
<text text-anchor="start" x="292.5" y="-567.3" font-family="Times New Roman,serif" font-size="14.00"> &#39;DT_VAP&#39;,</text>
<text text-anchor="start" x="263" y="-552.3" font-family="Times New Roman,serif" font-size="14.00"> &#39;DT_VATP&#39;, &#39;GSPV&#39;,</text>
<text text-anchor="start" x="269" y="-537.3" font-family="Times New Roman,serif" font-size="14.00"> &#39;GSPV_Cold_Hot&#39;,</text>
<text text-anchor="start" x="258.5" y="-522.3" font-family="Times New Roman,serif" font-size="14.00"> &#39;specific_gear_shifting&#39;,</text>
<text text-anchor="start" x="239.5" y="-507.3" font-family="Times New Roman,serif" font-size="14.00"> &#39;change_gear_window_width&#39;,</text>
<text text-anchor="start" x="222" y="-492.3" font-family="Times New Roman,serif" font-size="14.00"> &#39;max_velocity_full_load_correction&#39;,</text>
<text text-anchor="start" x="263" y="-477.3" font-family="Times New Roman,serif" font-size="14.00"> &#39;plateau_acceleration&#39;]</text>
</a>
</g>
</g>
<!-- cluster_cluster_cluster_&#45;2202121249019829706&#45;8685971429576544073&#45;4174212607265404928&#45;8800720961443810657 -->
<g id="node14" class="node"><title>cluster_cluster_cluster_&#45;2202121249019829706&#45;8685971429576544073&#45;4174212607265404928&#45;8800720961443810657</title>
<g id="a_node14"><a xlink:href="./AM-wltp_h_errors/select_models.txt" xlink:title="select_models">
<polygon fill="springgreen" stroke="black" points="350,-431 250,-431 250,-395 350,-395 350,-431"/>
<text text-anchor="start" x="260" y="-408.8" font-family="Times New Roman,serif" font-size="14.00">select_models</text>
</a>
</g>
</g>
<!-- cluster_cluster_cluster_&#45;2202121249019829706&#45;8685971429576544073&#45;4174212607265404928&#45;3274255707223734200&#45;&gt;cluster_cluster_cluster_&#45;2202121249019829706&#45;8685971429576544073&#45;4174212607265404928&#45;8800720961443810657 -->
<g id="edge11" class="edge"><title>cluster_cluster_cluster_&#45;2202121249019829706&#45;8685971429576544073&#45;4174212607265404928&#45;3274255707223734200&#45;&gt;cluster_cluster_cluster_&#45;2202121249019829706&#45;8685971429576544073&#45;4174212607265404928&#45;8800720961443810657</title>
<path fill="none" stroke="black" d="M300,-466.765C300,-466.765 300,-441.352 300,-441.352"/>
<polygon fill="black" stroke="black" points="303.5,-441.352 300,-431.352 296.5,-441.352 303.5,-441.352"/>
</g>
<!-- cluster_cluster_cluster_&#45;2202121249019829706&#45;8685971429576544073&#45;4174212607265404928&#45;8800720961443810657&#45;&gt;cluster_cluster_cluster_&#45;2202121249019829706&#45;8685971429576544073&#45;4174212607265404928&#45;2181095411792409824 -->
<g id="edge12" class="edge"><title>cluster_cluster_cluster_&#45;2202121249019829706&#45;8685971429576544073&#45;4174212607265404928&#45;8800720961443810657&#45;&gt;cluster_cluster_cluster_&#45;2202121249019829706&#45;8685971429576544073&#45;4174212607265404928&#45;2181095411792409824</title>
<path fill="none" stroke="black" d="M300,-394.831C300,-394.831 300,-369.413 300,-369.413"/>
<polygon fill="black" stroke="black" points="303.5,-369.413 300,-359.413 296.5,-369.413 303.5,-369.413"/>
</g>
<!-- cluster_cluster_cluster_&#45;2202121249019829706&#45;8685971429576544073&#45;41742126072654049284712647501736754553&#45;&gt;cluster_cluster_cluster_&#45;2202121249019829706&#45;8685971429576544073&#45;4174212607265404928&#45;7067757294929678007 -->
<g id="edge16" class="edge"><title>cluster_cluster_cluster_&#45;2202121249019829706&#45;8685971429576544073&#45;41742126072654049284712647501736754553&#45;&gt;cluster_cluster_cluster_&#45;2202121249019829706&#45;8685971429576544073&#45;4174212607265404928&#45;7067757294929678007</title>
<path fill="none" stroke="black" d="M71,-394.762C71,-394.762 71,-297.09 71,-297.09"/>
<polygon fill="black" stroke="black" points="74.5001,-297.09 71,-287.09 67.5001,-297.09 74.5001,-297.09"/>
</g>
<!-- cluster_cluster_cluster_&#45;2202121249019829706&#45;8685971429576544073&#45;4174212607265404928&#45;4779657526738643707&#45;&gt;cluster_cluster_cluster_&#45;2202121249019829706&#45;8685971429576544073&#45;41742126072654049284298277636058170859 -->
<g id="edge17" class="edge"><title>cluster_cluster_cluster_&#45;2202121249019829706&#45;8685971429576544073&#45;4174212607265404928&#45;4779657526738643707&#45;&gt;cluster_cluster_cluster_&#45;2202121249019829706&#45;8685971429576544073&#45;41742126072654049284298277636058170859</title>
<path fill="none" stroke="black" d="M497.333,-540.39C497.333,-477.012 497.333,-269 497.333,-269 497.333,-269 353.212,-269 353.212,-269"/>
<polygon fill="black" stroke="black" points="353.212,-265.5 343.212,-269 353.212,-272.5 353.212,-265.5"/>
</g>
<!-- cluster_cluster_cluster_&#45;2202121249019829706&#45;8685971429576544073&#45;4174212607265404928&#45;4779657526738643707&#45;&gt;cluster_cluster_cluster_&#45;2202121249019829706&#45;8685971429576544073&#45;4174212607265404928&#45;8800720961443810657 -->
<g id="edge18" class="edge"><title>cluster_cluster_cluster_&#45;2202121249019829706&#45;8685971429576544073&#45;4174212607265404928&#45;4779657526738643707&#45;&gt;cluster_cluster_cluster_&#45;2202121249019829706&#45;8685971429576544073&#45;4174212607265404928&#45;8800720961443810657</title>
<path fill="none" stroke="black" d="M478.667,-540.367C478.667,-501.363 478.667,-413 478.667,-413 478.667,-413 360.244,-413 360.244,-413"/>
<polygon fill="black" stroke="black" points="360.244,-409.5 350.244,-413 360.244,-416.5 360.244,-409.5"/>
</g>
</g>
</svg>
