<?xml version="1.0" encoding="UTF-8" standalone="no"?>
<!DOCTYPE svg PUBLIC "-//W3C//DTD SVG 1.1//EN"
 "http://www.w3.org/Graphics/SVG/1.1/DTD/svg11.dtd">
<!-- Generated by graphviz version 2.38.0 (20140413.2041)
 -->
<!-- Title: cluster_CP&#45;ALL errors Pages: 1 -->
<svg width="491pt" height="652pt"
 viewBox="0.00 0.00 491.00 652.00" xmlns="http://www.w3.org/2000/svg" xmlns:xlink="http://www.w3.org/1999/xlink">
<g id="graph0" class="graph" transform="scale(1 1) rotate(0) translate(4 648)">
<title>cluster_CP&#45;ALL errors</title>
<polygon fill="white" stroke="none" points="-4,4 -4,-648 487,-648 487,4 -4,4"/>
<text text-anchor="start" x="198.5" y="-7.8" font-family="Times New Roman,serif" font-size="14.00">CP&#45;ALL errors</text>
<!-- cluster_cluster_cluster_&#45;2202121249019829706&#45;3455702456171201897772583610634927022777532400 -->
<g id="node1" class="node"><title>cluster_cluster_cluster_&#45;2202121249019829706&#45;3455702456171201897772583610634927022777532400</title>
<g id="a_node1"><a xlink:title="start">
<polygon fill="red" stroke="black" points="291.683,-602.049 293.459,-602.148 295.216,-602.295 296.948,-602.491 298.648,-602.735 300.308,-603.027 301.923,-603.364 303.485,-603.748 304.989,-604.176 306.429,-604.647 307.8,-605.161 309.098,-605.715 310.317,-606.308 311.455,-606.939 312.507,-607.605 313.472,-608.306 314.346,-609.039 315.127,-609.801 315.815,-610.592 316.408,-611.408 316.906,-612.248 317.309,-613.109 317.617,-613.989 317.832,-614.886 317.956,-615.797 317.989,-616.719 317.934,-617.65 317.794,-618.587 317.571,-619.529 317.269,-620.471 316.89,-621.413 316.439,-622.35 315.918,-623.281 315.332,-624.203 314.685,-625.114 313.981,-626.011 313.223,-626.891 312.415,-627.752 311.561,-628.592 310.666,-629.408 309.732,-630.199 308.764,-630.961 307.764,-631.694 306.737,-632.395 305.684,-633.061 304.61,-633.692 303.516,-634.285 302.405,-634.839 301.28,-635.353 300.142,-635.824 298.994,-636.252 297.837,-636.636 296.672,-636.973 295.501,-637.265 294.325,-637.509 293.145,-637.705 291.963,-637.852 290.779,-637.951 289.593,-638 288.407,-638 287.221,-637.951 286.037,-637.852 284.855,-637.705 283.675,-637.509 282.499,-637.265 281.328,-636.973 280.163,-636.636 279.006,-636.252 277.858,-635.824 276.72,-635.353 275.595,-634.839 274.484,-634.285 273.39,-633.692 272.316,-633.061 271.263,-632.395 270.236,-631.694 269.236,-630.961 268.268,-630.199 267.334,-629.408 266.439,-628.592 265.585,-627.752 264.777,-626.891 264.019,-626.011 263.315,-625.114 262.668,-624.203 262.082,-623.281 261.561,-622.35 261.11,-621.413 260.731,-620.471 260.429,-619.529 260.206,-618.587 260.066,-617.65 260.011,-616.719 260.044,-615.797 260.168,-614.886 260.383,-613.989 260.691,-613.109 261.094,-612.248 261.592,-611.408 262.185,-610.592 262.873,-609.801 263.654,-609.039 264.528,-608.306 265.493,-607.605 266.545,-606.939 267.683,-606.308 268.902,-605.715 270.2,-605.161 271.571,-604.647 273.011,-604.176 274.515,-603.748 276.077,-603.364 277.692,-603.027 279.352,-602.735 281.052,-602.491 282.784,-602.295 284.541,-602.148 286.317,-602.049 288.105,-602 289.895,-602 291.683,-602.049"/>
<text text-anchor="middle" x="289" y="-616.3" font-family="Times New Roman,serif" font-size="14.00">start</text>
</a>
</g>
</g>
<!-- cluster_cluster_cluster_&#45;2202121249019829706&#45;34557024561712018977725836106349270227&#45;5485245409668527061 -->
<g id="node2" class="node"><title>cluster_cluster_cluster_&#45;2202121249019829706&#45;34557024561712018977725836106349270227&#45;5485245409668527061</title>
<g id="a_node2"><a xlink:title="A dictionary.">
<path fill="cyan" stroke="black" d="M471,-531.5C471,-531.5 441,-531.5 441,-531.5 435,-531.5 429,-525.5 429,-519.5 429,-519.5 429,-507.5 429,-507.5 429,-501.5 435,-495.5 441,-495.5 441,-495.5 471,-495.5 471,-495.5 477,-495.5 483,-501.5 483,-507.5 483,-507.5 483,-519.5 483,-519.5 483,-525.5 477,-531.5 471,-531.5"/>
<text text-anchor="start" x="442.5" y="-509.3" font-family="Times New Roman,serif" font-size="14.00">ALL</text>
</a>
</g>
</g>
<!-- cluster_cluster_cluster_&#45;2202121249019829706&#45;3455702456171201897772583610634927022777532400&#45;&gt;cluster_cluster_cluster_&#45;2202121249019829706&#45;34557024561712018977725836106349270227&#45;5485245409668527061 -->
<g id="edge14" class="edge"><title>cluster_cluster_cluster_&#45;2202121249019829706&#45;3455702456171201897772583610634927022777532400&#45;&gt;cluster_cluster_cluster_&#45;2202121249019829706&#45;34557024561712018977725836106349270227&#45;5485245409668527061</title>
<path fill="none" stroke="black" d="M298.581,-602.422C298.581,-593.283 298.581,-584 298.581,-584 298.581,-584 432.75,-584 432.75,-584 432.75,-584 432.75,-541.656 432.75,-541.656"/>
<polygon fill="black" stroke="black" points="436.25,-541.655 432.75,-531.656 429.25,-541.656 436.25,-541.655"/>
<polygon fill="none" stroke="black" points="315.127,-562.5 315.127,-583.5 365.127,-583.5 365.127,-562.5 315.127,-562.5"/>
<text text-anchor="start" x="318.127" y="-569.3" font-family="Times New Roman,serif" font-size="14.00">inp_id=</text>
<polygon fill="none" stroke="black" points="365.127,-562.5 365.127,-583.5 378.127,-583.5 378.127,-562.5 365.127,-562.5"/>
<text text-anchor="start" x="368.127" y="-569.3" font-family="Times New Roman,serif" font-size="14.00">1</text>
</g>
<!-- cluster_cluster_cluster_&#45;2202121249019829706&#45;34557024561712018977725836106349270227&#45;3431188338771875485 -->
<g id="node11" class="node"><title>cluster_cluster_cluster_&#45;2202121249019829706&#45;34557024561712018977725836106349270227&#45;3431188338771875485</title>
<g id="a_node11"><a xlink:title="error_settings">
<path fill="cyan" stroke="black" d="M208.5,-215C208.5,-215 135.5,-215 135.5,-215 129.5,-215 123.5,-209 123.5,-203 123.5,-203 123.5,-179 123.5,-179 123.5,-173 129.5,-167 135.5,-167 135.5,-167 208.5,-167 208.5,-167 214.5,-167 220.5,-173 220.5,-179 220.5,-179 220.5,-203 220.5,-203 220.5,-209 214.5,-215 208.5,-215"/>
<text text-anchor="start" x="134" y="-197.8" font-family="Times New Roman,serif" font-size="14.00">error_settings</text>
<polygon fill="none" stroke="black" points="132,-171 132,-192 188,-192 188,-171 132,-171"/>
<text text-anchor="start" x="139" y="-177.8" font-family="Times New Roman,serif" font-size="14.00">default=</text>
<polygon fill="none" stroke="black" points="188,-171 188,-192 213,-192 213,-171 188,-171"/>
<text text-anchor="start" x="191" y="-177.8" font-family="Times New Roman,serif" font-size="14.00">{}</text>
</a>
</g>
</g>
<!-- cluster_cluster_cluster_&#45;2202121249019829706&#45;3455702456171201897772583610634927022777532400&#45;&gt;cluster_cluster_cluster_&#45;2202121249019829706&#45;34557024561712018977725836106349270227&#45;3431188338771875485 -->
<g id="edge15" class="edge"><title>cluster_cluster_cluster_&#45;2202121249019829706&#45;3455702456171201897772583610634927022777532400&#45;&gt;cluster_cluster_cluster_&#45;2202121249019829706&#45;34557024561712018977725836106349270227&#45;3431188338771875485</title>
<path fill="none" stroke="black" d="M260.147,-614C216.191,-614 137.5,-614 137.5,-614 137.5,-614 137.5,-225.262 137.5,-225.262"/>
<polygon fill="black" stroke="black" points="141,-225.262 137.5,-215.262 134,-225.262 141,-225.262"/>
<polygon fill="none" stroke="black" points="75,-480.455 75,-501.455 125,-501.455 125,-480.455 75,-480.455"/>
<text text-anchor="start" x="78" y="-487.255" font-family="Times New Roman,serif" font-size="14.00">inp_id=</text>
<polygon fill="none" stroke="black" points="125,-480.455 125,-501.455 138,-501.455 138,-480.455 125,-480.455"/>
<text text-anchor="start" x="128" y="-487.255" font-family="Times New Roman,serif" font-size="14.00">0</text>
</g>
<!-- cluster_cluster_cluster_&#45;2202121249019829706&#45;345570245617120189777258361063492702274712647501736754553 -->
<g id="node16" class="node"><title>cluster_cluster_cluster_&#45;2202121249019829706&#45;345570245617120189777258361063492702274712647501736754553</title>
<g id="a_node16"><a xlink:title="A sequence of data.">
<path fill="cyan" stroke="black" d="M81,-359C81,-359 45,-359 45,-359 39,-359 33,-353 33,-347 33,-347 33,-335 33,-335 33,-329 39,-323 45,-323 45,-323 81,-323 81,-323 87,-323 93,-329 93,-335 93,-335 93,-347 93,-347 93,-353 87,-359 81,-359"/>
<text text-anchor="start" x="43.5" y="-336.8" font-family="Times New Roman,serif" font-size="14.00">wltp_h</text>
</a>
</g>
</g>
<!-- cluster_cluster_cluster_&#45;2202121249019829706&#45;3455702456171201897772583610634927022777532400&#45;&gt;cluster_cluster_cluster_&#45;2202121249019829706&#45;345570245617120189777258361063492702274712647501736754553 -->
<g id="edge16" class="edge"><title>cluster_cluster_cluster_&#45;2202121249019829706&#45;3455702456171201897772583610634927022777532400&#45;&gt;cluster_cluster_cluster_&#45;2202121249019829706&#45;345570245617120189777258361063492702274712647501736754553</title>
<path fill="none" stroke="black" d="M263.951,-626C205.109,-626 63,-626 63,-626 63,-626 63,-369.262 63,-369.262"/>
<polygon fill="black" stroke="black" points="66.5001,-369.262 63,-359.262 59.5001,-369.262 66.5001,-369.262"/>
<polygon fill="none" stroke="black" points="0.5,-597.606 0.5,-618.606 50.5,-618.606 50.5,-597.606 0.5,-597.606"/>
<text text-anchor="start" x="3.5" y="-604.406" font-family="Times New Roman,serif" font-size="14.00">inp_id=</text>
<polygon fill="none" stroke="black" points="50.5,-597.606 50.5,-618.606 63.5,-618.606 63.5,-597.606 50.5,-597.606"/>
<text text-anchor="start" x="53.5" y="-604.406" font-family="Times New Roman,serif" font-size="14.00">2</text>
</g>
<!-- cluster_cluster_cluster_&#45;2202121249019829706&#45;34557024561712018977725836106349270227&#45;4779657526738643707 -->
<g id="node17" class="node"><title>cluster_cluster_cluster_&#45;2202121249019829706&#45;34557024561712018977725836106349270227&#45;4779657526738643707</title>
<g id="a_node17"><a xlink:title="A sequence of data.">
<path fill="cyan" stroke="black" d="M459,-431C459,-431 427,-431 427,-431 421,-431 415,-425 415,-419 415,-419 415,-407 415,-407 415,-401 421,-395 427,-395 427,-395 459,-395 459,-395 465,-395 471,-401 471,-407 471,-407 471,-419 471,-419 471,-425 465,-431 459,-431"/>
<text text-anchor="start" x="425.5" y="-408.8" font-family="Times New Roman,serif" font-size="14.00">wltp_l</text>
</a>
</g>
</g>
<!-- cluster_cluster_cluster_&#45;2202121249019829706&#45;3455702456171201897772583610634927022777532400&#45;&gt;cluster_cluster_cluster_&#45;2202121249019829706&#45;34557024561712018977725836106349270227&#45;4779657526738643707 -->
<g id="edge17" class="edge"><title>cluster_cluster_cluster_&#45;2202121249019829706&#45;3455702456171201897772583610634927022777532400&#45;&gt;cluster_cluster_cluster_&#45;2202121249019829706&#45;34557024561712018977725836106349270227&#45;4779657526738643707</title>
<path fill="none" stroke="black" d="M279.419,-602.671C279.419,-588.922 279.419,-572 279.419,-572 279.419,-572 422,-572 422,-572 422,-572 422,-441.239 422,-441.239"/>
<polygon fill="black" stroke="black" points="425.5,-441.239 422,-431.239 418.5,-441.239 425.5,-441.239"/>
<polygon fill="none" stroke="black" points="401.254,-571.5 401.254,-592.5 451.254,-592.5 451.254,-571.5 401.254,-571.5"/>
<text text-anchor="start" x="404.254" y="-578.3" font-family="Times New Roman,serif" font-size="14.00">inp_id=</text>
<polygon fill="none" stroke="black" points="451.254,-571.5 451.254,-592.5 464.254,-592.5 464.254,-571.5 451.254,-571.5"/>
<text text-anchor="start" x="454.254" y="-578.3" font-family="Times New Roman,serif" font-size="14.00">3</text>
</g>
<!-- cluster_cluster_cluster_&#45;2202121249019829706&#45;34557024561712018977725836106349270227&#45;8800720961443810657 -->
<g id="node15" class="node"><title>cluster_cluster_cluster_&#45;2202121249019829706&#45;34557024561712018977725836106349270227&#45;8800720961443810657</title>
<g id="a_node15"><a xlink:href="./../alternator_model_selector/AM-wltp_h_errors/AM-wltp_h_error_vs_wltp_h/select_inputs0.txt" xlink:title="Selects the chosen dictionary keys from the given dictionary.">
<polygon fill="springgreen" stroke="black" points="332,-431 232,-431 232,-395 332,-395 332,-431"/>
<text text-anchor="start" x="242" y="-408.8" font-family="Times New Roman,serif" font-size="14.00">select_models</text>
</a>
</g>
</g>
<!-- cluster_cluster_cluster_&#45;2202121249019829706&#45;34557024561712018977725836106349270227&#45;5485245409668527061&#45;&gt;cluster_cluster_cluster_&#45;2202121249019829706&#45;34557024561712018977725836106349270227&#45;8800720961443810657 -->
<g id="edge1" class="edge"><title>cluster_cluster_cluster_&#45;2202121249019829706&#45;34557024561712018977725836106349270227&#45;5485245409668527061&#45;&gt;cluster_cluster_cluster_&#45;2202121249019829706&#45;34557024561712018977725836106349270227&#45;8800720961443810657</title>
<path fill="none" stroke="black" d="M450,-495.189C450,-476.12 450,-449 450,-449 450,-449 298.667,-449 298.667,-449 298.667,-449 298.667,-441.422 298.667,-441.422"/>
<polygon fill="black" stroke="black" points="302.167,-441.422 298.667,-431.422 295.167,-441.422 302.167,-441.422"/>
</g>
<!-- cluster_cluster_cluster_&#45;2202121249019829706&#45;34557024561712018977725836106349270227&#45;2181095411792409824 -->
<g id="node3" class="node"><title>cluster_cluster_cluster_&#45;2202121249019829706&#45;34557024561712018977725836106349270227&#45;2181095411792409824</title>
<g id="a_node3"><a xlink:title="A sequence of data.">
<path fill="cyan" stroke="black" d="M332,-359C332,-359 232,-359 232,-359 226,-359 220,-353 220,-347 220,-347 220,-335 220,-335 220,-329 226,-323 232,-323 232,-323 332,-323 332,-323 338,-323 344,-329 344,-335 344,-335 344,-347 344,-347 344,-353 338,-359 332,-359"/>
<text text-anchor="start" x="230.5" y="-336.8" font-family="Times New Roman,serif" font-size="14.00">calibrated_models</text>
</a>
</g>
</g>
<!-- cluster_cluster_cluster_&#45;2202121249019829706&#45;34557024561712018977725836106349270227&#45;7067757294929678007 -->
<g id="node4" class="node"><title>cluster_cluster_cluster_&#45;2202121249019829706&#45;34557024561712018977725836106349270227&#45;7067757294929678007</title>
<g id="a_node4"><a xlink:href="./../alternator_model_selector/AM-wltp_h_errors/co2mpas.dispatcher.utils.dspmap_list.txt" xlink:title="Returns a new dict.">
<polygon fill="springgreen" stroke="black" points="95,-287 27,-287 27,-251 95,-251 95,-287"/>
<text text-anchor="start" x="37" y="-264.8" font-family="Times New Roman,serif" font-size="14.00">map_list</text>
</a>
</g>
</g>
<!-- cluster_cluster_cluster_&#45;2202121249019829706&#45;34557024561712018977725836106349270227&#45;2181095411792409824&#45;&gt;cluster_cluster_cluster_&#45;2202121249019829706&#45;34557024561712018977725836106349270227&#45;7067757294929678007 -->
<g id="edge2" class="edge"><title>cluster_cluster_cluster_&#45;2202121249019829706&#45;34557024561712018977725836106349270227&#45;2181095411792409824&#45;&gt;cluster_cluster_cluster_&#45;2202121249019829706&#45;34557024561712018977725836106349270227&#45;7067757294929678007</title>
<path fill="none" stroke="black" d="M228.75,-322.831C228.75,-301.502 228.75,-269 228.75,-269 228.75,-269 105.352,-269 105.352,-269"/>
<polygon fill="black" stroke="black" points="105.352,-265.5 95.3515,-269 105.351,-272.5 105.352,-265.5"/>
</g>
<!-- cluster_cluster_cluster_&#45;2202121249019829706&#45;345570245617120189777258361063492702274298277636058170859 -->
<g id="node5" class="node"><title>cluster_cluster_cluster_&#45;2202121249019829706&#45;345570245617120189777258361063492702274298277636058170859</title>
<g id="a_node5"><a xlink:href="./../alternator_model_selector/AM-wltp_h_errors/co2mpas.dispatcher.utils.dspmap_list.txt" xlink:title="Returns a new dict.">
<polygon fill="springgreen" stroke="black" points="329,-287 237,-287 237,-251 329,-251 329,-287"/>
<text text-anchor="start" x="247.5" y="-264.8" font-family="Times New Roman,serif" font-size="14.00">map_list&lt;0&gt;</text>
</a>
</g>
</g>
<!-- cluster_cluster_cluster_&#45;2202121249019829706&#45;34557024561712018977725836106349270227&#45;2181095411792409824&#45;&gt;cluster_cluster_cluster_&#45;2202121249019829706&#45;345570245617120189777258361063492702274298277636058170859 -->
<g id="edge3" class="edge"><title>cluster_cluster_cluster_&#45;2202121249019829706&#45;34557024561712018977725836106349270227&#45;2181095411792409824&#45;&gt;cluster_cluster_cluster_&#45;2202121249019829706&#45;345570245617120189777258361063492702274298277636058170859</title>
<path fill="none" stroke="black" d="M283,-322.831C283,-322.831 283,-297.413 283,-297.413"/>
<polygon fill="black" stroke="black" points="286.5,-297.413 283,-287.413 279.5,-297.413 286.5,-297.413"/>
</g>
<!-- cluster_cluster_cluster_&#45;2202121249019829706&#45;345570245617120189777258361063492702277702748476113788344 -->
<g id="node12" class="node"><title>cluster_cluster_cluster_&#45;2202121249019829706&#45;345570245617120189777258361063492702277702748476113788344</title>
<g id="a_node12"><a xlink:title="A unique dict with new values.">
<path fill="cyan" stroke="black" d="M93,-209C93,-209 27,-209 27,-209 21,-209 15,-203 15,-197 15,-197 15,-185 15,-185 15,-179 21,-173 27,-173 27,-173 93,-173 93,-173 99,-173 105,-179 105,-185 105,-185 105,-197 105,-197 105,-203 99,-209 93,-209"/>
<text text-anchor="start" x="25" y="-186.8" font-family="Times New Roman,serif" font-size="14.00">input/wltp_h</text>
</a>
</g>
</g>
<!-- cluster_cluster_cluster_&#45;2202121249019829706&#45;34557024561712018977725836106349270227&#45;7067757294929678007&#45;&gt;cluster_cluster_cluster_&#45;2202121249019829706&#45;345570245617120189777258361063492702277702748476113788344 -->
<g id="edge4" class="edge"><title>cluster_cluster_cluster_&#45;2202121249019829706&#45;34557024561712018977725836106349270227&#45;7067757294929678007&#45;&gt;cluster_cluster_cluster_&#45;2202121249019829706&#45;345570245617120189777258361063492702277702748476113788344</title>
<path fill="none" stroke="black" d="M61,-250.909C61,-250.909 61,-219.263 61,-219.263"/>
<polygon fill="black" stroke="black" points="64.5001,-219.263 61,-209.263 57.5001,-219.263 64.5001,-219.263"/>
</g>
<!-- cluster_cluster_cluster_&#45;2202121249019829706&#45;345570245617120189777258361063492702274919105944985796052 -->
<g id="node13" class="node"><title>cluster_cluster_cluster_&#45;2202121249019829706&#45;345570245617120189777258361063492702274919105944985796052</title>
<g id="a_node13"><a xlink:title="A unique dict with new values.">
<path fill="cyan" stroke="black" d="M315,-209C315,-209 251,-209 251,-209 245,-209 239,-203 239,-197 239,-197 239,-185 239,-185 239,-179 245,-173 251,-173 251,-173 315,-173 315,-173 321,-173 327,-179 327,-185 327,-185 327,-197 327,-197 327,-203 321,-209 315,-209"/>
<text text-anchor="start" x="249.5" y="-186.8" font-family="Times New Roman,serif" font-size="14.00">input/wltp_l</text>
</a>
</g>
</g>
<!-- cluster_cluster_cluster_&#45;2202121249019829706&#45;345570245617120189777258361063492702274298277636058170859&#45;&gt;cluster_cluster_cluster_&#45;2202121249019829706&#45;345570245617120189777258361063492702274919105944985796052 -->
<g id="edge5" class="edge"><title>cluster_cluster_cluster_&#45;2202121249019829706&#45;345570245617120189777258361063492702274298277636058170859&#45;&gt;cluster_cluster_cluster_&#45;2202121249019829706&#45;345570245617120189777258361063492702274919105944985796052</title>
<path fill="none" stroke="black" d="M283,-250.909C283,-250.909 283,-219.263 283,-219.263"/>
<polygon fill="black" stroke="black" points="286.5,-219.263 283,-209.263 279.5,-219.263 286.5,-219.263"/>
</g>
<!-- cluster_cluster_cluster_&#45;2202121249019829706&#45;34557024561712018977725836106349270227&#45;243988961511981678 -->
<g id="node6" class="node"><title>cluster_cluster_cluster_&#45;2202121249019829706&#45;34557024561712018977725836106349270227&#45;243988961511981678</title>
<g id="a_node6"><a xlink:href="./CP-ALL_errors/CP-ALL_error_vs_wltp_h.gv.svg" xlink:title="Calculates the error of calibrated model of a reference.">
<polygon fill="yellow" stroke="black" points="157,-131 3,-131 3,-95 163,-95 163,-125 157,-131"/>
<polyline fill="none" stroke="black" points="157,-131 157,-125 "/>
<polyline fill="none" stroke="black" points="163,-125 157,-125 "/>
<text text-anchor="start" x="13.5" y="-108.8" font-family="Times New Roman,serif" font-size="14.00">CP&#45;ALL error vs wltp_h</text>
</a>
</g>
</g>
<!-- cluster_cluster_cluster_&#45;2202121249019829706&#45;34557024561712018977725836106349270227&#45;2427563387242055365 -->
<g id="node9" class="node"><title>cluster_cluster_cluster_&#45;2202121249019829706&#45;34557024561712018977725836106349270227&#45;2427563387242055365</title>
<g id="a_node9"><a xlink:title="error/wltp_h">
<path fill="cyan" stroke="black" d="M116,-59C116,-59 50,-59 50,-59 44,-59 38,-53 38,-47 38,-47 38,-35 38,-35 38,-29 44,-23 50,-23 50,-23 116,-23 116,-23 122,-23 128,-29 128,-35 128,-35 128,-47 128,-47 128,-53 122,-59 116,-59"/>
<text text-anchor="start" x="48" y="-36.8" font-family="Times New Roman,serif" font-size="14.00">error/wltp_h</text>
</a>
</g>
</g>
<!-- cluster_cluster_cluster_&#45;2202121249019829706&#45;34557024561712018977725836106349270227&#45;243988961511981678&#45;&gt;cluster_cluster_cluster_&#45;2202121249019829706&#45;34557024561712018977725836106349270227&#45;2427563387242055365 -->
<g id="edge6" class="edge"><title>cluster_cluster_cluster_&#45;2202121249019829706&#45;34557024561712018977725836106349270227&#45;243988961511981678&#45;&gt;cluster_cluster_cluster_&#45;2202121249019829706&#45;34557024561712018977725836106349270227&#45;2427563387242055365</title>
<path fill="none" stroke="black" d="M83,-94.8314C83,-94.8314 83,-69.4133 83,-69.4133"/>
<polygon fill="black" stroke="black" points="86.5001,-69.4132 83,-59.4133 79.5001,-69.4133 86.5001,-69.4132"/>
</g>
<!-- cluster_cluster_cluster_&#45;2202121249019829706&#45;34557024561712018977725836106349270227&#45;9111655056851149263 -->
<g id="node7" class="node"><title>cluster_cluster_cluster_&#45;2202121249019829706&#45;34557024561712018977725836106349270227&#45;9111655056851149263</title>
<g id="a_node7"><a xlink:href="./CP-ALL_errors/CP-ALL_error_vs_wltp_l.gv.svg" xlink:title="Calculates the error of calibrated model of a reference.">
<polygon fill="yellow" stroke="black" points="343,-131 193,-131 193,-95 349,-95 349,-125 343,-131"/>
<polyline fill="none" stroke="black" points="343,-131 343,-125 "/>
<polyline fill="none" stroke="black" points="349,-125 343,-125 "/>
<text text-anchor="start" x="203.5" y="-108.8" font-family="Times New Roman,serif" font-size="14.00">CP&#45;ALL error vs wltp_l</text>
</a>
</g>
</g>
<!-- cluster_cluster_cluster_&#45;2202121249019829706&#45;34557024561712018977725836106349270227&#45;7302022848986384642 -->
<g id="node10" class="node"><title>cluster_cluster_cluster_&#45;2202121249019829706&#45;34557024561712018977725836106349270227&#45;7302022848986384642</title>
<g id="a_node10"><a xlink:title="error/wltp_l">
<path fill="cyan" stroke="black" d="M302,-59C302,-59 240,-59 240,-59 234,-59 228,-53 228,-47 228,-47 228,-35 228,-35 228,-29 234,-23 240,-23 240,-23 302,-23 302,-23 308,-23 314,-29 314,-35 314,-35 314,-47 314,-47 314,-53 308,-59 302,-59"/>
<text text-anchor="start" x="238" y="-36.8" font-family="Times New Roman,serif" font-size="14.00">error/wltp_l</text>
</a>
</g>
</g>
<!-- cluster_cluster_cluster_&#45;2202121249019829706&#45;34557024561712018977725836106349270227&#45;9111655056851149263&#45;&gt;cluster_cluster_cluster_&#45;2202121249019829706&#45;34557024561712018977725836106349270227&#45;7302022848986384642 -->
<g id="edge7" class="edge"><title>cluster_cluster_cluster_&#45;2202121249019829706&#45;34557024561712018977725836106349270227&#45;9111655056851149263&#45;&gt;cluster_cluster_cluster_&#45;2202121249019829706&#45;34557024561712018977725836106349270227&#45;7302022848986384642</title>
<path fill="none" stroke="black" d="M271,-94.8314C271,-94.8314 271,-69.4133 271,-69.4133"/>
<polygon fill="black" stroke="black" points="274.5,-69.4132 271,-59.4133 267.5,-69.4133 274.5,-69.4132"/>
</g>
<!-- cluster_cluster_cluster_&#45;2202121249019829706&#45;34557024561712018977725836106349270227&#45;1177382896934224609 -->
<g id="node8" class="node"><title>cluster_cluster_cluster_&#45;2202121249019829706&#45;34557024561712018977725836106349270227&#45;1177382896934224609</title>
<g id="a_node8"><a xlink:title="data_in">
<path fill="cyan" stroke="black" d="M424.5,-644C424.5,-644 347.5,-644 347.5,-644 341.5,-644 335.5,-638 335.5,-632 335.5,-632 335.5,-608 335.5,-608 335.5,-602 341.5,-596 347.5,-596 347.5,-596 424.5,-596 424.5,-596 430.5,-596 436.5,-602 436.5,-608 436.5,-608 436.5,-632 436.5,-632 436.5,-638 430.5,-644 424.5,-644"/>
<text text-anchor="start" x="366" y="-626.8" font-family="Times New Roman,serif" font-size="14.00">data_in</text>
<polygon fill="none" stroke="black" points="344,-600 344,-621 396,-621 396,-600 344,-600"/>
<text text-anchor="start" x="347" y="-606.8" font-family="Times New Roman,serif" font-size="14.00">default=</text>
<polygon fill="none" stroke="black" points="396,-600 396,-621 429,-621 429,-600 396,-600"/>
<text text-anchor="start" x="399" y="-606.8" font-family="Times New Roman,serif" font-size="14.00">ALL</text>
</a>
</g>
</g>
<!-- cluster_cluster_cluster_&#45;2202121249019829706&#45;34557024561712018977725836106349270227&#45;3431188338771875485&#45;&gt;cluster_cluster_cluster_&#45;2202121249019829706&#45;34557024561712018977725836106349270227&#45;243988961511981678 -->
<g id="edge8" class="edge"><title>cluster_cluster_cluster_&#45;2202121249019829706&#45;34557024561712018977725836106349270227&#45;3431188338771875485&#45;&gt;cluster_cluster_cluster_&#45;2202121249019829706&#45;34557024561712018977725836106349270227&#45;243988961511981678</title>
<path fill="none" stroke="black" d="M143.25,-166.748C143.25,-166.748 143.25,-141.288 143.25,-141.288"/>
<polygon fill="black" stroke="black" points="146.75,-141.287 143.25,-131.288 139.75,-141.288 146.75,-141.287"/>
</g>
<!-- cluster_cluster_cluster_&#45;2202121249019829706&#45;34557024561712018977725836106349270227&#45;3431188338771875485&#45;&gt;cluster_cluster_cluster_&#45;2202121249019829706&#45;34557024561712018977725836106349270227&#45;9111655056851149263 -->
<g id="edge9" class="edge"><title>cluster_cluster_cluster_&#45;2202121249019829706&#45;34557024561712018977725836106349270227&#45;3431188338771875485&#45;&gt;cluster_cluster_cluster_&#45;2202121249019829706&#45;34557024561712018977725836106349270227&#45;9111655056851149263</title>
<path fill="none" stroke="black" d="M206.75,-166.748C206.75,-166.748 206.75,-141.288 206.75,-141.288"/>
<polygon fill="black" stroke="black" points="210.25,-141.287 206.75,-131.288 203.25,-141.288 210.25,-141.287"/>
</g>
<!-- cluster_cluster_cluster_&#45;2202121249019829706&#45;345570245617120189777258361063492702277702748476113788344&#45;&gt;cluster_cluster_cluster_&#45;2202121249019829706&#45;34557024561712018977725836106349270227&#45;243988961511981678 -->
<g id="edge10" class="edge"><title>cluster_cluster_cluster_&#45;2202121249019829706&#45;345570245617120189777258361063492702277702748476113788344&#45;&gt;cluster_cluster_cluster_&#45;2202121249019829706&#45;34557024561712018977725836106349270227&#45;243988961511981678</title>
<path fill="none" stroke="black" d="M60,-172.909C60,-172.909 60,-141.263 60,-141.263"/>
<polygon fill="black" stroke="black" points="63.5001,-141.263 60,-131.263 56.5001,-141.263 63.5001,-141.263"/>
</g>
<!-- cluster_cluster_cluster_&#45;2202121249019829706&#45;345570245617120189777258361063492702274919105944985796052&#45;&gt;cluster_cluster_cluster_&#45;2202121249019829706&#45;34557024561712018977725836106349270227&#45;9111655056851149263 -->
<g id="edge11" class="edge"><title>cluster_cluster_cluster_&#45;2202121249019829706&#45;345570245617120189777258361063492702274919105944985796052&#45;&gt;cluster_cluster_cluster_&#45;2202121249019829706&#45;34557024561712018977725836106349270227&#45;9111655056851149263</title>
<path fill="none" stroke="black" d="M283,-172.909C283,-172.909 283,-141.263 283,-141.263"/>
<polygon fill="black" stroke="black" points="286.5,-141.263 283,-131.263 279.5,-141.263 286.5,-141.263"/>
</g>
<!-- cluster_cluster_cluster_&#45;2202121249019829706&#45;34557024561712018977725836106349270227&#45;3274255707223734200 -->
<g id="node14" class="node"><title>cluster_cluster_cluster_&#45;2202121249019829706&#45;34557024561712018977725836106349270227&#45;3274255707223734200</title>
<g id="a_node14"><a xlink:title="Keys to select.">
<path fill="cyan" stroke="black" d="M398.5,-560C398.5,-560 163.5,-560 163.5,-560 157.5,-560 151.5,-554 151.5,-548 151.5,-548 151.5,-479 151.5,-479 151.5,-473 157.5,-467 163.5,-467 163.5,-467 398.5,-467 398.5,-467 404.5,-467 410.5,-473 410.5,-479 410.5,-479 410.5,-548 410.5,-548 410.5,-554 404.5,-560 398.5,-560"/>
<text text-anchor="start" x="261" y="-542.3" font-family="Times New Roman,serif" font-size="14.00">models</text>
<polygon fill="none" stroke="black" points="160,-470.5 160,-536.5 212,-536.5 212,-470.5 160,-470.5"/>
<text text-anchor="start" x="163" y="-499.8" font-family="Times New Roman,serif" font-size="14.00">default=</text>
<polygon fill="none" stroke="black" points="212,-470.5 212,-536.5 403,-536.5 403,-470.5 212,-470.5"/>
<text text-anchor="start" x="235" y="-522.3" font-family="Times New Roman,serif" font-size="14.00">[&#39;co2_params_calibrated&#39;,</text>
<text text-anchor="start" x="251.5" y="-507.3" font-family="Times New Roman,serif" font-size="14.00"> &#39;calibration_status&#39;,</text>
<text text-anchor="start" x="238.5" y="-492.3" font-family="Times New Roman,serif" font-size="14.00"> &#39;initial_friction_params&#39;,</text>
<text text-anchor="start" x="215" y="-477.3" font-family="Times New Roman,serif" font-size="14.00"> &#39;engine_idle_fuel_consumption&#39;]</text>
</a>
</g>
</g>
<!-- cluster_cluster_cluster_&#45;2202121249019829706&#45;34557024561712018977725836106349270227&#45;3274255707223734200&#45;&gt;cluster_cluster_cluster_&#45;2202121249019829706&#45;34557024561712018977725836106349270227&#45;8800720961443810657 -->
<g id="edge12" class="edge"><title>cluster_cluster_cluster_&#45;2202121249019829706&#45;34557024561712018977725836106349270227&#45;3274255707223734200&#45;&gt;cluster_cluster_cluster_&#45;2202121249019829706&#45;34557024561712018977725836106349270227&#45;8800720961443810657</title>
<path fill="none" stroke="black" d="M265.333,-466.781C265.333,-466.781 265.333,-441.011 265.333,-441.011"/>
<polygon fill="black" stroke="black" points="268.833,-441.011 265.333,-431.011 261.833,-441.011 268.833,-441.011"/>
</g>
<!-- cluster_cluster_cluster_&#45;2202121249019829706&#45;34557024561712018977725836106349270227&#45;8800720961443810657&#45;&gt;cluster_cluster_cluster_&#45;2202121249019829706&#45;34557024561712018977725836106349270227&#45;2181095411792409824 -->
<g id="edge13" class="edge"><title>cluster_cluster_cluster_&#45;2202121249019829706&#45;34557024561712018977725836106349270227&#45;8800720961443810657&#45;&gt;cluster_cluster_cluster_&#45;2202121249019829706&#45;34557024561712018977725836106349270227&#45;2181095411792409824</title>
<path fill="none" stroke="black" d="M282,-394.831C282,-394.831 282,-369.413 282,-369.413"/>
<polygon fill="black" stroke="black" points="285.5,-369.413 282,-359.413 278.5,-369.413 285.5,-369.413"/>
</g>
<!-- cluster_cluster_cluster_&#45;2202121249019829706&#45;345570245617120189777258361063492702274712647501736754553&#45;&gt;cluster_cluster_cluster_&#45;2202121249019829706&#45;34557024561712018977725836106349270227&#45;7067757294929678007 -->
<g id="edge18" class="edge"><title>cluster_cluster_cluster_&#45;2202121249019829706&#45;345570245617120189777258361063492702274712647501736754553&#45;&gt;cluster_cluster_cluster_&#45;2202121249019829706&#45;34557024561712018977725836106349270227&#45;7067757294929678007</title>
<path fill="none" stroke="black" d="M63,-322.831C63,-322.831 63,-297.413 63,-297.413"/>
<polygon fill="black" stroke="black" points="66.5001,-297.413 63,-287.413 59.5001,-297.413 66.5001,-297.413"/>
</g>
<!-- cluster_cluster_cluster_&#45;2202121249019829706&#45;34557024561712018977725836106349270227&#45;4779657526738643707&#45;&gt;cluster_cluster_cluster_&#45;2202121249019829706&#45;345570245617120189777258361063492702274298277636058170859 -->
<g id="edge19" class="edge"><title>cluster_cluster_cluster_&#45;2202121249019829706&#45;34557024561712018977725836106349270227&#45;4779657526738643707&#45;&gt;cluster_cluster_cluster_&#45;2202121249019829706&#45;345570245617120189777258361063492702274298277636058170859</title>
<path fill="none" stroke="black" d="M443,-394.762C443,-356.014 443,-269 443,-269 443,-269 339.279,-269 339.279,-269"/>
<polygon fill="black" stroke="black" points="339.279,-265.5 329.279,-269 339.279,-272.5 339.279,-265.5"/>
</g>
</g>
</svg>
