<?xml version="1.0" encoding="UTF-8" standalone="no"?>
<!DOCTYPE svg PUBLIC "-//W3C//DTD SVG 1.1//EN"
 "http://www.w3.org/Graphics/SVG/1.1/DTD/svg11.dtd">
<!-- Generated by graphviz version 2.38.0 (20140413.2041)
 -->
<!-- Title: cluster_CP&#45;wltp_h errors Pages: 1 -->
<svg width="513pt" height="652pt"
 viewBox="0.00 0.00 513.00 652.00" xmlns="http://www.w3.org/2000/svg" xmlns:xlink="http://www.w3.org/1999/xlink">
<g id="graph0" class="graph" transform="scale(1 1) rotate(0) translate(4 648)">
<title>cluster_CP&#45;wltp_h errors</title>
<polygon fill="white" stroke="none" points="-4,4 -4,-648 509,-648 509,4 -4,4"/>
<text text-anchor="start" x="203.5" y="-7.8" font-family="Times New Roman,serif" font-size="14.00">CP&#45;wltp_h errors</text>
<!-- cluster_cluster_cluster_&#45;2202121249019829706&#45;3455702456171201897&#45;24413956268277603877532400 -->
<g id="node1" class="node"><title>cluster_cluster_cluster_&#45;2202121249019829706&#45;3455702456171201897&#45;24413956268277603877532400</title>
<g id="a_node1"><a xlink:title="start">
<polygon fill="red" stroke="black" points="141.683,-602.049 143.459,-602.148 145.216,-602.295 146.948,-602.491 148.648,-602.735 150.308,-603.027 151.923,-603.364 153.485,-603.748 154.989,-604.176 156.429,-604.647 157.8,-605.161 159.098,-605.715 160.317,-606.308 161.455,-606.939 162.507,-607.605 163.472,-608.306 164.346,-609.039 165.127,-609.801 165.815,-610.592 166.408,-611.408 166.906,-612.248 167.309,-613.109 167.617,-613.989 167.832,-614.886 167.956,-615.797 167.989,-616.719 167.934,-617.65 167.794,-618.587 167.571,-619.529 167.269,-620.471 166.89,-621.413 166.439,-622.35 165.918,-623.281 165.332,-624.203 164.685,-625.114 163.981,-626.011 163.223,-626.891 162.415,-627.752 161.561,-628.592 160.666,-629.408 159.732,-630.199 158.764,-630.961 157.764,-631.694 156.737,-632.395 155.684,-633.061 154.61,-633.692 153.516,-634.285 152.405,-634.839 151.28,-635.353 150.142,-635.824 148.994,-636.252 147.837,-636.636 146.672,-636.973 145.501,-637.265 144.325,-637.509 143.145,-637.705 141.963,-637.852 140.779,-637.951 139.593,-638 138.407,-638 137.221,-637.951 136.037,-637.852 134.855,-637.705 133.675,-637.509 132.499,-637.265 131.328,-636.973 130.163,-636.636 129.006,-636.252 127.858,-635.824 126.72,-635.353 125.595,-634.839 124.484,-634.285 123.39,-633.692 122.316,-633.061 121.263,-632.395 120.236,-631.694 119.236,-630.961 118.268,-630.199 117.334,-629.408 116.439,-628.592 115.585,-627.752 114.777,-626.891 114.019,-626.011 113.315,-625.114 112.668,-624.203 112.082,-623.281 111.561,-622.35 111.11,-621.413 110.731,-620.471 110.429,-619.529 110.206,-618.587 110.066,-617.65 110.011,-616.719 110.044,-615.797 110.168,-614.886 110.383,-613.989 110.691,-613.109 111.094,-612.248 111.592,-611.408 112.185,-610.592 112.873,-609.801 113.654,-609.039 114.528,-608.306 115.493,-607.605 116.545,-606.939 117.683,-606.308 118.902,-605.715 120.2,-605.161 121.571,-604.647 123.011,-604.176 124.515,-603.748 126.077,-603.364 127.692,-603.027 129.352,-602.735 131.052,-602.491 132.784,-602.295 134.541,-602.148 136.317,-602.049 138.105,-602 139.895,-602 141.683,-602.049"/>
<text text-anchor="middle" x="139" y="-616.3" font-family="Times New Roman,serif" font-size="14.00">start</text>
</a>
</g>
</g>
<!-- cluster_cluster_cluster_&#45;2202121249019829706&#45;3455702456171201897&#45;244139562682776038&#45;3431188338771875485 -->
<g id="node10" class="node"><title>cluster_cluster_cluster_&#45;2202121249019829706&#45;3455702456171201897&#45;244139562682776038&#45;3431188338771875485</title>
<g id="a_node10"><a xlink:title="error_settings">
<path fill="cyan" stroke="black" d="M212.5,-215C212.5,-215 139.5,-215 139.5,-215 133.5,-215 127.5,-209 127.5,-203 127.5,-203 127.5,-179 127.5,-179 127.5,-173 133.5,-167 139.5,-167 139.5,-167 212.5,-167 212.5,-167 218.5,-167 224.5,-173 224.5,-179 224.5,-179 224.5,-203 224.5,-203 224.5,-209 218.5,-215 212.5,-215"/>
<text text-anchor="start" x="138" y="-197.8" font-family="Times New Roman,serif" font-size="14.00">error_settings</text>
<polygon fill="none" stroke="black" points="136,-171 136,-192 192,-192 192,-171 136,-171"/>
<text text-anchor="start" x="143" y="-177.8" font-family="Times New Roman,serif" font-size="14.00">default=</text>
<polygon fill="none" stroke="black" points="192,-171 192,-192 217,-192 217,-171 192,-171"/>
<text text-anchor="start" x="195" y="-177.8" font-family="Times New Roman,serif" font-size="14.00">{}</text>
</a>
</g>
</g>
<!-- cluster_cluster_cluster_&#45;2202121249019829706&#45;3455702456171201897&#45;24413956268277603877532400&#45;&gt;cluster_cluster_cluster_&#45;2202121249019829706&#45;3455702456171201897&#45;244139562682776038&#45;3431188338771875485 -->
<g id="edge13" class="edge"><title>cluster_cluster_cluster_&#45;2202121249019829706&#45;3455702456171201897&#45;24413956268277603877532400&#45;&gt;cluster_cluster_cluster_&#45;2202121249019829706&#45;3455702456171201897&#45;244139562682776038&#45;3431188338771875485</title>
<path fill="none" stroke="black" d="M140.833,-601.84C140.833,-601.84 140.833,-225.035 140.833,-225.035"/>
<polygon fill="black" stroke="black" points="144.333,-225.035 140.833,-215.035 137.333,-225.035 144.333,-225.035"/>
<polygon fill="none" stroke="black" points="141.333,-412.938 141.333,-433.938 191.333,-433.938 191.333,-412.938 141.333,-412.938"/>
<text text-anchor="start" x="144.333" y="-419.738" font-family="Times New Roman,serif" font-size="14.00">inp_id=</text>
<polygon fill="none" stroke="black" points="191.333,-412.938 191.333,-433.938 204.333,-433.938 204.333,-412.938 191.333,-412.938"/>
<text text-anchor="start" x="194.333" y="-419.738" font-family="Times New Roman,serif" font-size="14.00">0</text>
</g>
<!-- cluster_cluster_cluster_&#45;2202121249019829706&#45;3455702456171201897&#45;2441395626827760384712647501736754553 -->
<g id="node15" class="node"><title>cluster_cluster_cluster_&#45;2202121249019829706&#45;3455702456171201897&#45;2441395626827760384712647501736754553</title>
<g id="a_node15"><a xlink:title="A sequence of data.">
<path fill="cyan" stroke="black" d="M493,-531.5C493,-531.5 457,-531.5 457,-531.5 451,-531.5 445,-525.5 445,-519.5 445,-519.5 445,-507.5 445,-507.5 445,-501.5 451,-495.5 457,-495.5 457,-495.5 493,-495.5 493,-495.5 499,-495.5 505,-501.5 505,-507.5 505,-507.5 505,-519.5 505,-519.5 505,-525.5 499,-531.5 493,-531.5"/>
<text text-anchor="start" x="455.5" y="-509.3" font-family="Times New Roman,serif" font-size="14.00">wltp_h</text>
</a>
</g>
</g>
<!-- cluster_cluster_cluster_&#45;2202121249019829706&#45;3455702456171201897&#45;24413956268277603877532400&#45;&gt;cluster_cluster_cluster_&#45;2202121249019829706&#45;3455702456171201897&#45;2441395626827760384712647501736754553 -->
<g id="edge14" class="edge"><title>cluster_cluster_cluster_&#45;2202121249019829706&#45;3455702456171201897&#45;24413956268277603877532400&#45;&gt;cluster_cluster_cluster_&#45;2202121249019829706&#45;3455702456171201897&#45;2441395626827760384712647501736754553</title>
<path fill="none" stroke="black" d="M154.167,-603.882C154.167,-592.038 154.167,-578 154.167,-578 154.167,-578 475,-578 475,-578 475,-578 475,-541.811 475,-541.811"/>
<polygon fill="black" stroke="black" points="478.5,-541.811 475,-531.811 471.5,-541.811 478.5,-541.811"/>
<polygon fill="none" stroke="black" points="320.237,-577.5 320.237,-598.5 370.237,-598.5 370.237,-577.5 320.237,-577.5"/>
<text text-anchor="start" x="323.237" y="-584.3" font-family="Times New Roman,serif" font-size="14.00">inp_id=</text>
<polygon fill="none" stroke="black" points="370.237,-577.5 370.237,-598.5 383.237,-598.5 383.237,-577.5 370.237,-577.5"/>
<text text-anchor="start" x="373.237" y="-584.3" font-family="Times New Roman,serif" font-size="14.00">1</text>
</g>
<!-- cluster_cluster_cluster_&#45;2202121249019829706&#45;3455702456171201897&#45;244139562682776038&#45;4779657526738643707 -->
<g id="node16" class="node"><title>cluster_cluster_cluster_&#45;2202121249019829706&#45;3455702456171201897&#45;244139562682776038&#45;4779657526738643707</title>
<g id="a_node16"><a xlink:title="A sequence of data.">
<path fill="cyan" stroke="black" d="M95,-431C95,-431 63,-431 63,-431 57,-431 51,-425 51,-419 51,-419 51,-407 51,-407 51,-401 57,-395 63,-395 63,-395 95,-395 95,-395 101,-395 107,-401 107,-407 107,-407 107,-419 107,-419 107,-425 101,-431 95,-431"/>
<text text-anchor="start" x="61.5" y="-408.8" font-family="Times New Roman,serif" font-size="14.00">wltp_l</text>
</a>
</g>
</g>
<!-- cluster_cluster_cluster_&#45;2202121249019829706&#45;3455702456171201897&#45;24413956268277603877532400&#45;&gt;cluster_cluster_cluster_&#45;2202121249019829706&#45;3455702456171201897&#45;244139562682776038&#45;4779657526738643707 -->
<g id="edge15" class="edge"><title>cluster_cluster_cluster_&#45;2202121249019829706&#45;3455702456171201897&#45;24413956268277603877532400&#45;&gt;cluster_cluster_cluster_&#45;2202121249019829706&#45;3455702456171201897&#45;244139562682776038&#45;4779657526738643707</title>
<path fill="none" stroke="black" d="M119.25,-605.444C119.25,-558.327 119.25,-413 119.25,-413 119.25,-413 117.391,-413 117.391,-413"/>
<polygon fill="black" stroke="black" points="117.391,-409.5 107.391,-413 117.391,-416.5 117.391,-409.5"/>
<polygon fill="none" stroke="black" points="56.75,-507.793 56.75,-528.793 106.75,-528.793 106.75,-507.793 56.75,-507.793"/>
<text text-anchor="start" x="59.75" y="-514.593" font-family="Times New Roman,serif" font-size="14.00">inp_id=</text>
<polygon fill="none" stroke="black" points="106.75,-507.793 106.75,-528.793 119.75,-528.793 119.75,-507.793 106.75,-507.793"/>
<text text-anchor="start" x="109.75" y="-514.593" font-family="Times New Roman,serif" font-size="14.00">2</text>
</g>
<!-- cluster_cluster_cluster_&#45;2202121249019829706&#45;3455702456171201897&#45;244139562682776038&#45;2181095411792409824 -->
<g id="node2" class="node"><title>cluster_cluster_cluster_&#45;2202121249019829706&#45;3455702456171201897&#45;244139562682776038&#45;2181095411792409824</title>
<g id="a_node2"><a xlink:title="A sequence of data.">
<path fill="cyan" stroke="black" d="M344,-359C344,-359 244,-359 244,-359 238,-359 232,-353 232,-347 232,-347 232,-335 232,-335 232,-329 238,-323 244,-323 244,-323 344,-323 344,-323 350,-323 356,-329 356,-335 356,-335 356,-347 356,-347 356,-353 350,-359 344,-359"/>
<text text-anchor="start" x="242.5" y="-336.8" font-family="Times New Roman,serif" font-size="14.00">calibrated_models</text>
</a>
</g>
</g>
<!-- cluster_cluster_cluster_&#45;2202121249019829706&#45;3455702456171201897&#45;244139562682776038&#45;7067757294929678007 -->
<g id="node3" class="node"><title>cluster_cluster_cluster_&#45;2202121249019829706&#45;3455702456171201897&#45;244139562682776038&#45;7067757294929678007</title>
<g id="a_node3"><a xlink:href="./../alternator_model_selector/AM-wltp_h_errors/co2mpas.dispatcher.utils.dspmap_list.txt" xlink:title="Returns a new dict.">
<polygon fill="springgreen" stroke="black" points="328,-287 260,-287 260,-251 328,-251 328,-287"/>
<text text-anchor="start" x="270" y="-264.8" font-family="Times New Roman,serif" font-size="14.00">map_list</text>
</a>
</g>
</g>
<!-- cluster_cluster_cluster_&#45;2202121249019829706&#45;3455702456171201897&#45;244139562682776038&#45;2181095411792409824&#45;&gt;cluster_cluster_cluster_&#45;2202121249019829706&#45;3455702456171201897&#45;244139562682776038&#45;7067757294929678007 -->
<g id="edge1" class="edge"><title>cluster_cluster_cluster_&#45;2202121249019829706&#45;3455702456171201897&#45;244139562682776038&#45;2181095411792409824&#45;&gt;cluster_cluster_cluster_&#45;2202121249019829706&#45;3455702456171201897&#45;244139562682776038&#45;7067757294929678007</title>
<path fill="none" stroke="black" d="M294,-322.831C294,-322.831 294,-297.413 294,-297.413"/>
<polygon fill="black" stroke="black" points="297.5,-297.413 294,-287.413 290.5,-297.413 297.5,-297.413"/>
</g>
<!-- cluster_cluster_cluster_&#45;2202121249019829706&#45;3455702456171201897&#45;2441395626827760384298277636058170859 -->
<g id="node4" class="node"><title>cluster_cluster_cluster_&#45;2202121249019829706&#45;3455702456171201897&#45;2441395626827760384298277636058170859</title>
<g id="a_node4"><a xlink:href="./../alternator_model_selector/AM-wltp_h_errors/co2mpas.dispatcher.utils.dspmap_list.txt" xlink:title="Returns a new dict.">
<polygon fill="springgreen" stroke="black" points="111,-287 19,-287 19,-251 111,-251 111,-287"/>
<text text-anchor="start" x="29.5" y="-264.8" font-family="Times New Roman,serif" font-size="14.00">map_list&lt;0&gt;</text>
</a>
</g>
</g>
<!-- cluster_cluster_cluster_&#45;2202121249019829706&#45;3455702456171201897&#45;244139562682776038&#45;2181095411792409824&#45;&gt;cluster_cluster_cluster_&#45;2202121249019829706&#45;3455702456171201897&#45;2441395626827760384298277636058170859 -->
<g id="edge2" class="edge"><title>cluster_cluster_cluster_&#45;2202121249019829706&#45;3455702456171201897&#45;244139562682776038&#45;2181095411792409824&#45;&gt;cluster_cluster_cluster_&#45;2202121249019829706&#45;3455702456171201897&#45;2441395626827760384298277636058170859</title>
<path fill="none" stroke="black" d="M239.5,-322.831C239.5,-301.502 239.5,-269 239.5,-269 239.5,-269 121.305,-269 121.305,-269"/>
<polygon fill="black" stroke="black" points="121.305,-265.5 111.305,-269 121.305,-272.5 121.305,-265.5"/>
</g>
<!-- cluster_cluster_cluster_&#45;2202121249019829706&#45;3455702456171201897&#45;2441395626827760387702748476113788344 -->
<g id="node11" class="node"><title>cluster_cluster_cluster_&#45;2202121249019829706&#45;3455702456171201897&#45;2441395626827760387702748476113788344</title>
<g id="a_node11"><a xlink:title="A unique dict with new values.">
<path fill="cyan" stroke="black" d="M325,-209C325,-209 259,-209 259,-209 253,-209 247,-203 247,-197 247,-197 247,-185 247,-185 247,-179 253,-173 259,-173 259,-173 325,-173 325,-173 331,-173 337,-179 337,-185 337,-185 337,-197 337,-197 337,-203 331,-209 325,-209"/>
<text text-anchor="start" x="257" y="-186.8" font-family="Times New Roman,serif" font-size="14.00">input/wltp_h</text>
</a>
</g>
</g>
<!-- cluster_cluster_cluster_&#45;2202121249019829706&#45;3455702456171201897&#45;244139562682776038&#45;7067757294929678007&#45;&gt;cluster_cluster_cluster_&#45;2202121249019829706&#45;3455702456171201897&#45;2441395626827760387702748476113788344 -->
<g id="edge3" class="edge"><title>cluster_cluster_cluster_&#45;2202121249019829706&#45;3455702456171201897&#45;244139562682776038&#45;7067757294929678007&#45;&gt;cluster_cluster_cluster_&#45;2202121249019829706&#45;3455702456171201897&#45;2441395626827760387702748476113788344</title>
<path fill="none" stroke="black" d="M294,-250.909C294,-250.909 294,-219.263 294,-219.263"/>
<polygon fill="black" stroke="black" points="297.5,-219.263 294,-209.263 290.5,-219.263 297.5,-219.263"/>
</g>
<!-- cluster_cluster_cluster_&#45;2202121249019829706&#45;3455702456171201897&#45;2441395626827760384919105944985796052 -->
<g id="node12" class="node"><title>cluster_cluster_cluster_&#45;2202121249019829706&#45;3455702456171201897&#45;2441395626827760384919105944985796052</title>
<g id="a_node12"><a xlink:title="A unique dict with new values.">
<path fill="cyan" stroke="black" d="M97,-209C97,-209 33,-209 33,-209 27,-209 21,-203 21,-197 21,-197 21,-185 21,-185 21,-179 27,-173 33,-173 33,-173 97,-173 97,-173 103,-173 109,-179 109,-185 109,-185 109,-197 109,-197 109,-203 103,-209 97,-209"/>
<text text-anchor="start" x="31.5" y="-186.8" font-family="Times New Roman,serif" font-size="14.00">input/wltp_l</text>
</a>
</g>
</g>
<!-- cluster_cluster_cluster_&#45;2202121249019829706&#45;3455702456171201897&#45;2441395626827760384298277636058170859&#45;&gt;cluster_cluster_cluster_&#45;2202121249019829706&#45;3455702456171201897&#45;2441395626827760384919105944985796052 -->
<g id="edge4" class="edge"><title>cluster_cluster_cluster_&#45;2202121249019829706&#45;3455702456171201897&#45;2441395626827760384298277636058170859&#45;&gt;cluster_cluster_cluster_&#45;2202121249019829706&#45;3455702456171201897&#45;2441395626827760384919105944985796052</title>
<path fill="none" stroke="black" d="M65,-250.909C65,-250.909 65,-219.263 65,-219.263"/>
<polygon fill="black" stroke="black" points="68.5001,-219.263 65,-209.263 61.5001,-219.263 68.5001,-219.263"/>
</g>
<!-- cluster_cluster_cluster_&#45;2202121249019829706&#45;3455702456171201897&#45;244139562682776038&#45;1046705857081048560 -->
<g id="node5" class="node"><title>cluster_cluster_cluster_&#45;2202121249019829706&#45;3455702456171201897&#45;244139562682776038&#45;1046705857081048560</title>
<g id="a_node5"><a xlink:href="./CP-wltp_h_errors/CP-wltp_h_error_vs_wltp_h.gv.svg" xlink:title="Calculates the error of calibrated model of a reference.">
<polygon fill="yellow" stroke="black" points="362,-131 196,-131 196,-95 368,-95 368,-125 362,-131"/>
<polyline fill="none" stroke="black" points="362,-131 362,-125 "/>
<polyline fill="none" stroke="black" points="368,-125 362,-125 "/>
<text text-anchor="start" x="206.5" y="-108.8" font-family="Times New Roman,serif" font-size="14.00">CP&#45;wltp_h error vs wltp_h</text>
</a>
</g>
</g>
<!-- cluster_cluster_cluster_&#45;2202121249019829706&#45;3455702456171201897&#45;244139562682776038&#45;2427563387242055365 -->
<g id="node8" class="node"><title>cluster_cluster_cluster_&#45;2202121249019829706&#45;3455702456171201897&#45;244139562682776038&#45;2427563387242055365</title>
<g id="a_node8"><a xlink:title="error/wltp_h">
<path fill="cyan" stroke="black" d="M315,-59C315,-59 249,-59 249,-59 243,-59 237,-53 237,-47 237,-47 237,-35 237,-35 237,-29 243,-23 249,-23 249,-23 315,-23 315,-23 321,-23 327,-29 327,-35 327,-35 327,-47 327,-47 327,-53 321,-59 315,-59"/>
<text text-anchor="start" x="247" y="-36.8" font-family="Times New Roman,serif" font-size="14.00">error/wltp_h</text>
</a>
</g>
</g>
<!-- cluster_cluster_cluster_&#45;2202121249019829706&#45;3455702456171201897&#45;244139562682776038&#45;1046705857081048560&#45;&gt;cluster_cluster_cluster_&#45;2202121249019829706&#45;3455702456171201897&#45;244139562682776038&#45;2427563387242055365 -->
<g id="edge5" class="edge"><title>cluster_cluster_cluster_&#45;2202121249019829706&#45;3455702456171201897&#45;244139562682776038&#45;1046705857081048560&#45;&gt;cluster_cluster_cluster_&#45;2202121249019829706&#45;3455702456171201897&#45;244139562682776038&#45;2427563387242055365</title>
<path fill="none" stroke="black" d="M282,-94.8314C282,-94.8314 282,-69.4133 282,-69.4133"/>
<polygon fill="black" stroke="black" points="285.5,-69.4132 282,-59.4133 278.5,-69.4133 285.5,-69.4132"/>
</g>
<!-- cluster_cluster_cluster_&#45;2202121249019829706&#45;3455702456171201897&#45;244139562682776038&#45;2581176326987892213 -->
<g id="node6" class="node"><title>cluster_cluster_cluster_&#45;2202121249019829706&#45;3455702456171201897&#45;244139562682776038&#45;2581176326987892213</title>
<g id="a_node6"><a xlink:href="./CP-wltp_h_errors/CP-wltp_h_error_vs_wltp_l.gv.svg" xlink:title="Calculates the error of calibrated model of a reference.">
<polygon fill="yellow" stroke="black" points="162,-131 0,-131 0,-95 168,-95 168,-125 162,-131"/>
<polyline fill="none" stroke="black" points="162,-131 162,-125 "/>
<polyline fill="none" stroke="black" points="168,-125 162,-125 "/>
<text text-anchor="start" x="10.5" y="-108.8" font-family="Times New Roman,serif" font-size="14.00">CP&#45;wltp_h error vs wltp_l</text>
</a>
</g>
</g>
<!-- cluster_cluster_cluster_&#45;2202121249019829706&#45;3455702456171201897&#45;244139562682776038&#45;7302022848986384642 -->
<g id="node9" class="node"><title>cluster_cluster_cluster_&#45;2202121249019829706&#45;3455702456171201897&#45;244139562682776038&#45;7302022848986384642</title>
<g id="a_node9"><a xlink:title="error/wltp_l">
<path fill="cyan" stroke="black" d="M115,-59C115,-59 53,-59 53,-59 47,-59 41,-53 41,-47 41,-47 41,-35 41,-35 41,-29 47,-23 53,-23 53,-23 115,-23 115,-23 121,-23 127,-29 127,-35 127,-35 127,-47 127,-47 127,-53 121,-59 115,-59"/>
<text text-anchor="start" x="51" y="-36.8" font-family="Times New Roman,serif" font-size="14.00">error/wltp_l</text>
</a>
</g>
</g>
<!-- cluster_cluster_cluster_&#45;2202121249019829706&#45;3455702456171201897&#45;244139562682776038&#45;2581176326987892213&#45;&gt;cluster_cluster_cluster_&#45;2202121249019829706&#45;3455702456171201897&#45;244139562682776038&#45;7302022848986384642 -->
<g id="edge6" class="edge"><title>cluster_cluster_cluster_&#45;2202121249019829706&#45;3455702456171201897&#45;244139562682776038&#45;2581176326987892213&#45;&gt;cluster_cluster_cluster_&#45;2202121249019829706&#45;3455702456171201897&#45;244139562682776038&#45;7302022848986384642</title>
<path fill="none" stroke="black" d="M84,-94.8314C84,-94.8314 84,-69.4133 84,-69.4133"/>
<polygon fill="black" stroke="black" points="87.5001,-69.4132 84,-59.4133 80.5001,-69.4133 87.5001,-69.4132"/>
</g>
<!-- cluster_cluster_cluster_&#45;2202121249019829706&#45;3455702456171201897&#45;244139562682776038&#45;1177382896934224609 -->
<g id="node7" class="node"><title>cluster_cluster_cluster_&#45;2202121249019829706&#45;3455702456171201897&#45;244139562682776038&#45;1177382896934224609</title>
<g id="a_node7"><a xlink:title="data_in">
<path fill="cyan" stroke="black" d="M286.5,-644C286.5,-644 197.5,-644 197.5,-644 191.5,-644 185.5,-638 185.5,-632 185.5,-632 185.5,-608 185.5,-608 185.5,-602 191.5,-596 197.5,-596 197.5,-596 286.5,-596 286.5,-596 292.5,-596 298.5,-602 298.5,-608 298.5,-608 298.5,-632 298.5,-632 298.5,-638 292.5,-644 286.5,-644"/>
<text text-anchor="start" x="222" y="-626.8" font-family="Times New Roman,serif" font-size="14.00">data_in</text>
<polygon fill="none" stroke="black" points="194,-600 194,-621 246,-621 246,-600 194,-600"/>
<text text-anchor="start" x="197" y="-606.8" font-family="Times New Roman,serif" font-size="14.00">default=</text>
<polygon fill="none" stroke="black" points="246,-600 246,-621 291,-621 291,-600 246,-600"/>
<text text-anchor="start" x="249" y="-606.8" font-family="Times New Roman,serif" font-size="14.00">wltp_h</text>
</a>
</g>
</g>
<!-- cluster_cluster_cluster_&#45;2202121249019829706&#45;3455702456171201897&#45;244139562682776038&#45;3431188338771875485&#45;&gt;cluster_cluster_cluster_&#45;2202121249019829706&#45;3455702456171201897&#45;244139562682776038&#45;1046705857081048560 -->
<g id="edge7" class="edge"><title>cluster_cluster_cluster_&#45;2202121249019829706&#45;3455702456171201897&#45;244139562682776038&#45;3431188338771875485&#45;&gt;cluster_cluster_cluster_&#45;2202121249019829706&#45;3455702456171201897&#45;244139562682776038&#45;1046705857081048560</title>
<path fill="none" stroke="black" d="M210.25,-166.748C210.25,-166.748 210.25,-141.288 210.25,-141.288"/>
<polygon fill="black" stroke="black" points="213.75,-141.287 210.25,-131.288 206.75,-141.288 213.75,-141.287"/>
</g>
<!-- cluster_cluster_cluster_&#45;2202121249019829706&#45;3455702456171201897&#45;244139562682776038&#45;3431188338771875485&#45;&gt;cluster_cluster_cluster_&#45;2202121249019829706&#45;3455702456171201897&#45;244139562682776038&#45;2581176326987892213 -->
<g id="edge8" class="edge"><title>cluster_cluster_cluster_&#45;2202121249019829706&#45;3455702456171201897&#45;244139562682776038&#45;3431188338771875485&#45;&gt;cluster_cluster_cluster_&#45;2202121249019829706&#45;3455702456171201897&#45;244139562682776038&#45;2581176326987892213</title>
<path fill="none" stroke="black" d="M147.75,-166.748C147.75,-166.748 147.75,-141.288 147.75,-141.288"/>
<polygon fill="black" stroke="black" points="151.25,-141.287 147.75,-131.288 144.25,-141.288 151.25,-141.287"/>
</g>
<!-- cluster_cluster_cluster_&#45;2202121249019829706&#45;3455702456171201897&#45;2441395626827760387702748476113788344&#45;&gt;cluster_cluster_cluster_&#45;2202121249019829706&#45;3455702456171201897&#45;244139562682776038&#45;1046705857081048560 -->
<g id="edge9" class="edge"><title>cluster_cluster_cluster_&#45;2202121249019829706&#45;3455702456171201897&#45;2441395626827760387702748476113788344&#45;&gt;cluster_cluster_cluster_&#45;2202121249019829706&#45;3455702456171201897&#45;244139562682776038&#45;1046705857081048560</title>
<path fill="none" stroke="black" d="M292,-172.909C292,-172.909 292,-141.263 292,-141.263"/>
<polygon fill="black" stroke="black" points="295.5,-141.263 292,-131.263 288.5,-141.263 295.5,-141.263"/>
</g>
<!-- cluster_cluster_cluster_&#45;2202121249019829706&#45;3455702456171201897&#45;2441395626827760384919105944985796052&#45;&gt;cluster_cluster_cluster_&#45;2202121249019829706&#45;3455702456171201897&#45;244139562682776038&#45;2581176326987892213 -->
<g id="edge10" class="edge"><title>cluster_cluster_cluster_&#45;2202121249019829706&#45;3455702456171201897&#45;2441395626827760384919105944985796052&#45;&gt;cluster_cluster_cluster_&#45;2202121249019829706&#45;3455702456171201897&#45;244139562682776038&#45;2581176326987892213</title>
<path fill="none" stroke="black" d="M65,-172.909C65,-172.909 65,-141.263 65,-141.263"/>
<polygon fill="black" stroke="black" points="68.5001,-141.263 65,-131.263 61.5001,-141.263 68.5001,-141.263"/>
</g>
<!-- cluster_cluster_cluster_&#45;2202121249019829706&#45;3455702456171201897&#45;244139562682776038&#45;3274255707223734200 -->
<g id="node13" class="node"><title>cluster_cluster_cluster_&#45;2202121249019829706&#45;3455702456171201897&#45;244139562682776038&#45;3274255707223734200</title>
<g id="a_node13"><a xlink:title="Keys to select.">
<path fill="cyan" stroke="black" d="M414.5,-560C414.5,-560 179.5,-560 179.5,-560 173.5,-560 167.5,-554 167.5,-548 167.5,-548 167.5,-479 167.5,-479 167.5,-473 173.5,-467 179.5,-467 179.5,-467 414.5,-467 414.5,-467 420.5,-467 426.5,-473 426.5,-479 426.5,-479 426.5,-548 426.5,-548 426.5,-554 420.5,-560 414.5,-560"/>
<text text-anchor="start" x="277" y="-542.3" font-family="Times New Roman,serif" font-size="14.00">models</text>
<polygon fill="none" stroke="black" points="176,-470.5 176,-536.5 228,-536.5 228,-470.5 176,-470.5"/>
<text text-anchor="start" x="179" y="-499.8" font-family="Times New Roman,serif" font-size="14.00">default=</text>
<polygon fill="none" stroke="black" points="228,-470.5 228,-536.5 419,-536.5 419,-470.5 228,-470.5"/>
<text text-anchor="start" x="251" y="-522.3" font-family="Times New Roman,serif" font-size="14.00">[&#39;co2_params_calibrated&#39;,</text>
<text text-anchor="start" x="267.5" y="-507.3" font-family="Times New Roman,serif" font-size="14.00"> &#39;calibration_status&#39;,</text>
<text text-anchor="start" x="254.5" y="-492.3" font-family="Times New Roman,serif" font-size="14.00"> &#39;initial_friction_params&#39;,</text>
<text text-anchor="start" x="231" y="-477.3" font-family="Times New Roman,serif" font-size="14.00"> &#39;engine_idle_fuel_consumption&#39;]</text>
</a>
</g>
</g>
<!-- cluster_cluster_cluster_&#45;2202121249019829706&#45;3455702456171201897&#45;244139562682776038&#45;8800720961443810657 -->
<g id="node14" class="node"><title>cluster_cluster_cluster_&#45;2202121249019829706&#45;3455702456171201897&#45;244139562682776038&#45;8800720961443810657</title>
<g id="a_node14"><a xlink:href="./../alternator_model_selector/AM-wltp_h_errors/AM-wltp_h_error_vs_wltp_h/select_inputs0.txt" xlink:title="Selects the chosen dictionary keys from the given dictionary.">
<polygon fill="springgreen" stroke="black" points="347,-431 247,-431 247,-395 347,-395 347,-431"/>
<text text-anchor="start" x="257" y="-408.8" font-family="Times New Roman,serif" font-size="14.00">select_models</text>
</a>
</g>
</g>
<!-- cluster_cluster_cluster_&#45;2202121249019829706&#45;3455702456171201897&#45;244139562682776038&#45;3274255707223734200&#45;&gt;cluster_cluster_cluster_&#45;2202121249019829706&#45;3455702456171201897&#45;244139562682776038&#45;8800720961443810657 -->
<g id="edge11" class="edge"><title>cluster_cluster_cluster_&#45;2202121249019829706&#45;3455702456171201897&#45;244139562682776038&#45;3274255707223734200&#45;&gt;cluster_cluster_cluster_&#45;2202121249019829706&#45;3455702456171201897&#45;244139562682776038&#45;8800720961443810657</title>
<path fill="none" stroke="black" d="M297,-466.781C297,-466.781 297,-441.011 297,-441.011"/>
<polygon fill="black" stroke="black" points="300.5,-441.011 297,-431.011 293.5,-441.011 300.5,-441.011"/>
</g>
<!-- cluster_cluster_cluster_&#45;2202121249019829706&#45;3455702456171201897&#45;244139562682776038&#45;8800720961443810657&#45;&gt;cluster_cluster_cluster_&#45;2202121249019829706&#45;3455702456171201897&#45;244139562682776038&#45;2181095411792409824 -->
<g id="edge12" class="edge"><title>cluster_cluster_cluster_&#45;2202121249019829706&#45;3455702456171201897&#45;244139562682776038&#45;8800720961443810657&#45;&gt;cluster_cluster_cluster_&#45;2202121249019829706&#45;3455702456171201897&#45;244139562682776038&#45;2181095411792409824</title>
<path fill="none" stroke="black" d="M297,-394.831C297,-394.831 297,-369.413 297,-369.413"/>
<polygon fill="black" stroke="black" points="300.5,-369.413 297,-359.413 293.5,-369.413 300.5,-369.413"/>
</g>
<!-- cluster_cluster_cluster_&#45;2202121249019829706&#45;3455702456171201897&#45;2441395626827760384712647501736754553&#45;&gt;cluster_cluster_cluster_&#45;2202121249019829706&#45;3455702456171201897&#45;244139562682776038&#45;7067757294929678007 -->
<g id="edge16" class="edge"><title>cluster_cluster_cluster_&#45;2202121249019829706&#45;3455702456171201897&#45;2441395626827760384712647501736754553&#45;&gt;cluster_cluster_cluster_&#45;2202121249019829706&#45;3455702456171201897&#45;244139562682776038&#45;7067757294929678007</title>
<path fill="none" stroke="black" d="M485,-495.123C485,-438.261 485,-269 485,-269 485,-269 338.147,-269 338.147,-269"/>
<polygon fill="black" stroke="black" points="338.147,-265.5 328.147,-269 338.147,-272.5 338.147,-265.5"/>
</g>
<!-- cluster_cluster_cluster_&#45;2202121249019829706&#45;3455702456171201897&#45;2441395626827760384712647501736754553&#45;&gt;cluster_cluster_cluster_&#45;2202121249019829706&#45;3455702456171201897&#45;244139562682776038&#45;8800720961443810657 -->
<g id="edge17" class="edge"><title>cluster_cluster_cluster_&#45;2202121249019829706&#45;3455702456171201897&#45;2441395626827760384712647501736754553&#45;&gt;cluster_cluster_cluster_&#45;2202121249019829706&#45;3455702456171201897&#45;244139562682776038&#45;8800720961443810657</title>
<path fill="none" stroke="black" d="M465,-495.067C465,-466.053 465,-413 465,-413 465,-413 357.406,-413 357.406,-413"/>
<polygon fill="black" stroke="black" points="357.406,-409.5 347.406,-413 357.406,-416.5 357.406,-409.5"/>
</g>
<!-- cluster_cluster_cluster_&#45;2202121249019829706&#45;3455702456171201897&#45;244139562682776038&#45;4779657526738643707&#45;&gt;cluster_cluster_cluster_&#45;2202121249019829706&#45;3455702456171201897&#45;2441395626827760384298277636058170859 -->
<g id="edge18" class="edge"><title>cluster_cluster_cluster_&#45;2202121249019829706&#45;3455702456171201897&#45;244139562682776038&#45;4779657526738643707&#45;&gt;cluster_cluster_cluster_&#45;2202121249019829706&#45;3455702456171201897&#45;2441395626827760384298277636058170859</title>
<path fill="none" stroke="black" d="M79,-394.762C79,-394.762 79,-297.09 79,-297.09"/>
<polygon fill="black" stroke="black" points="82.5001,-297.09 79,-287.09 75.5001,-297.09 82.5001,-297.09"/>
</g>
</g>
</svg>
