<?xml version="1.0" encoding="UTF-8" standalone="no"?>
<!DOCTYPE svg PUBLIC "-//W3C//DTD SVG 1.1//EN"
 "http://www.w3.org/Graphics/SVG/1.1/DTD/svg11.dtd">
<!-- Generated by graphviz version 2.38.0 (20140413.2041)
 -->
<!-- Title: cluster_CP&#45;wltp_l errors Pages: 1 -->
<svg width="498pt" height="652pt"
 viewBox="0.00 0.00 498.00 652.00" xmlns="http://www.w3.org/2000/svg" xmlns:xlink="http://www.w3.org/1999/xlink">
<g id="graph0" class="graph" transform="scale(1 1) rotate(0) translate(4 648)">
<title>cluster_CP&#45;wltp_l errors</title>
<polygon fill="white" stroke="none" points="-4,4 -4,-648 494,-648 494,4 -4,4"/>
<text text-anchor="start" x="198" y="-7.8" font-family="Times New Roman,serif" font-size="14.00">CP&#45;wltp_l errors</text>
<!-- cluster_cluster_cluster_&#45;2202121249019829706&#45;3455702456171201897&#45;59704444767085741477532400 -->
<g id="node1" class="node"><title>cluster_cluster_cluster_&#45;2202121249019829706&#45;3455702456171201897&#45;59704444767085741477532400</title>
<g id="a_node1"><a xlink:title="start">
<polygon fill="red" stroke="black" points="130.683,-602.049 132.459,-602.148 134.216,-602.295 135.948,-602.491 137.648,-602.735 139.308,-603.027 140.923,-603.364 142.485,-603.748 143.989,-604.176 145.429,-604.647 146.8,-605.161 148.098,-605.715 149.317,-606.308 150.455,-606.939 151.507,-607.605 152.472,-608.306 153.346,-609.039 154.127,-609.801 154.815,-610.592 155.408,-611.408 155.906,-612.248 156.309,-613.109 156.617,-613.989 156.832,-614.886 156.956,-615.797 156.989,-616.719 156.934,-617.65 156.794,-618.587 156.571,-619.529 156.269,-620.471 155.89,-621.413 155.439,-622.35 154.918,-623.281 154.332,-624.203 153.685,-625.114 152.981,-626.011 152.223,-626.891 151.415,-627.752 150.561,-628.592 149.666,-629.408 148.732,-630.199 147.764,-630.961 146.764,-631.694 145.737,-632.395 144.684,-633.061 143.61,-633.692 142.516,-634.285 141.405,-634.839 140.28,-635.353 139.142,-635.824 137.994,-636.252 136.837,-636.636 135.672,-636.973 134.501,-637.265 133.325,-637.509 132.145,-637.705 130.963,-637.852 129.779,-637.951 128.593,-638 127.407,-638 126.221,-637.951 125.037,-637.852 123.855,-637.705 122.675,-637.509 121.499,-637.265 120.328,-636.973 119.163,-636.636 118.006,-636.252 116.858,-635.824 115.72,-635.353 114.595,-634.839 113.484,-634.285 112.39,-633.692 111.316,-633.061 110.263,-632.395 109.236,-631.694 108.236,-630.961 107.268,-630.199 106.334,-629.408 105.439,-628.592 104.585,-627.752 103.777,-626.891 103.019,-626.011 102.315,-625.114 101.668,-624.203 101.082,-623.281 100.561,-622.35 100.11,-621.413 99.7313,-620.471 99.4289,-619.529 99.2061,-618.587 99.0658,-617.65 99.011,-616.719 99.0442,-615.797 99.1675,-614.886 99.3828,-613.989 99.6915,-613.109 100.094,-612.248 100.592,-611.408 101.185,-610.592 101.873,-609.801 102.654,-609.039 103.528,-608.306 104.493,-607.605 105.545,-606.939 106.683,-606.308 107.902,-605.715 109.2,-605.161 110.571,-604.647 112.011,-604.176 113.515,-603.748 115.077,-603.364 116.692,-603.027 118.352,-602.735 120.052,-602.491 121.784,-602.295 123.541,-602.148 125.317,-602.049 127.105,-602 128.895,-602 130.683,-602.049"/>
<text text-anchor="middle" x="128" y="-616.3" font-family="Times New Roman,serif" font-size="14.00">start</text>
</a>
</g>
</g>
<!-- cluster_cluster_cluster_&#45;2202121249019829706&#45;3455702456171201897&#45;597044447670857414&#45;3431188338771875485 -->
<g id="node10" class="node"><title>cluster_cluster_cluster_&#45;2202121249019829706&#45;3455702456171201897&#45;597044447670857414&#45;3431188338771875485</title>
<g id="a_node10"><a xlink:title="error_settings">
<path fill="cyan" stroke="black" d="M213.5,-215C213.5,-215 140.5,-215 140.5,-215 134.5,-215 128.5,-209 128.5,-203 128.5,-203 128.5,-179 128.5,-179 128.5,-173 134.5,-167 140.5,-167 140.5,-167 213.5,-167 213.5,-167 219.5,-167 225.5,-173 225.5,-179 225.5,-179 225.5,-203 225.5,-203 225.5,-209 219.5,-215 213.5,-215"/>
<text text-anchor="start" x="139" y="-197.8" font-family="Times New Roman,serif" font-size="14.00">error_settings</text>
<polygon fill="none" stroke="black" points="137,-171 137,-192 193,-192 193,-171 137,-171"/>
<text text-anchor="start" x="144" y="-177.8" font-family="Times New Roman,serif" font-size="14.00">default=</text>
<polygon fill="none" stroke="black" points="193,-171 193,-192 218,-192 218,-171 193,-171"/>
<text text-anchor="start" x="196" y="-177.8" font-family="Times New Roman,serif" font-size="14.00">{}</text>
</a>
</g>
</g>
<!-- cluster_cluster_cluster_&#45;2202121249019829706&#45;3455702456171201897&#45;59704444767085741477532400&#45;&gt;cluster_cluster_cluster_&#45;2202121249019829706&#45;3455702456171201897&#45;597044447670857414&#45;3431188338771875485 -->
<g id="edge13" class="edge"><title>cluster_cluster_cluster_&#45;2202121249019829706&#45;3455702456171201897&#45;59704444767085741477532400&#45;&gt;cluster_cluster_cluster_&#45;2202121249019829706&#45;3455702456171201897&#45;597044447670857414&#45;3431188338771875485</title>
<path fill="none" stroke="black" d="M137.833,-602.651C137.833,-602.651 137.833,-225.187 137.833,-225.187"/>
<polygon fill="black" stroke="black" points="141.333,-225.187 137.833,-215.187 134.333,-225.187 141.333,-225.187"/>
<polygon fill="none" stroke="black" points="138.333,-413.419 138.333,-434.419 188.333,-434.419 188.333,-413.419 138.333,-413.419"/>
<text text-anchor="start" x="141.333" y="-420.219" font-family="Times New Roman,serif" font-size="14.00">inp_id=</text>
<polygon fill="none" stroke="black" points="188.333,-413.419 188.333,-434.419 201.333,-434.419 201.333,-413.419 188.333,-413.419"/>
<text text-anchor="start" x="191.333" y="-420.219" font-family="Times New Roman,serif" font-size="14.00">0</text>
</g>
<!-- cluster_cluster_cluster_&#45;2202121249019829706&#45;3455702456171201897&#45;5970444476708574144712647501736754553 -->
<g id="node15" class="node"><title>cluster_cluster_cluster_&#45;2202121249019829706&#45;3455702456171201897&#45;5970444476708574144712647501736754553</title>
<g id="a_node15"><a xlink:title="A sequence of data.">
<path fill="cyan" stroke="black" d="M87,-431C87,-431 51,-431 51,-431 45,-431 39,-425 39,-419 39,-419 39,-407 39,-407 39,-401 45,-395 51,-395 51,-395 87,-395 87,-395 93,-395 99,-401 99,-407 99,-407 99,-419 99,-419 99,-425 93,-431 87,-431"/>
<text text-anchor="start" x="49.5" y="-408.8" font-family="Times New Roman,serif" font-size="14.00">wltp_h</text>
</a>
</g>
</g>
<!-- cluster_cluster_cluster_&#45;2202121249019829706&#45;3455702456171201897&#45;59704444767085741477532400&#45;&gt;cluster_cluster_cluster_&#45;2202121249019829706&#45;3455702456171201897&#45;5970444476708574144712647501736754553 -->
<g id="edge14" class="edge"><title>cluster_cluster_cluster_&#45;2202121249019829706&#45;3455702456171201897&#45;59704444767085741477532400&#45;&gt;cluster_cluster_cluster_&#45;2202121249019829706&#45;3455702456171201897&#45;5970444476708574144712647501736754553</title>
<path fill="none" stroke="black" d="M105,-607.051C105,-561.734 105,-413 105,-413 105,-413 104.406,-413 104.406,-413"/>
<polygon fill="black" stroke="black" points="109.055,-409.5 99.0553,-413 109.055,-416.5 109.055,-409.5"/>
<polygon fill="none" stroke="black" points="42.5,-509.228 42.5,-530.228 92.5,-530.228 92.5,-509.228 42.5,-509.228"/>
<text text-anchor="start" x="45.5" y="-516.028" font-family="Times New Roman,serif" font-size="14.00">inp_id=</text>
<polygon fill="none" stroke="black" points="92.5,-509.228 92.5,-530.228 105.5,-530.228 105.5,-509.228 92.5,-509.228"/>
<text text-anchor="start" x="95.5" y="-516.028" font-family="Times New Roman,serif" font-size="14.00">2</text>
</g>
<!-- cluster_cluster_cluster_&#45;2202121249019829706&#45;3455702456171201897&#45;597044447670857414&#45;4779657526738643707 -->
<g id="node16" class="node"><title>cluster_cluster_cluster_&#45;2202121249019829706&#45;3455702456171201897&#45;597044447670857414&#45;4779657526738643707</title>
<g id="a_node16"><a xlink:title="A sequence of data.">
<path fill="cyan" stroke="black" d="M478,-531.5C478,-531.5 446,-531.5 446,-531.5 440,-531.5 434,-525.5 434,-519.5 434,-519.5 434,-507.5 434,-507.5 434,-501.5 440,-495.5 446,-495.5 446,-495.5 478,-495.5 478,-495.5 484,-495.5 490,-501.5 490,-507.5 490,-507.5 490,-519.5 490,-519.5 490,-525.5 484,-531.5 478,-531.5"/>
<text text-anchor="start" x="444.5" y="-509.3" font-family="Times New Roman,serif" font-size="14.00">wltp_l</text>
</a>
</g>
</g>
<!-- cluster_cluster_cluster_&#45;2202121249019829706&#45;3455702456171201897&#45;59704444767085741477532400&#45;&gt;cluster_cluster_cluster_&#45;2202121249019829706&#45;3455702456171201897&#45;597044447670857414&#45;4779657526738643707 -->
<g id="edge15" class="edge"><title>cluster_cluster_cluster_&#45;2202121249019829706&#45;3455702456171201897&#45;59704444767085741477532400&#45;&gt;cluster_cluster_cluster_&#45;2202121249019829706&#45;3455702456171201897&#45;597044447670857414&#45;4779657526738643707</title>
<path fill="none" stroke="black" d="M147.167,-605.31C147.167,-593.199 147.167,-578 147.167,-578 147.167,-578 462,-578 462,-578 462,-578 462,-541.811 462,-541.811"/>
<polygon fill="black" stroke="black" points="465.5,-541.811 462,-531.811 458.5,-541.811 465.5,-541.811"/>
<polygon fill="none" stroke="black" points="309.523,-577.5 309.523,-598.5 359.523,-598.5 359.523,-577.5 309.523,-577.5"/>
<text text-anchor="start" x="312.523" y="-584.3" font-family="Times New Roman,serif" font-size="14.00">inp_id=</text>
<polygon fill="none" stroke="black" points="359.523,-577.5 359.523,-598.5 372.523,-598.5 372.523,-577.5 359.523,-577.5"/>
<text text-anchor="start" x="362.523" y="-584.3" font-family="Times New Roman,serif" font-size="14.00">1</text>
</g>
<!-- cluster_cluster_cluster_&#45;2202121249019829706&#45;3455702456171201897&#45;597044447670857414&#45;2181095411792409824 -->
<g id="node2" class="node"><title>cluster_cluster_cluster_&#45;2202121249019829706&#45;3455702456171201897&#45;597044447670857414&#45;2181095411792409824</title>
<g id="a_node2"><a xlink:title="A sequence of data.">
<path fill="cyan" stroke="black" d="M337,-359C337,-359 237,-359 237,-359 231,-359 225,-353 225,-347 225,-347 225,-335 225,-335 225,-329 231,-323 237,-323 237,-323 337,-323 337,-323 343,-323 349,-329 349,-335 349,-335 349,-347 349,-347 349,-353 343,-359 337,-359"/>
<text text-anchor="start" x="235.5" y="-336.8" font-family="Times New Roman,serif" font-size="14.00">calibrated_models</text>
</a>
</g>
</g>
<!-- cluster_cluster_cluster_&#45;2202121249019829706&#45;3455702456171201897&#45;597044447670857414&#45;7067757294929678007 -->
<g id="node3" class="node"><title>cluster_cluster_cluster_&#45;2202121249019829706&#45;3455702456171201897&#45;597044447670857414&#45;7067757294929678007</title>
<g id="a_node3"><a xlink:href="./../alternator_model_selector/AM-wltp_h_errors/co2mpas.dispatcher.utils.dspmap_list.txt" xlink:title="Returns a new dict.">
<polygon fill="springgreen" stroke="black" points="100,-287 32,-287 32,-251 100,-251 100,-287"/>
<text text-anchor="start" x="42" y="-264.8" font-family="Times New Roman,serif" font-size="14.00">map_list</text>
</a>
</g>
</g>
<!-- cluster_cluster_cluster_&#45;2202121249019829706&#45;3455702456171201897&#45;597044447670857414&#45;2181095411792409824&#45;&gt;cluster_cluster_cluster_&#45;2202121249019829706&#45;3455702456171201897&#45;597044447670857414&#45;7067757294929678007 -->
<g id="edge1" class="edge"><title>cluster_cluster_cluster_&#45;2202121249019829706&#45;3455702456171201897&#45;597044447670857414&#45;2181095411792409824&#45;&gt;cluster_cluster_cluster_&#45;2202121249019829706&#45;3455702456171201897&#45;597044447670857414&#45;7067757294929678007</title>
<path fill="none" stroke="black" d="M233.75,-322.831C233.75,-301.502 233.75,-269 233.75,-269 233.75,-269 110.352,-269 110.352,-269"/>
<polygon fill="black" stroke="black" points="110.352,-265.5 100.352,-269 110.351,-272.5 110.352,-265.5"/>
</g>
<!-- cluster_cluster_cluster_&#45;2202121249019829706&#45;3455702456171201897&#45;5970444476708574144298277636058170859 -->
<g id="node4" class="node"><title>cluster_cluster_cluster_&#45;2202121249019829706&#45;3455702456171201897&#45;5970444476708574144298277636058170859</title>
<g id="a_node4"><a xlink:href="./../alternator_model_selector/AM-wltp_h_errors/co2mpas.dispatcher.utils.dspmap_list.txt" xlink:title="Returns a new dict.">
<polygon fill="springgreen" stroke="black" points="334,-287 242,-287 242,-251 334,-251 334,-287"/>
<text text-anchor="start" x="252.5" y="-264.8" font-family="Times New Roman,serif" font-size="14.00">map_list&lt;0&gt;</text>
</a>
</g>
</g>
<!-- cluster_cluster_cluster_&#45;2202121249019829706&#45;3455702456171201897&#45;597044447670857414&#45;2181095411792409824&#45;&gt;cluster_cluster_cluster_&#45;2202121249019829706&#45;3455702456171201897&#45;5970444476708574144298277636058170859 -->
<g id="edge2" class="edge"><title>cluster_cluster_cluster_&#45;2202121249019829706&#45;3455702456171201897&#45;597044447670857414&#45;2181095411792409824&#45;&gt;cluster_cluster_cluster_&#45;2202121249019829706&#45;3455702456171201897&#45;5970444476708574144298277636058170859</title>
<path fill="none" stroke="black" d="M288,-322.831C288,-322.831 288,-297.413 288,-297.413"/>
<polygon fill="black" stroke="black" points="291.5,-297.413 288,-287.413 284.5,-297.413 291.5,-297.413"/>
</g>
<!-- cluster_cluster_cluster_&#45;2202121249019829706&#45;3455702456171201897&#45;5970444476708574147702748476113788344 -->
<g id="node11" class="node"><title>cluster_cluster_cluster_&#45;2202121249019829706&#45;3455702456171201897&#45;5970444476708574147702748476113788344</title>
<g id="a_node11"><a xlink:title="A unique dict with new values.">
<path fill="cyan" stroke="black" d="M98,-209C98,-209 32,-209 32,-209 26,-209 20,-203 20,-197 20,-197 20,-185 20,-185 20,-179 26,-173 32,-173 32,-173 98,-173 98,-173 104,-173 110,-179 110,-185 110,-185 110,-197 110,-197 110,-203 104,-209 98,-209"/>
<text text-anchor="start" x="30" y="-186.8" font-family="Times New Roman,serif" font-size="14.00">input/wltp_h</text>
</a>
</g>
</g>
<!-- cluster_cluster_cluster_&#45;2202121249019829706&#45;3455702456171201897&#45;597044447670857414&#45;7067757294929678007&#45;&gt;cluster_cluster_cluster_&#45;2202121249019829706&#45;3455702456171201897&#45;5970444476708574147702748476113788344 -->
<g id="edge3" class="edge"><title>cluster_cluster_cluster_&#45;2202121249019829706&#45;3455702456171201897&#45;597044447670857414&#45;7067757294929678007&#45;&gt;cluster_cluster_cluster_&#45;2202121249019829706&#45;3455702456171201897&#45;5970444476708574147702748476113788344</title>
<path fill="none" stroke="black" d="M66,-250.909C66,-250.909 66,-219.263 66,-219.263"/>
<polygon fill="black" stroke="black" points="69.5001,-219.263 66,-209.263 62.5001,-219.263 69.5001,-219.263"/>
</g>
<!-- cluster_cluster_cluster_&#45;2202121249019829706&#45;3455702456171201897&#45;5970444476708574144919105944985796052 -->
<g id="node12" class="node"><title>cluster_cluster_cluster_&#45;2202121249019829706&#45;3455702456171201897&#45;5970444476708574144919105944985796052</title>
<g id="a_node12"><a xlink:title="A unique dict with new values.">
<path fill="cyan" stroke="black" d="M320,-209C320,-209 256,-209 256,-209 250,-209 244,-203 244,-197 244,-197 244,-185 244,-185 244,-179 250,-173 256,-173 256,-173 320,-173 320,-173 326,-173 332,-179 332,-185 332,-185 332,-197 332,-197 332,-203 326,-209 320,-209"/>
<text text-anchor="start" x="254.5" y="-186.8" font-family="Times New Roman,serif" font-size="14.00">input/wltp_l</text>
</a>
</g>
</g>
<!-- cluster_cluster_cluster_&#45;2202121249019829706&#45;3455702456171201897&#45;5970444476708574144298277636058170859&#45;&gt;cluster_cluster_cluster_&#45;2202121249019829706&#45;3455702456171201897&#45;5970444476708574144919105944985796052 -->
<g id="edge4" class="edge"><title>cluster_cluster_cluster_&#45;2202121249019829706&#45;3455702456171201897&#45;5970444476708574144298277636058170859&#45;&gt;cluster_cluster_cluster_&#45;2202121249019829706&#45;3455702456171201897&#45;5970444476708574144919105944985796052</title>
<path fill="none" stroke="black" d="M288,-250.909C288,-250.909 288,-219.263 288,-219.263"/>
<polygon fill="black" stroke="black" points="291.5,-219.263 288,-209.263 284.5,-219.263 291.5,-219.263"/>
</g>
<!-- cluster_cluster_cluster_&#45;2202121249019829706&#45;3455702456171201897&#45;597044447670857414&#45;4107303406765054665 -->
<g id="node5" class="node"><title>cluster_cluster_cluster_&#45;2202121249019829706&#45;3455702456171201897&#45;597044447670857414&#45;4107303406765054665</title>
<g id="a_node5"><a xlink:href="./CP-wltp_l_errors/CP-wltp_l_error_vs_wltp_h.gv.svg" xlink:title="Calculates the error of calibrated model of a reference.">
<polygon fill="yellow" stroke="black" points="162,-131 0,-131 0,-95 168,-95 168,-125 162,-131"/>
<polyline fill="none" stroke="black" points="162,-131 162,-125 "/>
<polyline fill="none" stroke="black" points="168,-125 162,-125 "/>
<text text-anchor="start" x="10.5" y="-108.8" font-family="Times New Roman,serif" font-size="14.00">CP&#45;wltp_l error vs wltp_h</text>
</a>
</g>
</g>
<!-- cluster_cluster_cluster_&#45;2202121249019829706&#45;3455702456171201897&#45;597044447670857414&#45;2427563387242055365 -->
<g id="node8" class="node"><title>cluster_cluster_cluster_&#45;2202121249019829706&#45;3455702456171201897&#45;597044447670857414&#45;2427563387242055365</title>
<g id="a_node8"><a xlink:title="error/wltp_h">
<path fill="cyan" stroke="black" d="M117,-59C117,-59 51,-59 51,-59 45,-59 39,-53 39,-47 39,-47 39,-35 39,-35 39,-29 45,-23 51,-23 51,-23 117,-23 117,-23 123,-23 129,-29 129,-35 129,-35 129,-47 129,-47 129,-53 123,-59 117,-59"/>
<text text-anchor="start" x="49" y="-36.8" font-family="Times New Roman,serif" font-size="14.00">error/wltp_h</text>
</a>
</g>
</g>
<!-- cluster_cluster_cluster_&#45;2202121249019829706&#45;3455702456171201897&#45;597044447670857414&#45;4107303406765054665&#45;&gt;cluster_cluster_cluster_&#45;2202121249019829706&#45;3455702456171201897&#45;597044447670857414&#45;2427563387242055365 -->
<g id="edge5" class="edge"><title>cluster_cluster_cluster_&#45;2202121249019829706&#45;3455702456171201897&#45;597044447670857414&#45;4107303406765054665&#45;&gt;cluster_cluster_cluster_&#45;2202121249019829706&#45;3455702456171201897&#45;597044447670857414&#45;2427563387242055365</title>
<path fill="none" stroke="black" d="M84,-94.8314C84,-94.8314 84,-69.4133 84,-69.4133"/>
<polygon fill="black" stroke="black" points="87.5001,-69.4132 84,-59.4133 80.5001,-69.4133 87.5001,-69.4132"/>
</g>
<!-- cluster_cluster_cluster_&#45;2202121249019829706&#45;3455702456171201897&#45;597044447670857414&#45;7887996752713320927 -->
<g id="node6" class="node"><title>cluster_cluster_cluster_&#45;2202121249019829706&#45;3455702456171201897&#45;597044447670857414&#45;7887996752713320927</title>
<g id="a_node6"><a xlink:href="./CP-wltp_l_errors/CP-wltp_l_error_vs_wltp_l.gv.svg" xlink:title="Calculates the error of calibrated model of a reference.">
<polygon fill="yellow" stroke="black" points="354,-131 196,-131 196,-95 360,-95 360,-125 354,-131"/>
<polyline fill="none" stroke="black" points="354,-131 354,-125 "/>
<polyline fill="none" stroke="black" points="360,-125 354,-125 "/>
<text text-anchor="start" x="206.5" y="-108.8" font-family="Times New Roman,serif" font-size="14.00">CP&#45;wltp_l error vs wltp_l</text>
</a>
</g>
</g>
<!-- cluster_cluster_cluster_&#45;2202121249019829706&#45;3455702456171201897&#45;597044447670857414&#45;7302022848986384642 -->
<g id="node9" class="node"><title>cluster_cluster_cluster_&#45;2202121249019829706&#45;3455702456171201897&#45;597044447670857414&#45;7302022848986384642</title>
<g id="a_node9"><a xlink:title="error/wltp_l">
<path fill="cyan" stroke="black" d="M309,-59C309,-59 247,-59 247,-59 241,-59 235,-53 235,-47 235,-47 235,-35 235,-35 235,-29 241,-23 247,-23 247,-23 309,-23 309,-23 315,-23 321,-29 321,-35 321,-35 321,-47 321,-47 321,-53 315,-59 309,-59"/>
<text text-anchor="start" x="245" y="-36.8" font-family="Times New Roman,serif" font-size="14.00">error/wltp_l</text>
</a>
</g>
</g>
<!-- cluster_cluster_cluster_&#45;2202121249019829706&#45;3455702456171201897&#45;597044447670857414&#45;7887996752713320927&#45;&gt;cluster_cluster_cluster_&#45;2202121249019829706&#45;3455702456171201897&#45;597044447670857414&#45;7302022848986384642 -->
<g id="edge6" class="edge"><title>cluster_cluster_cluster_&#45;2202121249019829706&#45;3455702456171201897&#45;597044447670857414&#45;7887996752713320927&#45;&gt;cluster_cluster_cluster_&#45;2202121249019829706&#45;3455702456171201897&#45;597044447670857414&#45;7302022848986384642</title>
<path fill="none" stroke="black" d="M278,-94.8314C278,-94.8314 278,-69.4133 278,-69.4133"/>
<polygon fill="black" stroke="black" points="281.5,-69.4132 278,-59.4133 274.5,-69.4133 281.5,-69.4132"/>
</g>
<!-- cluster_cluster_cluster_&#45;2202121249019829706&#45;3455702456171201897&#45;597044447670857414&#45;1177382896934224609 -->
<g id="node7" class="node"><title>cluster_cluster_cluster_&#45;2202121249019829706&#45;3455702456171201897&#45;597044447670857414&#45;1177382896934224609</title>
<g id="a_node7"><a xlink:title="data_in">
<path fill="cyan" stroke="black" d="M271.5,-644C271.5,-644 186.5,-644 186.5,-644 180.5,-644 174.5,-638 174.5,-632 174.5,-632 174.5,-608 174.5,-608 174.5,-602 180.5,-596 186.5,-596 186.5,-596 271.5,-596 271.5,-596 277.5,-596 283.5,-602 283.5,-608 283.5,-608 283.5,-632 283.5,-632 283.5,-638 277.5,-644 271.5,-644"/>
<text text-anchor="start" x="209" y="-626.8" font-family="Times New Roman,serif" font-size="14.00">data_in</text>
<polygon fill="none" stroke="black" points="183,-600 183,-621 235,-621 235,-600 183,-600"/>
<text text-anchor="start" x="186" y="-606.8" font-family="Times New Roman,serif" font-size="14.00">default=</text>
<polygon fill="none" stroke="black" points="235,-600 235,-621 276,-621 276,-600 235,-600"/>
<text text-anchor="start" x="238" y="-606.8" font-family="Times New Roman,serif" font-size="14.00">wltp_l</text>
</a>
</g>
</g>
<!-- cluster_cluster_cluster_&#45;2202121249019829706&#45;3455702456171201897&#45;597044447670857414&#45;3431188338771875485&#45;&gt;cluster_cluster_cluster_&#45;2202121249019829706&#45;3455702456171201897&#45;597044447670857414&#45;4107303406765054665 -->
<g id="edge7" class="edge"><title>cluster_cluster_cluster_&#45;2202121249019829706&#45;3455702456171201897&#45;597044447670857414&#45;3431188338771875485&#45;&gt;cluster_cluster_cluster_&#45;2202121249019829706&#45;3455702456171201897&#45;597044447670857414&#45;4107303406765054665</title>
<path fill="none" stroke="black" d="M148.25,-166.748C148.25,-166.748 148.25,-141.288 148.25,-141.288"/>
<polygon fill="black" stroke="black" points="151.75,-141.287 148.25,-131.288 144.75,-141.288 151.75,-141.287"/>
</g>
<!-- cluster_cluster_cluster_&#45;2202121249019829706&#45;3455702456171201897&#45;597044447670857414&#45;3431188338771875485&#45;&gt;cluster_cluster_cluster_&#45;2202121249019829706&#45;3455702456171201897&#45;597044447670857414&#45;7887996752713320927 -->
<g id="edge8" class="edge"><title>cluster_cluster_cluster_&#45;2202121249019829706&#45;3455702456171201897&#45;597044447670857414&#45;3431188338771875485&#45;&gt;cluster_cluster_cluster_&#45;2202121249019829706&#45;3455702456171201897&#45;597044447670857414&#45;7887996752713320927</title>
<path fill="none" stroke="black" d="M210.75,-166.748C210.75,-166.748 210.75,-141.288 210.75,-141.288"/>
<polygon fill="black" stroke="black" points="214.25,-141.287 210.75,-131.288 207.25,-141.288 214.25,-141.287"/>
</g>
<!-- cluster_cluster_cluster_&#45;2202121249019829706&#45;3455702456171201897&#45;5970444476708574147702748476113788344&#45;&gt;cluster_cluster_cluster_&#45;2202121249019829706&#45;3455702456171201897&#45;597044447670857414&#45;4107303406765054665 -->
<g id="edge9" class="edge"><title>cluster_cluster_cluster_&#45;2202121249019829706&#45;3455702456171201897&#45;5970444476708574147702748476113788344&#45;&gt;cluster_cluster_cluster_&#45;2202121249019829706&#45;3455702456171201897&#45;597044447670857414&#45;4107303406765054665</title>
<path fill="none" stroke="black" d="M65,-172.909C65,-172.909 65,-141.263 65,-141.263"/>
<polygon fill="black" stroke="black" points="68.5001,-141.263 65,-131.263 61.5001,-141.263 68.5001,-141.263"/>
</g>
<!-- cluster_cluster_cluster_&#45;2202121249019829706&#45;3455702456171201897&#45;5970444476708574144919105944985796052&#45;&gt;cluster_cluster_cluster_&#45;2202121249019829706&#45;3455702456171201897&#45;597044447670857414&#45;7887996752713320927 -->
<g id="edge10" class="edge"><title>cluster_cluster_cluster_&#45;2202121249019829706&#45;3455702456171201897&#45;5970444476708574144919105944985796052&#45;&gt;cluster_cluster_cluster_&#45;2202121249019829706&#45;3455702456171201897&#45;597044447670857414&#45;7887996752713320927</title>
<path fill="none" stroke="black" d="M288,-172.909C288,-172.909 288,-141.263 288,-141.263"/>
<polygon fill="black" stroke="black" points="291.5,-141.263 288,-131.263 284.5,-141.263 291.5,-141.263"/>
</g>
<!-- cluster_cluster_cluster_&#45;2202121249019829706&#45;3455702456171201897&#45;597044447670857414&#45;3274255707223734200 -->
<g id="node13" class="node"><title>cluster_cluster_cluster_&#45;2202121249019829706&#45;3455702456171201897&#45;597044447670857414&#45;3274255707223734200</title>
<g id="a_node13"><a xlink:title="Keys to select.">
<path fill="cyan" stroke="black" d="M403.5,-560C403.5,-560 168.5,-560 168.5,-560 162.5,-560 156.5,-554 156.5,-548 156.5,-548 156.5,-479 156.5,-479 156.5,-473 162.5,-467 168.5,-467 168.5,-467 403.5,-467 403.5,-467 409.5,-467 415.5,-473 415.5,-479 415.5,-479 415.5,-548 415.5,-548 415.5,-554 409.5,-560 403.5,-560"/>
<text text-anchor="start" x="266" y="-542.3" font-family="Times New Roman,serif" font-size="14.00">models</text>
<polygon fill="none" stroke="black" points="165,-470.5 165,-536.5 217,-536.5 217,-470.5 165,-470.5"/>
<text text-anchor="start" x="168" y="-499.8" font-family="Times New Roman,serif" font-size="14.00">default=</text>
<polygon fill="none" stroke="black" points="217,-470.5 217,-536.5 408,-536.5 408,-470.5 217,-470.5"/>
<text text-anchor="start" x="240" y="-522.3" font-family="Times New Roman,serif" font-size="14.00">[&#39;co2_params_calibrated&#39;,</text>
<text text-anchor="start" x="256.5" y="-507.3" font-family="Times New Roman,serif" font-size="14.00"> &#39;calibration_status&#39;,</text>
<text text-anchor="start" x="243.5" y="-492.3" font-family="Times New Roman,serif" font-size="14.00"> &#39;initial_friction_params&#39;,</text>
<text text-anchor="start" x="220" y="-477.3" font-family="Times New Roman,serif" font-size="14.00"> &#39;engine_idle_fuel_consumption&#39;]</text>
</a>
</g>
</g>
<!-- cluster_cluster_cluster_&#45;2202121249019829706&#45;3455702456171201897&#45;597044447670857414&#45;8800720961443810657 -->
<g id="node14" class="node"><title>cluster_cluster_cluster_&#45;2202121249019829706&#45;3455702456171201897&#45;597044447670857414&#45;8800720961443810657</title>
<g id="a_node14"><a xlink:href="./../alternator_model_selector/AM-wltp_h_errors/AM-wltp_h_error_vs_wltp_h/select_inputs0.txt" xlink:title="Selects the chosen dictionary keys from the given dictionary.">
<polygon fill="springgreen" stroke="black" points="337,-431 237,-431 237,-395 337,-395 337,-431"/>
<text text-anchor="start" x="247" y="-408.8" font-family="Times New Roman,serif" font-size="14.00">select_models</text>
</a>
</g>
</g>
<!-- cluster_cluster_cluster_&#45;2202121249019829706&#45;3455702456171201897&#45;597044447670857414&#45;3274255707223734200&#45;&gt;cluster_cluster_cluster_&#45;2202121249019829706&#45;3455702456171201897&#45;597044447670857414&#45;8800720961443810657 -->
<g id="edge11" class="edge"><title>cluster_cluster_cluster_&#45;2202121249019829706&#45;3455702456171201897&#45;597044447670857414&#45;3274255707223734200&#45;&gt;cluster_cluster_cluster_&#45;2202121249019829706&#45;3455702456171201897&#45;597044447670857414&#45;8800720961443810657</title>
<path fill="none" stroke="black" d="M287,-466.781C287,-466.781 287,-441.011 287,-441.011"/>
<polygon fill="black" stroke="black" points="290.5,-441.011 287,-431.011 283.5,-441.011 290.5,-441.011"/>
</g>
<!-- cluster_cluster_cluster_&#45;2202121249019829706&#45;3455702456171201897&#45;597044447670857414&#45;8800720961443810657&#45;&gt;cluster_cluster_cluster_&#45;2202121249019829706&#45;3455702456171201897&#45;597044447670857414&#45;2181095411792409824 -->
<g id="edge12" class="edge"><title>cluster_cluster_cluster_&#45;2202121249019829706&#45;3455702456171201897&#45;597044447670857414&#45;8800720961443810657&#45;&gt;cluster_cluster_cluster_&#45;2202121249019829706&#45;3455702456171201897&#45;597044447670857414&#45;2181095411792409824</title>
<path fill="none" stroke="black" d="M287,-394.831C287,-394.831 287,-369.413 287,-369.413"/>
<polygon fill="black" stroke="black" points="290.5,-369.413 287,-359.413 283.5,-369.413 290.5,-369.413"/>
</g>
<!-- cluster_cluster_cluster_&#45;2202121249019829706&#45;3455702456171201897&#45;5970444476708574144712647501736754553&#45;&gt;cluster_cluster_cluster_&#45;2202121249019829706&#45;3455702456171201897&#45;597044447670857414&#45;7067757294929678007 -->
<g id="edge16" class="edge"><title>cluster_cluster_cluster_&#45;2202121249019829706&#45;3455702456171201897&#45;5970444476708574144712647501736754553&#45;&gt;cluster_cluster_cluster_&#45;2202121249019829706&#45;3455702456171201897&#45;597044447670857414&#45;7067757294929678007</title>
<path fill="none" stroke="black" d="M69,-394.762C69,-394.762 69,-297.09 69,-297.09"/>
<polygon fill="black" stroke="black" points="72.5001,-297.09 69,-287.09 65.5001,-297.09 72.5001,-297.09"/>
</g>
<!-- cluster_cluster_cluster_&#45;2202121249019829706&#45;3455702456171201897&#45;597044447670857414&#45;4779657526738643707&#45;&gt;cluster_cluster_cluster_&#45;2202121249019829706&#45;3455702456171201897&#45;5970444476708574144298277636058170859 -->
<g id="edge17" class="edge"><title>cluster_cluster_cluster_&#45;2202121249019829706&#45;3455702456171201897&#45;597044447670857414&#45;4779657526738643707&#45;&gt;cluster_cluster_cluster_&#45;2202121249019829706&#45;3455702456171201897&#45;5970444476708574144298277636058170859</title>
<path fill="none" stroke="black" d="M471.333,-495.123C471.333,-438.261 471.333,-269 471.333,-269 471.333,-269 344.263,-269 344.263,-269"/>
<polygon fill="black" stroke="black" points="344.263,-265.5 334.263,-269 344.263,-272.5 344.263,-265.5"/>
</g>
<!-- cluster_cluster_cluster_&#45;2202121249019829706&#45;3455702456171201897&#45;597044447670857414&#45;4779657526738643707&#45;&gt;cluster_cluster_cluster_&#45;2202121249019829706&#45;3455702456171201897&#45;597044447670857414&#45;8800720961443810657 -->
<g id="edge18" class="edge"><title>cluster_cluster_cluster_&#45;2202121249019829706&#45;3455702456171201897&#45;597044447670857414&#45;4779657526738643707&#45;&gt;cluster_cluster_cluster_&#45;2202121249019829706&#45;3455702456171201897&#45;597044447670857414&#45;8800720961443810657</title>
<path fill="none" stroke="black" d="M452.667,-495.067C452.667,-466.053 452.667,-413 452.667,-413 452.667,-413 347.155,-413 347.155,-413"/>
<polygon fill="black" stroke="black" points="347.155,-409.5 337.155,-413 347.155,-416.5 347.155,-409.5"/>
</g>
</g>
</svg>
