<?xml version="1.0" encoding="UTF-8" standalone="no"?>
<!DOCTYPE svg PUBLIC "-//W3C//DTD SVG 1.1//EN"
 "http://www.w3.org/Graphics/SVG/1.1/DTD/svg11.dtd">
<!-- Generated by graphviz version 2.38.0 (20140413.2041)
 -->
<!-- Title: cluster_Electrics Pages: 1 -->
<svg width="1825pt" height="523pt"
 viewBox="0.00 0.00 1825.00 523.00" xmlns="http://www.w3.org/2000/svg" xmlns:xlink="http://www.w3.org/1999/xlink">
<g id="graph0" class="graph" transform="scale(1 1) rotate(0) translate(4 519)">
<title>cluster_Electrics</title>
<polygon fill="white" stroke="none" points="-4,4 -4,-519 1821,-519 1821,4 -4,4"/>
<text text-anchor="start" x="884" y="-7.8" font-family="Times New Roman,serif" font-size="14.00">Electrics</text>
<!-- cluster_cluster_cluster_cluster_cluster_&#45;220212124901982970686041060515781939772958695195304796365780796865716420896&#45;347487195842364479&#45;6281391710310240799 -->
<g id="node1" class="node"><title>cluster_cluster_cluster_cluster_cluster_&#45;220212124901982970686041060515781939772958695195304796365780796865716420896&#45;347487195842364479&#45;6281391710310240799</title>
<g id="a_node1"><a xlink:title="Acceleration vector [m/s2].">
<path fill="cyan" stroke="black" d="M1111,-203C1111,-203 1041,-203 1041,-203 1035,-203 1029,-197 1029,-191 1029,-191 1029,-179 1029,-179 1029,-173 1035,-167 1041,-167 1041,-167 1111,-167 1111,-167 1117,-167 1123,-173 1123,-179 1123,-179 1123,-191 1123,-191 1123,-197 1117,-203 1111,-203"/>
<text text-anchor="start" x="1039.5" y="-180.8" font-family="Times New Roman,serif" font-size="14.00">accelerations</text>
</a>
</g>
</g>
<!-- cluster_cluster_cluster_cluster_cluster_&#45;220212124901982970686041060515781939772958695195304796365780796865716420896&#45;3474871958423644796386738361972296619 -->
<g id="node14" class="node"><title>cluster_cluster_cluster_cluster_cluster_&#45;220212124901982970686041060515781939772958695195304796365780796865716420896&#45;3474871958423644796386738361972296619</title>
<g id="a_node14"><a xlink:href="./Electrics/co2mpas.model.physical.electricspredict_vehicle_electrics.txt" xlink:title="Predicts alternator and battery currents, state of charge, and alternator &#160;&#160;&#160;&#160;status.">
<polygon fill="springgreen" stroke="black" points="1432,-131 1272,-131 1272,-95 1432,-95 1432,-131"/>
<text text-anchor="start" x="1282.5" y="-108.8" font-family="Times New Roman,serif" font-size="14.00">predict_vehicle_electrics</text>
</a>
</g>
</g>
<!-- cluster_cluster_cluster_cluster_cluster_&#45;220212124901982970686041060515781939772958695195304796365780796865716420896&#45;347487195842364479&#45;6281391710310240799&#45;&gt;cluster_cluster_cluster_cluster_cluster_&#45;220212124901982970686041060515781939772958695195304796365780796865716420896&#45;3474871958423644796386738361972296619 -->
<g id="edge1" class="edge"><title>cluster_cluster_cluster_cluster_cluster_&#45;220212124901982970686041060515781939772958695195304796365780796865716420896&#45;347487195842364479&#45;6281391710310240799&#45;&gt;cluster_cluster_cluster_cluster_cluster_&#45;220212124901982970686041060515781939772958695195304796365780796865716420896&#45;3474871958423644796386738361972296619</title>
<path fill="none" stroke="black" d="M1100.5,-166.831C1100.5,-145.502 1100.5,-113 1100.5,-113 1100.5,-113 1261.73,-113 1261.73,-113"/>
<polygon fill="black" stroke="black" points="1261.73,-116.5 1271.73,-113 1261.73,-109.5 1261.73,-116.5"/>
</g>
<!-- cluster_cluster_cluster_cluster_cluster_&#45;220212124901982970686041060515781939772958695195304796365780796865716420896&#45;347487195842364479&#45;1562146963235281099 -->
<g id="node2" class="node"><title>cluster_cluster_cluster_cluster_cluster_&#45;220212124901982970686041060515781939772958695195304796365780796865716420896&#45;347487195842364479&#45;1562146963235281099</title>
<g id="a_node2"><a xlink:title="Alternator current model.">
<path fill="cyan" stroke="black" d="M150,-353C150,-353 12,-353 12,-353 6,-353 0,-347 0,-341 0,-341 0,-329 0,-329 0,-323 6,-317 12,-317 12,-317 150,-317 150,-317 156,-317 162,-323 162,-329 162,-329 162,-341 162,-341 162,-347 156,-353 150,-353"/>
<text text-anchor="start" x="10.5" y="-330.8" font-family="Times New Roman,serif" font-size="14.00">alternator_current_model</text>
</a>
</g>
</g>
<!-- cluster_cluster_cluster_cluster_cluster_&#45;220212124901982970686041060515781939772958695195304796365780796865716420896&#45;347487195842364479&#45;1646947786470769726 -->
<g id="node13" class="node"><title>cluster_cluster_cluster_cluster_cluster_&#45;220212124901982970686041060515781939772958695195304796365780796865716420896&#45;347487195842364479&#45;1646947786470769726</title>
<g id="a_node13"><a xlink:href="./Electrics/co2mpas.model.physical.electricsdefine_electrics_model.txt" xlink:title="Defines the electrics model.">
<polygon fill="springgreen" stroke="black" points="944,-275 794,-275 794,-239 944,-239 944,-275"/>
<text text-anchor="start" x="804" y="-252.8" font-family="Times New Roman,serif" font-size="14.00">define_electrics_model</text>
</a>
</g>
</g>
<!-- cluster_cluster_cluster_cluster_cluster_&#45;220212124901982970686041060515781939772958695195304796365780796865716420896&#45;347487195842364479&#45;1562146963235281099&#45;&gt;cluster_cluster_cluster_cluster_cluster_&#45;220212124901982970686041060515781939772958695195304796365780796865716420896&#45;347487195842364479&#45;1646947786470769726 -->
<g id="edge2" class="edge"><title>cluster_cluster_cluster_cluster_cluster_&#45;220212124901982970686041060515781939772958695195304796365780796865716420896&#45;347487195842364479&#45;1562146963235281099&#45;&gt;cluster_cluster_cluster_cluster_cluster_&#45;220212124901982970686041060515781939772958695195304796365780796865716420896&#45;347487195842364479&#45;1646947786470769726</title>
<path fill="none" stroke="black" d="M81,-316.99C81,-290.983 81,-246 81,-246 81,-246 783.8,-246 783.8,-246"/>
<polygon fill="black" stroke="black" points="783.8,-249.5 793.8,-246 783.8,-242.5 783.8,-249.5"/>
</g>
<!-- cluster_cluster_cluster_cluster_cluster_&#45;220212124901982970686041060515781939772958695195304796365780796865716420896&#45;3474871958423644794048272185084839970 -->
<g id="node3" class="node"><title>cluster_cluster_cluster_cluster_cluster_&#45;220212124901982970686041060515781939772958695195304796365780796865716420896&#45;3474871958423644794048272185084839970</title>
<g id="a_node3"><a xlink:title="alternator_currents">
<path fill="cyan" stroke="black" d="M1192,-59C1192,-59 1090,-59 1090,-59 1084,-59 1078,-53 1078,-47 1078,-47 1078,-35 1078,-35 1078,-29 1084,-23 1090,-23 1090,-23 1192,-23 1192,-23 1198,-23 1204,-29 1204,-35 1204,-35 1204,-47 1204,-47 1204,-53 1198,-59 1192,-59"/>
<text text-anchor="start" x="1088.5" y="-36.8" font-family="Times New Roman,serif" font-size="14.00">alternator_currents</text>
</a>
</g>
</g>
<!-- cluster_cluster_cluster_cluster_cluster_&#45;220212124901982970686041060515781939772958695195304796365780796865716420896&#45;3474871958423644793374498049580638783 -->
<g id="node4" class="node"><title>cluster_cluster_cluster_cluster_cluster_&#45;220212124901982970686041060515781939772958695195304796365780796865716420896&#45;3474871958423644793374498049580638783</title>
<g id="a_node4"><a xlink:title="Alternator efficiency [&#45;].">
<path fill="cyan" stroke="black" d="M266,-515C266,-515 156,-515 156,-515 150,-515 144,-509 144,-503 144,-503 144,-479 144,-479 144,-473 150,-467 156,-467 156,-467 266,-467 266,-467 272,-467 278,-473 278,-479 278,-479 278,-503 278,-503 278,-509 272,-515 266,-515"/>
<text text-anchor="start" x="154" y="-497.8" font-family="Times New Roman,serif" font-size="14.00">alternator_efficiency</text>
<polygon fill="none" stroke="black" points="152,-471 152,-492 221,-492 221,-471 152,-471"/>
<text text-anchor="start" x="172" y="-477.8" font-family="Times New Roman,serif" font-size="14.00">default=</text>
<polygon fill="none" stroke="black" points="221,-471 221,-492 270,-492 270,-471 221,-471"/>
<text text-anchor="start" x="224" y="-477.8" font-family="Times New Roman,serif" font-size="14.00">0.67</text>
</a>
</g>
</g>
<!-- cluster_cluster_cluster_cluster_cluster_&#45;220212124901982970686041060515781939772958695195304796365780796865716420896&#45;347487195842364479&#45;4429337763907036511 -->
<g id="node12" class="node"><title>cluster_cluster_cluster_cluster_cluster_&#45;220212124901982970686041060515781939772958695195304796365780796865716420896&#45;347487195842364479&#45;4429337763907036511</title>
<g id="a_node12"><a xlink:href="./Electrics/co2mpas.model.physical.electricscalculate_max_alternator_current.txt" xlink:title="Calculates the max feasible alternator current [A].">
<polygon fill="springgreen" stroke="black" points="496,-431 290,-431 290,-395 496,-395 496,-431"/>
<text text-anchor="start" x="300.5" y="-408.8" font-family="Times New Roman,serif" font-size="14.00">calculate_max_alternator_current</text>
</a>
</g>
</g>
<!-- cluster_cluster_cluster_cluster_cluster_&#45;220212124901982970686041060515781939772958695195304796365780796865716420896&#45;3474871958423644793374498049580638783&#45;&gt;cluster_cluster_cluster_cluster_cluster_&#45;220212124901982970686041060515781939772958695195304796365780796865716420896&#45;347487195842364479&#45;4429337763907036511 -->
<g id="edge3" class="edge"><title>cluster_cluster_cluster_cluster_cluster_&#45;220212124901982970686041060515781939772958695195304796365780796865716420896&#45;3474871958423644793374498049580638783&#45;&gt;cluster_cluster_cluster_cluster_cluster_&#45;220212124901982970686041060515781939772958695195304796365780796865716420896&#45;347487195842364479&#45;4429337763907036511</title>
<path fill="none" stroke="black" d="M229,-466.748C229,-443.851 229,-413 229,-413 229,-413 279.602,-413 279.602,-413"/>
<polygon fill="black" stroke="black" points="279.602,-416.5 289.602,-413 279.602,-409.5 279.602,-416.5"/>
</g>
<!-- cluster_cluster_cluster_cluster_cluster_&#45;220212124901982970686041060515781939772958695195304796365780796865716420896&#45;3474871958423644792467524713918895117 -->
<g id="node5" class="node"><title>cluster_cluster_cluster_cluster_cluster_&#45;220212124901982970686041060515781939772958695195304796365780796865716420896&#45;3474871958423644792467524713918895117</title>
<g id="a_node5"><a xlink:title="Alternator initialization time delta [s].">
<path fill="cyan" stroke="black" d="M344,-353C344,-353 192,-353 192,-353 186,-353 180,-347 180,-341 180,-341 180,-329 180,-329 180,-323 186,-317 192,-317 192,-317 344,-317 344,-317 350,-317 356,-323 356,-329 356,-329 356,-341 356,-341 356,-347 350,-353 344,-353"/>
<text text-anchor="start" x="190.5" y="-330.8" font-family="Times New Roman,serif" font-size="14.00">alternator_initialization_time</text>
</a>
</g>
</g>
<!-- cluster_cluster_cluster_cluster_cluster_&#45;220212124901982970686041060515781939772958695195304796365780796865716420896&#45;3474871958423644792467524713918895117&#45;&gt;cluster_cluster_cluster_cluster_cluster_&#45;220212124901982970686041060515781939772958695195304796365780796865716420896&#45;347487195842364479&#45;1646947786470769726 -->
<g id="edge4" class="edge"><title>cluster_cluster_cluster_cluster_cluster_&#45;220212124901982970686041060515781939772958695195304796365780796865716420896&#45;3474871958423644792467524713918895117&#45;&gt;cluster_cluster_cluster_cluster_cluster_&#45;220212124901982970686041060515781939772958695195304796365780796865716420896&#45;347487195842364479&#45;1646947786470769726</title>
<path fill="none" stroke="black" d="M268,-316.802C268,-292.644 268,-253 268,-253 268,-253 783.795,-253 783.795,-253"/>
<polygon fill="black" stroke="black" points="783.795,-256.5 793.795,-253 783.795,-249.5 783.795,-256.5"/>
</g>
<!-- cluster_cluster_cluster_cluster_cluster_&#45;220212124901982970686041060515781939772958695195304796365780796865716420896&#45;3474871958423644798172150442275880415 -->
<g id="node6" class="node"><title>cluster_cluster_cluster_cluster_cluster_&#45;220212124901982970686041060515781939772958695195304796365780796865716420896&#45;3474871958423644798172150442275880415</title>
<g id="a_node6"><a xlink:title="Alternator nominal power [kW].">
<path fill="cyan" stroke="black" d="M450,-509C450,-509 308,-509 308,-509 302,-509 296,-503 296,-497 296,-497 296,-485 296,-485 296,-479 302,-473 308,-473 308,-473 450,-473 450,-473 456,-473 462,-479 462,-485 462,-485 462,-497 462,-497 462,-503 456,-509 450,-509"/>
<text text-anchor="start" x="306" y="-486.8" font-family="Times New Roman,serif" font-size="14.00">alternator_nominal_power</text>
</a>
</g>
</g>
<!-- cluster_cluster_cluster_cluster_cluster_&#45;220212124901982970686041060515781939772958695195304796365780796865716420896&#45;3474871958423644798172150442275880415&#45;&gt;cluster_cluster_cluster_cluster_cluster_&#45;220212124901982970686041060515781939772958695195304796365780796865716420896&#45;347487195842364479&#45;4429337763907036511 -->
<g id="edge5" class="edge"><title>cluster_cluster_cluster_cluster_cluster_&#45;220212124901982970686041060515781939772958695195304796365780796865716420896&#45;3474871958423644798172150442275880415&#45;&gt;cluster_cluster_cluster_cluster_cluster_&#45;220212124901982970686041060515781939772958695195304796365780796865716420896&#45;347487195842364479&#45;4429337763907036511</title>
<path fill="none" stroke="black" d="M379,-472.909C379,-472.909 379,-441.263 379,-441.263"/>
<polygon fill="black" stroke="black" points="382.5,-441.263 379,-431.263 375.5,-441.263 382.5,-441.263"/>
</g>
<!-- cluster_cluster_cluster_cluster_cluster_&#45;220212124901982970686041060515781939772958695195304796365780796865716420896&#45;3474871958423644791544737366836968284 -->
<g id="node7" class="node"><title>cluster_cluster_cluster_cluster_cluster_&#45;220212124901982970686041060515781939772958695195304796365780796865716420896&#45;3474871958423644791544737366836968284</title>
<g id="a_node7"><a xlink:title="Alternator nominal voltage [V].">
<path fill="cyan" stroke="black" d="M640,-509C640,-509 492,-509 492,-509 486,-509 480,-503 480,-497 480,-497 480,-485 480,-485 480,-479 486,-473 492,-473 492,-473 640,-473 640,-473 646,-473 652,-479 652,-485 652,-485 652,-497 652,-497 652,-503 646,-509 640,-509"/>
<text text-anchor="start" x="490.5" y="-486.8" font-family="Times New Roman,serif" font-size="14.00">alternator_nominal_voltage</text>
</a>
</g>
</g>
<!-- cluster_cluster_cluster_cluster_cluster_&#45;220212124901982970686041060515781939772958695195304796365780796865716420896&#45;3474871958423644791544737366836968284&#45;&gt;cluster_cluster_cluster_cluster_cluster_&#45;220212124901982970686041060515781939772958695195304796365780796865716420896&#45;347487195842364479&#45;4429337763907036511 -->
<g id="edge6" class="edge"><title>cluster_cluster_cluster_cluster_cluster_&#45;220212124901982970686041060515781939772958695195304796365780796865716420896&#45;3474871958423644791544737366836968284&#45;&gt;cluster_cluster_cluster_cluster_cluster_&#45;220212124901982970686041060515781939772958695195304796365780796865716420896&#45;347487195842364479&#45;4429337763907036511</title>
<path fill="none" stroke="black" d="M488,-472.909C488,-472.909 488,-441.263 488,-441.263"/>
<polygon fill="black" stroke="black" points="491.5,-441.263 488,-431.263 484.5,-441.263 491.5,-441.263"/>
</g>
<!-- cluster_cluster_cluster_cluster_cluster_&#45;220212124901982970686041060515781939772958695195304796365780796865716420896&#45;3474871958423644791544737366836968284&#45;&gt;cluster_cluster_cluster_cluster_cluster_&#45;220212124901982970686041060515781939772958695195304796365780796865716420896&#45;347487195842364479&#45;1646947786470769726 -->
<g id="edge7" class="edge"><title>cluster_cluster_cluster_cluster_cluster_&#45;220212124901982970686041060515781939772958695195304796365780796865716420896&#45;3474871958423644791544737366836968284&#45;&gt;cluster_cluster_cluster_cluster_cluster_&#45;220212124901982970686041060515781939772958695195304796365780796865716420896&#45;347487195842364479&#45;1646947786470769726</title>
<path fill="none" stroke="black" d="M652.074,-491C743.504,-491 875,-491 875,-491 875,-491 875,-285.362 875,-285.362"/>
<polygon fill="black" stroke="black" points="878.5,-285.362 875,-275.362 871.5,-285.362 878.5,-285.362"/>
</g>
<!-- cluster_cluster_cluster_cluster_cluster_&#45;220212124901982970686041060515781939772958695195304796365780796865716420896&#45;347487195842364479&#45;3386428325725173726 -->
<g id="node8" class="node"><title>cluster_cluster_cluster_cluster_cluster_&#45;220212124901982970686041060515781939772958695195304796365780796865716420896&#45;347487195842364479&#45;3386428325725173726</title>
<g id="a_node8"><a xlink:title="A function that predicts the alternator status.">
<path fill="cyan" stroke="black" d="M722,-353C722,-353 592,-353 592,-353 586,-353 580,-347 580,-341 580,-341 580,-329 580,-329 580,-323 586,-317 592,-317 592,-317 722,-317 722,-317 728,-317 734,-323 734,-329 734,-329 734,-341 734,-341 734,-347 728,-353 722,-353"/>
<text text-anchor="start" x="590" y="-330.8" font-family="Times New Roman,serif" font-size="14.00">alternator_status_model</text>
</a>
</g>
</g>
<!-- cluster_cluster_cluster_cluster_cluster_&#45;220212124901982970686041060515781939772958695195304796365780796865716420896&#45;347487195842364479&#45;3386428325725173726&#45;&gt;cluster_cluster_cluster_cluster_cluster_&#45;220212124901982970686041060515781939772958695195304796365780796865716420896&#45;347487195842364479&#45;1646947786470769726 -->
<g id="edge8" class="edge"><title>cluster_cluster_cluster_cluster_cluster_&#45;220212124901982970686041060515781939772958695195304796365780796865716420896&#45;347487195842364479&#45;3386428325725173726&#45;&gt;cluster_cluster_cluster_cluster_cluster_&#45;220212124901982970686041060515781939772958695195304796365780796865716420896&#45;347487195842364479&#45;1646947786470769726</title>
<path fill="none" stroke="black" d="M657,-316.777C657,-296.635 657,-267 657,-267 657,-267 783.958,-267 783.958,-267"/>
<polygon fill="black" stroke="black" points="783.958,-270.5 793.958,-267 783.958,-263.5 783.958,-270.5"/>
</g>
<!-- cluster_cluster_cluster_cluster_cluster_&#45;220212124901982970686041060515781939772958695195304796365780796865716420896&#45;347487195842364479&#45;721581489567729968 -->
<g id="node9" class="node"><title>cluster_cluster_cluster_cluster_cluster_&#45;220212124901982970686041060515781939772958695195304796365780796865716420896&#45;347487195842364479&#45;721581489567729968</title>
<g id="a_node9"><a xlink:title="alternator_statuses">
<path fill="cyan" stroke="black" d="M1334,-59C1334,-59 1234,-59 1234,-59 1228,-59 1222,-53 1222,-47 1222,-47 1222,-35 1222,-35 1222,-29 1228,-23 1234,-23 1234,-23 1334,-23 1334,-23 1340,-23 1346,-29 1346,-35 1346,-35 1346,-47 1346,-47 1346,-53 1340,-59 1334,-59"/>
<text text-anchor="start" x="1232" y="-36.8" font-family="Times New Roman,serif" font-size="14.00">alternator_statuses</text>
</a>
</g>
</g>
<!-- cluster_cluster_cluster_cluster_cluster_&#45;220212124901982970686041060515781939772958695195304796365780796865716420896&#45;3474871958423644798279110369808347555 -->
<g id="node10" class="node"><title>cluster_cluster_cluster_cluster_cluster_&#45;220212124901982970686041060515781939772958695195304796365780796865716420896&#45;3474871958423644798279110369808347555</title>
<g id="a_node10"><a xlink:title="Battery capacity [Ah].">
<path fill="cyan" stroke="black" d="M854,-353C854,-353 764,-353 764,-353 758,-353 752,-347 752,-341 752,-341 752,-329 752,-329 752,-323 758,-317 764,-317 764,-317 854,-317 854,-317 860,-317 866,-323 866,-329 866,-329 866,-341 866,-341 866,-347 860,-353 854,-353"/>
<text text-anchor="start" x="762.5" y="-330.8" font-family="Times New Roman,serif" font-size="14.00">battery_capacity</text>
</a>
</g>
</g>
<!-- cluster_cluster_cluster_cluster_cluster_&#45;220212124901982970686041060515781939772958695195304796365780796865716420896&#45;3474871958423644798279110369808347555&#45;&gt;cluster_cluster_cluster_cluster_cluster_&#45;220212124901982970686041060515781939772958695195304796365780796865716420896&#45;347487195842364479&#45;1646947786470769726 -->
<g id="edge9" class="edge"><title>cluster_cluster_cluster_cluster_cluster_&#45;220212124901982970686041060515781939772958695195304796365780796865716420896&#45;3474871958423644798279110369808347555&#45;&gt;cluster_cluster_cluster_cluster_cluster_&#45;220212124901982970686041060515781939772958695195304796365780796865716420896&#45;347487195842364479&#45;1646947786470769726</title>
<path fill="none" stroke="black" d="M830,-316.909C830,-316.909 830,-285.263 830,-285.263"/>
<polygon fill="black" stroke="black" points="833.5,-285.263 830,-275.263 826.5,-285.263 833.5,-285.263"/>
</g>
<!-- cluster_cluster_cluster_cluster_cluster_&#45;220212124901982970686041060515781939772958695195304796365780796865716420896&#45;347487195842364479&#45;507263208135638232 -->
<g id="node11" class="node"><title>cluster_cluster_cluster_cluster_cluster_&#45;220212124901982970686041060515781939772958695195304796365780796865716420896&#45;347487195842364479&#45;507263208135638232</title>
<g id="a_node11"><a xlink:title="battery_currents">
<path fill="cyan" stroke="black" d="M1464,-59C1464,-59 1376,-59 1376,-59 1370,-59 1364,-53 1364,-47 1364,-47 1364,-35 1364,-35 1364,-29 1370,-23 1376,-23 1376,-23 1464,-23 1464,-23 1470,-23 1476,-29 1476,-35 1476,-35 1476,-47 1476,-47 1476,-53 1470,-59 1464,-59"/>
<text text-anchor="start" x="1374.5" y="-36.8" font-family="Times New Roman,serif" font-size="14.00">battery_currents</text>
</a>
</g>
</g>
<!-- cluster_cluster_cluster_cluster_cluster_&#45;220212124901982970686041060515781939772958695195304796365780796865716420896&#45;347487195842364479&#45;8822461912675508964 -->
<g id="node21" class="node"><title>cluster_cluster_cluster_cluster_cluster_&#45;220212124901982970686041060515781939772958695195304796365780796865716420896&#45;347487195842364479&#45;8822461912675508964</title>
<g id="a_node21"><a xlink:title="Max feasible alternator current [A].">
<path fill="cyan" stroke="black" d="M512,-353C512,-353 386,-353 386,-353 380,-353 374,-347 374,-341 374,-341 374,-329 374,-329 374,-323 380,-317 386,-317 386,-317 512,-317 512,-317 518,-317 524,-323 524,-329 524,-329 524,-341 524,-341 524,-347 518,-353 512,-353"/>
<text text-anchor="start" x="384" y="-330.8" font-family="Times New Roman,serif" font-size="14.00">max_alternator_current</text>
</a>
</g>
</g>
<!-- cluster_cluster_cluster_cluster_cluster_&#45;220212124901982970686041060515781939772958695195304796365780796865716420896&#45;347487195842364479&#45;4429337763907036511&#45;&gt;cluster_cluster_cluster_cluster_cluster_&#45;220212124901982970686041060515781939772958695195304796365780796865716420896&#45;347487195842364479&#45;8822461912675508964 -->
<g id="edge10" class="edge"><title>cluster_cluster_cluster_cluster_cluster_&#45;220212124901982970686041060515781939772958695195304796365780796865716420896&#45;347487195842364479&#45;4429337763907036511&#45;&gt;cluster_cluster_cluster_cluster_cluster_&#45;220212124901982970686041060515781939772958695195304796365780796865716420896&#45;347487195842364479&#45;8822461912675508964</title>
<path fill="none" stroke="black" d="M435,-394.909C435,-394.909 435,-363.263 435,-363.263"/>
<polygon fill="black" stroke="black" points="438.5,-363.263 435,-353.263 431.5,-363.263 438.5,-363.263"/>
</g>
<!-- cluster_cluster_cluster_cluster_cluster_&#45;220212124901982970686041060515781939772958695195304796365780796865716420896&#45;347487195842364479&#45;2293311958973625661 -->
<g id="node16" class="node"><title>cluster_cluster_cluster_cluster_cluster_&#45;220212124901982970686041060515781939772958695195304796365780796865716420896&#45;347487195842364479&#45;2293311958973625661</title>
<g id="a_node16"><a xlink:title="Electrics model.">
<path fill="cyan" stroke="black" d="M1237,-203C1237,-203 1153,-203 1153,-203 1147,-203 1141,-197 1141,-191 1141,-191 1141,-179 1141,-179 1141,-173 1147,-167 1153,-167 1153,-167 1237,-167 1237,-167 1243,-167 1249,-173 1249,-179 1249,-179 1249,-191 1249,-191 1249,-197 1243,-203 1237,-203"/>
<text text-anchor="start" x="1151" y="-180.8" font-family="Times New Roman,serif" font-size="14.00">electrics_model</text>
</a>
</g>
</g>
<!-- cluster_cluster_cluster_cluster_cluster_&#45;220212124901982970686041060515781939772958695195304796365780796865716420896&#45;347487195842364479&#45;1646947786470769726&#45;&gt;cluster_cluster_cluster_cluster_cluster_&#45;220212124901982970686041060515781939772958695195304796365780796865716420896&#45;347487195842364479&#45;2293311958973625661 -->
<g id="edge11" class="edge"><title>cluster_cluster_cluster_cluster_cluster_&#45;220212124901982970686041060515781939772958695195304796365780796865716420896&#45;347487195842364479&#45;1646947786470769726&#45;&gt;cluster_cluster_cluster_cluster_cluster_&#45;220212124901982970686041060515781939772958695195304796365780796865716420896&#45;347487195842364479&#45;2293311958973625661</title>
<path fill="none" stroke="black" d="M944.366,-245C1026.85,-245 1147.5,-245 1147.5,-245 1147.5,-245 1147.5,-213.002 1147.5,-213.002"/>
<polygon fill="black" stroke="black" points="1151,-213.002 1147.5,-203.002 1144,-213.002 1151,-213.002"/>
</g>
<!-- cluster_cluster_cluster_cluster_cluster_&#45;220212124901982970686041060515781939772958695195304796365780796865716420896&#45;3474871958423644796386738361972296619&#45;&gt;cluster_cluster_cluster_cluster_cluster_&#45;220212124901982970686041060515781939772958695195304796365780796865716420896&#45;3474871958423644794048272185084839970 -->
<g id="edge12" class="edge"><title>cluster_cluster_cluster_cluster_cluster_&#45;220212124901982970686041060515781939772958695195304796365780796865716420896&#45;3474871958423644796386738361972296619&#45;&gt;cluster_cluster_cluster_cluster_cluster_&#45;220212124901982970686041060515781939772958695195304796365780796865716420896&#45;3474871958423644794048272185084839970</title>
<path fill="none" stroke="black" d="M1271.96,-104C1224.1,-104 1172.5,-104 1172.5,-104 1172.5,-104 1172.5,-69.2222 1172.5,-69.2222"/>
<polygon fill="black" stroke="black" points="1176,-69.2222 1172.5,-59.2222 1169,-69.2222 1176,-69.2222"/>
</g>
<!-- cluster_cluster_cluster_cluster_cluster_&#45;220212124901982970686041060515781939772958695195304796365780796865716420896&#45;3474871958423644796386738361972296619&#45;&gt;cluster_cluster_cluster_cluster_cluster_&#45;220212124901982970686041060515781939772958695195304796365780796865716420896&#45;347487195842364479&#45;721581489567729968 -->
<g id="edge13" class="edge"><title>cluster_cluster_cluster_cluster_cluster_&#45;220212124901982970686041060515781939772958695195304796365780796865716420896&#45;3474871958423644796386738361972296619&#45;&gt;cluster_cluster_cluster_cluster_cluster_&#45;220212124901982970686041060515781939772958695195304796365780796865716420896&#45;347487195842364479&#45;721581489567729968</title>
<path fill="none" stroke="black" d="M1309,-94.8314C1309,-94.8314 1309,-69.4133 1309,-69.4133"/>
<polygon fill="black" stroke="black" points="1312.5,-69.4132 1309,-59.4133 1305.5,-69.4133 1312.5,-69.4132"/>
</g>
<!-- cluster_cluster_cluster_cluster_cluster_&#45;220212124901982970686041060515781939772958695195304796365780796865716420896&#45;3474871958423644796386738361972296619&#45;&gt;cluster_cluster_cluster_cluster_cluster_&#45;220212124901982970686041060515781939772958695195304796365780796865716420896&#45;347487195842364479&#45;507263208135638232 -->
<g id="edge14" class="edge"><title>cluster_cluster_cluster_cluster_cluster_&#45;220212124901982970686041060515781939772958695195304796365780796865716420896&#45;3474871958423644796386738361972296619&#45;&gt;cluster_cluster_cluster_cluster_cluster_&#45;220212124901982970686041060515781939772958695195304796365780796865716420896&#45;347487195842364479&#45;507263208135638232</title>
<path fill="none" stroke="black" d="M1398,-94.8314C1398,-94.8314 1398,-69.4133 1398,-69.4133"/>
<polygon fill="black" stroke="black" points="1401.5,-69.4132 1398,-59.4133 1394.5,-69.4133 1401.5,-69.4132"/>
</g>
<!-- cluster_cluster_cluster_cluster_cluster_&#45;220212124901982970686041060515781939772958695195304796365780796865716420896&#45;3474871958423644794956940051117836380 -->
<g id="node25" class="node"><title>cluster_cluster_cluster_cluster_cluster_&#45;220212124901982970686041060515781939772958695195304796365780796865716420896&#45;3474871958423644794956940051117836380</title>
<g id="a_node25"><a xlink:title="state_of_charges">
<path fill="cyan" stroke="black" d="M1598,-59C1598,-59 1506,-59 1506,-59 1500,-59 1494,-53 1494,-47 1494,-47 1494,-35 1494,-35 1494,-29 1500,-23 1506,-23 1506,-23 1598,-23 1598,-23 1604,-23 1610,-29 1610,-35 1610,-35 1610,-47 1610,-47 1610,-53 1604,-59 1598,-59"/>
<text text-anchor="start" x="1504" y="-36.8" font-family="Times New Roman,serif" font-size="14.00">state_of_charges</text>
</a>
</g>
</g>
<!-- cluster_cluster_cluster_cluster_cluster_&#45;220212124901982970686041060515781939772958695195304796365780796865716420896&#45;3474871958423644796386738361972296619&#45;&gt;cluster_cluster_cluster_cluster_cluster_&#45;220212124901982970686041060515781939772958695195304796365780796865716420896&#45;3474871958423644794956940051117836380 -->
<g id="edge15" class="edge"><title>cluster_cluster_cluster_cluster_cluster_&#45;220212124901982970686041060515781939772958695195304796365780796865716420896&#45;3474871958423644796386738361972296619&#45;&gt;cluster_cluster_cluster_cluster_cluster_&#45;220212124901982970686041060515781939772958695195304796365780796865716420896&#45;3474871958423644794956940051117836380</title>
<path fill="none" stroke="black" d="M1432.15,-104C1477.61,-104 1525.5,-104 1525.5,-104 1525.5,-104 1525.5,-69.2222 1525.5,-69.2222"/>
<polygon fill="black" stroke="black" points="1529,-69.2222 1525.5,-59.2222 1522,-69.2222 1529,-69.2222"/>
</g>
<!-- cluster_cluster_cluster_cluster_cluster_&#45;220212124901982970686041060515781939772958695195304796365780796865716420896&#45;347487195842364479&#45;1151254238307303433 -->
<g id="node15" class="node"><title>cluster_cluster_cluster_cluster_cluster_&#45;220212124901982970686041060515781939772958695195304796365780796865716420896&#45;347487195842364479&#45;1151254238307303433</title>
<g id="a_node15"><a xlink:title="Vehicle electric load (engine off and on) [kW].">
<path fill="cyan" stroke="black" d="M964,-353C964,-353 896,-353 896,-353 890,-353 884,-347 884,-341 884,-341 884,-329 884,-329 884,-323 890,-317 896,-317 896,-317 964,-317 964,-317 970,-317 976,-323 976,-329 976,-329 976,-341 976,-341 976,-347 970,-353 964,-353"/>
<text text-anchor="start" x="894" y="-330.8" font-family="Times New Roman,serif" font-size="14.00">electric_load</text>
</a>
</g>
</g>
<!-- cluster_cluster_cluster_cluster_cluster_&#45;220212124901982970686041060515781939772958695195304796365780796865716420896&#45;347487195842364479&#45;1151254238307303433&#45;&gt;cluster_cluster_cluster_cluster_cluster_&#45;220212124901982970686041060515781939772958695195304796365780796865716420896&#45;347487195842364479&#45;1646947786470769726 -->
<g id="edge16" class="edge"><title>cluster_cluster_cluster_cluster_cluster_&#45;220212124901982970686041060515781939772958695195304796365780796865716420896&#45;347487195842364479&#45;1151254238307303433&#45;&gt;cluster_cluster_cluster_cluster_cluster_&#45;220212124901982970686041060515781939772958695195304796365780796865716420896&#45;347487195842364479&#45;1646947786470769726</title>
<path fill="none" stroke="black" d="M914,-316.909C914,-316.909 914,-285.263 914,-285.263"/>
<polygon fill="black" stroke="black" points="917.5,-285.263 914,-275.263 910.5,-285.263 917.5,-285.263"/>
</g>
<!-- cluster_cluster_cluster_cluster_cluster_&#45;220212124901982970686041060515781939772958695195304796365780796865716420896&#45;347487195842364479&#45;2293311958973625661&#45;&gt;cluster_cluster_cluster_cluster_cluster_&#45;220212124901982970686041060515781939772958695195304796365780796865716420896&#45;3474871958423644796386738361972296619 -->
<g id="edge17" class="edge"><title>cluster_cluster_cluster_cluster_cluster_&#45;220212124901982970686041060515781939772958695195304796365780796865716420896&#45;347487195842364479&#45;2293311958973625661&#45;&gt;cluster_cluster_cluster_cluster_cluster_&#45;220212124901982970686041060515781939772958695195304796365780796865716420896&#45;3474871958423644796386738361972296619</title>
<path fill="none" stroke="black" d="M1235.5,-166.778C1235.5,-148.171 1235.5,-122 1235.5,-122 1235.5,-122 1261.72,-122 1261.72,-122"/>
<polygon fill="black" stroke="black" points="1261.72,-125.5 1271.72,-122 1261.72,-118.5 1261.72,-125.5"/>
</g>
<!-- cluster_cluster_cluster_cluster_cluster_&#45;220212124901982970686041060515781939772958695195304796365780796865716420896&#45;3474871958423644792413918399536769892 -->
<g id="node17" class="node"><title>cluster_cluster_cluster_cluster_cluster_&#45;220212124901982970686041060515781939772958695195304796365780796865716420896&#45;3474871958423644792413918399536769892</title>
<g id="a_node17"><a xlink:title="When the engine starts [&#45;].">
<path fill="cyan" stroke="black" d="M1387,-203C1387,-203 1317,-203 1317,-203 1311,-203 1305,-197 1305,-191 1305,-191 1305,-179 1305,-179 1305,-173 1311,-167 1317,-167 1317,-167 1387,-167 1387,-167 1393,-167 1399,-173 1399,-179 1399,-179 1399,-191 1399,-191 1399,-197 1393,-203 1387,-203"/>
<text text-anchor="start" x="1315.5" y="-180.8" font-family="Times New Roman,serif" font-size="14.00">engine_starts</text>
</a>
</g>
</g>
<!-- cluster_cluster_cluster_cluster_cluster_&#45;220212124901982970686041060515781939772958695195304796365780796865716420896&#45;3474871958423644792413918399536769892&#45;&gt;cluster_cluster_cluster_cluster_cluster_&#45;220212124901982970686041060515781939772958695195304796365780796865716420896&#45;3474871958423644796386738361972296619 -->
<g id="edge18" class="edge"><title>cluster_cluster_cluster_cluster_cluster_&#45;220212124901982970686041060515781939772958695195304796365780796865716420896&#45;3474871958423644792413918399536769892&#45;&gt;cluster_cluster_cluster_cluster_cluster_&#45;220212124901982970686041060515781939772958695195304796365780796865716420896&#45;3474871958423644796386738361972296619</title>
<path fill="none" stroke="black" d="M1352,-166.831C1352,-166.831 1352,-141.413 1352,-141.413"/>
<polygon fill="black" stroke="black" points="1355.5,-141.413 1352,-131.413 1348.5,-141.413 1355.5,-141.413"/>
</g>
<!-- cluster_cluster_cluster_cluster_cluster_&#45;220212124901982970686041060515781939772958695195304796365780796865716420896&#45;3474871958423644793660474703622079285 -->
<g id="node18" class="node"><title>cluster_cluster_cluster_cluster_cluster_&#45;220212124901982970686041060515781939772958695195304796365780796865716420896&#45;3474871958423644793660474703622079285</title>
<g id="a_node18"><a xlink:title="Gear box power vector [kW].">
<path fill="cyan" stroke="black" d="M1545,-203C1545,-203 1429,-203 1429,-203 1423,-203 1417,-197 1417,-191 1417,-191 1417,-179 1417,-179 1417,-173 1423,-167 1429,-167 1429,-167 1545,-167 1545,-167 1551,-167 1557,-173 1557,-179 1557,-179 1557,-191 1557,-191 1557,-197 1551,-203 1545,-203"/>
<text text-anchor="start" x="1427.5" y="-180.8" font-family="Times New Roman,serif" font-size="14.00">gear_box_powers_in</text>
</a>
</g>
</g>
<!-- cluster_cluster_cluster_cluster_cluster_&#45;220212124901982970686041060515781939772958695195304796365780796865716420896&#45;3474871958423644793660474703622079285&#45;&gt;cluster_cluster_cluster_cluster_cluster_&#45;220212124901982970686041060515781939772958695195304796365780796865716420896&#45;3474871958423644796386738361972296619 -->
<g id="edge19" class="edge"><title>cluster_cluster_cluster_cluster_cluster_&#45;220212124901982970686041060515781939772958695195304796365780796865716420896&#45;3474871958423644793660474703622079285&#45;&gt;cluster_cluster_cluster_cluster_cluster_&#45;220212124901982970686041060515781939772958695195304796365780796865716420896&#45;3474871958423644796386738361972296619</title>
<path fill="none" stroke="black" d="M1424.5,-166.831C1424.5,-166.831 1424.5,-141.413 1424.5,-141.413"/>
<polygon fill="black" stroke="black" points="1428,-141.413 1424.5,-131.413 1421,-141.413 1428,-141.413"/>
</g>
<!-- cluster_cluster_cluster_cluster_cluster_&#45;220212124901982970686041060515781939772958695195304796365780796865716420896&#45;347487195842364479&#45;6071815628432771688 -->
<g id="node19" class="node"><title>cluster_cluster_cluster_cluster_cluster_&#45;220212124901982970686041060515781939772958695195304796365780796865716420896&#45;347487195842364479&#45;6071815628432771688</title>
<g id="a_node19"><a xlink:title="Does the vehicle have energy recuperation features?">
<path fill="cyan" stroke="black" d="M1142,-359C1142,-359 1006,-359 1006,-359 1000,-359 994,-353 994,-347 994,-347 994,-323 994,-323 994,-317 1000,-311 1006,-311 1006,-311 1142,-311 1142,-311 1148,-311 1154,-317 1154,-323 1154,-323 1154,-347 1154,-347 1154,-353 1148,-359 1142,-359"/>
<text text-anchor="start" x="1004" y="-341.8" font-family="Times New Roman,serif" font-size="14.00">has_energy_recuperation</text>
<polygon fill="none" stroke="black" points="1002,-315 1002,-336 1083,-336 1083,-315 1002,-315"/>
<text text-anchor="start" x="1034" y="-321.8" font-family="Times New Roman,serif" font-size="14.00">default=</text>
<polygon fill="none" stroke="black" points="1083,-315 1083,-336 1146,-336 1146,-315 1083,-315"/>
<text text-anchor="start" x="1086" y="-321.8" font-family="Times New Roman,serif" font-size="14.00">True</text>
</a>
</g>
</g>
<!-- cluster_cluster_cluster_cluster_cluster_&#45;220212124901982970686041060515781939772958695195304796365780796865716420896&#45;347487195842364479&#45;6071815628432771688&#45;&gt;cluster_cluster_cluster_cluster_cluster_&#45;220212124901982970686041060515781939772958695195304796365780796865716420896&#45;347487195842364479&#45;1646947786470769726 -->
<g id="edge20" class="edge"><title>cluster_cluster_cluster_cluster_cluster_&#45;220212124901982970686041060515781939772958695195304796365780796865716420896&#45;347487195842364479&#45;6071815628432771688&#45;&gt;cluster_cluster_cluster_cluster_cluster_&#45;220212124901982970686041060515781939772958695195304796365780796865716420896&#45;347487195842364479&#45;1646947786470769726</title>
<path fill="none" stroke="black" d="M1011.5,-310.799C1011.5,-291.962 1011.5,-269 1011.5,-269 1011.5,-269 954.006,-269 954.006,-269"/>
<polygon fill="black" stroke="black" points="954.006,-265.5 944.006,-269 954.006,-272.5 954.006,-265.5"/>
</g>
<!-- cluster_cluster_cluster_cluster_cluster_&#45;220212124901982970686041060515781939772958695195304796365780796865716420896&#45;347487195842364479&#45;6361266435161598727 -->
<g id="node20" class="node"><title>cluster_cluster_cluster_cluster_cluster_&#45;220212124901982970686041060515781939772958695195304796365780796865716420896&#45;347487195842364479&#45;6361266435161598727</title>
<g id="a_node20"><a xlink:title="Initial state of charge of the battery [%].">
<path fill="cyan" stroke="black" d="M1709,-203C1709,-203 1587,-203 1587,-203 1581,-203 1575,-197 1575,-191 1575,-191 1575,-179 1575,-179 1575,-173 1581,-167 1587,-167 1587,-167 1709,-167 1709,-167 1715,-167 1721,-173 1721,-179 1721,-179 1721,-191 1721,-191 1721,-197 1715,-203 1709,-203"/>
<text text-anchor="start" x="1585" y="-180.8" font-family="Times New Roman,serif" font-size="14.00">initial_state_of_charge</text>
</a>
</g>
</g>
<!-- cluster_cluster_cluster_cluster_cluster_&#45;220212124901982970686041060515781939772958695195304796365780796865716420896&#45;347487195842364479&#45;6361266435161598727&#45;&gt;cluster_cluster_cluster_cluster_cluster_&#45;220212124901982970686041060515781939772958695195304796365780796865716420896&#45;3474871958423644796386738361972296619 -->
<g id="edge21" class="edge"><title>cluster_cluster_cluster_cluster_cluster_&#45;220212124901982970686041060515781939772958695195304796365780796865716420896&#45;347487195842364479&#45;6361266435161598727&#45;&gt;cluster_cluster_cluster_cluster_cluster_&#45;220212124901982970686041060515781939772958695195304796365780796865716420896&#45;3474871958423644796386738361972296619</title>
<path fill="none" stroke="black" d="M1592.5,-166.778C1592.5,-148.171 1592.5,-122 1592.5,-122 1592.5,-122 1442.08,-122 1442.08,-122"/>
<polygon fill="black" stroke="black" points="1442.08,-118.5 1432.08,-122 1442.08,-125.5 1442.08,-118.5"/>
</g>
<!-- cluster_cluster_cluster_cluster_cluster_&#45;220212124901982970686041060515781939772958695195304796365780796865716420896&#45;347487195842364479&#45;8822461912675508964&#45;&gt;cluster_cluster_cluster_cluster_cluster_&#45;220212124901982970686041060515781939772958695195304796365780796865716420896&#45;347487195842364479&#45;1646947786470769726 -->
<g id="edge22" class="edge"><title>cluster_cluster_cluster_cluster_cluster_&#45;220212124901982970686041060515781939772958695195304796365780796865716420896&#45;347487195842364479&#45;8822461912675508964&#45;&gt;cluster_cluster_cluster_cluster_cluster_&#45;220212124901982970686041060515781939772958695195304796365780796865716420896&#45;347487195842364479&#45;1646947786470769726</title>
<path fill="none" stroke="black" d="M449,-316.845C449,-294.648 449,-260 449,-260 449,-260 783.912,-260 783.912,-260"/>
<polygon fill="black" stroke="black" points="783.912,-263.5 793.912,-260 783.912,-256.5 783.912,-263.5"/>
</g>
<!-- cluster_cluster_cluster_cluster_cluster_&#45;220212124901982970686041060515781939772958695195304796365780796865716420896&#45;3474871958423644796116703585067809283 -->
<g id="node22" class="node"><title>cluster_cluster_cluster_cluster_cluster_&#45;220212124901982970686041060515781939772958695195304796365780796865716420896&#45;3474871958423644796116703585067809283</title>
<g id="a_node22"><a xlink:title="Maximum charging current of the battery [A].">
<path fill="cyan" stroke="black" d="M1352,-353C1352,-353 1184,-353 1184,-353 1178,-353 1172,-347 1172,-341 1172,-341 1172,-329 1172,-329 1172,-323 1178,-317 1184,-317 1184,-317 1352,-317 1352,-317 1358,-317 1364,-323 1364,-329 1364,-329 1364,-341 1364,-341 1364,-347 1358,-353 1352,-353"/>
<text text-anchor="start" x="1182.5" y="-330.8" font-family="Times New Roman,serif" font-size="14.00">max_battery_charging_current</text>
</a>
</g>
</g>
<!-- cluster_cluster_cluster_cluster_cluster_&#45;220212124901982970686041060515781939772958695195304796365780796865716420896&#45;3474871958423644796116703585067809283&#45;&gt;cluster_cluster_cluster_cluster_cluster_&#45;220212124901982970686041060515781939772958695195304796365780796865716420896&#45;347487195842364479&#45;1646947786470769726 -->
<g id="edge23" class="edge"><title>cluster_cluster_cluster_cluster_cluster_&#45;220212124901982970686041060515781939772958695195304796365780796865716420896&#45;3474871958423644796116703585067809283&#45;&gt;cluster_cluster_cluster_cluster_cluster_&#45;220212124901982970686041060515781939772958695195304796365780796865716420896&#45;347487195842364479&#45;1646947786470769726</title>
<path fill="none" stroke="black" d="M1210.5,-316.831C1210.5,-295.502 1210.5,-263 1210.5,-263 1210.5,-263 954.366,-263 954.366,-263"/>
<polygon fill="black" stroke="black" points="954.366,-259.5 944.366,-263 954.366,-266.5 954.366,-259.5"/>
</g>
<!-- cluster_cluster_cluster_cluster_cluster_&#45;220212124901982970686041060515781939772958695195304796365780796865716420896&#45;3474871958423644792474993859311970617 -->
<g id="node23" class="node"><title>cluster_cluster_cluster_cluster_cluster_&#45;220212124901982970686041060515781939772958695195304796365780796865716420896&#45;3474871958423644792474993859311970617</title>
<g id="a_node23"><a xlink:title="If the engine is on [&#45;].">
<path fill="cyan" stroke="black" d="M1805,-203C1805,-203 1751,-203 1751,-203 1745,-203 1739,-197 1739,-191 1739,-191 1739,-179 1739,-179 1739,-173 1745,-167 1751,-167 1751,-167 1805,-167 1805,-167 1811,-167 1817,-173 1817,-179 1817,-179 1817,-191 1817,-191 1817,-197 1811,-203 1805,-203"/>
<text text-anchor="start" x="1749" y="-180.8" font-family="Times New Roman,serif" font-size="14.00">on_engine</text>
</a>
</g>
</g>
<!-- cluster_cluster_cluster_cluster_cluster_&#45;220212124901982970686041060515781939772958695195304796365780796865716420896&#45;3474871958423644792474993859311970617&#45;&gt;cluster_cluster_cluster_cluster_cluster_&#45;220212124901982970686041060515781939772958695195304796365780796865716420896&#45;3474871958423644796386738361972296619 -->
<g id="edge24" class="edge"><title>cluster_cluster_cluster_cluster_cluster_&#45;220212124901982970686041060515781939772958695195304796365780796865716420896&#45;3474871958423644792474993859311970617&#45;&gt;cluster_cluster_cluster_cluster_cluster_&#45;220212124901982970686041060515781939772958695195304796365780796865716420896&#45;3474871958423644796386738361972296619</title>
<path fill="none" stroke="black" d="M1778,-166.831C1778,-145.502 1778,-113 1778,-113 1778,-113 1442.13,-113 1442.13,-113"/>
<polygon fill="black" stroke="black" points="1442.13,-109.5 1432.13,-113 1442.13,-116.5 1442.13,-109.5"/>
</g>
<!-- cluster_cluster_cluster_cluster_cluster_&#45;220212124901982970686041060515781939772958695195304796365780796865716420896&#45;347487195842364479&#45;9092258377810542605 -->
<g id="node24" class="node"><title>cluster_cluster_cluster_cluster_cluster_&#45;220212124901982970686041060515781939772958695195304796365780796865716420896&#45;347487195842364479&#45;9092258377810542605</title>
<g id="a_node24"><a xlink:title="Energy required to start engine [kJ].">
<path fill="cyan" stroke="black" d="M1466,-353C1466,-353 1394,-353 1394,-353 1388,-353 1382,-347 1382,-341 1382,-341 1382,-329 1382,-329 1382,-323 1388,-317 1394,-317 1394,-317 1466,-317 1466,-317 1472,-317 1478,-323 1478,-329 1478,-329 1478,-341 1478,-341 1478,-347 1472,-353 1466,-353"/>
<text text-anchor="start" x="1392" y="-330.8" font-family="Times New Roman,serif" font-size="14.00">start_demand</text>
</a>
</g>
</g>
<!-- cluster_cluster_cluster_cluster_cluster_&#45;220212124901982970686041060515781939772958695195304796365780796865716420896&#45;347487195842364479&#45;9092258377810542605&#45;&gt;cluster_cluster_cluster_cluster_cluster_&#45;220212124901982970686041060515781939772958695195304796365780796865716420896&#45;347487195842364479&#45;1646947786470769726 -->
<g id="edge25" class="edge"><title>cluster_cluster_cluster_cluster_cluster_&#45;220212124901982970686041060515781939772958695195304796365780796865716420896&#45;347487195842364479&#45;9092258377810542605&#45;&gt;cluster_cluster_cluster_cluster_cluster_&#45;220212124901982970686041060515781939772958695195304796365780796865716420896&#45;347487195842364479&#45;1646947786470769726</title>
<path fill="none" stroke="black" d="M1390.5,-316.909C1390.5,-293.867 1390.5,-257 1390.5,-257 1390.5,-257 954.274,-257 954.274,-257"/>
<polygon fill="black" stroke="black" points="954.274,-253.5 944.274,-257 954.274,-260.5 954.274,-253.5"/>
</g>
<!-- cluster_cluster_cluster_cluster_cluster_&#45;220212124901982970686041060515781939772958695195304796365780796865716420896&#45;347487195842364479&#45;1825562924159530342 -->
<g id="node26" class="node"><title>cluster_cluster_cluster_cluster_cluster_&#45;220212124901982970686041060515781939772958695195304796365780796865716420896&#45;347487195842364479&#45;1825562924159530342</title>
<g id="a_node26"><a xlink:title="Time vector [s].">
<path fill="cyan" stroke="black" d="M1538,-353C1538,-353 1508,-353 1508,-353 1502,-353 1496,-347 1496,-341 1496,-341 1496,-329 1496,-329 1496,-323 1502,-317 1508,-317 1508,-317 1538,-317 1538,-317 1544,-317 1550,-323 1550,-329 1550,-329 1550,-341 1550,-341 1550,-347 1544,-353 1538,-353"/>
<text text-anchor="start" x="1508" y="-330.8" font-family="Times New Roman,serif" font-size="14.00">times</text>
</a>
</g>
</g>
<!-- cluster_cluster_cluster_cluster_cluster_&#45;220212124901982970686041060515781939772958695195304796365780796865716420896&#45;347487195842364479&#45;1825562924159530342&#45;&gt;cluster_cluster_cluster_cluster_cluster_&#45;220212124901982970686041060515781939772958695195304796365780796865716420896&#45;347487195842364479&#45;1646947786470769726 -->
<g id="edge26" class="edge"><title>cluster_cluster_cluster_cluster_cluster_&#45;220212124901982970686041060515781939772958695195304796365780796865716420896&#45;347487195842364479&#45;1825562924159530342&#45;&gt;cluster_cluster_cluster_cluster_cluster_&#45;220212124901982970686041060515781939772958695195304796365780796865716420896&#45;347487195842364479&#45;1646947786470769726</title>
<path fill="none" stroke="black" d="M1532,-316.773C1532,-292.068 1532,-251 1532,-251 1532,-251 954.087,-251 954.087,-251"/>
<polygon fill="black" stroke="black" points="954.087,-247.5 944.087,-251 954.087,-254.5 954.087,-247.5"/>
</g>
<!-- cluster_cluster_cluster_cluster_cluster_&#45;220212124901982970686041060515781939772958695195304796365780796865716420896&#45;347487195842364479&#45;1825562924159530342&#45;&gt;cluster_cluster_cluster_cluster_cluster_&#45;220212124901982970686041060515781939772958695195304796365780796865716420896&#45;3474871958423644796386738361972296619 -->
<g id="edge27" class="edge"><title>cluster_cluster_cluster_cluster_cluster_&#45;220212124901982970686041060515781939772958695195304796365780796865716420896&#45;347487195842364479&#45;1825562924159530342&#45;&gt;cluster_cluster_cluster_cluster_cluster_&#45;220212124901982970686041060515781939772958695195304796365780796865716420896&#45;3474871958423644796386738361972296619</title>
<path fill="none" stroke="black" d="M1514,-316.944C1514,-305.561 1514,-293 1514,-293 1514,-293 1408,-293 1408,-293 1408,-293 1408,-141.25 1408,-141.25"/>
<polygon fill="black" stroke="black" points="1411.5,-141.25 1408,-131.25 1404.5,-141.25 1411.5,-141.25"/>
</g>
</g>
</svg>
