<?xml version="1.0" encoding="UTF-8" standalone="no"?>
<!DOCTYPE svg PUBLIC "-//W3C//DTD SVG 1.1//EN"
 "http://www.w3.org/Graphics/SVG/1.1/DTD/svg11.dtd">
<!-- Generated by graphviz version 2.38.0 (20140413.2041)
 -->
<!-- Title: cluster_CTCM&#45;wltp_h errors Pages: 1 -->
<svg width="507pt" height="637pt"
 viewBox="0.00 0.00 507.00 637.00" xmlns="http://www.w3.org/2000/svg" xmlns:xlink="http://www.w3.org/1999/xlink">
<g id="graph0" class="graph" transform="scale(1 1) rotate(0) translate(4 633)">
<title>cluster_CTCM&#45;wltp_h errors</title>
<polygon fill="white" stroke="none" points="-4,4 -4,-633 503,-633 503,4 -4,4"/>
<text text-anchor="start" x="189" y="-7.8" font-family="Times New Roman,serif" font-size="14.00">CTCM&#45;wltp_h errors</text>
<!-- cluster_cluster_cluster_&#45;2202121249019829706&#45;4464158448237009924391214918994270453477532400 -->
<g id="node1" class="node"><title>cluster_cluster_cluster_&#45;2202121249019829706&#45;4464158448237009924391214918994270453477532400</title>
<g id="a_node1"><a xlink:title="start">
<polygon fill="red" stroke="black" points="167.683,-587.049 169.459,-587.148 171.216,-587.295 172.948,-587.491 174.648,-587.735 176.308,-588.027 177.923,-588.364 179.485,-588.748 180.989,-589.176 182.429,-589.647 183.8,-590.161 185.098,-590.715 186.317,-591.308 187.455,-591.939 188.507,-592.605 189.472,-593.306 190.346,-594.039 191.127,-594.801 191.815,-595.592 192.408,-596.408 192.906,-597.248 193.309,-598.109 193.617,-598.989 193.832,-599.886 193.956,-600.797 193.989,-601.719 193.934,-602.65 193.794,-603.587 193.571,-604.529 193.269,-605.471 192.89,-606.413 192.439,-607.35 191.918,-608.281 191.332,-609.203 190.685,-610.114 189.981,-611.011 189.223,-611.891 188.415,-612.752 187.561,-613.592 186.666,-614.408 185.732,-615.199 184.764,-615.961 183.764,-616.694 182.737,-617.395 181.684,-618.061 180.61,-618.692 179.516,-619.285 178.405,-619.839 177.28,-620.353 176.142,-620.824 174.994,-621.252 173.837,-621.636 172.672,-621.973 171.501,-622.265 170.325,-622.509 169.145,-622.705 167.963,-622.852 166.779,-622.951 165.593,-623 164.407,-623 163.221,-622.951 162.037,-622.852 160.855,-622.705 159.675,-622.509 158.499,-622.265 157.328,-621.973 156.163,-621.636 155.006,-621.252 153.858,-620.824 152.72,-620.353 151.595,-619.839 150.484,-619.285 149.39,-618.692 148.316,-618.061 147.263,-617.395 146.236,-616.694 145.236,-615.961 144.268,-615.199 143.334,-614.408 142.439,-613.592 141.585,-612.752 140.777,-611.891 140.019,-611.011 139.315,-610.114 138.668,-609.203 138.082,-608.281 137.561,-607.35 137.11,-606.413 136.731,-605.471 136.429,-604.529 136.206,-603.587 136.066,-602.65 136.011,-601.719 136.044,-600.797 136.168,-599.886 136.383,-598.989 136.691,-598.109 137.094,-597.248 137.592,-596.408 138.185,-595.592 138.873,-594.801 139.654,-594.039 140.528,-593.306 141.493,-592.605 142.545,-591.939 143.683,-591.308 144.902,-590.715 146.2,-590.161 147.571,-589.647 149.011,-589.176 150.515,-588.748 152.077,-588.364 153.692,-588.027 155.352,-587.735 157.052,-587.491 158.784,-587.295 160.541,-587.148 162.317,-587.049 164.105,-587 165.895,-587 167.683,-587.049"/>
<text text-anchor="middle" x="165" y="-601.3" font-family="Times New Roman,serif" font-size="14.00">start</text>
</a>
</g>
</g>
<!-- cluster_cluster_cluster_&#45;2202121249019829706&#45;44641584482370099243912149189942704534&#45;3431188338771875485 -->
<g id="node10" class="node"><title>cluster_cluster_cluster_&#45;2202121249019829706&#45;44641584482370099243912149189942704534&#45;3431188338771875485</title>
<g id="a_node10"><a xlink:title="error_settings">
<path fill="cyan" stroke="black" d="M236.5,-215C236.5,-215 163.5,-215 163.5,-215 157.5,-215 151.5,-209 151.5,-203 151.5,-203 151.5,-179 151.5,-179 151.5,-173 157.5,-167 163.5,-167 163.5,-167 236.5,-167 236.5,-167 242.5,-167 248.5,-173 248.5,-179 248.5,-179 248.5,-203 248.5,-203 248.5,-209 242.5,-215 236.5,-215"/>
<text text-anchor="start" x="162" y="-197.8" font-family="Times New Roman,serif" font-size="14.00">error_settings</text>
<polygon fill="none" stroke="black" points="160,-171 160,-192 216,-192 216,-171 160,-171"/>
<text text-anchor="start" x="167" y="-177.8" font-family="Times New Roman,serif" font-size="14.00">default=</text>
<polygon fill="none" stroke="black" points="216,-171 216,-192 241,-192 241,-171 216,-171"/>
<text text-anchor="start" x="219" y="-177.8" font-family="Times New Roman,serif" font-size="14.00">{}</text>
</a>
</g>
</g>
<!-- cluster_cluster_cluster_&#45;2202121249019829706&#45;4464158448237009924391214918994270453477532400&#45;&gt;cluster_cluster_cluster_&#45;2202121249019829706&#45;44641584482370099243912149189942704534&#45;3431188338771875485 -->
<g id="edge13" class="edge"><title>cluster_cluster_cluster_&#45;2202121249019829706&#45;4464158448237009924391214918994270453477532400&#45;&gt;cluster_cluster_cluster_&#45;2202121249019829706&#45;44641584482370099243912149189942704534&#45;3431188338771875485</title>
<path fill="none" stroke="black" d="M165.5,-586.945C165.5,-586.945 165.5,-225.149 165.5,-225.149"/>
<polygon fill="black" stroke="black" points="169,-225.149 165.5,-215.149 162,-225.149 169,-225.149"/>
<polygon fill="none" stroke="black" points="166,-405.547 166,-426.547 216,-426.547 216,-405.547 166,-405.547"/>
<text text-anchor="start" x="169" y="-412.347" font-family="Times New Roman,serif" font-size="14.00">inp_id=</text>
<polygon fill="none" stroke="black" points="216,-405.547 216,-426.547 229,-426.547 229,-405.547 216,-405.547"/>
<text text-anchor="start" x="219" y="-412.347" font-family="Times New Roman,serif" font-size="14.00">0</text>
</g>
<!-- cluster_cluster_cluster_&#45;2202121249019829706&#45;446415844823700992439121491899427045344712647501736754553 -->
<g id="node15" class="node"><title>cluster_cluster_cluster_&#45;2202121249019829706&#45;446415844823700992439121491899427045344712647501736754553</title>
<g id="a_node15"><a xlink:title="A sequence of data.">
<path fill="cyan" stroke="black" d="M487,-524C487,-524 451,-524 451,-524 445,-524 439,-518 439,-512 439,-512 439,-500 439,-500 439,-494 445,-488 451,-488 451,-488 487,-488 487,-488 493,-488 499,-494 499,-500 499,-500 499,-512 499,-512 499,-518 493,-524 487,-524"/>
<text text-anchor="start" x="449.5" y="-501.8" font-family="Times New Roman,serif" font-size="14.00">wltp_h</text>
</a>
</g>
</g>
<!-- cluster_cluster_cluster_&#45;2202121249019829706&#45;4464158448237009924391214918994270453477532400&#45;&gt;cluster_cluster_cluster_&#45;2202121249019829706&#45;446415844823700992439121491899427045344712647501736754553 -->
<g id="edge14" class="edge"><title>cluster_cluster_cluster_&#45;2202121249019829706&#45;4464158448237009924391214918994270453477532400&#45;&gt;cluster_cluster_cluster_&#45;2202121249019829706&#45;446415844823700992439121491899427045344712647501736754553</title>
<path fill="none" stroke="black" d="M179.5,-588.4C179.5,-576.661 179.5,-563 179.5,-563 179.5,-563 469,-563 469,-563 469,-563 469,-534.035 469,-534.035"/>
<polygon fill="black" stroke="black" points="472.5,-534.035 469,-524.035 465.5,-534.035 472.5,-534.035"/>
<polygon fill="none" stroke="black" points="326.532,-562.5 326.532,-583.5 376.532,-583.5 376.532,-562.5 326.532,-562.5"/>
<text text-anchor="start" x="329.532" y="-569.3" font-family="Times New Roman,serif" font-size="14.00">inp_id=</text>
<polygon fill="none" stroke="black" points="376.532,-562.5 376.532,-583.5 389.532,-583.5 389.532,-562.5 376.532,-562.5"/>
<text text-anchor="start" x="379.532" y="-569.3" font-family="Times New Roman,serif" font-size="14.00">1</text>
</g>
<!-- cluster_cluster_cluster_&#45;2202121249019829706&#45;44641584482370099243912149189942704534&#45;4779657526738643707 -->
<g id="node16" class="node"><title>cluster_cluster_cluster_&#45;2202121249019829706&#45;44641584482370099243912149189942704534&#45;4779657526738643707</title>
<g id="a_node16"><a xlink:title="A sequence of data.">
<path fill="cyan" stroke="black" d="M121,-431C121,-431 89,-431 89,-431 83,-431 77,-425 77,-419 77,-419 77,-407 77,-407 77,-401 83,-395 89,-395 89,-395 121,-395 121,-395 127,-395 133,-401 133,-407 133,-407 133,-419 133,-419 133,-425 127,-431 121,-431"/>
<text text-anchor="start" x="87.5" y="-408.8" font-family="Times New Roman,serif" font-size="14.00">wltp_l</text>
</a>
</g>
</g>
<!-- cluster_cluster_cluster_&#45;2202121249019829706&#45;4464158448237009924391214918994270453477532400&#45;&gt;cluster_cluster_cluster_&#45;2202121249019829706&#45;44641584482370099243912149189942704534&#45;4779657526738643707 -->
<g id="edge15" class="edge"><title>cluster_cluster_cluster_&#45;2202121249019829706&#45;4464158448237009924391214918994270453477532400&#45;&gt;cluster_cluster_cluster_&#45;2202121249019829706&#45;44641584482370099243912149189942704534&#45;4779657526738643707</title>
<path fill="none" stroke="black" d="M144.25,-590.882C144.25,-546.542 144.25,-413 144.25,-413 144.25,-413 143.108,-413 143.108,-413"/>
<polygon fill="black" stroke="black" points="143.108,-409.5 133.108,-413 143.107,-416.5 143.108,-409.5"/>
<polygon fill="none" stroke="black" points="81.75,-500.87 81.75,-521.87 131.75,-521.87 131.75,-500.87 81.75,-500.87"/>
<text text-anchor="start" x="84.75" y="-507.67" font-family="Times New Roman,serif" font-size="14.00">inp_id=</text>
<polygon fill="none" stroke="black" points="131.75,-500.87 131.75,-521.87 144.75,-521.87 144.75,-500.87 131.75,-500.87"/>
<text text-anchor="start" x="134.75" y="-507.67" font-family="Times New Roman,serif" font-size="14.00">2</text>
</g>
<!-- cluster_cluster_cluster_&#45;2202121249019829706&#45;44641584482370099243912149189942704534&#45;2181095411792409824 -->
<g id="node2" class="node"><title>cluster_cluster_cluster_&#45;2202121249019829706&#45;44641584482370099243912149189942704534&#45;2181095411792409824</title>
<g id="a_node2"><a xlink:title="A sequence of data.">
<path fill="cyan" stroke="black" d="M359,-359C359,-359 259,-359 259,-359 253,-359 247,-353 247,-347 247,-347 247,-335 247,-335 247,-329 253,-323 259,-323 259,-323 359,-323 359,-323 365,-323 371,-329 371,-335 371,-335 371,-347 371,-347 371,-353 365,-359 359,-359"/>
<text text-anchor="start" x="257.5" y="-336.8" font-family="Times New Roman,serif" font-size="14.00">calibrated_models</text>
</a>
</g>
</g>
<!-- cluster_cluster_cluster_&#45;2202121249019829706&#45;44641584482370099243912149189942704534&#45;7067757294929678007 -->
<g id="node3" class="node"><title>cluster_cluster_cluster_&#45;2202121249019829706&#45;44641584482370099243912149189942704534&#45;7067757294929678007</title>
<g id="a_node3"><a xlink:href="./../alternator_model_selector/AM-wltp_h_errors/co2mpas.dispatcher.utils.dspmap_list.txt" xlink:title="Returns a new dict.">
<polygon fill="springgreen" stroke="black" points="346,-287 278,-287 278,-251 346,-251 346,-287"/>
<text text-anchor="start" x="288" y="-264.8" font-family="Times New Roman,serif" font-size="14.00">map_list</text>
</a>
</g>
</g>
<!-- cluster_cluster_cluster_&#45;2202121249019829706&#45;44641584482370099243912149189942704534&#45;2181095411792409824&#45;&gt;cluster_cluster_cluster_&#45;2202121249019829706&#45;44641584482370099243912149189942704534&#45;7067757294929678007 -->
<g id="edge1" class="edge"><title>cluster_cluster_cluster_&#45;2202121249019829706&#45;44641584482370099243912149189942704534&#45;2181095411792409824&#45;&gt;cluster_cluster_cluster_&#45;2202121249019829706&#45;44641584482370099243912149189942704534&#45;7067757294929678007</title>
<path fill="none" stroke="black" d="M312,-322.831C312,-322.831 312,-297.413 312,-297.413"/>
<polygon fill="black" stroke="black" points="315.5,-297.413 312,-287.413 308.5,-297.413 315.5,-297.413"/>
</g>
<!-- cluster_cluster_cluster_&#45;2202121249019829706&#45;446415844823700992439121491899427045344298277636058170859 -->
<g id="node4" class="node"><title>cluster_cluster_cluster_&#45;2202121249019829706&#45;446415844823700992439121491899427045344298277636058170859</title>
<g id="a_node4"><a xlink:href="./../alternator_model_selector/AM-wltp_h_errors/co2mpas.dispatcher.utils.dspmap_list.txt" xlink:title="Returns a new dict.">
<polygon fill="springgreen" stroke="black" points="137,-287 45,-287 45,-251 137,-251 137,-287"/>
<text text-anchor="start" x="55.5" y="-264.8" font-family="Times New Roman,serif" font-size="14.00">map_list&lt;0&gt;</text>
</a>
</g>
</g>
<!-- cluster_cluster_cluster_&#45;2202121249019829706&#45;44641584482370099243912149189942704534&#45;2181095411792409824&#45;&gt;cluster_cluster_cluster_&#45;2202121249019829706&#45;446415844823700992439121491899427045344298277636058170859 -->
<g id="edge2" class="edge"><title>cluster_cluster_cluster_&#45;2202121249019829706&#45;44641584482370099243912149189942704534&#45;2181095411792409824&#45;&gt;cluster_cluster_cluster_&#45;2202121249019829706&#45;446415844823700992439121491899427045344298277636058170859</title>
<path fill="none" stroke="black" d="M257.75,-322.831C257.75,-301.502 257.75,-269 257.75,-269 257.75,-269 147.007,-269 147.007,-269"/>
<polygon fill="black" stroke="black" points="147.007,-265.5 137.007,-269 147.007,-272.5 147.007,-265.5"/>
</g>
<!-- cluster_cluster_cluster_&#45;2202121249019829706&#45;446415844823700992439121491899427045347702748476113788344 -->
<g id="node11" class="node"><title>cluster_cluster_cluster_&#45;2202121249019829706&#45;446415844823700992439121491899427045347702748476113788344</title>
<g id="a_node11"><a xlink:title="A unique dict with new values.">
<path fill="cyan" stroke="black" d="M345,-209C345,-209 279,-209 279,-209 273,-209 267,-203 267,-197 267,-197 267,-185 267,-185 267,-179 273,-173 279,-173 279,-173 345,-173 345,-173 351,-173 357,-179 357,-185 357,-185 357,-197 357,-197 357,-203 351,-209 345,-209"/>
<text text-anchor="start" x="277" y="-186.8" font-family="Times New Roman,serif" font-size="14.00">input/wltp_h</text>
</a>
</g>
</g>
<!-- cluster_cluster_cluster_&#45;2202121249019829706&#45;44641584482370099243912149189942704534&#45;7067757294929678007&#45;&gt;cluster_cluster_cluster_&#45;2202121249019829706&#45;446415844823700992439121491899427045347702748476113788344 -->
<g id="edge3" class="edge"><title>cluster_cluster_cluster_&#45;2202121249019829706&#45;44641584482370099243912149189942704534&#45;7067757294929678007&#45;&gt;cluster_cluster_cluster_&#45;2202121249019829706&#45;446415844823700992439121491899427045347702748476113788344</title>
<path fill="none" stroke="black" d="M312,-250.909C312,-250.909 312,-219.263 312,-219.263"/>
<polygon fill="black" stroke="black" points="315.5,-219.263 312,-209.263 308.5,-219.263 315.5,-219.263"/>
</g>
<!-- cluster_cluster_cluster_&#45;2202121249019829706&#45;446415844823700992439121491899427045344919105944985796052 -->
<g id="node12" class="node"><title>cluster_cluster_cluster_&#45;2202121249019829706&#45;446415844823700992439121491899427045344919105944985796052</title>
<g id="a_node12"><a xlink:title="A unique dict with new values.">
<path fill="cyan" stroke="black" d="M121,-209C121,-209 57,-209 57,-209 51,-209 45,-203 45,-197 45,-197 45,-185 45,-185 45,-179 51,-173 57,-173 57,-173 121,-173 121,-173 127,-173 133,-179 133,-185 133,-185 133,-197 133,-197 133,-203 127,-209 121,-209"/>
<text text-anchor="start" x="55.5" y="-186.8" font-family="Times New Roman,serif" font-size="14.00">input/wltp_l</text>
</a>
</g>
</g>
<!-- cluster_cluster_cluster_&#45;2202121249019829706&#45;446415844823700992439121491899427045344298277636058170859&#45;&gt;cluster_cluster_cluster_&#45;2202121249019829706&#45;446415844823700992439121491899427045344919105944985796052 -->
<g id="edge4" class="edge"><title>cluster_cluster_cluster_&#45;2202121249019829706&#45;446415844823700992439121491899427045344298277636058170859&#45;&gt;cluster_cluster_cluster_&#45;2202121249019829706&#45;446415844823700992439121491899427045344919105944985796052</title>
<path fill="none" stroke="black" d="M89,-250.909C89,-250.909 89,-219.263 89,-219.263"/>
<polygon fill="black" stroke="black" points="92.5001,-219.263 89,-209.263 85.5001,-219.263 92.5001,-219.263"/>
</g>
<!-- cluster_cluster_cluster_&#45;2202121249019829706&#45;44641584482370099243912149189942704534&#45;2606733556286639557 -->
<g id="node5" class="node"><title>cluster_cluster_cluster_&#45;2202121249019829706&#45;44641584482370099243912149189942704534&#45;2606733556286639557</title>
<g id="a_node5"><a xlink:href="./CTCM-wltp_h_errors/CTCM-wltp_h_error_vs_wltp_h.gv.svg" xlink:title="Calculates the error of calibrated model of a reference.">
<polygon fill="yellow" stroke="black" points="399,-131 211,-131 211,-95 405,-95 405,-125 399,-131"/>
<polyline fill="none" stroke="black" points="399,-131 399,-125 "/>
<polyline fill="none" stroke="black" points="405,-125 399,-125 "/>
<text text-anchor="start" x="221.5" y="-108.8" font-family="Times New Roman,serif" font-size="14.00">CTCM&#45;wltp_h error vs wltp_h</text>
</a>
</g>
</g>
<!-- cluster_cluster_cluster_&#45;2202121249019829706&#45;44641584482370099243912149189942704534&#45;2427563387242055365 -->
<g id="node8" class="node"><title>cluster_cluster_cluster_&#45;2202121249019829706&#45;44641584482370099243912149189942704534&#45;2427563387242055365</title>
<g id="a_node8"><a xlink:title="error/wltp_h">
<path fill="cyan" stroke="black" d="M341,-59C341,-59 275,-59 275,-59 269,-59 263,-53 263,-47 263,-47 263,-35 263,-35 263,-29 269,-23 275,-23 275,-23 341,-23 341,-23 347,-23 353,-29 353,-35 353,-35 353,-47 353,-47 353,-53 347,-59 341,-59"/>
<text text-anchor="start" x="273" y="-36.8" font-family="Times New Roman,serif" font-size="14.00">error/wltp_h</text>
</a>
</g>
</g>
<!-- cluster_cluster_cluster_&#45;2202121249019829706&#45;44641584482370099243912149189942704534&#45;2606733556286639557&#45;&gt;cluster_cluster_cluster_&#45;2202121249019829706&#45;44641584482370099243912149189942704534&#45;2427563387242055365 -->
<g id="edge5" class="edge"><title>cluster_cluster_cluster_&#45;2202121249019829706&#45;44641584482370099243912149189942704534&#45;2606733556286639557&#45;&gt;cluster_cluster_cluster_&#45;2202121249019829706&#45;44641584482370099243912149189942704534&#45;2427563387242055365</title>
<path fill="none" stroke="black" d="M308,-94.8314C308,-94.8314 308,-69.4133 308,-69.4133"/>
<polygon fill="black" stroke="black" points="311.5,-69.4132 308,-59.4133 304.5,-69.4133 311.5,-69.4132"/>
</g>
<!-- cluster_cluster_cluster_&#45;2202121249019829706&#45;44641584482370099243912149189942704534&#45;2711003592090432275 -->
<g id="node6" class="node"><title>cluster_cluster_cluster_&#45;2202121249019829706&#45;44641584482370099243912149189942704534&#45;2711003592090432275</title>
<g id="a_node6"><a xlink:href="./CTCM-wltp_h_errors/CTCM-wltp_h_error_vs_wltp_l.gv.svg" xlink:title="Calculates the error of calibrated model of a reference.">
<polygon fill="yellow" stroke="black" points="184,-131 0,-131 0,-95 190,-95 190,-125 184,-131"/>
<polyline fill="none" stroke="black" points="184,-131 184,-125 "/>
<polyline fill="none" stroke="black" points="190,-125 184,-125 "/>
<text text-anchor="start" x="10.5" y="-108.8" font-family="Times New Roman,serif" font-size="14.00">CTCM&#45;wltp_h error vs wltp_l</text>
</a>
</g>
</g>
<!-- cluster_cluster_cluster_&#45;2202121249019829706&#45;44641584482370099243912149189942704534&#45;7302022848986384642 -->
<g id="node9" class="node"><title>cluster_cluster_cluster_&#45;2202121249019829706&#45;44641584482370099243912149189942704534&#45;7302022848986384642</title>
<g id="a_node9"><a xlink:title="error/wltp_l">
<path fill="cyan" stroke="black" d="M126,-59C126,-59 64,-59 64,-59 58,-59 52,-53 52,-47 52,-47 52,-35 52,-35 52,-29 58,-23 64,-23 64,-23 126,-23 126,-23 132,-23 138,-29 138,-35 138,-35 138,-47 138,-47 138,-53 132,-59 126,-59"/>
<text text-anchor="start" x="62" y="-36.8" font-family="Times New Roman,serif" font-size="14.00">error/wltp_l</text>
</a>
</g>
</g>
<!-- cluster_cluster_cluster_&#45;2202121249019829706&#45;44641584482370099243912149189942704534&#45;2711003592090432275&#45;&gt;cluster_cluster_cluster_&#45;2202121249019829706&#45;44641584482370099243912149189942704534&#45;7302022848986384642 -->
<g id="edge6" class="edge"><title>cluster_cluster_cluster_&#45;2202121249019829706&#45;44641584482370099243912149189942704534&#45;2711003592090432275&#45;&gt;cluster_cluster_cluster_&#45;2202121249019829706&#45;44641584482370099243912149189942704534&#45;7302022848986384642</title>
<path fill="none" stroke="black" d="M95,-94.8314C95,-94.8314 95,-69.4133 95,-69.4133"/>
<polygon fill="black" stroke="black" points="98.5001,-69.4132 95,-59.4133 91.5001,-69.4133 98.5001,-69.4132"/>
</g>
<!-- cluster_cluster_cluster_&#45;2202121249019829706&#45;44641584482370099243912149189942704534&#45;1177382896934224609 -->
<g id="node7" class="node"><title>cluster_cluster_cluster_&#45;2202121249019829706&#45;44641584482370099243912149189942704534&#45;1177382896934224609</title>
<g id="a_node7"><a xlink:title="data_in">
<path fill="cyan" stroke="black" d="M312.5,-629C312.5,-629 223.5,-629 223.5,-629 217.5,-629 211.5,-623 211.5,-617 211.5,-617 211.5,-593 211.5,-593 211.5,-587 217.5,-581 223.5,-581 223.5,-581 312.5,-581 312.5,-581 318.5,-581 324.5,-587 324.5,-593 324.5,-593 324.5,-617 324.5,-617 324.5,-623 318.5,-629 312.5,-629"/>
<text text-anchor="start" x="248" y="-611.8" font-family="Times New Roman,serif" font-size="14.00">data_in</text>
<polygon fill="none" stroke="black" points="220,-585 220,-606 272,-606 272,-585 220,-585"/>
<text text-anchor="start" x="223" y="-591.8" font-family="Times New Roman,serif" font-size="14.00">default=</text>
<polygon fill="none" stroke="black" points="272,-585 272,-606 317,-606 317,-585 272,-585"/>
<text text-anchor="start" x="275" y="-591.8" font-family="Times New Roman,serif" font-size="14.00">wltp_h</text>
</a>
</g>
</g>
<!-- cluster_cluster_cluster_&#45;2202121249019829706&#45;44641584482370099243912149189942704534&#45;3431188338771875485&#45;&gt;cluster_cluster_cluster_&#45;2202121249019829706&#45;44641584482370099243912149189942704534&#45;2606733556286639557 -->
<g id="edge7" class="edge"><title>cluster_cluster_cluster_&#45;2202121249019829706&#45;44641584482370099243912149189942704534&#45;3431188338771875485&#45;&gt;cluster_cluster_cluster_&#45;2202121249019829706&#45;44641584482370099243912149189942704534&#45;2606733556286639557</title>
<path fill="none" stroke="black" d="M229.75,-166.748C229.75,-166.748 229.75,-141.288 229.75,-141.288"/>
<polygon fill="black" stroke="black" points="233.25,-141.287 229.75,-131.288 226.25,-141.288 233.25,-141.287"/>
</g>
<!-- cluster_cluster_cluster_&#45;2202121249019829706&#45;44641584482370099243912149189942704534&#45;3431188338771875485&#45;&gt;cluster_cluster_cluster_&#45;2202121249019829706&#45;44641584482370099243912149189942704534&#45;2711003592090432275 -->
<g id="edge8" class="edge"><title>cluster_cluster_cluster_&#45;2202121249019829706&#45;44641584482370099243912149189942704534&#45;3431188338771875485&#45;&gt;cluster_cluster_cluster_&#45;2202121249019829706&#45;44641584482370099243912149189942704534&#45;2711003592090432275</title>
<path fill="none" stroke="black" d="M170.75,-166.748C170.75,-166.748 170.75,-141.288 170.75,-141.288"/>
<polygon fill="black" stroke="black" points="174.25,-141.287 170.75,-131.288 167.25,-141.288 174.25,-141.287"/>
</g>
<!-- cluster_cluster_cluster_&#45;2202121249019829706&#45;446415844823700992439121491899427045347702748476113788344&#45;&gt;cluster_cluster_cluster_&#45;2202121249019829706&#45;44641584482370099243912149189942704534&#45;2606733556286639557 -->
<g id="edge9" class="edge"><title>cluster_cluster_cluster_&#45;2202121249019829706&#45;446415844823700992439121491899427045347702748476113788344&#45;&gt;cluster_cluster_cluster_&#45;2202121249019829706&#45;44641584482370099243912149189942704534&#45;2606733556286639557</title>
<path fill="none" stroke="black" d="M312,-172.909C312,-172.909 312,-141.263 312,-141.263"/>
<polygon fill="black" stroke="black" points="315.5,-141.263 312,-131.263 308.5,-141.263 315.5,-141.263"/>
</g>
<!-- cluster_cluster_cluster_&#45;2202121249019829706&#45;446415844823700992439121491899427045344919105944985796052&#45;&gt;cluster_cluster_cluster_&#45;2202121249019829706&#45;44641584482370099243912149189942704534&#45;2711003592090432275 -->
<g id="edge10" class="edge"><title>cluster_cluster_cluster_&#45;2202121249019829706&#45;446415844823700992439121491899427045344919105944985796052&#45;&gt;cluster_cluster_cluster_&#45;2202121249019829706&#45;44641584482370099243912149189942704534&#45;2711003592090432275</title>
<path fill="none" stroke="black" d="M89,-172.909C89,-172.909 89,-141.263 89,-141.263"/>
<polygon fill="black" stroke="black" points="92.5001,-141.263 89,-131.263 85.5001,-141.263 92.5001,-141.263"/>
</g>
<!-- cluster_cluster_cluster_&#45;2202121249019829706&#45;44641584482370099243912149189942704534&#45;3274255707223734200 -->
<g id="node13" class="node"><title>cluster_cluster_cluster_&#45;2202121249019829706&#45;44641584482370099243912149189942704534&#45;3274255707223734200</title>
<g id="a_node13"><a xlink:title="Keys to select.">
<path fill="cyan" stroke="black" d="M408.5,-545C408.5,-545 205.5,-545 205.5,-545 199.5,-545 193.5,-539 193.5,-533 193.5,-533 193.5,-479 193.5,-479 193.5,-473 199.5,-467 205.5,-467 205.5,-467 408.5,-467 408.5,-467 414.5,-467 420.5,-473 420.5,-479 420.5,-479 420.5,-533 420.5,-533 420.5,-539 414.5,-545 408.5,-545"/>
<text text-anchor="start" x="287" y="-527.8" font-family="Times New Roman,serif" font-size="14.00">models</text>
<polygon fill="none" stroke="black" points="202,-471 202,-522 254,-522 254,-471 202,-471"/>
<text text-anchor="start" x="205" y="-492.8" font-family="Times New Roman,serif" font-size="14.00">default=</text>
<polygon fill="none" stroke="black" points="254,-471 254,-522 413,-522 413,-471 254,-471"/>
<text text-anchor="start" x="283.5" y="-507.8" font-family="Times New Roman,serif" font-size="14.00">[&#39;clutch_window&#39;,</text>
<text text-anchor="start" x="288.5" y="-492.8" font-family="Times New Roman,serif" font-size="14.00"> &#39;clutch_model&#39;,</text>
<text text-anchor="start" x="257" y="-477.8" font-family="Times New Roman,serif" font-size="14.00"> &#39;torque_converter_model&#39;]</text>
</a>
</g>
</g>
<!-- cluster_cluster_cluster_&#45;2202121249019829706&#45;44641584482370099243912149189942704534&#45;8800720961443810657 -->
<g id="node14" class="node"><title>cluster_cluster_cluster_&#45;2202121249019829706&#45;44641584482370099243912149189942704534&#45;8800720961443810657</title>
<g id="a_node14"><a xlink:href="./../alternator_model_selector/AM-wltp_h_errors/AM-wltp_h_error_vs_wltp_h/select_inputs0.txt" xlink:title="Selects the chosen dictionary keys from the given dictionary.">
<polygon fill="springgreen" stroke="black" points="359,-431 259,-431 259,-395 359,-395 359,-431"/>
<text text-anchor="start" x="269" y="-408.8" font-family="Times New Roman,serif" font-size="14.00">select_models</text>
</a>
</g>
</g>
<!-- cluster_cluster_cluster_&#45;2202121249019829706&#45;44641584482370099243912149189942704534&#45;3274255707223734200&#45;&gt;cluster_cluster_cluster_&#45;2202121249019829706&#45;44641584482370099243912149189942704534&#45;8800720961443810657 -->
<g id="edge11" class="edge"><title>cluster_cluster_cluster_&#45;2202121249019829706&#45;44641584482370099243912149189942704534&#45;3274255707223734200&#45;&gt;cluster_cluster_cluster_&#45;2202121249019829706&#45;44641584482370099243912149189942704534&#45;8800720961443810657</title>
<path fill="none" stroke="black" d="M309,-466.829C309,-466.829 309,-441.356 309,-441.356"/>
<polygon fill="black" stroke="black" points="312.5,-441.356 309,-431.356 305.5,-441.356 312.5,-441.356"/>
</g>
<!-- cluster_cluster_cluster_&#45;2202121249019829706&#45;44641584482370099243912149189942704534&#45;8800720961443810657&#45;&gt;cluster_cluster_cluster_&#45;2202121249019829706&#45;44641584482370099243912149189942704534&#45;2181095411792409824 -->
<g id="edge12" class="edge"><title>cluster_cluster_cluster_&#45;2202121249019829706&#45;44641584482370099243912149189942704534&#45;8800720961443810657&#45;&gt;cluster_cluster_cluster_&#45;2202121249019829706&#45;44641584482370099243912149189942704534&#45;2181095411792409824</title>
<path fill="none" stroke="black" d="M309,-394.831C309,-394.831 309,-369.413 309,-369.413"/>
<polygon fill="black" stroke="black" points="312.5,-369.413 309,-359.413 305.5,-369.413 312.5,-369.413"/>
</g>
<!-- cluster_cluster_cluster_&#45;2202121249019829706&#45;446415844823700992439121491899427045344712647501736754553&#45;&gt;cluster_cluster_cluster_&#45;2202121249019829706&#45;44641584482370099243912149189942704534&#45;7067757294929678007 -->
<g id="edge16" class="edge"><title>cluster_cluster_cluster_&#45;2202121249019829706&#45;446415844823700992439121491899427045344712647501736754553&#45;&gt;cluster_cluster_cluster_&#45;2202121249019829706&#45;44641584482370099243912149189942704534&#45;7067757294929678007</title>
<path fill="none" stroke="black" d="M479,-487.797C479,-432.3 479,-269 479,-269 479,-269 356.198,-269 356.198,-269"/>
<polygon fill="black" stroke="black" points="356.198,-265.5 346.198,-269 356.198,-272.5 356.198,-265.5"/>
</g>
<!-- cluster_cluster_cluster_&#45;2202121249019829706&#45;446415844823700992439121491899427045344712647501736754553&#45;&gt;cluster_cluster_cluster_&#45;2202121249019829706&#45;44641584482370099243912149189942704534&#45;8800720961443810657 -->
<g id="edge17" class="edge"><title>cluster_cluster_cluster_&#45;2202121249019829706&#45;446415844823700992439121491899427045344712647501736754553&#45;&gt;cluster_cluster_cluster_&#45;2202121249019829706&#45;44641584482370099243912149189942704534&#45;8800720961443810657</title>
<path fill="none" stroke="black" d="M459,-487.626C459,-460.523 459,-413 459,-413 459,-413 369.365,-413 369.365,-413"/>
<polygon fill="black" stroke="black" points="369.365,-409.5 359.365,-413 369.365,-416.5 369.365,-409.5"/>
</g>
<!-- cluster_cluster_cluster_&#45;2202121249019829706&#45;44641584482370099243912149189942704534&#45;4779657526738643707&#45;&gt;cluster_cluster_cluster_&#45;2202121249019829706&#45;446415844823700992439121491899427045344298277636058170859 -->
<g id="edge18" class="edge"><title>cluster_cluster_cluster_&#45;2202121249019829706&#45;44641584482370099243912149189942704534&#45;4779657526738643707&#45;&gt;cluster_cluster_cluster_&#45;2202121249019829706&#45;446415844823700992439121491899427045344298277636058170859</title>
<path fill="none" stroke="black" d="M105,-394.762C105,-394.762 105,-297.09 105,-297.09"/>
<polygon fill="black" stroke="black" points="108.5,-297.09 105,-287.09 101.5,-297.09 108.5,-297.09"/>
</g>
</g>
</svg>
