<?xml version="1.0" encoding="UTF-8" standalone="no"?>
<!DOCTYPE svg PUBLIC "-//W3C//DTD SVG 1.1//EN"
 "http://www.w3.org/Graphics/SVG/1.1/DTD/svg11.dtd">
<!-- Generated by graphviz version 2.38.0 (20140413.2041)
 -->
<!-- Title: cluster_CTCM&#45;wltp_l errors Pages: 1 -->
<svg width="492pt" height="637pt"
 viewBox="0.00 0.00 492.00 637.00" xmlns="http://www.w3.org/2000/svg" xmlns:xlink="http://www.w3.org/1999/xlink">
<g id="graph0" class="graph" transform="scale(1 1) rotate(0) translate(4 633)">
<title>cluster_CTCM&#45;wltp_l errors</title>
<polygon fill="white" stroke="none" points="-4,4 -4,-633 488,-633 488,4 -4,4"/>
<text text-anchor="start" x="183.5" y="-7.8" font-family="Times New Roman,serif" font-size="14.00">CTCM&#45;wltp_l errors</text>
<!-- cluster_cluster_cluster_&#45;2202121249019829706&#45;4464158448237009924297879699235037938877532400 -->
<g id="node1" class="node"><title>cluster_cluster_cluster_&#45;2202121249019829706&#45;4464158448237009924297879699235037938877532400</title>
<g id="a_node1"><a xlink:title="start">
<polygon fill="red" stroke="black" points="156.683,-587.049 158.459,-587.148 160.216,-587.295 161.948,-587.491 163.648,-587.735 165.308,-588.027 166.923,-588.364 168.485,-588.748 169.989,-589.176 171.429,-589.647 172.8,-590.161 174.098,-590.715 175.317,-591.308 176.455,-591.939 177.507,-592.605 178.472,-593.306 179.346,-594.039 180.127,-594.801 180.815,-595.592 181.408,-596.408 181.906,-597.248 182.309,-598.109 182.617,-598.989 182.832,-599.886 182.956,-600.797 182.989,-601.719 182.934,-602.65 182.794,-603.587 182.571,-604.529 182.269,-605.471 181.89,-606.413 181.439,-607.35 180.918,-608.281 180.332,-609.203 179.685,-610.114 178.981,-611.011 178.223,-611.891 177.415,-612.752 176.561,-613.592 175.666,-614.408 174.732,-615.199 173.764,-615.961 172.764,-616.694 171.737,-617.395 170.684,-618.061 169.61,-618.692 168.516,-619.285 167.405,-619.839 166.28,-620.353 165.142,-620.824 163.994,-621.252 162.837,-621.636 161.672,-621.973 160.501,-622.265 159.325,-622.509 158.145,-622.705 156.963,-622.852 155.779,-622.951 154.593,-623 153.407,-623 152.221,-622.951 151.037,-622.852 149.855,-622.705 148.675,-622.509 147.499,-622.265 146.328,-621.973 145.163,-621.636 144.006,-621.252 142.858,-620.824 141.72,-620.353 140.595,-619.839 139.484,-619.285 138.39,-618.692 137.316,-618.061 136.263,-617.395 135.236,-616.694 134.236,-615.961 133.268,-615.199 132.334,-614.408 131.439,-613.592 130.585,-612.752 129.777,-611.891 129.019,-611.011 128.315,-610.114 127.668,-609.203 127.082,-608.281 126.561,-607.35 126.11,-606.413 125.731,-605.471 125.429,-604.529 125.206,-603.587 125.066,-602.65 125.011,-601.719 125.044,-600.797 125.168,-599.886 125.383,-598.989 125.691,-598.109 126.094,-597.248 126.592,-596.408 127.185,-595.592 127.873,-594.801 128.654,-594.039 129.528,-593.306 130.493,-592.605 131.545,-591.939 132.683,-591.308 133.902,-590.715 135.2,-590.161 136.571,-589.647 138.011,-589.176 139.515,-588.748 141.077,-588.364 142.692,-588.027 144.352,-587.735 146.052,-587.491 147.784,-587.295 149.541,-587.148 151.317,-587.049 153.105,-587 154.895,-587 156.683,-587.049"/>
<text text-anchor="middle" x="154" y="-601.3" font-family="Times New Roman,serif" font-size="14.00">start</text>
</a>
</g>
</g>
<!-- cluster_cluster_cluster_&#45;2202121249019829706&#45;44641584482370099242978796992350379388&#45;3431188338771875485 -->
<g id="node10" class="node"><title>cluster_cluster_cluster_&#45;2202121249019829706&#45;44641584482370099242978796992350379388&#45;3431188338771875485</title>
<g id="a_node10"><a xlink:title="error_settings">
<path fill="cyan" stroke="black" d="M235.5,-215C235.5,-215 162.5,-215 162.5,-215 156.5,-215 150.5,-209 150.5,-203 150.5,-203 150.5,-179 150.5,-179 150.5,-173 156.5,-167 162.5,-167 162.5,-167 235.5,-167 235.5,-167 241.5,-167 247.5,-173 247.5,-179 247.5,-179 247.5,-203 247.5,-203 247.5,-209 241.5,-215 235.5,-215"/>
<text text-anchor="start" x="161" y="-197.8" font-family="Times New Roman,serif" font-size="14.00">error_settings</text>
<polygon fill="none" stroke="black" points="159,-171 159,-192 215,-192 215,-171 159,-171"/>
<text text-anchor="start" x="166" y="-177.8" font-family="Times New Roman,serif" font-size="14.00">default=</text>
<polygon fill="none" stroke="black" points="215,-171 215,-192 240,-192 240,-171 215,-171"/>
<text text-anchor="start" x="218" y="-177.8" font-family="Times New Roman,serif" font-size="14.00">{}</text>
</a>
</g>
</g>
<!-- cluster_cluster_cluster_&#45;2202121249019829706&#45;4464158448237009924297879699235037938877532400&#45;&gt;cluster_cluster_cluster_&#45;2202121249019829706&#45;44641584482370099242978796992350379388&#45;3431188338771875485 -->
<g id="edge13" class="edge"><title>cluster_cluster_cluster_&#45;2202121249019829706&#45;4464158448237009924297879699235037938877532400&#45;&gt;cluster_cluster_cluster_&#45;2202121249019829706&#45;44641584482370099242978796992350379388&#45;3431188338771875485</title>
<path fill="none" stroke="black" d="M161.167,-587.211C161.167,-587.211 161.167,-225.2 161.167,-225.2"/>
<polygon fill="black" stroke="black" points="164.667,-225.2 161.167,-215.2 157.667,-225.2 164.667,-225.2"/>
<polygon fill="none" stroke="black" points="161.667,-405.705 161.667,-426.705 211.667,-426.705 211.667,-405.705 161.667,-405.705"/>
<text text-anchor="start" x="164.667" y="-412.505" font-family="Times New Roman,serif" font-size="14.00">inp_id=</text>
<polygon fill="none" stroke="black" points="211.667,-405.705 211.667,-426.705 224.667,-426.705 224.667,-405.705 211.667,-405.705"/>
<text text-anchor="start" x="214.667" y="-412.505" font-family="Times New Roman,serif" font-size="14.00">0</text>
</g>
<!-- cluster_cluster_cluster_&#45;2202121249019829706&#45;446415844823700992429787969923503793884712647501736754553 -->
<g id="node15" class="node"><title>cluster_cluster_cluster_&#45;2202121249019829706&#45;446415844823700992429787969923503793884712647501736754553</title>
<g id="a_node15"><a xlink:title="A sequence of data.">
<path fill="cyan" stroke="black" d="M113,-431C113,-431 77,-431 77,-431 71,-431 65,-425 65,-419 65,-419 65,-407 65,-407 65,-401 71,-395 77,-395 77,-395 113,-395 113,-395 119,-395 125,-401 125,-407 125,-407 125,-419 125,-419 125,-425 119,-431 113,-431"/>
<text text-anchor="start" x="75.5" y="-408.8" font-family="Times New Roman,serif" font-size="14.00">wltp_h</text>
</a>
</g>
</g>
<!-- cluster_cluster_cluster_&#45;2202121249019829706&#45;4464158448237009924297879699235037938877532400&#45;&gt;cluster_cluster_cluster_&#45;2202121249019829706&#45;446415844823700992429787969923503793884712647501736754553 -->
<g id="edge14" class="edge"><title>cluster_cluster_cluster_&#45;2202121249019829706&#45;4464158448237009924297879699235037938877532400&#45;&gt;cluster_cluster_cluster_&#45;2202121249019829706&#45;446415844823700992429787969923503793884712647501736754553</title>
<path fill="none" stroke="black" d="M141.25,-588.297C141.25,-541.585 141.25,-413 141.25,-413 141.25,-413 135.074,-413 135.074,-413"/>
<polygon fill="black" stroke="black" points="135.074,-409.5 125.074,-413 135.074,-416.5 135.074,-409.5"/>
<polygon fill="none" stroke="black" points="78.75,-497.061 78.75,-518.061 128.75,-518.061 128.75,-497.061 78.75,-497.061"/>
<text text-anchor="start" x="81.75" y="-503.861" font-family="Times New Roman,serif" font-size="14.00">inp_id=</text>
<polygon fill="none" stroke="black" points="128.75,-497.061 128.75,-518.061 141.75,-518.061 141.75,-497.061 128.75,-497.061"/>
<text text-anchor="start" x="131.75" y="-503.861" font-family="Times New Roman,serif" font-size="14.00">2</text>
</g>
<!-- cluster_cluster_cluster_&#45;2202121249019829706&#45;44641584482370099242978796992350379388&#45;4779657526738643707 -->
<g id="node16" class="node"><title>cluster_cluster_cluster_&#45;2202121249019829706&#45;44641584482370099242978796992350379388&#45;4779657526738643707</title>
<g id="a_node16"><a xlink:title="A sequence of data.">
<path fill="cyan" stroke="black" d="M472,-524C472,-524 440,-524 440,-524 434,-524 428,-518 428,-512 428,-512 428,-500 428,-500 428,-494 434,-488 440,-488 440,-488 472,-488 472,-488 478,-488 484,-494 484,-500 484,-500 484,-512 484,-512 484,-518 478,-524 472,-524"/>
<text text-anchor="start" x="438.5" y="-501.8" font-family="Times New Roman,serif" font-size="14.00">wltp_l</text>
</a>
</g>
</g>
<!-- cluster_cluster_cluster_&#45;2202121249019829706&#45;4464158448237009924297879699235037938877532400&#45;&gt;cluster_cluster_cluster_&#45;2202121249019829706&#45;44641584482370099242978796992350379388&#45;4779657526738643707 -->
<g id="edge15" class="edge"><title>cluster_cluster_cluster_&#45;2202121249019829706&#45;4464158448237009924297879699235037938877532400&#45;&gt;cluster_cluster_cluster_&#45;2202121249019829706&#45;44641584482370099242978796992350379388&#45;4779657526738643707</title>
<path fill="none" stroke="black" d="M171.833,-589.361C171.833,-577.42 171.833,-563 171.833,-563 171.833,-563 456,-563 456,-563 456,-563 456,-534.035 456,-534.035"/>
<polygon fill="black" stroke="black" points="459.5,-534.035 456,-524.035 452.5,-534.035 459.5,-534.035"/>
<polygon fill="none" stroke="black" points="315.719,-562.5 315.719,-583.5 365.719,-583.5 365.719,-562.5 315.719,-562.5"/>
<text text-anchor="start" x="318.719" y="-569.3" font-family="Times New Roman,serif" font-size="14.00">inp_id=</text>
<polygon fill="none" stroke="black" points="365.719,-562.5 365.719,-583.5 378.719,-583.5 378.719,-562.5 365.719,-562.5"/>
<text text-anchor="start" x="368.719" y="-569.3" font-family="Times New Roman,serif" font-size="14.00">1</text>
</g>
<!-- cluster_cluster_cluster_&#45;2202121249019829706&#45;44641584482370099242978796992350379388&#45;2181095411792409824 -->
<g id="node2" class="node"><title>cluster_cluster_cluster_&#45;2202121249019829706&#45;44641584482370099242978796992350379388&#45;2181095411792409824</title>
<g id="a_node2"><a xlink:title="A sequence of data.">
<path fill="cyan" stroke="black" d="M351,-359C351,-359 251,-359 251,-359 245,-359 239,-353 239,-347 239,-347 239,-335 239,-335 239,-329 245,-323 251,-323 251,-323 351,-323 351,-323 357,-323 363,-329 363,-335 363,-335 363,-347 363,-347 363,-353 357,-359 351,-359"/>
<text text-anchor="start" x="249.5" y="-336.8" font-family="Times New Roman,serif" font-size="14.00">calibrated_models</text>
</a>
</g>
</g>
<!-- cluster_cluster_cluster_&#45;2202121249019829706&#45;44641584482370099242978796992350379388&#45;7067757294929678007 -->
<g id="node3" class="node"><title>cluster_cluster_cluster_&#45;2202121249019829706&#45;44641584482370099242978796992350379388&#45;7067757294929678007</title>
<g id="a_node3"><a xlink:href="./../alternator_model_selector/AM-wltp_h_errors/co2mpas.dispatcher.utils.dspmap_list.txt" xlink:title="Returns a new dict.">
<polygon fill="springgreen" stroke="black" points="126,-287 58,-287 58,-251 126,-251 126,-287"/>
<text text-anchor="start" x="68" y="-264.8" font-family="Times New Roman,serif" font-size="14.00">map_list</text>
</a>
</g>
</g>
<!-- cluster_cluster_cluster_&#45;2202121249019829706&#45;44641584482370099242978796992350379388&#45;2181095411792409824&#45;&gt;cluster_cluster_cluster_&#45;2202121249019829706&#45;44641584482370099242978796992350379388&#45;7067757294929678007 -->
<g id="edge1" class="edge"><title>cluster_cluster_cluster_&#45;2202121249019829706&#45;44641584482370099242978796992350379388&#45;2181095411792409824&#45;&gt;cluster_cluster_cluster_&#45;2202121249019829706&#45;44641584482370099242978796992350379388&#45;7067757294929678007</title>
<path fill="none" stroke="black" d="M243.25,-322.831C243.25,-301.502 243.25,-269 243.25,-269 243.25,-269 136.321,-269 136.321,-269"/>
<polygon fill="black" stroke="black" points="136.321,-265.5 126.321,-269 136.321,-272.5 136.321,-265.5"/>
</g>
<!-- cluster_cluster_cluster_&#45;2202121249019829706&#45;446415844823700992429787969923503793884298277636058170859 -->
<g id="node4" class="node"><title>cluster_cluster_cluster_&#45;2202121249019829706&#45;446415844823700992429787969923503793884298277636058170859</title>
<g id="a_node4"><a xlink:href="./../alternator_model_selector/AM-wltp_h_errors/co2mpas.dispatcher.utils.dspmap_list.txt" xlink:title="Returns a new dict.">
<polygon fill="springgreen" stroke="black" points="356,-287 264,-287 264,-251 356,-251 356,-287"/>
<text text-anchor="start" x="274.5" y="-264.8" font-family="Times New Roman,serif" font-size="14.00">map_list&lt;0&gt;</text>
</a>
</g>
</g>
<!-- cluster_cluster_cluster_&#45;2202121249019829706&#45;44641584482370099242978796992350379388&#45;2181095411792409824&#45;&gt;cluster_cluster_cluster_&#45;2202121249019829706&#45;446415844823700992429787969923503793884298277636058170859 -->
<g id="edge2" class="edge"><title>cluster_cluster_cluster_&#45;2202121249019829706&#45;44641584482370099242978796992350379388&#45;2181095411792409824&#45;&gt;cluster_cluster_cluster_&#45;2202121249019829706&#45;446415844823700992429787969923503793884298277636058170859</title>
<path fill="none" stroke="black" d="M310,-322.831C310,-322.831 310,-297.413 310,-297.413"/>
<polygon fill="black" stroke="black" points="313.5,-297.413 310,-287.413 306.5,-297.413 313.5,-297.413"/>
</g>
<!-- cluster_cluster_cluster_&#45;2202121249019829706&#45;446415844823700992429787969923503793887702748476113788344 -->
<g id="node11" class="node"><title>cluster_cluster_cluster_&#45;2202121249019829706&#45;446415844823700992429787969923503793887702748476113788344</title>
<g id="a_node11"><a xlink:title="A unique dict with new values.">
<path fill="cyan" stroke="black" d="M120,-209C120,-209 54,-209 54,-209 48,-209 42,-203 42,-197 42,-197 42,-185 42,-185 42,-179 48,-173 54,-173 54,-173 120,-173 120,-173 126,-173 132,-179 132,-185 132,-185 132,-197 132,-197 132,-203 126,-209 120,-209"/>
<text text-anchor="start" x="52" y="-186.8" font-family="Times New Roman,serif" font-size="14.00">input/wltp_h</text>
</a>
</g>
</g>
<!-- cluster_cluster_cluster_&#45;2202121249019829706&#45;44641584482370099242978796992350379388&#45;7067757294929678007&#45;&gt;cluster_cluster_cluster_&#45;2202121249019829706&#45;446415844823700992429787969923503793887702748476113788344 -->
<g id="edge3" class="edge"><title>cluster_cluster_cluster_&#45;2202121249019829706&#45;44641584482370099242978796992350379388&#45;7067757294929678007&#45;&gt;cluster_cluster_cluster_&#45;2202121249019829706&#45;446415844823700992429787969923503793887702748476113788344</title>
<path fill="none" stroke="black" d="M92,-250.909C92,-250.909 92,-219.263 92,-219.263"/>
<polygon fill="black" stroke="black" points="95.5001,-219.263 92,-209.263 88.5001,-219.263 95.5001,-219.263"/>
</g>
<!-- cluster_cluster_cluster_&#45;2202121249019829706&#45;446415844823700992429787969923503793884919105944985796052 -->
<g id="node12" class="node"><title>cluster_cluster_cluster_&#45;2202121249019829706&#45;446415844823700992429787969923503793884919105944985796052</title>
<g id="a_node12"><a xlink:title="A unique dict with new values.">
<path fill="cyan" stroke="black" d="M342,-209C342,-209 278,-209 278,-209 272,-209 266,-203 266,-197 266,-197 266,-185 266,-185 266,-179 272,-173 278,-173 278,-173 342,-173 342,-173 348,-173 354,-179 354,-185 354,-185 354,-197 354,-197 354,-203 348,-209 342,-209"/>
<text text-anchor="start" x="276.5" y="-186.8" font-family="Times New Roman,serif" font-size="14.00">input/wltp_l</text>
</a>
</g>
</g>
<!-- cluster_cluster_cluster_&#45;2202121249019829706&#45;446415844823700992429787969923503793884298277636058170859&#45;&gt;cluster_cluster_cluster_&#45;2202121249019829706&#45;446415844823700992429787969923503793884919105944985796052 -->
<g id="edge4" class="edge"><title>cluster_cluster_cluster_&#45;2202121249019829706&#45;446415844823700992429787969923503793884298277636058170859&#45;&gt;cluster_cluster_cluster_&#45;2202121249019829706&#45;446415844823700992429787969923503793884919105944985796052</title>
<path fill="none" stroke="black" d="M310,-250.909C310,-250.909 310,-219.263 310,-219.263"/>
<polygon fill="black" stroke="black" points="313.5,-219.263 310,-209.263 306.5,-219.263 313.5,-219.263"/>
</g>
<!-- cluster_cluster_cluster_&#45;2202121249019829706&#45;44641584482370099242978796992350379388&#45;2445814299559113863 -->
<g id="node5" class="node"><title>cluster_cluster_cluster_&#45;2202121249019829706&#45;44641584482370099242978796992350379388&#45;2445814299559113863</title>
<g id="a_node5"><a xlink:href="./CTCM-wltp_l_errors/CTCM-wltp_l_error_vs_wltp_h.gv.svg" xlink:title="Calculates the error of calibrated model of a reference.">
<polygon fill="yellow" stroke="black" points="184,-131 0,-131 0,-95 190,-95 190,-125 184,-131"/>
<polyline fill="none" stroke="black" points="184,-131 184,-125 "/>
<polyline fill="none" stroke="black" points="190,-125 184,-125 "/>
<text text-anchor="start" x="10.5" y="-108.8" font-family="Times New Roman,serif" font-size="14.00">CTCM&#45;wltp_l error vs wltp_h</text>
</a>
</g>
</g>
<!-- cluster_cluster_cluster_&#45;2202121249019829706&#45;44641584482370099242978796992350379388&#45;2427563387242055365 -->
<g id="node8" class="node"><title>cluster_cluster_cluster_&#45;2202121249019829706&#45;44641584482370099242978796992350379388&#45;2427563387242055365</title>
<g id="a_node8"><a xlink:title="error/wltp_h">
<path fill="cyan" stroke="black" d="M128,-59C128,-59 62,-59 62,-59 56,-59 50,-53 50,-47 50,-47 50,-35 50,-35 50,-29 56,-23 62,-23 62,-23 128,-23 128,-23 134,-23 140,-29 140,-35 140,-35 140,-47 140,-47 140,-53 134,-59 128,-59"/>
<text text-anchor="start" x="60" y="-36.8" font-family="Times New Roman,serif" font-size="14.00">error/wltp_h</text>
</a>
</g>
</g>
<!-- cluster_cluster_cluster_&#45;2202121249019829706&#45;44641584482370099242978796992350379388&#45;2445814299559113863&#45;&gt;cluster_cluster_cluster_&#45;2202121249019829706&#45;44641584482370099242978796992350379388&#45;2427563387242055365 -->
<g id="edge5" class="edge"><title>cluster_cluster_cluster_&#45;2202121249019829706&#45;44641584482370099242978796992350379388&#45;2445814299559113863&#45;&gt;cluster_cluster_cluster_&#45;2202121249019829706&#45;44641584482370099242978796992350379388&#45;2427563387242055365</title>
<path fill="none" stroke="black" d="M95,-94.8314C95,-94.8314 95,-69.4133 95,-69.4133"/>
<polygon fill="black" stroke="black" points="98.5001,-69.4132 95,-59.4133 91.5001,-69.4133 98.5001,-69.4132"/>
</g>
<!-- cluster_cluster_cluster_&#45;2202121249019829706&#45;446415844823700992429787969923503793884598357288965997113 -->
<g id="node6" class="node"><title>cluster_cluster_cluster_&#45;2202121249019829706&#45;446415844823700992429787969923503793884598357288965997113</title>
<g id="a_node6"><a xlink:href="./CTCM-wltp_l_errors/CTCM-wltp_l_error_vs_wltp_l.gv.svg" xlink:title="Calculates the error of calibrated model of a reference.">
<polygon fill="yellow" stroke="black" points="392,-131 212,-131 212,-95 398,-95 398,-125 392,-131"/>
<polyline fill="none" stroke="black" points="392,-131 392,-125 "/>
<polyline fill="none" stroke="black" points="398,-125 392,-125 "/>
<text text-anchor="start" x="222" y="-108.8" font-family="Times New Roman,serif" font-size="14.00">CTCM&#45;wltp_l error vs wltp_l</text>
</a>
</g>
</g>
<!-- cluster_cluster_cluster_&#45;2202121249019829706&#45;44641584482370099242978796992350379388&#45;7302022848986384642 -->
<g id="node9" class="node"><title>cluster_cluster_cluster_&#45;2202121249019829706&#45;44641584482370099242978796992350379388&#45;7302022848986384642</title>
<g id="a_node9"><a xlink:title="error/wltp_l">
<path fill="cyan" stroke="black" d="M336,-59C336,-59 274,-59 274,-59 268,-59 262,-53 262,-47 262,-47 262,-35 262,-35 262,-29 268,-23 274,-23 274,-23 336,-23 336,-23 342,-23 348,-29 348,-35 348,-35 348,-47 348,-47 348,-53 342,-59 336,-59"/>
<text text-anchor="start" x="272" y="-36.8" font-family="Times New Roman,serif" font-size="14.00">error/wltp_l</text>
</a>
</g>
</g>
<!-- cluster_cluster_cluster_&#45;2202121249019829706&#45;446415844823700992429787969923503793884598357288965997113&#45;&gt;cluster_cluster_cluster_&#45;2202121249019829706&#45;44641584482370099242978796992350379388&#45;7302022848986384642 -->
<g id="edge6" class="edge"><title>cluster_cluster_cluster_&#45;2202121249019829706&#45;446415844823700992429787969923503793884598357288965997113&#45;&gt;cluster_cluster_cluster_&#45;2202121249019829706&#45;44641584482370099242978796992350379388&#45;7302022848986384642</title>
<path fill="none" stroke="black" d="M305,-94.8314C305,-94.8314 305,-69.4133 305,-69.4133"/>
<polygon fill="black" stroke="black" points="308.5,-69.4132 305,-59.4133 301.5,-69.4133 308.5,-69.4132"/>
</g>
<!-- cluster_cluster_cluster_&#45;2202121249019829706&#45;44641584482370099242978796992350379388&#45;1177382896934224609 -->
<g id="node7" class="node"><title>cluster_cluster_cluster_&#45;2202121249019829706&#45;44641584482370099242978796992350379388&#45;1177382896934224609</title>
<g id="a_node7"><a xlink:title="data_in">
<path fill="cyan" stroke="black" d="M297.5,-629C297.5,-629 212.5,-629 212.5,-629 206.5,-629 200.5,-623 200.5,-617 200.5,-617 200.5,-593 200.5,-593 200.5,-587 206.5,-581 212.5,-581 212.5,-581 297.5,-581 297.5,-581 303.5,-581 309.5,-587 309.5,-593 309.5,-593 309.5,-617 309.5,-617 309.5,-623 303.5,-629 297.5,-629"/>
<text text-anchor="start" x="235" y="-611.8" font-family="Times New Roman,serif" font-size="14.00">data_in</text>
<polygon fill="none" stroke="black" points="209,-585 209,-606 261,-606 261,-585 209,-585"/>
<text text-anchor="start" x="212" y="-591.8" font-family="Times New Roman,serif" font-size="14.00">default=</text>
<polygon fill="none" stroke="black" points="261,-585 261,-606 302,-606 302,-585 261,-585"/>
<text text-anchor="start" x="264" y="-591.8" font-family="Times New Roman,serif" font-size="14.00">wltp_l</text>
</a>
</g>
</g>
<!-- cluster_cluster_cluster_&#45;2202121249019829706&#45;44641584482370099242978796992350379388&#45;3431188338771875485&#45;&gt;cluster_cluster_cluster_&#45;2202121249019829706&#45;44641584482370099242978796992350379388&#45;2445814299559113863 -->
<g id="edge7" class="edge"><title>cluster_cluster_cluster_&#45;2202121249019829706&#45;44641584482370099242978796992350379388&#45;3431188338771875485&#45;&gt;cluster_cluster_cluster_&#45;2202121249019829706&#45;44641584482370099242978796992350379388&#45;2445814299559113863</title>
<path fill="none" stroke="black" d="M170.25,-166.748C170.25,-166.748 170.25,-141.288 170.25,-141.288"/>
<polygon fill="black" stroke="black" points="173.75,-141.287 170.25,-131.288 166.75,-141.288 173.75,-141.287"/>
</g>
<!-- cluster_cluster_cluster_&#45;2202121249019829706&#45;44641584482370099242978796992350379388&#45;3431188338771875485&#45;&gt;cluster_cluster_cluster_&#45;2202121249019829706&#45;446415844823700992429787969923503793884598357288965997113 -->
<g id="edge8" class="edge"><title>cluster_cluster_cluster_&#45;2202121249019829706&#45;44641584482370099242978796992350379388&#45;3431188338771875485&#45;&gt;cluster_cluster_cluster_&#45;2202121249019829706&#45;446415844823700992429787969923503793884598357288965997113</title>
<path fill="none" stroke="black" d="M229.75,-166.748C229.75,-166.748 229.75,-141.288 229.75,-141.288"/>
<polygon fill="black" stroke="black" points="233.25,-141.287 229.75,-131.288 226.25,-141.288 233.25,-141.287"/>
</g>
<!-- cluster_cluster_cluster_&#45;2202121249019829706&#45;446415844823700992429787969923503793887702748476113788344&#45;&gt;cluster_cluster_cluster_&#45;2202121249019829706&#45;44641584482370099242978796992350379388&#45;2445814299559113863 -->
<g id="edge9" class="edge"><title>cluster_cluster_cluster_&#45;2202121249019829706&#45;446415844823700992429787969923503793887702748476113788344&#45;&gt;cluster_cluster_cluster_&#45;2202121249019829706&#45;44641584482370099242978796992350379388&#45;2445814299559113863</title>
<path fill="none" stroke="black" d="M87,-172.909C87,-172.909 87,-141.263 87,-141.263"/>
<polygon fill="black" stroke="black" points="90.5001,-141.263 87,-131.263 83.5001,-141.263 90.5001,-141.263"/>
</g>
<!-- cluster_cluster_cluster_&#45;2202121249019829706&#45;446415844823700992429787969923503793884919105944985796052&#45;&gt;cluster_cluster_cluster_&#45;2202121249019829706&#45;446415844823700992429787969923503793884598357288965997113 -->
<g id="edge10" class="edge"><title>cluster_cluster_cluster_&#45;2202121249019829706&#45;446415844823700992429787969923503793884919105944985796052&#45;&gt;cluster_cluster_cluster_&#45;2202121249019829706&#45;446415844823700992429787969923503793884598357288965997113</title>
<path fill="none" stroke="black" d="M310,-172.909C310,-172.909 310,-141.263 310,-141.263"/>
<polygon fill="black" stroke="black" points="313.5,-141.263 310,-131.263 306.5,-141.263 313.5,-141.263"/>
</g>
<!-- cluster_cluster_cluster_&#45;2202121249019829706&#45;44641584482370099242978796992350379388&#45;3274255707223734200 -->
<g id="node13" class="node"><title>cluster_cluster_cluster_&#45;2202121249019829706&#45;44641584482370099242978796992350379388&#45;3274255707223734200</title>
<g id="a_node13"><a xlink:title="Keys to select.">
<path fill="cyan" stroke="black" d="M397.5,-545C397.5,-545 194.5,-545 194.5,-545 188.5,-545 182.5,-539 182.5,-533 182.5,-533 182.5,-479 182.5,-479 182.5,-473 188.5,-467 194.5,-467 194.5,-467 397.5,-467 397.5,-467 403.5,-467 409.5,-473 409.5,-479 409.5,-479 409.5,-533 409.5,-533 409.5,-539 403.5,-545 397.5,-545"/>
<text text-anchor="start" x="276" y="-527.8" font-family="Times New Roman,serif" font-size="14.00">models</text>
<polygon fill="none" stroke="black" points="191,-471 191,-522 243,-522 243,-471 191,-471"/>
<text text-anchor="start" x="194" y="-492.8" font-family="Times New Roman,serif" font-size="14.00">default=</text>
<polygon fill="none" stroke="black" points="243,-471 243,-522 402,-522 402,-471 243,-471"/>
<text text-anchor="start" x="272.5" y="-507.8" font-family="Times New Roman,serif" font-size="14.00">[&#39;clutch_window&#39;,</text>
<text text-anchor="start" x="277.5" y="-492.8" font-family="Times New Roman,serif" font-size="14.00"> &#39;clutch_model&#39;,</text>
<text text-anchor="start" x="246" y="-477.8" font-family="Times New Roman,serif" font-size="14.00"> &#39;torque_converter_model&#39;]</text>
</a>
</g>
</g>
<!-- cluster_cluster_cluster_&#45;2202121249019829706&#45;44641584482370099242978796992350379388&#45;8800720961443810657 -->
<g id="node14" class="node"><title>cluster_cluster_cluster_&#45;2202121249019829706&#45;44641584482370099242978796992350379388&#45;8800720961443810657</title>
<g id="a_node14"><a xlink:href="./../alternator_model_selector/AM-wltp_h_errors/AM-wltp_h_error_vs_wltp_h/select_inputs0.txt" xlink:title="Selects the chosen dictionary keys from the given dictionary.">
<polygon fill="springgreen" stroke="black" points="351,-431 251,-431 251,-395 351,-395 351,-431"/>
<text text-anchor="start" x="261" y="-408.8" font-family="Times New Roman,serif" font-size="14.00">select_models</text>
</a>
</g>
</g>
<!-- cluster_cluster_cluster_&#45;2202121249019829706&#45;44641584482370099242978796992350379388&#45;3274255707223734200&#45;&gt;cluster_cluster_cluster_&#45;2202121249019829706&#45;44641584482370099242978796992350379388&#45;8800720961443810657 -->
<g id="edge11" class="edge"><title>cluster_cluster_cluster_&#45;2202121249019829706&#45;44641584482370099242978796992350379388&#45;3274255707223734200&#45;&gt;cluster_cluster_cluster_&#45;2202121249019829706&#45;44641584482370099242978796992350379388&#45;8800720961443810657</title>
<path fill="none" stroke="black" d="M301,-466.829C301,-466.829 301,-441.356 301,-441.356"/>
<polygon fill="black" stroke="black" points="304.5,-441.356 301,-431.356 297.5,-441.356 304.5,-441.356"/>
</g>
<!-- cluster_cluster_cluster_&#45;2202121249019829706&#45;44641584482370099242978796992350379388&#45;8800720961443810657&#45;&gt;cluster_cluster_cluster_&#45;2202121249019829706&#45;44641584482370099242978796992350379388&#45;2181095411792409824 -->
<g id="edge12" class="edge"><title>cluster_cluster_cluster_&#45;2202121249019829706&#45;44641584482370099242978796992350379388&#45;8800720961443810657&#45;&gt;cluster_cluster_cluster_&#45;2202121249019829706&#45;44641584482370099242978796992350379388&#45;2181095411792409824</title>
<path fill="none" stroke="black" d="M301,-394.831C301,-394.831 301,-369.413 301,-369.413"/>
<polygon fill="black" stroke="black" points="304.5,-369.413 301,-359.413 297.5,-369.413 304.5,-369.413"/>
</g>
<!-- cluster_cluster_cluster_&#45;2202121249019829706&#45;446415844823700992429787969923503793884712647501736754553&#45;&gt;cluster_cluster_cluster_&#45;2202121249019829706&#45;44641584482370099242978796992350379388&#45;7067757294929678007 -->
<g id="edge16" class="edge"><title>cluster_cluster_cluster_&#45;2202121249019829706&#45;446415844823700992429787969923503793884712647501736754553&#45;&gt;cluster_cluster_cluster_&#45;2202121249019829706&#45;44641584482370099242978796992350379388&#45;7067757294929678007</title>
<path fill="none" stroke="black" d="M95,-394.762C95,-394.762 95,-297.09 95,-297.09"/>
<polygon fill="black" stroke="black" points="98.5001,-297.09 95,-287.09 91.5001,-297.09 98.5001,-297.09"/>
</g>
<!-- cluster_cluster_cluster_&#45;2202121249019829706&#45;44641584482370099242978796992350379388&#45;4779657526738643707&#45;&gt;cluster_cluster_cluster_&#45;2202121249019829706&#45;446415844823700992429787969923503793884298277636058170859 -->
<g id="edge17" class="edge"><title>cluster_cluster_cluster_&#45;2202121249019829706&#45;44641584482370099242978796992350379388&#45;4779657526738643707&#45;&gt;cluster_cluster_cluster_&#45;2202121249019829706&#45;446415844823700992429787969923503793884298277636058170859</title>
<path fill="none" stroke="black" d="M465.333,-487.797C465.333,-432.3 465.333,-269 465.333,-269 465.333,-269 366.185,-269 366.185,-269"/>
<polygon fill="black" stroke="black" points="366.185,-265.5 356.185,-269 366.185,-272.5 366.185,-265.5"/>
</g>
<!-- cluster_cluster_cluster_&#45;2202121249019829706&#45;44641584482370099242978796992350379388&#45;4779657526738643707&#45;&gt;cluster_cluster_cluster_&#45;2202121249019829706&#45;44641584482370099242978796992350379388&#45;8800720961443810657 -->
<g id="edge18" class="edge"><title>cluster_cluster_cluster_&#45;2202121249019829706&#45;44641584482370099242978796992350379388&#45;4779657526738643707&#45;&gt;cluster_cluster_cluster_&#45;2202121249019829706&#45;44641584482370099242978796992350379388&#45;8800720961443810657</title>
<path fill="none" stroke="black" d="M446.667,-487.626C446.667,-460.523 446.667,-413 446.667,-413 446.667,-413 361.13,-413 361.13,-413"/>
<polygon fill="black" stroke="black" points="361.13,-409.5 351.13,-413 361.13,-416.5 361.13,-409.5"/>
</g>
</g>
</svg>
