<?xml version="1.0" encoding="UTF-8" standalone="no"?>
<!DOCTYPE svg PUBLIC "-//W3C//DTD SVG 1.1//EN"
 "http://www.w3.org/Graphics/SVG/1.1/DTD/svg11.dtd">
<!-- Generated by graphviz version 2.38.0 (20140413.2041)
 -->
<!-- Title: cluster_SSM&#45;wltp_l errors Pages: 1 -->
<svg width="462pt" height="622pt"
 viewBox="0.00 0.00 462.00 622.00" xmlns="http://www.w3.org/2000/svg" xmlns:xlink="http://www.w3.org/1999/xlink">
<g id="graph0" class="graph" transform="scale(1 1) rotate(0) translate(4 618)">
<title>cluster_SSM&#45;wltp_l errors</title>
<polygon fill="white" stroke="none" points="-4,4 -4,-618 458,-618 458,4 -4,4"/>
<text text-anchor="start" x="174.5" y="-7.8" font-family="Times New Roman,serif" font-size="14.00">SSM&#45;wltp_l errors</text>
<!-- cluster_cluster_cluster_&#45;22021212490198297067535849388317330700495086107888850472477532400 -->
<g id="node1" class="node"><title>cluster_cluster_cluster_&#45;22021212490198297067535849388317330700495086107888850472477532400</title>
<g id="a_node1"><a xlink:title="start">
<polygon fill="red" stroke="black" points="146.683,-572.049 148.459,-572.148 150.216,-572.295 151.948,-572.491 153.648,-572.735 155.308,-573.027 156.923,-573.364 158.485,-573.748 159.989,-574.176 161.429,-574.647 162.8,-575.161 164.098,-575.715 165.317,-576.308 166.455,-576.939 167.507,-577.605 168.472,-578.306 169.346,-579.039 170.127,-579.801 170.815,-580.592 171.408,-581.408 171.906,-582.248 172.309,-583.109 172.617,-583.989 172.832,-584.886 172.956,-585.797 172.989,-586.719 172.934,-587.65 172.794,-588.587 172.571,-589.529 172.269,-590.471 171.89,-591.413 171.439,-592.35 170.918,-593.281 170.332,-594.203 169.685,-595.114 168.981,-596.011 168.223,-596.891 167.415,-597.752 166.561,-598.592 165.666,-599.408 164.732,-600.199 163.764,-600.961 162.764,-601.694 161.737,-602.395 160.684,-603.061 159.61,-603.692 158.516,-604.285 157.405,-604.839 156.28,-605.353 155.142,-605.824 153.994,-606.252 152.837,-606.636 151.672,-606.973 150.501,-607.265 149.325,-607.509 148.145,-607.705 146.963,-607.852 145.779,-607.951 144.593,-608 143.407,-608 142.221,-607.951 141.037,-607.852 139.855,-607.705 138.675,-607.509 137.499,-607.265 136.328,-606.973 135.163,-606.636 134.006,-606.252 132.858,-605.824 131.72,-605.353 130.595,-604.839 129.484,-604.285 128.39,-603.692 127.316,-603.061 126.263,-602.395 125.236,-601.694 124.236,-600.961 123.268,-600.199 122.334,-599.408 121.439,-598.592 120.585,-597.752 119.777,-596.891 119.019,-596.011 118.315,-595.114 117.668,-594.203 117.082,-593.281 116.561,-592.35 116.11,-591.413 115.731,-590.471 115.429,-589.529 115.206,-588.587 115.066,-587.65 115.011,-586.719 115.044,-585.797 115.168,-584.886 115.383,-583.989 115.691,-583.109 116.094,-582.248 116.592,-581.408 117.185,-580.592 117.873,-579.801 118.654,-579.039 119.528,-578.306 120.493,-577.605 121.545,-576.939 122.683,-576.308 123.902,-575.715 125.2,-575.161 126.571,-574.647 128.011,-574.176 129.515,-573.748 131.077,-573.364 132.692,-573.027 134.352,-572.735 136.052,-572.491 137.784,-572.295 139.541,-572.148 141.317,-572.049 143.105,-572 144.895,-572 146.683,-572.049"/>
<text text-anchor="middle" x="144" y="-586.3" font-family="Times New Roman,serif" font-size="14.00">start</text>
</a>
</g>
</g>
<!-- cluster_cluster_cluster_&#45;220212124901982970675358493883173307004950861078888504724&#45;3431188338771875485 -->
<g id="node10" class="node"><title>cluster_cluster_cluster_&#45;220212124901982970675358493883173307004950861078888504724&#45;3431188338771875485</title>
<g id="a_node10"><a xlink:title="error_settings">
<path fill="cyan" stroke="black" d="M223.5,-215C223.5,-215 150.5,-215 150.5,-215 144.5,-215 138.5,-209 138.5,-203 138.5,-203 138.5,-179 138.5,-179 138.5,-173 144.5,-167 150.5,-167 150.5,-167 223.5,-167 223.5,-167 229.5,-167 235.5,-173 235.5,-179 235.5,-179 235.5,-203 235.5,-203 235.5,-209 229.5,-215 223.5,-215"/>
<text text-anchor="start" x="149" y="-197.8" font-family="Times New Roman,serif" font-size="14.00">error_settings</text>
<polygon fill="none" stroke="black" points="147,-171 147,-192 203,-192 203,-171 147,-171"/>
<text text-anchor="start" x="154" y="-177.8" font-family="Times New Roman,serif" font-size="14.00">default=</text>
<polygon fill="none" stroke="black" points="203,-171 203,-192 228,-192 228,-171 203,-171"/>
<text text-anchor="start" x="206" y="-177.8" font-family="Times New Roman,serif" font-size="14.00">{}</text>
</a>
</g>
</g>
<!-- cluster_cluster_cluster_&#45;22021212490198297067535849388317330700495086107888850472477532400&#45;&gt;cluster_cluster_cluster_&#45;220212124901982970675358493883173307004950861078888504724&#45;3431188338771875485 -->
<g id="edge13" class="edge"><title>cluster_cluster_cluster_&#45;22021212490198297067535849388317330700495086107888850472477532400&#45;&gt;cluster_cluster_cluster_&#45;220212124901982970675358493883173307004950861078888504724&#45;3431188338771875485</title>
<path fill="none" stroke="black" d="M149.667,-572.081C149.667,-572.081 149.667,-225.205 149.667,-225.205"/>
<polygon fill="black" stroke="black" points="153.167,-225.205 149.667,-215.205 146.167,-225.205 153.167,-225.205"/>
<polygon fill="none" stroke="black" points="150.167,-398.143 150.167,-419.143 200.167,-419.143 200.167,-398.143 150.167,-398.143"/>
<text text-anchor="start" x="153.167" y="-404.943" font-family="Times New Roman,serif" font-size="14.00">inp_id=</text>
<polygon fill="none" stroke="black" points="200.167,-398.143 200.167,-419.143 213.167,-419.143 213.167,-398.143 200.167,-398.143"/>
<text text-anchor="start" x="203.167" y="-404.943" font-family="Times New Roman,serif" font-size="14.00">0</text>
</g>
<!-- cluster_cluster_cluster_&#45;2202121249019829706753584938831733070049508610788885047244712647501736754553 -->
<g id="node15" class="node"><title>cluster_cluster_cluster_&#45;2202121249019829706753584938831733070049508610788885047244712647501736754553</title>
<g id="a_node15"><a xlink:title="A sequence of data.">
<path fill="cyan" stroke="black" d="M103,-431C103,-431 67,-431 67,-431 61,-431 55,-425 55,-419 55,-419 55,-407 55,-407 55,-401 61,-395 67,-395 67,-395 103,-395 103,-395 109,-395 115,-401 115,-407 115,-407 115,-419 115,-419 115,-425 109,-431 103,-431"/>
<text text-anchor="start" x="65.5" y="-408.8" font-family="Times New Roman,serif" font-size="14.00">wltp_h</text>
</a>
</g>
</g>
<!-- cluster_cluster_cluster_&#45;22021212490198297067535849388317330700495086107888850472477532400&#45;&gt;cluster_cluster_cluster_&#45;2202121249019829706753584938831733070049508610788885047244712647501736754553 -->
<g id="edge14" class="edge"><title>cluster_cluster_cluster_&#45;22021212490198297067535849388317330700495086107888850472477532400&#45;&gt;cluster_cluster_cluster_&#45;2202121249019829706753584938831733070049508610788885047244712647501736754553</title>
<path fill="none" stroke="black" d="M129.25,-573.666C129.25,-529.848 129.25,-413 129.25,-413 129.25,-413 125.249,-413 125.249,-413"/>
<polygon fill="black" stroke="black" points="125.249,-409.5 115.249,-413 125.249,-416.5 125.249,-409.5"/>
<polygon fill="none" stroke="black" points="66.75,-490.832 66.75,-511.832 116.75,-511.832 116.75,-490.832 66.75,-490.832"/>
<text text-anchor="start" x="69.75" y="-497.632" font-family="Times New Roman,serif" font-size="14.00">inp_id=</text>
<polygon fill="none" stroke="black" points="116.75,-490.832 116.75,-511.832 129.75,-511.832 129.75,-490.832 116.75,-490.832"/>
<text text-anchor="start" x="119.75" y="-497.632" font-family="Times New Roman,serif" font-size="14.00">2</text>
</g>
<!-- cluster_cluster_cluster_&#45;220212124901982970675358493883173307004950861078888504724&#45;4779657526738643707 -->
<g id="node16" class="node"><title>cluster_cluster_cluster_&#45;220212124901982970675358493883173307004950861078888504724&#45;4779657526738643707</title>
<g id="a_node16"><a xlink:title="A sequence of data.">
<path fill="cyan" stroke="black" d="M442,-516.5C442,-516.5 410,-516.5 410,-516.5 404,-516.5 398,-510.5 398,-504.5 398,-504.5 398,-492.5 398,-492.5 398,-486.5 404,-480.5 410,-480.5 410,-480.5 442,-480.5 442,-480.5 448,-480.5 454,-486.5 454,-492.5 454,-492.5 454,-504.5 454,-504.5 454,-510.5 448,-516.5 442,-516.5"/>
<text text-anchor="start" x="408.5" y="-494.3" font-family="Times New Roman,serif" font-size="14.00">wltp_l</text>
</a>
</g>
</g>
<!-- cluster_cluster_cluster_&#45;22021212490198297067535849388317330700495086107888850472477532400&#45;&gt;cluster_cluster_cluster_&#45;220212124901982970675358493883173307004950861078888504724&#45;4779657526738643707 -->
<g id="edge15" class="edge"><title>cluster_cluster_cluster_&#45;22021212490198297067535849388317330700495086107888850472477532400&#45;&gt;cluster_cluster_cluster_&#45;220212124901982970675358493883173307004950861078888504724&#45;4779657526738643707</title>
<path fill="none" stroke="black" d="M160.833,-574.361C160.833,-562.42 160.833,-548 160.833,-548 160.833,-548 426,-548 426,-548 426,-548 426,-526.651 426,-526.651"/>
<polygon fill="black" stroke="black" points="429.5,-526.651 426,-516.651 422.5,-526.651 429.5,-526.651"/>
<polygon fill="none" stroke="black" points="291.411,-547.5 291.411,-568.5 341.411,-568.5 341.411,-547.5 291.411,-547.5"/>
<text text-anchor="start" x="294.411" y="-554.3" font-family="Times New Roman,serif" font-size="14.00">inp_id=</text>
<polygon fill="none" stroke="black" points="341.411,-547.5 341.411,-568.5 354.411,-568.5 354.411,-547.5 341.411,-547.5"/>
<text text-anchor="start" x="344.411" y="-554.3" font-family="Times New Roman,serif" font-size="14.00">1</text>
</g>
<!-- cluster_cluster_cluster_&#45;220212124901982970675358493883173307004950861078888504724&#45;2181095411792409824 -->
<g id="node2" class="node"><title>cluster_cluster_cluster_&#45;220212124901982970675358493883173307004950861078888504724&#45;2181095411792409824</title>
<g id="a_node2"><a xlink:title="A sequence of data.">
<path fill="cyan" stroke="black" d="M334,-359C334,-359 234,-359 234,-359 228,-359 222,-353 222,-347 222,-347 222,-335 222,-335 222,-329 228,-323 234,-323 234,-323 334,-323 334,-323 340,-323 346,-329 346,-335 346,-335 346,-347 346,-347 346,-353 340,-359 334,-359"/>
<text text-anchor="start" x="232.5" y="-336.8" font-family="Times New Roman,serif" font-size="14.00">calibrated_models</text>
</a>
</g>
</g>
<!-- cluster_cluster_cluster_&#45;220212124901982970675358493883173307004950861078888504724&#45;7067757294929678007 -->
<g id="node3" class="node"><title>cluster_cluster_cluster_&#45;220212124901982970675358493883173307004950861078888504724&#45;7067757294929678007</title>
<g id="a_node3"><a xlink:href="./../alternator_model_selector/AM-wltp_h_errors/co2mpas.dispatcher.utils.dspmap_list.txt" xlink:title="Returns a new dict.">
<polygon fill="springgreen" stroke="black" points="116,-287 48,-287 48,-251 116,-251 116,-287"/>
<text text-anchor="start" x="58" y="-264.8" font-family="Times New Roman,serif" font-size="14.00">map_list</text>
</a>
</g>
</g>
<!-- cluster_cluster_cluster_&#45;220212124901982970675358493883173307004950861078888504724&#45;2181095411792409824&#45;&gt;cluster_cluster_cluster_&#45;220212124901982970675358493883173307004950861078888504724&#45;7067757294929678007 -->
<g id="edge1" class="edge"><title>cluster_cluster_cluster_&#45;220212124901982970675358493883173307004950861078888504724&#45;2181095411792409824&#45;&gt;cluster_cluster_cluster_&#45;220212124901982970675358493883173307004950861078888504724&#45;7067757294929678007</title>
<path fill="none" stroke="black" d="M228.75,-322.831C228.75,-301.502 228.75,-269 228.75,-269 228.75,-269 126.036,-269 126.036,-269"/>
<polygon fill="black" stroke="black" points="126.036,-265.5 116.036,-269 126.036,-272.5 126.036,-265.5"/>
</g>
<!-- cluster_cluster_cluster_&#45;2202121249019829706753584938831733070049508610788885047244298277636058170859 -->
<g id="node4" class="node"><title>cluster_cluster_cluster_&#45;2202121249019829706753584938831733070049508610788885047244298277636058170859</title>
<g id="a_node4"><a xlink:href="./../alternator_model_selector/AM-wltp_h_errors/co2mpas.dispatcher.utils.dspmap_list.txt" xlink:title="Returns a new dict.">
<polygon fill="springgreen" stroke="black" points="344,-287 252,-287 252,-251 344,-251 344,-287"/>
<text text-anchor="start" x="262.5" y="-264.8" font-family="Times New Roman,serif" font-size="14.00">map_list&lt;0&gt;</text>
</a>
</g>
</g>
<!-- cluster_cluster_cluster_&#45;220212124901982970675358493883173307004950861078888504724&#45;2181095411792409824&#45;&gt;cluster_cluster_cluster_&#45;2202121249019829706753584938831733070049508610788885047244298277636058170859 -->
<g id="edge2" class="edge"><title>cluster_cluster_cluster_&#45;220212124901982970675358493883173307004950861078888504724&#45;2181095411792409824&#45;&gt;cluster_cluster_cluster_&#45;2202121249019829706753584938831733070049508610788885047244298277636058170859</title>
<path fill="none" stroke="black" d="M298,-322.831C298,-322.831 298,-297.413 298,-297.413"/>
<polygon fill="black" stroke="black" points="301.5,-297.413 298,-287.413 294.5,-297.413 301.5,-297.413"/>
</g>
<!-- cluster_cluster_cluster_&#45;2202121249019829706753584938831733070049508610788885047247702748476113788344 -->
<g id="node11" class="node"><title>cluster_cluster_cluster_&#45;2202121249019829706753584938831733070049508610788885047247702748476113788344</title>
<g id="a_node11"><a xlink:title="A unique dict with new values.">
<path fill="cyan" stroke="black" d="M108,-209C108,-209 42,-209 42,-209 36,-209 30,-203 30,-197 30,-197 30,-185 30,-185 30,-179 36,-173 42,-173 42,-173 108,-173 108,-173 114,-173 120,-179 120,-185 120,-185 120,-197 120,-197 120,-203 114,-209 108,-209"/>
<text text-anchor="start" x="40" y="-186.8" font-family="Times New Roman,serif" font-size="14.00">input/wltp_h</text>
</a>
</g>
</g>
<!-- cluster_cluster_cluster_&#45;220212124901982970675358493883173307004950861078888504724&#45;7067757294929678007&#45;&gt;cluster_cluster_cluster_&#45;2202121249019829706753584938831733070049508610788885047247702748476113788344 -->
<g id="edge3" class="edge"><title>cluster_cluster_cluster_&#45;220212124901982970675358493883173307004950861078888504724&#45;7067757294929678007&#45;&gt;cluster_cluster_cluster_&#45;2202121249019829706753584938831733070049508610788885047247702748476113788344</title>
<path fill="none" stroke="black" d="M82,-250.909C82,-250.909 82,-219.263 82,-219.263"/>
<polygon fill="black" stroke="black" points="85.5001,-219.263 82,-209.263 78.5001,-219.263 85.5001,-219.263"/>
</g>
<!-- cluster_cluster_cluster_&#45;2202121249019829706753584938831733070049508610788885047244919105944985796052 -->
<g id="node12" class="node"><title>cluster_cluster_cluster_&#45;2202121249019829706753584938831733070049508610788885047244919105944985796052</title>
<g id="a_node12"><a xlink:title="A unique dict with new values.">
<path fill="cyan" stroke="black" d="M330,-209C330,-209 266,-209 266,-209 260,-209 254,-203 254,-197 254,-197 254,-185 254,-185 254,-179 260,-173 266,-173 266,-173 330,-173 330,-173 336,-173 342,-179 342,-185 342,-185 342,-197 342,-197 342,-203 336,-209 330,-209"/>
<text text-anchor="start" x="264.5" y="-186.8" font-family="Times New Roman,serif" font-size="14.00">input/wltp_l</text>
</a>
</g>
</g>
<!-- cluster_cluster_cluster_&#45;2202121249019829706753584938831733070049508610788885047244298277636058170859&#45;&gt;cluster_cluster_cluster_&#45;2202121249019829706753584938831733070049508610788885047244919105944985796052 -->
<g id="edge4" class="edge"><title>cluster_cluster_cluster_&#45;2202121249019829706753584938831733070049508610788885047244298277636058170859&#45;&gt;cluster_cluster_cluster_&#45;2202121249019829706753584938831733070049508610788885047244919105944985796052</title>
<path fill="none" stroke="black" d="M298,-250.909C298,-250.909 298,-219.263 298,-219.263"/>
<polygon fill="black" stroke="black" points="301.5,-219.263 298,-209.263 294.5,-219.263 301.5,-219.263"/>
</g>
<!-- cluster_cluster_cluster_&#45;220212124901982970675358493883173307004950861078888504724&#45;6806104273567315421 -->
<g id="node5" class="node"><title>cluster_cluster_cluster_&#45;220212124901982970675358493883173307004950861078888504724&#45;6806104273567315421</title>
<g id="a_node5"><a xlink:href="./SSM-wltp_l_errors/SSM-wltp_l_error_vs_wltp_h.gv.svg" xlink:title="Calculates the error of calibrated model of a reference.">
<polygon fill="yellow" stroke="black" points="172,-131 0,-131 0,-95 178,-95 178,-125 172,-131"/>
<polyline fill="none" stroke="black" points="172,-131 172,-125 "/>
<polyline fill="none" stroke="black" points="178,-125 172,-125 "/>
<text text-anchor="start" x="10.5" y="-108.8" font-family="Times New Roman,serif" font-size="14.00">SSM&#45;wltp_l error vs wltp_h</text>
</a>
</g>
</g>
<!-- cluster_cluster_cluster_&#45;220212124901982970675358493883173307004950861078888504724&#45;2427563387242055365 -->
<g id="node8" class="node"><title>cluster_cluster_cluster_&#45;220212124901982970675358493883173307004950861078888504724&#45;2427563387242055365</title>
<g id="a_node8"><a xlink:title="error/wltp_h">
<path fill="cyan" stroke="black" d="M122,-59C122,-59 56,-59 56,-59 50,-59 44,-53 44,-47 44,-47 44,-35 44,-35 44,-29 50,-23 56,-23 56,-23 122,-23 122,-23 128,-23 134,-29 134,-35 134,-35 134,-47 134,-47 134,-53 128,-59 122,-59"/>
<text text-anchor="start" x="54" y="-36.8" font-family="Times New Roman,serif" font-size="14.00">error/wltp_h</text>
</a>
</g>
</g>
<!-- cluster_cluster_cluster_&#45;220212124901982970675358493883173307004950861078888504724&#45;6806104273567315421&#45;&gt;cluster_cluster_cluster_&#45;220212124901982970675358493883173307004950861078888504724&#45;2427563387242055365 -->
<g id="edge5" class="edge"><title>cluster_cluster_cluster_&#45;220212124901982970675358493883173307004950861078888504724&#45;6806104273567315421&#45;&gt;cluster_cluster_cluster_&#45;220212124901982970675358493883173307004950861078888504724&#45;2427563387242055365</title>
<path fill="none" stroke="black" d="M89,-94.8314C89,-94.8314 89,-69.4133 89,-69.4133"/>
<polygon fill="black" stroke="black" points="92.5001,-69.4132 89,-59.4133 85.5001,-69.4133 92.5001,-69.4132"/>
</g>
<!-- cluster_cluster_cluster_&#45;2202121249019829706753584938831733070049508610788885047244298046530997889590 -->
<g id="node6" class="node"><title>cluster_cluster_cluster_&#45;2202121249019829706753584938831733070049508610788885047244298046530997889590</title>
<g id="a_node6"><a xlink:href="./SSM-wltp_l_errors/SSM-wltp_l_error_vs_wltp_l.gv.svg" xlink:title="Calculates the error of calibrated model of a reference.">
<polygon fill="yellow" stroke="black" points="371,-131 203,-131 203,-95 377,-95 377,-125 371,-131"/>
<polyline fill="none" stroke="black" points="371,-131 371,-125 "/>
<polyline fill="none" stroke="black" points="377,-125 371,-125 "/>
<text text-anchor="start" x="213" y="-108.8" font-family="Times New Roman,serif" font-size="14.00">SSM&#45;wltp_l error vs wltp_l</text>
</a>
</g>
</g>
<!-- cluster_cluster_cluster_&#45;220212124901982970675358493883173307004950861078888504724&#45;7302022848986384642 -->
<g id="node9" class="node"><title>cluster_cluster_cluster_&#45;220212124901982970675358493883173307004950861078888504724&#45;7302022848986384642</title>
<g id="a_node9"><a xlink:title="error/wltp_l">
<path fill="cyan" stroke="black" d="M321,-59C321,-59 259,-59 259,-59 253,-59 247,-53 247,-47 247,-47 247,-35 247,-35 247,-29 253,-23 259,-23 259,-23 321,-23 321,-23 327,-23 333,-29 333,-35 333,-35 333,-47 333,-47 333,-53 327,-59 321,-59"/>
<text text-anchor="start" x="257" y="-36.8" font-family="Times New Roman,serif" font-size="14.00">error/wltp_l</text>
</a>
</g>
</g>
<!-- cluster_cluster_cluster_&#45;2202121249019829706753584938831733070049508610788885047244298046530997889590&#45;&gt;cluster_cluster_cluster_&#45;220212124901982970675358493883173307004950861078888504724&#45;7302022848986384642 -->
<g id="edge6" class="edge"><title>cluster_cluster_cluster_&#45;2202121249019829706753584938831733070049508610788885047244298046530997889590&#45;&gt;cluster_cluster_cluster_&#45;220212124901982970675358493883173307004950861078888504724&#45;7302022848986384642</title>
<path fill="none" stroke="black" d="M290,-94.8314C290,-94.8314 290,-69.4133 290,-69.4133"/>
<polygon fill="black" stroke="black" points="293.5,-69.4132 290,-59.4133 286.5,-69.4133 293.5,-69.4132"/>
</g>
<!-- cluster_cluster_cluster_&#45;220212124901982970675358493883173307004950861078888504724&#45;1177382896934224609 -->
<g id="node7" class="node"><title>cluster_cluster_cluster_&#45;220212124901982970675358493883173307004950861078888504724&#45;1177382896934224609</title>
<g id="a_node7"><a xlink:title="data_in">
<path fill="cyan" stroke="black" d="M287.5,-614C287.5,-614 202.5,-614 202.5,-614 196.5,-614 190.5,-608 190.5,-602 190.5,-602 190.5,-578 190.5,-578 190.5,-572 196.5,-566 202.5,-566 202.5,-566 287.5,-566 287.5,-566 293.5,-566 299.5,-572 299.5,-578 299.5,-578 299.5,-602 299.5,-602 299.5,-608 293.5,-614 287.5,-614"/>
<text text-anchor="start" x="225" y="-596.8" font-family="Times New Roman,serif" font-size="14.00">data_in</text>
<polygon fill="none" stroke="black" points="199,-570 199,-591 251,-591 251,-570 199,-570"/>
<text text-anchor="start" x="202" y="-576.8" font-family="Times New Roman,serif" font-size="14.00">default=</text>
<polygon fill="none" stroke="black" points="251,-570 251,-591 292,-591 292,-570 251,-570"/>
<text text-anchor="start" x="254" y="-576.8" font-family="Times New Roman,serif" font-size="14.00">wltp_l</text>
</a>
</g>
</g>
<!-- cluster_cluster_cluster_&#45;220212124901982970675358493883173307004950861078888504724&#45;3431188338771875485&#45;&gt;cluster_cluster_cluster_&#45;220212124901982970675358493883173307004950861078888504724&#45;6806104273567315421 -->
<g id="edge7" class="edge"><title>cluster_cluster_cluster_&#45;220212124901982970675358493883173307004950861078888504724&#45;3431188338771875485&#45;&gt;cluster_cluster_cluster_&#45;220212124901982970675358493883173307004950861078888504724&#45;6806104273567315421</title>
<path fill="none" stroke="black" d="M158.25,-166.748C158.25,-166.748 158.25,-141.288 158.25,-141.288"/>
<polygon fill="black" stroke="black" points="161.75,-141.287 158.25,-131.288 154.75,-141.288 161.75,-141.287"/>
</g>
<!-- cluster_cluster_cluster_&#45;220212124901982970675358493883173307004950861078888504724&#45;3431188338771875485&#45;&gt;cluster_cluster_cluster_&#45;2202121249019829706753584938831733070049508610788885047244298046530997889590 -->
<g id="edge8" class="edge"><title>cluster_cluster_cluster_&#45;220212124901982970675358493883173307004950861078888504724&#45;3431188338771875485&#45;&gt;cluster_cluster_cluster_&#45;2202121249019829706753584938831733070049508610788885047244298046530997889590</title>
<path fill="none" stroke="black" d="M219.25,-166.748C219.25,-166.748 219.25,-141.288 219.25,-141.288"/>
<polygon fill="black" stroke="black" points="222.75,-141.287 219.25,-131.288 215.75,-141.288 222.75,-141.287"/>
</g>
<!-- cluster_cluster_cluster_&#45;2202121249019829706753584938831733070049508610788885047247702748476113788344&#45;&gt;cluster_cluster_cluster_&#45;220212124901982970675358493883173307004950861078888504724&#45;6806104273567315421 -->
<g id="edge9" class="edge"><title>cluster_cluster_cluster_&#45;2202121249019829706753584938831733070049508610788885047247702748476113788344&#45;&gt;cluster_cluster_cluster_&#45;220212124901982970675358493883173307004950861078888504724&#45;6806104273567315421</title>
<path fill="none" stroke="black" d="M75,-172.909C75,-172.909 75,-141.263 75,-141.263"/>
<polygon fill="black" stroke="black" points="78.5001,-141.263 75,-131.263 71.5001,-141.263 78.5001,-141.263"/>
</g>
<!-- cluster_cluster_cluster_&#45;2202121249019829706753584938831733070049508610788885047244919105944985796052&#45;&gt;cluster_cluster_cluster_&#45;2202121249019829706753584938831733070049508610788885047244298046530997889590 -->
<g id="edge10" class="edge"><title>cluster_cluster_cluster_&#45;2202121249019829706753584938831733070049508610788885047244919105944985796052&#45;&gt;cluster_cluster_cluster_&#45;2202121249019829706753584938831733070049508610788885047244298046530997889590</title>
<path fill="none" stroke="black" d="M298,-172.909C298,-172.909 298,-141.263 298,-141.263"/>
<polygon fill="black" stroke="black" points="301.5,-141.263 298,-131.263 294.5,-141.263 301.5,-141.263"/>
</g>
<!-- cluster_cluster_cluster_&#45;220212124901982970675358493883173307004950861078888504724&#45;3274255707223734200 -->
<g id="node13" class="node"><title>cluster_cluster_cluster_&#45;220212124901982970675358493883173307004950861078888504724&#45;3274255707223734200</title>
<g id="a_node13"><a xlink:title="Keys to select.">
<path fill="cyan" stroke="black" d="M368,-530C368,-530 184,-530 184,-530 178,-530 172,-524 172,-518 172,-518 172,-479 172,-479 172,-473 178,-467 184,-467 184,-467 368,-467 368,-467 374,-467 380,-473 380,-479 380,-479 380,-518 380,-518 380,-524 374,-530 368,-530"/>
<text text-anchor="start" x="255.5" y="-512.3" font-family="Times New Roman,serif" font-size="14.00">models</text>
<polygon fill="none" stroke="black" points="180,-470.5 180,-506.5 232,-506.5 232,-470.5 180,-470.5"/>
<text text-anchor="start" x="183" y="-484.8" font-family="Times New Roman,serif" font-size="14.00">default=</text>
<polygon fill="none" stroke="black" points="232,-470.5 232,-506.5 372,-506.5 372,-470.5 232,-470.5"/>
<text text-anchor="start" x="245.5" y="-492.3" font-family="Times New Roman,serif" font-size="14.00">[&#39;start_stop_model&#39;,</text>
<text text-anchor="start" x="235" y="-477.3" font-family="Times New Roman,serif" font-size="14.00"> &#39;use_basic_start_stop&#39;]</text>
</a>
</g>
</g>
<!-- cluster_cluster_cluster_&#45;220212124901982970675358493883173307004950861078888504724&#45;8800720961443810657 -->
<g id="node14" class="node"><title>cluster_cluster_cluster_&#45;220212124901982970675358493883173307004950861078888504724&#45;8800720961443810657</title>
<g id="a_node14"><a xlink:href="./../alternator_model_selector/AM-wltp_h_errors/AM-wltp_h_error_vs_wltp_h/select_inputs0.txt" xlink:title="Selects the chosen dictionary keys from the given dictionary.">
<polygon fill="springgreen" stroke="black" points="334,-431 234,-431 234,-395 334,-395 334,-431"/>
<text text-anchor="start" x="244" y="-408.8" font-family="Times New Roman,serif" font-size="14.00">select_models</text>
</a>
</g>
</g>
<!-- cluster_cluster_cluster_&#45;220212124901982970675358493883173307004950861078888504724&#45;3274255707223734200&#45;&gt;cluster_cluster_cluster_&#45;220212124901982970675358493883173307004950861078888504724&#45;8800720961443810657 -->
<g id="edge11" class="edge"><title>cluster_cluster_cluster_&#45;220212124901982970675358493883173307004950861078888504724&#45;3274255707223734200&#45;&gt;cluster_cluster_cluster_&#45;220212124901982970675358493883173307004950861078888504724&#45;8800720961443810657</title>
<path fill="none" stroke="black" d="M284,-466.663C284,-466.663 284,-441.204 284,-441.204"/>
<polygon fill="black" stroke="black" points="287.5,-441.204 284,-431.204 280.5,-441.204 287.5,-441.204"/>
</g>
<!-- cluster_cluster_cluster_&#45;220212124901982970675358493883173307004950861078888504724&#45;8800720961443810657&#45;&gt;cluster_cluster_cluster_&#45;220212124901982970675358493883173307004950861078888504724&#45;2181095411792409824 -->
<g id="edge12" class="edge"><title>cluster_cluster_cluster_&#45;220212124901982970675358493883173307004950861078888504724&#45;8800720961443810657&#45;&gt;cluster_cluster_cluster_&#45;220212124901982970675358493883173307004950861078888504724&#45;2181095411792409824</title>
<path fill="none" stroke="black" d="M284,-394.831C284,-394.831 284,-369.413 284,-369.413"/>
<polygon fill="black" stroke="black" points="287.5,-369.413 284,-359.413 280.5,-369.413 287.5,-369.413"/>
</g>
<!-- cluster_cluster_cluster_&#45;2202121249019829706753584938831733070049508610788885047244712647501736754553&#45;&gt;cluster_cluster_cluster_&#45;220212124901982970675358493883173307004950861078888504724&#45;7067757294929678007 -->
<g id="edge16" class="edge"><title>cluster_cluster_cluster_&#45;2202121249019829706753584938831733070049508610788885047244712647501736754553&#45;&gt;cluster_cluster_cluster_&#45;220212124901982970675358493883173307004950861078888504724&#45;7067757294929678007</title>
<path fill="none" stroke="black" d="M85,-394.762C85,-394.762 85,-297.09 85,-297.09"/>
<polygon fill="black" stroke="black" points="88.5001,-297.09 85,-287.09 81.5001,-297.09 88.5001,-297.09"/>
</g>
<!-- cluster_cluster_cluster_&#45;220212124901982970675358493883173307004950861078888504724&#45;4779657526738643707&#45;&gt;cluster_cluster_cluster_&#45;2202121249019829706753584938831733070049508610788885047244298277636058170859 -->
<g id="edge17" class="edge"><title>cluster_cluster_cluster_&#45;220212124901982970675358493883173307004950861078888504724&#45;4779657526738643707&#45;&gt;cluster_cluster_cluster_&#45;2202121249019829706753584938831733070049508610788885047244298277636058170859</title>
<path fill="none" stroke="black" d="M435.333,-480.492C435.333,-426.389 435.333,-269 435.333,-269 435.333,-269 354.112,-269 354.112,-269"/>
<polygon fill="black" stroke="black" points="354.112,-265.5 344.112,-269 354.112,-272.5 354.112,-265.5"/>
</g>
<!-- cluster_cluster_cluster_&#45;220212124901982970675358493883173307004950861078888504724&#45;4779657526738643707&#45;&gt;cluster_cluster_cluster_&#45;220212124901982970675358493883173307004950861078888504724&#45;8800720961443810657 -->
<g id="edge18" class="edge"><title>cluster_cluster_cluster_&#45;220212124901982970675358493883173307004950861078888504724&#45;4779657526738643707&#45;&gt;cluster_cluster_cluster_&#45;220212124901982970675358493883173307004950861078888504724&#45;8800720961443810657</title>
<path fill="none" stroke="black" d="M416.667,-480.368C416.667,-455.27 416.667,-413 416.667,-413 416.667,-413 344.156,-413 344.156,-413"/>
<polygon fill="black" stroke="black" points="344.156,-409.5 334.156,-413 344.156,-416.5 344.156,-409.5"/>
</g>
</g>
</svg>
