<?xml version="1.0" encoding="UTF-8" standalone="no"?>
<!DOCTYPE svg PUBLIC "-//W3C//DTD SVG 1.1//EN"
 "http://www.w3.org/Graphics/SVG/1.1/DTD/svg11.dtd">
<!-- Generated by graphviz version 2.38.0 (20140413.2041)
 -->
<!-- Title: cluster_SSM&#45;wltp_h errors Pages: 1 -->
<svg width="478pt" height="622pt"
 viewBox="0.00 0.00 478.00 622.00" xmlns="http://www.w3.org/2000/svg" xmlns:xlink="http://www.w3.org/1999/xlink">
<g id="graph0" class="graph" transform="scale(1 1) rotate(0) translate(4 618)">
<title>cluster_SSM&#45;wltp_h errors</title>
<polygon fill="white" stroke="none" points="-4,4 -4,-618 474,-618 474,4 -4,4"/>
<text text-anchor="start" x="180.5" y="-7.8" font-family="Times New Roman,serif" font-size="14.00">SSM&#45;wltp_h errors</text>
<!-- cluster_cluster_cluster_&#45;22021212490198297067535849388317330700&#45;835402781319146249577532400 -->
<g id="node1" class="node"><title>cluster_cluster_cluster_&#45;22021212490198297067535849388317330700&#45;835402781319146249577532400</title>
<g id="a_node1"><a xlink:title="start">
<polygon fill="red" stroke="black" points="158.683,-572.049 160.459,-572.148 162.216,-572.295 163.948,-572.491 165.648,-572.735 167.308,-573.027 168.923,-573.364 170.485,-573.748 171.989,-574.176 173.429,-574.647 174.8,-575.161 176.098,-575.715 177.317,-576.308 178.455,-576.939 179.507,-577.605 180.472,-578.306 181.346,-579.039 182.127,-579.801 182.815,-580.592 183.408,-581.408 183.906,-582.248 184.309,-583.109 184.617,-583.989 184.832,-584.886 184.956,-585.797 184.989,-586.719 184.934,-587.65 184.794,-588.587 184.571,-589.529 184.269,-590.471 183.89,-591.413 183.439,-592.35 182.918,-593.281 182.332,-594.203 181.685,-595.114 180.981,-596.011 180.223,-596.891 179.415,-597.752 178.561,-598.592 177.666,-599.408 176.732,-600.199 175.764,-600.961 174.764,-601.694 173.737,-602.395 172.684,-603.061 171.61,-603.692 170.516,-604.285 169.405,-604.839 168.28,-605.353 167.142,-605.824 165.994,-606.252 164.837,-606.636 163.672,-606.973 162.501,-607.265 161.325,-607.509 160.145,-607.705 158.963,-607.852 157.779,-607.951 156.593,-608 155.407,-608 154.221,-607.951 153.037,-607.852 151.855,-607.705 150.675,-607.509 149.499,-607.265 148.328,-606.973 147.163,-606.636 146.006,-606.252 144.858,-605.824 143.72,-605.353 142.595,-604.839 141.484,-604.285 140.39,-603.692 139.316,-603.061 138.263,-602.395 137.236,-601.694 136.236,-600.961 135.268,-600.199 134.334,-599.408 133.439,-598.592 132.585,-597.752 131.777,-596.891 131.019,-596.011 130.315,-595.114 129.668,-594.203 129.082,-593.281 128.561,-592.35 128.11,-591.413 127.731,-590.471 127.429,-589.529 127.206,-588.587 127.066,-587.65 127.011,-586.719 127.044,-585.797 127.168,-584.886 127.383,-583.989 127.691,-583.109 128.094,-582.248 128.592,-581.408 129.185,-580.592 129.873,-579.801 130.654,-579.039 131.528,-578.306 132.493,-577.605 133.545,-576.939 134.683,-576.308 135.902,-575.715 137.2,-575.161 138.571,-574.647 140.011,-574.176 141.515,-573.748 143.077,-573.364 144.692,-573.027 146.352,-572.735 148.052,-572.491 149.784,-572.295 151.541,-572.148 153.317,-572.049 155.105,-572 156.895,-572 158.683,-572.049"/>
<text text-anchor="middle" x="156" y="-586.3" font-family="Times New Roman,serif" font-size="14.00">start</text>
</a>
</g>
</g>
<!-- cluster_cluster_cluster_&#45;22021212490198297067535849388317330700&#45;8354027813191462495&#45;3431188338771875485 -->
<g id="node10" class="node"><title>cluster_cluster_cluster_&#45;22021212490198297067535849388317330700&#45;8354027813191462495&#45;3431188338771875485</title>
<g id="a_node10"><a xlink:title="error_settings">
<path fill="cyan" stroke="black" d="M224.5,-215C224.5,-215 151.5,-215 151.5,-215 145.5,-215 139.5,-209 139.5,-203 139.5,-203 139.5,-179 139.5,-179 139.5,-173 145.5,-167 151.5,-167 151.5,-167 224.5,-167 224.5,-167 230.5,-167 236.5,-173 236.5,-179 236.5,-179 236.5,-203 236.5,-203 236.5,-209 230.5,-215 224.5,-215"/>
<text text-anchor="start" x="150" y="-197.8" font-family="Times New Roman,serif" font-size="14.00">error_settings</text>
<polygon fill="none" stroke="black" points="148,-171 148,-192 204,-192 204,-171 148,-171"/>
<text text-anchor="start" x="155" y="-177.8" font-family="Times New Roman,serif" font-size="14.00">default=</text>
<polygon fill="none" stroke="black" points="204,-171 204,-192 229,-192 229,-171 204,-171"/>
<text text-anchor="start" x="207" y="-177.8" font-family="Times New Roman,serif" font-size="14.00">{}</text>
</a>
</g>
</g>
<!-- cluster_cluster_cluster_&#45;22021212490198297067535849388317330700&#45;835402781319146249577532400&#45;&gt;cluster_cluster_cluster_&#45;22021212490198297067535849388317330700&#45;8354027813191462495&#45;3431188338771875485 -->
<g id="edge13" class="edge"><title>cluster_cluster_cluster_&#45;22021212490198297067535849388317330700&#45;835402781319146249577532400&#45;&gt;cluster_cluster_cluster_&#45;22021212490198297067535849388317330700&#45;8354027813191462495&#45;3431188338771875485</title>
<path fill="none" stroke="black" d="M154.333,-571.819C154.333,-571.819 154.333,-225.154 154.333,-225.154"/>
<polygon fill="black" stroke="black" points="157.833,-225.154 154.333,-215.154 150.833,-225.154 157.833,-225.154"/>
<polygon fill="none" stroke="black" points="154.833,-397.986 154.833,-418.986 204.833,-418.986 204.833,-397.986 154.833,-397.986"/>
<text text-anchor="start" x="157.833" y="-404.786" font-family="Times New Roman,serif" font-size="14.00">inp_id=</text>
<polygon fill="none" stroke="black" points="204.833,-397.986 204.833,-418.986 217.833,-418.986 217.833,-397.986 204.833,-397.986"/>
<text text-anchor="start" x="207.833" y="-404.786" font-family="Times New Roman,serif" font-size="14.00">0</text>
</g>
<!-- cluster_cluster_cluster_&#45;22021212490198297067535849388317330700&#45;83540278131914624954712647501736754553 -->
<g id="node15" class="node"><title>cluster_cluster_cluster_&#45;22021212490198297067535849388317330700&#45;83540278131914624954712647501736754553</title>
<g id="a_node15"><a xlink:title="A sequence of data.">
<path fill="cyan" stroke="black" d="M458,-516.5C458,-516.5 422,-516.5 422,-516.5 416,-516.5 410,-510.5 410,-504.5 410,-504.5 410,-492.5 410,-492.5 410,-486.5 416,-480.5 422,-480.5 422,-480.5 458,-480.5 458,-480.5 464,-480.5 470,-486.5 470,-492.5 470,-492.5 470,-504.5 470,-504.5 470,-510.5 464,-516.5 458,-516.5"/>
<text text-anchor="start" x="420.5" y="-494.3" font-family="Times New Roman,serif" font-size="14.00">wltp_h</text>
</a>
</g>
</g>
<!-- cluster_cluster_cluster_&#45;22021212490198297067535849388317330700&#45;835402781319146249577532400&#45;&gt;cluster_cluster_cluster_&#45;22021212490198297067535849388317330700&#45;83540278131914624954712647501736754553 -->
<g id="edge14" class="edge"><title>cluster_cluster_cluster_&#45;22021212490198297067535849388317330700&#45;835402781319146249577532400&#45;&gt;cluster_cluster_cluster_&#45;22021212490198297067535849388317330700&#45;83540278131914624954712647501736754553</title>
<path fill="none" stroke="black" d="M169.167,-573.4C169.167,-561.661 169.167,-548 169.167,-548 169.167,-548 440,-548 440,-548 440,-548 440,-526.651 440,-526.651"/>
<polygon fill="black" stroke="black" points="443.5,-526.651 440,-516.651 436.5,-526.651 443.5,-526.651"/>
<polygon fill="none" stroke="black" points="303.058,-547.5 303.058,-568.5 353.058,-568.5 353.058,-547.5 303.058,-547.5"/>
<text text-anchor="start" x="306.058" y="-554.3" font-family="Times New Roman,serif" font-size="14.00">inp_id=</text>
<polygon fill="none" stroke="black" points="353.058,-547.5 353.058,-568.5 366.058,-568.5 366.058,-547.5 353.058,-547.5"/>
<text text-anchor="start" x="356.058" y="-554.3" font-family="Times New Roman,serif" font-size="14.00">1</text>
</g>
<!-- cluster_cluster_cluster_&#45;22021212490198297067535849388317330700&#45;8354027813191462495&#45;4779657526738643707 -->
<g id="node16" class="node"><title>cluster_cluster_cluster_&#45;22021212490198297067535849388317330700&#45;8354027813191462495&#45;4779657526738643707</title>
<g id="a_node16"><a xlink:title="A sequence of data.">
<path fill="cyan" stroke="black" d="M112,-431C112,-431 80,-431 80,-431 74,-431 68,-425 68,-419 68,-419 68,-407 68,-407 68,-401 74,-395 80,-395 80,-395 112,-395 112,-395 118,-395 124,-401 124,-407 124,-407 124,-419 124,-419 124,-425 118,-431 112,-431"/>
<text text-anchor="start" x="78.5" y="-408.8" font-family="Times New Roman,serif" font-size="14.00">wltp_l</text>
</a>
</g>
</g>
<!-- cluster_cluster_cluster_&#45;22021212490198297067535849388317330700&#45;835402781319146249577532400&#45;&gt;cluster_cluster_cluster_&#45;22021212490198297067535849388317330700&#45;8354027813191462495&#45;4779657526738643707 -->
<g id="edge15" class="edge"><title>cluster_cluster_cluster_&#45;22021212490198297067535849388317330700&#45;835402781319146249577532400&#45;&gt;cluster_cluster_cluster_&#45;22021212490198297067535849388317330700&#45;8354027813191462495&#45;4779657526738643707</title>
<path fill="none" stroke="black" d="M133.75,-576.696C133.75,-535.533 133.75,-413 133.75,-413 133.75,-413 132.797,-413 132.797,-413"/>
<polygon fill="black" stroke="black" points="134.224,-409.5 124.224,-413 134.224,-416.5 134.224,-409.5"/>
<polygon fill="none" stroke="black" points="71.25,-493.872 71.25,-514.872 121.25,-514.872 121.25,-493.872 71.25,-493.872"/>
<text text-anchor="start" x="74.25" y="-500.672" font-family="Times New Roman,serif" font-size="14.00">inp_id=</text>
<polygon fill="none" stroke="black" points="121.25,-493.872 121.25,-514.872 134.25,-514.872 134.25,-493.872 121.25,-493.872"/>
<text text-anchor="start" x="124.25" y="-500.672" font-family="Times New Roman,serif" font-size="14.00">2</text>
</g>
<!-- cluster_cluster_cluster_&#45;22021212490198297067535849388317330700&#45;8354027813191462495&#45;2181095411792409824 -->
<g id="node2" class="node"><title>cluster_cluster_cluster_&#45;22021212490198297067535849388317330700&#45;8354027813191462495&#45;2181095411792409824</title>
<g id="a_node2"><a xlink:title="A sequence of data.">
<path fill="cyan" stroke="black" d="M342,-359C342,-359 242,-359 242,-359 236,-359 230,-353 230,-347 230,-347 230,-335 230,-335 230,-329 236,-323 242,-323 242,-323 342,-323 342,-323 348,-323 354,-329 354,-335 354,-335 354,-347 354,-347 354,-353 348,-359 342,-359"/>
<text text-anchor="start" x="240.5" y="-336.8" font-family="Times New Roman,serif" font-size="14.00">calibrated_models</text>
</a>
</g>
</g>
<!-- cluster_cluster_cluster_&#45;22021212490198297067535849388317330700&#45;8354027813191462495&#45;7067757294929678007 -->
<g id="node3" class="node"><title>cluster_cluster_cluster_&#45;22021212490198297067535849388317330700&#45;8354027813191462495&#45;7067757294929678007</title>
<g id="a_node3"><a xlink:href="./../alternator_model_selector/AM-wltp_h_errors/co2mpas.dispatcher.utils.dspmap_list.txt" xlink:title="Returns a new dict.">
<polygon fill="springgreen" stroke="black" points="334,-287 266,-287 266,-251 334,-251 334,-287"/>
<text text-anchor="start" x="276" y="-264.8" font-family="Times New Roman,serif" font-size="14.00">map_list</text>
</a>
</g>
</g>
<!-- cluster_cluster_cluster_&#45;22021212490198297067535849388317330700&#45;8354027813191462495&#45;2181095411792409824&#45;&gt;cluster_cluster_cluster_&#45;22021212490198297067535849388317330700&#45;8354027813191462495&#45;7067757294929678007 -->
<g id="edge1" class="edge"><title>cluster_cluster_cluster_&#45;22021212490198297067535849388317330700&#45;8354027813191462495&#45;2181095411792409824&#45;&gt;cluster_cluster_cluster_&#45;22021212490198297067535849388317330700&#45;8354027813191462495&#45;7067757294929678007</title>
<path fill="none" stroke="black" d="M300,-322.831C300,-322.831 300,-297.413 300,-297.413"/>
<polygon fill="black" stroke="black" points="303.5,-297.413 300,-287.413 296.5,-297.413 303.5,-297.413"/>
</g>
<!-- cluster_cluster_cluster_&#45;22021212490198297067535849388317330700&#45;83540278131914624954298277636058170859 -->
<g id="node4" class="node"><title>cluster_cluster_cluster_&#45;22021212490198297067535849388317330700&#45;83540278131914624954298277636058170859</title>
<g id="a_node4"><a xlink:href="./../alternator_model_selector/AM-wltp_h_errors/co2mpas.dispatcher.utils.dspmap_list.txt" xlink:title="Returns a new dict.">
<polygon fill="springgreen" stroke="black" points="128,-287 36,-287 36,-251 128,-251 128,-287"/>
<text text-anchor="start" x="46.5" y="-264.8" font-family="Times New Roman,serif" font-size="14.00">map_list&lt;0&gt;</text>
</a>
</g>
</g>
<!-- cluster_cluster_cluster_&#45;22021212490198297067535849388317330700&#45;8354027813191462495&#45;2181095411792409824&#45;&gt;cluster_cluster_cluster_&#45;22021212490198297067535849388317330700&#45;83540278131914624954298277636058170859 -->
<g id="edge2" class="edge"><title>cluster_cluster_cluster_&#45;22021212490198297067535849388317330700&#45;8354027813191462495&#45;2181095411792409824&#45;&gt;cluster_cluster_cluster_&#45;22021212490198297067535849388317330700&#45;83540278131914624954298277636058170859</title>
<path fill="none" stroke="black" d="M245.75,-322.831C245.75,-301.502 245.75,-269 245.75,-269 245.75,-269 138.049,-269 138.049,-269"/>
<polygon fill="black" stroke="black" points="138.049,-265.5 128.049,-269 138.049,-272.5 138.049,-265.5"/>
</g>
<!-- cluster_cluster_cluster_&#45;22021212490198297067535849388317330700&#45;83540278131914624957702748476113788344 -->
<g id="node11" class="node"><title>cluster_cluster_cluster_&#45;22021212490198297067535849388317330700&#45;83540278131914624957702748476113788344</title>
<g id="a_node11"><a xlink:title="A unique dict with new values.">
<path fill="cyan" stroke="black" d="M333,-209C333,-209 267,-209 267,-209 261,-209 255,-203 255,-197 255,-197 255,-185 255,-185 255,-179 261,-173 267,-173 267,-173 333,-173 333,-173 339,-173 345,-179 345,-185 345,-185 345,-197 345,-197 345,-203 339,-209 333,-209"/>
<text text-anchor="start" x="265" y="-186.8" font-family="Times New Roman,serif" font-size="14.00">input/wltp_h</text>
</a>
</g>
</g>
<!-- cluster_cluster_cluster_&#45;22021212490198297067535849388317330700&#45;8354027813191462495&#45;7067757294929678007&#45;&gt;cluster_cluster_cluster_&#45;22021212490198297067535849388317330700&#45;83540278131914624957702748476113788344 -->
<g id="edge3" class="edge"><title>cluster_cluster_cluster_&#45;22021212490198297067535849388317330700&#45;8354027813191462495&#45;7067757294929678007&#45;&gt;cluster_cluster_cluster_&#45;22021212490198297067535849388317330700&#45;83540278131914624957702748476113788344</title>
<path fill="none" stroke="black" d="M300,-250.909C300,-250.909 300,-219.263 300,-219.263"/>
<polygon fill="black" stroke="black" points="303.5,-219.263 300,-209.263 296.5,-219.263 303.5,-219.263"/>
</g>
<!-- cluster_cluster_cluster_&#45;22021212490198297067535849388317330700&#45;83540278131914624954919105944985796052 -->
<g id="node12" class="node"><title>cluster_cluster_cluster_&#45;22021212490198297067535849388317330700&#45;83540278131914624954919105944985796052</title>
<g id="a_node12"><a xlink:title="A unique dict with new values.">
<path fill="cyan" stroke="black" d="M109,-209C109,-209 45,-209 45,-209 39,-209 33,-203 33,-197 33,-197 33,-185 33,-185 33,-179 39,-173 45,-173 45,-173 109,-173 109,-173 115,-173 121,-179 121,-185 121,-185 121,-197 121,-197 121,-203 115,-209 109,-209"/>
<text text-anchor="start" x="43.5" y="-186.8" font-family="Times New Roman,serif" font-size="14.00">input/wltp_l</text>
</a>
</g>
</g>
<!-- cluster_cluster_cluster_&#45;22021212490198297067535849388317330700&#45;83540278131914624954298277636058170859&#45;&gt;cluster_cluster_cluster_&#45;22021212490198297067535849388317330700&#45;83540278131914624954919105944985796052 -->
<g id="edge4" class="edge"><title>cluster_cluster_cluster_&#45;22021212490198297067535849388317330700&#45;83540278131914624954298277636058170859&#45;&gt;cluster_cluster_cluster_&#45;22021212490198297067535849388317330700&#45;83540278131914624954919105944985796052</title>
<path fill="none" stroke="black" d="M78.5,-250.909C78.5,-250.909 78.5,-219.263 78.5,-219.263"/>
<polygon fill="black" stroke="black" points="82.0001,-219.263 78.5,-209.263 75.0001,-219.263 82.0001,-219.263"/>
</g>
<!-- cluster_cluster_cluster_&#45;22021212490198297067535849388317330700&#45;8354027813191462495&#45;8286002170476467313 -->
<g id="node5" class="node"><title>cluster_cluster_cluster_&#45;22021212490198297067535849388317330700&#45;8354027813191462495&#45;8286002170476467313</title>
<g id="a_node5"><a xlink:href="./SSM-wltp_h_errors/SSM-wltp_h_error_vs_wltp_h.gv.svg" xlink:title="Calculates the error of calibrated model of a reference.">
<polygon fill="yellow" stroke="black" points="378,-131 202,-131 202,-95 384,-95 384,-125 378,-131"/>
<polyline fill="none" stroke="black" points="378,-131 378,-125 "/>
<polyline fill="none" stroke="black" points="384,-125 378,-125 "/>
<text text-anchor="start" x="212.5" y="-108.8" font-family="Times New Roman,serif" font-size="14.00">SSM&#45;wltp_h error vs wltp_h</text>
</a>
</g>
</g>
<!-- cluster_cluster_cluster_&#45;22021212490198297067535849388317330700&#45;8354027813191462495&#45;2427563387242055365 -->
<g id="node8" class="node"><title>cluster_cluster_cluster_&#45;22021212490198297067535849388317330700&#45;8354027813191462495&#45;2427563387242055365</title>
<g id="a_node8"><a xlink:title="error/wltp_h">
<path fill="cyan" stroke="black" d="M326,-59C326,-59 260,-59 260,-59 254,-59 248,-53 248,-47 248,-47 248,-35 248,-35 248,-29 254,-23 260,-23 260,-23 326,-23 326,-23 332,-23 338,-29 338,-35 338,-35 338,-47 338,-47 338,-53 332,-59 326,-59"/>
<text text-anchor="start" x="258" y="-36.8" font-family="Times New Roman,serif" font-size="14.00">error/wltp_h</text>
</a>
</g>
</g>
<!-- cluster_cluster_cluster_&#45;22021212490198297067535849388317330700&#45;8354027813191462495&#45;8286002170476467313&#45;&gt;cluster_cluster_cluster_&#45;22021212490198297067535849388317330700&#45;8354027813191462495&#45;2427563387242055365 -->
<g id="edge5" class="edge"><title>cluster_cluster_cluster_&#45;22021212490198297067535849388317330700&#45;8354027813191462495&#45;8286002170476467313&#45;&gt;cluster_cluster_cluster_&#45;22021212490198297067535849388317330700&#45;8354027813191462495&#45;2427563387242055365</title>
<path fill="none" stroke="black" d="M293,-94.8314C293,-94.8314 293,-69.4133 293,-69.4133"/>
<polygon fill="black" stroke="black" points="296.5,-69.4132 293,-59.4133 289.5,-69.4133 296.5,-69.4132"/>
</g>
<!-- cluster_cluster_cluster_&#45;22021212490198297067535849388317330700&#45;83540278131914624952254186974604884795 -->
<g id="node6" class="node"><title>cluster_cluster_cluster_&#45;22021212490198297067535849388317330700&#45;83540278131914624952254186974604884795</title>
<g id="a_node6"><a xlink:href="./SSM-wltp_h_errors/SSM-wltp_h_error_vs_wltp_l.gv.svg" xlink:title="Calculates the error of calibrated model of a reference.">
<polygon fill="yellow" stroke="black" points="172,-131 0,-131 0,-95 178,-95 178,-125 172,-131"/>
<polyline fill="none" stroke="black" points="172,-131 172,-125 "/>
<polyline fill="none" stroke="black" points="178,-125 172,-125 "/>
<text text-anchor="start" x="10.5" y="-108.8" font-family="Times New Roman,serif" font-size="14.00">SSM&#45;wltp_h error vs wltp_l</text>
</a>
</g>
</g>
<!-- cluster_cluster_cluster_&#45;22021212490198297067535849388317330700&#45;8354027813191462495&#45;7302022848986384642 -->
<g id="node9" class="node"><title>cluster_cluster_cluster_&#45;22021212490198297067535849388317330700&#45;8354027813191462495&#45;7302022848986384642</title>
<g id="a_node9"><a xlink:title="error/wltp_l">
<path fill="cyan" stroke="black" d="M120,-59C120,-59 58,-59 58,-59 52,-59 46,-53 46,-47 46,-47 46,-35 46,-35 46,-29 52,-23 58,-23 58,-23 120,-23 120,-23 126,-23 132,-29 132,-35 132,-35 132,-47 132,-47 132,-53 126,-59 120,-59"/>
<text text-anchor="start" x="56" y="-36.8" font-family="Times New Roman,serif" font-size="14.00">error/wltp_l</text>
</a>
</g>
</g>
<!-- cluster_cluster_cluster_&#45;22021212490198297067535849388317330700&#45;83540278131914624952254186974604884795&#45;&gt;cluster_cluster_cluster_&#45;22021212490198297067535849388317330700&#45;8354027813191462495&#45;7302022848986384642 -->
<g id="edge6" class="edge"><title>cluster_cluster_cluster_&#45;22021212490198297067535849388317330700&#45;83540278131914624952254186974604884795&#45;&gt;cluster_cluster_cluster_&#45;22021212490198297067535849388317330700&#45;8354027813191462495&#45;7302022848986384642</title>
<path fill="none" stroke="black" d="M89,-94.8314C89,-94.8314 89,-69.4133 89,-69.4133"/>
<polygon fill="black" stroke="black" points="92.5001,-69.4132 89,-59.4133 85.5001,-69.4133 92.5001,-69.4132"/>
</g>
<!-- cluster_cluster_cluster_&#45;22021212490198297067535849388317330700&#45;8354027813191462495&#45;1177382896934224609 -->
<g id="node7" class="node"><title>cluster_cluster_cluster_&#45;22021212490198297067535849388317330700&#45;8354027813191462495&#45;1177382896934224609</title>
<g id="a_node7"><a xlink:title="data_in">
<path fill="cyan" stroke="black" d="M303.5,-614C303.5,-614 214.5,-614 214.5,-614 208.5,-614 202.5,-608 202.5,-602 202.5,-602 202.5,-578 202.5,-578 202.5,-572 208.5,-566 214.5,-566 214.5,-566 303.5,-566 303.5,-566 309.5,-566 315.5,-572 315.5,-578 315.5,-578 315.5,-602 315.5,-602 315.5,-608 309.5,-614 303.5,-614"/>
<text text-anchor="start" x="239" y="-596.8" font-family="Times New Roman,serif" font-size="14.00">data_in</text>
<polygon fill="none" stroke="black" points="211,-570 211,-591 263,-591 263,-570 211,-570"/>
<text text-anchor="start" x="214" y="-576.8" font-family="Times New Roman,serif" font-size="14.00">default=</text>
<polygon fill="none" stroke="black" points="263,-570 263,-591 308,-591 308,-570 263,-570"/>
<text text-anchor="start" x="266" y="-576.8" font-family="Times New Roman,serif" font-size="14.00">wltp_h</text>
</a>
</g>
</g>
<!-- cluster_cluster_cluster_&#45;22021212490198297067535849388317330700&#45;8354027813191462495&#45;3431188338771875485&#45;&gt;cluster_cluster_cluster_&#45;22021212490198297067535849388317330700&#45;8354027813191462495&#45;8286002170476467313 -->
<g id="edge7" class="edge"><title>cluster_cluster_cluster_&#45;22021212490198297067535849388317330700&#45;8354027813191462495&#45;3431188338771875485&#45;&gt;cluster_cluster_cluster_&#45;22021212490198297067535849388317330700&#45;8354027813191462495&#45;8286002170476467313</title>
<path fill="none" stroke="black" d="M219.25,-166.748C219.25,-166.748 219.25,-141.288 219.25,-141.288"/>
<polygon fill="black" stroke="black" points="222.75,-141.287 219.25,-131.288 215.75,-141.288 222.75,-141.287"/>
</g>
<!-- cluster_cluster_cluster_&#45;22021212490198297067535849388317330700&#45;8354027813191462495&#45;3431188338771875485&#45;&gt;cluster_cluster_cluster_&#45;22021212490198297067535849388317330700&#45;83540278131914624952254186974604884795 -->
<g id="edge8" class="edge"><title>cluster_cluster_cluster_&#45;22021212490198297067535849388317330700&#45;8354027813191462495&#45;3431188338771875485&#45;&gt;cluster_cluster_cluster_&#45;22021212490198297067535849388317330700&#45;83540278131914624952254186974604884795</title>
<path fill="none" stroke="black" d="M158.75,-166.748C158.75,-166.748 158.75,-141.288 158.75,-141.288"/>
<polygon fill="black" stroke="black" points="162.25,-141.287 158.75,-131.288 155.25,-141.288 162.25,-141.287"/>
</g>
<!-- cluster_cluster_cluster_&#45;22021212490198297067535849388317330700&#45;83540278131914624957702748476113788344&#45;&gt;cluster_cluster_cluster_&#45;22021212490198297067535849388317330700&#45;8354027813191462495&#45;8286002170476467313 -->
<g id="edge9" class="edge"><title>cluster_cluster_cluster_&#45;22021212490198297067535849388317330700&#45;83540278131914624957702748476113788344&#45;&gt;cluster_cluster_cluster_&#45;22021212490198297067535849388317330700&#45;8354027813191462495&#45;8286002170476467313</title>
<path fill="none" stroke="black" d="M300,-172.909C300,-172.909 300,-141.263 300,-141.263"/>
<polygon fill="black" stroke="black" points="303.5,-141.263 300,-131.263 296.5,-141.263 303.5,-141.263"/>
</g>
<!-- cluster_cluster_cluster_&#45;22021212490198297067535849388317330700&#45;83540278131914624954919105944985796052&#45;&gt;cluster_cluster_cluster_&#45;22021212490198297067535849388317330700&#45;83540278131914624952254186974604884795 -->
<g id="edge10" class="edge"><title>cluster_cluster_cluster_&#45;22021212490198297067535849388317330700&#45;83540278131914624954919105944985796052&#45;&gt;cluster_cluster_cluster_&#45;22021212490198297067535849388317330700&#45;83540278131914624952254186974604884795</title>
<path fill="none" stroke="black" d="M77,-172.909C77,-172.909 77,-141.263 77,-141.263"/>
<polygon fill="black" stroke="black" points="80.5001,-141.263 77,-131.263 73.5001,-141.263 80.5001,-141.263"/>
</g>
<!-- cluster_cluster_cluster_&#45;22021212490198297067535849388317330700&#45;8354027813191462495&#45;3274255707223734200 -->
<g id="node13" class="node"><title>cluster_cluster_cluster_&#45;22021212490198297067535849388317330700&#45;8354027813191462495&#45;3274255707223734200</title>
<g id="a_node13"><a xlink:title="Keys to select.">
<path fill="cyan" stroke="black" d="M380,-530C380,-530 196,-530 196,-530 190,-530 184,-524 184,-518 184,-518 184,-479 184,-479 184,-473 190,-467 196,-467 196,-467 380,-467 380,-467 386,-467 392,-473 392,-479 392,-479 392,-518 392,-518 392,-524 386,-530 380,-530"/>
<text text-anchor="start" x="267.5" y="-512.3" font-family="Times New Roman,serif" font-size="14.00">models</text>
<polygon fill="none" stroke="black" points="192,-470.5 192,-506.5 244,-506.5 244,-470.5 192,-470.5"/>
<text text-anchor="start" x="195" y="-484.8" font-family="Times New Roman,serif" font-size="14.00">default=</text>
<polygon fill="none" stroke="black" points="244,-470.5 244,-506.5 384,-506.5 384,-470.5 244,-470.5"/>
<text text-anchor="start" x="257.5" y="-492.3" font-family="Times New Roman,serif" font-size="14.00">[&#39;start_stop_model&#39;,</text>
<text text-anchor="start" x="247" y="-477.3" font-family="Times New Roman,serif" font-size="14.00"> &#39;use_basic_start_stop&#39;]</text>
</a>
</g>
</g>
<!-- cluster_cluster_cluster_&#45;22021212490198297067535849388317330700&#45;8354027813191462495&#45;8800720961443810657 -->
<g id="node14" class="node"><title>cluster_cluster_cluster_&#45;22021212490198297067535849388317330700&#45;8354027813191462495&#45;8800720961443810657</title>
<g id="a_node14"><a xlink:href="./../alternator_model_selector/AM-wltp_h_errors/AM-wltp_h_error_vs_wltp_h/select_inputs0.txt" xlink:title="Selects the chosen dictionary keys from the given dictionary.">
<polygon fill="springgreen" stroke="black" points="342,-431 242,-431 242,-395 342,-395 342,-431"/>
<text text-anchor="start" x="252" y="-408.8" font-family="Times New Roman,serif" font-size="14.00">select_models</text>
</a>
</g>
</g>
<!-- cluster_cluster_cluster_&#45;22021212490198297067535849388317330700&#45;8354027813191462495&#45;3274255707223734200&#45;&gt;cluster_cluster_cluster_&#45;22021212490198297067535849388317330700&#45;8354027813191462495&#45;8800720961443810657 -->
<g id="edge11" class="edge"><title>cluster_cluster_cluster_&#45;22021212490198297067535849388317330700&#45;8354027813191462495&#45;3274255707223734200&#45;&gt;cluster_cluster_cluster_&#45;22021212490198297067535849388317330700&#45;8354027813191462495&#45;8800720961443810657</title>
<path fill="none" stroke="black" d="M292,-466.663C292,-466.663 292,-441.204 292,-441.204"/>
<polygon fill="black" stroke="black" points="295.5,-441.204 292,-431.204 288.5,-441.204 295.5,-441.204"/>
</g>
<!-- cluster_cluster_cluster_&#45;22021212490198297067535849388317330700&#45;8354027813191462495&#45;8800720961443810657&#45;&gt;cluster_cluster_cluster_&#45;22021212490198297067535849388317330700&#45;8354027813191462495&#45;2181095411792409824 -->
<g id="edge12" class="edge"><title>cluster_cluster_cluster_&#45;22021212490198297067535849388317330700&#45;8354027813191462495&#45;8800720961443810657&#45;&gt;cluster_cluster_cluster_&#45;22021212490198297067535849388317330700&#45;8354027813191462495&#45;2181095411792409824</title>
<path fill="none" stroke="black" d="M292,-394.831C292,-394.831 292,-369.413 292,-369.413"/>
<polygon fill="black" stroke="black" points="295.5,-369.413 292,-359.413 288.5,-369.413 295.5,-369.413"/>
</g>
<!-- cluster_cluster_cluster_&#45;22021212490198297067535849388317330700&#45;83540278131914624954712647501736754553&#45;&gt;cluster_cluster_cluster_&#45;22021212490198297067535849388317330700&#45;8354027813191462495&#45;7067757294929678007 -->
<g id="edge16" class="edge"><title>cluster_cluster_cluster_&#45;22021212490198297067535849388317330700&#45;83540278131914624954712647501736754553&#45;&gt;cluster_cluster_cluster_&#45;22021212490198297067535849388317330700&#45;8354027813191462495&#45;7067757294929678007</title>
<path fill="none" stroke="black" d="M450,-480.492C450,-426.389 450,-269 450,-269 450,-269 344.037,-269 344.037,-269"/>
<polygon fill="black" stroke="black" points="344.037,-265.5 334.037,-269 344.037,-272.5 344.037,-265.5"/>
</g>
<!-- cluster_cluster_cluster_&#45;22021212490198297067535849388317330700&#45;83540278131914624954712647501736754553&#45;&gt;cluster_cluster_cluster_&#45;22021212490198297067535849388317330700&#45;8354027813191462495&#45;8800720961443810657 -->
<g id="edge17" class="edge"><title>cluster_cluster_cluster_&#45;22021212490198297067535849388317330700&#45;83540278131914624954712647501736754553&#45;&gt;cluster_cluster_cluster_&#45;22021212490198297067535849388317330700&#45;8354027813191462495&#45;8800720961443810657</title>
<path fill="none" stroke="black" d="M430,-480.368C430,-455.27 430,-413 430,-413 430,-413 352.212,-413 352.212,-413"/>
<polygon fill="black" stroke="black" points="352.212,-409.5 342.212,-413 352.212,-416.5 352.212,-409.5"/>
</g>
<!-- cluster_cluster_cluster_&#45;22021212490198297067535849388317330700&#45;8354027813191462495&#45;4779657526738643707&#45;&gt;cluster_cluster_cluster_&#45;22021212490198297067535849388317330700&#45;83540278131914624954298277636058170859 -->
<g id="edge18" class="edge"><title>cluster_cluster_cluster_&#45;22021212490198297067535849388317330700&#45;8354027813191462495&#45;4779657526738643707&#45;&gt;cluster_cluster_cluster_&#45;22021212490198297067535849388317330700&#45;83540278131914624954298277636058170859</title>
<path fill="none" stroke="black" d="M96,-394.762C96,-394.762 96,-297.09 96,-297.09"/>
<polygon fill="black" stroke="black" points="99.5001,-297.09 96,-287.09 92.5001,-297.09 99.5001,-297.09"/>
</g>
</g>
</svg>
