<?xml version="1.0" encoding="UTF-8" standalone="no"?>
<!DOCTYPE svg PUBLIC "-//W3C//DTD SVG 1.1//EN"
 "http://www.w3.org/Graphics/SVG/1.1/DTD/svg11.dtd">
<!-- Generated by graphviz version 2.38.0 (20140413.2041)
 -->
<!-- Title: cluster_clutch_torque_converter_model selector Pages: 1 -->
<svg width="402pt" height="727pt"
 viewBox="0.00 0.00 402.00 727.00" xmlns="http://www.w3.org/2000/svg" xmlns:xlink="http://www.w3.org/1999/xlink">
<g id="graph0" class="graph" transform="scale(1 1) rotate(0) translate(4 723)">
<title>cluster_clutch_torque_converter_model selector</title>
<polygon fill="white" stroke="none" points="-4,4 -4,-723 398,-723 398,4 -4,4"/>
<text text-anchor="start" x="83.5" y="-7.8" font-family="Times New Roman,serif" font-size="14.00">clutch_torque_converter_model selector</text>
<!-- cluster_cluster_&#45;2202121249019829706&#45;446415844823700992477532760 -->
<g id="node1" class="node"><title>cluster_cluster_&#45;2202121249019829706&#45;446415844823700992477532760</title>
<g id="a_node1"><a xlink:title="end">
<polygon fill="blue" stroke="black" points="145.683,-23.0493 147.459,-23.1479 149.216,-23.2953 150.948,-23.4913 152.648,-23.7353 154.308,-24.0266 155.923,-24.3645 157.485,-24.7479 158.989,-25.1759 160.429,-25.6472 161.8,-26.1606 163.098,-26.7147 164.317,-27.308 165.455,-27.9388 166.507,-28.6054 167.472,-29.3059 168.346,-30.0385 169.127,-30.8012 169.815,-31.5918 170.408,-32.4082 170.906,-33.2481 171.309,-34.1093 171.617,-34.9894 171.832,-35.886 171.956,-36.7965 171.989,-37.7186 171.934,-38.6497 171.794,-39.5873 171.571,-40.5287 171.269,-41.4713 170.89,-42.4127 170.439,-43.3503 169.918,-44.2814 169.332,-45.2035 168.685,-46.114 167.981,-47.0106 167.223,-47.8907 166.415,-48.7519 165.561,-49.5918 164.666,-50.4082 163.732,-51.1988 162.764,-51.9615 161.764,-52.6941 160.737,-53.3946 159.684,-54.0612 158.61,-54.692 157.516,-55.2853 156.405,-55.8394 155.28,-56.3528 154.142,-56.8241 152.994,-57.2521 151.837,-57.6355 150.672,-57.9734 149.501,-58.2647 148.325,-58.5087 147.145,-58.7047 145.963,-58.8521 144.779,-58.9507 143.593,-59 142.407,-59 141.221,-58.9507 140.037,-58.8521 138.855,-58.7047 137.675,-58.5087 136.499,-58.2647 135.328,-57.9734 134.163,-57.6355 133.006,-57.2521 131.858,-56.8241 130.72,-56.3528 129.595,-55.8394 128.484,-55.2853 127.39,-54.692 126.316,-54.0612 125.263,-53.3946 124.236,-52.6941 123.236,-51.9615 122.268,-51.1988 121.334,-50.4082 120.439,-49.5918 119.585,-48.7519 118.777,-47.8907 118.019,-47.0106 117.315,-46.114 116.668,-45.2035 116.082,-44.2814 115.561,-43.3503 115.11,-42.4127 114.731,-41.4713 114.429,-40.5287 114.206,-39.5873 114.066,-38.6497 114.011,-37.7186 114.044,-36.7965 114.168,-35.886 114.383,-34.9894 114.691,-34.1093 115.094,-33.2481 115.592,-32.4082 116.185,-31.5918 116.873,-30.8012 117.654,-30.0385 118.528,-29.3059 119.493,-28.6054 120.545,-27.9388 121.683,-27.308 122.902,-26.7147 124.2,-26.1606 125.571,-25.6472 127.011,-25.1759 128.515,-24.7479 130.077,-24.3645 131.692,-24.0266 133.352,-23.7353 135.052,-23.4913 136.784,-23.2953 138.541,-23.1479 140.317,-23.0493 142.105,-23 143.895,-23 145.683,-23.0493"/>
<text text-anchor="middle" x="143" y="-37.3" font-family="Times New Roman,serif" font-size="14.00">end</text>
</a>
</g>
</g>
<!-- cluster_cluster_&#45;2202121249019829706&#45;44641584482370099249023193397416603680 -->
<g id="node2" class="node"><title>cluster_cluster_&#45;2202121249019829706&#45;44641584482370099249023193397416603680</title>
<g id="a_node2"><a xlink:title="best_model_settings">
<path fill="cyan" stroke="black" d="M124,-347C124,-347 12,-347 12,-347 6,-347 0,-341 0,-335 0,-335 0,-323 0,-323 0,-317 6,-311 12,-311 12,-311 124,-311 124,-311 130,-311 136,-317 136,-323 136,-323 136,-335 136,-335 136,-341 130,-347 124,-347"/>
<text text-anchor="start" x="10.5" y="-324.8" font-family="Times New Roman,serif" font-size="14.00">best_model_settings</text>
</a>
</g>
</g>
<!-- cluster_cluster_&#45;2202121249019829706&#45;4464158448237009924&#45;1584516978969530774 -->
<g id="node10" class="node"><title>cluster_cluster_&#45;2202121249019829706&#45;4464158448237009924&#45;1584516978969530774</title>
<g id="a_node10"><a xlink:href="./alternator_model_selector/get_best_model.txt" xlink:title="get_best_model">
<polygon fill="springgreen" stroke="black" points="198,-203 88,-203 88,-167 198,-167 198,-203"/>
<text text-anchor="start" x="98" y="-180.8" font-family="Times New Roman,serif" font-size="14.00">get_best_model</text>
</a>
</g>
</g>
<!-- cluster_cluster_&#45;2202121249019829706&#45;44641584482370099249023193397416603680&#45;&gt;cluster_cluster_&#45;2202121249019829706&#45;4464158448237009924&#45;1584516978969530774 -->
<g id="edge1" class="edge"><title>cluster_cluster_&#45;2202121249019829706&#45;44641584482370099249023193397416603680&#45;&gt;cluster_cluster_&#45;2202121249019829706&#45;4464158448237009924&#45;1584516978969530774</title>
<path fill="none" stroke="black" d="M112,-310.762C112,-310.762 112,-213.09 112,-213.09"/>
<polygon fill="black" stroke="black" points="115.5,-213.09 112,-203.09 108.5,-213.09 115.5,-213.09"/>
</g>
<!-- cluster_cluster_&#45;2202121249019829706&#45;44641584482370099243912149189942704534 -->
<g id="node3" class="node"><title>cluster_cluster_&#45;2202121249019829706&#45;44641584482370099243912149189942704534</title>
<g id="a_node3"><a xlink:href="./clutch_torque_converter_model_selector/CTCM-wltp_h_errors.gv.svg" xlink:title="Calculates the error of calibrated model.">
<polygon fill="yellowgreen" stroke="black" points="232,-491 96,-491 96,-455 238,-455 238,-485 232,-491"/>
<polyline fill="none" stroke="black" points="232,-491 232,-485 "/>
<polyline fill="none" stroke="black" points="238,-485 232,-485 "/>
<text text-anchor="start" x="106.5" y="-468.8" font-family="Times New Roman,serif" font-size="14.00">CTCM&#45;wltp_h errors</text>
</a>
</g>
</g>
<!-- cluster_cluster_&#45;2202121249019829706&#45;4464158448237009924&#45;2427563387242055365 -->
<g id="node6" class="node"><title>cluster_cluster_&#45;2202121249019829706&#45;4464158448237009924&#45;2427563387242055365</title>
<g id="a_node6"><a xlink:title="error/wltp_h">
<path fill="cyan" stroke="black" d="M213,-419C213,-419 147,-419 147,-419 141,-419 135,-413 135,-407 135,-407 135,-395 135,-395 135,-389 141,-383 147,-383 147,-383 213,-383 213,-383 219,-383 225,-389 225,-395 225,-395 225,-407 225,-407 225,-413 219,-419 213,-419"/>
<text text-anchor="start" x="145" y="-396.8" font-family="Times New Roman,serif" font-size="14.00">error/wltp_h</text>
</a>
</g>
</g>
<!-- cluster_cluster_&#45;2202121249019829706&#45;44641584482370099243912149189942704534&#45;&gt;cluster_cluster_&#45;2202121249019829706&#45;4464158448237009924&#45;2427563387242055365 -->
<g id="edge2" class="edge"><title>cluster_cluster_&#45;2202121249019829706&#45;44641584482370099243912149189942704534&#45;&gt;cluster_cluster_&#45;2202121249019829706&#45;4464158448237009924&#45;2427563387242055365</title>
<path fill="none" stroke="black" d="M180,-454.831C180,-454.831 180,-429.413 180,-429.413"/>
<polygon fill="black" stroke="black" points="183.5,-429.413 180,-419.413 176.5,-429.413 183.5,-429.413"/>
</g>
<!-- cluster_cluster_&#45;2202121249019829706&#45;44641584482370099242978796992350379388 -->
<g id="node4" class="node"><title>cluster_cluster_&#45;2202121249019829706&#45;44641584482370099242978796992350379388</title>
<g id="a_node4"><a xlink:href="./clutch_torque_converter_model_selector/CTCM-wltp_l_errors.gv.svg" xlink:title="Calculates the error of calibrated model.">
<polygon fill="yellowgreen" stroke="black" points="388,-491 256,-491 256,-455 394,-455 394,-485 388,-491"/>
<polyline fill="none" stroke="black" points="388,-491 388,-485 "/>
<polyline fill="none" stroke="black" points="394,-485 388,-485 "/>
<text text-anchor="start" x="266.5" y="-468.8" font-family="Times New Roman,serif" font-size="14.00">CTCM&#45;wltp_l errors</text>
</a>
</g>
</g>
<!-- cluster_cluster_&#45;2202121249019829706&#45;4464158448237009924&#45;7302022848986384642 -->
<g id="node7" class="node"><title>cluster_cluster_&#45;2202121249019829706&#45;4464158448237009924&#45;7302022848986384642</title>
<g id="a_node7"><a xlink:title="error/wltp_l">
<path fill="cyan" stroke="black" d="M343,-419C343,-419 281,-419 281,-419 275,-419 269,-413 269,-407 269,-407 269,-395 269,-395 269,-389 275,-383 281,-383 281,-383 343,-383 343,-383 349,-383 355,-389 355,-395 355,-395 355,-407 355,-407 355,-413 349,-419 343,-419"/>
<text text-anchor="start" x="279" y="-396.8" font-family="Times New Roman,serif" font-size="14.00">error/wltp_l</text>
</a>
</g>
</g>
<!-- cluster_cluster_&#45;2202121249019829706&#45;44641584482370099242978796992350379388&#45;&gt;cluster_cluster_&#45;2202121249019829706&#45;4464158448237009924&#45;7302022848986384642 -->
<g id="edge3" class="edge"><title>cluster_cluster_&#45;2202121249019829706&#45;44641584482370099242978796992350379388&#45;&gt;cluster_cluster_&#45;2202121249019829706&#45;4464158448237009924&#45;7302022848986384642</title>
<path fill="none" stroke="black" d="M312,-454.831C312,-454.831 312,-429.413 312,-429.413"/>
<polygon fill="black" stroke="black" points="315.5,-429.413 312,-419.413 308.5,-429.413 315.5,-429.413"/>
</g>
<!-- cluster_cluster_&#45;2202121249019829706&#45;4464158448237009924&#45;1155624115735331312 -->
<g id="node5" class="node"><title>cluster_cluster_&#45;2202121249019829706&#45;4464158448237009924&#45;1155624115735331312</title>
<g id="a_node5"><a xlink:href="./alternator_model_selector/co2mpas.model.selectordefine_selector_settings.txt" xlink:title="define_selector_settings">
<polygon fill="springgreen" stroke="black" points="188,-635 32,-635 32,-599 188,-599 188,-635"/>
<text text-anchor="start" x="42.5" y="-612.8" font-family="Times New Roman,serif" font-size="14.00">define_selector_settings</text>
</a>
</g>
</g>
<!-- cluster_cluster_&#45;2202121249019829706&#45;4464158448237009924&#45;1155624115735331312&#45;&gt;cluster_cluster_&#45;2202121249019829706&#45;44641584482370099249023193397416603680 -->
<g id="edge4" class="edge"><title>cluster_cluster_&#45;2202121249019829706&#45;4464158448237009924&#45;1155624115735331312&#45;&gt;cluster_cluster_&#45;2202121249019829706&#45;44641584482370099249023193397416603680</title>
<path fill="none" stroke="black" d="M64,-598.984C64,-598.984 64,-357.009 64,-357.009"/>
<polygon fill="black" stroke="black" points="67.5001,-357.009 64,-347.009 60.5001,-357.009 67.5001,-357.009"/>
</g>
<!-- cluster_cluster_&#45;2202121249019829706&#45;4464158448237009924&#45;3431188338771875485 -->
<g id="node8" class="node"><title>cluster_cluster_&#45;2202121249019829706&#45;4464158448237009924&#45;3431188338771875485</title>
<g id="a_node8"><a xlink:title="error_settings">
<path fill="cyan" stroke="black" d="M189,-563C189,-563 115,-563 115,-563 109,-563 103,-557 103,-551 103,-551 103,-539 103,-539 103,-533 109,-527 115,-527 115,-527 189,-527 189,-527 195,-527 201,-533 201,-539 201,-539 201,-551 201,-551 201,-557 195,-563 189,-563"/>
<text text-anchor="start" x="113.5" y="-540.8" font-family="Times New Roman,serif" font-size="14.00">error_settings</text>
</a>
</g>
</g>
<!-- cluster_cluster_&#45;2202121249019829706&#45;4464158448237009924&#45;1155624115735331312&#45;&gt;cluster_cluster_&#45;2202121249019829706&#45;4464158448237009924&#45;3431188338771875485 -->
<g id="edge5" class="edge"><title>cluster_cluster_&#45;2202121249019829706&#45;4464158448237009924&#45;1155624115735331312&#45;&gt;cluster_cluster_&#45;2202121249019829706&#45;4464158448237009924&#45;3431188338771875485</title>
<path fill="none" stroke="black" d="M145.5,-598.831C145.5,-598.831 145.5,-573.413 145.5,-573.413"/>
<polygon fill="black" stroke="black" points="149,-573.413 145.5,-563.413 142,-573.413 149,-573.413"/>
</g>
<!-- cluster_cluster_&#45;2202121249019829706&#45;44641584482370099244279092786024282651 -->
<g id="node14" class="node"><title>cluster_cluster_&#45;2202121249019829706&#45;44641584482370099244279092786024282651</title>
<g id="a_node14"><a xlink:href="./alternator_model_selector/sort_models.txt" xlink:title="sort_models">
<polygon fill="springgreen" stroke="black" points="244,-347 154,-347 154,-311 244,-311 244,-347"/>
<text text-anchor="start" x="164" y="-324.8" font-family="Times New Roman,serif" font-size="14.00">sort_models</text>
</a>
</g>
</g>
<!-- cluster_cluster_&#45;2202121249019829706&#45;4464158448237009924&#45;2427563387242055365&#45;&gt;cluster_cluster_&#45;2202121249019829706&#45;44641584482370099244279092786024282651 -->
<g id="edge6" class="edge"><title>cluster_cluster_&#45;2202121249019829706&#45;4464158448237009924&#45;2427563387242055365&#45;&gt;cluster_cluster_&#45;2202121249019829706&#45;44641584482370099244279092786024282651</title>
<path fill="none" stroke="black" d="M189.5,-382.831C189.5,-382.831 189.5,-357.413 189.5,-357.413"/>
<polygon fill="black" stroke="black" points="193,-357.413 189.5,-347.413 186,-357.413 193,-357.413"/>
</g>
<!-- cluster_cluster_&#45;2202121249019829706&#45;4464158448237009924&#45;7302022848986384642&#45;&gt;cluster_cluster_&#45;2202121249019829706&#45;44641584482370099244279092786024282651 -->
<g id="edge7" class="edge"><title>cluster_cluster_&#45;2202121249019829706&#45;4464158448237009924&#45;7302022848986384642&#45;&gt;cluster_cluster_&#45;2202121249019829706&#45;44641584482370099244279092786024282651</title>
<path fill="none" stroke="black" d="M268.922,-401C249.783,-401 231.5,-401 231.5,-401 231.5,-401 231.5,-357.169 231.5,-357.169"/>
<polygon fill="black" stroke="black" points="235,-357.169 231.5,-347.169 228,-357.169 235,-357.169"/>
</g>
<!-- cluster_cluster_&#45;2202121249019829706&#45;4464158448237009924&#45;3431188338771875485&#45;&gt;cluster_cluster_&#45;2202121249019829706&#45;44641584482370099243912149189942704534 -->
<g id="edge8" class="edge"><title>cluster_cluster_&#45;2202121249019829706&#45;4464158448237009924&#45;3431188338771875485&#45;&gt;cluster_cluster_&#45;2202121249019829706&#45;44641584482370099243912149189942704534</title>
<path fill="none" stroke="black" d="M135.667,-526.831C135.667,-526.831 135.667,-501.413 135.667,-501.413"/>
<polygon fill="black" stroke="black" points="139.167,-501.413 135.667,-491.413 132.167,-501.413 139.167,-501.413"/>
</g>
<!-- cluster_cluster_&#45;2202121249019829706&#45;4464158448237009924&#45;3431188338771875485&#45;&gt;cluster_cluster_&#45;2202121249019829706&#45;44641584482370099242978796992350379388 -->
<g id="edge9" class="edge"><title>cluster_cluster_&#45;2202121249019829706&#45;4464158448237009924&#45;3431188338771875485&#45;&gt;cluster_cluster_&#45;2202121249019829706&#45;44641584482370099242978796992350379388</title>
<path fill="none" stroke="black" d="M168.333,-526.857C168.333,-520.539 168.333,-515 168.333,-515 168.333,-515 263.667,-515 263.667,-515 263.667,-515 263.667,-501.056 263.667,-501.056"/>
<polygon fill="black" stroke="black" points="267.167,-501.055 263.667,-491.056 260.167,-501.056 267.167,-501.055"/>
</g>
<!-- cluster_cluster_&#45;2202121249019829706&#45;44641584482370099244409897952748087512 -->
<g id="node9" class="node"><title>cluster_cluster_&#45;2202121249019829706&#45;44641584482370099244409897952748087512</title>
<g id="a_node9"><a xlink:title="errors">
<path fill="cyan" stroke="black" d="M122,-131C122,-131 92,-131 92,-131 86,-131 80,-125 80,-119 80,-119 80,-107 80,-107 80,-101 86,-95 92,-95 92,-95 122,-95 122,-95 128,-95 134,-101 134,-107 134,-107 134,-119 134,-119 134,-125 128,-131 122,-131"/>
<text text-anchor="start" x="90" y="-108.8" font-family="Times New Roman,serif" font-size="14.00">errors</text>
</a>
</g>
</g>
<!-- cluster_cluster_&#45;2202121249019829706&#45;44641584482370099244409897952748087512&#45;&gt;cluster_cluster_&#45;2202121249019829706&#45;446415844823700992477532760 -->
<g id="edge10" class="edge"><title>cluster_cluster_&#45;2202121249019829706&#45;44641584482370099244409897952748087512&#45;&gt;cluster_cluster_&#45;2202121249019829706&#45;446415844823700992477532760</title>
<path fill="none" stroke="black" d="M124.128,-94.8314C124.128,-94.8314 124.128,-62.8389 124.128,-62.8389"/>
<polygon fill="black" stroke="black" points="127.628,-62.8389 124.128,-52.8389 120.628,-62.839 127.628,-62.8389"/>
<polygon fill="none" stroke="black" points="60.1283,-57.3351 60.1283,-78.3351 111.128,-78.3351 111.128,-57.3351 60.1283,-57.3351"/>
<text text-anchor="start" x="63.1283" y="-64.1351" font-family="Times New Roman,serif" font-size="14.00">out_id=</text>
<polygon fill="none" stroke="black" points="111.128,-57.3351 111.128,-78.3351 124.128,-78.3351 124.128,-57.3351 111.128,-57.3351"/>
<text text-anchor="start" x="114.128" y="-64.1351" font-family="Times New Roman,serif" font-size="14.00">1</text>
</g>
<!-- cluster_cluster_&#45;2202121249019829706&#45;4464158448237009924&#45;1584516978969530774&#45;&gt;cluster_cluster_&#45;2202121249019829706&#45;44641584482370099244409897952748087512 -->
<g id="edge11" class="edge"><title>cluster_cluster_&#45;2202121249019829706&#45;4464158448237009924&#45;1584516978969530774&#45;&gt;cluster_cluster_&#45;2202121249019829706&#45;44641584482370099244409897952748087512</title>
<path fill="none" stroke="black" d="M111,-166.831C111,-166.831 111,-141.413 111,-141.413"/>
<polygon fill="black" stroke="black" points="114.5,-141.413 111,-131.413 107.5,-141.413 114.5,-141.413"/>
</g>
<!-- cluster_cluster_&#45;2202121249019829706&#45;44641584482370099242699741909133148246 -->
<g id="node11" class="node"><title>cluster_cluster_&#45;2202121249019829706&#45;44641584482370099242699741909133148246</title>
<g id="a_node11"><a xlink:title="model">
<path fill="cyan" stroke="black" d="M196,-131C196,-131 164,-131 164,-131 158,-131 152,-125 152,-119 152,-119 152,-107 152,-107 152,-101 158,-95 164,-95 164,-95 196,-95 196,-95 202,-95 208,-101 208,-107 208,-107 208,-119 208,-119 208,-125 202,-131 196,-131"/>
<text text-anchor="start" x="162.5" y="-108.8" font-family="Times New Roman,serif" font-size="14.00">model</text>
</a>
</g>
</g>
<!-- cluster_cluster_&#45;2202121249019829706&#45;4464158448237009924&#45;1584516978969530774&#45;&gt;cluster_cluster_&#45;2202121249019829706&#45;44641584482370099242699741909133148246 -->
<g id="edge12" class="edge"><title>cluster_cluster_&#45;2202121249019829706&#45;4464158448237009924&#45;1584516978969530774&#45;&gt;cluster_cluster_&#45;2202121249019829706&#45;44641584482370099242699741909133148246</title>
<path fill="none" stroke="black" d="M175,-166.831C175,-166.831 175,-141.413 175,-141.413"/>
<polygon fill="black" stroke="black" points="178.5,-141.413 175,-131.413 171.5,-141.413 178.5,-141.413"/>
</g>
<!-- cluster_cluster_&#45;2202121249019829706&#45;44641584482370099242699741909133148246&#45;&gt;cluster_cluster_&#45;2202121249019829706&#45;446415844823700992477532760 -->
<g id="edge13" class="edge"><title>cluster_cluster_&#45;2202121249019829706&#45;44641584482370099242699741909133148246&#45;&gt;cluster_cluster_&#45;2202121249019829706&#45;446415844823700992477532760</title>
<path fill="none" stroke="black" d="M161.872,-94.8314C161.872,-94.8314 161.872,-62.8389 161.872,-62.8389"/>
<polygon fill="black" stroke="black" points="165.372,-62.8389 161.872,-52.8389 158.372,-62.839 165.372,-62.8389"/>
<polygon fill="none" stroke="black" points="161.872,-57.3351 161.872,-78.3351 212.872,-78.3351 212.872,-57.3351 161.872,-57.3351"/>
<text text-anchor="start" x="164.872" y="-64.1351" font-family="Times New Roman,serif" font-size="14.00">out_id=</text>
<polygon fill="none" stroke="black" points="212.872,-57.3351 212.872,-78.3351 225.872,-78.3351 225.872,-57.3351 212.872,-57.3351"/>
<text text-anchor="start" x="215.872" y="-64.1351" font-family="Times New Roman,serif" font-size="14.00">0</text>
</g>
<!-- cluster_cluster_&#45;2202121249019829706&#45;4464158448237009924&#45;6749006943951351882 -->
<g id="node12" class="node"><title>cluster_cluster_&#45;2202121249019829706&#45;4464158448237009924&#45;6749006943951351882</title>
<g id="a_node12"><a xlink:title="rank">
<path fill="cyan" stroke="black" d="M195,-275C195,-275 165,-275 165,-275 159,-275 153,-269 153,-263 153,-263 153,-251 153,-251 153,-245 159,-239 165,-239 165,-239 195,-239 195,-239 201,-239 207,-245 207,-251 207,-251 207,-263 207,-263 207,-269 201,-275 195,-275"/>
<text text-anchor="start" x="167.5" y="-252.8" font-family="Times New Roman,serif" font-size="14.00">rank</text>
</a>
</g>
</g>
<!-- cluster_cluster_&#45;2202121249019829706&#45;4464158448237009924&#45;6749006943951351882&#45;&gt;cluster_cluster_&#45;2202121249019829706&#45;4464158448237009924&#45;1584516978969530774 -->
<g id="edge14" class="edge"><title>cluster_cluster_&#45;2202121249019829706&#45;4464158448237009924&#45;6749006943951351882&#45;&gt;cluster_cluster_&#45;2202121249019829706&#45;4464158448237009924&#45;1584516978969530774</title>
<path fill="none" stroke="black" d="M175.5,-238.831C175.5,-238.831 175.5,-213.413 175.5,-213.413"/>
<polygon fill="black" stroke="black" points="179,-213.413 175.5,-203.413 172,-213.413 179,-213.413"/>
</g>
<!-- cluster_cluster_&#45;2202121249019829706&#45;44641584482370099242167525238374004597 -->
<g id="node13" class="node"><title>cluster_cluster_&#45;2202121249019829706&#45;44641584482370099242167525238374004597</title>
<g id="a_node13"><a xlink:title="selector_settings">
<path fill="cyan" stroke="black" d="M155,-719C155,-719 65,-719 65,-719 59,-719 53,-713 53,-707 53,-707 53,-683 53,-683 53,-677 59,-671 65,-671 65,-671 155,-671 155,-671 161,-671 167,-677 167,-683 167,-683 167,-707 167,-707 167,-713 161,-719 155,-719"/>
<text text-anchor="start" x="63" y="-701.8" font-family="Times New Roman,serif" font-size="14.00">selector_settings</text>
<polygon fill="none" stroke="black" points="61,-675 61,-696 126,-696 126,-675 61,-675"/>
<text text-anchor="start" x="77" y="-681.8" font-family="Times New Roman,serif" font-size="14.00">default=</text>
<polygon fill="none" stroke="black" points="126,-675 126,-696 159,-696 159,-675 126,-675"/>
<text text-anchor="start" x="129" y="-681.8" font-family="Times New Roman,serif" font-size="14.00">{}</text>
</a>
</g>
</g>
<!-- cluster_cluster_&#45;2202121249019829706&#45;44641584482370099242167525238374004597&#45;&gt;cluster_cluster_&#45;2202121249019829706&#45;4464158448237009924&#45;1155624115735331312 -->
<g id="edge15" class="edge"><title>cluster_cluster_&#45;2202121249019829706&#45;44641584482370099242167525238374004597&#45;&gt;cluster_cluster_&#45;2202121249019829706&#45;4464158448237009924&#45;1155624115735331312</title>
<path fill="none" stroke="black" d="M110,-670.748C110,-670.748 110,-645.288 110,-645.288"/>
<polygon fill="black" stroke="black" points="113.5,-645.287 110,-635.288 106.5,-645.288 113.5,-645.287"/>
</g>
<!-- cluster_cluster_&#45;2202121249019829706&#45;44641584482370099244279092786024282651&#45;&gt;cluster_cluster_&#45;2202121249019829706&#45;4464158448237009924&#45;6749006943951351882 -->
<g id="edge16" class="edge"><title>cluster_cluster_&#45;2202121249019829706&#45;44641584482370099244279092786024282651&#45;&gt;cluster_cluster_&#45;2202121249019829706&#45;4464158448237009924&#45;6749006943951351882</title>
<path fill="none" stroke="black" d="M180.5,-310.831C180.5,-310.831 180.5,-285.413 180.5,-285.413"/>
<polygon fill="black" stroke="black" points="184,-285.413 180.5,-275.413 177,-285.413 184,-285.413"/>
</g>
<!-- cluster_cluster_&#45;2202121249019829706&#45;44641584482370099244712647501736754553 -->
<g id="node15" class="node"><title>cluster_cluster_&#45;2202121249019829706&#45;44641584482370099244712647501736754553</title>
<g id="a_node15"><a xlink:title="A sequence of data.">
<path fill="cyan" stroke="black" d="M267,-563C267,-563 231,-563 231,-563 225,-563 219,-557 219,-551 219,-551 219,-539 219,-539 219,-533 225,-527 231,-527 231,-527 267,-527 267,-527 273,-527 279,-533 279,-539 279,-539 279,-551 279,-551 279,-557 273,-563 267,-563"/>
<text text-anchor="start" x="229.5" y="-540.8" font-family="Times New Roman,serif" font-size="14.00">wltp_h</text>
</a>
</g>
</g>
<!-- cluster_cluster_&#45;2202121249019829706&#45;44641584482370099244712647501736754553&#45;&gt;cluster_cluster_&#45;2202121249019829706&#45;44641584482370099243912149189942704534 -->
<g id="edge17" class="edge"><title>cluster_cluster_&#45;2202121249019829706&#45;44641584482370099244712647501736754553&#45;&gt;cluster_cluster_&#45;2202121249019829706&#45;44641584482370099243912149189942704534</title>
<path fill="none" stroke="black" d="M225.333,-526.831C225.333,-526.831 225.333,-501.413 225.333,-501.413"/>
<polygon fill="black" stroke="black" points="228.833,-501.413 225.333,-491.413 221.833,-501.413 228.833,-501.413"/>
</g>
<!-- cluster_cluster_&#45;2202121249019829706&#45;44641584482370099244712647501736754553&#45;&gt;cluster_cluster_&#45;2202121249019829706&#45;44641584482370099242978796992350379388 -->
<g id="edge18" class="edge"><title>cluster_cluster_&#45;2202121249019829706&#45;44641584482370099244712647501736754553&#45;&gt;cluster_cluster_&#45;2202121249019829706&#45;44641584482370099242978796992350379388</title>
<path fill="none" stroke="black" d="M271.333,-526.831C271.333,-526.831 271.333,-501.413 271.333,-501.413"/>
<polygon fill="black" stroke="black" points="274.833,-501.413 271.333,-491.413 267.833,-501.413 274.833,-501.413"/>
</g>
<!-- cluster_cluster_&#45;2202121249019829706&#45;4464158448237009924&#45;4779657526738643707 -->
<g id="node16" class="node"><title>cluster_cluster_&#45;2202121249019829706&#45;4464158448237009924&#45;4779657526738643707</title>
<g id="a_node16"><a xlink:title="A sequence of data.">
<path fill="cyan" stroke="black" d="M341,-563C341,-563 309,-563 309,-563 303,-563 297,-557 297,-551 297,-551 297,-539 297,-539 297,-533 303,-527 309,-527 309,-527 341,-527 341,-527 347,-527 353,-533 353,-539 353,-539 353,-551 353,-551 353,-557 347,-563 341,-563"/>
<text text-anchor="start" x="307.5" y="-540.8" font-family="Times New Roman,serif" font-size="14.00">wltp_l</text>
</a>
</g>
</g>
<!-- cluster_cluster_&#45;2202121249019829706&#45;4464158448237009924&#45;4779657526738643707&#45;&gt;cluster_cluster_&#45;2202121249019829706&#45;44641584482370099243912149189942704534 -->
<g id="edge19" class="edge"><title>cluster_cluster_&#45;2202121249019829706&#45;4464158448237009924&#45;4779657526738643707&#45;&gt;cluster_cluster_&#45;2202121249019829706&#45;44641584482370099243912149189942704534</title>
<path fill="none" stroke="black" d="M315.667,-526.944C315.667,-515.561 315.667,-503 315.667,-503 315.667,-503 231.667,-503 231.667,-503 231.667,-503 231.667,-501.143 231.667,-501.143"/>
<polygon fill="black" stroke="black" points="235.167,-501.143 231.667,-491.143 228.167,-501.143 235.167,-501.143"/>
</g>
<!-- cluster_cluster_&#45;2202121249019829706&#45;4464158448237009924&#45;4779657526738643707&#45;&gt;cluster_cluster_&#45;2202121249019829706&#45;44641584482370099242978796992350379388 -->
<g id="edge20" class="edge"><title>cluster_cluster_&#45;2202121249019829706&#45;4464158448237009924&#45;4779657526738643707&#45;&gt;cluster_cluster_&#45;2202121249019829706&#45;44641584482370099242978796992350379388</title>
<path fill="none" stroke="black" d="M334.333,-526.831C334.333,-526.831 334.333,-501.413 334.333,-501.413"/>
<polygon fill="black" stroke="black" points="337.833,-501.413 334.333,-491.413 330.833,-501.413 337.833,-501.413"/>
</g>
</g>
</svg>
