<?xml version="1.0" encoding="UTF-8" standalone="no"?>
<!DOCTYPE svg PUBLIC "-//W3C//DTD SVG 1.1//EN"
 "http://www.w3.org/Graphics/SVG/1.1/DTD/svg11.dtd">
<!-- Generated by graphviz version 2.38.0 (20140413.2041)
 -->
<!-- Title: cluster_co2_params selector Pages: 1 -->
<svg width="468pt" height="1159pt"
 viewBox="0.00 0.00 468.00 1159.00" xmlns="http://www.w3.org/2000/svg" xmlns:xlink="http://www.w3.org/1999/xlink">
<g id="graph0" class="graph" transform="scale(1 1) rotate(0) translate(4 1155)">
<title>cluster_co2_params selector</title>
<polygon fill="white" stroke="none" points="-4,4 -4,-1155 464,-1155 464,4 -4,4"/>
<text text-anchor="start" x="171.5" y="-7.8" font-family="Times New Roman,serif" font-size="14.00">co2_params selector</text>
<!-- cluster_cluster_&#45;2202121249019829706&#45;345570245617120189777532760 -->
<g id="node1" class="node"><title>cluster_cluster_&#45;2202121249019829706&#45;345570245617120189777532760</title>
<g id="a_node1"><a xlink:title="end">
<polygon fill="blue" stroke="black" points="164.683,-23.0493 166.459,-23.1479 168.216,-23.2953 169.948,-23.4913 171.648,-23.7353 173.308,-24.0266 174.923,-24.3645 176.485,-24.7479 177.989,-25.1759 179.429,-25.6472 180.8,-26.1606 182.098,-26.7147 183.317,-27.308 184.455,-27.9388 185.507,-28.6054 186.472,-29.3059 187.346,-30.0385 188.127,-30.8012 188.815,-31.5918 189.408,-32.4082 189.906,-33.2481 190.309,-34.1093 190.617,-34.9894 190.832,-35.886 190.956,-36.7965 190.989,-37.7186 190.934,-38.6497 190.794,-39.5873 190.571,-40.5287 190.269,-41.4713 189.89,-42.4127 189.439,-43.3503 188.918,-44.2814 188.332,-45.2035 187.685,-46.114 186.981,-47.0106 186.223,-47.8907 185.415,-48.7519 184.561,-49.5918 183.666,-50.4082 182.732,-51.1988 181.764,-51.9615 180.764,-52.6941 179.737,-53.3946 178.684,-54.0612 177.61,-54.692 176.516,-55.2853 175.405,-55.8394 174.28,-56.3528 173.142,-56.8241 171.994,-57.2521 170.837,-57.6355 169.672,-57.9734 168.501,-58.2647 167.325,-58.5087 166.145,-58.7047 164.963,-58.8521 163.779,-58.9507 162.593,-59 161.407,-59 160.221,-58.9507 159.037,-58.8521 157.855,-58.7047 156.675,-58.5087 155.499,-58.2647 154.328,-57.9734 153.163,-57.6355 152.006,-57.2521 150.858,-56.8241 149.72,-56.3528 148.595,-55.8394 147.484,-55.2853 146.39,-54.692 145.316,-54.0612 144.263,-53.3946 143.236,-52.6941 142.236,-51.9615 141.268,-51.1988 140.334,-50.4082 139.439,-49.5918 138.585,-48.7519 137.777,-47.8907 137.019,-47.0106 136.315,-46.114 135.668,-45.2035 135.082,-44.2814 134.561,-43.3503 134.11,-42.4127 133.731,-41.4713 133.429,-40.5287 133.206,-39.5873 133.066,-38.6497 133.011,-37.7186 133.044,-36.7965 133.168,-35.886 133.383,-34.9894 133.691,-34.1093 134.094,-33.2481 134.592,-32.4082 135.185,-31.5918 135.873,-30.8012 136.654,-30.0385 137.528,-29.3059 138.493,-28.6054 139.545,-27.9388 140.683,-27.308 141.902,-26.7147 143.2,-26.1606 144.571,-25.6472 146.011,-25.1759 147.515,-24.7479 149.077,-24.3645 150.692,-24.0266 152.352,-23.7353 154.052,-23.4913 155.784,-23.2953 157.541,-23.1479 159.317,-23.0493 161.105,-23 162.895,-23 164.683,-23.0493"/>
<text text-anchor="middle" x="162" y="-37.3" font-family="Times New Roman,serif" font-size="14.00">end</text>
</a>
</g>
</g>
<!-- cluster_cluster_&#45;2202121249019829706&#45;3455702456171201897&#45;5485245409668527061 -->
<g id="node2" class="node"><title>cluster_cluster_&#45;2202121249019829706&#45;3455702456171201897&#45;5485245409668527061</title>
<g id="a_node2"><a xlink:title="A dictionary.">
<path fill="cyan" stroke="black" d="M355,-563C355,-563 325,-563 325,-563 319,-563 313,-557 313,-551 313,-551 313,-539 313,-539 313,-533 319,-527 325,-527 325,-527 355,-527 355,-527 361,-527 367,-533 367,-539 367,-539 367,-551 367,-551 367,-557 361,-563 355,-563"/>
<text text-anchor="start" x="326.5" y="-540.8" font-family="Times New Roman,serif" font-size="14.00">ALL</text>
</a>
</g>
</g>
<!-- cluster_cluster_&#45;2202121249019829706&#45;34557024561712018977725836106349270227 -->
<g id="node4" class="node"><title>cluster_cluster_&#45;2202121249019829706&#45;34557024561712018977725836106349270227</title>
<g id="a_node4"><a xlink:href="./co2_params_selector/CP-ALL_errors.gv.svg" xlink:title="Calculates the error of calibrated model.">
<polygon fill="yellowgreen" stroke="black" points="387,-491 287,-491 287,-455 393,-455 393,-485 387,-491"/>
<polyline fill="none" stroke="black" points="387,-491 387,-485 "/>
<polyline fill="none" stroke="black" points="393,-485 387,-485 "/>
<text text-anchor="start" x="297" y="-468.8" font-family="Times New Roman,serif" font-size="14.00">CP&#45;ALL errors</text>
</a>
</g>
</g>
<!-- cluster_cluster_&#45;2202121249019829706&#45;3455702456171201897&#45;5485245409668527061&#45;&gt;cluster_cluster_&#45;2202121249019829706&#45;34557024561712018977725836106349270227 -->
<g id="edge1" class="edge"><title>cluster_cluster_&#45;2202121249019829706&#45;3455702456171201897&#45;5485245409668527061&#45;&gt;cluster_cluster_&#45;2202121249019829706&#45;34557024561712018977725836106349270227</title>
<path fill="none" stroke="black" d="M340,-526.831C340,-526.831 340,-501.413 340,-501.413"/>
<polygon fill="black" stroke="black" points="343.5,-501.413 340,-491.413 336.5,-501.413 343.5,-501.413"/>
</g>
<!-- cluster_cluster_&#45;2202121249019829706&#45;34557024561712018979023193397416603680 -->
<g id="node3" class="node"><title>cluster_cluster_&#45;2202121249019829706&#45;34557024561712018979023193397416603680</title>
<g id="a_node3"><a xlink:title="best_model_settings">
<path fill="cyan" stroke="black" d="M124,-779C124,-779 12,-779 12,-779 6,-779 0,-773 0,-767 0,-767 0,-755 0,-755 0,-749 6,-743 12,-743 12,-743 124,-743 124,-743 130,-743 136,-749 136,-755 136,-755 136,-767 136,-767 136,-773 130,-779 124,-779"/>
<text text-anchor="start" x="10.5" y="-756.8" font-family="Times New Roman,serif" font-size="14.00">best_model_settings</text>
</a>
</g>
</g>
<!-- cluster_cluster_&#45;2202121249019829706&#45;3455702456171201897&#45;1584516978969530774 -->
<g id="node16" class="node"><title>cluster_cluster_&#45;2202121249019829706&#45;3455702456171201897&#45;1584516978969530774</title>
<g id="a_node16"><a xlink:href="./alternator_model_selector/get_best_model.txt" xlink:title="get_best_model">
<polygon fill="springgreen" stroke="black" points="217,-203 107,-203 107,-167 217,-167 217,-203"/>
<text text-anchor="start" x="117" y="-180.8" font-family="Times New Roman,serif" font-size="14.00">get_best_model</text>
</a>
</g>
</g>
<!-- cluster_cluster_&#45;2202121249019829706&#45;34557024561712018979023193397416603680&#45;&gt;cluster_cluster_&#45;2202121249019829706&#45;3455702456171201897&#45;1584516978969530774 -->
<g id="edge2" class="edge"><title>cluster_cluster_&#45;2202121249019829706&#45;34557024561712018979023193397416603680&#45;&gt;cluster_cluster_&#45;2202121249019829706&#45;3455702456171201897&#45;1584516978969530774</title>
<path fill="none" stroke="black" d="M121.5,-742.81C121.5,-742.81 121.5,-213.194 121.5,-213.194"/>
<polygon fill="black" stroke="black" points="125,-213.194 121.5,-203.194 118,-213.194 125,-213.194"/>
</g>
<!-- cluster_cluster_&#45;2202121249019829706&#45;3455702456171201897&#45;5364707504319196062 -->
<g id="node11" class="node"><title>cluster_cluster_&#45;2202121249019829706&#45;3455702456171201897&#45;5364707504319196062</title>
<g id="a_node11"><a xlink:title="error/ALL">
<path fill="cyan" stroke="black" d="M345,-419C345,-419 291,-419 291,-419 285,-419 279,-413 279,-407 279,-407 279,-395 279,-395 279,-389 285,-383 291,-383 291,-383 345,-383 345,-383 351,-383 357,-389 357,-395 357,-395 357,-407 357,-407 357,-413 351,-419 345,-419"/>
<text text-anchor="start" x="289" y="-396.8" font-family="Times New Roman,serif" font-size="14.00">error/ALL</text>
</a>
</g>
</g>
<!-- cluster_cluster_&#45;2202121249019829706&#45;34557024561712018977725836106349270227&#45;&gt;cluster_cluster_&#45;2202121249019829706&#45;3455702456171201897&#45;5364707504319196062 -->
<g id="edge3" class="edge"><title>cluster_cluster_&#45;2202121249019829706&#45;34557024561712018977725836106349270227&#45;&gt;cluster_cluster_&#45;2202121249019829706&#45;3455702456171201897&#45;5364707504319196062</title>
<path fill="none" stroke="black" d="M322,-454.831C322,-454.831 322,-429.413 322,-429.413"/>
<polygon fill="black" stroke="black" points="325.5,-429.413 322,-419.413 318.5,-429.413 325.5,-429.413"/>
</g>
<!-- cluster_cluster_&#45;2202121249019829706&#45;3455702456171201897&#45;244139562682776038 -->
<g id="node5" class="node"><title>cluster_cluster_&#45;2202121249019829706&#45;3455702456171201897&#45;244139562682776038</title>
<g id="a_node5"><a xlink:href="./co2_params_selector/CP-wltp_h_errors.gv.svg" xlink:title="Calculates the error of calibrated model.">
<polygon fill="yellowgreen" stroke="black" points="436,-923 324,-923 324,-887 442,-887 442,-917 436,-923"/>
<polyline fill="none" stroke="black" points="436,-923 436,-917 "/>
<polyline fill="none" stroke="black" points="442,-917 436,-917 "/>
<text text-anchor="start" x="334" y="-900.8" font-family="Times New Roman,serif" font-size="14.00">CP&#45;wltp_h errors</text>
</a>
</g>
</g>
<!-- cluster_cluster_&#45;2202121249019829706&#45;3455702456171201897&#45;2427563387242055365 -->
<g id="node12" class="node"><title>cluster_cluster_&#45;2202121249019829706&#45;3455702456171201897&#45;2427563387242055365</title>
<g id="a_node12"><a xlink:title="error/wltp_h">
<path fill="cyan" stroke="black" d="M416,-851C416,-851 350,-851 350,-851 344,-851 338,-845 338,-839 338,-839 338,-827 338,-827 338,-821 344,-815 350,-815 350,-815 416,-815 416,-815 422,-815 428,-821 428,-827 428,-827 428,-839 428,-839 428,-845 422,-851 416,-851"/>
<text text-anchor="start" x="348" y="-828.8" font-family="Times New Roman,serif" font-size="14.00">error/wltp_h</text>
</a>
</g>
</g>
<!-- cluster_cluster_&#45;2202121249019829706&#45;3455702456171201897&#45;244139562682776038&#45;&gt;cluster_cluster_&#45;2202121249019829706&#45;3455702456171201897&#45;2427563387242055365 -->
<g id="edge4" class="edge"><title>cluster_cluster_&#45;2202121249019829706&#45;3455702456171201897&#45;244139562682776038&#45;&gt;cluster_cluster_&#45;2202121249019829706&#45;3455702456171201897&#45;2427563387242055365</title>
<path fill="none" stroke="black" d="M383,-886.831C383,-886.831 383,-861.413 383,-861.413"/>
<polygon fill="black" stroke="black" points="386.5,-861.413 383,-851.413 379.5,-861.413 386.5,-861.413"/>
</g>
<!-- cluster_cluster_&#45;2202121249019829706&#45;3455702456171201897&#45;597044447670857414 -->
<g id="node6" class="node"><title>cluster_cluster_&#45;2202121249019829706&#45;3455702456171201897&#45;597044447670857414</title>
<g id="a_node6"><a xlink:href="./co2_params_selector/CP-wltp_l_errors.gv.svg" xlink:title="Calculates the error of calibrated model.">
<polygon fill="yellowgreen" stroke="black" points="300,-923 192,-923 192,-887 306,-887 306,-917 300,-923"/>
<polyline fill="none" stroke="black" points="300,-923 300,-917 "/>
<polyline fill="none" stroke="black" points="306,-917 300,-917 "/>
<text text-anchor="start" x="202" y="-900.8" font-family="Times New Roman,serif" font-size="14.00">CP&#45;wltp_l errors</text>
</a>
</g>
</g>
<!-- cluster_cluster_&#45;2202121249019829706&#45;3455702456171201897&#45;7302022848986384642 -->
<g id="node13" class="node"><title>cluster_cluster_&#45;2202121249019829706&#45;3455702456171201897&#45;7302022848986384642</title>
<g id="a_node13"><a xlink:title="error/wltp_l">
<path fill="cyan" stroke="black" d="M280,-851C280,-851 218,-851 218,-851 212,-851 206,-845 206,-839 206,-839 206,-827 206,-827 206,-821 212,-815 218,-815 218,-815 280,-815 280,-815 286,-815 292,-821 292,-827 292,-827 292,-839 292,-839 292,-845 286,-851 280,-851"/>
<text text-anchor="start" x="216" y="-828.8" font-family="Times New Roman,serif" font-size="14.00">error/wltp_l</text>
</a>
</g>
</g>
<!-- cluster_cluster_&#45;2202121249019829706&#45;3455702456171201897&#45;597044447670857414&#45;&gt;cluster_cluster_&#45;2202121249019829706&#45;3455702456171201897&#45;7302022848986384642 -->
<g id="edge5" class="edge"><title>cluster_cluster_&#45;2202121249019829706&#45;3455702456171201897&#45;597044447670857414&#45;&gt;cluster_cluster_&#45;2202121249019829706&#45;3455702456171201897&#45;7302022848986384642</title>
<path fill="none" stroke="black" d="M249,-886.831C249,-886.831 249,-861.413 249,-861.413"/>
<polygon fill="black" stroke="black" points="252.5,-861.413 249,-851.413 245.5,-861.413 252.5,-861.413"/>
</g>
<!-- cluster_cluster_&#45;2202121249019829706&#45;3455702456171201897&#45;8274117887913057989 -->
<g id="node7" class="node"><title>cluster_cluster_&#45;2202121249019829706&#45;3455702456171201897&#45;8274117887913057989</title>
<g id="a_node7"><a xlink:href="./co2_params_selector/co2mpas.model.selector.co2_paramscalibrate_co2_params_all.txt" xlink:title="calibrate_co2_params_all">
<polygon fill="springgreen" stroke="black" points="422,-635 258,-635 258,-599 422,-599 422,-635"/>
<text text-anchor="start" x="268.5" y="-612.8" font-family="Times New Roman,serif" font-size="14.00">calibrate_co2_params_all</text>
</a>
</g>
</g>
<!-- cluster_cluster_&#45;2202121249019829706&#45;3455702456171201897&#45;8274117887913057989&#45;&gt;cluster_cluster_&#45;2202121249019829706&#45;3455702456171201897&#45;5485245409668527061 -->
<g id="edge6" class="edge"><title>cluster_cluster_&#45;2202121249019829706&#45;3455702456171201897&#45;8274117887913057989&#45;&gt;cluster_cluster_&#45;2202121249019829706&#45;3455702456171201897&#45;5485245409668527061</title>
<path fill="none" stroke="black" d="M340,-598.831C340,-598.831 340,-573.413 340,-573.413"/>
<polygon fill="black" stroke="black" points="343.5,-573.413 340,-563.413 336.5,-573.413 343.5,-573.413"/>
</g>
<!-- cluster_cluster_&#45;2202121249019829706&#45;34557024561712018972324229498117603866 -->
<g id="node8" class="node"><title>cluster_cluster_&#45;2202121249019829706&#45;34557024561712018972324229498117603866</title>
<g id="a_node8"><a xlink:href="./co2_params_selector/co2mpas.model.selector.co2_paramsco2_sort_models.txt" xlink:title="co2_sort_models">
<polygon fill="springgreen" stroke="black" points="290,-347 170,-347 170,-311 290,-311 290,-347"/>
<text text-anchor="start" x="180.5" y="-324.8" font-family="Times New Roman,serif" font-size="14.00">co2_sort_models</text>
</a>
</g>
</g>
<!-- cluster_cluster_&#45;2202121249019829706&#45;3455702456171201897&#45;6749006943951351882 -->
<g id="node18" class="node"><title>cluster_cluster_&#45;2202121249019829706&#45;3455702456171201897&#45;6749006943951351882</title>
<g id="a_node18"><a xlink:title="rank">
<path fill="cyan" stroke="black" d="M218,-275C218,-275 188,-275 188,-275 182,-275 176,-269 176,-263 176,-263 176,-251 176,-251 176,-245 182,-239 188,-239 188,-239 218,-239 218,-239 224,-239 230,-245 230,-251 230,-251 230,-263 230,-263 230,-269 224,-275 218,-275"/>
<text text-anchor="start" x="190.5" y="-252.8" font-family="Times New Roman,serif" font-size="14.00">rank</text>
</a>
</g>
</g>
<!-- cluster_cluster_&#45;2202121249019829706&#45;34557024561712018972324229498117603866&#45;&gt;cluster_cluster_&#45;2202121249019829706&#45;3455702456171201897&#45;6749006943951351882 -->
<g id="edge7" class="edge"><title>cluster_cluster_&#45;2202121249019829706&#45;34557024561712018972324229498117603866&#45;&gt;cluster_cluster_&#45;2202121249019829706&#45;3455702456171201897&#45;6749006943951351882</title>
<path fill="none" stroke="black" d="M203,-310.831C203,-310.831 203,-285.413 203,-285.413"/>
<polygon fill="black" stroke="black" points="206.5,-285.413 203,-275.413 199.5,-285.413 206.5,-285.413"/>
</g>
<!-- cluster_cluster_&#45;2202121249019829706&#45;3455702456171201897&#45;1155624115735331312 -->
<g id="node9" class="node"><title>cluster_cluster_&#45;2202121249019829706&#45;3455702456171201897&#45;1155624115735331312</title>
<g id="a_node9"><a xlink:href="./alternator_model_selector/co2mpas.model.selectordefine_selector_settings.txt" xlink:title="define_selector_settings">
<polygon fill="springgreen" stroke="black" points="255,-1067 99,-1067 99,-1031 255,-1031 255,-1067"/>
<text text-anchor="start" x="109.5" y="-1044.8" font-family="Times New Roman,serif" font-size="14.00">define_selector_settings</text>
</a>
</g>
</g>
<!-- cluster_cluster_&#45;2202121249019829706&#45;3455702456171201897&#45;1155624115735331312&#45;&gt;cluster_cluster_&#45;2202121249019829706&#45;34557024561712018979023193397416603680 -->
<g id="edge8" class="edge"><title>cluster_cluster_&#45;2202121249019829706&#45;3455702456171201897&#45;1155624115735331312&#45;&gt;cluster_cluster_&#45;2202121249019829706&#45;34557024561712018979023193397416603680</title>
<path fill="none" stroke="black" d="M117.5,-1030.98C117.5,-1030.98 117.5,-789.009 117.5,-789.009"/>
<polygon fill="black" stroke="black" points="121,-789.009 117.5,-779.009 114,-789.009 121,-789.009"/>
</g>
<!-- cluster_cluster_&#45;2202121249019829706&#45;3455702456171201897&#45;3431188338771875485 -->
<g id="node14" class="node"><title>cluster_cluster_&#45;2202121249019829706&#45;3455702456171201897&#45;3431188338771875485</title>
<g id="a_node14"><a xlink:title="error_settings">
<path fill="cyan" stroke="black" d="M352,-995C352,-995 278,-995 278,-995 272,-995 266,-989 266,-983 266,-983 266,-971 266,-971 266,-965 272,-959 278,-959 278,-959 352,-959 352,-959 358,-959 364,-965 364,-971 364,-971 364,-983 364,-983 364,-989 358,-995 352,-995"/>
<text text-anchor="start" x="276.5" y="-972.8" font-family="Times New Roman,serif" font-size="14.00">error_settings</text>
</a>
</g>
</g>
<!-- cluster_cluster_&#45;2202121249019829706&#45;3455702456171201897&#45;1155624115735331312&#45;&gt;cluster_cluster_&#45;2202121249019829706&#45;3455702456171201897&#45;3431188338771875485 -->
<g id="edge9" class="edge"><title>cluster_cluster_&#45;2202121249019829706&#45;3455702456171201897&#45;1155624115735331312&#45;&gt;cluster_cluster_&#45;2202121249019829706&#45;3455702456171201897&#45;3431188338771875485</title>
<path fill="none" stroke="black" d="M251.5,-1030.83C251.5,-1009.5 251.5,-977 251.5,-977 251.5,-977 255.909,-977 255.909,-977"/>
<polygon fill="black" stroke="black" points="255.909,-980.5 265.909,-977 255.909,-973.5 255.909,-980.5"/>
</g>
<!-- cluster_cluster_&#45;2202121249019829706&#45;3455702456171201897&#45;2111941399521301355 -->
<g id="node10" class="node"><title>cluster_cluster_&#45;2202121249019829706&#45;3455702456171201897&#45;2111941399521301355</title>
<g id="a_node10"><a xlink:href="./alternator_model_selector/sort_models.txt" xlink:title="sort_models">
<polygon fill="springgreen" stroke="black" points="361,-779 271,-779 271,-743 361,-743 361,-779"/>
<text text-anchor="start" x="281" y="-756.8" font-family="Times New Roman,serif" font-size="14.00">sort_models</text>
</a>
</g>
</g>
<!-- cluster_cluster_&#45;2202121249019829706&#45;3455702456171201897&#45;8163304290458052332 -->
<g id="node19" class="node"><title>cluster_cluster_&#45;2202121249019829706&#45;3455702456171201897&#45;8163304290458052332</title>
<g id="a_node19"><a xlink:title="rank&lt;0&gt;">
<path fill="cyan" stroke="black" d="M338,-707C338,-707 294,-707 294,-707 288,-707 282,-701 282,-695 282,-695 282,-683 282,-683 282,-677 288,-671 294,-671 294,-671 338,-671 338,-671 344,-671 350,-677 350,-683 350,-683 350,-695 350,-695 350,-701 344,-707 338,-707"/>
<text text-anchor="start" x="292" y="-684.8" font-family="Times New Roman,serif" font-size="14.00">rank&lt;0&gt;</text>
</a>
</g>
</g>
<!-- cluster_cluster_&#45;2202121249019829706&#45;3455702456171201897&#45;2111941399521301355&#45;&gt;cluster_cluster_&#45;2202121249019829706&#45;3455702456171201897&#45;8163304290458052332 -->
<g id="edge10" class="edge"><title>cluster_cluster_&#45;2202121249019829706&#45;3455702456171201897&#45;2111941399521301355&#45;&gt;cluster_cluster_&#45;2202121249019829706&#45;3455702456171201897&#45;8163304290458052332</title>
<path fill="none" stroke="black" d="M316,-742.831C316,-742.831 316,-717.413 316,-717.413"/>
<polygon fill="black" stroke="black" points="319.5,-717.413 316,-707.413 312.5,-717.413 319.5,-717.413"/>
</g>
<!-- cluster_cluster_&#45;2202121249019829706&#45;3455702456171201897&#45;5364707504319196062&#45;&gt;cluster_cluster_&#45;2202121249019829706&#45;34557024561712018972324229498117603866 -->
<g id="edge11" class="edge"><title>cluster_cluster_&#45;2202121249019829706&#45;3455702456171201897&#45;5364707504319196062&#45;&gt;cluster_cluster_&#45;2202121249019829706&#45;34557024561712018972324229498117603866</title>
<path fill="none" stroke="black" d="M284.5,-382.831C284.5,-382.831 284.5,-357.413 284.5,-357.413"/>
<polygon fill="black" stroke="black" points="288,-357.413 284.5,-347.413 281,-357.413 288,-357.413"/>
</g>
<!-- cluster_cluster_&#45;2202121249019829706&#45;3455702456171201897&#45;2427563387242055365&#45;&gt;cluster_cluster_&#45;2202121249019829706&#45;3455702456171201897&#45;8274117887913057989 -->
<g id="edge12" class="edge"><title>cluster_cluster_&#45;2202121249019829706&#45;3455702456171201897&#45;2427563387242055365&#45;&gt;cluster_cluster_&#45;2202121249019829706&#45;3455702456171201897&#45;8274117887913057989</title>
<path fill="none" stroke="black" d="M391.5,-814.955C391.5,-814.955 391.5,-645.145 391.5,-645.145"/>
<polygon fill="black" stroke="black" points="395,-645.145 391.5,-635.145 388,-645.145 395,-645.145"/>
</g>
<!-- cluster_cluster_&#45;2202121249019829706&#45;3455702456171201897&#45;2427563387242055365&#45;&gt;cluster_cluster_&#45;2202121249019829706&#45;3455702456171201897&#45;2111941399521301355 -->
<g id="edge13" class="edge"><title>cluster_cluster_&#45;2202121249019829706&#45;3455702456171201897&#45;2427563387242055365&#45;&gt;cluster_cluster_&#45;2202121249019829706&#45;3455702456171201897&#45;2111941399521301355</title>
<path fill="none" stroke="black" d="M349.5,-814.831C349.5,-814.831 349.5,-789.413 349.5,-789.413"/>
<polygon fill="black" stroke="black" points="353,-789.413 349.5,-779.413 346,-789.413 353,-789.413"/>
</g>
<!-- cluster_cluster_&#45;2202121249019829706&#45;3455702456171201897&#45;7302022848986384642&#45;&gt;cluster_cluster_&#45;2202121249019829706&#45;3455702456171201897&#45;8274117887913057989 -->
<g id="edge14" class="edge"><title>cluster_cluster_&#45;2202121249019829706&#45;3455702456171201897&#45;7302022848986384642&#45;&gt;cluster_cluster_&#45;2202121249019829706&#45;3455702456171201897&#45;8274117887913057989</title>
<path fill="none" stroke="black" d="M264.5,-814.955C264.5,-814.955 264.5,-645.145 264.5,-645.145"/>
<polygon fill="black" stroke="black" points="268,-645.145 264.5,-635.145 261,-645.145 268,-645.145"/>
</g>
<!-- cluster_cluster_&#45;2202121249019829706&#45;3455702456171201897&#45;7302022848986384642&#45;&gt;cluster_cluster_&#45;2202121249019829706&#45;3455702456171201897&#45;2111941399521301355 -->
<g id="edge15" class="edge"><title>cluster_cluster_&#45;2202121249019829706&#45;3455702456171201897&#45;7302022848986384642&#45;&gt;cluster_cluster_&#45;2202121249019829706&#45;3455702456171201897&#45;2111941399521301355</title>
<path fill="none" stroke="black" d="M281.5,-814.831C281.5,-814.831 281.5,-789.413 281.5,-789.413"/>
<polygon fill="black" stroke="black" points="285,-789.413 281.5,-779.413 278,-789.413 285,-789.413"/>
</g>
<!-- cluster_cluster_&#45;2202121249019829706&#45;3455702456171201897&#45;3431188338771875485&#45;&gt;cluster_cluster_&#45;2202121249019829706&#45;34557024561712018977725836106349270227 -->
<g id="edge16" class="edge"><title>cluster_cluster_&#45;2202121249019829706&#45;3455702456171201897&#45;3431188338771875485&#45;&gt;cluster_cluster_&#45;2202121249019829706&#45;34557024561712018977725836106349270227</title>
<path fill="none" stroke="black" d="M315,-958.75C315,-912.989 315,-797 315,-797 315,-797 223.333,-797 223.333,-797 223.333,-797 223.333,-479 223.333,-479 223.333,-479 276.788,-479 276.788,-479"/>
<polygon fill="black" stroke="black" points="276.788,-482.5 286.788,-479 276.788,-475.5 276.788,-482.5"/>
</g>
<!-- cluster_cluster_&#45;2202121249019829706&#45;3455702456171201897&#45;3431188338771875485&#45;&gt;cluster_cluster_&#45;2202121249019829706&#45;3455702456171201897&#45;244139562682776038 -->
<g id="edge17" class="edge"><title>cluster_cluster_&#45;2202121249019829706&#45;3455702456171201897&#45;3431188338771875485&#45;&gt;cluster_cluster_&#45;2202121249019829706&#45;3455702456171201897&#45;244139562682776038</title>
<path fill="none" stroke="black" d="M350.667,-958.831C350.667,-958.831 350.667,-933.413 350.667,-933.413"/>
<polygon fill="black" stroke="black" points="354.167,-933.413 350.667,-923.413 347.167,-933.413 354.167,-933.413"/>
</g>
<!-- cluster_cluster_&#45;2202121249019829706&#45;3455702456171201897&#45;3431188338771875485&#45;&gt;cluster_cluster_&#45;2202121249019829706&#45;3455702456171201897&#45;597044447670857414 -->
<g id="edge18" class="edge"><title>cluster_cluster_&#45;2202121249019829706&#45;3455702456171201897&#45;3431188338771875485&#45;&gt;cluster_cluster_&#45;2202121249019829706&#45;3455702456171201897&#45;597044447670857414</title>
<path fill="none" stroke="black" d="M279.333,-958.831C279.333,-958.831 279.333,-933.413 279.333,-933.413"/>
<polygon fill="black" stroke="black" points="282.833,-933.413 279.333,-923.413 275.833,-933.413 282.833,-933.413"/>
</g>
<!-- cluster_cluster_&#45;2202121249019829706&#45;34557024561712018974409897952748087512 -->
<g id="node15" class="node"><title>cluster_cluster_&#45;2202121249019829706&#45;34557024561712018974409897952748087512</title>
<g id="a_node15"><a xlink:title="errors">
<path fill="cyan" stroke="black" d="M141,-131C141,-131 111,-131 111,-131 105,-131 99,-125 99,-119 99,-119 99,-107 99,-107 99,-101 105,-95 111,-95 111,-95 141,-95 141,-95 147,-95 153,-101 153,-107 153,-107 153,-119 153,-119 153,-125 147,-131 141,-131"/>
<text text-anchor="start" x="109" y="-108.8" font-family="Times New Roman,serif" font-size="14.00">errors</text>
</a>
</g>
</g>
<!-- cluster_cluster_&#45;2202121249019829706&#45;34557024561712018974409897952748087512&#45;&gt;cluster_cluster_&#45;2202121249019829706&#45;345570245617120189777532760 -->
<g id="edge19" class="edge"><title>cluster_cluster_&#45;2202121249019829706&#45;34557024561712018974409897952748087512&#45;&gt;cluster_cluster_&#45;2202121249019829706&#45;345570245617120189777532760</title>
<path fill="none" stroke="black" d="M143.128,-94.8314C143.128,-94.8314 143.128,-62.8389 143.128,-62.8389"/>
<polygon fill="black" stroke="black" points="146.628,-62.8389 143.128,-52.8389 139.628,-62.839 146.628,-62.8389"/>
<polygon fill="none" stroke="black" points="79.1283,-57.3351 79.1283,-78.3351 130.128,-78.3351 130.128,-57.3351 79.1283,-57.3351"/>
<text text-anchor="start" x="82.1283" y="-64.1351" font-family="Times New Roman,serif" font-size="14.00">out_id=</text>
<polygon fill="none" stroke="black" points="130.128,-57.3351 130.128,-78.3351 143.128,-78.3351 143.128,-57.3351 130.128,-57.3351"/>
<text text-anchor="start" x="133.128" y="-64.1351" font-family="Times New Roman,serif" font-size="14.00">1</text>
</g>
<!-- cluster_cluster_&#45;2202121249019829706&#45;3455702456171201897&#45;1584516978969530774&#45;&gt;cluster_cluster_&#45;2202121249019829706&#45;34557024561712018974409897952748087512 -->
<g id="edge20" class="edge"><title>cluster_cluster_&#45;2202121249019829706&#45;3455702456171201897&#45;1584516978969530774&#45;&gt;cluster_cluster_&#45;2202121249019829706&#45;34557024561712018974409897952748087512</title>
<path fill="none" stroke="black" d="M130,-166.831C130,-166.831 130,-141.413 130,-141.413"/>
<polygon fill="black" stroke="black" points="133.5,-141.413 130,-131.413 126.5,-141.413 133.5,-141.413"/>
</g>
<!-- cluster_cluster_&#45;2202121249019829706&#45;34557024561712018972699741909133148246 -->
<g id="node17" class="node"><title>cluster_cluster_&#45;2202121249019829706&#45;34557024561712018972699741909133148246</title>
<g id="a_node17"><a xlink:title="model">
<path fill="cyan" stroke="black" d="M215,-131C215,-131 183,-131 183,-131 177,-131 171,-125 171,-119 171,-119 171,-107 171,-107 171,-101 177,-95 183,-95 183,-95 215,-95 215,-95 221,-95 227,-101 227,-107 227,-107 227,-119 227,-119 227,-125 221,-131 215,-131"/>
<text text-anchor="start" x="181.5" y="-108.8" font-family="Times New Roman,serif" font-size="14.00">model</text>
</a>
</g>
</g>
<!-- cluster_cluster_&#45;2202121249019829706&#45;3455702456171201897&#45;1584516978969530774&#45;&gt;cluster_cluster_&#45;2202121249019829706&#45;34557024561712018972699741909133148246 -->
<g id="edge21" class="edge"><title>cluster_cluster_&#45;2202121249019829706&#45;3455702456171201897&#45;1584516978969530774&#45;&gt;cluster_cluster_&#45;2202121249019829706&#45;34557024561712018972699741909133148246</title>
<path fill="none" stroke="black" d="M194,-166.831C194,-166.831 194,-141.413 194,-141.413"/>
<polygon fill="black" stroke="black" points="197.5,-141.413 194,-131.413 190.5,-141.413 197.5,-141.413"/>
</g>
<!-- cluster_cluster_&#45;2202121249019829706&#45;34557024561712018972699741909133148246&#45;&gt;cluster_cluster_&#45;2202121249019829706&#45;345570245617120189777532760 -->
<g id="edge22" class="edge"><title>cluster_cluster_&#45;2202121249019829706&#45;34557024561712018972699741909133148246&#45;&gt;cluster_cluster_&#45;2202121249019829706&#45;345570245617120189777532760</title>
<path fill="none" stroke="black" d="M180.872,-94.8314C180.872,-94.8314 180.872,-62.8389 180.872,-62.8389"/>
<polygon fill="black" stroke="black" points="184.372,-62.8389 180.872,-52.8389 177.372,-62.839 184.372,-62.8389"/>
<polygon fill="none" stroke="black" points="180.872,-57.3351 180.872,-78.3351 231.872,-78.3351 231.872,-57.3351 180.872,-57.3351"/>
<text text-anchor="start" x="183.872" y="-64.1351" font-family="Times New Roman,serif" font-size="14.00">out_id=</text>
<polygon fill="none" stroke="black" points="231.872,-57.3351 231.872,-78.3351 244.872,-78.3351 244.872,-57.3351 231.872,-57.3351"/>
<text text-anchor="start" x="234.872" y="-64.1351" font-family="Times New Roman,serif" font-size="14.00">0</text>
</g>
<!-- cluster_cluster_&#45;2202121249019829706&#45;3455702456171201897&#45;6749006943951351882&#45;&gt;cluster_cluster_&#45;2202121249019829706&#45;3455702456171201897&#45;1584516978969530774 -->
<g id="edge23" class="edge"><title>cluster_cluster_&#45;2202121249019829706&#45;3455702456171201897&#45;6749006943951351882&#45;&gt;cluster_cluster_&#45;2202121249019829706&#45;3455702456171201897&#45;1584516978969530774</title>
<path fill="none" stroke="black" d="M196.5,-238.831C196.5,-238.831 196.5,-213.413 196.5,-213.413"/>
<polygon fill="black" stroke="black" points="200,-213.413 196.5,-203.413 193,-213.413 200,-213.413"/>
</g>
<!-- cluster_cluster_&#45;2202121249019829706&#45;3455702456171201897&#45;8163304290458052332&#45;&gt;cluster_cluster_&#45;2202121249019829706&#45;3455702456171201897&#45;8274117887913057989 -->
<g id="edge24" class="edge"><title>cluster_cluster_&#45;2202121249019829706&#45;3455702456171201897&#45;8163304290458052332&#45;&gt;cluster_cluster_&#45;2202121249019829706&#45;3455702456171201897&#45;8274117887913057989</title>
<path fill="none" stroke="black" d="M316,-670.831C316,-670.831 316,-645.413 316,-645.413"/>
<polygon fill="black" stroke="black" points="319.5,-645.413 316,-635.413 312.5,-645.413 319.5,-645.413"/>
</g>
<!-- cluster_cluster_&#45;2202121249019829706&#45;3455702456171201897&#45;8163304290458052332&#45;&gt;cluster_cluster_&#45;2202121249019829706&#45;34557024561712018972324229498117603866 -->
<g id="edge25" class="edge"><title>cluster_cluster_&#45;2202121249019829706&#45;3455702456171201897&#45;8163304290458052332&#45;&gt;cluster_cluster_&#45;2202121249019829706&#45;34557024561712018972324229498117603866</title>
<path fill="none" stroke="black" d="M281.86,-689C261.928,-689 240.667,-689 240.667,-689 240.667,-689 240.667,-357.347 240.667,-357.347"/>
<polygon fill="black" stroke="black" points="244.167,-357.347 240.667,-347.347 237.167,-357.347 244.167,-357.347"/>
</g>
<!-- cluster_cluster_&#45;2202121249019829706&#45;34557024561712018972167525238374004597 -->
<g id="node20" class="node"><title>cluster_cluster_&#45;2202121249019829706&#45;34557024561712018972167525238374004597</title>
<g id="a_node20"><a xlink:title="selector_settings">
<path fill="cyan" stroke="black" d="M222,-1151C222,-1151 132,-1151 132,-1151 126,-1151 120,-1145 120,-1139 120,-1139 120,-1115 120,-1115 120,-1109 126,-1103 132,-1103 132,-1103 222,-1103 222,-1103 228,-1103 234,-1109 234,-1115 234,-1115 234,-1139 234,-1139 234,-1145 228,-1151 222,-1151"/>
<text text-anchor="start" x="130" y="-1133.8" font-family="Times New Roman,serif" font-size="14.00">selector_settings</text>
<polygon fill="none" stroke="black" points="128,-1107 128,-1128 193,-1128 193,-1107 128,-1107"/>
<text text-anchor="start" x="144" y="-1113.8" font-family="Times New Roman,serif" font-size="14.00">default=</text>
<polygon fill="none" stroke="black" points="193,-1107 193,-1128 226,-1128 226,-1107 193,-1107"/>
<text text-anchor="start" x="196" y="-1113.8" font-family="Times New Roman,serif" font-size="14.00">{}</text>
</a>
</g>
</g>
<!-- cluster_cluster_&#45;2202121249019829706&#45;34557024561712018972167525238374004597&#45;&gt;cluster_cluster_&#45;2202121249019829706&#45;3455702456171201897&#45;1155624115735331312 -->
<g id="edge26" class="edge"><title>cluster_cluster_&#45;2202121249019829706&#45;34557024561712018972167525238374004597&#45;&gt;cluster_cluster_&#45;2202121249019829706&#45;3455702456171201897&#45;1155624115735331312</title>
<path fill="none" stroke="black" d="M177,-1102.75C177,-1102.75 177,-1077.29 177,-1077.29"/>
<polygon fill="black" stroke="black" points="180.5,-1077.29 177,-1067.29 173.5,-1077.29 180.5,-1077.29"/>
</g>
<!-- cluster_cluster_&#45;2202121249019829706&#45;34557024561712018974712647501736754553 -->
<g id="node21" class="node"><title>cluster_cluster_&#45;2202121249019829706&#45;34557024561712018974712647501736754553</title>
<g id="a_node21"><a xlink:title="A sequence of data.">
<path fill="cyan" stroke="black" d="M430,-995C430,-995 394,-995 394,-995 388,-995 382,-989 382,-983 382,-983 382,-971 382,-971 382,-965 388,-959 394,-959 394,-959 430,-959 430,-959 436,-959 442,-965 442,-971 442,-971 442,-983 442,-983 442,-989 436,-995 430,-995"/>
<text text-anchor="start" x="392.5" y="-972.8" font-family="Times New Roman,serif" font-size="14.00">wltp_h</text>
</a>
</g>
</g>
<!-- cluster_cluster_&#45;2202121249019829706&#45;34557024561712018974712647501736754553&#45;&gt;cluster_cluster_&#45;2202121249019829706&#45;34557024561712018977725836106349270227 -->
<g id="edge27" class="edge"><title>cluster_cluster_&#45;2202121249019829706&#45;34557024561712018974712647501736754553&#45;&gt;cluster_cluster_&#45;2202121249019829706&#45;34557024561712018977725836106349270227</title>
<path fill="none" stroke="black" d="M442.127,-977C451.771,-977 460,-977 460,-977 460,-977 460,-473 460,-473 460,-473 403.333,-473 403.333,-473"/>
<polygon fill="black" stroke="black" points="403.333,-469.5 393.333,-473 403.333,-476.5 403.333,-469.5"/>
</g>
<!-- cluster_cluster_&#45;2202121249019829706&#45;34557024561712018974712647501736754553&#45;&gt;cluster_cluster_&#45;2202121249019829706&#45;3455702456171201897&#45;244139562682776038 -->
<g id="edge28" class="edge"><title>cluster_cluster_&#45;2202121249019829706&#45;34557024561712018974712647501736754553&#45;&gt;cluster_cluster_&#45;2202121249019829706&#45;3455702456171201897&#45;244139562682776038</title>
<path fill="none" stroke="black" d="M422,-958.831C422,-958.831 422,-933.413 422,-933.413"/>
<polygon fill="black" stroke="black" points="425.5,-933.413 422,-923.413 418.5,-933.413 425.5,-933.413"/>
</g>
<!-- cluster_cluster_&#45;2202121249019829706&#45;34557024561712018974712647501736754553&#45;&gt;cluster_cluster_&#45;2202121249019829706&#45;3455702456171201897&#45;597044447670857414 -->
<g id="edge29" class="edge"><title>cluster_cluster_&#45;2202121249019829706&#45;34557024561712018974712647501736754553&#45;&gt;cluster_cluster_&#45;2202121249019829706&#45;3455702456171201897&#45;597044447670857414</title>
<path fill="none" stroke="black" d="M402,-958.944C402,-947.561 402,-935 402,-935 402,-935 292.667,-935 292.667,-935 292.667,-935 292.667,-933.143 292.667,-933.143"/>
<polygon fill="black" stroke="black" points="296.167,-933.143 292.667,-923.143 289.167,-933.143 296.167,-933.143"/>
</g>
<!-- cluster_cluster_&#45;2202121249019829706&#45;3455702456171201897&#45;4779657526738643707 -->
<g id="node22" class="node"><title>cluster_cluster_&#45;2202121249019829706&#45;3455702456171201897&#45;4779657526738643707</title>
<g id="a_node22"><a xlink:title="A sequence of data.">
<path fill="cyan" stroke="black" d="M236,-995C236,-995 204,-995 204,-995 198,-995 192,-989 192,-983 192,-983 192,-971 192,-971 192,-965 198,-959 204,-959 204,-959 236,-959 236,-959 242,-959 248,-965 248,-971 248,-971 248,-983 248,-983 248,-989 242,-995 236,-995"/>
<text text-anchor="start" x="202.5" y="-972.8" font-family="Times New Roman,serif" font-size="14.00">wltp_l</text>
</a>
</g>
</g>
<!-- cluster_cluster_&#45;2202121249019829706&#45;3455702456171201897&#45;4779657526738643707&#45;&gt;cluster_cluster_&#45;2202121249019829706&#45;34557024561712018977725836106349270227 -->
<g id="edge30" class="edge"><title>cluster_cluster_&#45;2202121249019829706&#45;3455702456171201897&#45;4779657526738643707&#45;&gt;cluster_cluster_&#45;2202121249019829706&#45;34557024561712018977725836106349270227</title>
<path fill="none" stroke="black" d="M191.657,-977C185.608,-977 181,-977 181,-977 181,-977 181,-467 181,-467 181,-467 276.613,-467 276.613,-467"/>
<polygon fill="black" stroke="black" points="276.613,-470.5 286.613,-467 276.613,-463.5 276.613,-470.5"/>
</g>
<!-- cluster_cluster_&#45;2202121249019829706&#45;3455702456171201897&#45;4779657526738643707&#45;&gt;cluster_cluster_&#45;2202121249019829706&#45;3455702456171201897&#45;244139562682776038 -->
<g id="edge31" class="edge"><title>cluster_cluster_&#45;2202121249019829706&#45;3455702456171201897&#45;4779657526738643707&#45;&gt;cluster_cluster_&#45;2202121249019829706&#45;3455702456171201897&#45;244139562682776038</title>
<path fill="none" stroke="black" d="M229.333,-958.857C229.333,-952.539 229.333,-947 229.333,-947 229.333,-947 337.333,-947 337.333,-947 337.333,-947 337.333,-933.056 337.333,-933.056"/>
<polygon fill="black" stroke="black" points="340.833,-933.055 337.333,-923.056 333.833,-933.056 340.833,-933.055"/>
</g>
<!-- cluster_cluster_&#45;2202121249019829706&#45;3455702456171201897&#45;4779657526738643707&#45;&gt;cluster_cluster_&#45;2202121249019829706&#45;3455702456171201897&#45;597044447670857414 -->
<g id="edge32" class="edge"><title>cluster_cluster_&#45;2202121249019829706&#45;3455702456171201897&#45;4779657526738643707&#45;&gt;cluster_cluster_&#45;2202121249019829706&#45;3455702456171201897&#45;597044447670857414</title>
<path fill="none" stroke="black" d="M210.667,-958.831C210.667,-958.831 210.667,-933.413 210.667,-933.413"/>
<polygon fill="black" stroke="black" points="214.167,-933.413 210.667,-923.413 207.167,-933.413 214.167,-933.413"/>
</g>
</g>
</svg>
