<?xml version="1.0" encoding="UTF-8" standalone="no"?>
<!DOCTYPE svg PUBLIC "-//W3C//DTD SVG 1.1//EN"
 "http://www.w3.org/Graphics/SVG/1.1/DTD/svg11.dtd">
<!-- Generated by graphviz version 2.38.0 (20140413.2041)
 -->
<!-- Title: cluster_engine_coolant_temperature_model selector Pages: 1 -->
<svg width="398pt" height="727pt"
 viewBox="0.00 0.00 398.00 727.00" xmlns="http://www.w3.org/2000/svg" xmlns:xlink="http://www.w3.org/1999/xlink">
<g id="graph0" class="graph" transform="scale(1 1) rotate(0) translate(4 723)">
<title>cluster_engine_coolant_temperature_model selector</title>
<polygon fill="white" stroke="none" points="-4,4 -4,-723 394,-723 394,4 -4,4"/>
<text text-anchor="start" x="71.5" y="-7.8" font-family="Times New Roman,serif" font-size="14.00">engine_coolant_temperature_model selector</text>
<!-- cluster_cluster_&#45;2202121249019829706&#45;479780191531757221377532760 -->
<g id="node1" class="node"><title>cluster_cluster_&#45;2202121249019829706&#45;479780191531757221377532760</title>
<g id="a_node1"><a xlink:title="end">
<polygon fill="blue" stroke="black" points="145.683,-23.0493 147.459,-23.1479 149.216,-23.2953 150.948,-23.4913 152.648,-23.7353 154.308,-24.0266 155.923,-24.3645 157.485,-24.7479 158.989,-25.1759 160.429,-25.6472 161.8,-26.1606 163.098,-26.7147 164.317,-27.308 165.455,-27.9388 166.507,-28.6054 167.472,-29.3059 168.346,-30.0385 169.127,-30.8012 169.815,-31.5918 170.408,-32.4082 170.906,-33.2481 171.309,-34.1093 171.617,-34.9894 171.832,-35.886 171.956,-36.7965 171.989,-37.7186 171.934,-38.6497 171.794,-39.5873 171.571,-40.5287 171.269,-41.4713 170.89,-42.4127 170.439,-43.3503 169.918,-44.2814 169.332,-45.2035 168.685,-46.114 167.981,-47.0106 167.223,-47.8907 166.415,-48.7519 165.561,-49.5918 164.666,-50.4082 163.732,-51.1988 162.764,-51.9615 161.764,-52.6941 160.737,-53.3946 159.684,-54.0612 158.61,-54.692 157.516,-55.2853 156.405,-55.8394 155.28,-56.3528 154.142,-56.8241 152.994,-57.2521 151.837,-57.6355 150.672,-57.9734 149.501,-58.2647 148.325,-58.5087 147.145,-58.7047 145.963,-58.8521 144.779,-58.9507 143.593,-59 142.407,-59 141.221,-58.9507 140.037,-58.8521 138.855,-58.7047 137.675,-58.5087 136.499,-58.2647 135.328,-57.9734 134.163,-57.6355 133.006,-57.2521 131.858,-56.8241 130.72,-56.3528 129.595,-55.8394 128.484,-55.2853 127.39,-54.692 126.316,-54.0612 125.263,-53.3946 124.236,-52.6941 123.236,-51.9615 122.268,-51.1988 121.334,-50.4082 120.439,-49.5918 119.585,-48.7519 118.777,-47.8907 118.019,-47.0106 117.315,-46.114 116.668,-45.2035 116.082,-44.2814 115.561,-43.3503 115.11,-42.4127 114.731,-41.4713 114.429,-40.5287 114.206,-39.5873 114.066,-38.6497 114.011,-37.7186 114.044,-36.7965 114.168,-35.886 114.383,-34.9894 114.691,-34.1093 115.094,-33.2481 115.592,-32.4082 116.185,-31.5918 116.873,-30.8012 117.654,-30.0385 118.528,-29.3059 119.493,-28.6054 120.545,-27.9388 121.683,-27.308 122.902,-26.7147 124.2,-26.1606 125.571,-25.6472 127.011,-25.1759 128.515,-24.7479 130.077,-24.3645 131.692,-24.0266 133.352,-23.7353 135.052,-23.4913 136.784,-23.2953 138.541,-23.1479 140.317,-23.0493 142.105,-23 143.895,-23 145.683,-23.0493"/>
<text text-anchor="middle" x="143" y="-37.3" font-family="Times New Roman,serif" font-size="14.00">end</text>
</a>
</g>
</g>
<!-- cluster_cluster_&#45;2202121249019829706&#45;47978019153175722139023193397416603680 -->
<g id="node2" class="node"><title>cluster_cluster_&#45;2202121249019829706&#45;47978019153175722139023193397416603680</title>
<g id="a_node2"><a xlink:title="best_model_settings">
<path fill="cyan" stroke="black" d="M124,-347C124,-347 12,-347 12,-347 6,-347 0,-341 0,-335 0,-335 0,-323 0,-323 0,-317 6,-311 12,-311 12,-311 124,-311 124,-311 130,-311 136,-317 136,-323 136,-323 136,-335 136,-335 136,-341 130,-347 124,-347"/>
<text text-anchor="start" x="10.5" y="-324.8" font-family="Times New Roman,serif" font-size="14.00">best_model_settings</text>
</a>
</g>
</g>
<!-- cluster_cluster_&#45;2202121249019829706&#45;4797801915317572213&#45;1584516978969530774 -->
<g id="node10" class="node"><title>cluster_cluster_&#45;2202121249019829706&#45;4797801915317572213&#45;1584516978969530774</title>
<g id="a_node10"><a xlink:href="./alternator_model_selector/get_best_model.txt" xlink:title="get_best_model">
<polygon fill="springgreen" stroke="black" points="198,-203 88,-203 88,-167 198,-167 198,-203"/>
<text text-anchor="start" x="98" y="-180.8" font-family="Times New Roman,serif" font-size="14.00">get_best_model</text>
</a>
</g>
</g>
<!-- cluster_cluster_&#45;2202121249019829706&#45;47978019153175722139023193397416603680&#45;&gt;cluster_cluster_&#45;2202121249019829706&#45;4797801915317572213&#45;1584516978969530774 -->
<g id="edge1" class="edge"><title>cluster_cluster_&#45;2202121249019829706&#45;47978019153175722139023193397416603680&#45;&gt;cluster_cluster_&#45;2202121249019829706&#45;4797801915317572213&#45;1584516978969530774</title>
<path fill="none" stroke="black" d="M112,-310.762C112,-310.762 112,-213.09 112,-213.09"/>
<polygon fill="black" stroke="black" points="115.5,-213.09 112,-203.09 108.5,-213.09 115.5,-213.09"/>
</g>
<!-- cluster_cluster_&#45;2202121249019829706&#45;47978019153175722133963617121611033797 -->
<g id="node3" class="node"><title>cluster_cluster_&#45;2202121249019829706&#45;47978019153175722133963617121611033797</title>
<g id="a_node3"><a xlink:href="./engine_coolant_temperature_model_selector/ECTM-wltp_h_errors.gv.svg" xlink:title="Calculates the error of calibrated model.">
<polygon fill="yellowgreen" stroke="black" points="230,-491 96,-491 96,-455 236,-455 236,-485 230,-491"/>
<polyline fill="none" stroke="black" points="230,-491 230,-485 "/>
<polyline fill="none" stroke="black" points="236,-485 230,-485 "/>
<text text-anchor="start" x="106.5" y="-468.8" font-family="Times New Roman,serif" font-size="14.00">ECTM&#45;wltp_h errors</text>
</a>
</g>
</g>
<!-- cluster_cluster_&#45;2202121249019829706&#45;4797801915317572213&#45;2427563387242055365 -->
<g id="node6" class="node"><title>cluster_cluster_&#45;2202121249019829706&#45;4797801915317572213&#45;2427563387242055365</title>
<g id="a_node6"><a xlink:title="error/wltp_h">
<path fill="cyan" stroke="black" d="M211,-419C211,-419 145,-419 145,-419 139,-419 133,-413 133,-407 133,-407 133,-395 133,-395 133,-389 139,-383 145,-383 145,-383 211,-383 211,-383 217,-383 223,-389 223,-395 223,-395 223,-407 223,-407 223,-413 217,-419 211,-419"/>
<text text-anchor="start" x="143" y="-396.8" font-family="Times New Roman,serif" font-size="14.00">error/wltp_h</text>
</a>
</g>
</g>
<!-- cluster_cluster_&#45;2202121249019829706&#45;47978019153175722133963617121611033797&#45;&gt;cluster_cluster_&#45;2202121249019829706&#45;4797801915317572213&#45;2427563387242055365 -->
<g id="edge2" class="edge"><title>cluster_cluster_&#45;2202121249019829706&#45;47978019153175722133963617121611033797&#45;&gt;cluster_cluster_&#45;2202121249019829706&#45;4797801915317572213&#45;2427563387242055365</title>
<path fill="none" stroke="black" d="M178,-454.831C178,-454.831 178,-429.413 178,-429.413"/>
<polygon fill="black" stroke="black" points="181.5,-429.413 178,-419.413 174.5,-429.413 181.5,-429.413"/>
</g>
<!-- cluster_cluster_&#45;2202121249019829706&#45;47978019153175722134898250525195768687 -->
<g id="node4" class="node"><title>cluster_cluster_&#45;2202121249019829706&#45;47978019153175722134898250525195768687</title>
<g id="a_node4"><a xlink:href="./engine_coolant_temperature_model_selector/ECTM-wltp_l_errors.gv.svg" xlink:title="Calculates the error of calibrated model.">
<polygon fill="yellowgreen" stroke="black" points="384,-491 254,-491 254,-455 390,-455 390,-485 384,-491"/>
<polyline fill="none" stroke="black" points="384,-491 384,-485 "/>
<polyline fill="none" stroke="black" points="390,-485 384,-485 "/>
<text text-anchor="start" x="264.5" y="-468.8" font-family="Times New Roman,serif" font-size="14.00">ECTM&#45;wltp_l errors</text>
</a>
</g>
</g>
<!-- cluster_cluster_&#45;2202121249019829706&#45;4797801915317572213&#45;7302022848986384642 -->
<g id="node7" class="node"><title>cluster_cluster_&#45;2202121249019829706&#45;4797801915317572213&#45;7302022848986384642</title>
<g id="a_node7"><a xlink:title="error/wltp_l">
<path fill="cyan" stroke="black" d="M340,-419C340,-419 278,-419 278,-419 272,-419 266,-413 266,-407 266,-407 266,-395 266,-395 266,-389 272,-383 278,-383 278,-383 340,-383 340,-383 346,-383 352,-389 352,-395 352,-395 352,-407 352,-407 352,-413 346,-419 340,-419"/>
<text text-anchor="start" x="276" y="-396.8" font-family="Times New Roman,serif" font-size="14.00">error/wltp_l</text>
</a>
</g>
</g>
<!-- cluster_cluster_&#45;2202121249019829706&#45;47978019153175722134898250525195768687&#45;&gt;cluster_cluster_&#45;2202121249019829706&#45;4797801915317572213&#45;7302022848986384642 -->
<g id="edge3" class="edge"><title>cluster_cluster_&#45;2202121249019829706&#45;47978019153175722134898250525195768687&#45;&gt;cluster_cluster_&#45;2202121249019829706&#45;4797801915317572213&#45;7302022848986384642</title>
<path fill="none" stroke="black" d="M309,-454.831C309,-454.831 309,-429.413 309,-429.413"/>
<polygon fill="black" stroke="black" points="312.5,-429.413 309,-419.413 305.5,-429.413 312.5,-429.413"/>
</g>
<!-- cluster_cluster_&#45;2202121249019829706&#45;4797801915317572213&#45;1155624115735331312 -->
<g id="node5" class="node"><title>cluster_cluster_&#45;2202121249019829706&#45;4797801915317572213&#45;1155624115735331312</title>
<g id="a_node5"><a xlink:href="./alternator_model_selector/co2mpas.model.selectordefine_selector_settings.txt" xlink:title="define_selector_settings">
<polygon fill="springgreen" stroke="black" points="186,-635 30,-635 30,-599 186,-599 186,-635"/>
<text text-anchor="start" x="40.5" y="-612.8" font-family="Times New Roman,serif" font-size="14.00">define_selector_settings</text>
</a>
</g>
</g>
<!-- cluster_cluster_&#45;2202121249019829706&#45;4797801915317572213&#45;1155624115735331312&#45;&gt;cluster_cluster_&#45;2202121249019829706&#45;47978019153175722139023193397416603680 -->
<g id="edge4" class="edge"><title>cluster_cluster_&#45;2202121249019829706&#45;4797801915317572213&#45;1155624115735331312&#45;&gt;cluster_cluster_&#45;2202121249019829706&#45;47978019153175722139023193397416603680</title>
<path fill="none" stroke="black" d="M63,-598.984C63,-598.984 63,-357.009 63,-357.009"/>
<polygon fill="black" stroke="black" points="66.5001,-357.009 63,-347.009 59.5001,-357.009 66.5001,-357.009"/>
</g>
<!-- cluster_cluster_&#45;2202121249019829706&#45;4797801915317572213&#45;3431188338771875485 -->
<g id="node8" class="node"><title>cluster_cluster_&#45;2202121249019829706&#45;4797801915317572213&#45;3431188338771875485</title>
<g id="a_node8"><a xlink:title="error_settings">
<path fill="cyan" stroke="black" d="M186,-563C186,-563 112,-563 112,-563 106,-563 100,-557 100,-551 100,-551 100,-539 100,-539 100,-533 106,-527 112,-527 112,-527 186,-527 186,-527 192,-527 198,-533 198,-539 198,-539 198,-551 198,-551 198,-557 192,-563 186,-563"/>
<text text-anchor="start" x="110.5" y="-540.8" font-family="Times New Roman,serif" font-size="14.00">error_settings</text>
</a>
</g>
</g>
<!-- cluster_cluster_&#45;2202121249019829706&#45;4797801915317572213&#45;1155624115735331312&#45;&gt;cluster_cluster_&#45;2202121249019829706&#45;4797801915317572213&#45;3431188338771875485 -->
<g id="edge5" class="edge"><title>cluster_cluster_&#45;2202121249019829706&#45;4797801915317572213&#45;1155624115735331312&#45;&gt;cluster_cluster_&#45;2202121249019829706&#45;4797801915317572213&#45;3431188338771875485</title>
<path fill="none" stroke="black" d="M143,-598.831C143,-598.831 143,-573.413 143,-573.413"/>
<polygon fill="black" stroke="black" points="146.5,-573.413 143,-563.413 139.5,-573.413 146.5,-573.413"/>
</g>
<!-- cluster_cluster_&#45;2202121249019829706&#45;47978019153175722134279092786024282651 -->
<g id="node14" class="node"><title>cluster_cluster_&#45;2202121249019829706&#45;47978019153175722134279092786024282651</title>
<g id="a_node14"><a xlink:href="./alternator_model_selector/sort_models.txt" xlink:title="sort_models">
<polygon fill="springgreen" stroke="black" points="244,-347 154,-347 154,-311 244,-311 244,-347"/>
<text text-anchor="start" x="164" y="-324.8" font-family="Times New Roman,serif" font-size="14.00">sort_models</text>
</a>
</g>
</g>
<!-- cluster_cluster_&#45;2202121249019829706&#45;4797801915317572213&#45;2427563387242055365&#45;&gt;cluster_cluster_&#45;2202121249019829706&#45;47978019153175722134279092786024282651 -->
<g id="edge6" class="edge"><title>cluster_cluster_&#45;2202121249019829706&#45;4797801915317572213&#45;2427563387242055365&#45;&gt;cluster_cluster_&#45;2202121249019829706&#45;47978019153175722134279092786024282651</title>
<path fill="none" stroke="black" d="M188.5,-382.831C188.5,-382.831 188.5,-357.413 188.5,-357.413"/>
<polygon fill="black" stroke="black" points="192,-357.413 188.5,-347.413 185,-357.413 192,-357.413"/>
</g>
<!-- cluster_cluster_&#45;2202121249019829706&#45;4797801915317572213&#45;7302022848986384642&#45;&gt;cluster_cluster_&#45;2202121249019829706&#45;47978019153175722134279092786024282651 -->
<g id="edge7" class="edge"><title>cluster_cluster_&#45;2202121249019829706&#45;4797801915317572213&#45;7302022848986384642&#45;&gt;cluster_cluster_&#45;2202121249019829706&#45;47978019153175722134279092786024282651</title>
<path fill="none" stroke="black" d="M265.693,-401C251.83,-401 240,-401 240,-401 240,-401 240,-357.169 240,-357.169"/>
<polygon fill="black" stroke="black" points="243.5,-357.169 240,-347.169 236.5,-357.169 243.5,-357.169"/>
</g>
<!-- cluster_cluster_&#45;2202121249019829706&#45;4797801915317572213&#45;3431188338771875485&#45;&gt;cluster_cluster_&#45;2202121249019829706&#45;47978019153175722133963617121611033797 -->
<g id="edge8" class="edge"><title>cluster_cluster_&#45;2202121249019829706&#45;4797801915317572213&#45;3431188338771875485&#45;&gt;cluster_cluster_&#45;2202121249019829706&#45;47978019153175722133963617121611033797</title>
<path fill="none" stroke="black" d="M132.667,-526.831C132.667,-526.831 132.667,-501.413 132.667,-501.413"/>
<polygon fill="black" stroke="black" points="136.167,-501.413 132.667,-491.413 129.167,-501.413 136.167,-501.413"/>
</g>
<!-- cluster_cluster_&#45;2202121249019829706&#45;4797801915317572213&#45;3431188338771875485&#45;&gt;cluster_cluster_&#45;2202121249019829706&#45;47978019153175722134898250525195768687 -->
<g id="edge9" class="edge"><title>cluster_cluster_&#45;2202121249019829706&#45;4797801915317572213&#45;3431188338771875485&#45;&gt;cluster_cluster_&#45;2202121249019829706&#45;47978019153175722134898250525195768687</title>
<path fill="none" stroke="black" d="M165.333,-526.857C165.333,-520.539 165.333,-515 165.333,-515 165.333,-515 261.333,-515 261.333,-515 261.333,-515 261.333,-501.056 261.333,-501.056"/>
<polygon fill="black" stroke="black" points="264.833,-501.055 261.333,-491.056 257.833,-501.056 264.833,-501.055"/>
</g>
<!-- cluster_cluster_&#45;2202121249019829706&#45;47978019153175722134409897952748087512 -->
<g id="node9" class="node"><title>cluster_cluster_&#45;2202121249019829706&#45;47978019153175722134409897952748087512</title>
<g id="a_node9"><a xlink:title="errors">
<path fill="cyan" stroke="black" d="M122,-131C122,-131 92,-131 92,-131 86,-131 80,-125 80,-119 80,-119 80,-107 80,-107 80,-101 86,-95 92,-95 92,-95 122,-95 122,-95 128,-95 134,-101 134,-107 134,-107 134,-119 134,-119 134,-125 128,-131 122,-131"/>
<text text-anchor="start" x="90" y="-108.8" font-family="Times New Roman,serif" font-size="14.00">errors</text>
</a>
</g>
</g>
<!-- cluster_cluster_&#45;2202121249019829706&#45;47978019153175722134409897952748087512&#45;&gt;cluster_cluster_&#45;2202121249019829706&#45;479780191531757221377532760 -->
<g id="edge10" class="edge"><title>cluster_cluster_&#45;2202121249019829706&#45;47978019153175722134409897952748087512&#45;&gt;cluster_cluster_&#45;2202121249019829706&#45;479780191531757221377532760</title>
<path fill="none" stroke="black" d="M124.128,-94.8314C124.128,-94.8314 124.128,-62.8389 124.128,-62.8389"/>
<polygon fill="black" stroke="black" points="127.628,-62.8389 124.128,-52.8389 120.628,-62.839 127.628,-62.8389"/>
<polygon fill="none" stroke="black" points="60.1283,-57.3351 60.1283,-78.3351 111.128,-78.3351 111.128,-57.3351 60.1283,-57.3351"/>
<text text-anchor="start" x="63.1283" y="-64.1351" font-family="Times New Roman,serif" font-size="14.00">out_id=</text>
<polygon fill="none" stroke="black" points="111.128,-57.3351 111.128,-78.3351 124.128,-78.3351 124.128,-57.3351 111.128,-57.3351"/>
<text text-anchor="start" x="114.128" y="-64.1351" font-family="Times New Roman,serif" font-size="14.00">1</text>
</g>
<!-- cluster_cluster_&#45;2202121249019829706&#45;4797801915317572213&#45;1584516978969530774&#45;&gt;cluster_cluster_&#45;2202121249019829706&#45;47978019153175722134409897952748087512 -->
<g id="edge11" class="edge"><title>cluster_cluster_&#45;2202121249019829706&#45;4797801915317572213&#45;1584516978969530774&#45;&gt;cluster_cluster_&#45;2202121249019829706&#45;47978019153175722134409897952748087512</title>
<path fill="none" stroke="black" d="M111,-166.831C111,-166.831 111,-141.413 111,-141.413"/>
<polygon fill="black" stroke="black" points="114.5,-141.413 111,-131.413 107.5,-141.413 114.5,-141.413"/>
</g>
<!-- cluster_cluster_&#45;2202121249019829706&#45;47978019153175722132699741909133148246 -->
<g id="node11" class="node"><title>cluster_cluster_&#45;2202121249019829706&#45;47978019153175722132699741909133148246</title>
<g id="a_node11"><a xlink:title="model">
<path fill="cyan" stroke="black" d="M196,-131C196,-131 164,-131 164,-131 158,-131 152,-125 152,-119 152,-119 152,-107 152,-107 152,-101 158,-95 164,-95 164,-95 196,-95 196,-95 202,-95 208,-101 208,-107 208,-107 208,-119 208,-119 208,-125 202,-131 196,-131"/>
<text text-anchor="start" x="162.5" y="-108.8" font-family="Times New Roman,serif" font-size="14.00">model</text>
</a>
</g>
</g>
<!-- cluster_cluster_&#45;2202121249019829706&#45;4797801915317572213&#45;1584516978969530774&#45;&gt;cluster_cluster_&#45;2202121249019829706&#45;47978019153175722132699741909133148246 -->
<g id="edge12" class="edge"><title>cluster_cluster_&#45;2202121249019829706&#45;4797801915317572213&#45;1584516978969530774&#45;&gt;cluster_cluster_&#45;2202121249019829706&#45;47978019153175722132699741909133148246</title>
<path fill="none" stroke="black" d="M175,-166.831C175,-166.831 175,-141.413 175,-141.413"/>
<polygon fill="black" stroke="black" points="178.5,-141.413 175,-131.413 171.5,-141.413 178.5,-141.413"/>
</g>
<!-- cluster_cluster_&#45;2202121249019829706&#45;47978019153175722132699741909133148246&#45;&gt;cluster_cluster_&#45;2202121249019829706&#45;479780191531757221377532760 -->
<g id="edge13" class="edge"><title>cluster_cluster_&#45;2202121249019829706&#45;47978019153175722132699741909133148246&#45;&gt;cluster_cluster_&#45;2202121249019829706&#45;479780191531757221377532760</title>
<path fill="none" stroke="black" d="M161.872,-94.8314C161.872,-94.8314 161.872,-62.8389 161.872,-62.8389"/>
<polygon fill="black" stroke="black" points="165.372,-62.8389 161.872,-52.8389 158.372,-62.839 165.372,-62.8389"/>
<polygon fill="none" stroke="black" points="161.872,-57.3351 161.872,-78.3351 212.872,-78.3351 212.872,-57.3351 161.872,-57.3351"/>
<text text-anchor="start" x="164.872" y="-64.1351" font-family="Times New Roman,serif" font-size="14.00">out_id=</text>
<polygon fill="none" stroke="black" points="212.872,-57.3351 212.872,-78.3351 225.872,-78.3351 225.872,-57.3351 212.872,-57.3351"/>
<text text-anchor="start" x="215.872" y="-64.1351" font-family="Times New Roman,serif" font-size="14.00">0</text>
</g>
<!-- cluster_cluster_&#45;2202121249019829706&#45;4797801915317572213&#45;6749006943951351882 -->
<g id="node12" class="node"><title>cluster_cluster_&#45;2202121249019829706&#45;4797801915317572213&#45;6749006943951351882</title>
<g id="a_node12"><a xlink:title="rank">
<path fill="cyan" stroke="black" d="M195,-275C195,-275 165,-275 165,-275 159,-275 153,-269 153,-263 153,-263 153,-251 153,-251 153,-245 159,-239 165,-239 165,-239 195,-239 195,-239 201,-239 207,-245 207,-251 207,-251 207,-263 207,-263 207,-269 201,-275 195,-275"/>
<text text-anchor="start" x="167.5" y="-252.8" font-family="Times New Roman,serif" font-size="14.00">rank</text>
</a>
</g>
</g>
<!-- cluster_cluster_&#45;2202121249019829706&#45;4797801915317572213&#45;6749006943951351882&#45;&gt;cluster_cluster_&#45;2202121249019829706&#45;4797801915317572213&#45;1584516978969530774 -->
<g id="edge14" class="edge"><title>cluster_cluster_&#45;2202121249019829706&#45;4797801915317572213&#45;6749006943951351882&#45;&gt;cluster_cluster_&#45;2202121249019829706&#45;4797801915317572213&#45;1584516978969530774</title>
<path fill="none" stroke="black" d="M175.5,-238.831C175.5,-238.831 175.5,-213.413 175.5,-213.413"/>
<polygon fill="black" stroke="black" points="179,-213.413 175.5,-203.413 172,-213.413 179,-213.413"/>
</g>
<!-- cluster_cluster_&#45;2202121249019829706&#45;47978019153175722132167525238374004597 -->
<g id="node13" class="node"><title>cluster_cluster_&#45;2202121249019829706&#45;47978019153175722132167525238374004597</title>
<g id="a_node13"><a xlink:title="selector_settings">
<path fill="cyan" stroke="black" d="M153,-719C153,-719 63,-719 63,-719 57,-719 51,-713 51,-707 51,-707 51,-683 51,-683 51,-677 57,-671 63,-671 63,-671 153,-671 153,-671 159,-671 165,-677 165,-683 165,-683 165,-707 165,-707 165,-713 159,-719 153,-719"/>
<text text-anchor="start" x="61" y="-701.8" font-family="Times New Roman,serif" font-size="14.00">selector_settings</text>
<polygon fill="none" stroke="black" points="59,-675 59,-696 124,-696 124,-675 59,-675"/>
<text text-anchor="start" x="75" y="-681.8" font-family="Times New Roman,serif" font-size="14.00">default=</text>
<polygon fill="none" stroke="black" points="124,-675 124,-696 157,-696 157,-675 124,-675"/>
<text text-anchor="start" x="127" y="-681.8" font-family="Times New Roman,serif" font-size="14.00">{}</text>
</a>
</g>
</g>
<!-- cluster_cluster_&#45;2202121249019829706&#45;47978019153175722132167525238374004597&#45;&gt;cluster_cluster_&#45;2202121249019829706&#45;4797801915317572213&#45;1155624115735331312 -->
<g id="edge15" class="edge"><title>cluster_cluster_&#45;2202121249019829706&#45;47978019153175722132167525238374004597&#45;&gt;cluster_cluster_&#45;2202121249019829706&#45;4797801915317572213&#45;1155624115735331312</title>
<path fill="none" stroke="black" d="M108,-670.748C108,-670.748 108,-645.288 108,-645.288"/>
<polygon fill="black" stroke="black" points="111.5,-645.287 108,-635.288 104.5,-645.288 111.5,-645.287"/>
</g>
<!-- cluster_cluster_&#45;2202121249019829706&#45;47978019153175722134279092786024282651&#45;&gt;cluster_cluster_&#45;2202121249019829706&#45;4797801915317572213&#45;6749006943951351882 -->
<g id="edge16" class="edge"><title>cluster_cluster_&#45;2202121249019829706&#45;47978019153175722134279092786024282651&#45;&gt;cluster_cluster_&#45;2202121249019829706&#45;4797801915317572213&#45;6749006943951351882</title>
<path fill="none" stroke="black" d="M180.5,-310.831C180.5,-310.831 180.5,-285.413 180.5,-285.413"/>
<polygon fill="black" stroke="black" points="184,-285.413 180.5,-275.413 177,-285.413 184,-285.413"/>
</g>
<!-- cluster_cluster_&#45;2202121249019829706&#45;47978019153175722134712647501736754553 -->
<g id="node15" class="node"><title>cluster_cluster_&#45;2202121249019829706&#45;47978019153175722134712647501736754553</title>
<g id="a_node15"><a xlink:title="A sequence of data.">
<path fill="cyan" stroke="black" d="M264,-563C264,-563 228,-563 228,-563 222,-563 216,-557 216,-551 216,-551 216,-539 216,-539 216,-533 222,-527 228,-527 228,-527 264,-527 264,-527 270,-527 276,-533 276,-539 276,-539 276,-551 276,-551 276,-557 270,-563 264,-563"/>
<text text-anchor="start" x="226.5" y="-540.8" font-family="Times New Roman,serif" font-size="14.00">wltp_h</text>
</a>
</g>
</g>
<!-- cluster_cluster_&#45;2202121249019829706&#45;47978019153175722134712647501736754553&#45;&gt;cluster_cluster_&#45;2202121249019829706&#45;47978019153175722133963617121611033797 -->
<g id="edge17" class="edge"><title>cluster_cluster_&#45;2202121249019829706&#45;47978019153175722134712647501736754553&#45;&gt;cluster_cluster_&#45;2202121249019829706&#45;47978019153175722133963617121611033797</title>
<path fill="none" stroke="black" d="M222.667,-526.831C222.667,-526.831 222.667,-501.413 222.667,-501.413"/>
<polygon fill="black" stroke="black" points="226.167,-501.413 222.667,-491.413 219.167,-501.413 226.167,-501.413"/>
</g>
<!-- cluster_cluster_&#45;2202121249019829706&#45;47978019153175722134712647501736754553&#45;&gt;cluster_cluster_&#45;2202121249019829706&#45;47978019153175722134898250525195768687 -->
<g id="edge18" class="edge"><title>cluster_cluster_&#45;2202121249019829706&#45;47978019153175722134712647501736754553&#45;&gt;cluster_cluster_&#45;2202121249019829706&#45;47978019153175722134898250525195768687</title>
<path fill="none" stroke="black" d="M268.667,-526.831C268.667,-526.831 268.667,-501.413 268.667,-501.413"/>
<polygon fill="black" stroke="black" points="272.167,-501.413 268.667,-491.413 265.167,-501.413 272.167,-501.413"/>
</g>
<!-- cluster_cluster_&#45;2202121249019829706&#45;4797801915317572213&#45;4779657526738643707 -->
<g id="node16" class="node"><title>cluster_cluster_&#45;2202121249019829706&#45;4797801915317572213&#45;4779657526738643707</title>
<g id="a_node16"><a xlink:title="A sequence of data.">
<path fill="cyan" stroke="black" d="M338,-563C338,-563 306,-563 306,-563 300,-563 294,-557 294,-551 294,-551 294,-539 294,-539 294,-533 300,-527 306,-527 306,-527 338,-527 338,-527 344,-527 350,-533 350,-539 350,-539 350,-551 350,-551 350,-557 344,-563 338,-563"/>
<text text-anchor="start" x="304.5" y="-540.8" font-family="Times New Roman,serif" font-size="14.00">wltp_l</text>
</a>
</g>
</g>
<!-- cluster_cluster_&#45;2202121249019829706&#45;4797801915317572213&#45;4779657526738643707&#45;&gt;cluster_cluster_&#45;2202121249019829706&#45;47978019153175722133963617121611033797 -->
<g id="edge19" class="edge"><title>cluster_cluster_&#45;2202121249019829706&#45;4797801915317572213&#45;4779657526738643707&#45;&gt;cluster_cluster_&#45;2202121249019829706&#45;47978019153175722133963617121611033797</title>
<path fill="none" stroke="black" d="M312.667,-526.944C312.667,-515.561 312.667,-503 312.667,-503 312.667,-503 229.333,-503 229.333,-503 229.333,-503 229.333,-501.143 229.333,-501.143"/>
<polygon fill="black" stroke="black" points="232.833,-501.143 229.333,-491.143 225.833,-501.143 232.833,-501.143"/>
</g>
<!-- cluster_cluster_&#45;2202121249019829706&#45;4797801915317572213&#45;4779657526738643707&#45;&gt;cluster_cluster_&#45;2202121249019829706&#45;47978019153175722134898250525195768687 -->
<g id="edge20" class="edge"><title>cluster_cluster_&#45;2202121249019829706&#45;4797801915317572213&#45;4779657526738643707&#45;&gt;cluster_cluster_&#45;2202121249019829706&#45;47978019153175722134898250525195768687</title>
<path fill="none" stroke="black" d="M331.333,-526.831C331.333,-526.831 331.333,-501.413 331.333,-501.413"/>
<polygon fill="black" stroke="black" points="334.833,-501.413 331.333,-491.413 327.833,-501.413 334.833,-501.413"/>
</g>
</g>
</svg>
