<?xml version="1.0" encoding="UTF-8" standalone="no"?>
<!DOCTYPE svg PUBLIC "-//W3C//DTD SVG 1.1//EN"
 "http://www.w3.org/Graphics/SVG/1.1/DTD/svg11.dtd">
<!-- Generated by graphviz version 2.38.0 (20140413.2041)
 -->
<!-- Title: cluster_engine_cold_start_speed_model selector Pages: 1 -->
<svg width="414pt" height="727pt"
 viewBox="0.00 0.00 414.00 727.00" xmlns="http://www.w3.org/2000/svg" xmlns:xlink="http://www.w3.org/1999/xlink">
<g id="graph0" class="graph" transform="scale(1 1) rotate(0) translate(4 723)">
<title>cluster_engine_cold_start_speed_model selector</title>
<polygon fill="white" stroke="none" points="-4,4 -4,-723 410,-723 410,4 -4,4"/>
<text text-anchor="start" x="88.5" y="-7.8" font-family="Times New Roman,serif" font-size="14.00">engine_cold_start_speed_model selector</text>
<!-- cluster_cluster_&#45;2202121249019829706&#45;898652673743721508877532760 -->
<g id="node1" class="node"><title>cluster_cluster_&#45;2202121249019829706&#45;898652673743721508877532760</title>
<g id="a_node1"><a xlink:title="end">
<polygon fill="blue" stroke="black" points="145.683,-23.0493 147.459,-23.1479 149.216,-23.2953 150.948,-23.4913 152.648,-23.7353 154.308,-24.0266 155.923,-24.3645 157.485,-24.7479 158.989,-25.1759 160.429,-25.6472 161.8,-26.1606 163.098,-26.7147 164.317,-27.308 165.455,-27.9388 166.507,-28.6054 167.472,-29.3059 168.346,-30.0385 169.127,-30.8012 169.815,-31.5918 170.408,-32.4082 170.906,-33.2481 171.309,-34.1093 171.617,-34.9894 171.832,-35.886 171.956,-36.7965 171.989,-37.7186 171.934,-38.6497 171.794,-39.5873 171.571,-40.5287 171.269,-41.4713 170.89,-42.4127 170.439,-43.3503 169.918,-44.2814 169.332,-45.2035 168.685,-46.114 167.981,-47.0106 167.223,-47.8907 166.415,-48.7519 165.561,-49.5918 164.666,-50.4082 163.732,-51.1988 162.764,-51.9615 161.764,-52.6941 160.737,-53.3946 159.684,-54.0612 158.61,-54.692 157.516,-55.2853 156.405,-55.8394 155.28,-56.3528 154.142,-56.8241 152.994,-57.2521 151.837,-57.6355 150.672,-57.9734 149.501,-58.2647 148.325,-58.5087 147.145,-58.7047 145.963,-58.8521 144.779,-58.9507 143.593,-59 142.407,-59 141.221,-58.9507 140.037,-58.8521 138.855,-58.7047 137.675,-58.5087 136.499,-58.2647 135.328,-57.9734 134.163,-57.6355 133.006,-57.2521 131.858,-56.8241 130.72,-56.3528 129.595,-55.8394 128.484,-55.2853 127.39,-54.692 126.316,-54.0612 125.263,-53.3946 124.236,-52.6941 123.236,-51.9615 122.268,-51.1988 121.334,-50.4082 120.439,-49.5918 119.585,-48.7519 118.777,-47.8907 118.019,-47.0106 117.315,-46.114 116.668,-45.2035 116.082,-44.2814 115.561,-43.3503 115.11,-42.4127 114.731,-41.4713 114.429,-40.5287 114.206,-39.5873 114.066,-38.6497 114.011,-37.7186 114.044,-36.7965 114.168,-35.886 114.383,-34.9894 114.691,-34.1093 115.094,-33.2481 115.592,-32.4082 116.185,-31.5918 116.873,-30.8012 117.654,-30.0385 118.528,-29.3059 119.493,-28.6054 120.545,-27.9388 121.683,-27.308 122.902,-26.7147 124.2,-26.1606 125.571,-25.6472 127.011,-25.1759 128.515,-24.7479 130.077,-24.3645 131.692,-24.0266 133.352,-23.7353 135.052,-23.4913 136.784,-23.2953 138.541,-23.1479 140.317,-23.0493 142.105,-23 143.895,-23 145.683,-23.0493"/>
<text text-anchor="middle" x="143" y="-37.3" font-family="Times New Roman,serif" font-size="14.00">end</text>
</a>
</g>
</g>
<!-- cluster_cluster_&#45;2202121249019829706&#45;89865267374372150889023193397416603680 -->
<g id="node2" class="node"><title>cluster_cluster_&#45;2202121249019829706&#45;89865267374372150889023193397416603680</title>
<g id="a_node2"><a xlink:title="best_model_settings">
<path fill="cyan" stroke="black" d="M124,-347C124,-347 12,-347 12,-347 6,-347 0,-341 0,-335 0,-335 0,-323 0,-323 0,-317 6,-311 12,-311 12,-311 124,-311 124,-311 130,-311 136,-317 136,-323 136,-323 136,-335 136,-335 136,-341 130,-347 124,-347"/>
<text text-anchor="start" x="10.5" y="-324.8" font-family="Times New Roman,serif" font-size="14.00">best_model_settings</text>
</a>
</g>
</g>
<!-- cluster_cluster_&#45;2202121249019829706&#45;8986526737437215088&#45;1584516978969530774 -->
<g id="node10" class="node"><title>cluster_cluster_&#45;2202121249019829706&#45;8986526737437215088&#45;1584516978969530774</title>
<g id="a_node10"><a xlink:href="./alternator_model_selector/get_best_model.txt" xlink:title="get_best_model">
<polygon fill="springgreen" stroke="black" points="198,-203 88,-203 88,-167 198,-167 198,-203"/>
<text text-anchor="start" x="98" y="-180.8" font-family="Times New Roman,serif" font-size="14.00">get_best_model</text>
</a>
</g>
</g>
<!-- cluster_cluster_&#45;2202121249019829706&#45;89865267374372150889023193397416603680&#45;&gt;cluster_cluster_&#45;2202121249019829706&#45;8986526737437215088&#45;1584516978969530774 -->
<g id="edge1" class="edge"><title>cluster_cluster_&#45;2202121249019829706&#45;89865267374372150889023193397416603680&#45;&gt;cluster_cluster_&#45;2202121249019829706&#45;8986526737437215088&#45;1584516978969530774</title>
<path fill="none" stroke="black" d="M112,-310.762C112,-310.762 112,-213.09 112,-213.09"/>
<polygon fill="black" stroke="black" points="115.5,-213.09 112,-203.09 108.5,-213.09 115.5,-213.09"/>
</g>
<!-- cluster_cluster_&#45;2202121249019829706&#45;89865267374372150888263976548806303400 -->
<g id="node3" class="node"><title>cluster_cluster_&#45;2202121249019829706&#45;89865267374372150888263976548806303400</title>
<g id="a_node3"><a xlink:href="./engine_cold_start_speed_model_selector/ECSSM-wltp_h_errors.gv.svg" xlink:title="Calculates the error of calibrated model.">
<polygon fill="yellowgreen" stroke="black" points="238,-491 96,-491 96,-455 244,-455 244,-485 238,-491"/>
<polyline fill="none" stroke="black" points="238,-491 238,-485 "/>
<polyline fill="none" stroke="black" points="244,-485 238,-485 "/>
<text text-anchor="start" x="106.5" y="-468.8" font-family="Times New Roman,serif" font-size="14.00">ECSSM&#45;wltp_h errors</text>
</a>
</g>
</g>
<!-- cluster_cluster_&#45;2202121249019829706&#45;8986526737437215088&#45;2427563387242055365 -->
<g id="node6" class="node"><title>cluster_cluster_&#45;2202121249019829706&#45;8986526737437215088&#45;2427563387242055365</title>
<g id="a_node6"><a xlink:title="error/wltp_h">
<path fill="cyan" stroke="black" d="M217,-419C217,-419 151,-419 151,-419 145,-419 139,-413 139,-407 139,-407 139,-395 139,-395 139,-389 145,-383 151,-383 151,-383 217,-383 217,-383 223,-383 229,-389 229,-395 229,-395 229,-407 229,-407 229,-413 223,-419 217,-419"/>
<text text-anchor="start" x="149" y="-396.8" font-family="Times New Roman,serif" font-size="14.00">error/wltp_h</text>
</a>
</g>
</g>
<!-- cluster_cluster_&#45;2202121249019829706&#45;89865267374372150888263976548806303400&#45;&gt;cluster_cluster_&#45;2202121249019829706&#45;8986526737437215088&#45;2427563387242055365 -->
<g id="edge2" class="edge"><title>cluster_cluster_&#45;2202121249019829706&#45;89865267374372150888263976548806303400&#45;&gt;cluster_cluster_&#45;2202121249019829706&#45;8986526737437215088&#45;2427563387242055365</title>
<path fill="none" stroke="black" d="M184,-454.831C184,-454.831 184,-429.413 184,-429.413"/>
<polygon fill="black" stroke="black" points="187.5,-429.413 184,-419.413 180.5,-429.413 187.5,-429.413"/>
</g>
<!-- cluster_cluster_&#45;2202121249019829706&#45;8986526737437215088&#45;240294359443136749 -->
<g id="node4" class="node"><title>cluster_cluster_&#45;2202121249019829706&#45;8986526737437215088&#45;240294359443136749</title>
<g id="a_node4"><a xlink:href="./engine_cold_start_speed_model_selector/ECSSM-wltp_l_errors.gv.svg" xlink:title="Calculates the error of calibrated model.">
<polygon fill="yellowgreen" stroke="black" points="400,-491 262,-491 262,-455 406,-455 406,-485 400,-491"/>
<polyline fill="none" stroke="black" points="400,-491 400,-485 "/>
<polyline fill="none" stroke="black" points="406,-485 400,-485 "/>
<text text-anchor="start" x="272.5" y="-468.8" font-family="Times New Roman,serif" font-size="14.00">ECSSM&#45;wltp_l errors</text>
</a>
</g>
</g>
<!-- cluster_cluster_&#45;2202121249019829706&#45;8986526737437215088&#45;7302022848986384642 -->
<g id="node7" class="node"><title>cluster_cluster_&#45;2202121249019829706&#45;8986526737437215088&#45;7302022848986384642</title>
<g id="a_node7"><a xlink:title="error/wltp_l">
<path fill="cyan" stroke="black" d="M350,-419C350,-419 288,-419 288,-419 282,-419 276,-413 276,-407 276,-407 276,-395 276,-395 276,-389 282,-383 288,-383 288,-383 350,-383 350,-383 356,-383 362,-389 362,-395 362,-395 362,-407 362,-407 362,-413 356,-419 350,-419"/>
<text text-anchor="start" x="286" y="-396.8" font-family="Times New Roman,serif" font-size="14.00">error/wltp_l</text>
</a>
</g>
</g>
<!-- cluster_cluster_&#45;2202121249019829706&#45;8986526737437215088&#45;240294359443136749&#45;&gt;cluster_cluster_&#45;2202121249019829706&#45;8986526737437215088&#45;7302022848986384642 -->
<g id="edge3" class="edge"><title>cluster_cluster_&#45;2202121249019829706&#45;8986526737437215088&#45;240294359443136749&#45;&gt;cluster_cluster_&#45;2202121249019829706&#45;8986526737437215088&#45;7302022848986384642</title>
<path fill="none" stroke="black" d="M319,-454.831C319,-454.831 319,-429.413 319,-429.413"/>
<polygon fill="black" stroke="black" points="322.5,-429.413 319,-419.413 315.5,-429.413 322.5,-429.413"/>
</g>
<!-- cluster_cluster_&#45;2202121249019829706&#45;8986526737437215088&#45;1155624115735331312 -->
<g id="node5" class="node"><title>cluster_cluster_&#45;2202121249019829706&#45;8986526737437215088&#45;1155624115735331312</title>
<g id="a_node5"><a xlink:href="./alternator_model_selector/co2mpas.model.selectordefine_selector_settings.txt" xlink:title="define_selector_settings">
<polygon fill="springgreen" stroke="black" points="192,-635 36,-635 36,-599 192,-599 192,-635"/>
<text text-anchor="start" x="46.5" y="-612.8" font-family="Times New Roman,serif" font-size="14.00">define_selector_settings</text>
</a>
</g>
</g>
<!-- cluster_cluster_&#45;2202121249019829706&#45;8986526737437215088&#45;1155624115735331312&#45;&gt;cluster_cluster_&#45;2202121249019829706&#45;89865267374372150889023193397416603680 -->
<g id="edge4" class="edge"><title>cluster_cluster_&#45;2202121249019829706&#45;8986526737437215088&#45;1155624115735331312&#45;&gt;cluster_cluster_&#45;2202121249019829706&#45;89865267374372150889023193397416603680</title>
<path fill="none" stroke="black" d="M66,-598.984C66,-598.984 66,-357.009 66,-357.009"/>
<polygon fill="black" stroke="black" points="69.5001,-357.009 66,-347.009 62.5001,-357.009 69.5001,-357.009"/>
</g>
<!-- cluster_cluster_&#45;2202121249019829706&#45;8986526737437215088&#45;3431188338771875485 -->
<g id="node8" class="node"><title>cluster_cluster_&#45;2202121249019829706&#45;8986526737437215088&#45;3431188338771875485</title>
<g id="a_node8"><a xlink:title="error_settings">
<path fill="cyan" stroke="black" d="M198,-563C198,-563 124,-563 124,-563 118,-563 112,-557 112,-551 112,-551 112,-539 112,-539 112,-533 118,-527 124,-527 124,-527 198,-527 198,-527 204,-527 210,-533 210,-539 210,-539 210,-551 210,-551 210,-557 204,-563 198,-563"/>
<text text-anchor="start" x="122.5" y="-540.8" font-family="Times New Roman,serif" font-size="14.00">error_settings</text>
</a>
</g>
</g>
<!-- cluster_cluster_&#45;2202121249019829706&#45;8986526737437215088&#45;1155624115735331312&#45;&gt;cluster_cluster_&#45;2202121249019829706&#45;8986526737437215088&#45;3431188338771875485 -->
<g id="edge5" class="edge"><title>cluster_cluster_&#45;2202121249019829706&#45;8986526737437215088&#45;1155624115735331312&#45;&gt;cluster_cluster_&#45;2202121249019829706&#45;8986526737437215088&#45;3431188338771875485</title>
<path fill="none" stroke="black" d="M152,-598.831C152,-598.831 152,-573.413 152,-573.413"/>
<polygon fill="black" stroke="black" points="155.5,-573.413 152,-563.413 148.5,-573.413 155.5,-573.413"/>
</g>
<!-- cluster_cluster_&#45;2202121249019829706&#45;89865267374372150884279092786024282651 -->
<g id="node14" class="node"><title>cluster_cluster_&#45;2202121249019829706&#45;89865267374372150884279092786024282651</title>
<g id="a_node14"><a xlink:href="./alternator_model_selector/sort_models.txt" xlink:title="sort_models">
<polygon fill="springgreen" stroke="black" points="244,-347 154,-347 154,-311 244,-311 244,-347"/>
<text text-anchor="start" x="164" y="-324.8" font-family="Times New Roman,serif" font-size="14.00">sort_models</text>
</a>
</g>
</g>
<!-- cluster_cluster_&#45;2202121249019829706&#45;8986526737437215088&#45;2427563387242055365&#45;&gt;cluster_cluster_&#45;2202121249019829706&#45;89865267374372150884279092786024282651 -->
<g id="edge6" class="edge"><title>cluster_cluster_&#45;2202121249019829706&#45;8986526737437215088&#45;2427563387242055365&#45;&gt;cluster_cluster_&#45;2202121249019829706&#45;89865267374372150884279092786024282651</title>
<path fill="none" stroke="black" d="M191.5,-382.831C191.5,-382.831 191.5,-357.413 191.5,-357.413"/>
<polygon fill="black" stroke="black" points="195,-357.413 191.5,-347.413 188,-357.413 195,-357.413"/>
</g>
<!-- cluster_cluster_&#45;2202121249019829706&#45;8986526737437215088&#45;7302022848986384642&#45;&gt;cluster_cluster_&#45;2202121249019829706&#45;89865267374372150884279092786024282651 -->
<g id="edge7" class="edge"><title>cluster_cluster_&#45;2202121249019829706&#45;8986526737437215088&#45;7302022848986384642&#45;&gt;cluster_cluster_&#45;2202121249019829706&#45;89865267374372150884279092786024282651</title>
<path fill="none" stroke="black" d="M275.817,-401C255.856,-401 236.5,-401 236.5,-401 236.5,-401 236.5,-357.169 236.5,-357.169"/>
<polygon fill="black" stroke="black" points="240,-357.169 236.5,-347.169 233,-357.169 240,-357.169"/>
</g>
<!-- cluster_cluster_&#45;2202121249019829706&#45;8986526737437215088&#45;3431188338771875485&#45;&gt;cluster_cluster_&#45;2202121249019829706&#45;89865267374372150888263976548806303400 -->
<g id="edge8" class="edge"><title>cluster_cluster_&#45;2202121249019829706&#45;8986526737437215088&#45;3431188338771875485&#45;&gt;cluster_cluster_&#45;2202121249019829706&#45;89865267374372150888263976548806303400</title>
<path fill="none" stroke="black" d="M144.667,-526.831C144.667,-526.831 144.667,-501.413 144.667,-501.413"/>
<polygon fill="black" stroke="black" points="148.167,-501.413 144.667,-491.413 141.167,-501.413 148.167,-501.413"/>
</g>
<!-- cluster_cluster_&#45;2202121249019829706&#45;8986526737437215088&#45;3431188338771875485&#45;&gt;cluster_cluster_&#45;2202121249019829706&#45;8986526737437215088&#45;240294359443136749 -->
<g id="edge9" class="edge"><title>cluster_cluster_&#45;2202121249019829706&#45;8986526737437215088&#45;3431188338771875485&#45;&gt;cluster_cluster_&#45;2202121249019829706&#45;8986526737437215088&#45;240294359443136749</title>
<path fill="none" stroke="black" d="M177.333,-526.857C177.333,-520.539 177.333,-515 177.333,-515 177.333,-515 270.667,-515 270.667,-515 270.667,-515 270.667,-501.056 270.667,-501.056"/>
<polygon fill="black" stroke="black" points="274.167,-501.055 270.667,-491.056 267.167,-501.056 274.167,-501.055"/>
</g>
<!-- cluster_cluster_&#45;2202121249019829706&#45;89865267374372150884409897952748087512 -->
<g id="node9" class="node"><title>cluster_cluster_&#45;2202121249019829706&#45;89865267374372150884409897952748087512</title>
<g id="a_node9"><a xlink:title="errors">
<path fill="cyan" stroke="black" d="M122,-131C122,-131 92,-131 92,-131 86,-131 80,-125 80,-119 80,-119 80,-107 80,-107 80,-101 86,-95 92,-95 92,-95 122,-95 122,-95 128,-95 134,-101 134,-107 134,-107 134,-119 134,-119 134,-125 128,-131 122,-131"/>
<text text-anchor="start" x="90" y="-108.8" font-family="Times New Roman,serif" font-size="14.00">errors</text>
</a>
</g>
</g>
<!-- cluster_cluster_&#45;2202121249019829706&#45;89865267374372150884409897952748087512&#45;&gt;cluster_cluster_&#45;2202121249019829706&#45;898652673743721508877532760 -->
<g id="edge10" class="edge"><title>cluster_cluster_&#45;2202121249019829706&#45;89865267374372150884409897952748087512&#45;&gt;cluster_cluster_&#45;2202121249019829706&#45;898652673743721508877532760</title>
<path fill="none" stroke="black" d="M124.128,-94.8314C124.128,-94.8314 124.128,-62.8389 124.128,-62.8389"/>
<polygon fill="black" stroke="black" points="127.628,-62.8389 124.128,-52.8389 120.628,-62.839 127.628,-62.8389"/>
<polygon fill="none" stroke="black" points="60.1283,-57.3351 60.1283,-78.3351 111.128,-78.3351 111.128,-57.3351 60.1283,-57.3351"/>
<text text-anchor="start" x="63.1283" y="-64.1351" font-family="Times New Roman,serif" font-size="14.00">out_id=</text>
<polygon fill="none" stroke="black" points="111.128,-57.3351 111.128,-78.3351 124.128,-78.3351 124.128,-57.3351 111.128,-57.3351"/>
<text text-anchor="start" x="114.128" y="-64.1351" font-family="Times New Roman,serif" font-size="14.00">1</text>
</g>
<!-- cluster_cluster_&#45;2202121249019829706&#45;8986526737437215088&#45;1584516978969530774&#45;&gt;cluster_cluster_&#45;2202121249019829706&#45;89865267374372150884409897952748087512 -->
<g id="edge11" class="edge"><title>cluster_cluster_&#45;2202121249019829706&#45;8986526737437215088&#45;1584516978969530774&#45;&gt;cluster_cluster_&#45;2202121249019829706&#45;89865267374372150884409897952748087512</title>
<path fill="none" stroke="black" d="M111,-166.831C111,-166.831 111,-141.413 111,-141.413"/>
<polygon fill="black" stroke="black" points="114.5,-141.413 111,-131.413 107.5,-141.413 114.5,-141.413"/>
</g>
<!-- cluster_cluster_&#45;2202121249019829706&#45;89865267374372150882699741909133148246 -->
<g id="node11" class="node"><title>cluster_cluster_&#45;2202121249019829706&#45;89865267374372150882699741909133148246</title>
<g id="a_node11"><a xlink:title="model">
<path fill="cyan" stroke="black" d="M196,-131C196,-131 164,-131 164,-131 158,-131 152,-125 152,-119 152,-119 152,-107 152,-107 152,-101 158,-95 164,-95 164,-95 196,-95 196,-95 202,-95 208,-101 208,-107 208,-107 208,-119 208,-119 208,-125 202,-131 196,-131"/>
<text text-anchor="start" x="162.5" y="-108.8" font-family="Times New Roman,serif" font-size="14.00">model</text>
</a>
</g>
</g>
<!-- cluster_cluster_&#45;2202121249019829706&#45;8986526737437215088&#45;1584516978969530774&#45;&gt;cluster_cluster_&#45;2202121249019829706&#45;89865267374372150882699741909133148246 -->
<g id="edge12" class="edge"><title>cluster_cluster_&#45;2202121249019829706&#45;8986526737437215088&#45;1584516978969530774&#45;&gt;cluster_cluster_&#45;2202121249019829706&#45;89865267374372150882699741909133148246</title>
<path fill="none" stroke="black" d="M175,-166.831C175,-166.831 175,-141.413 175,-141.413"/>
<polygon fill="black" stroke="black" points="178.5,-141.413 175,-131.413 171.5,-141.413 178.5,-141.413"/>
</g>
<!-- cluster_cluster_&#45;2202121249019829706&#45;89865267374372150882699741909133148246&#45;&gt;cluster_cluster_&#45;2202121249019829706&#45;898652673743721508877532760 -->
<g id="edge13" class="edge"><title>cluster_cluster_&#45;2202121249019829706&#45;89865267374372150882699741909133148246&#45;&gt;cluster_cluster_&#45;2202121249019829706&#45;898652673743721508877532760</title>
<path fill="none" stroke="black" d="M161.872,-94.8314C161.872,-94.8314 161.872,-62.8389 161.872,-62.8389"/>
<polygon fill="black" stroke="black" points="165.372,-62.8389 161.872,-52.8389 158.372,-62.839 165.372,-62.8389"/>
<polygon fill="none" stroke="black" points="161.872,-57.3351 161.872,-78.3351 212.872,-78.3351 212.872,-57.3351 161.872,-57.3351"/>
<text text-anchor="start" x="164.872" y="-64.1351" font-family="Times New Roman,serif" font-size="14.00">out_id=</text>
<polygon fill="none" stroke="black" points="212.872,-57.3351 212.872,-78.3351 225.872,-78.3351 225.872,-57.3351 212.872,-57.3351"/>
<text text-anchor="start" x="215.872" y="-64.1351" font-family="Times New Roman,serif" font-size="14.00">0</text>
</g>
<!-- cluster_cluster_&#45;2202121249019829706&#45;8986526737437215088&#45;6749006943951351882 -->
<g id="node12" class="node"><title>cluster_cluster_&#45;2202121249019829706&#45;8986526737437215088&#45;6749006943951351882</title>
<g id="a_node12"><a xlink:title="rank">
<path fill="cyan" stroke="black" d="M195,-275C195,-275 165,-275 165,-275 159,-275 153,-269 153,-263 153,-263 153,-251 153,-251 153,-245 159,-239 165,-239 165,-239 195,-239 195,-239 201,-239 207,-245 207,-251 207,-251 207,-263 207,-263 207,-269 201,-275 195,-275"/>
<text text-anchor="start" x="167.5" y="-252.8" font-family="Times New Roman,serif" font-size="14.00">rank</text>
</a>
</g>
</g>
<!-- cluster_cluster_&#45;2202121249019829706&#45;8986526737437215088&#45;6749006943951351882&#45;&gt;cluster_cluster_&#45;2202121249019829706&#45;8986526737437215088&#45;1584516978969530774 -->
<g id="edge14" class="edge"><title>cluster_cluster_&#45;2202121249019829706&#45;8986526737437215088&#45;6749006943951351882&#45;&gt;cluster_cluster_&#45;2202121249019829706&#45;8986526737437215088&#45;1584516978969530774</title>
<path fill="none" stroke="black" d="M175.5,-238.831C175.5,-238.831 175.5,-213.413 175.5,-213.413"/>
<polygon fill="black" stroke="black" points="179,-213.413 175.5,-203.413 172,-213.413 179,-213.413"/>
</g>
<!-- cluster_cluster_&#45;2202121249019829706&#45;89865267374372150882167525238374004597 -->
<g id="node13" class="node"><title>cluster_cluster_&#45;2202121249019829706&#45;89865267374372150882167525238374004597</title>
<g id="a_node13"><a xlink:title="selector_settings">
<path fill="cyan" stroke="black" d="M159,-719C159,-719 69,-719 69,-719 63,-719 57,-713 57,-707 57,-707 57,-683 57,-683 57,-677 63,-671 69,-671 69,-671 159,-671 159,-671 165,-671 171,-677 171,-683 171,-683 171,-707 171,-707 171,-713 165,-719 159,-719"/>
<text text-anchor="start" x="67" y="-701.8" font-family="Times New Roman,serif" font-size="14.00">selector_settings</text>
<polygon fill="none" stroke="black" points="65,-675 65,-696 130,-696 130,-675 65,-675"/>
<text text-anchor="start" x="81" y="-681.8" font-family="Times New Roman,serif" font-size="14.00">default=</text>
<polygon fill="none" stroke="black" points="130,-675 130,-696 163,-696 163,-675 130,-675"/>
<text text-anchor="start" x="133" y="-681.8" font-family="Times New Roman,serif" font-size="14.00">{}</text>
</a>
</g>
</g>
<!-- cluster_cluster_&#45;2202121249019829706&#45;89865267374372150882167525238374004597&#45;&gt;cluster_cluster_&#45;2202121249019829706&#45;8986526737437215088&#45;1155624115735331312 -->
<g id="edge15" class="edge"><title>cluster_cluster_&#45;2202121249019829706&#45;89865267374372150882167525238374004597&#45;&gt;cluster_cluster_&#45;2202121249019829706&#45;8986526737437215088&#45;1155624115735331312</title>
<path fill="none" stroke="black" d="M114,-670.748C114,-670.748 114,-645.288 114,-645.288"/>
<polygon fill="black" stroke="black" points="117.5,-645.287 114,-635.288 110.5,-645.288 117.5,-645.287"/>
</g>
<!-- cluster_cluster_&#45;2202121249019829706&#45;89865267374372150884279092786024282651&#45;&gt;cluster_cluster_&#45;2202121249019829706&#45;8986526737437215088&#45;6749006943951351882 -->
<g id="edge16" class="edge"><title>cluster_cluster_&#45;2202121249019829706&#45;89865267374372150884279092786024282651&#45;&gt;cluster_cluster_&#45;2202121249019829706&#45;8986526737437215088&#45;6749006943951351882</title>
<path fill="none" stroke="black" d="M180.5,-310.831C180.5,-310.831 180.5,-285.413 180.5,-285.413"/>
<polygon fill="black" stroke="black" points="184,-285.413 180.5,-275.413 177,-285.413 184,-285.413"/>
</g>
<!-- cluster_cluster_&#45;2202121249019829706&#45;89865267374372150884712647501736754553 -->
<g id="node15" class="node"><title>cluster_cluster_&#45;2202121249019829706&#45;89865267374372150884712647501736754553</title>
<g id="a_node15"><a xlink:title="A sequence of data.">
<path fill="cyan" stroke="black" d="M276,-563C276,-563 240,-563 240,-563 234,-563 228,-557 228,-551 228,-551 228,-539 228,-539 228,-533 234,-527 240,-527 240,-527 276,-527 276,-527 282,-527 288,-533 288,-539 288,-539 288,-551 288,-551 288,-557 282,-563 276,-563"/>
<text text-anchor="start" x="238.5" y="-540.8" font-family="Times New Roman,serif" font-size="14.00">wltp_h</text>
</a>
</g>
</g>
<!-- cluster_cluster_&#45;2202121249019829706&#45;89865267374372150884712647501736754553&#45;&gt;cluster_cluster_&#45;2202121249019829706&#45;89865267374372150888263976548806303400 -->
<g id="edge17" class="edge"><title>cluster_cluster_&#45;2202121249019829706&#45;89865267374372150884712647501736754553&#45;&gt;cluster_cluster_&#45;2202121249019829706&#45;89865267374372150888263976548806303400</title>
<path fill="none" stroke="black" d="M233.333,-526.831C233.333,-526.831 233.333,-501.413 233.333,-501.413"/>
<polygon fill="black" stroke="black" points="236.833,-501.413 233.333,-491.413 229.833,-501.413 236.833,-501.413"/>
</g>
<!-- cluster_cluster_&#45;2202121249019829706&#45;89865267374372150884712647501736754553&#45;&gt;cluster_cluster_&#45;2202121249019829706&#45;8986526737437215088&#45;240294359443136749 -->
<g id="edge18" class="edge"><title>cluster_cluster_&#45;2202121249019829706&#45;89865267374372150884712647501736754553&#45;&gt;cluster_cluster_&#45;2202121249019829706&#45;8986526737437215088&#45;240294359443136749</title>
<path fill="none" stroke="black" d="M279.333,-526.831C279.333,-526.831 279.333,-501.413 279.333,-501.413"/>
<polygon fill="black" stroke="black" points="282.833,-501.413 279.333,-491.413 275.833,-501.413 282.833,-501.413"/>
</g>
<!-- cluster_cluster_&#45;2202121249019829706&#45;8986526737437215088&#45;4779657526738643707 -->
<g id="node16" class="node"><title>cluster_cluster_&#45;2202121249019829706&#45;8986526737437215088&#45;4779657526738643707</title>
<g id="a_node16"><a xlink:title="A sequence of data.">
<path fill="cyan" stroke="black" d="M350,-563C350,-563 318,-563 318,-563 312,-563 306,-557 306,-551 306,-551 306,-539 306,-539 306,-533 312,-527 318,-527 318,-527 350,-527 350,-527 356,-527 362,-533 362,-539 362,-539 362,-551 362,-551 362,-557 356,-563 350,-563"/>
<text text-anchor="start" x="316.5" y="-540.8" font-family="Times New Roman,serif" font-size="14.00">wltp_l</text>
</a>
</g>
</g>
<!-- cluster_cluster_&#45;2202121249019829706&#45;8986526737437215088&#45;4779657526738643707&#45;&gt;cluster_cluster_&#45;2202121249019829706&#45;89865267374372150888263976548806303400 -->
<g id="edge19" class="edge"><title>cluster_cluster_&#45;2202121249019829706&#45;8986526737437215088&#45;4779657526738643707&#45;&gt;cluster_cluster_&#45;2202121249019829706&#45;89865267374372150888263976548806303400</title>
<path fill="none" stroke="black" d="M324.667,-526.944C324.667,-515.561 324.667,-503 324.667,-503 324.667,-503 238.667,-503 238.667,-503 238.667,-503 238.667,-501.143 238.667,-501.143"/>
<polygon fill="black" stroke="black" points="242.167,-501.143 238.667,-491.143 235.167,-501.143 242.167,-501.143"/>
</g>
<!-- cluster_cluster_&#45;2202121249019829706&#45;8986526737437215088&#45;4779657526738643707&#45;&gt;cluster_cluster_&#45;2202121249019829706&#45;8986526737437215088&#45;240294359443136749 -->
<g id="edge20" class="edge"><title>cluster_cluster_&#45;2202121249019829706&#45;8986526737437215088&#45;4779657526738643707&#45;&gt;cluster_cluster_&#45;2202121249019829706&#45;8986526737437215088&#45;240294359443136749</title>
<path fill="none" stroke="black" d="M343.333,-526.831C343.333,-526.831 343.333,-501.413 343.333,-501.413"/>
<polygon fill="black" stroke="black" points="346.833,-501.413 343.333,-491.413 339.833,-501.413 346.833,-501.413"/>
</g>
</g>
</svg>
