<?xml version="1.0" encoding="UTF-8" standalone="no"?>
<!DOCTYPE svg PUBLIC "-//W3C//DTD SVG 1.1//EN"
 "http://www.w3.org/Graphics/SVG/1.1/DTD/svg11.dtd">
<!-- Generated by graphviz version 2.38.0 (20140413.2041)
 -->
<!-- Title: cluster_dt_vat_model Pages: 1 -->
<svg width="2049pt" height="349pt"
 viewBox="0.00 0.00 2049.00 349.00" xmlns="http://www.w3.org/2000/svg" xmlns:xlink="http://www.w3.org/1999/xlink">
<g id="graph0" class="graph" transform="scale(1 1) rotate(0) translate(4 345)">
<title>cluster_dt_vat_model</title>
<polygon fill="white" stroke="none" points="-4,4 -4,-345 2045,-345 2045,4 -4,4"/>
<text text-anchor="start" x="981.5" y="-7.8" font-family="Times New Roman,serif" font-size="14.00">dt_vat_model</text>
<!-- cluster_cluster_cluster_cluster_cluster_cluster_&#45;2202121249019829706&#45;8685971429576544073&#45;4174212607265404928&#45;4970331641515606702&#45;1370122890739054250&#45;1370345584306119862&#45;1224200540553156632 -->
<g id="node1" class="node"><title>cluster_cluster_cluster_cluster_cluster_cluster_&#45;2202121249019829706&#45;8685971429576544073&#45;4174212607265404928&#45;4970331641515606702&#45;1370122890739054250&#45;1370345584306119862&#45;1224200540553156632</title>
<g id="a_node1"><a xlink:title="A decision tree classifier to predict gears.">
<path fill="cyan" stroke="black" d="M543.5,-341C543.5,-341 307.5,-341 307.5,-341 301.5,-341 295.5,-335 295.5,-329 295.5,-329 295.5,-284 295.5,-284 295.5,-278 301.5,-272 307.5,-272 307.5,-272 543.5,-272 543.5,-272 549.5,-272 555.5,-278 555.5,-284 555.5,-284 555.5,-329 555.5,-329 555.5,-335 549.5,-341 543.5,-341"/>
<text text-anchor="start" x="398" y="-323.3" font-family="Times New Roman,serif" font-size="14.00">DT_VAT</text>
<polygon fill="none" stroke="black" points="303.5,-296.5 303.5,-317.5 405.5,-317.5 405.5,-296.5 303.5,-296.5"/>
<text text-anchor="start" x="314.5" y="-303.3" font-family="Times New Roman,serif" font-size="14.00">remote child 1=</text>
<polygon fill="none" stroke="black" points="405.5,-296.5 405.5,-317.5 547.5,-317.5 547.5,-296.5 405.5,-296.5"/>
<text text-anchor="start" x="408.5" y="-303.3" font-family="Times New Roman,serif" font-size="14.00">dt_vat_model:DT_VAT</text>
<polygon fill="none" stroke="black" points="303.5,-275.5 303.5,-296.5 405.5,-296.5 405.5,-275.5 303.5,-275.5"/>
<text text-anchor="start" x="306.5" y="-282.3" font-family="Times New Roman,serif" font-size="14.00">remote parent 0=</text>
<polygon fill="none" stroke="black" points="405.5,-275.5 405.5,-296.5 547.5,-296.5 547.5,-275.5 405.5,-275.5"/>
<text text-anchor="start" x="408.5" y="-282.3" font-family="Times New Roman,serif" font-size="14.00">dt_vat_model:DT_VAT</text>
</a>
</g>
</g>
<!-- cluster_cluster_cluster_cluster_cluster_cluster_&#45;2202121249019829706&#45;8685971429576544073&#45;4174212607265404928&#45;4970331641515606702&#45;1370122890739054250&#45;1370345584306119862&#45;412320468793053698 -->
<g id="node4" class="node"><title>cluster_cluster_cluster_cluster_cluster_cluster_&#45;2202121249019829706&#45;8685971429576544073&#45;4174212607265404928&#45;4970331641515606702&#45;1370122890739054250&#45;1370345584306119862&#45;412320468793053698</title>
<g id="a_node4"><a xlink:href="./../../../AM-wltp_h_errors/AM-wltp_h_error_vs_wltp_h/Automatic_gear_model/dt_va_model/co2mpas.model.physical.gear_box.at_gearprediction_gears_decision_tree.txt" xlink:title="Predicts gears with a decision tree classifier [&#45;].">
<polygon fill="springgreen" stroke="black" points="1102.5,-236 906.5,-236 906.5,-200 1102.5,-200 1102.5,-236"/>
<text text-anchor="start" x="917" y="-213.8" font-family="Times New Roman,serif" font-size="14.00">prediction_gears_decision_tree</text>
</a>
</g>
</g>
<!-- cluster_cluster_cluster_cluster_cluster_cluster_&#45;2202121249019829706&#45;8685971429576544073&#45;4174212607265404928&#45;4970331641515606702&#45;1370122890739054250&#45;1370345584306119862&#45;1224200540553156632&#45;&gt;cluster_cluster_cluster_cluster_cluster_cluster_&#45;2202121249019829706&#45;8685971429576544073&#45;4174212607265404928&#45;4970331641515606702&#45;1370122890739054250&#45;1370345584306119862&#45;412320468793053698 -->
<g id="edge1" class="edge"><title>cluster_cluster_cluster_cluster_cluster_cluster_&#45;2202121249019829706&#45;8685971429576544073&#45;4174212607265404928&#45;4970331641515606702&#45;1370122890739054250&#45;1370345584306119862&#45;1224200540553156632&#45;&gt;cluster_cluster_cluster_cluster_cluster_cluster_&#45;2202121249019829706&#45;8685971429576544073&#45;4174212607265404928&#45;4970331641515606702&#45;1370122890739054250&#45;1370345584306119862&#45;412320468793053698</title>
<path fill="none" stroke="black" d="M555.587,-279C701.55,-279 918.167,-279 918.167,-279 918.167,-279 918.167,-246.302 918.167,-246.302"/>
<polygon fill="black" stroke="black" points="921.667,-246.302 918.167,-236.302 914.667,-246.302 921.667,-246.302"/>
</g>
<!-- cluster_cluster_cluster_cluster_cluster_cluster_&#45;2202121249019829706&#45;8685971429576544073&#45;4174212607265404928&#45;4970331641515606702&#45;1370122890739054250&#45;1370345584306119862&#45;6281391710310240799 -->
<g id="node2" class="node"><title>cluster_cluster_cluster_cluster_cluster_cluster_&#45;2202121249019829706&#45;8685971429576544073&#45;4174212607265404928&#45;4970331641515606702&#45;1370122890739054250&#45;1370345584306119862&#45;6281391710310240799</title>
<g id="a_node2"><a xlink:title="Acceleration vector [m/s2].">
<path fill="cyan" stroke="black" d="M265,-330.5C265,-330.5 12,-330.5 12,-330.5 6,-330.5 0,-324.5 0,-318.5 0,-318.5 0,-294.5 0,-294.5 0,-288.5 6,-282.5 12,-282.5 12,-282.5 265,-282.5 265,-282.5 271,-282.5 277,-288.5 277,-294.5 277,-294.5 277,-318.5 277,-318.5 277,-324.5 271,-330.5 265,-330.5"/>
<text text-anchor="start" x="102.5" y="-313.3" font-family="Times New Roman,serif" font-size="14.00">accelerations</text>
<polygon fill="none" stroke="black" points="8.5,-286.5 8.5,-307.5 110.5,-307.5 110.5,-286.5 8.5,-286.5"/>
<text text-anchor="start" x="11.5" y="-293.3" font-family="Times New Roman,serif" font-size="14.00">remote parent 0=</text>
<polygon fill="none" stroke="black" points="110.5,-286.5 110.5,-307.5 269.5,-307.5 269.5,-286.5 110.5,-286.5"/>
<text text-anchor="start" x="113.5" y="-293.3" font-family="Times New Roman,serif" font-size="14.00">dt_vat_model:accelerations</text>
</a>
</g>
</g>
<!-- cluster_cluster_cluster_cluster_cluster_cluster_&#45;2202121249019829706&#45;8685971429576544073&#45;4174212607265404928&#45;4970331641515606702&#45;1370122890739054250&#45;1370345584306119862&#45;992705794952703737 -->
<g id="node3" class="node"><title>cluster_cluster_cluster_cluster_cluster_cluster_&#45;2202121249019829706&#45;8685971429576544073&#45;4174212607265404928&#45;4970331641515606702&#45;1370122890739054250&#45;1370345584306119862&#45;992705794952703737</title>
<g id="a_node3"><a xlink:href="./../../../AM-wltp_h_errors/AM-wltp_h_error_vs_wltp_h/Automatic_gear_model/dt_va_model/co2mpas.model.physical.gear_box.at_gearcalibrate_gear_shifting_decision_tree.txt" xlink:title="Calibrates a decision tree classifier to predict gears.">
<polygon fill="springgreen" stroke="black" points="871.5,-59 643.5,-59 643.5,-23 871.5,-23 871.5,-59"/>
<text text-anchor="start" x="653.5" y="-36.8" font-family="Times New Roman,serif" font-size="14.00">calibrate_gear_shifting_decision_tree</text>
</a>
</g>
</g>
<!-- cluster_cluster_cluster_cluster_cluster_cluster_&#45;2202121249019829706&#45;8685971429576544073&#45;4174212607265404928&#45;4970331641515606702&#45;1370122890739054250&#45;1370345584306119862&#45;6281391710310240799&#45;&gt;cluster_cluster_cluster_cluster_cluster_cluster_&#45;2202121249019829706&#45;8685971429576544073&#45;4174212607265404928&#45;4970331641515606702&#45;1370122890739054250&#45;1370345584306119862&#45;992705794952703737 -->
<g id="edge2" class="edge"><title>cluster_cluster_cluster_cluster_cluster_cluster_&#45;2202121249019829706&#45;8685971429576544073&#45;4174212607265404928&#45;4970331641515606702&#45;1370122890739054250&#45;1370345584306119862&#45;6281391710310240799&#45;&gt;cluster_cluster_cluster_cluster_cluster_cluster_&#45;2202121249019829706&#45;8685971429576544073&#45;4174212607265404928&#45;4970331641515606702&#45;1370122890739054250&#45;1370345584306119862&#45;992705794952703737</title>
<path fill="none" stroke="black" d="M92.3333,-282.47C92.3333,-217.115 92.3333,-41 92.3333,-41 92.3333,-41 633.154,-41 633.154,-41"/>
<polygon fill="black" stroke="black" points="633.154,-44.5001 643.154,-41 633.154,-37.5001 633.154,-44.5001"/>
</g>
<!-- cluster_cluster_cluster_cluster_cluster_cluster_&#45;2202121249019829706&#45;8685971429576544073&#45;4174212607265404928&#45;4970331641515606702&#45;1370122890739054250&#45;1370345584306119862&#45;6281391710310240799&#45;&gt;cluster_cluster_cluster_cluster_cluster_cluster_&#45;2202121249019829706&#45;8685971429576544073&#45;4174212607265404928&#45;4970331641515606702&#45;1370122890739054250&#45;1370345584306119862&#45;412320468793053698 -->
<g id="edge3" class="edge"><title>cluster_cluster_cluster_cluster_cluster_cluster_&#45;2202121249019829706&#45;8685971429576544073&#45;4174212607265404928&#45;4970331641515606702&#45;1370122890739054250&#45;1370345584306119862&#45;6281391710310240799&#45;&gt;cluster_cluster_cluster_cluster_cluster_cluster_&#45;2202121249019829706&#45;8685971429576544073&#45;4174212607265404928&#45;4970331641515606702&#45;1370122890739054250&#45;1370345584306119862&#45;412320468793053698</title>
<path fill="none" stroke="black" d="M184.667,-282.317C184.667,-256.114 184.667,-218 184.667,-218 184.667,-218 896.423,-218 896.423,-218"/>
<polygon fill="black" stroke="black" points="896.423,-221.5 906.423,-218 896.423,-214.5 896.423,-221.5"/>
</g>
<!-- cluster_cluster_cluster_cluster_cluster_cluster_&#45;2202121249019829706&#45;8685971429576544073&#45;4174212607265404928&#45;4970331641515606702&#45;1370122890739054250&#45;1370345584306119862&#45;992705794952703737&#45;&gt;cluster_cluster_cluster_cluster_cluster_cluster_&#45;2202121249019829706&#45;8685971429576544073&#45;4174212607265404928&#45;4970331641515606702&#45;1370122890739054250&#45;1370345584306119862&#45;1224200540553156632 -->
<g id="edge4" class="edge"><title>cluster_cluster_cluster_cluster_cluster_cluster_&#45;2202121249019829706&#45;8685971429576544073&#45;4174212607265404928&#45;4970331641515606702&#45;1370122890739054250&#45;1370345584306119862&#45;992705794952703737&#45;&gt;cluster_cluster_cluster_cluster_cluster_cluster_&#45;2202121249019829706&#45;8685971429576544073&#45;4174212607265404928&#45;4970331641515606702&#45;1370122890739054250&#45;1370345584306119862&#45;1224200540553156632</title>
<path fill="none" stroke="black" d="M719.5,-59.3616C719.5,-114.525 719.5,-275 719.5,-275 719.5,-275 565.737,-275 565.737,-275"/>
<polygon fill="black" stroke="black" points="565.737,-271.5 555.737,-275 565.737,-278.5 565.737,-271.5"/>
</g>
<!-- cluster_cluster_cluster_cluster_cluster_cluster_&#45;2202121249019829706&#45;8685971429576544073&#45;4174212607265404928&#45;4970331641515606702&#45;1370122890739054250&#45;13703455843061198625823726384603252559 -->
<g id="node8" class="node"><title>cluster_cluster_cluster_cluster_cluster_cluster_&#45;2202121249019829706&#45;8685971429576544073&#45;4174212607265404928&#45;4970331641515606702&#45;1370122890739054250&#45;13703455843061198625823726384603252559</title>
<g id="a_node8"><a xlink:title="Gear vector [&#45;].">
<path fill="cyan" stroke="black" d="M1100.5,-164C1100.5,-164 890.5,-164 890.5,-164 884.5,-164 878.5,-158 878.5,-152 878.5,-152 878.5,-107 878.5,-107 878.5,-101 884.5,-95 890.5,-95 890.5,-95 1100.5,-95 1100.5,-95 1106.5,-95 1112.5,-101 1112.5,-107 1112.5,-107 1112.5,-152 1112.5,-152 1112.5,-158 1106.5,-164 1100.5,-164"/>
<text text-anchor="start" x="980.5" y="-146.3" font-family="Times New Roman,serif" font-size="14.00">gears</text>
<polygon fill="none" stroke="black" points="886.5,-119.5 886.5,-140.5 988.5,-140.5 988.5,-119.5 886.5,-119.5"/>
<text text-anchor="start" x="897.5" y="-126.3" font-family="Times New Roman,serif" font-size="14.00">remote child 1=</text>
<polygon fill="none" stroke="black" points="988.5,-119.5 988.5,-140.5 1104.5,-140.5 1104.5,-119.5 988.5,-119.5"/>
<text text-anchor="start" x="991.5" y="-126.3" font-family="Times New Roman,serif" font-size="14.00">dt_vat_model:gears</text>
<polygon fill="none" stroke="black" points="886.5,-98.5 886.5,-119.5 988.5,-119.5 988.5,-98.5 886.5,-98.5"/>
<text text-anchor="start" x="889.5" y="-105.3" font-family="Times New Roman,serif" font-size="14.00">remote parent 0=</text>
<polygon fill="none" stroke="black" points="988.5,-98.5 988.5,-119.5 1104.5,-119.5 1104.5,-98.5 988.5,-98.5"/>
<text text-anchor="start" x="991.5" y="-105.3" font-family="Times New Roman,serif" font-size="14.00">dt_vat_model:gears</text>
</a>
</g>
</g>
<!-- cluster_cluster_cluster_cluster_cluster_cluster_&#45;2202121249019829706&#45;8685971429576544073&#45;4174212607265404928&#45;4970331641515606702&#45;1370122890739054250&#45;1370345584306119862&#45;412320468793053698&#45;&gt;cluster_cluster_cluster_cluster_cluster_cluster_&#45;2202121249019829706&#45;8685971429576544073&#45;4174212607265404928&#45;4970331641515606702&#45;1370122890739054250&#45;13703455843061198625823726384603252559 -->
<g id="edge5" class="edge"><title>cluster_cluster_cluster_cluster_cluster_cluster_&#45;2202121249019829706&#45;8685971429576544073&#45;4174212607265404928&#45;4970331641515606702&#45;1370122890739054250&#45;1370345584306119862&#45;412320468793053698&#45;&gt;cluster_cluster_cluster_cluster_cluster_cluster_&#45;2202121249019829706&#45;8685971429576544073&#45;4174212607265404928&#45;4970331641515606702&#45;1370122890739054250&#45;13703455843061198625823726384603252559</title>
<path fill="none" stroke="black" d="M1004.5,-199.663C1004.5,-199.663 1004.5,-174.269 1004.5,-174.269"/>
<polygon fill="black" stroke="black" points="1008,-174.269 1004.5,-164.269 1001,-174.269 1008,-174.269"/>
</g>
<!-- cluster_cluster_cluster_cluster_cluster_cluster_&#45;2202121249019829706&#45;8685971429576544073&#45;4174212607265404928&#45;4970331641515606702&#45;1370122890739054250&#45;1370345584306119862&#45;2328696801353446754 -->
<g id="node5" class="node"><title>cluster_cluster_cluster_cluster_cluster_cluster_&#45;2202121249019829706&#45;8685971429576544073&#45;4174212607265404928&#45;4970331641515606702&#45;1370122890739054250&#45;1370345584306119862&#45;2328696801353446754</title>
<g id="a_node5"><a xlink:title="A function to correct the gear predicted.">
<path fill="cyan" stroke="black" d="M1223,-330.5C1223,-330.5 972,-330.5 972,-330.5 966,-330.5 960,-324.5 960,-318.5 960,-318.5 960,-294.5 960,-294.5 960,-288.5 966,-282.5 972,-282.5 972,-282.5 1223,-282.5 1223,-282.5 1229,-282.5 1235,-288.5 1235,-294.5 1235,-294.5 1235,-318.5 1235,-318.5 1235,-324.5 1229,-330.5 1223,-330.5"/>
<text text-anchor="start" x="1062.5" y="-313.3" font-family="Times New Roman,serif" font-size="14.00">correct_gear</text>
<polygon fill="none" stroke="black" points="968.5,-286.5 968.5,-307.5 1070.5,-307.5 1070.5,-286.5 968.5,-286.5"/>
<text text-anchor="start" x="971.5" y="-293.3" font-family="Times New Roman,serif" font-size="14.00">remote parent 0=</text>
<polygon fill="none" stroke="black" points="1070.5,-286.5 1070.5,-307.5 1227.5,-307.5 1227.5,-286.5 1070.5,-286.5"/>
<text text-anchor="start" x="1073.5" y="-293.3" font-family="Times New Roman,serif" font-size="14.00">dt_vat_model:correct_gear</text>
</a>
</g>
</g>
<!-- cluster_cluster_cluster_cluster_cluster_cluster_&#45;2202121249019829706&#45;8685971429576544073&#45;4174212607265404928&#45;4970331641515606702&#45;1370122890739054250&#45;1370345584306119862&#45;2328696801353446754&#45;&gt;cluster_cluster_cluster_cluster_cluster_cluster_&#45;2202121249019829706&#45;8685971429576544073&#45;4174212607265404928&#45;4970331641515606702&#45;1370122890739054250&#45;1370345584306119862&#45;412320468793053698 -->
<g id="edge6" class="edge"><title>cluster_cluster_cluster_cluster_cluster_cluster_&#45;2202121249019829706&#45;8685971429576544073&#45;4174212607265404928&#45;4970331641515606702&#45;1370122890739054250&#45;1370345584306119862&#45;2328696801353446754&#45;&gt;cluster_cluster_cluster_cluster_cluster_cluster_&#45;2202121249019829706&#45;8685971429576544073&#45;4174212607265404928&#45;4970331641515606702&#45;1370122890739054250&#45;1370345584306119862&#45;412320468793053698</title>
<path fill="none" stroke="black" d="M1031.25,-282.317C1031.25,-282.317 1031.25,-246.257 1031.25,-246.257"/>
<polygon fill="black" stroke="black" points="1034.75,-246.257 1031.25,-236.257 1027.75,-246.257 1034.75,-246.257"/>
</g>
<!-- cluster_cluster_cluster_cluster_cluster_cluster_&#45;2202121249019829706&#45;8685971429576544073&#45;4174212607265404928&#45;4970331641515606702&#45;1370122890739054250&#45;13703455843061198624429227571388341383 -->
<g id="node6" class="node"><title>cluster_cluster_cluster_cluster_cluster_cluster_&#45;2202121249019829706&#45;8685971429576544073&#45;4174212607265404928&#45;4970331641515606702&#45;1370122890739054250&#45;13703455843061198624429227571388341383</title>
<g id="a_node6"><a xlink:title="Engine coolant temperature vector [°C].">
<path fill="cyan" stroke="black" d="M929.5,-330.5C929.5,-330.5 585.5,-330.5 585.5,-330.5 579.5,-330.5 573.5,-324.5 573.5,-318.5 573.5,-318.5 573.5,-294.5 573.5,-294.5 573.5,-288.5 579.5,-282.5 585.5,-282.5 585.5,-282.5 929.5,-282.5 929.5,-282.5 935.5,-282.5 941.5,-288.5 941.5,-294.5 941.5,-294.5 941.5,-318.5 941.5,-318.5 941.5,-324.5 935.5,-330.5 929.5,-330.5"/>
<text text-anchor="start" x="676" y="-313.3" font-family="Times New Roman,serif" font-size="14.00">engine_coolant_temperatures</text>
<polygon fill="none" stroke="black" points="581.5,-286.5 581.5,-307.5 683.5,-307.5 683.5,-286.5 581.5,-286.5"/>
<text text-anchor="start" x="584.5" y="-293.3" font-family="Times New Roman,serif" font-size="14.00">remote parent 0=</text>
<polygon fill="none" stroke="black" points="683.5,-286.5 683.5,-307.5 933.5,-307.5 933.5,-286.5 683.5,-286.5"/>
<text text-anchor="start" x="686.5" y="-293.3" font-family="Times New Roman,serif" font-size="14.00">dt_vat_model:engine_coolant_temperatures</text>
</a>
</g>
</g>
<!-- cluster_cluster_cluster_cluster_cluster_cluster_&#45;2202121249019829706&#45;8685971429576544073&#45;4174212607265404928&#45;4970331641515606702&#45;1370122890739054250&#45;13703455843061198624429227571388341383&#45;&gt;cluster_cluster_cluster_cluster_cluster_cluster_&#45;2202121249019829706&#45;8685971429576544073&#45;4174212607265404928&#45;4970331641515606702&#45;1370122890739054250&#45;1370345584306119862&#45;992705794952703737 -->
<g id="edge7" class="edge"><title>cluster_cluster_cluster_cluster_cluster_cluster_&#45;2202121249019829706&#45;8685971429576544073&#45;4174212607265404928&#45;4970331641515606702&#45;1370122890739054250&#45;13703455843061198624429227571388341383&#45;&gt;cluster_cluster_cluster_cluster_cluster_cluster_&#45;2202121249019829706&#45;8685971429576544073&#45;4174212607265404928&#45;4970331641515606702&#45;1370122890739054250&#45;1370345584306119862&#45;992705794952703737</title>
<path fill="none" stroke="black" d="M795.5,-282.47C795.5,-282.47 795.5,-69.0174 795.5,-69.0174"/>
<polygon fill="black" stroke="black" points="799,-69.0174 795.5,-59.0174 792,-69.0174 799,-69.0174"/>
</g>
<!-- cluster_cluster_cluster_cluster_cluster_cluster_&#45;2202121249019829706&#45;8685971429576544073&#45;4174212607265404928&#45;4970331641515606702&#45;1370122890739054250&#45;13703455843061198624429227571388341383&#45;&gt;cluster_cluster_cluster_cluster_cluster_cluster_&#45;2202121249019829706&#45;8685971429576544073&#45;4174212607265404928&#45;4970331641515606702&#45;1370122890739054250&#45;1370345584306119862&#45;412320468793053698 -->
<g id="edge8" class="edge"><title>cluster_cluster_cluster_cluster_cluster_cluster_&#45;2202121249019829706&#45;8685971429576544073&#45;4174212607265404928&#45;4970331641515606702&#45;1370122890739054250&#45;13703455843061198624429227571388341383&#45;&gt;cluster_cluster_cluster_cluster_cluster_cluster_&#45;2202121249019829706&#45;8685971429576544073&#45;4174212607265404928&#45;4970331641515606702&#45;1370122890739054250&#45;1370345584306119862&#45;412320468793053698</title>
<path fill="none" stroke="black" d="M929.833,-282.317C929.833,-282.317 929.833,-246.257 929.833,-246.257"/>
<polygon fill="black" stroke="black" points="933.333,-246.257 929.833,-236.257 926.333,-246.257 933.333,-246.257"/>
</g>
<!-- cluster_cluster_cluster_cluster_cluster_cluster_&#45;2202121249019829706&#45;8685971429576544073&#45;4174212607265404928&#45;4970331641515606702&#45;1370122890739054250&#45;13703455843061198622896906763587689886 -->
<g id="node7" class="node"><title>cluster_cluster_cluster_cluster_cluster_cluster_&#45;2202121249019829706&#45;8685971429576544073&#45;4174212607265404928&#45;4970331641515606702&#45;1370122890739054250&#45;13703455843061198622896906763587689886</title>
<g id="a_node7"><a xlink:title="Gear filter function.">
<path fill="cyan" stroke="black" d="M1501.5,-330.5C1501.5,-330.5 1265.5,-330.5 1265.5,-330.5 1259.5,-330.5 1253.5,-324.5 1253.5,-318.5 1253.5,-318.5 1253.5,-294.5 1253.5,-294.5 1253.5,-288.5 1259.5,-282.5 1265.5,-282.5 1265.5,-282.5 1501.5,-282.5 1501.5,-282.5 1507.5,-282.5 1513.5,-288.5 1513.5,-294.5 1513.5,-294.5 1513.5,-318.5 1513.5,-318.5 1513.5,-324.5 1507.5,-330.5 1501.5,-330.5"/>
<text text-anchor="start" x="1355.5" y="-313.3" font-family="Times New Roman,serif" font-size="14.00">gear_filter</text>
<polygon fill="none" stroke="black" points="1261.5,-286.5 1261.5,-307.5 1363.5,-307.5 1363.5,-286.5 1261.5,-286.5"/>
<text text-anchor="start" x="1264.5" y="-293.3" font-family="Times New Roman,serif" font-size="14.00">remote parent 0=</text>
<polygon fill="none" stroke="black" points="1363.5,-286.5 1363.5,-307.5 1505.5,-307.5 1505.5,-286.5 1363.5,-286.5"/>
<text text-anchor="start" x="1366.5" y="-293.3" font-family="Times New Roman,serif" font-size="14.00">dt_vat_model:gear_filter</text>
</a>
</g>
</g>
<!-- cluster_cluster_cluster_cluster_cluster_cluster_&#45;2202121249019829706&#45;8685971429576544073&#45;4174212607265404928&#45;4970331641515606702&#45;1370122890739054250&#45;13703455843061198622896906763587689886&#45;&gt;cluster_cluster_cluster_cluster_cluster_cluster_&#45;2202121249019829706&#45;8685971429576544073&#45;4174212607265404928&#45;4970331641515606702&#45;1370122890739054250&#45;1370345584306119862&#45;412320468793053698 -->
<g id="edge9" class="edge"><title>cluster_cluster_cluster_cluster_cluster_cluster_&#45;2202121249019829706&#45;8685971429576544073&#45;4174212607265404928&#45;4970331641515606702&#45;1370122890739054250&#45;13703455843061198622896906763587689886&#45;&gt;cluster_cluster_cluster_cluster_cluster_cluster_&#45;2202121249019829706&#45;8685971429576544073&#45;4174212607265404928&#45;4970331641515606702&#45;1370122890739054250&#45;1370345584306119862&#45;412320468793053698</title>
<path fill="none" stroke="black" d="M1383.5,-282.215C1383.5,-258.836 1383.5,-227 1383.5,-227 1383.5,-227 1112.59,-227 1112.59,-227"/>
<polygon fill="black" stroke="black" points="1112.59,-223.5 1102.59,-227 1112.59,-230.5 1112.59,-223.5"/>
</g>
<!-- cluster_cluster_cluster_cluster_cluster_cluster_&#45;2202121249019829706&#45;8685971429576544073&#45;4174212607265404928&#45;4970331641515606702&#45;1370122890739054250&#45;13703455843061198625823726384603252559&#45;&gt;cluster_cluster_cluster_cluster_cluster_cluster_&#45;2202121249019829706&#45;8685971429576544073&#45;4174212607265404928&#45;4970331641515606702&#45;1370122890739054250&#45;1370345584306119862&#45;992705794952703737 -->
<g id="edge10" class="edge"><title>cluster_cluster_cluster_cluster_cluster_cluster_&#45;2202121249019829706&#45;8685971429576544073&#45;4174212607265404928&#45;4970331641515606702&#45;1370122890739054250&#45;13703455843061198625823726384603252559&#45;&gt;cluster_cluster_cluster_cluster_cluster_cluster_&#45;2202121249019829706&#45;8685971429576544073&#45;4174212607265404928&#45;4970331641515606702&#45;1370122890739054250&#45;1370345584306119862&#45;992705794952703737</title>
<path fill="none" stroke="black" d="M995.5,-94.9906C995.5,-72.3835 995.5,-47 995.5,-47 995.5,-47 881.62,-47 881.62,-47"/>
<polygon fill="black" stroke="black" points="881.62,-43.5001 871.62,-47 881.62,-50.5001 881.62,-43.5001"/>
</g>
<!-- cluster_cluster_cluster_cluster_cluster_cluster_&#45;2202121249019829706&#45;8685971429576544073&#45;4174212607265404928&#45;4970331641515606702&#45;1370122890739054250&#45;1370345584306119862&#45;1825562924159530342 -->
<g id="node9" class="node"><title>cluster_cluster_cluster_cluster_cluster_cluster_&#45;2202121249019829706&#45;8685971429576544073&#45;4174212607265404928&#45;4970331641515606702&#45;1370122890739054250&#45;1370345584306119862&#45;1825562924159530342</title>
<g id="a_node9"><a xlink:title="Time vector [s].">
<path fill="cyan" stroke="black" d="M1753.5,-330.5C1753.5,-330.5 1543.5,-330.5 1543.5,-330.5 1537.5,-330.5 1531.5,-324.5 1531.5,-318.5 1531.5,-318.5 1531.5,-294.5 1531.5,-294.5 1531.5,-288.5 1537.5,-282.5 1543.5,-282.5 1543.5,-282.5 1753.5,-282.5 1753.5,-282.5 1759.5,-282.5 1765.5,-288.5 1765.5,-294.5 1765.5,-294.5 1765.5,-318.5 1765.5,-318.5 1765.5,-324.5 1759.5,-330.5 1753.5,-330.5"/>
<text text-anchor="start" x="1633.5" y="-313.3" font-family="Times New Roman,serif" font-size="14.00">times</text>
<polygon fill="none" stroke="black" points="1539.5,-286.5 1539.5,-307.5 1641.5,-307.5 1641.5,-286.5 1539.5,-286.5"/>
<text text-anchor="start" x="1542.5" y="-293.3" font-family="Times New Roman,serif" font-size="14.00">remote parent 0=</text>
<polygon fill="none" stroke="black" points="1641.5,-286.5 1641.5,-307.5 1757.5,-307.5 1757.5,-286.5 1641.5,-286.5"/>
<text text-anchor="start" x="1644.5" y="-293.3" font-family="Times New Roman,serif" font-size="14.00">dt_vat_model:times</text>
</a>
</g>
</g>
<!-- cluster_cluster_cluster_cluster_cluster_cluster_&#45;2202121249019829706&#45;8685971429576544073&#45;4174212607265404928&#45;4970331641515606702&#45;1370122890739054250&#45;1370345584306119862&#45;1825562924159530342&#45;&gt;cluster_cluster_cluster_cluster_cluster_cluster_&#45;2202121249019829706&#45;8685971429576544073&#45;4174212607265404928&#45;4970331641515606702&#45;1370122890739054250&#45;1370345584306119862&#45;412320468793053698 -->
<g id="edge11" class="edge"><title>cluster_cluster_cluster_cluster_cluster_cluster_&#45;2202121249019829706&#45;8685971429576544073&#45;4174212607265404928&#45;4970331641515606702&#45;1370122890739054250&#45;1370345584306119862&#45;1825562924159530342&#45;&gt;cluster_cluster_cluster_cluster_cluster_cluster_&#45;2202121249019829706&#45;8685971429576544073&#45;4174212607265404928&#45;4970331641515606702&#45;1370122890739054250&#45;1370345584306119862&#45;412320468793053698</title>
<path fill="none" stroke="black" d="M1648.5,-282.317C1648.5,-256.114 1648.5,-218 1648.5,-218 1648.5,-218 1112.66,-218 1112.66,-218"/>
<polygon fill="black" stroke="black" points="1112.66,-214.5 1102.66,-218 1112.66,-221.5 1112.66,-214.5"/>
</g>
<!-- cluster_cluster_cluster_cluster_cluster_cluster_&#45;2202121249019829706&#45;8685971429576544073&#45;4174212607265404928&#45;4970331641515606702&#45;1370122890739054250&#45;13703455843061198621395676110976739562 -->
<g id="node10" class="node"><title>cluster_cluster_cluster_cluster_cluster_cluster_&#45;2202121249019829706&#45;8685971429576544073&#45;4174212607265404928&#45;4970331641515606702&#45;1370122890739054250&#45;13703455843061198621395676110976739562</title>
<g id="a_node10"><a xlink:title="Time series vectors.">
<path fill="cyan" stroke="black" d="M2029,-330.5C2029,-330.5 1796,-330.5 1796,-330.5 1790,-330.5 1784,-324.5 1784,-318.5 1784,-318.5 1784,-294.5 1784,-294.5 1784,-288.5 1790,-282.5 1796,-282.5 1796,-282.5 2029,-282.5 2029,-282.5 2035,-282.5 2041,-288.5 2041,-294.5 2041,-294.5 2041,-318.5 2041,-318.5 2041,-324.5 2035,-330.5 2029,-330.5"/>
<text text-anchor="start" x="1887" y="-313.3" font-family="Times New Roman,serif" font-size="14.00">velocities</text>
<polygon fill="none" stroke="black" points="1792.5,-286.5 1792.5,-307.5 1894.5,-307.5 1894.5,-286.5 1792.5,-286.5"/>
<text text-anchor="start" x="1795.5" y="-293.3" font-family="Times New Roman,serif" font-size="14.00">remote parent 0=</text>
<polygon fill="none" stroke="black" points="1894.5,-286.5 1894.5,-307.5 2033.5,-307.5 2033.5,-286.5 1894.5,-286.5"/>
<text text-anchor="start" x="1897.5" y="-293.3" font-family="Times New Roman,serif" font-size="14.00">dt_vat_model:velocities</text>
</a>
</g>
</g>
<!-- cluster_cluster_cluster_cluster_cluster_cluster_&#45;2202121249019829706&#45;8685971429576544073&#45;4174212607265404928&#45;4970331641515606702&#45;1370122890739054250&#45;13703455843061198621395676110976739562&#45;&gt;cluster_cluster_cluster_cluster_cluster_cluster_&#45;2202121249019829706&#45;8685971429576544073&#45;4174212607265404928&#45;4970331641515606702&#45;1370122890739054250&#45;1370345584306119862&#45;992705794952703737 -->
<g id="edge12" class="edge"><title>cluster_cluster_cluster_cluster_cluster_cluster_&#45;2202121249019829706&#45;8685971429576544073&#45;4174212607265404928&#45;4970331641515606702&#45;1370122890739054250&#45;13703455843061198621395676110976739562&#45;&gt;cluster_cluster_cluster_cluster_cluster_cluster_&#45;2202121249019829706&#45;8685971429576544073&#45;4174212607265404928&#45;4970331641515606702&#45;1370122890739054250&#45;1370345584306119862&#45;992705794952703737</title>
<path fill="none" stroke="black" d="M1955.33,-282.406C1955.33,-215.96 1955.33,-35 1955.33,-35 1955.33,-35 881.54,-35 881.54,-35"/>
<polygon fill="black" stroke="black" points="881.54,-31.5001 871.54,-35 881.54,-38.5001 881.54,-31.5001"/>
</g>
<!-- cluster_cluster_cluster_cluster_cluster_cluster_&#45;2202121249019829706&#45;8685971429576544073&#45;4174212607265404928&#45;4970331641515606702&#45;1370122890739054250&#45;13703455843061198621395676110976739562&#45;&gt;cluster_cluster_cluster_cluster_cluster_cluster_&#45;2202121249019829706&#45;8685971429576544073&#45;4174212607265404928&#45;4970331641515606702&#45;1370122890739054250&#45;1370345584306119862&#45;412320468793053698 -->
<g id="edge13" class="edge"><title>cluster_cluster_cluster_cluster_cluster_cluster_&#45;2202121249019829706&#45;8685971429576544073&#45;4174212607265404928&#45;4970331641515606702&#45;1370122890739054250&#45;13703455843061198621395676110976739562&#45;&gt;cluster_cluster_cluster_cluster_cluster_cluster_&#45;2202121249019829706&#45;8685971429576544073&#45;4174212607265404928&#45;4970331641515606702&#45;1370122890739054250&#45;1370345584306119862&#45;412320468793053698</title>
<path fill="none" stroke="black" d="M1869.67,-282.399C1869.67,-253.526 1869.67,-209 1869.67,-209 1869.67,-209 1112.9,-209 1112.9,-209"/>
<polygon fill="black" stroke="black" points="1112.9,-205.5 1102.9,-209 1112.9,-212.5 1112.9,-205.5"/>
</g>
</g>
</svg>
