<?xml version="1.0" encoding="UTF-8" standalone="no"?>
<!DOCTYPE svg PUBLIC "-//W3C//DTD SVG 1.1//EN"
 "http://www.w3.org/Graphics/SVG/1.1/DTD/svg11.dtd">
<!-- Generated by graphviz version 2.38.0 (20140413.2041)
 -->
<!-- Title: cluster_dt_va_model Pages: 1 -->
<svg width="1632pt" height="349pt"
 viewBox="0.00 0.00 1632.00 349.00" xmlns="http://www.w3.org/2000/svg" xmlns:xlink="http://www.w3.org/1999/xlink">
<g id="graph0" class="graph" transform="scale(1 1) rotate(0) translate(4 345)">
<title>cluster_dt_va_model</title>
<polygon fill="white" stroke="none" points="-4,4 -4,-345 1628,-345 1628,4 -4,4"/>
<text text-anchor="start" x="775" y="-7.8" font-family="Times New Roman,serif" font-size="14.00">dt_va_model</text>
<!-- cluster_cluster_cluster_cluster_cluster_cluster_&#45;2202121249019829706&#45;8685971429576544073&#45;4174212607265404928&#45;4970331641515606702&#45;1370122890739054250&#45;74051086500145544681038131168075908976 -->
<g id="node1" class="node"><title>cluster_cluster_cluster_cluster_cluster_cluster_&#45;2202121249019829706&#45;8685971429576544073&#45;4174212607265404928&#45;4970331641515606702&#45;1370122890739054250&#45;74051086500145544681038131168075908976</title>
<g id="a_node1"><a xlink:title="A decision tree classifier to predict gears.">
<path fill="cyan" stroke="black" d="M526,-341C526,-341 303,-341 303,-341 297,-341 291,-335 291,-329 291,-329 291,-284 291,-284 291,-278 297,-272 303,-272 303,-272 526,-272 526,-272 532,-272 538,-278 538,-284 538,-284 538,-329 538,-329 538,-335 532,-341 526,-341"/>
<text text-anchor="start" x="392" y="-323.3" font-family="Times New Roman,serif" font-size="14.00">DT_VA</text>
<polygon fill="none" stroke="black" points="299.5,-296.5 299.5,-317.5 401.5,-317.5 401.5,-296.5 299.5,-296.5"/>
<text text-anchor="start" x="310.5" y="-303.3" font-family="Times New Roman,serif" font-size="14.00">remote child 1=</text>
<polygon fill="none" stroke="black" points="401.5,-296.5 401.5,-317.5 530.5,-317.5 530.5,-296.5 401.5,-296.5"/>
<text text-anchor="start" x="404.5" y="-303.3" font-family="Times New Roman,serif" font-size="14.00">dt_va_model:DT_VA</text>
<polygon fill="none" stroke="black" points="299.5,-275.5 299.5,-296.5 401.5,-296.5 401.5,-275.5 299.5,-275.5"/>
<text text-anchor="start" x="302.5" y="-282.3" font-family="Times New Roman,serif" font-size="14.00">remote parent 0=</text>
<polygon fill="none" stroke="black" points="401.5,-275.5 401.5,-296.5 530.5,-296.5 530.5,-275.5 401.5,-275.5"/>
<text text-anchor="start" x="404.5" y="-282.3" font-family="Times New Roman,serif" font-size="14.00">dt_va_model:DT_VA</text>
</a>
</g>
</g>
<!-- cluster_cluster_cluster_cluster_cluster_cluster_&#45;2202121249019829706&#45;8685971429576544073&#45;4174212607265404928&#45;4970331641515606702&#45;1370122890739054250&#45;7405108650014554468&#45;412320468793053698 -->
<g id="node4" class="node"><title>cluster_cluster_cluster_cluster_cluster_cluster_&#45;2202121249019829706&#45;8685971429576544073&#45;4174212607265404928&#45;4970331641515606702&#45;1370122890739054250&#45;7405108650014554468&#45;412320468793053698</title>
<g id="a_node4"><a xlink:href="./../../../AM-wltp_h_errors/AM-wltp_h_error_vs_wltp_h/Automatic_gear_model/dt_va_model/co2mpas.model.physical.gear_box.at_gearprediction_gears_decision_tree.txt" xlink:title="Predicts gears with a decision tree classifier [&#45;].">
<polygon fill="springgreen" stroke="black" points="790.5,-236 594.5,-236 594.5,-200 790.5,-200 790.5,-236"/>
<text text-anchor="start" x="605" y="-213.8" font-family="Times New Roman,serif" font-size="14.00">prediction_gears_decision_tree</text>
</a>
</g>
</g>
<!-- cluster_cluster_cluster_cluster_cluster_cluster_&#45;2202121249019829706&#45;8685971429576544073&#45;4174212607265404928&#45;4970331641515606702&#45;1370122890739054250&#45;74051086500145544681038131168075908976&#45;&gt;cluster_cluster_cluster_cluster_cluster_cluster_&#45;2202121249019829706&#45;8685971429576544073&#45;4174212607265404928&#45;4970331641515606702&#45;1370122890739054250&#45;7405108650014554468&#45;412320468793053698 -->
<g id="edge1" class="edge"><title>cluster_cluster_cluster_cluster_cluster_cluster_&#45;2202121249019829706&#45;8685971429576544073&#45;4174212607265404928&#45;4970331641515606702&#45;1370122890739054250&#45;74051086500145544681038131168075908976&#45;&gt;cluster_cluster_cluster_cluster_cluster_cluster_&#45;2202121249019829706&#45;8685971429576544073&#45;4174212607265404928&#45;4970331641515606702&#45;1370122890739054250&#45;7405108650014554468&#45;412320468793053698</title>
<path fill="none" stroke="black" d="M521.75,-271.991C521.75,-249.383 521.75,-224 521.75,-224 521.75,-224 584.163,-224 584.163,-224"/>
<polygon fill="black" stroke="black" points="584.163,-227.5 594.163,-224 584.163,-220.5 584.163,-227.5"/>
</g>
<!-- cluster_cluster_cluster_cluster_cluster_cluster_&#45;2202121249019829706&#45;8685971429576544073&#45;4174212607265404928&#45;4970331641515606702&#45;1370122890739054250&#45;7405108650014554468&#45;6281391710310240799 -->
<g id="node2" class="node"><title>cluster_cluster_cluster_cluster_cluster_cluster_&#45;2202121249019829706&#45;8685971429576544073&#45;4174212607265404928&#45;4970331641515606702&#45;1370122890739054250&#45;7405108650014554468&#45;6281391710310240799</title>
<g id="a_node2"><a xlink:title="Acceleration vector [m/s2].">
<path fill="cyan" stroke="black" d="M261,-330.5C261,-330.5 12,-330.5 12,-330.5 6,-330.5 0,-324.5 0,-318.5 0,-318.5 0,-294.5 0,-294.5 0,-288.5 6,-282.5 12,-282.5 12,-282.5 261,-282.5 261,-282.5 267,-282.5 273,-288.5 273,-294.5 273,-294.5 273,-318.5 273,-318.5 273,-324.5 267,-330.5 261,-330.5"/>
<text text-anchor="start" x="100.5" y="-313.3" font-family="Times New Roman,serif" font-size="14.00">accelerations</text>
<polygon fill="none" stroke="black" points="8.5,-286.5 8.5,-307.5 110.5,-307.5 110.5,-286.5 8.5,-286.5"/>
<text text-anchor="start" x="11.5" y="-293.3" font-family="Times New Roman,serif" font-size="14.00">remote parent 0=</text>
<polygon fill="none" stroke="black" points="110.5,-286.5 110.5,-307.5 265.5,-307.5 265.5,-286.5 110.5,-286.5"/>
<text text-anchor="start" x="113.5" y="-293.3" font-family="Times New Roman,serif" font-size="14.00">dt_va_model:accelerations</text>
</a>
</g>
</g>
<!-- cluster_cluster_cluster_cluster_cluster_cluster_&#45;2202121249019829706&#45;8685971429576544073&#45;4174212607265404928&#45;4970331641515606702&#45;1370122890739054250&#45;7405108650014554468&#45;992705794952703737 -->
<g id="node3" class="node"><title>cluster_cluster_cluster_cluster_cluster_cluster_&#45;2202121249019829706&#45;8685971429576544073&#45;4174212607265404928&#45;4970331641515606702&#45;1370122890739054250&#45;7405108650014554468&#45;992705794952703737</title>
<g id="a_node3"><a xlink:href="./../../../AM-wltp_h_errors/AM-wltp_h_error_vs_wltp_h/Automatic_gear_model/dt_va_model/co2mpas.model.physical.gear_box.at_gearcalibrate_gear_shifting_decision_tree.txt" xlink:title="Calibrates a decision tree classifier to predict gears.">
<polygon fill="springgreen" stroke="black" points="662.5,-59 434.5,-59 434.5,-23 662.5,-23 662.5,-59"/>
<text text-anchor="start" x="444.5" y="-36.8" font-family="Times New Roman,serif" font-size="14.00">calibrate_gear_shifting_decision_tree</text>
</a>
</g>
</g>
<!-- cluster_cluster_cluster_cluster_cluster_cluster_&#45;2202121249019829706&#45;8685971429576544073&#45;4174212607265404928&#45;4970331641515606702&#45;1370122890739054250&#45;7405108650014554468&#45;6281391710310240799&#45;&gt;cluster_cluster_cluster_cluster_cluster_cluster_&#45;2202121249019829706&#45;8685971429576544073&#45;4174212607265404928&#45;4970331641515606702&#45;1370122890739054250&#45;7405108650014554468&#45;992705794952703737 -->
<g id="edge2" class="edge"><title>cluster_cluster_cluster_cluster_cluster_cluster_&#45;2202121249019829706&#45;8685971429576544073&#45;4174212607265404928&#45;4970331641515606702&#45;1370122890739054250&#45;7405108650014554468&#45;6281391710310240799&#45;&gt;cluster_cluster_cluster_cluster_cluster_cluster_&#45;2202121249019829706&#45;8685971429576544073&#45;4174212607265404928&#45;4970331641515606702&#45;1370122890739054250&#45;7405108650014554468&#45;992705794952703737</title>
<path fill="none" stroke="black" d="M91,-282.47C91,-217.115 91,-41 91,-41 91,-41 424.234,-41 424.234,-41"/>
<polygon fill="black" stroke="black" points="424.234,-44.5001 434.234,-41 424.234,-37.5001 424.234,-44.5001"/>
</g>
<!-- cluster_cluster_cluster_cluster_cluster_cluster_&#45;2202121249019829706&#45;8685971429576544073&#45;4174212607265404928&#45;4970331641515606702&#45;1370122890739054250&#45;7405108650014554468&#45;6281391710310240799&#45;&gt;cluster_cluster_cluster_cluster_cluster_cluster_&#45;2202121249019829706&#45;8685971429576544073&#45;4174212607265404928&#45;4970331641515606702&#45;1370122890739054250&#45;7405108650014554468&#45;412320468793053698 -->
<g id="edge3" class="edge"><title>cluster_cluster_cluster_cluster_cluster_cluster_&#45;2202121249019829706&#45;8685971429576544073&#45;4174212607265404928&#45;4970331641515606702&#45;1370122890739054250&#45;7405108650014554468&#45;6281391710310240799&#45;&gt;cluster_cluster_cluster_cluster_cluster_cluster_&#45;2202121249019829706&#45;8685971429576544073&#45;4174212607265404928&#45;4970331641515606702&#45;1370122890739054250&#45;7405108650014554468&#45;412320468793053698</title>
<path fill="none" stroke="black" d="M182,-282.164C182,-254.164 182,-212 182,-212 182,-212 584.373,-212 584.373,-212"/>
<polygon fill="black" stroke="black" points="584.373,-215.5 594.373,-212 584.373,-208.5 584.373,-215.5"/>
</g>
<!-- cluster_cluster_cluster_cluster_cluster_cluster_&#45;2202121249019829706&#45;8685971429576544073&#45;4174212607265404928&#45;4970331641515606702&#45;1370122890739054250&#45;7405108650014554468&#45;992705794952703737&#45;&gt;cluster_cluster_cluster_cluster_cluster_cluster_&#45;2202121249019829706&#45;8685971429576544073&#45;4174212607265404928&#45;4970331641515606702&#45;1370122890739054250&#45;74051086500145544681038131168075908976 -->
<g id="edge4" class="edge"><title>cluster_cluster_cluster_cluster_cluster_cluster_&#45;2202121249019829706&#45;8685971429576544073&#45;4174212607265404928&#45;4970331641515606702&#45;1370122890739054250&#45;7405108650014554468&#45;992705794952703737&#45;&gt;cluster_cluster_cluster_cluster_cluster_cluster_&#45;2202121249019829706&#45;8685971429576544073&#45;4174212607265404928&#45;4970331641515606702&#45;1370122890739054250&#45;74051086500145544681038131168075908976</title>
<path fill="none" stroke="black" d="M470,-59.2489C470,-59.2489 470,-261.846 470,-261.846"/>
<polygon fill="black" stroke="black" points="466.5,-261.846 470,-271.846 473.5,-261.846 466.5,-261.846"/>
</g>
<!-- cluster_cluster_cluster_cluster_cluster_cluster_&#45;2202121249019829706&#45;8685971429576544073&#45;4174212607265404928&#45;4970331641515606702&#45;1370122890739054250&#45;74051086500145544685823726384603252559 -->
<g id="node7" class="node"><title>cluster_cluster_cluster_cluster_cluster_cluster_&#45;2202121249019829706&#45;8685971429576544073&#45;4174212607265404928&#45;4970331641515606702&#45;1370122890739054250&#45;74051086500145544685823726384603252559</title>
<g id="a_node7"><a xlink:title="Gear vector [&#45;].">
<path fill="cyan" stroke="black" d="M723.5,-164C723.5,-164 517.5,-164 517.5,-164 511.5,-164 505.5,-158 505.5,-152 505.5,-152 505.5,-107 505.5,-107 505.5,-101 511.5,-95 517.5,-95 517.5,-95 723.5,-95 723.5,-95 729.5,-95 735.5,-101 735.5,-107 735.5,-107 735.5,-152 735.5,-152 735.5,-158 729.5,-164 723.5,-164"/>
<text text-anchor="start" x="605.5" y="-146.3" font-family="Times New Roman,serif" font-size="14.00">gears</text>
<polygon fill="none" stroke="black" points="513.5,-119.5 513.5,-140.5 615.5,-140.5 615.5,-119.5 513.5,-119.5"/>
<text text-anchor="start" x="524.5" y="-126.3" font-family="Times New Roman,serif" font-size="14.00">remote child 1=</text>
<polygon fill="none" stroke="black" points="615.5,-119.5 615.5,-140.5 727.5,-140.5 727.5,-119.5 615.5,-119.5"/>
<text text-anchor="start" x="618.5" y="-126.3" font-family="Times New Roman,serif" font-size="14.00">dt_va_model:gears</text>
<polygon fill="none" stroke="black" points="513.5,-98.5 513.5,-119.5 615.5,-119.5 615.5,-98.5 513.5,-98.5"/>
<text text-anchor="start" x="516.5" y="-105.3" font-family="Times New Roman,serif" font-size="14.00">remote parent 0=</text>
<polygon fill="none" stroke="black" points="615.5,-98.5 615.5,-119.5 727.5,-119.5 727.5,-98.5 615.5,-98.5"/>
<text text-anchor="start" x="618.5" y="-105.3" font-family="Times New Roman,serif" font-size="14.00">dt_va_model:gears</text>
</a>
</g>
</g>
<!-- cluster_cluster_cluster_cluster_cluster_cluster_&#45;2202121249019829706&#45;8685971429576544073&#45;4174212607265404928&#45;4970331641515606702&#45;1370122890739054250&#45;7405108650014554468&#45;412320468793053698&#45;&gt;cluster_cluster_cluster_cluster_cluster_cluster_&#45;2202121249019829706&#45;8685971429576544073&#45;4174212607265404928&#45;4970331641515606702&#45;1370122890739054250&#45;74051086500145544685823726384603252559 -->
<g id="edge5" class="edge"><title>cluster_cluster_cluster_cluster_cluster_cluster_&#45;2202121249019829706&#45;8685971429576544073&#45;4174212607265404928&#45;4970331641515606702&#45;1370122890739054250&#45;7405108650014554468&#45;412320468793053698&#45;&gt;cluster_cluster_cluster_cluster_cluster_cluster_&#45;2202121249019829706&#45;8685971429576544073&#45;4174212607265404928&#45;4970331641515606702&#45;1370122890739054250&#45;74051086500145544685823726384603252559</title>
<path fill="none" stroke="black" d="M665,-199.663C665,-199.663 665,-174.269 665,-174.269"/>
<polygon fill="black" stroke="black" points="668.5,-174.269 665,-164.269 661.5,-174.269 668.5,-174.269"/>
</g>
<!-- cluster_cluster_cluster_cluster_cluster_cluster_&#45;2202121249019829706&#45;8685971429576544073&#45;4174212607265404928&#45;4970331641515606702&#45;1370122890739054250&#45;7405108650014554468&#45;2328696801353446754 -->
<g id="node5" class="node"><title>cluster_cluster_cluster_cluster_cluster_cluster_&#45;2202121249019829706&#45;8685971429576544073&#45;4174212607265404928&#45;4970331641515606702&#45;1370122890739054250&#45;7405108650014554468&#45;2328696801353446754</title>
<g id="a_node5"><a xlink:title="A function to correct the gear predicted.">
<path fill="cyan" stroke="black" d="M816.5,-330.5C816.5,-330.5 568.5,-330.5 568.5,-330.5 562.5,-330.5 556.5,-324.5 556.5,-318.5 556.5,-318.5 556.5,-294.5 556.5,-294.5 556.5,-288.5 562.5,-282.5 568.5,-282.5 568.5,-282.5 816.5,-282.5 816.5,-282.5 822.5,-282.5 828.5,-288.5 828.5,-294.5 828.5,-294.5 828.5,-318.5 828.5,-318.5 828.5,-324.5 822.5,-330.5 816.5,-330.5"/>
<text text-anchor="start" x="657" y="-313.3" font-family="Times New Roman,serif" font-size="14.00">correct_gear</text>
<polygon fill="none" stroke="black" points="564.5,-286.5 564.5,-307.5 666.5,-307.5 666.5,-286.5 564.5,-286.5"/>
<text text-anchor="start" x="567.5" y="-293.3" font-family="Times New Roman,serif" font-size="14.00">remote parent 0=</text>
<polygon fill="none" stroke="black" points="666.5,-286.5 666.5,-307.5 820.5,-307.5 820.5,-286.5 666.5,-286.5"/>
<text text-anchor="start" x="669.5" y="-293.3" font-family="Times New Roman,serif" font-size="14.00">dt_va_model:correct_gear</text>
</a>
</g>
</g>
<!-- cluster_cluster_cluster_cluster_cluster_cluster_&#45;2202121249019829706&#45;8685971429576544073&#45;4174212607265404928&#45;4970331641515606702&#45;1370122890739054250&#45;7405108650014554468&#45;2328696801353446754&#45;&gt;cluster_cluster_cluster_cluster_cluster_cluster_&#45;2202121249019829706&#45;8685971429576544073&#45;4174212607265404928&#45;4970331641515606702&#45;1370122890739054250&#45;7405108650014554468&#45;412320468793053698 -->
<g id="edge6" class="edge"><title>cluster_cluster_cluster_cluster_cluster_cluster_&#45;2202121249019829706&#45;8685971429576544073&#45;4174212607265404928&#45;4970331641515606702&#45;1370122890739054250&#45;7405108650014554468&#45;2328696801353446754&#45;&gt;cluster_cluster_cluster_cluster_cluster_cluster_&#45;2202121249019829706&#45;8685971429576544073&#45;4174212607265404928&#45;4970331641515606702&#45;1370122890739054250&#45;7405108650014554468&#45;412320468793053698</title>
<path fill="none" stroke="black" d="M692.5,-282.317C692.5,-282.317 692.5,-246.257 692.5,-246.257"/>
<polygon fill="black" stroke="black" points="696,-246.257 692.5,-236.257 689,-246.257 696,-246.257"/>
</g>
<!-- cluster_cluster_cluster_cluster_cluster_cluster_&#45;2202121249019829706&#45;8685971429576544073&#45;4174212607265404928&#45;4970331641515606702&#45;1370122890739054250&#45;74051086500145544682896906763587689886 -->
<g id="node6" class="node"><title>cluster_cluster_cluster_cluster_cluster_cluster_&#45;2202121249019829706&#45;8685971429576544073&#45;4174212607265404928&#45;4970331641515606702&#45;1370122890739054250&#45;74051086500145544682896906763587689886</title>
<g id="a_node6"><a xlink:title="Gear filter function.">
<path fill="cyan" stroke="black" d="M1092,-330.5C1092,-330.5 859,-330.5 859,-330.5 853,-330.5 847,-324.5 847,-318.5 847,-318.5 847,-294.5 847,-294.5 847,-288.5 853,-282.5 859,-282.5 859,-282.5 1092,-282.5 1092,-282.5 1098,-282.5 1104,-288.5 1104,-294.5 1104,-294.5 1104,-318.5 1104,-318.5 1104,-324.5 1098,-330.5 1092,-330.5"/>
<text text-anchor="start" x="948" y="-313.3" font-family="Times New Roman,serif" font-size="14.00">gear_filter</text>
<polygon fill="none" stroke="black" points="855.5,-286.5 855.5,-307.5 957.5,-307.5 957.5,-286.5 855.5,-286.5"/>
<text text-anchor="start" x="858.5" y="-293.3" font-family="Times New Roman,serif" font-size="14.00">remote parent 0=</text>
<polygon fill="none" stroke="black" points="957.5,-286.5 957.5,-307.5 1096.5,-307.5 1096.5,-286.5 957.5,-286.5"/>
<text text-anchor="start" x="960.5" y="-293.3" font-family="Times New Roman,serif" font-size="14.00">dt_va_model:gear_filter</text>
</a>
</g>
</g>
<!-- cluster_cluster_cluster_cluster_cluster_cluster_&#45;2202121249019829706&#45;8685971429576544073&#45;4174212607265404928&#45;4970331641515606702&#45;1370122890739054250&#45;74051086500145544682896906763587689886&#45;&gt;cluster_cluster_cluster_cluster_cluster_cluster_&#45;2202121249019829706&#45;8685971429576544073&#45;4174212607265404928&#45;4970331641515606702&#45;1370122890739054250&#45;7405108650014554468&#45;412320468793053698 -->
<g id="edge7" class="edge"><title>cluster_cluster_cluster_cluster_cluster_cluster_&#45;2202121249019829706&#45;8685971429576544073&#45;4174212607265404928&#45;4970331641515606702&#45;1370122890739054250&#45;74051086500145544682896906763587689886&#45;&gt;cluster_cluster_cluster_cluster_cluster_cluster_&#45;2202121249019829706&#45;8685971429576544073&#45;4174212607265404928&#45;4970331641515606702&#45;1370122890739054250&#45;7405108650014554468&#45;412320468793053698</title>
<path fill="none" stroke="black" d="M975.5,-282.215C975.5,-258.836 975.5,-227 975.5,-227 975.5,-227 800.685,-227 800.685,-227"/>
<polygon fill="black" stroke="black" points="800.685,-223.5 790.685,-227 800.685,-230.5 800.685,-223.5"/>
</g>
<!-- cluster_cluster_cluster_cluster_cluster_cluster_&#45;2202121249019829706&#45;8685971429576544073&#45;4174212607265404928&#45;4970331641515606702&#45;1370122890739054250&#45;74051086500145544685823726384603252559&#45;&gt;cluster_cluster_cluster_cluster_cluster_cluster_&#45;2202121249019829706&#45;8685971429576544073&#45;4174212607265404928&#45;4970331641515606702&#45;1370122890739054250&#45;7405108650014554468&#45;992705794952703737 -->
<g id="edge8" class="edge"><title>cluster_cluster_cluster_cluster_cluster_cluster_&#45;2202121249019829706&#45;8685971429576544073&#45;4174212607265404928&#45;4970331641515606702&#45;1370122890739054250&#45;74051086500145544685823726384603252559&#45;&gt;cluster_cluster_cluster_cluster_cluster_cluster_&#45;2202121249019829706&#45;8685971429576544073&#45;4174212607265404928&#45;4970331641515606702&#45;1370122890739054250&#45;7405108650014554468&#45;992705794952703737</title>
<path fill="none" stroke="black" d="M584,-94.7765C584,-94.7765 584,-69.0777 584,-69.0777"/>
<polygon fill="black" stroke="black" points="587.5,-69.0777 584,-59.0777 580.5,-69.0778 587.5,-69.0777"/>
</g>
<!-- cluster_cluster_cluster_cluster_cluster_cluster_&#45;2202121249019829706&#45;8685971429576544073&#45;4174212607265404928&#45;4970331641515606702&#45;1370122890739054250&#45;7405108650014554468&#45;1825562924159530342 -->
<g id="node8" class="node"><title>cluster_cluster_cluster_cluster_cluster_cluster_&#45;2202121249019829706&#45;8685971429576544073&#45;4174212607265404928&#45;4970331641515606702&#45;1370122890739054250&#45;7405108650014554468&#45;1825562924159530342</title>
<g id="a_node8"><a xlink:title="Time vector [s].">
<path fill="cyan" stroke="black" d="M1340.5,-330.5C1340.5,-330.5 1134.5,-330.5 1134.5,-330.5 1128.5,-330.5 1122.5,-324.5 1122.5,-318.5 1122.5,-318.5 1122.5,-294.5 1122.5,-294.5 1122.5,-288.5 1128.5,-282.5 1134.5,-282.5 1134.5,-282.5 1340.5,-282.5 1340.5,-282.5 1346.5,-282.5 1352.5,-288.5 1352.5,-294.5 1352.5,-294.5 1352.5,-318.5 1352.5,-318.5 1352.5,-324.5 1346.5,-330.5 1340.5,-330.5"/>
<text text-anchor="start" x="1222.5" y="-313.3" font-family="Times New Roman,serif" font-size="14.00">times</text>
<polygon fill="none" stroke="black" points="1130.5,-286.5 1130.5,-307.5 1232.5,-307.5 1232.5,-286.5 1130.5,-286.5"/>
<text text-anchor="start" x="1133.5" y="-293.3" font-family="Times New Roman,serif" font-size="14.00">remote parent 0=</text>
<polygon fill="none" stroke="black" points="1232.5,-286.5 1232.5,-307.5 1344.5,-307.5 1344.5,-286.5 1232.5,-286.5"/>
<text text-anchor="start" x="1235.5" y="-293.3" font-family="Times New Roman,serif" font-size="14.00">dt_va_model:times</text>
</a>
</g>
</g>
<!-- cluster_cluster_cluster_cluster_cluster_cluster_&#45;2202121249019829706&#45;8685971429576544073&#45;4174212607265404928&#45;4970331641515606702&#45;1370122890739054250&#45;7405108650014554468&#45;1825562924159530342&#45;&gt;cluster_cluster_cluster_cluster_cluster_cluster_&#45;2202121249019829706&#45;8685971429576544073&#45;4174212607265404928&#45;4970331641515606702&#45;1370122890739054250&#45;7405108650014554468&#45;412320468793053698 -->
<g id="edge9" class="edge"><title>cluster_cluster_cluster_cluster_cluster_cluster_&#45;2202121249019829706&#45;8685971429576544073&#45;4174212607265404928&#45;4970331641515606702&#45;1370122890739054250&#45;7405108650014554468&#45;1825562924159530342&#45;&gt;cluster_cluster_cluster_cluster_cluster_cluster_&#45;2202121249019829706&#45;8685971429576544073&#45;4174212607265404928&#45;4970331641515606702&#45;1370122890739054250&#45;7405108650014554468&#45;412320468793053698</title>
<path fill="none" stroke="black" d="M1237.5,-282.317C1237.5,-256.114 1237.5,-218 1237.5,-218 1237.5,-218 800.565,-218 800.565,-218"/>
<polygon fill="black" stroke="black" points="800.565,-214.5 790.565,-218 800.564,-221.5 800.565,-214.5"/>
</g>
<!-- cluster_cluster_cluster_cluster_cluster_cluster_&#45;2202121249019829706&#45;8685971429576544073&#45;4174212607265404928&#45;4970331641515606702&#45;1370122890739054250&#45;74051086500145544681395676110976739562 -->
<g id="node9" class="node"><title>cluster_cluster_cluster_cluster_cluster_cluster_&#45;2202121249019829706&#45;8685971429576544073&#45;4174212607265404928&#45;4970331641515606702&#45;1370122890739054250&#45;74051086500145544681395676110976739562</title>
<g id="a_node9"><a xlink:title="Time series vectors.">
<path fill="cyan" stroke="black" d="M1612,-330.5C1612,-330.5 1383,-330.5 1383,-330.5 1377,-330.5 1371,-324.5 1371,-318.5 1371,-318.5 1371,-294.5 1371,-294.5 1371,-288.5 1377,-282.5 1383,-282.5 1383,-282.5 1612,-282.5 1612,-282.5 1618,-282.5 1624,-288.5 1624,-294.5 1624,-294.5 1624,-318.5 1624,-318.5 1624,-324.5 1618,-330.5 1612,-330.5"/>
<text text-anchor="start" x="1472" y="-313.3" font-family="Times New Roman,serif" font-size="14.00">velocities</text>
<polygon fill="none" stroke="black" points="1379.5,-286.5 1379.5,-307.5 1481.5,-307.5 1481.5,-286.5 1379.5,-286.5"/>
<text text-anchor="start" x="1382.5" y="-293.3" font-family="Times New Roman,serif" font-size="14.00">remote parent 0=</text>
<polygon fill="none" stroke="black" points="1481.5,-286.5 1481.5,-307.5 1616.5,-307.5 1616.5,-286.5 1481.5,-286.5"/>
<text text-anchor="start" x="1484.5" y="-293.3" font-family="Times New Roman,serif" font-size="14.00">dt_va_model:velocities</text>
</a>
</g>
</g>
<!-- cluster_cluster_cluster_cluster_cluster_cluster_&#45;2202121249019829706&#45;8685971429576544073&#45;4174212607265404928&#45;4970331641515606702&#45;1370122890739054250&#45;74051086500145544681395676110976739562&#45;&gt;cluster_cluster_cluster_cluster_cluster_cluster_&#45;2202121249019829706&#45;8685971429576544073&#45;4174212607265404928&#45;4970331641515606702&#45;1370122890739054250&#45;7405108650014554468&#45;992705794952703737 -->
<g id="edge10" class="edge"><title>cluster_cluster_cluster_cluster_cluster_cluster_&#45;2202121249019829706&#45;8685971429576544073&#45;4174212607265404928&#45;4970331641515606702&#45;1370122890739054250&#45;74051086500145544681395676110976739562&#45;&gt;cluster_cluster_cluster_cluster_cluster_cluster_&#45;2202121249019829706&#45;8685971429576544073&#45;4174212607265404928&#45;4970331641515606702&#45;1370122890739054250&#45;7405108650014554468&#45;992705794952703737</title>
<path fill="none" stroke="black" d="M1539.67,-282.47C1539.67,-217.115 1539.67,-41 1539.67,-41 1539.67,-41 672.683,-41 672.683,-41"/>
<polygon fill="black" stroke="black" points="672.683,-37.5001 662.683,-41 672.683,-44.5001 672.683,-37.5001"/>
</g>
<!-- cluster_cluster_cluster_cluster_cluster_cluster_&#45;2202121249019829706&#45;8685971429576544073&#45;4174212607265404928&#45;4970331641515606702&#45;1370122890739054250&#45;74051086500145544681395676110976739562&#45;&gt;cluster_cluster_cluster_cluster_cluster_cluster_&#45;2202121249019829706&#45;8685971429576544073&#45;4174212607265404928&#45;4970331641515606702&#45;1370122890739054250&#45;7405108650014554468&#45;412320468793053698 -->
<g id="edge11" class="edge"><title>cluster_cluster_cluster_cluster_cluster_cluster_&#45;2202121249019829706&#45;8685971429576544073&#45;4174212607265404928&#45;4970331641515606702&#45;1370122890739054250&#45;74051086500145544681395676110976739562&#45;&gt;cluster_cluster_cluster_cluster_cluster_cluster_&#45;2202121249019829706&#45;8685971429576544073&#45;4174212607265404928&#45;4970331641515606702&#45;1370122890739054250&#45;7405108650014554468&#45;412320468793053698</title>
<path fill="none" stroke="black" d="M1455.33,-282.399C1455.33,-253.526 1455.33,-209 1455.33,-209 1455.33,-209 800.665,-209 800.665,-209"/>
<polygon fill="black" stroke="black" points="800.665,-205.5 790.665,-209 800.665,-212.5 800.665,-205.5"/>
</g>
</g>
</svg>
