<?xml version="1.0" encoding="UTF-8" standalone="no"?>
<!DOCTYPE svg PUBLIC "-//W3C//DTD SVG 1.1//EN"
 "http://www.w3.org/Graphics/SVG/1.1/DTD/svg11.dtd">
<!-- Generated by graphviz version 2.38.0 (20140413.2041)
 -->
<!-- Title: cluster_CO2_emission_model Pages: 1 -->
<svg width="752pt" height="268pt"
 viewBox="0.00 0.00 751.50 268.00" xmlns="http://www.w3.org/2000/svg" xmlns:xlink="http://www.w3.org/1999/xlink">
<g id="graph0" class="graph" transform="scale(1 1) rotate(0) translate(4 264)">
<title>cluster_CO2_emission_model</title>
<polygon fill="white" stroke="none" points="-4,4 -4,-264 747.5,-264 747.5,4 -4,4"/>
<text text-anchor="start" x="308.75" y="-7.8" font-family="Times New Roman,serif" font-size="14.00">CO2_emission_model</text>
<!-- cluster_cluster_cluster_cluster_cluster_cluster_cluster_&#45;220212124901982970656214335412117874644487423537040413414&#45;53943249679327306957247368105579582134399995647362200591&#45;948718598727577651&#45;913515229140654484 -->
<g id="node1" class="node"><title>cluster_cluster_cluster_cluster_cluster_cluster_cluster_&#45;220212124901982970656214335412117874644487423537040413414&#45;53943249679327306957247368105579582134399995647362200591&#45;948718598727577651&#45;913515229140654484</title>
<g id="a_node1"><a xlink:title="calibration_status">
<path fill="cyan" stroke="black" d="M330,-81.5C330,-81.5 12,-81.5 12,-81.5 6,-81.5 0,-75.5 0,-69.5 0,-69.5 0,-45.5 0,-45.5 0,-39.5 6,-33.5 12,-33.5 12,-33.5 330,-33.5 330,-33.5 336,-33.5 342,-39.5 342,-45.5 342,-45.5 342,-69.5 342,-69.5 342,-75.5 336,-81.5 330,-81.5"/>
<text text-anchor="start" x="122" y="-64.3" font-family="Times New Roman,serif" font-size="14.00">calibration_status</text>
<polygon fill="none" stroke="black" points="8,-37.5 8,-58.5 102,-58.5 102,-37.5 8,-37.5"/>
<text text-anchor="start" x="11" y="-44.3" font-family="Times New Roman,serif" font-size="14.00">remote child 0=</text>
<polygon fill="none" stroke="black" points="102,-37.5 102,-58.5 334,-58.5 334,-37.5 102,-37.5"/>
<text text-anchor="start" x="105" y="-44.3" font-family="Times New Roman,serif" font-size="14.00">CO2_emission_model:calibration_status</text>
</a>
</g>
</g>
<!-- cluster_cluster_cluster_cluster_cluster_cluster_cluster_&#45;220212124901982970656214335412117874644487423537040413414&#45;53943249679327306957247368105579582134399995647362200591&#45;94871859872757765156121151447196577 -->
<g id="node2" class="node"><title>cluster_cluster_cluster_cluster_cluster_cluster_cluster_&#45;220212124901982970656214335412117874644487423537040413414&#45;53943249679327306957247368105579582134399995647362200591&#45;94871859872757765156121151447196577</title>
<g id="a_node2"><a xlink:title="CO2 emission model parameters (a2, b2, a, b, c, l, l2, t, trg).">
<path fill="cyan" stroke="black" d="M589.5,-260C589.5,-260 132.5,-260 132.5,-260 126.5,-260 120.5,-254 120.5,-248 120.5,-248 120.5,-224 120.5,-224 120.5,-218 126.5,-212 132.5,-212 132.5,-212 589.5,-212 589.5,-212 595.5,-212 601.5,-218 601.5,-224 601.5,-224 601.5,-248 601.5,-248 601.5,-254 595.5,-260 589.5,-260"/>
<text text-anchor="start" x="326.5" y="-242.8" font-family="Times New Roman,serif" font-size="14.00">co2_params</text>
<polygon fill="none" stroke="black" points="129,-216 129,-237 231,-237 231,-216 129,-216"/>
<text text-anchor="start" x="132" y="-222.8" font-family="Times New Roman,serif" font-size="14.00">remote parent 0=</text>
<polygon fill="none" stroke="black" points="231,-216 231,-237 594,-237 594,-216 231,-216"/>
<text text-anchor="start" x="234" y="-222.8" font-family="Times New Roman,serif" font-size="14.00">CO2_emission_model:(&#39;co2_params&#39;, &#39;co2_params_calibrated&#39;)</text>
</a>
</g>
</g>
<!-- cluster_cluster_cluster_cluster_cluster_cluster_cluster_&#45;220212124901982970656214335412117874644487423537040413414&#45;53943249679327306957247368105579582134399995647362200591&#45;948718598727577651&#45;1157060426412552747 -->
<g id="node4" class="node"><title>cluster_cluster_cluster_cluster_cluster_cluster_cluster_&#45;220212124901982970656214335412117874644487423537040413414&#45;53943249679327306957247368105579582134399995647362200591&#45;948718598727577651&#45;1157060426412552747</title>
<g id="a_node4"><a xlink:href="./../../../../../co2_params_selector/CP-ALL_errors/CP-ALL_error_vs_wltp_h/Engine_CO2_emission_sub_model/co2mpas.model.physical.engine.co2_emissiondefine_co2_params_calibrated.txt" xlink:title="Defines the calibrated co2_params if all co2_params are given.">
<polygon fill="springgreen" stroke="black" points="477,-176 245,-176 245,-128 477,-128 477,-176"/>
<text text-anchor="start" x="275" y="-158.8" font-family="Times New Roman,serif" font-size="14.00">define_co2_params_calibrated</text>
<polygon fill="none" stroke="black" points="253,-132 253,-153 344,-153 344,-132 253,-132"/>
<text text-anchor="start" x="256" y="-138.8" font-family="Times New Roman,serif" font-size="14.00">input_domain=</text>
<polygon fill="none" stroke="black" points="344,-132 344,-153 469,-153 469,-132 344,-132"/>
<text text-anchor="start" x="347" y="-138.8" font-family="Times New Roman,serif" font-size="14.00">missing_co2_params</text>
</a>
</g>
</g>
<!-- cluster_cluster_cluster_cluster_cluster_cluster_cluster_&#45;220212124901982970656214335412117874644487423537040413414&#45;53943249679327306957247368105579582134399995647362200591&#45;94871859872757765156121151447196577&#45;&gt;cluster_cluster_cluster_cluster_cluster_cluster_cluster_&#45;220212124901982970656214335412117874644487423537040413414&#45;53943249679327306957247368105579582134399995647362200591&#45;948718598727577651&#45;1157060426412552747 -->
<g id="edge1" class="edge"><title>cluster_cluster_cluster_cluster_cluster_cluster_cluster_&#45;220212124901982970656214335412117874644487423537040413414&#45;53943249679327306957247368105579582134399995647362200591&#45;94871859872757765156121151447196577&#45;&gt;cluster_cluster_cluster_cluster_cluster_cluster_cluster_&#45;220212124901982970656214335412117874644487423537040413414&#45;53943249679327306957247368105579582134399995647362200591&#45;948718598727577651&#45;1157060426412552747</title>
<path fill="none" stroke="black" d="M361,-211.704C361,-211.704 361,-186.242 361,-186.242"/>
<polygon fill="black" stroke="black" points="364.5,-186.242 361,-176.242 357.5,-186.242 364.5,-186.242"/>
</g>
<!-- cluster_cluster_cluster_cluster_cluster_cluster_cluster_&#45;220212124901982970656214335412117874644487423537040413414&#45;53943249679327306957247368105579582134399995647362200591&#45;948718598727577651&#45;2013974788104753907 -->
<g id="node3" class="node"><title>cluster_cluster_cluster_cluster_cluster_cluster_cluster_&#45;220212124901982970656214335412117874644487423537040413414&#45;53943249679327306957247368105579582134399995647362200591&#45;948718598727577651&#45;2013974788104753907</title>
<g id="a_node3"><a xlink:title="co2_params_calibrated">
<path fill="cyan" stroke="black" d="M731.5,-92C731.5,-92 372.5,-92 372.5,-92 366.5,-92 360.5,-86 360.5,-80 360.5,-80 360.5,-35 360.5,-35 360.5,-29 366.5,-23 372.5,-23 372.5,-23 731.5,-23 731.5,-23 737.5,-23 743.5,-29 743.5,-35 743.5,-35 743.5,-80 743.5,-80 743.5,-86 737.5,-92 731.5,-92"/>
<text text-anchor="start" x="487" y="-74.3" font-family="Times New Roman,serif" font-size="14.00">co2_params_calibrated</text>
<polygon fill="none" stroke="black" points="369,-47.5 369,-68.5 471,-68.5 471,-47.5 369,-47.5"/>
<text text-anchor="start" x="380" y="-54.3" font-family="Times New Roman,serif" font-size="14.00">remote child 1=</text>
<polygon fill="none" stroke="black" points="471,-47.5 471,-68.5 736,-68.5 736,-47.5 471,-47.5"/>
<text text-anchor="start" x="474" y="-54.3" font-family="Times New Roman,serif" font-size="14.00">CO2_emission_model:co2_params_calibrated</text>
<polygon fill="none" stroke="black" points="369,-26.5 369,-47.5 471,-47.5 471,-26.5 369,-26.5"/>
<text text-anchor="start" x="372" y="-33.3" font-family="Times New Roman,serif" font-size="14.00">remote parent 0=</text>
<polygon fill="none" stroke="black" points="471,-26.5 471,-47.5 736,-47.5 736,-26.5 471,-26.5"/>
<text text-anchor="start" x="474" y="-33.3" font-family="Times New Roman,serif" font-size="14.00">CO2_emission_model:co2_params_calibrated</text>
</a>
</g>
</g>
<!-- cluster_cluster_cluster_cluster_cluster_cluster_cluster_&#45;220212124901982970656214335412117874644487423537040413414&#45;53943249679327306957247368105579582134399995647362200591&#45;948718598727577651&#45;1157060426412552747&#45;&gt;cluster_cluster_cluster_cluster_cluster_cluster_cluster_&#45;220212124901982970656214335412117874644487423537040413414&#45;53943249679327306957247368105579582134399995647362200591&#45;948718598727577651&#45;913515229140654484 -->
<g id="edge2" class="edge"><title>cluster_cluster_cluster_cluster_cluster_cluster_cluster_&#45;220212124901982970656214335412117874644487423537040413414&#45;53943249679327306957247368105579582134399995647362200591&#45;948718598727577651&#45;1157060426412552747&#45;&gt;cluster_cluster_cluster_cluster_cluster_cluster_cluster_&#45;220212124901982970656214335412117874644487423537040413414&#45;53943249679327306957247368105579582134399995647362200591&#45;948718598727577651&#45;913515229140654484</title>
<path fill="none" stroke="black" d="M293.5,-127.664C293.5,-127.664 293.5,-91.7536 293.5,-91.7536"/>
<polygon fill="black" stroke="black" points="297,-91.7536 293.5,-81.7536 290,-91.7537 297,-91.7536"/>
</g>
<!-- cluster_cluster_cluster_cluster_cluster_cluster_cluster_&#45;220212124901982970656214335412117874644487423537040413414&#45;53943249679327306957247368105579582134399995647362200591&#45;948718598727577651&#45;1157060426412552747&#45;&gt;cluster_cluster_cluster_cluster_cluster_cluster_cluster_&#45;220212124901982970656214335412117874644487423537040413414&#45;53943249679327306957247368105579582134399995647362200591&#45;948718598727577651&#45;2013974788104753907 -->
<g id="edge3" class="edge"><title>cluster_cluster_cluster_cluster_cluster_cluster_cluster_&#45;220212124901982970656214335412117874644487423537040413414&#45;53943249679327306957247368105579582134399995647362200591&#45;948718598727577651&#45;1157060426412552747&#45;&gt;cluster_cluster_cluster_cluster_cluster_cluster_cluster_&#45;220212124901982970656214335412117874644487423537040413414&#45;53943249679327306957247368105579582134399995647362200591&#45;948718598727577651&#45;2013974788104753907</title>
<path fill="none" stroke="black" d="M418.75,-127.664C418.75,-127.664 418.75,-102.083 418.75,-102.083"/>
<polygon fill="black" stroke="black" points="422.25,-102.083 418.75,-92.0827 415.25,-102.083 422.25,-102.083"/>
</g>
</g>
</svg>
