<?xml version="1.0" encoding="UTF-8" standalone="no"?>
<!DOCTYPE svg PUBLIC "-//W3C//DTD SVG 1.1//EN"
 "http://www.w3.org/Graphics/SVG/1.1/DTD/svg11.dtd">
<!-- Generated by graphviz version 2.38.0 (20140413.2041)
 -->
<!-- Title: cluster_thermal Pages: 1 -->
<svg width="1553pt" height="610pt"
 viewBox="0.00 0.00 1552.50 610.00" xmlns="http://www.w3.org/2000/svg" xmlns:xlink="http://www.w3.org/1999/xlink">
<g id="graph0" class="graph" transform="scale(1 1) rotate(0) translate(4 606)">
<title>cluster_thermal</title>
<polygon fill="white" stroke="none" points="-4,4 -4,-606 1548.5,-606 1548.5,4 -4,4"/>
<text text-anchor="start" x="751.75" y="-7.8" font-family="Times New Roman,serif" font-size="14.00">thermal</text>
<!-- cluster_cluster_cluster_38254101299140277614399995647362200591519415004263648723&#45;6281391710310240799 -->
<g id="node1" class="node"><title>cluster_cluster_cluster_38254101299140277614399995647362200591519415004263648723&#45;6281391710310240799</title>
<g id="a_node1"><a xlink:title="Acceleration vector [m/s2].">
<path fill="cyan" stroke="black" d="M1390.5,-602C1390.5,-602 1174.5,-602 1174.5,-602 1168.5,-602 1162.5,-596 1162.5,-590 1162.5,-590 1162.5,-566 1162.5,-566 1162.5,-560 1168.5,-554 1174.5,-554 1174.5,-554 1390.5,-554 1390.5,-554 1396.5,-554 1402.5,-560 1402.5,-566 1402.5,-566 1402.5,-590 1402.5,-590 1402.5,-596 1396.5,-602 1390.5,-602"/>
<text text-anchor="start" x="1246" y="-584.8" font-family="Times New Roman,serif" font-size="14.00">accelerations</text>
<polygon fill="none" stroke="black" points="1170.5,-558 1170.5,-579 1272.5,-579 1272.5,-558 1170.5,-558"/>
<text text-anchor="start" x="1173.5" y="-564.8" font-family="Times New Roman,serif" font-size="14.00">remote parent 0=</text>
<polygon fill="none" stroke="black" points="1272.5,-558 1272.5,-579 1394.5,-579 1394.5,-558 1272.5,-558"/>
<text text-anchor="start" x="1275.5" y="-564.8" font-family="Times New Roman,serif" font-size="14.00">thermal:accelerations</text>
</a>
</g>
</g>
<!-- cluster_cluster_cluster_38254101299140277614399995647362200591519415004263648723&#45;8257016996233610764 -->
<g id="node3" class="node"><title>cluster_cluster_cluster_38254101299140277614399995647362200591519415004263648723&#45;8257016996233610764</title>
<g id="a_node3"><a xlink:href="./thermal/co2mpas.model.physical.engine.thermalcalibrate_engine_temperature_regression_model.txt" xlink:title="Calibrates an engine temperature regression model to predict engine &#160;&#160;&#160;&#160;temperatures.">
<polygon fill="springgreen" stroke="black" points="621.5,-518 331.5,-518 331.5,-482 621.5,-482 621.5,-518"/>
<text text-anchor="start" x="342" y="-495.8" font-family="Times New Roman,serif" font-size="14.00">calibrate_engine_temperature_regression_model</text>
</a>
</g>
</g>
<!-- cluster_cluster_cluster_38254101299140277614399995647362200591519415004263648723&#45;6281391710310240799&#45;&gt;cluster_cluster_cluster_38254101299140277614399995647362200591519415004263648723&#45;8257016996233610764 -->
<g id="edge1" class="edge"><title>cluster_cluster_cluster_38254101299140277614399995647362200591519415004263648723&#45;6281391710310240799&#45;&gt;cluster_cluster_cluster_38254101299140277614399995647362200591519415004263648723&#45;8257016996233610764</title>
<path fill="none" stroke="black" d="M1168.17,-553.704C1168.17,-528.895 1168.17,-494 1168.17,-494 1168.17,-494 631.918,-494 631.918,-494"/>
<polygon fill="black" stroke="black" points="631.918,-490.5 621.918,-494 631.918,-497.5 631.918,-490.5"/>
</g>
<!-- cluster_cluster_cluster_382541012991402776143999956473622005915194150042636487238376316735024008210 -->
<g id="node8" class="node"><title>cluster_cluster_cluster_382541012991402776143999956473622005915194150042636487238376316735024008210</title>
<g id="a_node8"><a xlink:href="./thermal/co2mpas.model.physical.engine.thermalpredict_engine_coolant_temperatures.txt" xlink:title="Predicts the engine temperature [°C].">
<polygon fill="springgreen" stroke="black" points="1179.5,-341 949.5,-341 949.5,-305 1179.5,-305 1179.5,-341"/>
<text text-anchor="start" x="959.5" y="-318.8" font-family="Times New Roman,serif" font-size="14.00">predict_engine_coolant_temperatures</text>
</a>
</g>
</g>
<!-- cluster_cluster_cluster_38254101299140277614399995647362200591519415004263648723&#45;6281391710310240799&#45;&gt;cluster_cluster_cluster_382541012991402776143999956473622005915194150042636487238376316735024008210 -->
<g id="edge2" class="edge"><title>cluster_cluster_cluster_38254101299140277614399995647362200591519415004263648723&#45;6281391710310240799&#45;&gt;cluster_cluster_cluster_382541012991402776143999956473622005915194150042636487238376316735024008210</title>
<path fill="none" stroke="black" d="M1173.83,-553.55C1173.83,-553.55 1173.83,-351.047 1173.83,-351.047"/>
<polygon fill="black" stroke="black" points="1177.33,-351.047 1173.83,-341.047 1170.33,-351.047 1177.33,-351.047"/>
</g>
<!-- cluster_cluster_cluster_38254101299140277614399995647362200591519415004263648723&#45;3799898769648300494 -->
<g id="node2" class="node"><title>cluster_cluster_cluster_38254101299140277614399995647362200591519415004263648723&#45;3799898769648300494</title>
<g id="a_node2"><a xlink:href="./thermal/co2mpas.model.physical.engine.thermalcalculate_engine_temperature_derivatives.txt" xlink:title="Calculates the derivative of the engine temperature [°C/s].">
<polygon fill="springgreen" stroke="black" points="478.5,-164 226.5,-164 226.5,-128 478.5,-128 478.5,-164"/>
<text text-anchor="start" x="237" y="-141.8" font-family="Times New Roman,serif" font-size="14.00">calculate_engine_temperature_derivatives</text>
</a>
</g>
</g>
<!-- cluster_cluster_cluster_382541012991402776143999956473622005915194150042636487237545062914487011161 -->
<g id="node11" class="node"><title>cluster_cluster_cluster_382541012991402776143999956473622005915194150042636487237545062914487011161</title>
<g id="a_node11"><a xlink:title="Derivative of the engine temperature [°C/s].">
<path fill="cyan" stroke="black" d="M385,-81.5C385,-81.5 74,-81.5 74,-81.5 68,-81.5 62,-75.5 62,-69.5 62,-69.5 62,-45.5 62,-45.5 62,-39.5 68,-33.5 74,-33.5 74,-33.5 385,-33.5 385,-33.5 391,-33.5 397,-39.5 397,-45.5 397,-45.5 397,-69.5 397,-69.5 397,-75.5 391,-81.5 385,-81.5"/>
<text text-anchor="start" x="142.5" y="-64.3" font-family="Times New Roman,serif" font-size="14.00">engine_temperature_derivatives</text>
<polygon fill="none" stroke="black" points="70.5,-37.5 70.5,-58.5 164.5,-58.5 164.5,-37.5 70.5,-37.5"/>
<text text-anchor="start" x="73.5" y="-44.3" font-family="Times New Roman,serif" font-size="14.00">remote child 0=</text>
<polygon fill="none" stroke="black" points="164.5,-37.5 164.5,-58.5 389.5,-58.5 389.5,-37.5 164.5,-37.5"/>
<text text-anchor="start" x="167.5" y="-44.3" font-family="Times New Roman,serif" font-size="14.00">thermal:engine_temperature_derivatives</text>
</a>
</g>
</g>
<!-- cluster_cluster_cluster_38254101299140277614399995647362200591519415004263648723&#45;3799898769648300494&#45;&gt;cluster_cluster_cluster_382541012991402776143999956473622005915194150042636487237545062914487011161 -->
<g id="edge3" class="edge"><title>cluster_cluster_cluster_38254101299140277614399995647362200591519415004263648723&#45;3799898769648300494&#45;&gt;cluster_cluster_cluster_382541012991402776143999956473622005915194150042636487237545062914487011161</title>
<path fill="none" stroke="black" d="M311.75,-127.663C311.75,-127.663 311.75,-91.5296 311.75,-91.5296"/>
<polygon fill="black" stroke="black" points="315.25,-91.5296 311.75,-81.5296 308.25,-91.5297 315.25,-91.5296"/>
</g>
<!-- cluster_cluster_cluster_382541012991402776143999956473622005915194150042636487236492424101733310858 -->
<g id="node12" class="node"><title>cluster_cluster_cluster_382541012991402776143999956473622005915194150042636487236492424101733310858</title>
<g id="a_node12"><a xlink:title="The calibrated engine temperature regression model.">
<path fill="cyan" stroke="black" d="M1005,-446C1005,-446 646,-446 646,-446 640,-446 634,-440 634,-434 634,-434 634,-389 634,-389 634,-383 640,-377 646,-377 646,-377 1005,-377 1005,-377 1011,-377 1017,-383 1017,-389 1017,-389 1017,-434 1017,-434 1017,-440 1011,-446 1005,-446"/>
<text text-anchor="start" x="718.5" y="-428.3" font-family="Times New Roman,serif" font-size="14.00">engine_temperature_regression_model</text>
<polygon fill="none" stroke="black" points="642.5,-401.5 642.5,-422.5 744.5,-422.5 744.5,-401.5 642.5,-401.5"/>
<text text-anchor="start" x="653.5" y="-408.3" font-family="Times New Roman,serif" font-size="14.00">remote child 1=</text>
<polygon fill="none" stroke="black" points="744.5,-401.5 744.5,-422.5 1009.5,-422.5 1009.5,-401.5 744.5,-401.5"/>
<text text-anchor="start" x="747.5" y="-408.3" font-family="Times New Roman,serif" font-size="14.00">thermal:engine_temperature_regression_model</text>
<polygon fill="none" stroke="black" points="642.5,-380.5 642.5,-401.5 744.5,-401.5 744.5,-380.5 642.5,-380.5"/>
<text text-anchor="start" x="645.5" y="-387.3" font-family="Times New Roman,serif" font-size="14.00">remote parent 0=</text>
<polygon fill="none" stroke="black" points="744.5,-380.5 744.5,-401.5 1009.5,-401.5 1009.5,-380.5 744.5,-380.5"/>
<text text-anchor="start" x="747.5" y="-387.3" font-family="Times New Roman,serif" font-size="14.00">thermal:engine_temperature_regression_model</text>
</a>
</g>
</g>
<!-- cluster_cluster_cluster_38254101299140277614399995647362200591519415004263648723&#45;8257016996233610764&#45;&gt;cluster_cluster_cluster_382541012991402776143999956473622005915194150042636487236492424101733310858 -->
<g id="edge4" class="edge"><title>cluster_cluster_cluster_38254101299140277614399995647362200591519415004263648723&#45;8257016996233610764&#45;&gt;cluster_cluster_cluster_382541012991402776143999956473622005915194150042636487236492424101733310858</title>
<path fill="none" stroke="black" d="M517.5,-481.998C517.5,-464.325 517.5,-440 517.5,-440 517.5,-440 623.942,-440 623.942,-440"/>
<polygon fill="black" stroke="black" points="623.942,-443.5 633.942,-440 623.942,-436.5 623.942,-443.5"/>
</g>
<!-- cluster_cluster_cluster_382541012991402776143999956473622005915194150042636487233051378744384801098 -->
<g id="node4" class="node"><title>cluster_cluster_cluster_382541012991402776143999956473622005915194150042636487233051378744384801098</title>
<g id="a_node4"><a xlink:href="./thermal/co2mpas.model.physical.engine.thermalidentify_engine_thermostat_temperature.txt" xlink:title="Identifies thermostat engine temperature and its limits [°C].">
<polygon fill="springgreen" stroke="black" points="828.5,-341 584.5,-341 584.5,-305 828.5,-305 828.5,-341"/>
<text text-anchor="start" x="595" y="-318.8" font-family="Times New Roman,serif" font-size="14.00">identify_engine_thermostat_temperature</text>
</a>
</g>
</g>
<!-- cluster_cluster_cluster_38254101299140277614399995647362200591519415004263648723&#45;6449518302437248625 -->
<g id="node13" class="node"><title>cluster_cluster_cluster_38254101299140277614399995647362200591519415004263648723&#45;6449518302437248625</title>
<g id="a_node13"><a xlink:title="Engine thermostat temperature [°C].">
<path fill="cyan" stroke="black" d="M762.5,-269C762.5,-269 444.5,-269 444.5,-269 438.5,-269 432.5,-263 432.5,-257 432.5,-257 432.5,-212 432.5,-212 432.5,-206 438.5,-200 444.5,-200 444.5,-200 762.5,-200 762.5,-200 768.5,-200 774.5,-206 774.5,-212 774.5,-212 774.5,-257 774.5,-257 774.5,-263 768.5,-269 762.5,-269"/>
<text text-anchor="start" x="516" y="-251.3" font-family="Times New Roman,serif" font-size="14.00">engine_thermostat_temperature</text>
<polygon fill="none" stroke="black" points="440.5,-224.5 440.5,-245.5 542.5,-245.5 542.5,-224.5 440.5,-224.5"/>
<text text-anchor="start" x="451.5" y="-231.3" font-family="Times New Roman,serif" font-size="14.00">remote child 1=</text>
<polygon fill="none" stroke="black" points="542.5,-224.5 542.5,-245.5 766.5,-245.5 766.5,-224.5 542.5,-224.5"/>
<text text-anchor="start" x="545.5" y="-231.3" font-family="Times New Roman,serif" font-size="14.00">thermal:engine_thermostat_temperature</text>
<polygon fill="none" stroke="black" points="440.5,-203.5 440.5,-224.5 542.5,-224.5 542.5,-203.5 440.5,-203.5"/>
<text text-anchor="start" x="443.5" y="-210.3" font-family="Times New Roman,serif" font-size="14.00">remote parent 0=</text>
<polygon fill="none" stroke="black" points="542.5,-203.5 542.5,-224.5 766.5,-224.5 766.5,-203.5 542.5,-203.5"/>
<text text-anchor="start" x="545.5" y="-210.3" font-family="Times New Roman,serif" font-size="14.00">thermal:engine_thermostat_temperature</text>
</a>
</g>
</g>
<!-- cluster_cluster_cluster_382541012991402776143999956473622005915194150042636487233051378744384801098&#45;&gt;cluster_cluster_cluster_38254101299140277614399995647362200591519415004263648723&#45;6449518302437248625 -->
<g id="edge5" class="edge"><title>cluster_cluster_cluster_382541012991402776143999956473622005915194150042636487233051378744384801098&#45;&gt;cluster_cluster_cluster_38254101299140277614399995647362200591519415004263648723&#45;6449518302437248625</title>
<path fill="none" stroke="black" d="M679.5,-304.663C679.5,-304.663 679.5,-279.269 679.5,-279.269"/>
<polygon fill="black" stroke="black" points="683,-279.269 679.5,-269.269 676,-279.269 683,-279.269"/>
</g>
<!-- cluster_cluster_cluster_38254101299140277614399995647362200591519415004263648723&#45;7028569698014947280 -->
<g id="node5" class="node"><title>cluster_cluster_cluster_38254101299140277614399995647362200591519415004263648723&#45;7028569698014947280</title>
<g id="a_node5"><a xlink:href="./thermal/co2mpas.model.physical.engine.thermalidentify_engine_thermostat_temperature_window.txt" xlink:title="Identifies thermostat engine temperature limits [°C].">
<polygon fill="springgreen" stroke="black" points="792.5,-164 496.5,-164 496.5,-128 792.5,-128 792.5,-164"/>
<text text-anchor="start" x="507" y="-141.8" font-family="Times New Roman,serif" font-size="14.00">identify_engine_thermostat_temperature_window</text>
</a>
</g>
</g>
<!-- cluster_cluster_cluster_382541012991402776143999956473622005915194150042636487237852493004999995335 -->
<g id="node14" class="node"><title>cluster_cluster_cluster_382541012991402776143999956473622005915194150042636487237852493004999995335</title>
<g id="a_node14"><a xlink:title="Thermostat engine temperature limits [°C].">
<path fill="cyan" stroke="black" d="M828.5,-92C828.5,-92 458.5,-92 458.5,-92 452.5,-92 446.5,-86 446.5,-80 446.5,-80 446.5,-35 446.5,-35 446.5,-29 452.5,-23 458.5,-23 458.5,-23 828.5,-23 828.5,-23 834.5,-23 840.5,-29 840.5,-35 840.5,-35 840.5,-80 840.5,-80 840.5,-86 834.5,-92 828.5,-92"/>
<text text-anchor="start" x="530.5" y="-74.3" font-family="Times New Roman,serif" font-size="14.00">engine_thermostat_temperature_window</text>
<polygon fill="none" stroke="black" points="454.5,-47.5 454.5,-68.5 556.5,-68.5 556.5,-47.5 454.5,-47.5"/>
<text text-anchor="start" x="465.5" y="-54.3" font-family="Times New Roman,serif" font-size="14.00">remote child 1=</text>
<polygon fill="none" stroke="black" points="556.5,-47.5 556.5,-68.5 832.5,-68.5 832.5,-47.5 556.5,-47.5"/>
<text text-anchor="start" x="559.5" y="-54.3" font-family="Times New Roman,serif" font-size="14.00">thermal:engine_thermostat_temperature_window</text>
<polygon fill="none" stroke="black" points="454.5,-26.5 454.5,-47.5 556.5,-47.5 556.5,-26.5 454.5,-26.5"/>
<text text-anchor="start" x="457.5" y="-33.3" font-family="Times New Roman,serif" font-size="14.00">remote parent 0=</text>
<polygon fill="none" stroke="black" points="556.5,-26.5 556.5,-47.5 832.5,-47.5 832.5,-26.5 556.5,-26.5"/>
<text text-anchor="start" x="559.5" y="-33.3" font-family="Times New Roman,serif" font-size="14.00">thermal:engine_thermostat_temperature_window</text>
</a>
</g>
</g>
<!-- cluster_cluster_cluster_38254101299140277614399995647362200591519415004263648723&#45;7028569698014947280&#45;&gt;cluster_cluster_cluster_382541012991402776143999956473622005915194150042636487237852493004999995335 -->
<g id="edge6" class="edge"><title>cluster_cluster_cluster_38254101299140277614399995647362200591519415004263648723&#45;7028569698014947280&#45;&gt;cluster_cluster_cluster_382541012991402776143999956473622005915194150042636487237852493004999995335</title>
<path fill="none" stroke="black" d="M644.5,-127.663C644.5,-127.663 644.5,-102.269 644.5,-102.269"/>
<polygon fill="black" stroke="black" points="648,-102.269 644.5,-92.2692 641,-102.269 648,-102.269"/>
</g>
<!-- cluster_cluster_cluster_38254101299140277614399995647362200591519415004263648723&#45;2021578996487443047 -->
<g id="node6" class="node"><title>cluster_cluster_cluster_38254101299140277614399995647362200591519415004263648723&#45;2021578996487443047</title>
<g id="a_node6"><a xlink:href="./thermal/co2mpas.model.physical.engine.thermalidentify_initial_engine_temperature.txt" xlink:title="Identifies initial engine temperature [°C].">
<polygon fill="springgreen" stroke="black" points="1024.5,-164 810.5,-164 810.5,-128 1024.5,-128 1024.5,-164"/>
<text text-anchor="start" x="821" y="-141.8" font-family="Times New Roman,serif" font-size="14.00">identify_initial_engine_temperature</text>
</a>
</g>
</g>
<!-- cluster_cluster_cluster_38254101299140277614399995647362200591519415004263648723&#45;4094292690572654255 -->
<g id="node17" class="node"><title>cluster_cluster_cluster_38254101299140277614399995647362200591519415004263648723&#45;4094292690572654255</title>
<g id="a_node17"><a xlink:title="Engine initial temperature [°C]">
<path fill="cyan" stroke="black" d="M1158.5,-92C1158.5,-92 870.5,-92 870.5,-92 864.5,-92 858.5,-86 858.5,-80 858.5,-80 858.5,-35 858.5,-35 858.5,-29 864.5,-23 870.5,-23 870.5,-23 1158.5,-23 1158.5,-23 1164.5,-23 1170.5,-29 1170.5,-35 1170.5,-35 1170.5,-80 1170.5,-80 1170.5,-86 1164.5,-92 1158.5,-92"/>
<text text-anchor="start" x="942" y="-74.3" font-family="Times New Roman,serif" font-size="14.00">initial_engine_temperature</text>
<polygon fill="none" stroke="black" points="866.5,-47.5 866.5,-68.5 968.5,-68.5 968.5,-47.5 866.5,-47.5"/>
<text text-anchor="start" x="877.5" y="-54.3" font-family="Times New Roman,serif" font-size="14.00">remote child 1=</text>
<polygon fill="none" stroke="black" points="968.5,-47.5 968.5,-68.5 1162.5,-68.5 1162.5,-47.5 968.5,-47.5"/>
<text text-anchor="start" x="971.5" y="-54.3" font-family="Times New Roman,serif" font-size="14.00">thermal:initial_engine_temperature</text>
<polygon fill="none" stroke="black" points="866.5,-26.5 866.5,-47.5 968.5,-47.5 968.5,-26.5 866.5,-26.5"/>
<text text-anchor="start" x="869.5" y="-33.3" font-family="Times New Roman,serif" font-size="14.00">remote parent 0=</text>
<polygon fill="none" stroke="black" points="968.5,-26.5 968.5,-47.5 1162.5,-47.5 1162.5,-26.5 968.5,-26.5"/>
<text text-anchor="start" x="971.5" y="-33.3" font-family="Times New Roman,serif" font-size="14.00">thermal:initial_engine_temperature</text>
</a>
</g>
</g>
<!-- cluster_cluster_cluster_38254101299140277614399995647362200591519415004263648723&#45;2021578996487443047&#45;&gt;cluster_cluster_cluster_38254101299140277614399995647362200591519415004263648723&#45;4094292690572654255 -->
<g id="edge7" class="edge"><title>cluster_cluster_cluster_38254101299140277614399995647362200591519415004263648723&#45;2021578996487443047&#45;&gt;cluster_cluster_cluster_38254101299140277614399995647362200591519415004263648723&#45;4094292690572654255</title>
<path fill="none" stroke="black" d="M941.5,-127.663C941.5,-127.663 941.5,-102.269 941.5,-102.269"/>
<polygon fill="black" stroke="black" points="945,-102.269 941.5,-92.2692 938,-102.269 945,-102.269"/>
</g>
<!-- cluster_cluster_cluster_382541012991402776143999956473622005915194150042636487235521577668277190492 -->
<g id="node7" class="node"><title>cluster_cluster_cluster_382541012991402776143999956473622005915194150042636487235521577668277190492</title>
<g id="a_node7"><a xlink:href="./thermal/co2mpas.model.physical.engine.thermalidentify_max_engine_coolant_temperature.txt" xlink:title="Identifies maximum engine coolant temperature [°C].">
<polygon fill="springgreen" stroke="black" points="1300.5,-164 1042.5,-164 1042.5,-128 1300.5,-128 1300.5,-164"/>
<text text-anchor="start" x="1053" y="-141.8" font-family="Times New Roman,serif" font-size="14.00">identify_max_engine_coolant_temperature</text>
</a>
</g>
</g>
<!-- cluster_cluster_cluster_382541012991402776143999956473622005915194150042636487233735004103626618349 -->
<g id="node18" class="node"><title>cluster_cluster_cluster_382541012991402776143999956473622005915194150042636487233735004103626618349</title>
<g id="a_node18"><a xlink:title="Maximum engine coolant temperature [°C].">
<path fill="cyan" stroke="black" d="M1532.5,-92C1532.5,-92 1200.5,-92 1200.5,-92 1194.5,-92 1188.5,-86 1188.5,-80 1188.5,-80 1188.5,-35 1188.5,-35 1188.5,-29 1194.5,-23 1200.5,-23 1200.5,-23 1532.5,-23 1532.5,-23 1538.5,-23 1544.5,-29 1544.5,-35 1544.5,-35 1544.5,-80 1544.5,-80 1544.5,-86 1538.5,-92 1532.5,-92"/>
<text text-anchor="start" x="1272.5" y="-74.3" font-family="Times New Roman,serif" font-size="14.00">max_engine_coolant_temperature</text>
<polygon fill="none" stroke="black" points="1196.5,-47.5 1196.5,-68.5 1298.5,-68.5 1298.5,-47.5 1196.5,-47.5"/>
<text text-anchor="start" x="1207.5" y="-54.3" font-family="Times New Roman,serif" font-size="14.00">remote child 1=</text>
<polygon fill="none" stroke="black" points="1298.5,-47.5 1298.5,-68.5 1536.5,-68.5 1536.5,-47.5 1298.5,-47.5"/>
<text text-anchor="start" x="1301.5" y="-54.3" font-family="Times New Roman,serif" font-size="14.00">thermal:max_engine_coolant_temperature</text>
<polygon fill="none" stroke="black" points="1196.5,-26.5 1196.5,-47.5 1298.5,-47.5 1298.5,-26.5 1196.5,-26.5"/>
<text text-anchor="start" x="1199.5" y="-33.3" font-family="Times New Roman,serif" font-size="14.00">remote parent 0=</text>
<polygon fill="none" stroke="black" points="1298.5,-26.5 1298.5,-47.5 1536.5,-47.5 1536.5,-26.5 1298.5,-26.5"/>
<text text-anchor="start" x="1301.5" y="-33.3" font-family="Times New Roman,serif" font-size="14.00">thermal:max_engine_coolant_temperature</text>
</a>
</g>
</g>
<!-- cluster_cluster_cluster_382541012991402776143999956473622005915194150042636487235521577668277190492&#45;&gt;cluster_cluster_cluster_382541012991402776143999956473622005915194150042636487233735004103626618349 -->
<g id="edge8" class="edge"><title>cluster_cluster_cluster_382541012991402776143999956473622005915194150042636487235521577668277190492&#45;&gt;cluster_cluster_cluster_382541012991402776143999956473622005915194150042636487233735004103626618349</title>
<path fill="none" stroke="black" d="M1244.5,-127.663C1244.5,-127.663 1244.5,-102.269 1244.5,-102.269"/>
<polygon fill="black" stroke="black" points="1248,-102.269 1244.5,-92.2692 1241,-102.269 1248,-102.269"/>
</g>
<!-- cluster_cluster_cluster_382541012991402776143999956473622005915194150042636487234429227571388341383 -->
<g id="node9" class="node"><title>cluster_cluster_cluster_382541012991402776143999956473622005915194150042636487234429227571388341383</title>
<g id="a_node9"><a xlink:title="Engine coolant temperature vector [°C].">
<path fill="cyan" stroke="black" d="M1112,-258.5C1112,-258.5 805,-258.5 805,-258.5 799,-258.5 793,-252.5 793,-246.5 793,-246.5 793,-222.5 793,-222.5 793,-216.5 799,-210.5 805,-210.5 805,-210.5 1112,-210.5 1112,-210.5 1118,-210.5 1124,-216.5 1124,-222.5 1124,-222.5 1124,-246.5 1124,-246.5 1124,-252.5 1118,-258.5 1112,-258.5"/>
<text text-anchor="start" x="877.5" y="-241.3" font-family="Times New Roman,serif" font-size="14.00">engine_coolant_temperatures</text>
<polygon fill="none" stroke="black" points="801.5,-214.5 801.5,-235.5 903.5,-235.5 903.5,-214.5 801.5,-214.5"/>
<text text-anchor="start" x="804.5" y="-221.3" font-family="Times New Roman,serif" font-size="14.00">remote parent 0=</text>
<polygon fill="none" stroke="black" points="903.5,-214.5 903.5,-235.5 1116.5,-235.5 1116.5,-214.5 903.5,-214.5"/>
<text text-anchor="start" x="906.5" y="-221.3" font-family="Times New Roman,serif" font-size="14.00">thermal:engine_coolant_temperatures</text>
</a>
</g>
</g>
<!-- cluster_cluster_cluster_382541012991402776143999956473622005915194150042636487238376316735024008210&#45;&gt;cluster_cluster_cluster_382541012991402776143999956473622005915194150042636487234429227571388341383 -->
<g id="edge9" class="edge"><title>cluster_cluster_cluster_382541012991402776143999956473622005915194150042636487238376316735024008210&#45;&gt;cluster_cluster_cluster_382541012991402776143999956473622005915194150042636487234429227571388341383</title>
<path fill="none" stroke="black" d="M1036.75,-304.663C1036.75,-304.663 1036.75,-268.53 1036.75,-268.53"/>
<polygon fill="black" stroke="black" points="1040.25,-268.53 1036.75,-258.53 1033.25,-268.53 1040.25,-268.53"/>
</g>
<!-- cluster_cluster_cluster_382541012991402776143999956473622005915194150042636487234429227571388341383&#45;&gt;cluster_cluster_cluster_38254101299140277614399995647362200591519415004263648723&#45;3799898769648300494 -->
<g id="edge10" class="edge"><title>cluster_cluster_cluster_382541012991402776143999956473622005915194150042636487234429227571388341383&#45;&gt;cluster_cluster_cluster_38254101299140277614399995647362200591519415004263648723&#45;3799898769648300494</title>
<path fill="none" stroke="black" d="M798.833,-210.433C798.833,-199.086 798.833,-188 798.833,-188 798.833,-188 455.5,-188 455.5,-188 455.5,-188 455.5,-174.056 455.5,-174.056"/>
<polygon fill="black" stroke="black" points="459,-174.055 455.5,-164.056 452,-174.056 459,-174.055"/>
</g>
<!-- cluster_cluster_cluster_382541012991402776143999956473622005915194150042636487234429227571388341383&#45;&gt;cluster_cluster_cluster_38254101299140277614399995647362200591519415004263648723&#45;8257016996233610764 -->
<g id="edge11" class="edge"><title>cluster_cluster_cluster_382541012991402776143999956473622005915194150042636487234429227571388341383&#45;&gt;cluster_cluster_cluster_38254101299140277614399995647362200591519415004263648723&#45;8257016996233610764</title>
<path fill="none" stroke="black" d="M810.75,-258.599C810.75,-272.4 810.75,-287 810.75,-287 810.75,-287 375.25,-287 375.25,-287 375.25,-287 375.25,-471.84 375.25,-471.84"/>
<polygon fill="black" stroke="black" points="371.75,-471.84 375.25,-481.84 378.75,-471.84 371.75,-471.84"/>
</g>
<!-- cluster_cluster_cluster_382541012991402776143999956473622005915194150042636487234429227571388341383&#45;&gt;cluster_cluster_cluster_38254101299140277614399995647362200591519415004263648723&#45;7028569698014947280 -->
<g id="edge12" class="edge"><title>cluster_cluster_cluster_382541012991402776143999956473622005915194150042636487234429227571388341383&#45;&gt;cluster_cluster_cluster_38254101299140277614399995647362200591519415004263648723&#45;7028569698014947280</title>
<path fill="none" stroke="black" d="M804.667,-210.317C804.667,-184.114 804.667,-146 804.667,-146 804.667,-146 802.628,-146 802.628,-146"/>
<polygon fill="black" stroke="black" points="802.628,-142.5 792.628,-146 802.628,-149.5 802.628,-142.5"/>
</g>
<!-- cluster_cluster_cluster_382541012991402776143999956473622005915194150042636487234429227571388341383&#45;&gt;cluster_cluster_cluster_38254101299140277614399995647362200591519415004263648723&#45;2021578996487443047 -->
<g id="edge13" class="edge"><title>cluster_cluster_cluster_382541012991402776143999956473622005915194150042636487234429227571388341383&#45;&gt;cluster_cluster_cluster_38254101299140277614399995647362200591519415004263648723&#45;2021578996487443047</title>
<path fill="none" stroke="black" d="M917.5,-210.317C917.5,-210.317 917.5,-174.257 917.5,-174.257"/>
<polygon fill="black" stroke="black" points="921,-174.257 917.5,-164.257 914,-174.257 921,-174.257"/>
</g>
<!-- cluster_cluster_cluster_382541012991402776143999956473622005915194150042636487234429227571388341383&#45;&gt;cluster_cluster_cluster_382541012991402776143999956473622005915194150042636487235521577668277190492 -->
<g id="edge14" class="edge"><title>cluster_cluster_cluster_382541012991402776143999956473622005915194150042636487234429227571388341383&#45;&gt;cluster_cluster_cluster_382541012991402776143999956473622005915194150042636487235521577668277190492</title>
<path fill="none" stroke="black" d="M1083.25,-210.317C1083.25,-210.317 1083.25,-174.257 1083.25,-174.257"/>
<polygon fill="black" stroke="black" points="1086.75,-174.257 1083.25,-164.257 1079.75,-174.257 1086.75,-174.257"/>
</g>
<!-- cluster_cluster_cluster_38254101299140277614399995647362200591519415004263648723&#45;3168126550270477918 -->
<g id="node10" class="node"><title>cluster_cluster_cluster_38254101299140277614399995647362200591519415004263648723&#45;3168126550270477918</title>
<g id="a_node10"><a xlink:title="Engine speed at hot condition [RPM].">
<path fill="cyan" stroke="black" d="M821,-602C821,-602 544,-602 544,-602 538,-602 532,-596 532,-590 532,-590 532,-566 532,-566 532,-560 538,-554 544,-554 544,-554 821,-554 821,-554 827,-554 833,-560 833,-566 833,-566 833,-590 833,-590 833,-596 827,-602 821,-602"/>
<text text-anchor="start" x="616.5" y="-584.8" font-family="Times New Roman,serif" font-size="14.00">engine_speeds_out_hot</text>
<polygon fill="none" stroke="black" points="540.5,-558 540.5,-579 642.5,-579 642.5,-558 540.5,-558"/>
<text text-anchor="start" x="543.5" y="-564.8" font-family="Times New Roman,serif" font-size="14.00">remote parent 0=</text>
<polygon fill="none" stroke="black" points="642.5,-558 642.5,-579 825.5,-579 825.5,-558 642.5,-558"/>
<text text-anchor="start" x="645.5" y="-564.8" font-family="Times New Roman,serif" font-size="14.00">thermal:engine_speeds_out_hot</text>
</a>
</g>
</g>
<!-- cluster_cluster_cluster_38254101299140277614399995647362200591519415004263648723&#45;3168126550270477918&#45;&gt;cluster_cluster_cluster_38254101299140277614399995647362200591519415004263648723&#45;8257016996233610764 -->
<g id="edge15" class="edge"><title>cluster_cluster_cluster_38254101299140277614399995647362200591519415004263648723&#45;3168126550270477918&#45;&gt;cluster_cluster_cluster_38254101299140277614399995647362200591519415004263648723&#45;8257016996233610764</title>
<path fill="none" stroke="black" d="M576.75,-553.748C576.75,-553.748 576.75,-528.288 576.75,-528.288"/>
<polygon fill="black" stroke="black" points="580.25,-528.287 576.75,-518.288 573.25,-528.288 580.25,-528.287"/>
</g>
<!-- cluster_cluster_cluster_38254101299140277614399995647362200591519415004263648723&#45;3168126550270477918&#45;&gt;cluster_cluster_cluster_382541012991402776143999956473622005915194150042636487238376316735024008210 -->
<g id="edge16" class="edge"><title>cluster_cluster_cluster_38254101299140277614399995647362200591519415004263648723&#45;3168126550270477918&#45;&gt;cluster_cluster_cluster_382541012991402776143999956473622005915194150042636487238376316735024008210</title>
<path fill="none" stroke="black" d="M733.5,-553.568C733.5,-544.329 733.5,-536 733.5,-536 733.5,-536 1059.33,-536 1059.33,-536 1059.33,-536 1059.33,-351.16 1059.33,-351.16"/>
<polygon fill="black" stroke="black" points="1062.83,-351.16 1059.33,-341.16 1055.83,-351.16 1062.83,-351.16"/>
</g>
<!-- cluster_cluster_cluster_382541012991402776143999956473622005915194150042636487237545062914487011161&#45;&gt;cluster_cluster_cluster_38254101299140277614399995647362200591519415004263648723&#45;8257016996233610764 -->
<g id="edge17" class="edge"><title>cluster_cluster_cluster_382541012991402776143999956473622005915194150042636487237545062914487011161&#45;&gt;cluster_cluster_cluster_38254101299140277614399995647362200591519415004263648723&#45;8257016996233610764</title>
<path fill="none" stroke="black" d="M144.25,-81.5899C144.25,-173.097 144.25,-494 144.25,-494 144.25,-494 321.254,-494 321.254,-494"/>
<polygon fill="black" stroke="black" points="321.254,-497.5 331.254,-494 321.254,-490.5 321.254,-497.5"/>
</g>
<!-- cluster_cluster_cluster_382541012991402776143999956473622005915194150042636487236492424101733310858&#45;&gt;cluster_cluster_cluster_382541012991402776143999956473622005915194150042636487233051378744384801098 -->
<g id="edge18" class="edge"><title>cluster_cluster_cluster_382541012991402776143999956473622005915194150042636487236492424101733310858&#45;&gt;cluster_cluster_cluster_382541012991402776143999956473622005915194150042636487233051378744384801098</title>
<path fill="none" stroke="black" d="M731.25,-376.776C731.25,-376.776 731.25,-351.078 731.25,-351.078"/>
<polygon fill="black" stroke="black" points="734.75,-351.078 731.25,-341.078 727.75,-351.078 734.75,-351.078"/>
</g>
<!-- cluster_cluster_cluster_382541012991402776143999956473622005915194150042636487236492424101733310858&#45;&gt;cluster_cluster_cluster_382541012991402776143999956473622005915194150042636487238376316735024008210 -->
<g id="edge19" class="edge"><title>cluster_cluster_cluster_382541012991402776143999956473622005915194150042636487236492424101733310858&#45;&gt;cluster_cluster_cluster_382541012991402776143999956473622005915194150042636487238376316735024008210</title>
<path fill="none" stroke="black" d="M994.5,-376.776C994.5,-376.776 994.5,-351.078 994.5,-351.078"/>
<polygon fill="black" stroke="black" points="998,-351.078 994.5,-341.078 991,-351.078 998,-351.078"/>
</g>
<!-- cluster_cluster_cluster_38254101299140277614399995647362200591519415004263648723&#45;6449518302437248625&#45;&gt;cluster_cluster_cluster_38254101299140277614399995647362200591519415004263648723&#45;7028569698014947280 -->
<g id="edge20" class="edge"><title>cluster_cluster_cluster_38254101299140277614399995647362200591519415004263648723&#45;6449518302437248625&#45;&gt;cluster_cluster_cluster_38254101299140277614399995647362200591519415004263648723&#45;7028569698014947280</title>
<path fill="none" stroke="black" d="M635.5,-199.776C635.5,-199.776 635.5,-174.078 635.5,-174.078"/>
<polygon fill="black" stroke="black" points="639,-174.078 635.5,-164.078 632,-174.078 639,-174.078"/>
</g>
<!-- cluster_cluster_cluster_38254101299140277614399995647362200591519415004263648723&#45;4241360223242951973 -->
<g id="node15" class="node"><title>cluster_cluster_cluster_38254101299140277614399995647362200591519415004263648723&#45;4241360223242951973</title>
<g id="a_node15"><a xlink:title="Gear box power vector [kW].">
<path fill="cyan" stroke="black" d="M1132,-602C1132,-602 863,-602 863,-602 857,-602 851,-596 851,-590 851,-590 851,-566 851,-566 851,-560 857,-554 863,-554 863,-554 1132,-554 1132,-554 1138,-554 1144,-560 1144,-566 1144,-566 1144,-590 1144,-590 1144,-596 1138,-602 1132,-602"/>
<text text-anchor="start" x="935.5" y="-584.8" font-family="Times New Roman,serif" font-size="14.00">final_drive_powers_in</text>
<polygon fill="none" stroke="black" points="859.5,-558 859.5,-579 961.5,-579 961.5,-558 859.5,-558"/>
<text text-anchor="start" x="862.5" y="-564.8" font-family="Times New Roman,serif" font-size="14.00">remote parent 0=</text>
<polygon fill="none" stroke="black" points="961.5,-558 961.5,-579 1136.5,-579 1136.5,-558 961.5,-558"/>
<text text-anchor="start" x="964.5" y="-564.8" font-family="Times New Roman,serif" font-size="14.00">thermal:final_drive_powers_in</text>
</a>
</g>
</g>
<!-- cluster_cluster_cluster_38254101299140277614399995647362200591519415004263648723&#45;4241360223242951973&#45;&gt;cluster_cluster_cluster_38254101299140277614399995647362200591519415004263648723&#45;8257016996233610764 -->
<g id="edge21" class="edge"><title>cluster_cluster_cluster_38254101299140277614399995647362200591519415004263648723&#45;4241360223242951973&#45;&gt;cluster_cluster_cluster_38254101299140277614399995647362200591519415004263648723&#45;8257016996233610764</title>
<path fill="none" stroke="black" d="M934,-553.624C934,-532.736 934,-506 934,-506 934,-506 631.57,-506 631.57,-506"/>
<polygon fill="black" stroke="black" points="631.57,-502.5 621.57,-506 631.57,-509.5 631.57,-502.5"/>
</g>
<!-- cluster_cluster_cluster_38254101299140277614399995647362200591519415004263648723&#45;4241360223242951973&#45;&gt;cluster_cluster_cluster_382541012991402776143999956473622005915194150042636487238376316735024008210 -->
<g id="edge22" class="edge"><title>cluster_cluster_cluster_38254101299140277614399995647362200591519415004263648723&#45;4241360223242951973&#45;&gt;cluster_cluster_cluster_382541012991402776143999956473622005915194150042636487238376316735024008210</title>
<path fill="none" stroke="black" d="M1101.67,-553.55C1101.67,-553.55 1101.67,-351.047 1101.67,-351.047"/>
<polygon fill="black" stroke="black" points="1105.17,-351.047 1101.67,-341.047 1098.17,-351.047 1105.17,-351.047"/>
</g>
<!-- cluster_cluster_cluster_38254101299140277614399995647362200591519415004263648723&#45;3009578804924602371 -->
<g id="node16" class="node"><title>cluster_cluster_cluster_38254101299140277614399995647362200591519415004263648723&#45;3009578804924602371</title>
<g id="a_node16"><a xlink:title="Engine speed idle median and std [RPM].">
<path fill="cyan" stroke="black" d="M259,-602C259,-602 12,-602 12,-602 6,-602 0,-596 0,-590 0,-590 0,-566 0,-566 0,-560 6,-554 12,-554 12,-554 259,-554 259,-554 265,-554 271,-560 271,-566 271,-566 271,-590 271,-590 271,-596 265,-602 259,-602"/>
<text text-anchor="start" x="84.5" y="-584.8" font-family="Times New Roman,serif" font-size="14.00">idle_engine_speed</text>
<polygon fill="none" stroke="black" points="8.5,-558 8.5,-579 110.5,-579 110.5,-558 8.5,-558"/>
<text text-anchor="start" x="11.5" y="-564.8" font-family="Times New Roman,serif" font-size="14.00">remote parent 0=</text>
<polygon fill="none" stroke="black" points="110.5,-558 110.5,-579 263.5,-579 263.5,-558 110.5,-558"/>
<text text-anchor="start" x="113.5" y="-564.8" font-family="Times New Roman,serif" font-size="14.00">thermal:idle_engine_speed</text>
</a>
</g>
</g>
<!-- cluster_cluster_cluster_38254101299140277614399995647362200591519415004263648723&#45;3009578804924602371&#45;&gt;cluster_cluster_cluster_38254101299140277614399995647362200591519415004263648723&#45;8257016996233610764 -->
<g id="edge23" class="edge"><title>cluster_cluster_cluster_38254101299140277614399995647362200591519415004263648723&#45;3009578804924602371&#45;&gt;cluster_cluster_cluster_38254101299140277614399995647362200591519415004263648723&#45;8257016996233610764</title>
<path fill="none" stroke="black" d="M248.75,-553.624C248.75,-532.736 248.75,-506 248.75,-506 248.75,-506 321.295,-506 321.295,-506"/>
<polygon fill="black" stroke="black" points="321.295,-509.5 331.295,-506 321.295,-502.5 321.295,-509.5"/>
</g>
<!-- cluster_cluster_cluster_38254101299140277614399995647362200591519415004263648723&#45;4094292690572654255&#45;&gt;cluster_cluster_cluster_382541012991402776143999956473622005915194150042636487238376316735024008210 -->
<g id="edge24" class="edge"><title>cluster_cluster_cluster_38254101299140277614399995647362200591519415004263648723&#45;4094292690572654255&#45;&gt;cluster_cluster_cluster_382541012991402776143999956473622005915194150042636487238376316735024008210</title>
<path fill="none" stroke="black" d="M1033.5,-92.0937C1033.5,-127.071 1033.5,-176 1033.5,-176 1033.5,-176 1151.75,-176 1151.75,-176 1151.75,-176 1151.75,-294.975 1151.75,-294.975"/>
<polygon fill="black" stroke="black" points="1148.25,-294.975 1151.75,-304.975 1155.25,-294.975 1148.25,-294.975"/>
</g>
<!-- cluster_cluster_cluster_382541012991402776143999956473622005915194150042636487233735004103626618349&#45;&gt;cluster_cluster_cluster_382541012991402776143999956473622005915194150042636487238376316735024008210 -->
<g id="edge25" class="edge"><title>cluster_cluster_cluster_382541012991402776143999956473622005915194150042636487233735004103626618349&#45;&gt;cluster_cluster_cluster_382541012991402776143999956473622005915194150042636487238376316735024008210</title>
<path fill="none" stroke="black" d="M1351.5,-92.2095C1351.5,-164.176 1351.5,-323 1351.5,-323 1351.5,-323 1189.58,-323 1189.58,-323"/>
<polygon fill="black" stroke="black" points="1189.58,-319.5 1179.58,-323 1189.58,-326.5 1189.58,-319.5"/>
</g>
<!-- cluster_cluster_cluster_382541012991402776143999956473622005915194150042636487232474993859311970617 -->
<g id="node19" class="node"><title>cluster_cluster_cluster_382541012991402776143999956473622005915194150042636487232474993859311970617</title>
<g id="a_node19"><a xlink:title="If the engine is on [&#45;].">
<path fill="cyan" stroke="black" d="M502,-602C502,-602 301,-602 301,-602 295,-602 289,-596 289,-590 289,-590 289,-566 289,-566 289,-560 295,-554 301,-554 301,-554 502,-554 502,-554 508,-554 514,-560 514,-566 514,-566 514,-590 514,-590 514,-596 508,-602 502,-602"/>
<text text-anchor="start" x="373" y="-584.8" font-family="Times New Roman,serif" font-size="14.00">on_engine</text>
<polygon fill="none" stroke="black" points="297.5,-558 297.5,-579 399.5,-579 399.5,-558 297.5,-558"/>
<text text-anchor="start" x="300.5" y="-564.8" font-family="Times New Roman,serif" font-size="14.00">remote parent 0=</text>
<polygon fill="none" stroke="black" points="399.5,-558 399.5,-579 506.5,-579 506.5,-558 399.5,-558"/>
<text text-anchor="start" x="402.5" y="-564.8" font-family="Times New Roman,serif" font-size="14.00">thermal:on_engine</text>
</a>
</g>
</g>
<!-- cluster_cluster_cluster_382541012991402776143999956473622005915194150042636487232474993859311970617&#45;&gt;cluster_cluster_cluster_38254101299140277614399995647362200591519415004263648723&#45;8257016996233610764 -->
<g id="edge26" class="edge"><title>cluster_cluster_cluster_382541012991402776143999956473622005915194150042636487232474993859311970617&#45;&gt;cluster_cluster_cluster_38254101299140277614399995647362200591519415004263648723&#45;8257016996233610764</title>
<path fill="none" stroke="black" d="M422.75,-553.748C422.75,-553.748 422.75,-528.288 422.75,-528.288"/>
<polygon fill="black" stroke="black" points="426.25,-528.287 422.75,-518.288 419.25,-528.288 426.25,-528.287"/>
</g>
<!-- cluster_cluster_cluster_38254101299140277614399995647362200591519415004263648723&#45;1825562924159530342 -->
<g id="node20" class="node"><title>cluster_cluster_cluster_38254101299140277614399995647362200591519415004263648723&#45;1825562924159530342</title>
<g id="a_node20"><a xlink:title="Time vector [s].">
<path fill="cyan" stroke="black" d="M604,-435.5C604,-435.5 431,-435.5 431,-435.5 425,-435.5 419,-429.5 419,-423.5 419,-423.5 419,-399.5 419,-399.5 419,-393.5 425,-387.5 431,-387.5 431,-387.5 604,-387.5 604,-387.5 610,-387.5 616,-393.5 616,-399.5 616,-399.5 616,-423.5 616,-423.5 616,-429.5 610,-435.5 604,-435.5"/>
<text text-anchor="start" x="503" y="-418.3" font-family="Times New Roman,serif" font-size="14.00">times</text>
<polygon fill="none" stroke="black" points="427.5,-391.5 427.5,-412.5 529.5,-412.5 529.5,-391.5 427.5,-391.5"/>
<text text-anchor="start" x="430.5" y="-398.3" font-family="Times New Roman,serif" font-size="14.00">remote parent 0=</text>
<polygon fill="none" stroke="black" points="529.5,-391.5 529.5,-412.5 608.5,-412.5 608.5,-391.5 529.5,-391.5"/>
<text text-anchor="start" x="532.5" y="-398.3" font-family="Times New Roman,serif" font-size="14.00">thermal:times</text>
</a>
</g>
</g>
<!-- cluster_cluster_cluster_38254101299140277614399995647362200591519415004263648723&#45;1825562924159530342&#45;&gt;cluster_cluster_cluster_38254101299140277614399995647362200591519415004263648723&#45;3799898769648300494 -->
<g id="edge27" class="edge"><title>cluster_cluster_cluster_38254101299140277614399995647362200591519415004263648723&#45;1825562924159530342&#45;&gt;cluster_cluster_cluster_38254101299140277614399995647362200591519415004263648723&#45;3799898769648300494</title>
<path fill="none" stroke="black" d="M425.75,-387.47C425.75,-387.47 425.75,-174.017 425.75,-174.017"/>
<polygon fill="black" stroke="black" points="429.25,-174.017 425.75,-164.017 422.25,-174.017 429.25,-174.017"/>
</g>
<!-- cluster_cluster_cluster_38254101299140277614399995647362200591519415004263648723&#45;1825562924159530342&#45;&gt;cluster_cluster_cluster_382541012991402776143999956473622005915194150042636487238376316735024008210 -->
<g id="edge28" class="edge"><title>cluster_cluster_cluster_38254101299140277614399995647362200591519415004263648723&#45;1825562924159530342&#45;&gt;cluster_cluster_cluster_382541012991402776143999956473622005915194150042636487238376316735024008210</title>
<path fill="none" stroke="black" d="M600.25,-387.401C600.25,-373.6 600.25,-359 600.25,-359 600.25,-359 972,-359 972,-359 972,-359 972,-351.422 972,-351.422"/>
<polygon fill="black" stroke="black" points="975.5,-351.422 972,-341.422 968.5,-351.422 975.5,-351.422"/>
</g>
</g>
</svg>
