<?xml version="1.0" encoding="UTF-8" standalone="no"?>
<!DOCTYPE svg PUBLIC "-//W3C//DTD SVG 1.1//EN"
 "http://www.w3.org/Graphics/SVG/1.1/DTD/svg11.dtd">
<!-- Generated by graphviz version 2.38.0 (20140413.2041)
 -->
<!-- Title: cluster_start_stop Pages: 1 -->
<svg width="1704pt" height="223pt"
 viewBox="0.00 0.00 1704.00 223.00" xmlns="http://www.w3.org/2000/svg" xmlns:xlink="http://www.w3.org/1999/xlink">
<g id="graph0" class="graph" transform="scale(1 1) rotate(0) translate(4 219)">
<title>cluster_start_stop</title>
<polygon fill="white" stroke="none" points="-4,4 -4,-219 1700,-219 1700,4 -4,4"/>
<text text-anchor="start" x="819.5" y="-7.8" font-family="Times New Roman,serif" font-size="14.00">start_stop</text>
<!-- cluster_cluster_cluster_cluster_cluster_&#45;220212124901982970675358493883173307004950861078888504724&#45;68061042735673154217141558223834765962&#45;6281391710310240799 -->
<g id="node1" class="node"><title>cluster_cluster_cluster_cluster_cluster_&#45;220212124901982970675358493883173307004950861078888504724&#45;68061042735673154217141558223834765962&#45;6281391710310240799</title>
<g id="a_node1"><a xlink:title="Acceleration vector [m/s2].">
<path fill="cyan" stroke="black" d="M82,-209C82,-209 12,-209 12,-209 6,-209 -7.10543e-015,-203 -7.10543e-015,-197 -7.10543e-015,-197 -7.10543e-015,-185 -7.10543e-015,-185 -7.10543e-015,-179 6,-173 12,-173 12,-173 82,-173 82,-173 88,-173 94,-179 94,-185 94,-185 94,-197 94,-197 94,-203 88,-209 82,-209"/>
<text text-anchor="start" x="10.5" y="-186.8" font-family="Times New Roman,serif" font-size="14.00">accelerations</text>
</a>
</g>
</g>
<!-- cluster_cluster_cluster_cluster_cluster_&#45;220212124901982970675358493883173307004950861078888504724&#45;680610427356731542171415582238347659628434132010689092423 -->
<g id="node2" class="node"><title>cluster_cluster_cluster_cluster_cluster_&#45;220212124901982970675358493883173307004950861078888504724&#45;680610427356731542171415582238347659628434132010689092423</title>
<g id="a_node2"><a xlink:href="./../../SSM-wltp_h_errors/SSM-wltp_h_error_vs_wltp_h/start_stop/co2mpas.model.physical.engine.start_stoppredict_engine_start_stop.txt" xlink:title="Predicts if the engine is on and when the engine starts.">
<polygon fill="springgreen" stroke="black" points="1002,-131 836,-131 836,-95 1002,-95 1002,-131"/>
<text text-anchor="start" x="846" y="-108.8" font-family="Times New Roman,serif" font-size="14.00">predict_engine_start_stop</text>
</a>
</g>
</g>
<!-- cluster_cluster_cluster_cluster_cluster_&#45;220212124901982970675358493883173307004950861078888504724&#45;68061042735673154217141558223834765962&#45;6281391710310240799&#45;&gt;cluster_cluster_cluster_cluster_cluster_&#45;220212124901982970675358493883173307004950861078888504724&#45;680610427356731542171415582238347659628434132010689092423 -->
<g id="edge1" class="edge"><title>cluster_cluster_cluster_cluster_cluster_&#45;220212124901982970675358493883173307004950861078888504724&#45;68061042735673154217141558223834765962&#45;6281391710310240799&#45;&gt;cluster_cluster_cluster_cluster_cluster_&#45;220212124901982970675358493883173307004950861078888504724&#45;680610427356731542171415582238347659628434132010689092423</title>
<path fill="none" stroke="black" d="M47,-172.787C47,-146.489 47,-101 47,-101 47,-101 825.784,-101 825.784,-101"/>
<polygon fill="black" stroke="black" points="825.784,-104.5 835.784,-101 825.784,-97.5001 825.784,-104.5"/>
</g>
<!-- cluster_cluster_cluster_cluster_cluster_&#45;220212124901982970675358493883173307004950861078888504724&#45;680610427356731542171415582238347659622413918399536769892 -->
<g id="node5" class="node"><title>cluster_cluster_cluster_cluster_cluster_&#45;220212124901982970675358493883173307004950861078888504724&#45;680610427356731542171415582238347659622413918399536769892</title>
<g id="a_node5"><a xlink:title="engine_starts">
<path fill="cyan" stroke="black" d="M902,-59C902,-59 832,-59 832,-59 826,-59 820,-53 820,-47 820,-47 820,-35 820,-35 820,-29 826,-23 832,-23 832,-23 902,-23 902,-23 908,-23 914,-29 914,-35 914,-35 914,-47 914,-47 914,-53 908,-59 902,-59"/>
<text text-anchor="start" x="830.5" y="-36.8" font-family="Times New Roman,serif" font-size="14.00">engine_starts</text>
</a>
</g>
</g>
<!-- cluster_cluster_cluster_cluster_cluster_&#45;220212124901982970675358493883173307004950861078888504724&#45;680610427356731542171415582238347659628434132010689092423&#45;&gt;cluster_cluster_cluster_cluster_cluster_&#45;220212124901982970675358493883173307004950861078888504724&#45;680610427356731542171415582238347659622413918399536769892 -->
<g id="edge2" class="edge"><title>cluster_cluster_cluster_cluster_cluster_&#45;220212124901982970675358493883173307004950861078888504724&#45;680610427356731542171415582238347659628434132010689092423&#45;&gt;cluster_cluster_cluster_cluster_cluster_&#45;220212124901982970675358493883173307004950861078888504724&#45;680610427356731542171415582238347659622413918399536769892</title>
<path fill="none" stroke="black" d="M875,-94.8314C875,-94.8314 875,-69.4133 875,-69.4133"/>
<polygon fill="black" stroke="black" points="878.5,-69.4132 875,-59.4133 871.5,-69.4133 878.5,-69.4132"/>
</g>
<!-- cluster_cluster_cluster_cluster_cluster_&#45;220212124901982970675358493883173307004950861078888504724&#45;680610427356731542171415582238347659622474993859311970617 -->
<g id="node9" class="node"><title>cluster_cluster_cluster_cluster_cluster_&#45;220212124901982970675358493883173307004950861078888504724&#45;680610427356731542171415582238347659622474993859311970617</title>
<g id="a_node9"><a xlink:title="on_engine">
<path fill="cyan" stroke="black" d="M998,-59C998,-59 944,-59 944,-59 938,-59 932,-53 932,-47 932,-47 932,-35 932,-35 932,-29 938,-23 944,-23 944,-23 998,-23 998,-23 1004,-23 1010,-29 1010,-35 1010,-35 1010,-47 1010,-47 1010,-53 1004,-59 998,-59"/>
<text text-anchor="start" x="942" y="-36.8" font-family="Times New Roman,serif" font-size="14.00">on_engine</text>
</a>
</g>
</g>
<!-- cluster_cluster_cluster_cluster_cluster_&#45;220212124901982970675358493883173307004950861078888504724&#45;680610427356731542171415582238347659628434132010689092423&#45;&gt;cluster_cluster_cluster_cluster_cluster_&#45;220212124901982970675358493883173307004950861078888504724&#45;680610427356731542171415582238347659622474993859311970617 -->
<g id="edge3" class="edge"><title>cluster_cluster_cluster_cluster_cluster_&#45;220212124901982970675358493883173307004950861078888504724&#45;680610427356731542171415582238347659628434132010689092423&#45;&gt;cluster_cluster_cluster_cluster_cluster_&#45;220212124901982970675358493883173307004950861078888504724&#45;680610427356731542171415582238347659622474993859311970617</title>
<path fill="none" stroke="black" d="M967,-94.8314C967,-94.8314 967,-69.4133 967,-69.4133"/>
<polygon fill="black" stroke="black" points="970.5,-69.4132 967,-59.4133 963.5,-69.4133 970.5,-69.4132"/>
</g>
<!-- cluster_cluster_cluster_cluster_cluster_&#45;220212124901982970675358493883173307004950861078888504724&#45;68061042735673154217141558223834765962&#45;2184285171077790561 -->
<g id="node3" class="node"><title>cluster_cluster_cluster_cluster_cluster_&#45;220212124901982970675358493883173307004950861078888504724&#45;68061042735673154217141558223834765962&#45;2184285171077790561</title>
<g id="a_node3"><a xlink:title="A flag to impose engine on when there is a gear &gt; 0.">
<path fill="cyan" stroke="black" d="M292,-209C292,-209 124,-209 124,-209 118,-209 112,-203 112,-197 112,-197 112,-185 112,-185 112,-179 118,-173 124,-173 124,-173 292,-173 292,-173 298,-173 304,-179 304,-185 304,-185 304,-197 304,-197 304,-203 298,-209 292,-209"/>
<text text-anchor="start" x="122" y="-186.8" font-family="Times New Roman,serif" font-size="14.00">correct_start_stop_with_gears</text>
</a>
</g>
</g>
<!-- cluster_cluster_cluster_cluster_cluster_&#45;220212124901982970675358493883173307004950861078888504724&#45;68061042735673154217141558223834765962&#45;2184285171077790561&#45;&gt;cluster_cluster_cluster_cluster_cluster_&#45;220212124901982970675358493883173307004950861078888504724&#45;680610427356731542171415582238347659628434132010689092423 -->
<g id="edge4" class="edge"><title>cluster_cluster_cluster_cluster_cluster_&#45;220212124901982970675358493883173307004950861078888504724&#45;68061042735673154217141558223834765962&#45;2184285171077790561&#45;&gt;cluster_cluster_cluster_cluster_cluster_&#45;220212124901982970675358493883173307004950861078888504724&#45;680610427356731542171415582238347659628434132010689092423</title>
<path fill="none" stroke="black" d="M208,-172.773C208,-148.068 208,-107 208,-107 208,-107 825.698,-107 825.698,-107"/>
<polygon fill="black" stroke="black" points="825.698,-110.5 835.698,-107 825.698,-103.5 825.698,-110.5"/>
</g>
<!-- cluster_cluster_cluster_cluster_cluster_&#45;220212124901982970675358493883173307004950861078888504724&#45;680610427356731542171415582238347659624429227571388341383 -->
<g id="node4" class="node"><title>cluster_cluster_cluster_cluster_cluster_&#45;220212124901982970675358493883173307004950861078888504724&#45;680610427356731542171415582238347659624429227571388341383</title>
<g id="a_node4"><a xlink:title="Engine coolant temperature vector [°C].">
<path fill="cyan" stroke="black" d="M494,-209C494,-209 334,-209 334,-209 328,-209 322,-203 322,-197 322,-197 322,-185 322,-185 322,-179 328,-173 334,-173 334,-173 494,-173 494,-173 500,-173 506,-179 506,-185 506,-185 506,-197 506,-197 506,-203 500,-209 494,-209"/>
<text text-anchor="start" x="332.5" y="-186.8" font-family="Times New Roman,serif" font-size="14.00">engine_coolant_temperatures</text>
</a>
</g>
</g>
<!-- cluster_cluster_cluster_cluster_cluster_&#45;220212124901982970675358493883173307004950861078888504724&#45;680610427356731542171415582238347659624429227571388341383&#45;&gt;cluster_cluster_cluster_cluster_cluster_&#45;220212124901982970675358493883173307004950861078888504724&#45;680610427356731542171415582238347659628434132010689092423 -->
<g id="edge5" class="edge"><title>cluster_cluster_cluster_cluster_cluster_&#45;220212124901982970675358493883173307004950861078888504724&#45;680610427356731542171415582238347659624429227571388341383&#45;&gt;cluster_cluster_cluster_cluster_cluster_&#45;220212124901982970675358493883173307004950861078888504724&#45;680610427356731542171415582238347659628434132010689092423</title>
<path fill="none" stroke="black" d="M414,-172.909C414,-149.867 414,-113 414,-113 414,-113 825.892,-113 825.892,-113"/>
<polygon fill="black" stroke="black" points="825.892,-116.5 835.892,-113 825.892,-109.5 825.892,-116.5"/>
</g>
<!-- cluster_cluster_cluster_cluster_cluster_&#45;220212124901982970675358493883173307004950861078888504724&#45;680610427356731542171415582238347659625823726384603252559 -->
<g id="node6" class="node"><title>cluster_cluster_cluster_cluster_cluster_&#45;220212124901982970675358493883173307004950861078888504724&#45;680610427356731542171415582238347659625823726384603252559</title>
<g id="a_node6"><a xlink:title="Gear vector [&#45;].">
<path fill="cyan" stroke="black" d="M566,-209C566,-209 536,-209 536,-209 530,-209 524,-203 524,-197 524,-197 524,-185 524,-185 524,-179 530,-173 536,-173 536,-173 566,-173 566,-173 572,-173 578,-179 578,-185 578,-185 578,-197 578,-197 578,-203 572,-209 566,-209"/>
<text text-anchor="start" x="536" y="-186.8" font-family="Times New Roman,serif" font-size="14.00">gears</text>
</a>
</g>
</g>
<!-- cluster_cluster_cluster_cluster_cluster_&#45;220212124901982970675358493883173307004950861078888504724&#45;680610427356731542171415582238347659625823726384603252559&#45;&gt;cluster_cluster_cluster_cluster_cluster_&#45;220212124901982970675358493883173307004950861078888504724&#45;680610427356731542171415582238347659628434132010689092423 -->
<g id="edge6" class="edge"><title>cluster_cluster_cluster_cluster_cluster_&#45;220212124901982970675358493883173307004950861078888504724&#45;680610427356731542171415582238347659625823726384603252559&#45;&gt;cluster_cluster_cluster_cluster_cluster_&#45;220212124901982970675358493883173307004950861078888504724&#45;680610427356731542171415582238347659628434132010689092423</title>
<path fill="none" stroke="black" d="M551,-172.831C551,-151.502 551,-119 551,-119 551,-119 825.955,-119 825.955,-119"/>
<polygon fill="black" stroke="black" points="825.955,-122.5 835.955,-119 825.955,-115.5 825.955,-122.5"/>
</g>
<!-- cluster_cluster_cluster_cluster_cluster_&#45;220212124901982970675358493883173307004950861078888504724&#45;680610427356731542171415582238347659628089331383001063885 -->
<g id="node7" class="node"><title>cluster_cluster_cluster_cluster_cluster_&#45;220212124901982970675358493883173307004950861078888504724&#45;680610427356731542171415582238347659628089331383001063885</title>
<g id="a_node7"><a xlink:title="Does the vehicle have start/stop system?">
<path fill="cyan" stroke="black" d="M687.5,-215C687.5,-215 608.5,-215 608.5,-215 602.5,-215 596.5,-209 596.5,-203 596.5,-203 596.5,-179 596.5,-179 596.5,-173 602.5,-167 608.5,-167 608.5,-167 687.5,-167 687.5,-167 693.5,-167 699.5,-173 699.5,-179 699.5,-179 699.5,-203 699.5,-203 699.5,-209 693.5,-215 687.5,-215"/>
<text text-anchor="start" x="607" y="-197.8" font-family="Times New Roman,serif" font-size="14.00">has_start_stop</text>
<polygon fill="none" stroke="black" points="605,-171 605,-192 658,-192 658,-171 605,-171"/>
<text text-anchor="start" x="609" y="-177.8" font-family="Times New Roman,serif" font-size="14.00">default=</text>
<polygon fill="none" stroke="black" points="658,-171 658,-192 692,-192 692,-171 658,-171"/>
<text text-anchor="start" x="661" y="-177.8" font-family="Times New Roman,serif" font-size="14.00">True</text>
</a>
</g>
</g>
<!-- cluster_cluster_cluster_cluster_cluster_&#45;220212124901982970675358493883173307004950861078888504724&#45;680610427356731542171415582238347659628089331383001063885&#45;&gt;cluster_cluster_cluster_cluster_cluster_&#45;220212124901982970675358493883173307004950861078888504724&#45;680610427356731542171415582238347659628434132010689092423 -->
<g id="edge7" class="edge"><title>cluster_cluster_cluster_cluster_cluster_&#45;220212124901982970675358493883173307004950861078888504724&#45;680610427356731542171415582238347659628089331383001063885&#45;&gt;cluster_cluster_cluster_cluster_cluster_&#45;220212124901982970675358493883173307004950861078888504724&#45;680610427356731542171415582238347659628434132010689092423</title>
<path fill="none" stroke="black" d="M648,-166.799C648,-147.962 648,-125 648,-125 648,-125 825.849,-125 825.849,-125"/>
<polygon fill="black" stroke="black" points="825.849,-128.5 835.849,-125 825.849,-121.5 825.849,-128.5"/>
</g>
<!-- cluster_cluster_cluster_cluster_cluster_&#45;220212124901982970675358493883173307004950861078888504724&#45;680610427356731542171415582238347659627447559169447203185 -->
<g id="node8" class="node"><title>cluster_cluster_cluster_cluster_cluster_&#45;220212124901982970675358493883173307004950861078888504724&#45;680610427356731542171415582238347659627447559169447203185</title>
<g id="a_node8"><a xlink:title="Minimum time of engine on after a start [s].">
<path fill="cyan" stroke="black" d="M906,-215C906,-215 730,-215 730,-215 724,-215 718,-209 718,-203 718,-203 718,-179 718,-179 718,-173 724,-167 730,-167 730,-167 906,-167 906,-167 912,-167 918,-173 918,-179 918,-179 918,-203 918,-203 918,-209 912,-215 906,-215"/>
<text text-anchor="start" x="728" y="-197.8" font-family="Times New Roman,serif" font-size="14.00">min_time_engine_on_after_start</text>
<polygon fill="none" stroke="black" points="726,-171 726,-192 832,-192 832,-171 726,-171"/>
<text text-anchor="start" x="783" y="-177.8" font-family="Times New Roman,serif" font-size="14.00">default=</text>
<polygon fill="none" stroke="black" points="832,-171 832,-192 910,-192 910,-171 832,-171"/>
<text text-anchor="start" x="835" y="-177.8" font-family="Times New Roman,serif" font-size="14.00">4.0</text>
</a>
</g>
</g>
<!-- cluster_cluster_cluster_cluster_cluster_&#45;220212124901982970675358493883173307004950861078888504724&#45;680610427356731542171415582238347659627447559169447203185&#45;&gt;cluster_cluster_cluster_cluster_cluster_&#45;220212124901982970675358493883173307004950861078888504724&#45;680610427356731542171415582238347659628434132010689092423 -->
<g id="edge8" class="edge"><title>cluster_cluster_cluster_cluster_cluster_&#45;220212124901982970675358493883173307004950861078888504724&#45;680610427356731542171415582238347659627447559169447203185&#45;&gt;cluster_cluster_cluster_cluster_cluster_&#45;220212124901982970675358493883173307004950861078888504724&#45;680610427356731542171415582238347659628434132010689092423</title>
<path fill="none" stroke="black" d="M877,-166.748C877,-166.748 877,-141.288 877,-141.288"/>
<polygon fill="black" stroke="black" points="880.5,-141.287 877,-131.288 873.5,-141.288 880.5,-141.287"/>
</g>
<!-- cluster_cluster_cluster_cluster_cluster_&#45;220212124901982970675358493883173307004950861078888504724&#45;68061042735673154217141558223834765962&#45;3588871332567869814 -->
<g id="node10" class="node"><title>cluster_cluster_cluster_cluster_cluster_&#45;220212124901982970675358493883173307004950861078888504724&#45;68061042735673154217141558223834765962&#45;3588871332567869814</title>
<g id="a_node10"><a xlink:title="Start&#45;stop activation time threshold [s].">
<path fill="cyan" stroke="black" d="M1092,-215C1092,-215 948,-215 948,-215 942,-215 936,-209 936,-203 936,-203 936,-179 936,-179 936,-173 942,-167 948,-167 948,-167 1092,-167 1092,-167 1098,-167 1104,-173 1104,-179 1104,-179 1104,-203 1104,-203 1104,-209 1098,-215 1092,-215"/>
<text text-anchor="start" x="946" y="-197.8" font-family="Times New Roman,serif" font-size="14.00">start_stop_activation_time</text>
<polygon fill="none" stroke="black" points="944,-171 944,-192 1036,-192 1036,-171 944,-171"/>
<text text-anchor="start" x="987" y="-177.8" font-family="Times New Roman,serif" font-size="14.00">default=</text>
<polygon fill="none" stroke="black" points="1036,-171 1036,-192 1096,-192 1096,-171 1036,-171"/>
<text text-anchor="start" x="1039" y="-177.8" font-family="Times New Roman,serif" font-size="14.00">30</text>
</a>
</g>
</g>
<!-- cluster_cluster_cluster_cluster_cluster_&#45;220212124901982970675358493883173307004950861078888504724&#45;68061042735673154217141558223834765962&#45;3588871332567869814&#45;&gt;cluster_cluster_cluster_cluster_cluster_&#45;220212124901982970675358493883173307004950861078888504724&#45;680610427356731542171415582238347659628434132010689092423 -->
<g id="edge9" class="edge"><title>cluster_cluster_cluster_cluster_cluster_&#45;220212124901982970675358493883173307004950861078888504724&#45;68061042735673154217141558223834765962&#45;3588871332567869814&#45;&gt;cluster_cluster_cluster_cluster_cluster_&#45;220212124901982970675358493883173307004950861078888504724&#45;680610427356731542171415582238347659628434132010689092423</title>
<path fill="none" stroke="black" d="M969,-166.748C969,-166.748 969,-141.288 969,-141.288"/>
<polygon fill="black" stroke="black" points="972.5,-141.287 969,-131.288 965.5,-141.288 972.5,-141.287"/>
</g>
<!-- cluster_cluster_cluster_cluster_cluster_&#45;220212124901982970675358493883173307004950861078888504724&#45;680610427356731542171415582238347659623218977055108096533 -->
<g id="node11" class="node"><title>cluster_cluster_cluster_cluster_cluster_&#45;220212124901982970675358493883173307004950861078888504724&#45;680610427356731542171415582238347659623218977055108096533</title>
<g id="a_node11"><a xlink:title="Start/stop model.">
<path fill="cyan" stroke="black" d="M1230,-209C1230,-209 1134,-209 1134,-209 1128,-209 1122,-203 1122,-197 1122,-197 1122,-185 1122,-185 1122,-179 1128,-173 1134,-173 1134,-173 1230,-173 1230,-173 1236,-173 1242,-179 1242,-185 1242,-185 1242,-197 1242,-197 1242,-203 1236,-209 1230,-209"/>
<text text-anchor="start" x="1132.5" y="-186.8" font-family="Times New Roman,serif" font-size="14.00">start_stop_model</text>
</a>
</g>
</g>
<!-- cluster_cluster_cluster_cluster_cluster_&#45;220212124901982970675358493883173307004950861078888504724&#45;680610427356731542171415582238347659623218977055108096533&#45;&gt;cluster_cluster_cluster_cluster_cluster_&#45;220212124901982970675358493883173307004950861078888504724&#45;680610427356731542171415582238347659628434132010689092423 -->
<g id="edge10" class="edge"><title>cluster_cluster_cluster_cluster_cluster_&#45;220212124901982970675358493883173307004950861078888504724&#45;680610427356731542171415582238347659623218977055108096533&#45;&gt;cluster_cluster_cluster_cluster_cluster_&#45;220212124901982970675358493883173307004950861078888504724&#45;680610427356731542171415582238347659628434132010689092423</title>
<path fill="none" stroke="black" d="M1182,-172.965C1182,-153.424 1182,-125 1182,-125 1182,-125 1012.21,-125 1012.21,-125"/>
<polygon fill="black" stroke="black" points="1012.21,-121.5 1002.21,-125 1012.21,-128.5 1012.21,-121.5"/>
</g>
<!-- cluster_cluster_cluster_cluster_cluster_&#45;220212124901982970675358493883173307004950861078888504724&#45;680610427356731542171415582238347659624956940051117836380 -->
<g id="node12" class="node"><title>cluster_cluster_cluster_cluster_cluster_&#45;220212124901982970675358493883173307004950861078888504724&#45;680610427356731542171415582238347659624956940051117836380</title>
<g id="a_node12"><a xlink:title="State of charge of the battery [%].">
<path fill="cyan" stroke="black" d="M1364,-209C1364,-209 1272,-209 1272,-209 1266,-209 1260,-203 1260,-197 1260,-197 1260,-185 1260,-185 1260,-179 1266,-173 1272,-173 1272,-173 1364,-173 1364,-173 1370,-173 1376,-179 1376,-185 1376,-185 1376,-197 1376,-197 1376,-203 1370,-209 1364,-209"/>
<text text-anchor="start" x="1270" y="-186.8" font-family="Times New Roman,serif" font-size="14.00">state_of_charges</text>
</a>
</g>
</g>
<!-- cluster_cluster_cluster_cluster_cluster_&#45;220212124901982970675358493883173307004950861078888504724&#45;680610427356731542171415582238347659624956940051117836380&#45;&gt;cluster_cluster_cluster_cluster_cluster_&#45;220212124901982970675358493883173307004950861078888504724&#45;680610427356731542171415582238347659628434132010689092423 -->
<g id="edge11" class="edge"><title>cluster_cluster_cluster_cluster_cluster_&#45;220212124901982970675358493883173307004950861078888504724&#45;680610427356731542171415582238347659624956940051117836380&#45;&gt;cluster_cluster_cluster_cluster_cluster_&#45;220212124901982970675358493883173307004950861078888504724&#45;680610427356731542171415582238347659628434132010689092423</title>
<path fill="none" stroke="black" d="M1318,-172.831C1318,-151.502 1318,-119 1318,-119 1318,-119 1012.16,-119 1012.16,-119"/>
<polygon fill="black" stroke="black" points="1012.16,-115.5 1002.16,-119 1012.16,-122.5 1012.16,-115.5"/>
</g>
<!-- cluster_cluster_cluster_cluster_cluster_&#45;220212124901982970675358493883173307004950861078888504724&#45;68061042735673154217141558223834765962&#45;1825562924159530342 -->
<g id="node13" class="node"><title>cluster_cluster_cluster_cluster_cluster_&#45;220212124901982970675358493883173307004950861078888504724&#45;68061042735673154217141558223834765962&#45;1825562924159530342</title>
<g id="a_node13"><a xlink:title="Time vector [s].">
<path fill="cyan" stroke="black" d="M1436,-209C1436,-209 1406,-209 1406,-209 1400,-209 1394,-203 1394,-197 1394,-197 1394,-185 1394,-185 1394,-179 1400,-173 1406,-173 1406,-173 1436,-173 1436,-173 1442,-173 1448,-179 1448,-185 1448,-185 1448,-197 1448,-197 1448,-203 1442,-209 1436,-209"/>
<text text-anchor="start" x="1406" y="-186.8" font-family="Times New Roman,serif" font-size="14.00">times</text>
</a>
</g>
</g>
<!-- cluster_cluster_cluster_cluster_cluster_&#45;220212124901982970675358493883173307004950861078888504724&#45;68061042735673154217141558223834765962&#45;1825562924159530342&#45;&gt;cluster_cluster_cluster_cluster_cluster_&#45;220212124901982970675358493883173307004950861078888504724&#45;680610427356731542171415582238347659628434132010689092423 -->
<g id="edge12" class="edge"><title>cluster_cluster_cluster_cluster_cluster_&#45;220212124901982970675358493883173307004950861078888504724&#45;68061042735673154217141558223834765962&#45;1825562924159530342&#45;&gt;cluster_cluster_cluster_cluster_cluster_&#45;220212124901982970675358493883173307004950861078888504724&#45;680610427356731542171415582238347659628434132010689092423</title>
<path fill="none" stroke="black" d="M1421,-172.909C1421,-149.867 1421,-113 1421,-113 1421,-113 1012.18,-113 1012.18,-113"/>
<polygon fill="black" stroke="black" points="1012.18,-109.5 1002.18,-113 1012.18,-116.5 1012.18,-109.5"/>
</g>
<!-- cluster_cluster_cluster_cluster_cluster_&#45;220212124901982970675358493883173307004950861078888504724&#45;68061042735673154217141558223834765962&#45;6101498208368959690 -->
<g id="node14" class="node"><title>cluster_cluster_cluster_cluster_cluster_&#45;220212124901982970675358493883173307004950861078888504724&#45;68061042735673154217141558223834765962&#45;6101498208368959690</title>
<g id="a_node14"><a xlink:title="If True the basic start stop model is applied, otherwise complex one.">
<path fill="cyan" stroke="black" d="M1594,-209C1594,-209 1478,-209 1478,-209 1472,-209 1466,-203 1466,-197 1466,-197 1466,-185 1466,-185 1466,-179 1472,-173 1478,-173 1478,-173 1594,-173 1594,-173 1600,-173 1606,-179 1606,-185 1606,-185 1606,-197 1606,-197 1606,-203 1600,-209 1594,-209"/>
<text text-anchor="start" x="1476" y="-186.8" font-family="Times New Roman,serif" font-size="14.00">use_basic_start_stop</text>
</a>
</g>
</g>
<!-- cluster_cluster_cluster_cluster_cluster_&#45;220212124901982970675358493883173307004950861078888504724&#45;68061042735673154217141558223834765962&#45;6101498208368959690&#45;&gt;cluster_cluster_cluster_cluster_cluster_&#45;220212124901982970675358493883173307004950861078888504724&#45;680610427356731542171415582238347659628434132010689092423 -->
<g id="edge13" class="edge"><title>cluster_cluster_cluster_cluster_cluster_&#45;220212124901982970675358493883173307004950861078888504724&#45;68061042735673154217141558223834765962&#45;6101498208368959690&#45;&gt;cluster_cluster_cluster_cluster_cluster_&#45;220212124901982970675358493883173307004950861078888504724&#45;680610427356731542171415582238347659628434132010689092423</title>
<path fill="none" stroke="black" d="M1536,-172.773C1536,-148.068 1536,-107 1536,-107 1536,-107 1012.21,-107 1012.21,-107"/>
<polygon fill="black" stroke="black" points="1012.21,-103.5 1002.21,-107 1012.21,-110.5 1012.21,-103.5"/>
</g>
<!-- cluster_cluster_cluster_cluster_cluster_&#45;220212124901982970675358493883173307004950861078888504724&#45;680610427356731542171415582238347659621395676110976739562 -->
<g id="node15" class="node"><title>cluster_cluster_cluster_cluster_cluster_&#45;220212124901982970675358493883173307004950861078888504724&#45;680610427356731542171415582238347659621395676110976739562</title>
<g id="a_node15"><a xlink:title="Velocity vector [km/h].">
<path fill="cyan" stroke="black" d="M1684,-209C1684,-209 1636,-209 1636,-209 1630,-209 1624,-203 1624,-197 1624,-197 1624,-185 1624,-185 1624,-179 1630,-173 1636,-173 1636,-173 1684,-173 1684,-173 1690,-173 1696,-179 1696,-185 1696,-185 1696,-197 1696,-197 1696,-203 1690,-209 1684,-209"/>
<text text-anchor="start" x="1634" y="-186.8" font-family="Times New Roman,serif" font-size="14.00">velocities</text>
</a>
</g>
</g>
<!-- cluster_cluster_cluster_cluster_cluster_&#45;220212124901982970675358493883173307004950861078888504724&#45;680610427356731542171415582238347659621395676110976739562&#45;&gt;cluster_cluster_cluster_cluster_cluster_&#45;220212124901982970675358493883173307004950861078888504724&#45;680610427356731542171415582238347659628434132010689092423 -->
<g id="edge14" class="edge"><title>cluster_cluster_cluster_cluster_cluster_&#45;220212124901982970675358493883173307004950861078888504724&#45;680610427356731542171415582238347659621395676110976739562&#45;&gt;cluster_cluster_cluster_cluster_cluster_&#45;220212124901982970675358493883173307004950861078888504724&#45;680610427356731542171415582238347659628434132010689092423</title>
<path fill="none" stroke="black" d="M1660,-172.787C1660,-146.489 1660,-101 1660,-101 1660,-101 1012.2,-101 1012.2,-101"/>
<polygon fill="black" stroke="black" points="1012.2,-97.5001 1002.2,-101 1012.2,-104.5 1012.2,-97.5001"/>
</g>
</g>
</svg>
