<?xml version="1.0" encoding="UTF-8" standalone="no"?>
<!DOCTYPE svg PUBLIC "-//W3C//DTD SVG 1.1//EN"
 "http://www.w3.org/Graphics/SVG/1.1/DTD/svg11.dtd">
<!-- Generated by graphviz version 2.38.0 (20140413.2041)
 -->
<!-- Title: cluster_cvt_model Pages: 1 -->
<svg width="1942pt" height="247pt"
 viewBox="0.00 0.00 1942.00 247.00" xmlns="http://www.w3.org/2000/svg" xmlns:xlink="http://www.w3.org/1999/xlink">
<g id="graph0" class="graph" transform="scale(1 1) rotate(0) translate(4 243)">
<title>cluster_cvt_model</title>
<polygon fill="white" stroke="none" points="-4,4 -4,-243 1938,-243 1938,4 -4,4"/>
<text text-anchor="start" x="937" y="-7.8" font-family="Times New Roman,serif" font-size="14.00">cvt_model</text>
<!-- cluster_cluster_cluster_cluster_cluster_cluster_cluster_&#45;220212124901982970656214335412117874644487423537040413414&#45;5394324967932730695724736810557958213&#45;30793389833034488416666347105389957617477766655963245695 -->
<g id="node1" class="node"><title>cluster_cluster_cluster_cluster_cluster_cluster_cluster_&#45;220212124901982970656214335412117874644487423537040413414&#45;5394324967932730695724736810557958213&#45;30793389833034488416666347105389957617477766655963245695</title>
<g id="a_node1"><a xlink:title="Continuously variable transmission model.">
<path fill="cyan" stroke="black" d="M203,-239C203,-239 12,-239 12,-239 6,-239 0,-233 0,-227 0,-227 0,-203 0,-203 0,-197 6,-191 12,-191 12,-191 203,-191 203,-191 209,-191 215,-197 215,-203 215,-203 215,-227 215,-227 215,-233 209,-239 203,-239"/>
<text text-anchor="start" x="93.5" y="-221.8" font-family="Times New Roman,serif" font-size="14.00">CVT</text>
<polygon fill="none" stroke="black" points="8.5,-195 8.5,-216 110.5,-216 110.5,-195 8.5,-195"/>
<text text-anchor="start" x="11.5" y="-201.8" font-family="Times New Roman,serif" font-size="14.00">remote parent 0=</text>
<polygon fill="none" stroke="black" points="110.5,-195 110.5,-216 207.5,-216 207.5,-195 110.5,-195"/>
<text text-anchor="start" x="113.5" y="-201.8" font-family="Times New Roman,serif" font-size="14.00">cvt_model:CVT</text>
</a>
</g>
</g>
<!-- cluster_cluster_cluster_cluster_cluster_cluster_cluster_&#45;220212124901982970656214335412117874644487423537040413414&#45;5394324967932730695724736810557958213&#45;3079338983303448841666634710538995761&#45;1173673408552268297 -->
<g id="node3" class="node"><title>cluster_cluster_cluster_cluster_cluster_cluster_cluster_&#45;220212124901982970656214335412117874644487423537040413414&#45;5394324967932730695724736810557958213&#45;3079338983303448841666634710538995761&#45;1173673408552268297</title>
<g id="a_node3"><a xlink:href="./../../../../ESM-wltp_h_errors/ESM-wltp_h_error_vs_wltp_h/CO2MPAS_physical_model/gear_box_model/cvt_model/co2mpas.model.physical.gear_box.cvtpredict_gear_box_speeds_in__gears_and_max_gear.txt" xlink:title="Predicts gear box speed vector, gear vector, and maximum gear [RPM, &#45;, &#45;].">
<polygon fill="orange" stroke="black" points="673,-155 356,-155 356,-107 673,-107 673,-155"/>
<text text-anchor="start" x="366.5" y="-137.8" font-family="Times New Roman,serif" font-size="14.00">predict_gear_box_speeds_in__gears_and_max_gear</text>
<polygon fill="none" stroke="black" points="364.5,-111 364.5,-132 525.5,-132 525.5,-111 364.5,-111"/>
<text text-anchor="start" x="452.5" y="-117.8" font-family="Times New Roman,serif" font-size="14.00">M_outputs=</text>
<polygon fill="none" stroke="black" points="525.5,-111 525.5,-132 665.5,-132 665.5,-111 525.5,-111"/>
<text text-anchor="start" x="528.5" y="-117.8" font-family="Times New Roman,serif" font-size="14.00">(&#39;gears&#39;,)</text>
</a>
</g>
</g>
<!-- cluster_cluster_cluster_cluster_cluster_cluster_cluster_&#45;220212124901982970656214335412117874644487423537040413414&#45;5394324967932730695724736810557958213&#45;30793389833034488416666347105389957617477766655963245695&#45;&gt;cluster_cluster_cluster_cluster_cluster_cluster_cluster_&#45;220212124901982970656214335412117874644487423537040413414&#45;5394324967932730695724736810557958213&#45;3079338983303448841666634710538995761&#45;1173673408552268297 -->
<g id="edge1" class="edge"><title>cluster_cluster_cluster_cluster_cluster_cluster_cluster_&#45;220212124901982970656214335412117874644487423537040413414&#45;5394324967932730695724736810557958213&#45;30793389833034488416666347105389957617477766655963245695&#45;&gt;cluster_cluster_cluster_cluster_cluster_cluster_cluster_&#45;220212124901982970656214335412117874644487423537040413414&#45;5394324967932730695724736810557958213&#45;3079338983303448841666634710538995761&#45;1173673408552268297</title>
<path fill="none" stroke="black" d="M107.5,-190.704C107.5,-165.895 107.5,-131 107.5,-131 107.5,-131 345.978,-131 345.978,-131"/>
<polygon fill="black" stroke="black" points="345.978,-134.5 355.978,-131 345.978,-127.5 345.978,-134.5"/>
</g>
<!-- cluster_cluster_cluster_cluster_cluster_cluster_cluster_&#45;220212124901982970656214335412117874644487423537040413414&#45;5394324967932730695724736810557958213&#45;3079338983303448841666634710538995761&#45;6281391710310240799 -->
<g id="node2" class="node"><title>cluster_cluster_cluster_cluster_cluster_cluster_cluster_&#45;220212124901982970656214335412117874644487423537040413414&#45;5394324967932730695724736810557958213&#45;3079338983303448841666634710538995761&#45;6281391710310240799</title>
<g id="a_node2"><a xlink:title="Vehicle acceleration [m/s2].">
<path fill="cyan" stroke="black" d="M480,-239C480,-239 245,-239 245,-239 239,-239 233,-233 233,-227 233,-227 233,-203 233,-203 233,-197 239,-191 245,-191 245,-191 480,-191 480,-191 486,-191 492,-197 492,-203 492,-203 492,-227 492,-227 492,-233 486,-239 480,-239"/>
<text text-anchor="start" x="326.5" y="-221.8" font-family="Times New Roman,serif" font-size="14.00">accelerations</text>
<polygon fill="none" stroke="black" points="241.5,-195 241.5,-216 343.5,-216 343.5,-195 241.5,-195"/>
<text text-anchor="start" x="244.5" y="-201.8" font-family="Times New Roman,serif" font-size="14.00">remote parent 0=</text>
<polygon fill="none" stroke="black" points="343.5,-195 343.5,-216 484.5,-216 484.5,-195 343.5,-195"/>
<text text-anchor="start" x="346.5" y="-201.8" font-family="Times New Roman,serif" font-size="14.00">cvt_model:accelerations</text>
</a>
</g>
</g>
<!-- cluster_cluster_cluster_cluster_cluster_cluster_cluster_&#45;220212124901982970656214335412117874644487423537040413414&#45;5394324967932730695724736810557958213&#45;3079338983303448841666634710538995761&#45;6281391710310240799&#45;&gt;cluster_cluster_cluster_cluster_cluster_cluster_cluster_&#45;220212124901982970656214335412117874644487423537040413414&#45;5394324967932730695724736810557958213&#45;3079338983303448841666634710538995761&#45;1173673408552268297 -->
<g id="edge2" class="edge"><title>cluster_cluster_cluster_cluster_cluster_cluster_cluster_&#45;220212124901982970656214335412117874644487423537040413414&#45;5394324967932730695724736810557958213&#45;3079338983303448841666634710538995761&#45;6281391710310240799&#45;&gt;cluster_cluster_cluster_cluster_cluster_cluster_cluster_&#45;220212124901982970656214335412117874644487423537040413414&#45;5394324967932730695724736810557958213&#45;3079338983303448841666634710538995761&#45;1173673408552268297</title>
<path fill="none" stroke="black" d="M424,-190.704C424,-190.704 424,-165.242 424,-165.242"/>
<polygon fill="black" stroke="black" points="427.5,-165.242 424,-155.242 420.5,-165.242 427.5,-165.242"/>
</g>
<!-- cluster_cluster_cluster_cluster_cluster_cluster_cluster_&#45;220212124901982970656214335412117874644487423537040413414&#45;5394324967932730695724736810557958213&#45;30793389833034488416666347105389957618629495254995206395 -->
<g id="node5" class="node"><title>cluster_cluster_cluster_cluster_cluster_cluster_cluster_&#45;220212124901982970656214335412117874644487423537040413414&#45;5394324967932730695724736810557958213&#45;30793389833034488416666347105389957618629495254995206395</title>
<g id="a_node5"><a xlink:title="gear_box_speeds_in">
<path fill="cyan" stroke="black" d="M509,-71C509,-71 238,-71 238,-71 232,-71 226,-65 226,-59 226,-59 226,-35 226,-35 226,-29 232,-23 238,-23 238,-23 509,-23 509,-23 515,-23 521,-29 521,-35 521,-35 521,-59 521,-59 521,-65 515,-71 509,-71"/>
<text text-anchor="start" x="315.5" y="-53.8" font-family="Times New Roman,serif" font-size="14.00">gear_box_speeds_in</text>
<polygon fill="none" stroke="black" points="234.5,-27 234.5,-48 328.5,-48 328.5,-27 234.5,-27"/>
<text text-anchor="start" x="237.5" y="-33.8" font-family="Times New Roman,serif" font-size="14.00">remote child 0=</text>
<polygon fill="none" stroke="black" points="328.5,-27 328.5,-48 513.5,-48 513.5,-27 328.5,-27"/>
<text text-anchor="start" x="331.5" y="-33.8" font-family="Times New Roman,serif" font-size="14.00">cvt_model:gear_box_speeds_in</text>
</a>
</g>
</g>
<!-- cluster_cluster_cluster_cluster_cluster_cluster_cluster_&#45;220212124901982970656214335412117874644487423537040413414&#45;5394324967932730695724736810557958213&#45;3079338983303448841666634710538995761&#45;1173673408552268297&#45;&gt;cluster_cluster_cluster_cluster_cluster_cluster_cluster_&#45;220212124901982970656214335412117874644487423537040413414&#45;5394324967932730695724736810557958213&#45;30793389833034488416666347105389957618629495254995206395 -->
<g id="edge3" class="edge"><title>cluster_cluster_cluster_cluster_cluster_cluster_cluster_&#45;220212124901982970656214335412117874644487423537040413414&#45;5394324967932730695724736810557958213&#45;3079338983303448841666634710538995761&#45;1173673408552268297&#45;&gt;cluster_cluster_cluster_cluster_cluster_cluster_cluster_&#45;220212124901982970656214335412117874644487423537040413414&#45;5394324967932730695724736810557958213&#45;30793389833034488416666347105389957618629495254995206395</title>
<path fill="none" stroke="black" d="M438.5,-106.704C438.5,-106.704 438.5,-81.2417 438.5,-81.2417"/>
<polygon fill="black" stroke="black" points="442,-81.2416 438.5,-71.2417 435,-81.2417 442,-81.2416"/>
<polygon fill="none" stroke="black" points="368,-72.4727 368,-93.4727 419,-93.4727 419,-72.4727 368,-72.4727"/>
<text text-anchor="start" x="371" y="-79.2727" font-family="Times New Roman,serif" font-size="14.00">weight=</text>
<polygon fill="none" stroke="black" points="419,-72.4727 419,-93.4727 439,-93.4727 439,-72.4727 419,-72.4727"/>
<text text-anchor="start" x="422" y="-79.2727" font-family="Times New Roman,serif" font-size="14.00">10</text>
</g>
<!-- cluster_cluster_cluster_cluster_cluster_cluster_cluster_&#45;220212124901982970656214335412117874644487423537040413414&#45;5394324967932730695724736810557958213&#45;3079338983303448841666634710538995761&#45;3579311186073635 -->
<g id="node7" class="node"><title>cluster_cluster_cluster_cluster_cluster_cluster_cluster_&#45;220212124901982970656214335412117874644487423537040413414&#45;5394324967932730695724736810557958213&#45;3079338983303448841666634710538995761&#45;3579311186073635</title>
<g id="a_node7"><a xlink:title="max_gear">
<path fill="cyan" stroke="black" d="M760,-71C760,-71 551,-71 551,-71 545,-71 539,-65 539,-59 539,-59 539,-35 539,-35 539,-29 545,-23 551,-23 551,-23 760,-23 760,-23 766,-23 772,-29 772,-35 772,-35 772,-59 772,-59 772,-65 766,-71 760,-71"/>
<text text-anchor="start" x="628.5" y="-53.8" font-family="Times New Roman,serif" font-size="14.00">max_gear</text>
<polygon fill="none" stroke="black" points="547.5,-27 547.5,-48 641.5,-48 641.5,-27 547.5,-27"/>
<text text-anchor="start" x="550.5" y="-33.8" font-family="Times New Roman,serif" font-size="14.00">remote child 0=</text>
<polygon fill="none" stroke="black" points="641.5,-27 641.5,-48 764.5,-48 764.5,-27 641.5,-27"/>
<text text-anchor="start" x="644.5" y="-33.8" font-family="Times New Roman,serif" font-size="14.00">cvt_model:max_gear</text>
</a>
</g>
</g>
<!-- cluster_cluster_cluster_cluster_cluster_cluster_cluster_&#45;220212124901982970656214335412117874644487423537040413414&#45;5394324967932730695724736810557958213&#45;3079338983303448841666634710538995761&#45;1173673408552268297&#45;&gt;cluster_cluster_cluster_cluster_cluster_cluster_cluster_&#45;220212124901982970656214335412117874644487423537040413414&#45;5394324967932730695724736810557958213&#45;3079338983303448841666634710538995761&#45;3579311186073635 -->
<g id="edge4" class="edge"><title>cluster_cluster_cluster_cluster_cluster_cluster_cluster_&#45;220212124901982970656214335412117874644487423537040413414&#45;5394324967932730695724736810557958213&#45;3079338983303448841666634710538995761&#45;1173673408552268297&#45;&gt;cluster_cluster_cluster_cluster_cluster_cluster_cluster_&#45;220212124901982970656214335412117874644487423537040413414&#45;5394324967932730695724736810557958213&#45;3079338983303448841666634710538995761&#45;3579311186073635</title>
<path fill="none" stroke="black" d="M606,-106.704C606,-106.704 606,-81.2417 606,-81.2417"/>
<polygon fill="black" stroke="black" points="609.5,-81.2416 606,-71.2417 602.5,-81.2417 609.5,-81.2416"/>
</g>
<!-- cluster_cluster_cluster_cluster_cluster_cluster_cluster_&#45;220212124901982970656214335412117874644487423537040413414&#45;5394324967932730695724736810557958213&#45;30793389833034488416666347105389957611221065230924752828 -->
<g id="node4" class="node"><title>cluster_cluster_cluster_cluster_cluster_cluster_cluster_&#45;220212124901982970656214335412117874644487423537040413414&#45;5394324967932730695724736810557958213&#45;30793389833034488416666347105389957611221065230924752828</title>
<g id="a_node4"><a xlink:title="Gear box power vector [kW].">
<path fill="cyan" stroke="black" d="M812.5,-239C812.5,-239 522.5,-239 522.5,-239 516.5,-239 510.5,-233 510.5,-227 510.5,-227 510.5,-203 510.5,-203 510.5,-197 516.5,-191 522.5,-191 522.5,-191 812.5,-191 812.5,-191 818.5,-191 824.5,-197 824.5,-203 824.5,-203 824.5,-227 824.5,-227 824.5,-233 818.5,-239 812.5,-239"/>
<text text-anchor="start" x="604" y="-221.8" font-family="Times New Roman,serif" font-size="14.00">gear_box_powers_out</text>
<polygon fill="none" stroke="black" points="518.5,-195 518.5,-216 620.5,-216 620.5,-195 518.5,-195"/>
<text text-anchor="start" x="521.5" y="-201.8" font-family="Times New Roman,serif" font-size="14.00">remote parent 0=</text>
<polygon fill="none" stroke="black" points="620.5,-195 620.5,-216 816.5,-216 816.5,-195 620.5,-195"/>
<text text-anchor="start" x="623.5" y="-201.8" font-family="Times New Roman,serif" font-size="14.00">cvt_model:gear_box_powers_out</text>
</a>
</g>
</g>
<!-- cluster_cluster_cluster_cluster_cluster_cluster_cluster_&#45;220212124901982970656214335412117874644487423537040413414&#45;5394324967932730695724736810557958213&#45;30793389833034488416666347105389957611221065230924752828&#45;&gt;cluster_cluster_cluster_cluster_cluster_cluster_cluster_&#45;220212124901982970656214335412117874644487423537040413414&#45;5394324967932730695724736810557958213&#45;3079338983303448841666634710538995761&#45;1173673408552268297 -->
<g id="edge5" class="edge"><title>cluster_cluster_cluster_cluster_cluster_cluster_cluster_&#45;220212124901982970656214335412117874644487423537040413414&#45;5394324967932730695724736810557958213&#45;30793389833034488416666347105389957611221065230924752828&#45;&gt;cluster_cluster_cluster_cluster_cluster_cluster_cluster_&#45;220212124901982970656214335412117874644487423537040413414&#45;5394324967932730695724736810557958213&#45;3079338983303448841666634710538995761&#45;1173673408552268297</title>
<path fill="none" stroke="black" d="M591.75,-190.704C591.75,-190.704 591.75,-165.242 591.75,-165.242"/>
<polygon fill="black" stroke="black" points="595.25,-165.242 591.75,-155.242 588.25,-165.242 595.25,-165.242"/>
</g>
<!-- cluster_cluster_cluster_cluster_cluster_cluster_cluster_&#45;220212124901982970656214335412117874644487423537040413414&#45;5394324967932730695724736810557958213&#45;3079338983303448841666634710538995761&#45;3009578804924602371 -->
<g id="node6" class="node"><title>cluster_cluster_cluster_cluster_cluster_cluster_cluster_&#45;220212124901982970656214335412117874644487423537040413414&#45;5394324967932730695724736810557958213&#45;3079338983303448841666634710538995761&#45;3009578804924602371</title>
<g id="a_node6"><a xlink:title="idle_engine_speed">
<path fill="cyan" stroke="black" d="M1378.5,-239C1378.5,-239 1112.5,-239 1112.5,-239 1106.5,-239 1100.5,-233 1100.5,-227 1100.5,-227 1100.5,-203 1100.5,-203 1100.5,-197 1106.5,-191 1112.5,-191 1112.5,-191 1378.5,-191 1378.5,-191 1384.5,-191 1390.5,-197 1390.5,-203 1390.5,-203 1390.5,-227 1390.5,-227 1390.5,-233 1384.5,-239 1378.5,-239"/>
<text text-anchor="start" x="1194" y="-221.8" font-family="Times New Roman,serif" font-size="14.00">idle_engine_speed</text>
<polygon fill="none" stroke="black" points="1108.5,-195 1108.5,-216 1210.5,-216 1210.5,-195 1108.5,-195"/>
<text text-anchor="start" x="1111.5" y="-201.8" font-family="Times New Roman,serif" font-size="14.00">remote parent 0=</text>
<polygon fill="none" stroke="black" points="1210.5,-195 1210.5,-216 1382.5,-216 1382.5,-195 1210.5,-195"/>
<text text-anchor="start" x="1213.5" y="-201.8" font-family="Times New Roman,serif" font-size="14.00">cvt_model:idle_engine_speed</text>
</a>
</g>
</g>
<!-- cluster_cluster_cluster_cluster_cluster_cluster_cluster_&#45;220212124901982970656214335412117874644487423537040413414&#45;5394324967932730695724736810557958213&#45;30793389833034488416666347105389957612474993859311970617 -->
<g id="node8" class="node"><title>cluster_cluster_cluster_cluster_cluster_cluster_cluster_&#45;220212124901982970656214335412117874644487423537040413414&#45;5394324967932730695724736810557958213&#45;30793389833034488416666347105389957612474993859311970617</title>
<g id="a_node8"><a xlink:title="on_engine">
<path fill="cyan" stroke="black" d="M1640.5,-239C1640.5,-239 1420.5,-239 1420.5,-239 1414.5,-239 1408.5,-233 1408.5,-227 1408.5,-227 1408.5,-203 1408.5,-203 1408.5,-197 1414.5,-191 1420.5,-191 1420.5,-191 1640.5,-191 1640.5,-191 1646.5,-191 1652.5,-197 1652.5,-203 1652.5,-203 1652.5,-227 1652.5,-227 1652.5,-233 1646.5,-239 1640.5,-239"/>
<text text-anchor="start" x="1501.5" y="-221.8" font-family="Times New Roman,serif" font-size="14.00">on_engine</text>
<polygon fill="none" stroke="black" points="1416.5,-195 1416.5,-216 1518.5,-216 1518.5,-195 1416.5,-195"/>
<text text-anchor="start" x="1419.5" y="-201.8" font-family="Times New Roman,serif" font-size="14.00">remote parent 0=</text>
<polygon fill="none" stroke="black" points="1518.5,-195 1518.5,-216 1644.5,-216 1644.5,-195 1518.5,-195"/>
<text text-anchor="start" x="1521.5" y="-201.8" font-family="Times New Roman,serif" font-size="14.00">cvt_model:on_engine</text>
</a>
</g>
</g>
<!-- cluster_cluster_cluster_cluster_cluster_cluster_cluster_&#45;220212124901982970656214335412117874644487423537040413414&#45;5394324967932730695724736810557958213&#45;3079338983303448841666634710538995761&#45;3822089204281359213 -->
<g id="node9" class="node"><title>cluster_cluster_cluster_cluster_cluster_cluster_cluster_&#45;220212124901982970656214335412117874644487423537040413414&#45;5394324967932730695724736810557958213&#45;3079338983303448841666634710538995761&#45;3822089204281359213</title>
<g id="a_node9"><a xlink:title="stop_velocity">
<path fill="cyan" stroke="black" d="M1922,-239C1922,-239 1683,-239 1683,-239 1677,-239 1671,-233 1671,-227 1671,-227 1671,-203 1671,-203 1671,-197 1677,-191 1683,-191 1683,-191 1922,-191 1922,-191 1928,-191 1934,-197 1934,-203 1934,-203 1934,-227 1934,-227 1934,-233 1928,-239 1922,-239"/>
<text text-anchor="start" x="1765" y="-221.8" font-family="Times New Roman,serif" font-size="14.00">stop_velocity</text>
<polygon fill="none" stroke="black" points="1679.5,-195 1679.5,-216 1781.5,-216 1781.5,-195 1679.5,-195"/>
<text text-anchor="start" x="1682.5" y="-201.8" font-family="Times New Roman,serif" font-size="14.00">remote parent 0=</text>
<polygon fill="none" stroke="black" points="1781.5,-195 1781.5,-216 1926.5,-216 1926.5,-195 1781.5,-195"/>
<text text-anchor="start" x="1784.5" y="-201.8" font-family="Times New Roman,serif" font-size="14.00">cvt_model:stop_velocity</text>
</a>
</g>
</g>
<!-- cluster_cluster_cluster_cluster_cluster_cluster_cluster_&#45;220212124901982970656214335412117874644487423537040413414&#45;5394324967932730695724736810557958213&#45;30793389833034488416666347105389957611395676110976739562 -->
<g id="node10" class="node"><title>cluster_cluster_cluster_cluster_cluster_cluster_cluster_&#45;220212124901982970656214335412117874644487423537040413414&#45;5394324967932730695724736810557958213&#45;30793389833034488416666347105389957611395676110976739562</title>
<g id="a_node10"><a xlink:title="Vehicle velocity [km/h].">
<path fill="cyan" stroke="black" d="M1070,-239C1070,-239 855,-239 855,-239 849,-239 843,-233 843,-227 843,-227 843,-203 843,-203 843,-197 849,-191 855,-191 855,-191 1070,-191 1070,-191 1076,-191 1082,-197 1082,-203 1082,-203 1082,-227 1082,-227 1082,-233 1076,-239 1070,-239"/>
<text text-anchor="start" x="937" y="-221.8" font-family="Times New Roman,serif" font-size="14.00">velocities</text>
<polygon fill="none" stroke="black" points="851.5,-195 851.5,-216 953.5,-216 953.5,-195 851.5,-195"/>
<text text-anchor="start" x="854.5" y="-201.8" font-family="Times New Roman,serif" font-size="14.00">remote parent 0=</text>
<polygon fill="none" stroke="black" points="953.5,-195 953.5,-216 1074.5,-216 1074.5,-195 953.5,-195"/>
<text text-anchor="start" x="956.5" y="-201.8" font-family="Times New Roman,serif" font-size="14.00">cvt_model:velocities</text>
</a>
</g>
</g>
<!-- cluster_cluster_cluster_cluster_cluster_cluster_cluster_&#45;220212124901982970656214335412117874644487423537040413414&#45;5394324967932730695724736810557958213&#45;30793389833034488416666347105389957611395676110976739562&#45;&gt;cluster_cluster_cluster_cluster_cluster_cluster_cluster_&#45;220212124901982970656214335412117874644487423537040413414&#45;5394324967932730695724736810557958213&#45;3079338983303448841666634710538995761&#45;1173673408552268297 -->
<g id="edge6" class="edge"><title>cluster_cluster_cluster_cluster_cluster_cluster_cluster_&#45;220212124901982970656214335412117874644487423537040413414&#45;5394324967932730695724736810557958213&#45;30793389833034488416666347105389957611395676110976739562&#45;&gt;cluster_cluster_cluster_cluster_cluster_cluster_cluster_&#45;220212124901982970656214335412117874644487423537040413414&#45;5394324967932730695724736810557958213&#45;3079338983303448841666634710538995761&#45;1173673408552268297</title>
<path fill="none" stroke="black" d="M962.5,-190.704C962.5,-165.895 962.5,-131 962.5,-131 962.5,-131 683.079,-131 683.079,-131"/>
<polygon fill="black" stroke="black" points="683.079,-127.5 673.079,-131 683.078,-134.5 683.079,-127.5"/>
</g>
</g>
</svg>
