<?xml version="1.0" encoding="UTF-8" standalone="no"?>
<!DOCTYPE svg PUBLIC "-//W3C//DTD SVG 1.1//EN"
 "http://www.w3.org/Graphics/SVG/1.1/DTD/svg11.dtd">
<!-- Generated by graphviz version 2.38.0 (20140413.2041)
 -->
<!-- Title: cluster_final_drive_model Pages: 1 -->
<svg width="2372pt" height="736pt"
 viewBox="0.00 0.00 2371.50 736.00" xmlns="http://www.w3.org/2000/svg" xmlns:xlink="http://www.w3.org/1999/xlink">
<g id="graph0" class="graph" transform="scale(1 1) rotate(0) translate(4 732)">
<title>cluster_final_drive_model</title>
<polygon fill="white" stroke="none" points="-4,4 -4,-732 2367.5,-732 2367.5,4 -4,4"/>
<text text-anchor="start" x="1131.25" y="-7.8" font-family="Times New Roman,serif" font-size="14.00">final_drive_model</text>
<!-- cluster_cluster_&#45;47212451687246430764959085655276911784&#45;2322386892502804774 -->
<g id="node1" class="node"><title>cluster_cluster_&#45;47212451687246430764959085655276911784&#45;2322386892502804774</title>
<g id="a_node1"><a xlink:href="./final_drive_model/co2mpas.model.physical.final_drivecalculate_final_drive_efficiencies.txt" xlink:title="Calculates final drive efficiency [&#45;].">
<polygon fill="springgreen" stroke="black" points="1685,-299 1481,-299 1481,-263 1685,-263 1685,-299"/>
<text text-anchor="start" x="1491" y="-276.8" font-family="Times New Roman,serif" font-size="14.00">calculate_final_drive_efficiencies</text>
</a>
</g>
</g>
<!-- cluster_cluster_&#45;47212451687246430764959085655276911784&#45;3654708179531113118 -->
<g id="node7" class="node"><title>cluster_cluster_&#45;47212451687246430764959085655276911784&#45;3654708179531113118</title>
<g id="a_node7"><a xlink:title="Final drive torque efficiency vector [&#45;].">
<path fill="cyan" stroke="black" d="M1646,-221C1646,-221 1520,-221 1520,-221 1514,-221 1508,-215 1508,-209 1508,-209 1508,-197 1508,-197 1508,-191 1514,-185 1520,-185 1520,-185 1646,-185 1646,-185 1652,-185 1658,-191 1658,-197 1658,-197 1658,-209 1658,-209 1658,-215 1652,-221 1646,-221"/>
<text text-anchor="start" x="1518.5" y="-198.8" font-family="Times New Roman,serif" font-size="14.00">final_drive_efficiencies</text>
</a>
</g>
</g>
<!-- cluster_cluster_&#45;47212451687246430764959085655276911784&#45;2322386892502804774&#45;&gt;cluster_cluster_&#45;47212451687246430764959085655276911784&#45;3654708179531113118 -->
<g id="edge1" class="edge"><title>cluster_cluster_&#45;47212451687246430764959085655276911784&#45;2322386892502804774&#45;&gt;cluster_cluster_&#45;47212451687246430764959085655276911784&#45;3654708179531113118</title>
<path fill="none" stroke="black" d="M1583,-262.909C1583,-262.909 1583,-231.263 1583,-231.263"/>
<polygon fill="black" stroke="black" points="1586.5,-231.263 1583,-221.263 1579.5,-231.263 1586.5,-231.263"/>
</g>
<!-- cluster_cluster_&#45;472124516872464307649590856552769117846855430371274299394 -->
<g id="node2" class="node"><title>cluster_cluster_&#45;472124516872464307649590856552769117846855430371274299394</title>
<g id="a_node2"><a xlink:href="./final_drive_model/co2mpas.model.physical.final_drivecalculate_final_drive_powers_in.txt" xlink:title="Calculates final drive power [kW].">
<polygon fill="springgreen" stroke="black" points="1560,-143 1358,-143 1358,-107 1560,-107 1560,-143"/>
<text text-anchor="start" x="1368.5" y="-120.8" font-family="Times New Roman,serif" font-size="14.00">calculate_final_drive_powers_in</text>
</a>
</g>
</g>
<!-- cluster_cluster_&#45;47212451687246430764959085655276911784&#45;4241360223242951973 -->
<g id="node9" class="node"><title>cluster_cluster_&#45;47212451687246430764959085655276911784&#45;4241360223242951973</title>
<g id="a_node9"><a xlink:title="Final drive power in [kW].">
<path fill="cyan" stroke="black" d="M1619.5,-71C1619.5,-71 1298.5,-71 1298.5,-71 1292.5,-71 1286.5,-65 1286.5,-59 1286.5,-59 1286.5,-35 1286.5,-35 1286.5,-29 1292.5,-23 1298.5,-23 1298.5,-23 1619.5,-23 1619.5,-23 1625.5,-23 1631.5,-29 1631.5,-35 1631.5,-35 1631.5,-59 1631.5,-59 1631.5,-65 1625.5,-71 1619.5,-71"/>
<text text-anchor="start" x="1397" y="-53.8" font-family="Times New Roman,serif" font-size="14.00">final_drive_powers_in</text>
<polygon fill="none" stroke="black" points="1295,-27 1295,-48 1389,-48 1389,-27 1295,-27"/>
<text text-anchor="start" x="1298" y="-33.8" font-family="Times New Roman,serif" font-size="14.00">remote child 0=</text>
<polygon fill="none" stroke="black" points="1389,-27 1389,-48 1624,-48 1624,-27 1389,-27"/>
<text text-anchor="start" x="1392" y="-33.8" font-family="Times New Roman,serif" font-size="14.00">final_drive_model:final_drive_powers_in</text>
</a>
</g>
</g>
<!-- cluster_cluster_&#45;472124516872464307649590856552769117846855430371274299394&#45;&gt;cluster_cluster_&#45;47212451687246430764959085655276911784&#45;4241360223242951973 -->
<g id="edge2" class="edge"><title>cluster_cluster_&#45;472124516872464307649590856552769117846855430371274299394&#45;&gt;cluster_cluster_&#45;47212451687246430764959085655276911784&#45;4241360223242951973</title>
<path fill="none" stroke="black" d="M1459,-106.909C1459,-106.909 1459,-81.1988 1459,-81.1988"/>
<polygon fill="black" stroke="black" points="1462.5,-81.1988 1459,-71.1988 1455.5,-81.1988 1462.5,-81.1988"/>
</g>
<!-- cluster_cluster_&#45;47212451687246430764959085655276911784&#45;220121843878076413 -->
<g id="node3" class="node"><title>cluster_cluster_&#45;47212451687246430764959085655276911784&#45;220121843878076413</title>
<g id="a_node3"><a xlink:href="./final_drive_model/co2mpas.model.physical.final_drivecalculate_final_drive_speeds_in.txt" xlink:title="Calculates final drive speed [RPM].">
<polygon fill="springgreen" stroke="black" points="393,-627.5 195,-627.5 195,-591.5 393,-591.5 393,-627.5"/>
<text text-anchor="start" x="205" y="-605.3" font-family="Times New Roman,serif" font-size="14.00">calculate_final_drive_speeds_in</text>
</a>
</g>
</g>
<!-- cluster_cluster_&#45;47212451687246430764959085655276911784&#45;2838794309066066379 -->
<g id="node12" class="node"><title>cluster_cluster_&#45;47212451687246430764959085655276911784&#45;2838794309066066379</title>
<g id="a_node12"><a xlink:title="Final drive speed in [RPM].">
<path fill="cyan" stroke="black" d="M453,-539C453,-539 135,-539 135,-539 129,-539 123,-533 123,-527 123,-527 123,-503 123,-503 123,-497 129,-491 135,-491 135,-491 453,-491 453,-491 459,-491 465,-497 465,-503 465,-503 465,-527 465,-527 465,-533 459,-539 453,-539"/>
<text text-anchor="start" x="232.5" y="-521.8" font-family="Times New Roman,serif" font-size="14.00">final_drive_speeds_in</text>
<polygon fill="none" stroke="black" points="131,-495 131,-516 225,-516 225,-495 131,-495"/>
<text text-anchor="start" x="134" y="-501.8" font-family="Times New Roman,serif" font-size="14.00">remote child 0=</text>
<polygon fill="none" stroke="black" points="225,-495 225,-516 457,-516 457,-495 225,-495"/>
<text text-anchor="start" x="228" y="-501.8" font-family="Times New Roman,serif" font-size="14.00">final_drive_model:final_drive_speeds_in</text>
</a>
</g>
</g>
<!-- cluster_cluster_&#45;47212451687246430764959085655276911784&#45;220121843878076413&#45;&gt;cluster_cluster_&#45;47212451687246430764959085655276911784&#45;2838794309066066379 -->
<g id="edge3" class="edge"><title>cluster_cluster_&#45;47212451687246430764959085655276911784&#45;220121843878076413&#45;&gt;cluster_cluster_&#45;47212451687246430764959085655276911784&#45;2838794309066066379</title>
<path fill="none" stroke="black" d="M294,-591.279C294,-591.279 294,-549.244 294,-549.244"/>
<polygon fill="black" stroke="black" points="297.5,-549.244 294,-539.244 290.5,-549.244 297.5,-549.244"/>
</g>
<!-- cluster_cluster_&#45;472124516872464307649590856552769117846565248576957600454 -->
<g id="node4" class="node"><title>cluster_cluster_&#45;472124516872464307649590856552769117846565248576957600454</title>
<g id="a_node4"><a xlink:href="./final_drive_model/co2mpas.model.physical.final_drivecalculate_final_drive_torque_losses.txt" xlink:title="Calculates final drive torque losses [N*m].">
<polygon fill="springgreen" stroke="black" points="1966,-627.5 1746,-627.5 1746,-591.5 1966,-591.5 1966,-627.5"/>
<text text-anchor="start" x="1756" y="-605.3" font-family="Times New Roman,serif" font-size="14.00">calculate_final_drive_torque_losses</text>
</a>
</g>
</g>
<!-- cluster_cluster_&#45;472124516872464307649590856552769117843297568982062071339 -->
<g id="node15" class="node"><title>cluster_cluster_&#45;472124516872464307649590856552769117843297568982062071339</title>
<g id="a_node15"><a xlink:title="Final drive torque losses [N*m].">
<path fill="cyan" stroke="black" d="M1654,-533C1654,-533 1512,-533 1512,-533 1506,-533 1500,-527 1500,-521 1500,-521 1500,-509 1500,-509 1500,-503 1506,-497 1512,-497 1512,-497 1654,-497 1654,-497 1660,-497 1666,-503 1666,-509 1666,-509 1666,-521 1666,-521 1666,-527 1660,-533 1654,-533"/>
<text text-anchor="start" x="1510.5" y="-510.8" font-family="Times New Roman,serif" font-size="14.00">final_drive_torque_losses</text>
</a>
</g>
</g>
<!-- cluster_cluster_&#45;472124516872464307649590856552769117846565248576957600454&#45;&gt;cluster_cluster_&#45;472124516872464307649590856552769117843297568982062071339 -->
<g id="edge4" class="edge"><title>cluster_cluster_&#45;472124516872464307649590856552769117846565248576957600454&#45;&gt;cluster_cluster_&#45;472124516872464307649590856552769117843297568982062071339</title>
<path fill="none" stroke="black" d="M1750.75,-591.279C1750.75,-563.819 1750.75,-515 1750.75,-515 1750.75,-515 1676.38,-515 1676.38,-515"/>
<polygon fill="black" stroke="black" points="1676.38,-511.5 1666.38,-515 1676.38,-518.5 1676.38,-511.5"/>
</g>
<!-- cluster_cluster_&#45;47212451687246430764959085655276911784&#45;9189291634387591527 -->
<g id="node5" class="node"><title>cluster_cluster_&#45;47212451687246430764959085655276911784&#45;9189291634387591527</title>
<g id="a_node5"><a xlink:href="./final_drive_model/co2mpas.model.physical.final_drivecalculate_final_drive_torque_losses_v1.txt" xlink:title="Calculates final drive torque losses [N*m].">
<polygon fill="springgreen" stroke="black" points="1474.5,-644 1147.5,-644 1147.5,-575 1474.5,-575 1474.5,-644"/>
<text text-anchor="start" x="1201" y="-626.3" font-family="Times New Roman,serif" font-size="14.00">calculate_final_drive_torque_losses_v1</text>
<polygon fill="none" stroke="black" points="1156,-599.5 1156,-620.5 1247,-620.5 1247,-599.5 1156,-599.5"/>
<text text-anchor="start" x="1159" y="-606.3" font-family="Times New Roman,serif" font-size="14.00">input_domain=</text>
<polygon fill="none" stroke="black" points="1247,-599.5 1247,-620.5 1467,-620.5 1467,-599.5 1247,-599.5"/>
<text text-anchor="start" x="1250" y="-606.3" font-family="Times New Roman,serif" font-size="14.00">domain_final_drive_torque_losses_v1</text>
<polygon fill="none" stroke="black" points="1156,-578.5 1156,-599.5 1247,-599.5 1247,-578.5 1156,-578.5"/>
<text text-anchor="start" x="1199" y="-585.3" font-family="Times New Roman,serif" font-size="14.00">weight=</text>
<polygon fill="none" stroke="black" points="1247,-578.5 1247,-599.5 1467,-599.5 1467,-578.5 1247,-578.5"/>
<text text-anchor="start" x="1250" y="-585.3" font-family="Times New Roman,serif" font-size="14.00">5</text>
</a>
</g>
</g>
<!-- cluster_cluster_&#45;47212451687246430764959085655276911784&#45;9189291634387591527&#45;&gt;cluster_cluster_&#45;472124516872464307649590856552769117843297568982062071339 -->
<g id="edge5" class="edge"><title>cluster_cluster_&#45;47212451687246430764959085655276911784&#45;9189291634387591527&#45;&gt;cluster_cluster_&#45;472124516872464307649590856552769117843297568982062071339</title>
<path fill="none" stroke="black" d="M1442.5,-574.848C1442.5,-547.878 1442.5,-515 1442.5,-515 1442.5,-515 1489.65,-515 1489.65,-515"/>
<polygon fill="black" stroke="black" points="1489.65,-518.5 1499.65,-515 1489.65,-511.5 1489.65,-518.5"/>
</g>
<!-- cluster_cluster_&#45;472124516872464307649590856552769117845831798044840522245 -->
<g id="node6" class="node"><title>cluster_cluster_&#45;472124516872464307649590856552769117845831798044840522245</title>
<g id="a_node6"><a xlink:href="./final_drive_model/co2mpas.model.physical.final_drivecalculate_final_drive_torques_in.txt" xlink:title="Calculates final drive torque [N*m].">
<polygon fill="springgreen" stroke="black" points="1684,-455 1482,-455 1482,-419 1684,-419 1684,-455"/>
<text text-anchor="start" x="1492.5" y="-432.8" font-family="Times New Roman,serif" font-size="14.00">calculate_final_drive_torques_in</text>
</a>
</g>
</g>
<!-- cluster_cluster_&#45;47212451687246430764959085655276911784&#45;4916668595902630719 -->
<g id="node16" class="node"><title>cluster_cluster_&#45;47212451687246430764959085655276911784&#45;4916668595902630719</title>
<g id="a_node16"><a xlink:title="Final drive torque in [N*m].">
<path fill="cyan" stroke="black" d="M1743.5,-383C1743.5,-383 1422.5,-383 1422.5,-383 1416.5,-383 1410.5,-377 1410.5,-371 1410.5,-371 1410.5,-347 1410.5,-347 1410.5,-341 1416.5,-335 1422.5,-335 1422.5,-335 1743.5,-335 1743.5,-335 1749.5,-335 1755.5,-341 1755.5,-347 1755.5,-347 1755.5,-371 1755.5,-371 1755.5,-377 1749.5,-383 1743.5,-383"/>
<text text-anchor="start" x="1520.5" y="-365.8" font-family="Times New Roman,serif" font-size="14.00">final_drive_torques_in</text>
<polygon fill="none" stroke="black" points="1419,-339 1419,-360 1513,-360 1513,-339 1419,-339"/>
<text text-anchor="start" x="1422" y="-345.8" font-family="Times New Roman,serif" font-size="14.00">remote child 0=</text>
<polygon fill="none" stroke="black" points="1513,-339 1513,-360 1748,-360 1748,-339 1513,-339"/>
<text text-anchor="start" x="1516" y="-345.8" font-family="Times New Roman,serif" font-size="14.00">final_drive_model:final_drive_torques_in</text>
</a>
</g>
</g>
<!-- cluster_cluster_&#45;472124516872464307649590856552769117845831798044840522245&#45;&gt;cluster_cluster_&#45;47212451687246430764959085655276911784&#45;4916668595902630719 -->
<g id="edge6" class="edge"><title>cluster_cluster_&#45;472124516872464307649590856552769117845831798044840522245&#45;&gt;cluster_cluster_&#45;47212451687246430764959085655276911784&#45;4916668595902630719</title>
<path fill="none" stroke="black" d="M1583,-418.909C1583,-418.909 1583,-393.199 1583,-393.199"/>
<polygon fill="black" stroke="black" points="1586.5,-393.199 1583,-383.199 1579.5,-393.199 1586.5,-393.199"/>
</g>
<!-- cluster_cluster_&#45;47212451687246430764959085655276911784&#45;3654708179531113118&#45;&gt;cluster_cluster_&#45;472124516872464307649590856552769117846855430371274299394 -->
<g id="edge7" class="edge"><title>cluster_cluster_&#45;47212451687246430764959085655276911784&#45;3654708179531113118&#45;&gt;cluster_cluster_&#45;472124516872464307649590856552769117846855430371274299394</title>
<path fill="none" stroke="black" d="M1534,-184.909C1534,-184.909 1534,-153.263 1534,-153.263"/>
<polygon fill="black" stroke="black" points="1537.5,-153.263 1534,-143.263 1530.5,-153.263 1537.5,-153.263"/>
</g>
<!-- cluster_cluster_&#45;472124516872464307649590856552769117846644585784500641750 -->
<g id="node8" class="node"><title>cluster_cluster_&#45;472124516872464307649590856552769117846644585784500641750</title>
<g id="a_node8"><a xlink:title="Final drive efficiency [&#45;].">
<path fill="cyan" stroke="black" d="M1646,-728C1646,-728 1322,-728 1322,-728 1316,-728 1310,-722 1310,-716 1310,-716 1310,-692 1310,-692 1310,-686 1316,-680 1322,-680 1322,-680 1646,-680 1646,-680 1652,-680 1658,-686 1658,-692 1658,-692 1658,-716 1658,-716 1658,-722 1652,-728 1646,-728"/>
<text text-anchor="start" x="1423.5" y="-710.8" font-family="Times New Roman,serif" font-size="14.00">final_drive_efficiency</text>
<polygon fill="none" stroke="black" points="1318,-684 1318,-705 1420,-705 1420,-684 1318,-684"/>
<text text-anchor="start" x="1321" y="-690.8" font-family="Times New Roman,serif" font-size="14.00">remote parent 0=</text>
<polygon fill="none" stroke="black" points="1420,-684 1420,-705 1650,-705 1650,-684 1420,-684"/>
<text text-anchor="start" x="1423" y="-690.8" font-family="Times New Roman,serif" font-size="14.00">final_drive_model:final_drive_efficiency</text>
</a>
</g>
</g>
<!-- cluster_cluster_&#45;472124516872464307649590856552769117846644585784500641750&#45;&gt;cluster_cluster_&#45;47212451687246430764959085655276911784&#45;9189291634387591527 -->
<g id="edge8" class="edge"><title>cluster_cluster_&#45;472124516872464307649590856552769117846644585784500641750&#45;&gt;cluster_cluster_&#45;47212451687246430764959085655276911784&#45;9189291634387591527</title>
<path fill="none" stroke="black" d="M1392.25,-679.664C1392.25,-679.664 1392.25,-654.083 1392.25,-654.083"/>
<polygon fill="black" stroke="black" points="1395.75,-654.083 1392.25,-644.083 1388.75,-654.083 1395.75,-654.083"/>
</g>
<!-- cluster_cluster_&#45;47212451687246430764959085655276911784&#45;8639641281916423672 -->
<g id="node10" class="node"><title>cluster_cluster_&#45;47212451687246430764959085655276911784&#45;8639641281916423672</title>
<g id="a_node10"><a xlink:title="Power at the wheels [kW].">
<path fill="cyan" stroke="black" d="M1478,-227C1478,-227 1194,-227 1194,-227 1188,-227 1182,-221 1182,-215 1182,-215 1182,-191 1182,-191 1182,-185 1188,-179 1194,-179 1194,-179 1478,-179 1478,-179 1484,-179 1490,-185 1490,-191 1490,-191 1490,-215 1490,-215 1490,-221 1484,-227 1478,-227"/>
<text text-anchor="start" x="1269.5" y="-209.8" font-family="Times New Roman,serif" font-size="14.00">final_drive_powers_out</text>
<polygon fill="none" stroke="black" points="1190,-183 1190,-204 1292,-204 1292,-183 1190,-183"/>
<text text-anchor="start" x="1193" y="-189.8" font-family="Times New Roman,serif" font-size="14.00">remote parent 0=</text>
<polygon fill="none" stroke="black" points="1292,-183 1292,-204 1482,-204 1482,-183 1292,-183"/>
<text text-anchor="start" x="1295" y="-189.8" font-family="Times New Roman,serif" font-size="14.00">final_drive_model:wheel_powers</text>
</a>
</g>
</g>
<!-- cluster_cluster_&#45;47212451687246430764959085655276911784&#45;8639641281916423672&#45;&gt;cluster_cluster_&#45;472124516872464307649590856552769117846855430371274299394 -->
<g id="edge9" class="edge"><title>cluster_cluster_&#45;47212451687246430764959085655276911784&#45;8639641281916423672&#45;&gt;cluster_cluster_&#45;472124516872464307649590856552769117846855430371274299394</title>
<path fill="none" stroke="black" d="M1424,-178.748C1424,-178.748 1424,-153.288 1424,-153.288"/>
<polygon fill="black" stroke="black" points="1427.5,-153.287 1424,-143.288 1420.5,-153.288 1427.5,-153.287"/>
</g>
<!-- cluster_cluster_&#45;47212451687246430764959085655276911784&#45;3989215812469180633 -->
<g id="node11" class="node"><title>cluster_cluster_&#45;47212451687246430764959085655276911784&#45;3989215812469180633</title>
<g id="a_node11"><a xlink:title="Final drive ratio [&#45;].">
<path fill="cyan" stroke="black" d="M631.5,-728C631.5,-728 336.5,-728 336.5,-728 330.5,-728 324.5,-722 324.5,-716 324.5,-716 324.5,-692 324.5,-692 324.5,-686 330.5,-680 336.5,-680 336.5,-680 631.5,-680 631.5,-680 637.5,-680 643.5,-686 643.5,-692 643.5,-692 643.5,-716 643.5,-716 643.5,-722 637.5,-728 631.5,-728"/>
<text text-anchor="start" x="439" y="-710.8" font-family="Times New Roman,serif" font-size="14.00">final_drive_ratio</text>
<polygon fill="none" stroke="black" points="333,-684 333,-705 435,-705 435,-684 333,-684"/>
<text text-anchor="start" x="336" y="-690.8" font-family="Times New Roman,serif" font-size="14.00">remote parent 0=</text>
<polygon fill="none" stroke="black" points="435,-684 435,-705 636,-705 636,-684 435,-684"/>
<text text-anchor="start" x="438" y="-690.8" font-family="Times New Roman,serif" font-size="14.00">final_drive_model:final_drive_ratio</text>
</a>
</g>
</g>
<!-- cluster_cluster_&#45;47212451687246430764959085655276911784&#45;3989215812469180633&#45;&gt;cluster_cluster_&#45;47212451687246430764959085655276911784&#45;2322386892502804774 -->
<g id="edge10" class="edge"><title>cluster_cluster_&#45;47212451687246430764959085655276911784&#45;3989215812469180633&#45;&gt;cluster_cluster_&#45;47212451687246430764959085655276911784&#45;2322386892502804774</title>
<path fill="none" stroke="black" d="M509.625,-679.738C509.625,-589.856 509.625,-281 509.625,-281 509.625,-281 1470.57,-281 1470.57,-281"/>
<polygon fill="black" stroke="black" points="1470.57,-284.5 1480.57,-281 1470.57,-277.5 1470.57,-284.5"/>
</g>
<!-- cluster_cluster_&#45;47212451687246430764959085655276911784&#45;3989215812469180633&#45;&gt;cluster_cluster_&#45;47212451687246430764959085655276911784&#45;220121843878076413 -->
<g id="edge11" class="edge"><title>cluster_cluster_&#45;47212451687246430764959085655276911784&#45;3989215812469180633&#45;&gt;cluster_cluster_&#45;47212451687246430764959085655276911784&#45;220121843878076413</title>
<path fill="none" stroke="black" d="M358.75,-679.664C358.75,-679.664 358.75,-637.784 358.75,-637.784"/>
<polygon fill="black" stroke="black" points="362.25,-637.784 358.75,-627.784 355.25,-637.784 362.25,-637.784"/>
</g>
<!-- cluster_cluster_&#45;47212451687246430764959085655276911784&#45;3989215812469180633&#45;&gt;cluster_cluster_&#45;47212451687246430764959085655276911784&#45;9189291634387591527 -->
<g id="edge12" class="edge"><title>cluster_cluster_&#45;47212451687246430764959085655276911784&#45;3989215812469180633&#45;&gt;cluster_cluster_&#45;47212451687246430764959085655276911784&#45;9189291634387591527</title>
<path fill="none" stroke="black" d="M598.875,-679.963C598.875,-659.365 598.875,-633 598.875,-633 598.875,-633 1137.18,-633 1137.18,-633"/>
<polygon fill="black" stroke="black" points="1137.18,-636.5 1147.18,-633 1137.18,-629.5 1137.18,-636.5"/>
</g>
<!-- cluster_cluster_&#45;47212451687246430764959085655276911784&#45;3989215812469180633&#45;&gt;cluster_cluster_&#45;472124516872464307649590856552769117845831798044840522245 -->
<g id="edge13" class="edge"><title>cluster_cluster_&#45;47212451687246430764959085655276911784&#45;3989215812469180633&#45;&gt;cluster_cluster_&#45;472124516872464307649590856552769117845831798044840522245</title>
<path fill="none" stroke="black" d="M554.25,-679.835C554.25,-614.11 554.25,-437 554.25,-437 554.25,-437 1471.54,-437 1471.54,-437"/>
<polygon fill="black" stroke="black" points="1471.54,-440.5 1481.54,-437 1471.54,-433.5 1471.54,-440.5"/>
</g>
<!-- cluster_cluster_&#45;472124516872464307649590856552769117848799730252555084792 -->
<g id="node13" class="node"><title>cluster_cluster_&#45;472124516872464307649590856552769117848799730252555084792</title>
<g id="a_node13"><a xlink:title="Rotating speed of the wheel [RPM].">
<path fill="cyan" stroke="black" d="M294,-728C294,-728 12,-728 12,-728 6,-728 0,-722 0,-716 0,-716 0,-692 0,-692 0,-686 6,-680 12,-680 12,-680 294,-680 294,-680 300,-680 306,-686 306,-692 306,-692 306,-716 306,-716 306,-722 300,-728 294,-728"/>
<text text-anchor="start" x="87.5" y="-710.8" font-family="Times New Roman,serif" font-size="14.00">final_drive_speeds_out</text>
<polygon fill="none" stroke="black" points="8,-684 8,-705 110,-705 110,-684 8,-684"/>
<text text-anchor="start" x="11" y="-690.8" font-family="Times New Roman,serif" font-size="14.00">remote parent 0=</text>
<polygon fill="none" stroke="black" points="110,-684 110,-705 298,-705 298,-684 110,-684"/>
<text text-anchor="start" x="113" y="-690.8" font-family="Times New Roman,serif" font-size="14.00">final_drive_model:wheel_speeds</text>
</a>
</g>
</g>
<!-- cluster_cluster_&#45;472124516872464307649590856552769117848799730252555084792&#45;&gt;cluster_cluster_&#45;47212451687246430764959085655276911784&#45;220121843878076413 -->
<g id="edge14" class="edge"><title>cluster_cluster_&#45;472124516872464307649590856552769117848799730252555084792&#45;&gt;cluster_cluster_&#45;47212451687246430764959085655276911784&#45;220121843878076413</title>
<path fill="none" stroke="black" d="M250.5,-679.664C250.5,-679.664 250.5,-637.784 250.5,-637.784"/>
<polygon fill="black" stroke="black" points="254,-637.784 250.5,-627.784 247,-637.784 254,-637.784"/>
</g>
<!-- cluster_cluster_&#45;472124516872464307649590856552769117846880743000769151861 -->
<g id="node14" class="node"><title>cluster_cluster_&#45;472124516872464307649590856552769117846880743000769151861</title>
<g id="a_node14"><a xlink:title="Constant Final drive torque loss [N*m].">
<path fill="cyan" stroke="black" d="M2024,-728C2024,-728 1688,-728 1688,-728 1682,-728 1676,-722 1676,-716 1676,-716 1676,-692 1676,-692 1676,-686 1682,-680 1688,-680 1688,-680 2024,-680 2024,-680 2030,-680 2036,-686 2036,-692 2036,-692 2036,-716 2036,-716 2036,-722 2030,-728 2024,-728"/>
<text text-anchor="start" x="1789.5" y="-710.8" font-family="Times New Roman,serif" font-size="14.00">final_drive_torque_loss</text>
<polygon fill="none" stroke="black" points="1684,-684 1684,-705 1786,-705 1786,-684 1684,-684"/>
<text text-anchor="start" x="1687" y="-690.8" font-family="Times New Roman,serif" font-size="14.00">remote parent 0=</text>
<polygon fill="none" stroke="black" points="1786,-684 1786,-705 2028,-705 2028,-684 1786,-684"/>
<text text-anchor="start" x="1789" y="-690.8" font-family="Times New Roman,serif" font-size="14.00">final_drive_model:final_drive_torque_loss</text>
</a>
</g>
</g>
<!-- cluster_cluster_&#45;472124516872464307649590856552769117846880743000769151861&#45;&gt;cluster_cluster_&#45;472124516872464307649590856552769117846565248576957600454 -->
<g id="edge15" class="edge"><title>cluster_cluster_&#45;472124516872464307649590856552769117846880743000769151861&#45;&gt;cluster_cluster_&#45;472124516872464307649590856552769117846565248576957600454</title>
<path fill="none" stroke="black" d="M1856,-679.664C1856,-679.664 1856,-637.784 1856,-637.784"/>
<polygon fill="black" stroke="black" points="1859.5,-637.784 1856,-627.784 1852.5,-637.784 1859.5,-637.784"/>
</g>
<!-- cluster_cluster_&#45;472124516872464307649590856552769117843297568982062071339&#45;&gt;cluster_cluster_&#45;472124516872464307649590856552769117845831798044840522245 -->
<g id="edge16" class="edge"><title>cluster_cluster_&#45;472124516872464307649590856552769117843297568982062071339&#45;&gt;cluster_cluster_&#45;472124516872464307649590856552769117845831798044840522245</title>
<path fill="none" stroke="black" d="M1583,-496.909C1583,-496.909 1583,-465.263 1583,-465.263"/>
<polygon fill="black" stroke="black" points="1586.5,-465.263 1583,-455.263 1579.5,-465.263 1586.5,-465.263"/>
</g>
<!-- cluster_cluster_&#45;47212451687246430764959085655276911784&#45;4916668595902630719&#45;&gt;cluster_cluster_&#45;47212451687246430764959085655276911784&#45;2322386892502804774 -->
<g id="edge17" class="edge"><title>cluster_cluster_&#45;47212451687246430764959085655276911784&#45;4916668595902630719&#45;&gt;cluster_cluster_&#45;47212451687246430764959085655276911784&#45;2322386892502804774</title>
<path fill="none" stroke="black" d="M1583,-334.748C1583,-334.748 1583,-309.288 1583,-309.288"/>
<polygon fill="black" stroke="black" points="1586.5,-309.287 1583,-299.288 1579.5,-309.288 1586.5,-309.287"/>
</g>
<!-- cluster_cluster_&#45;47212451687246430764959085655276911784&#45;3819035829390763745 -->
<g id="node17" class="node"><title>cluster_cluster_&#45;47212451687246430764959085655276911784&#45;3819035829390763745</title>
<g id="a_node17"><a xlink:title="Torque at the wheels [N*m].">
<path fill="cyan" stroke="black" d="M2351.5,-728C2351.5,-728 2066.5,-728 2066.5,-728 2060.5,-728 2054.5,-722 2054.5,-716 2054.5,-716 2054.5,-692 2054.5,-692 2054.5,-686 2060.5,-680 2066.5,-680 2066.5,-680 2351.5,-680 2351.5,-680 2357.5,-680 2363.5,-686 2363.5,-692 2363.5,-692 2363.5,-716 2363.5,-716 2363.5,-722 2357.5,-728 2351.5,-728"/>
<text text-anchor="start" x="2142.5" y="-710.8" font-family="Times New Roman,serif" font-size="14.00">final_drive_torques_out</text>
<polygon fill="none" stroke="black" points="2063,-684 2063,-705 2165,-705 2165,-684 2063,-684"/>
<text text-anchor="start" x="2066" y="-690.8" font-family="Times New Roman,serif" font-size="14.00">remote parent 0=</text>
<polygon fill="none" stroke="black" points="2165,-684 2165,-705 2356,-705 2356,-684 2165,-684"/>
<text text-anchor="start" x="2168" y="-690.8" font-family="Times New Roman,serif" font-size="14.00">final_drive_model:wheel_torques</text>
</a>
</g>
</g>
<!-- cluster_cluster_&#45;47212451687246430764959085655276911784&#45;3819035829390763745&#45;&gt;cluster_cluster_&#45;47212451687246430764959085655276911784&#45;2322386892502804774 -->
<g id="edge18" class="edge"><title>cluster_cluster_&#45;47212451687246430764959085655276911784&#45;3819035829390763745&#45;&gt;cluster_cluster_&#45;47212451687246430764959085655276911784&#45;2322386892502804774</title>
<path fill="none" stroke="black" d="M2301.7,-679.738C2301.7,-589.856 2301.7,-281 2301.7,-281 2301.7,-281 1695.21,-281 1695.21,-281"/>
<polygon fill="black" stroke="black" points="1695.21,-277.5 1685.21,-281 1695.21,-284.5 1695.21,-277.5"/>
</g>
<!-- cluster_cluster_&#45;47212451687246430764959085655276911784&#45;3819035829390763745&#45;&gt;cluster_cluster_&#45;472124516872464307649590856552769117846565248576957600454 -->
<g id="edge19" class="edge"><title>cluster_cluster_&#45;47212451687246430764959085655276911784&#45;3819035829390763745&#45;&gt;cluster_cluster_&#45;472124516872464307649590856552769117846565248576957600454</title>
<path fill="none" stroke="black" d="M2178.1,-679.535C2178.1,-651.387 2178.1,-609 2178.1,-609 2178.1,-609 1976.4,-609 1976.4,-609"/>
<polygon fill="black" stroke="black" points="1976.4,-605.5 1966.4,-609 1976.4,-612.5 1976.4,-605.5"/>
</g>
<!-- cluster_cluster_&#45;47212451687246430764959085655276911784&#45;3819035829390763745&#45;&gt;cluster_cluster_&#45;47212451687246430764959085655276911784&#45;9189291634387591527 -->
<g id="edge20" class="edge"><title>cluster_cluster_&#45;47212451687246430764959085655276911784&#45;3819035829390763745&#45;&gt;cluster_cluster_&#45;47212451687246430764959085655276911784&#45;9189291634387591527</title>
<path fill="none" stroke="black" d="M2116.3,-679.867C2116.3,-659.97 2116.3,-635 2116.3,-635 2116.3,-635 1484.94,-635 1484.94,-635"/>
<polygon fill="black" stroke="black" points="1484.94,-631.5 1474.94,-635 1484.94,-638.5 1484.94,-631.5"/>
</g>
<!-- cluster_cluster_&#45;47212451687246430764959085655276911784&#45;3819035829390763745&#45;&gt;cluster_cluster_&#45;472124516872464307649590856552769117845831798044840522245 -->
<g id="edge21" class="edge"><title>cluster_cluster_&#45;47212451687246430764959085655276911784&#45;3819035829390763745&#45;&gt;cluster_cluster_&#45;472124516872464307649590856552769117845831798044840522245</title>
<path fill="none" stroke="black" d="M2239.9,-679.835C2239.9,-614.11 2239.9,-437 2239.9,-437 2239.9,-437 1694.2,-437 1694.2,-437"/>
<polygon fill="black" stroke="black" points="1694.2,-433.5 1684.2,-437 1694.2,-440.5 1694.2,-433.5"/>
</g>
<!-- cluster_cluster_&#45;47212451687246430764959085655276911784&#45;7605000346119709091 -->
<g id="node18" class="node"><title>cluster_cluster_&#45;47212451687246430764959085655276911784&#45;7605000346119709091</title>
<g id="a_node18"><a xlink:title="Number of dyno axes [&#45;].">
<path fill="cyan" stroke="black" d="M952.5,-728C952.5,-728 673.5,-728 673.5,-728 667.5,-728 661.5,-722 661.5,-716 661.5,-716 661.5,-692 661.5,-692 661.5,-686 667.5,-680 673.5,-680 673.5,-680 952.5,-680 952.5,-680 958.5,-680 964.5,-686 964.5,-692 964.5,-692 964.5,-716 964.5,-716 964.5,-722 958.5,-728 952.5,-728"/>
<text text-anchor="start" x="775.5" y="-710.8" font-family="Times New Roman,serif" font-size="14.00">n_dyno_axes</text>
<polygon fill="none" stroke="black" points="670,-684 670,-705 772,-705 772,-684 670,-684"/>
<text text-anchor="start" x="673" y="-690.8" font-family="Times New Roman,serif" font-size="14.00">remote parent 0=</text>
<polygon fill="none" stroke="black" points="772,-684 772,-705 957,-705 957,-684 772,-684"/>
<text text-anchor="start" x="775" y="-690.8" font-family="Times New Roman,serif" font-size="14.00">final_drive_model:n_dyno_axes</text>
</a>
</g>
</g>
<!-- cluster_cluster_&#45;47212451687246430764959085655276911784&#45;7605000346119709091&#45;&gt;cluster_cluster_&#45;47212451687246430764959085655276911784&#45;9189291634387591527 -->
<g id="edge22" class="edge"><title>cluster_cluster_&#45;47212451687246430764959085655276911784&#45;7605000346119709091&#45;&gt;cluster_cluster_&#45;47212451687246430764959085655276911784&#45;9189291634387591527</title>
<path fill="none" stroke="black" d="M813,-679.799C813,-660.962 813,-638 813,-638 813,-638 1137.25,-638 1137.25,-638"/>
<polygon fill="black" stroke="black" points="1137.25,-641.5 1147.25,-638 1137.25,-634.5 1137.25,-641.5"/>
</g>
<!-- cluster_cluster_&#45;47212451687246430764959085655276911784&#45;569973878971311325 -->
<g id="node19" class="node"><title>cluster_cluster_&#45;47212451687246430764959085655276911784&#45;569973878971311325</title>
<g id="a_node19"><a xlink:title="Number of wheel drive [&#45;].">
<path fill="cyan" stroke="black" d="M1279.5,-728C1279.5,-728 994.5,-728 994.5,-728 988.5,-728 982.5,-722 982.5,-716 982.5,-716 982.5,-692 982.5,-692 982.5,-686 988.5,-680 994.5,-680 994.5,-680 1279.5,-680 1279.5,-680 1285.5,-680 1291.5,-686 1291.5,-692 1291.5,-692 1291.5,-716 1291.5,-716 1291.5,-722 1285.5,-728 1279.5,-728"/>
<text text-anchor="start" x="1096.5" y="-710.8" font-family="Times New Roman,serif" font-size="14.00">n_wheel_drive</text>
<polygon fill="none" stroke="black" points="991,-684 991,-705 1093,-705 1093,-684 991,-684"/>
<text text-anchor="start" x="994" y="-690.8" font-family="Times New Roman,serif" font-size="14.00">remote parent 0=</text>
<polygon fill="none" stroke="black" points="1093,-684 1093,-705 1284,-705 1284,-684 1093,-684"/>
<text text-anchor="start" x="1096" y="-690.8" font-family="Times New Roman,serif" font-size="14.00">final_drive_model:n_wheel_drive</text>
</a>
</g>
</g>
<!-- cluster_cluster_&#45;47212451687246430764959085655276911784&#45;569973878971311325&#45;&gt;cluster_cluster_&#45;47212451687246430764959085655276911784&#45;9189291634387591527 -->
<g id="edge23" class="edge"><title>cluster_cluster_&#45;47212451687246430764959085655276911784&#45;569973878971311325&#45;&gt;cluster_cluster_&#45;47212451687246430764959085655276911784&#45;9189291634387591527</title>
<path fill="none" stroke="black" d="M1219.5,-679.664C1219.5,-679.664 1219.5,-654.083 1219.5,-654.083"/>
<polygon fill="black" stroke="black" points="1223,-654.083 1219.5,-644.083 1216,-654.083 1223,-654.083"/>
</g>
</g>
</svg>
