<?xml version="1.0" encoding="UTF-8" standalone="no"?>
<!DOCTYPE svg PUBLIC "-//W3C//DTD SVG 1.1//EN"
 "http://www.w3.org/Graphics/SVG/1.1/DTD/svg11.dtd">
<!-- Generated by graphviz version 2.38.0 (20140413.2041)
 -->
<!-- Title: cluster_cmv_ch_model Pages: 1 -->
<svg width="2783pt" height="349pt"
 viewBox="0.00 0.00 2783.00 349.00" xmlns="http://www.w3.org/2000/svg" xmlns:xlink="http://www.w3.org/1999/xlink">
<g id="graph0" class="graph" transform="scale(1 1) rotate(0) translate(4 345)">
<title>cluster_cmv_ch_model</title>
<polygon fill="white" stroke="none" points="-4,4 -4,-345 2779,-345 2779,4 -4,4"/>
<text text-anchor="start" x="1343.5" y="-7.8" font-family="Times New Roman,serif" font-size="14.00">cmv_ch_model</text>
<!-- cluster_cluster_cluster_cluster_cluster_cluster_&#45;2202121249019829706&#45;86859714295765440732958695195304796365&#45;7657194543931302675&#45;13701228907390542501551839559934699459&#45;6771229450333552600 -->
<g id="node1" class="node"><title>cluster_cluster_cluster_cluster_cluster_cluster_&#45;2202121249019829706&#45;86859714295765440732958695195304796365&#45;7657194543931302675&#45;13701228907390542501551839559934699459&#45;6771229450333552600</title>
<g id="a_node1"><a xlink:title="A gear shifting matrix (cmv or gspv).">
<path fill="cyan" stroke="black" d="M603.5,-341C603.5,-341 317.5,-341 317.5,-341 311.5,-341 305.5,-335 305.5,-329 305.5,-329 305.5,-284 305.5,-284 305.5,-278 311.5,-272 317.5,-272 317.5,-272 603.5,-272 603.5,-272 609.5,-272 615.5,-278 615.5,-284 615.5,-284 615.5,-329 615.5,-329 615.5,-335 609.5,-341 603.5,-341"/>
<text text-anchor="start" x="412.5" y="-323.3" font-family="Times New Roman,serif" font-size="14.00">CMV_Cold_Hot</text>
<polygon fill="none" stroke="black" points="313.5,-296.5 313.5,-317.5 415.5,-317.5 415.5,-296.5 313.5,-296.5"/>
<text text-anchor="start" x="324.5" y="-303.3" font-family="Times New Roman,serif" font-size="14.00">remote child 1=</text>
<polygon fill="none" stroke="black" points="415.5,-296.5 415.5,-317.5 607.5,-317.5 607.5,-296.5 415.5,-296.5"/>
<text text-anchor="start" x="418.5" y="-303.3" font-family="Times New Roman,serif" font-size="14.00">cmv_ch_model:CMV_Cold_Hot</text>
<polygon fill="none" stroke="black" points="313.5,-275.5 313.5,-296.5 415.5,-296.5 415.5,-275.5 313.5,-275.5"/>
<text text-anchor="start" x="316.5" y="-282.3" font-family="Times New Roman,serif" font-size="14.00">remote parent 0=</text>
<polygon fill="none" stroke="black" points="415.5,-275.5 415.5,-296.5 607.5,-296.5 607.5,-275.5 415.5,-275.5"/>
<text text-anchor="start" x="418.5" y="-282.3" font-family="Times New Roman,serif" font-size="14.00">cmv_ch_model:CMV_Cold_Hot</text>
</a>
</g>
</g>
<!-- cluster_cluster_cluster_cluster_cluster_cluster_&#45;2202121249019829706&#45;86859714295765440732958695195304796365&#45;7657194543931302675&#45;137012289073905425015518395599346994597881524652768393119 -->
<g id="node4" class="node"><title>cluster_cluster_cluster_cluster_cluster_cluster_&#45;2202121249019829706&#45;86859714295765440732958695195304796365&#45;7657194543931302675&#45;137012289073905425015518395599346994597881524652768393119</title>
<g id="a_node4"><a xlink:href="./../../AM-wltp_h_error_vs_wltp_h/Automatic_gear_model/cmv_ch_model/co2mpas.model.physical.gear_box.at_gearprediction_gears_gsm_hot_cold.txt" xlink:title="Predicts gears with a gear shifting matrix (cmv or gspv) for cold and hot &#160;&#160;&#160;&#160;phases [&#45;].">
<polygon fill="springgreen" stroke="black" points="1416.5,-236 1214.5,-236 1214.5,-200 1416.5,-200 1416.5,-236"/>
<text text-anchor="start" x="1224.5" y="-213.8" font-family="Times New Roman,serif" font-size="14.00">prediction_gears_gsm_hot_cold</text>
</a>
</g>
</g>
<!-- cluster_cluster_cluster_cluster_cluster_cluster_&#45;2202121249019829706&#45;86859714295765440732958695195304796365&#45;7657194543931302675&#45;13701228907390542501551839559934699459&#45;6771229450333552600&#45;&gt;cluster_cluster_cluster_cluster_cluster_cluster_&#45;2202121249019829706&#45;86859714295765440732958695195304796365&#45;7657194543931302675&#45;137012289073905425015518395599346994597881524652768393119 -->
<g id="edge1" class="edge"><title>cluster_cluster_cluster_cluster_cluster_cluster_&#45;2202121249019829706&#45;86859714295765440732958695195304796365&#45;7657194543931302675&#45;13701228907390542501551839559934699459&#45;6771229450333552600&#45;&gt;cluster_cluster_cluster_cluster_cluster_cluster_&#45;2202121249019829706&#45;86859714295765440732958695195304796365&#45;7657194543931302675&#45;137012289073905425015518395599346994597881524652768393119</title>
<path fill="none" stroke="black" d="M615.688,-275C837.402,-275 1218.33,-275 1218.33,-275 1218.33,-275 1218.33,-246.035 1218.33,-246.035"/>
<polygon fill="black" stroke="black" points="1221.83,-246.035 1218.33,-236.035 1214.83,-246.035 1221.83,-246.035"/>
</g>
<!-- cluster_cluster_cluster_cluster_cluster_cluster_&#45;2202121249019829706&#45;86859714295765440732958695195304796365&#45;7657194543931302675&#45;13701228907390542501551839559934699459&#45;6281391710310240799 -->
<g id="node2" class="node"><title>cluster_cluster_cluster_cluster_cluster_cluster_&#45;2202121249019829706&#45;86859714295765440732958695195304796365&#45;7657194543931302675&#45;13701228907390542501551839559934699459&#45;6281391710310240799</title>
<g id="a_node2"><a xlink:title="Vehicle acceleration [m/s2].">
<path fill="cyan" stroke="black" d="M275,-330.5C275,-330.5 12,-330.5 12,-330.5 6,-330.5 0,-324.5 0,-318.5 0,-318.5 0,-294.5 0,-294.5 0,-288.5 6,-282.5 12,-282.5 12,-282.5 275,-282.5 275,-282.5 281,-282.5 287,-288.5 287,-294.5 287,-294.5 287,-318.5 287,-318.5 287,-324.5 281,-330.5 275,-330.5"/>
<text text-anchor="start" x="107.5" y="-313.3" font-family="Times New Roman,serif" font-size="14.00">accelerations</text>
<polygon fill="none" stroke="black" points="8.5,-286.5 8.5,-307.5 110.5,-307.5 110.5,-286.5 8.5,-286.5"/>
<text text-anchor="start" x="11.5" y="-293.3" font-family="Times New Roman,serif" font-size="14.00">remote parent 0=</text>
<polygon fill="none" stroke="black" points="110.5,-286.5 110.5,-307.5 279.5,-307.5 279.5,-286.5 110.5,-286.5"/>
<text text-anchor="start" x="113.5" y="-293.3" font-family="Times New Roman,serif" font-size="14.00">cmv_ch_model:accelerations</text>
</a>
</g>
</g>
<!-- cluster_cluster_cluster_cluster_cluster_cluster_&#45;2202121249019829706&#45;86859714295765440732958695195304796365&#45;7657194543931302675&#45;13701228907390542501551839559934699459&#45;7050952919536416659 -->
<g id="node3" class="node"><title>cluster_cluster_cluster_cluster_cluster_cluster_&#45;2202121249019829706&#45;86859714295765440732958695195304796365&#45;7657194543931302675&#45;13701228907390542501551839559934699459&#45;7050952919536416659</title>
<g id="a_node3"><a xlink:href="./../../AM-wltp_h_error_vs_wltp_h/Automatic_gear_model/cmv_ch_model/co2mpas.model.physical.gear_box.at_gearcalibrate_gear_shifting_cmv_hot_cold.txt" xlink:title="Calibrates a corrected matrix velocity for cold and hot phases to predict &#160;&#160;&#160;&#160;gears.">
<polygon fill="springgreen" stroke="black" points="1562.5,-59 1326.5,-59 1326.5,-23 1562.5,-23 1562.5,-59"/>
<text text-anchor="start" x="1337" y="-36.8" font-family="Times New Roman,serif" font-size="14.00">calibrate_gear_shifting_cmv_hot_cold</text>
</a>
</g>
</g>
<!-- cluster_cluster_cluster_cluster_cluster_cluster_&#45;2202121249019829706&#45;86859714295765440732958695195304796365&#45;7657194543931302675&#45;13701228907390542501551839559934699459&#45;6281391710310240799&#45;&gt;cluster_cluster_cluster_cluster_cluster_cluster_&#45;2202121249019829706&#45;86859714295765440732958695195304796365&#45;7657194543931302675&#45;13701228907390542501551839559934699459&#45;7050952919536416659 -->
<g id="edge2" class="edge"><title>cluster_cluster_cluster_cluster_cluster_cluster_&#45;2202121249019829706&#45;86859714295765440732958695195304796365&#45;7657194543931302675&#45;13701228907390542501551839559934699459&#45;6281391710310240799&#45;&gt;cluster_cluster_cluster_cluster_cluster_cluster_&#45;2202121249019829706&#45;86859714295765440732958695195304796365&#45;7657194543931302675&#45;13701228907390542501551839559934699459&#45;7050952919536416659</title>
<path fill="none" stroke="black" d="M95.6667,-282.14C95.6667,-214.96 95.6667,-32 95.6667,-32 95.6667,-32 1316.28,-32 1316.28,-32"/>
<polygon fill="black" stroke="black" points="1316.28,-35.5001 1326.28,-32 1316.28,-28.5001 1316.28,-35.5001"/>
</g>
<!-- cluster_cluster_cluster_cluster_cluster_cluster_&#45;2202121249019829706&#45;86859714295765440732958695195304796365&#45;7657194543931302675&#45;13701228907390542501551839559934699459&#45;6281391710310240799&#45;&gt;cluster_cluster_cluster_cluster_cluster_cluster_&#45;2202121249019829706&#45;86859714295765440732958695195304796365&#45;7657194543931302675&#45;137012289073905425015518395599346994597881524652768393119 -->
<g id="edge3" class="edge"><title>cluster_cluster_cluster_cluster_cluster_cluster_&#45;2202121249019829706&#45;86859714295765440732958695195304796365&#45;7657194543931302675&#45;13701228907390542501551839559934699459&#45;6281391710310240799&#45;&gt;cluster_cluster_cluster_cluster_cluster_cluster_&#45;2202121249019829706&#45;86859714295765440732958695195304796365&#45;7657194543931302675&#45;137012289073905425015518395599346994597881524652768393119</title>
<path fill="none" stroke="black" d="M191.333,-282.164C191.333,-254.164 191.333,-212 191.333,-212 191.333,-212 1204.25,-212 1204.25,-212"/>
<polygon fill="black" stroke="black" points="1204.25,-215.5 1214.25,-212 1204.25,-208.5 1204.25,-215.5"/>
</g>
<!-- cluster_cluster_cluster_cluster_cluster_cluster_&#45;2202121249019829706&#45;86859714295765440732958695195304796365&#45;7657194543931302675&#45;13701228907390542501551839559934699459&#45;7050952919536416659&#45;&gt;cluster_cluster_cluster_cluster_cluster_cluster_&#45;2202121249019829706&#45;86859714295765440732958695195304796365&#45;7657194543931302675&#45;13701228907390542501551839559934699459&#45;6771229450333552600 -->
<g id="edge4" class="edge"><title>cluster_cluster_cluster_cluster_cluster_cluster_&#45;2202121249019829706&#45;86859714295765440732958695195304796365&#45;7657194543931302675&#45;13701228907390542501551839559934699459&#45;7050952919536416659&#45;&gt;cluster_cluster_cluster_cluster_cluster_cluster_&#45;2202121249019829706&#45;86859714295765440732958695195304796365&#45;7657194543931302675&#45;13701228907390542501551839559934699459&#45;6771229450333552600</title>
<path fill="none" stroke="black" d="M1433.5,-59.2803C1433.5,-115.011 1433.5,-279 1433.5,-279 1433.5,-279 625.751,-279 625.751,-279"/>
<polygon fill="black" stroke="black" points="625.751,-275.5 615.751,-279 625.751,-282.5 625.751,-275.5"/>
</g>
<!-- cluster_cluster_cluster_cluster_cluster_cluster_&#45;2202121249019829706&#45;86859714295765440732958695195304796365&#45;7657194543931302675&#45;137012289073905425015518395599346994595823726384603252559 -->
<g id="node9" class="node"><title>cluster_cluster_cluster_cluster_cluster_cluster_&#45;2202121249019829706&#45;86859714295765440732958695195304796365&#45;7657194543931302675&#45;137012289073905425015518395599346994595823726384603252559</title>
<g id="a_node9"><a xlink:title="Gear vector [&#45;].">
<path fill="cyan" stroke="black" d="M1412.5,-164C1412.5,-164 1192.5,-164 1192.5,-164 1186.5,-164 1180.5,-158 1180.5,-152 1180.5,-152 1180.5,-107 1180.5,-107 1180.5,-101 1186.5,-95 1192.5,-95 1192.5,-95 1412.5,-95 1412.5,-95 1418.5,-95 1424.5,-101 1424.5,-107 1424.5,-107 1424.5,-152 1424.5,-152 1424.5,-158 1418.5,-164 1412.5,-164"/>
<text text-anchor="start" x="1287.5" y="-146.3" font-family="Times New Roman,serif" font-size="14.00">gears</text>
<polygon fill="none" stroke="black" points="1188.5,-119.5 1188.5,-140.5 1290.5,-140.5 1290.5,-119.5 1188.5,-119.5"/>
<text text-anchor="start" x="1199.5" y="-126.3" font-family="Times New Roman,serif" font-size="14.00">remote child 1=</text>
<polygon fill="none" stroke="black" points="1290.5,-119.5 1290.5,-140.5 1416.5,-140.5 1416.5,-119.5 1290.5,-119.5"/>
<text text-anchor="start" x="1293.5" y="-126.3" font-family="Times New Roman,serif" font-size="14.00">cmv_ch_model:gears</text>
<polygon fill="none" stroke="black" points="1188.5,-98.5 1188.5,-119.5 1290.5,-119.5 1290.5,-98.5 1188.5,-98.5"/>
<text text-anchor="start" x="1191.5" y="-105.3" font-family="Times New Roman,serif" font-size="14.00">remote parent 0=</text>
<polygon fill="none" stroke="black" points="1290.5,-98.5 1290.5,-119.5 1416.5,-119.5 1416.5,-98.5 1290.5,-98.5"/>
<text text-anchor="start" x="1293.5" y="-105.3" font-family="Times New Roman,serif" font-size="14.00">cmv_ch_model:gears</text>
</a>
</g>
</g>
<!-- cluster_cluster_cluster_cluster_cluster_cluster_&#45;2202121249019829706&#45;86859714295765440732958695195304796365&#45;7657194543931302675&#45;137012289073905425015518395599346994597881524652768393119&#45;&gt;cluster_cluster_cluster_cluster_cluster_cluster_&#45;2202121249019829706&#45;86859714295765440732958695195304796365&#45;7657194543931302675&#45;137012289073905425015518395599346994595823726384603252559 -->
<g id="edge5" class="edge"><title>cluster_cluster_cluster_cluster_cluster_cluster_&#45;2202121249019829706&#45;86859714295765440732958695195304796365&#45;7657194543931302675&#45;137012289073905425015518395599346994597881524652768393119&#45;&gt;cluster_cluster_cluster_cluster_cluster_cluster_&#45;2202121249019829706&#45;86859714295765440732958695195304796365&#45;7657194543931302675&#45;137012289073905425015518395599346994595823726384603252559</title>
<path fill="none" stroke="black" d="M1315.5,-199.663C1315.5,-199.663 1315.5,-174.269 1315.5,-174.269"/>
<polygon fill="black" stroke="black" points="1319,-174.269 1315.5,-164.269 1312,-174.269 1319,-174.269"/>
</g>
<!-- cluster_cluster_cluster_cluster_cluster_cluster_&#45;2202121249019829706&#45;86859714295765440732958695195304796365&#45;7657194543931302675&#45;13701228907390542501551839559934699459&#45;2328696801353446754 -->
<g id="node5" class="node"><title>cluster_cluster_cluster_cluster_cluster_cluster_&#45;2202121249019829706&#45;86859714295765440732958695195304796365&#45;7657194543931302675&#45;13701228907390542501551839559934699459&#45;2328696801353446754</title>
<g id="a_node5"><a xlink:title="A function to correct the predicted gear.">
<path fill="cyan" stroke="black" d="M907,-330.5C907,-330.5 646,-330.5 646,-330.5 640,-330.5 634,-324.5 634,-318.5 634,-318.5 634,-294.5 634,-294.5 634,-288.5 640,-282.5 646,-282.5 646,-282.5 907,-282.5 907,-282.5 913,-282.5 919,-288.5 919,-294.5 919,-294.5 919,-318.5 919,-318.5 919,-324.5 913,-330.5 907,-330.5"/>
<text text-anchor="start" x="741.5" y="-313.3" font-family="Times New Roman,serif" font-size="14.00">correct_gear</text>
<polygon fill="none" stroke="black" points="642.5,-286.5 642.5,-307.5 744.5,-307.5 744.5,-286.5 642.5,-286.5"/>
<text text-anchor="start" x="645.5" y="-293.3" font-family="Times New Roman,serif" font-size="14.00">remote parent 0=</text>
<polygon fill="none" stroke="black" points="744.5,-286.5 744.5,-307.5 911.5,-307.5 911.5,-286.5 744.5,-286.5"/>
<text text-anchor="start" x="747.5" y="-293.3" font-family="Times New Roman,serif" font-size="14.00">cmv_ch_model:correct_gear</text>
</a>
</g>
</g>
<!-- cluster_cluster_cluster_cluster_cluster_cluster_&#45;2202121249019829706&#45;86859714295765440732958695195304796365&#45;7657194543931302675&#45;13701228907390542501551839559934699459&#45;2328696801353446754&#45;&gt;cluster_cluster_cluster_cluster_cluster_cluster_&#45;2202121249019829706&#45;86859714295765440732958695195304796365&#45;7657194543931302675&#45;13701228907390542501551839559934699459&#45;7050952919536416659 -->
<g id="edge6" class="edge"><title>cluster_cluster_cluster_cluster_cluster_cluster_&#45;2202121249019829706&#45;86859714295765440732958695195304796365&#45;7657194543931302675&#45;13701228907390542501551839559934699459&#45;2328696801353446754&#45;&gt;cluster_cluster_cluster_cluster_cluster_cluster_&#45;2202121249019829706&#45;86859714295765440732958695195304796365&#45;7657194543931302675&#45;13701228907390542501551839559934699459&#45;7050952919536416659</title>
<path fill="none" stroke="black" d="M737.25,-282.47C737.25,-217.115 737.25,-41 737.25,-41 737.25,-41 1316.12,-41 1316.12,-41"/>
<polygon fill="black" stroke="black" points="1316.12,-44.5001 1326.12,-41 1316.12,-37.5001 1316.12,-44.5001"/>
</g>
<!-- cluster_cluster_cluster_cluster_cluster_cluster_&#45;2202121249019829706&#45;86859714295765440732958695195304796365&#45;7657194543931302675&#45;13701228907390542501551839559934699459&#45;2328696801353446754&#45;&gt;cluster_cluster_cluster_cluster_cluster_cluster_&#45;2202121249019829706&#45;86859714295765440732958695195304796365&#45;7657194543931302675&#45;137012289073905425015518395599346994597881524652768393119 -->
<g id="edge7" class="edge"><title>cluster_cluster_cluster_cluster_cluster_cluster_&#45;2202121249019829706&#45;86859714295765440732958695195304796365&#45;7657194543931302675&#45;13701228907390542501551839559934699459&#45;2328696801353446754&#45;&gt;cluster_cluster_cluster_cluster_cluster_cluster_&#45;2202121249019829706&#45;86859714295765440732958695195304796365&#45;7657194543931302675&#45;137012289073905425015518395599346994597881524652768393119</title>
<path fill="none" stroke="black" d="M879.75,-282.193C879.75,-257.858 879.75,-224 879.75,-224 879.75,-224 1204.43,-224 1204.43,-224"/>
<polygon fill="black" stroke="black" points="1204.43,-227.5 1214.43,-224 1204.43,-220.5 1204.43,-227.5"/>
</g>
<!-- cluster_cluster_cluster_cluster_cluster_cluster_&#45;2202121249019829706&#45;86859714295765440732958695195304796365&#45;7657194543931302675&#45;137012289073905425015518395599346994593659860576675406351 -->
<g id="node6" class="node"><title>cluster_cluster_cluster_cluster_cluster_cluster_&#45;2202121249019829706&#45;86859714295765440732958695195304796365&#45;7657194543931302675&#45;137012289073905425015518395599346994593659860576675406351</title>
<g id="a_node6"><a xlink:title="Cycle type (WLTP or NEDC).">
<path fill="cyan" stroke="black" d="M1489,-330.5C1489,-330.5 1238,-330.5 1238,-330.5 1232,-330.5 1226,-324.5 1226,-318.5 1226,-318.5 1226,-294.5 1226,-294.5 1226,-288.5 1232,-282.5 1238,-282.5 1238,-282.5 1489,-282.5 1489,-282.5 1495,-282.5 1501,-288.5 1501,-294.5 1501,-294.5 1501,-318.5 1501,-318.5 1501,-324.5 1495,-330.5 1489,-330.5"/>
<text text-anchor="start" x="1333.5" y="-313.3" font-family="Times New Roman,serif" font-size="14.00">cycle_type</text>
<polygon fill="none" stroke="black" points="1234.5,-286.5 1234.5,-307.5 1336.5,-307.5 1336.5,-286.5 1234.5,-286.5"/>
<text text-anchor="start" x="1237.5" y="-293.3" font-family="Times New Roman,serif" font-size="14.00">remote parent 0=</text>
<polygon fill="none" stroke="black" points="1336.5,-286.5 1336.5,-307.5 1493.5,-307.5 1493.5,-286.5 1336.5,-286.5"/>
<text text-anchor="start" x="1339.5" y="-293.3" font-family="Times New Roman,serif" font-size="14.00">cmv_ch_model:cycle_type</text>
</a>
</g>
</g>
<!-- cluster_cluster_cluster_cluster_cluster_cluster_&#45;2202121249019829706&#45;86859714295765440732958695195304796365&#45;7657194543931302675&#45;137012289073905425015518395599346994593659860576675406351&#45;&gt;cluster_cluster_cluster_cluster_cluster_cluster_&#45;2202121249019829706&#45;86859714295765440732958695195304796365&#45;7657194543931302675&#45;137012289073905425015518395599346994597881524652768393119 -->
<g id="edge8" class="edge"><title>cluster_cluster_cluster_cluster_cluster_cluster_&#45;2202121249019829706&#45;86859714295765440732958695195304796365&#45;7657194543931302675&#45;137012289073905425015518395599346994593659860576675406351&#45;&gt;cluster_cluster_cluster_cluster_cluster_cluster_&#45;2202121249019829706&#45;86859714295765440732958695195304796365&#45;7657194543931302675&#45;137012289073905425015518395599346994597881524652768393119</title>
<path fill="none" stroke="black" d="M1321.25,-282.317C1321.25,-282.317 1321.25,-246.257 1321.25,-246.257"/>
<polygon fill="black" stroke="black" points="1324.75,-246.257 1321.25,-236.257 1317.75,-246.257 1324.75,-246.257"/>
</g>
<!-- cluster_cluster_cluster_cluster_cluster_cluster_&#45;2202121249019829706&#45;86859714295765440732958695195304796365&#45;7657194543931302675&#45;13701228907390542501551839559934699459&#45;3904256270299959966 -->
<g id="node7" class="node"><title>cluster_cluster_cluster_cluster_cluster_cluster_&#45;2202121249019829706&#45;86859714295765440732958695195304796365&#45;7657194543931302675&#45;13701228907390542501551839559934699459&#45;3904256270299959966</title>
<g id="a_node7"><a xlink:title="Engine speed vector [RPM].">
<path fill="cyan" stroke="black" d="M1150.5,-153.5C1150.5,-153.5 852.5,-153.5 852.5,-153.5 846.5,-153.5 840.5,-147.5 840.5,-141.5 840.5,-141.5 840.5,-117.5 840.5,-117.5 840.5,-111.5 846.5,-105.5 852.5,-105.5 852.5,-105.5 1150.5,-105.5 1150.5,-105.5 1156.5,-105.5 1162.5,-111.5 1162.5,-117.5 1162.5,-117.5 1162.5,-141.5 1162.5,-141.5 1162.5,-147.5 1156.5,-153.5 1150.5,-153.5"/>
<text text-anchor="start" x="947.5" y="-136.3" font-family="Times New Roman,serif" font-size="14.00">engine_speeds_out</text>
<polygon fill="none" stroke="black" points="848.5,-109.5 848.5,-130.5 950.5,-130.5 950.5,-109.5 848.5,-109.5"/>
<text text-anchor="start" x="851.5" y="-116.3" font-family="Times New Roman,serif" font-size="14.00">remote parent 0=</text>
<polygon fill="none" stroke="black" points="950.5,-109.5 950.5,-130.5 1154.5,-130.5 1154.5,-109.5 950.5,-109.5"/>
<text text-anchor="start" x="953.5" y="-116.3" font-family="Times New Roman,serif" font-size="14.00">cmv_ch_model:engine_speeds_out</text>
</a>
</g>
</g>
<!-- cluster_cluster_cluster_cluster_cluster_cluster_&#45;2202121249019829706&#45;86859714295765440732958695195304796365&#45;7657194543931302675&#45;13701228907390542501551839559934699459&#45;3904256270299959966&#45;&gt;cluster_cluster_cluster_cluster_cluster_cluster_&#45;2202121249019829706&#45;86859714295765440732958695195304796365&#45;7657194543931302675&#45;13701228907390542501551839559934699459&#45;7050952919536416659 -->
<g id="edge9" class="edge"><title>cluster_cluster_cluster_cluster_cluster_cluster_&#45;2202121249019829706&#45;86859714295765440732958695195304796365&#45;7657194543931302675&#45;13701228907390542501551839559934699459&#45;3904256270299959966&#45;&gt;cluster_cluster_cluster_cluster_cluster_cluster_&#45;2202121249019829706&#45;86859714295765440732958695195304796365&#45;7657194543931302675&#45;13701228907390542501551839559934699459&#45;7050952919536416659</title>
<path fill="none" stroke="black" d="M1001.5,-105.215C1001.5,-81.8359 1001.5,-50 1001.5,-50 1001.5,-50 1316.37,-50 1316.37,-50"/>
<polygon fill="black" stroke="black" points="1316.37,-53.5001 1326.37,-50 1316.37,-46.5001 1316.37,-53.5001"/>
</g>
<!-- cluster_cluster_cluster_cluster_cluster_cluster_&#45;2202121249019829706&#45;86859714295765440732958695195304796365&#45;7657194543931302675&#45;137012289073905425015518395599346994592896906763587689886 -->
<g id="node8" class="node"><title>cluster_cluster_cluster_cluster_cluster_cluster_&#45;2202121249019829706&#45;86859714295765440732958695195304796365&#45;7657194543931302675&#45;137012289073905425015518395599346994592896906763587689886</title>
<g id="a_node8"><a xlink:title="Gear filter function.">
<path fill="cyan" stroke="black" d="M1195.5,-330.5C1195.5,-330.5 949.5,-330.5 949.5,-330.5 943.5,-330.5 937.5,-324.5 937.5,-318.5 937.5,-318.5 937.5,-294.5 937.5,-294.5 937.5,-288.5 943.5,-282.5 949.5,-282.5 949.5,-282.5 1195.5,-282.5 1195.5,-282.5 1201.5,-282.5 1207.5,-288.5 1207.5,-294.5 1207.5,-294.5 1207.5,-318.5 1207.5,-318.5 1207.5,-324.5 1201.5,-330.5 1195.5,-330.5"/>
<text text-anchor="start" x="1044.5" y="-313.3" font-family="Times New Roman,serif" font-size="14.00">gear_filter</text>
<polygon fill="none" stroke="black" points="945.5,-286.5 945.5,-307.5 1047.5,-307.5 1047.5,-286.5 945.5,-286.5"/>
<text text-anchor="start" x="948.5" y="-293.3" font-family="Times New Roman,serif" font-size="14.00">remote parent 0=</text>
<polygon fill="none" stroke="black" points="1047.5,-286.5 1047.5,-307.5 1199.5,-307.5 1199.5,-286.5 1047.5,-286.5"/>
<text text-anchor="start" x="1050.5" y="-293.3" font-family="Times New Roman,serif" font-size="14.00">cmv_ch_model:gear_filter</text>
</a>
</g>
</g>
<!-- cluster_cluster_cluster_cluster_cluster_cluster_&#45;2202121249019829706&#45;86859714295765440732958695195304796365&#45;7657194543931302675&#45;137012289073905425015518395599346994592896906763587689886&#45;&gt;cluster_cluster_cluster_cluster_cluster_cluster_&#45;2202121249019829706&#45;86859714295765440732958695195304796365&#45;7657194543931302675&#45;137012289073905425015518395599346994597881524652768393119 -->
<g id="edge10" class="edge"><title>cluster_cluster_cluster_cluster_cluster_cluster_&#45;2202121249019829706&#45;86859714295765440732958695195304796365&#45;7657194543931302675&#45;137012289073905425015518395599346994592896906763587689886&#45;&gt;cluster_cluster_cluster_cluster_cluster_cluster_&#45;2202121249019829706&#45;86859714295765440732958695195304796365&#45;7657194543931302675&#45;137012289073905425015518395599346994597881524652768393119</title>
<path fill="none" stroke="black" d="M1207.54,-306C1216.57,-306 1222.17,-306 1222.17,-306 1222.17,-306 1222.17,-246.234 1222.17,-246.234"/>
<polygon fill="black" stroke="black" points="1225.67,-246.234 1222.17,-236.234 1218.67,-246.234 1225.67,-246.234"/>
</g>
<!-- cluster_cluster_cluster_cluster_cluster_cluster_&#45;2202121249019829706&#45;86859714295765440732958695195304796365&#45;7657194543931302675&#45;137012289073905425015518395599346994595823726384603252559&#45;&gt;cluster_cluster_cluster_cluster_cluster_cluster_&#45;2202121249019829706&#45;86859714295765440732958695195304796365&#45;7657194543931302675&#45;13701228907390542501551839559934699459&#45;7050952919536416659 -->
<g id="edge11" class="edge"><title>cluster_cluster_cluster_cluster_cluster_cluster_&#45;2202121249019829706&#45;86859714295765440732958695195304796365&#45;7657194543931302675&#45;137012289073905425015518395599346994595823726384603252559&#45;&gt;cluster_cluster_cluster_cluster_cluster_cluster_&#45;2202121249019829706&#45;86859714295765440732958695195304796365&#45;7657194543931302675&#45;13701228907390542501551839559934699459&#45;7050952919536416659</title>
<path fill="none" stroke="black" d="M1375.5,-94.7765C1375.5,-94.7765 1375.5,-69.0777 1375.5,-69.0777"/>
<polygon fill="black" stroke="black" points="1379,-69.0777 1375.5,-59.0777 1372,-69.0778 1379,-69.0777"/>
</g>
<!-- cluster_cluster_cluster_cluster_cluster_cluster_&#45;2202121249019829706&#45;86859714295765440732958695195304796365&#45;7657194543931302675&#45;13701228907390542501551839559934699459&#45;3822089204281359213 -->
<g id="node10" class="node"><title>cluster_cluster_cluster_cluster_cluster_cluster_&#45;2202121249019829706&#45;86859714295765440732958695195304796365&#45;7657194543931302675&#45;13701228907390542501551839559934699459&#45;3822089204281359213</title>
<g id="a_node10"><a xlink:title="Maximum velocity to consider the vehicle stopped [km/h].">
<path fill="cyan" stroke="black" d="M1720.5,-153.5C1720.5,-153.5 1454.5,-153.5 1454.5,-153.5 1448.5,-153.5 1442.5,-147.5 1442.5,-141.5 1442.5,-141.5 1442.5,-117.5 1442.5,-117.5 1442.5,-111.5 1448.5,-105.5 1454.5,-105.5 1454.5,-105.5 1720.5,-105.5 1720.5,-105.5 1726.5,-105.5 1732.5,-111.5 1732.5,-117.5 1732.5,-117.5 1732.5,-141.5 1732.5,-141.5 1732.5,-147.5 1726.5,-153.5 1720.5,-153.5"/>
<text text-anchor="start" x="1549.5" y="-136.3" font-family="Times New Roman,serif" font-size="14.00">stop_velocity</text>
<polygon fill="none" stroke="black" points="1450.5,-109.5 1450.5,-130.5 1552.5,-130.5 1552.5,-109.5 1450.5,-109.5"/>
<text text-anchor="start" x="1453.5" y="-116.3" font-family="Times New Roman,serif" font-size="14.00">remote parent 0=</text>
<polygon fill="none" stroke="black" points="1552.5,-109.5 1552.5,-130.5 1724.5,-130.5 1724.5,-109.5 1552.5,-109.5"/>
<text text-anchor="start" x="1555.5" y="-116.3" font-family="Times New Roman,serif" font-size="14.00">cmv_ch_model:stop_velocity</text>
</a>
</g>
</g>
<!-- cluster_cluster_cluster_cluster_cluster_cluster_&#45;2202121249019829706&#45;86859714295765440732958695195304796365&#45;7657194543931302675&#45;13701228907390542501551839559934699459&#45;3822089204281359213&#45;&gt;cluster_cluster_cluster_cluster_cluster_cluster_&#45;2202121249019829706&#45;86859714295765440732958695195304796365&#45;7657194543931302675&#45;13701228907390542501551839559934699459&#45;7050952919536416659 -->
<g id="edge12" class="edge"><title>cluster_cluster_cluster_cluster_cluster_cluster_&#45;2202121249019829706&#45;86859714295765440732958695195304796365&#45;7657194543931302675&#45;13701228907390542501551839559934699459&#45;3822089204281359213&#45;&gt;cluster_cluster_cluster_cluster_cluster_cluster_&#45;2202121249019829706&#45;86859714295765440732958695195304796365&#45;7657194543931302675&#45;13701228907390542501551839559934699459&#45;7050952919536416659</title>
<path fill="none" stroke="black" d="M1502.5,-105.317C1502.5,-105.317 1502.5,-69.2568 1502.5,-69.2568"/>
<polygon fill="black" stroke="black" points="1506,-69.2567 1502.5,-59.2568 1499,-69.2568 1506,-69.2567"/>
</g>
<!-- cluster_cluster_cluster_cluster_cluster_cluster_&#45;2202121249019829706&#45;86859714295765440732958695195304796365&#45;7657194543931302675&#45;137012289073905425015518395599346994597903879806296393403 -->
<g id="node11" class="node"><title>cluster_cluster_cluster_cluster_cluster_cluster_&#45;2202121249019829706&#45;86859714295765440732958695195304796365&#45;7657194543931302675&#45;137012289073905425015518395599346994597903879806296393403</title>
<g id="a_node11"><a xlink:title="Time at cold hot transition phase [s].">
<path fill="cyan" stroke="black" d="M1861.5,-330.5C1861.5,-330.5 1531.5,-330.5 1531.5,-330.5 1525.5,-330.5 1519.5,-324.5 1519.5,-318.5 1519.5,-318.5 1519.5,-294.5 1519.5,-294.5 1519.5,-288.5 1525.5,-282.5 1531.5,-282.5 1531.5,-282.5 1861.5,-282.5 1861.5,-282.5 1867.5,-282.5 1873.5,-288.5 1873.5,-294.5 1873.5,-294.5 1873.5,-318.5 1873.5,-318.5 1873.5,-324.5 1867.5,-330.5 1861.5,-330.5"/>
<text text-anchor="start" x="1626.5" y="-313.3" font-family="Times New Roman,serif" font-size="14.00">time_cold_hot_transition</text>
<polygon fill="none" stroke="black" points="1527.5,-286.5 1527.5,-307.5 1629.5,-307.5 1629.5,-286.5 1527.5,-286.5"/>
<text text-anchor="start" x="1530.5" y="-293.3" font-family="Times New Roman,serif" font-size="14.00">remote parent 0=</text>
<polygon fill="none" stroke="black" points="1629.5,-286.5 1629.5,-307.5 1865.5,-307.5 1865.5,-286.5 1629.5,-286.5"/>
<text text-anchor="start" x="1632.5" y="-293.3" font-family="Times New Roman,serif" font-size="14.00">cmv_ch_model:time_cold_hot_transition</text>
</a>
</g>
</g>
<!-- cluster_cluster_cluster_cluster_cluster_cluster_&#45;2202121249019829706&#45;86859714295765440732958695195304796365&#45;7657194543931302675&#45;137012289073905425015518395599346994597903879806296393403&#45;&gt;cluster_cluster_cluster_cluster_cluster_cluster_&#45;2202121249019829706&#45;86859714295765440732958695195304796365&#45;7657194543931302675&#45;13701228907390542501551839559934699459&#45;7050952919536416659 -->
<g id="edge13" class="edge"><title>cluster_cluster_cluster_cluster_cluster_cluster_&#45;2202121249019829706&#45;86859714295765440732958695195304796365&#45;7657194543931302675&#45;137012289073905425015518395599346994597903879806296393403&#45;&gt;cluster_cluster_cluster_cluster_cluster_cluster_&#45;2202121249019829706&#45;86859714295765440732958695195304796365&#45;7657194543931302675&#45;13701228907390542501551839559934699459&#45;7050952919536416659</title>
<path fill="none" stroke="black" d="M1803,-282.463C1803,-218.86 1803,-51 1803,-51 1803,-51 1572.88,-51 1572.88,-51"/>
<polygon fill="black" stroke="black" points="1572.88,-47.5001 1562.88,-51 1572.88,-54.5001 1572.88,-47.5001"/>
</g>
<!-- cluster_cluster_cluster_cluster_cluster_cluster_&#45;2202121249019829706&#45;86859714295765440732958695195304796365&#45;7657194543931302675&#45;137012289073905425015518395599346994597903879806296393403&#45;&gt;cluster_cluster_cluster_cluster_cluster_cluster_&#45;2202121249019829706&#45;86859714295765440732958695195304796365&#45;7657194543931302675&#45;137012289073905425015518395599346994597881524652768393119 -->
<g id="edge14" class="edge"><title>cluster_cluster_cluster_cluster_cluster_cluster_&#45;2202121249019829706&#45;86859714295765440732958695195304796365&#45;7657194543931302675&#45;137012289073905425015518395599346994597903879806296393403&#45;&gt;cluster_cluster_cluster_cluster_cluster_cluster_&#45;2202121249019829706&#45;86859714295765440732958695195304796365&#45;7657194543931302675&#45;137012289073905425015518395599346994597881524652768393119</title>
<path fill="none" stroke="black" d="M1626,-282.092C1626,-259.049 1626,-228 1626,-228 1626,-228 1426.74,-228 1426.74,-228"/>
<polygon fill="black" stroke="black" points="1426.74,-224.5 1416.74,-228 1426.74,-231.5 1426.74,-224.5"/>
</g>
<!-- cluster_cluster_cluster_cluster_cluster_cluster_&#45;2202121249019829706&#45;86859714295765440732958695195304796365&#45;7657194543931302675&#45;13701228907390542501551839559934699459&#45;1825562924159530342 -->
<g id="node12" class="node"><title>cluster_cluster_cluster_cluster_cluster_cluster_&#45;2202121249019829706&#45;86859714295765440732958695195304796365&#45;7657194543931302675&#45;13701228907390542501551839559934699459&#45;1825562924159530342</title>
<g id="a_node12"><a xlink:title="Time vector [s].">
<path fill="cyan" stroke="black" d="M2123.5,-330.5C2123.5,-330.5 1903.5,-330.5 1903.5,-330.5 1897.5,-330.5 1891.5,-324.5 1891.5,-318.5 1891.5,-318.5 1891.5,-294.5 1891.5,-294.5 1891.5,-288.5 1897.5,-282.5 1903.5,-282.5 1903.5,-282.5 2123.5,-282.5 2123.5,-282.5 2129.5,-282.5 2135.5,-288.5 2135.5,-294.5 2135.5,-294.5 2135.5,-318.5 2135.5,-318.5 2135.5,-324.5 2129.5,-330.5 2123.5,-330.5"/>
<text text-anchor="start" x="1998.5" y="-313.3" font-family="Times New Roman,serif" font-size="14.00">times</text>
<polygon fill="none" stroke="black" points="1899.5,-286.5 1899.5,-307.5 2001.5,-307.5 2001.5,-286.5 1899.5,-286.5"/>
<text text-anchor="start" x="1902.5" y="-293.3" font-family="Times New Roman,serif" font-size="14.00">remote parent 0=</text>
<polygon fill="none" stroke="black" points="2001.5,-286.5 2001.5,-307.5 2127.5,-307.5 2127.5,-286.5 2001.5,-286.5"/>
<text text-anchor="start" x="2004.5" y="-293.3" font-family="Times New Roman,serif" font-size="14.00">cmv_ch_model:times</text>
</a>
</g>
</g>
<!-- cluster_cluster_cluster_cluster_cluster_cluster_&#45;2202121249019829706&#45;86859714295765440732958695195304796365&#45;7657194543931302675&#45;13701228907390542501551839559934699459&#45;1825562924159530342&#45;&gt;cluster_cluster_cluster_cluster_cluster_cluster_&#45;2202121249019829706&#45;86859714295765440732958695195304796365&#45;7657194543931302675&#45;13701228907390542501551839559934699459&#45;7050952919536416659 -->
<g id="edge15" class="edge"><title>cluster_cluster_cluster_cluster_cluster_cluster_&#45;2202121249019829706&#45;86859714295765440732958695195304796365&#45;7657194543931302675&#45;13701228907390542501551839559934699459&#45;1825562924159530342&#45;&gt;cluster_cluster_cluster_cluster_cluster_cluster_&#45;2202121249019829706&#45;86859714295765440732958695195304796365&#45;7657194543931302675&#45;13701228907390542501551839559934699459&#45;7050952919536416659</title>
<path fill="none" stroke="black" d="M2054.17,-282.275C2054.17,-217.291 2054.17,-44 2054.17,-44 2054.17,-44 1572.77,-44 1572.77,-44"/>
<polygon fill="black" stroke="black" points="1572.77,-40.5001 1562.77,-44 1572.77,-47.5001 1572.77,-40.5001"/>
</g>
<!-- cluster_cluster_cluster_cluster_cluster_cluster_&#45;2202121249019829706&#45;86859714295765440732958695195304796365&#45;7657194543931302675&#45;13701228907390542501551839559934699459&#45;1825562924159530342&#45;&gt;cluster_cluster_cluster_cluster_cluster_cluster_&#45;2202121249019829706&#45;86859714295765440732958695195304796365&#45;7657194543931302675&#45;137012289073905425015518395599346994597881524652768393119 -->
<g id="edge16" class="edge"><title>cluster_cluster_cluster_cluster_cluster_cluster_&#45;2202121249019829706&#45;86859714295765440732958695195304796365&#45;7657194543931302675&#45;13701228907390542501551839559934699459&#45;1825562924159530342&#45;&gt;cluster_cluster_cluster_cluster_cluster_cluster_&#45;2202121249019829706&#45;86859714295765440732958695195304796365&#45;7657194543931302675&#45;137012289073905425015518395599346994597881524652768393119</title>
<path fill="none" stroke="black" d="M1972.83,-282.228C1972.83,-256.95 1972.83,-221 1972.83,-221 1972.83,-221 1426.77,-221 1426.77,-221"/>
<polygon fill="black" stroke="black" points="1426.77,-217.5 1416.77,-221 1426.77,-224.5 1426.77,-217.5"/>
</g>
<!-- cluster_cluster_cluster_cluster_cluster_cluster_&#45;2202121249019829706&#45;86859714295765440732958695195304796365&#45;7657194543931302675&#45;137012289073905425015518395599346994591395676110976739562 -->
<g id="node13" class="node"><title>cluster_cluster_cluster_cluster_cluster_cluster_&#45;2202121249019829706&#45;86859714295765440732958695195304796365&#45;7657194543931302675&#45;137012289073905425015518395599346994591395676110976739562</title>
<g id="a_node13"><a xlink:title="Vehicle velocity [km/h].">
<path fill="cyan" stroke="black" d="M2407.5,-330.5C2407.5,-330.5 2165.5,-330.5 2165.5,-330.5 2159.5,-330.5 2153.5,-324.5 2153.5,-318.5 2153.5,-318.5 2153.5,-294.5 2153.5,-294.5 2153.5,-288.5 2159.5,-282.5 2165.5,-282.5 2165.5,-282.5 2407.5,-282.5 2407.5,-282.5 2413.5,-282.5 2419.5,-288.5 2419.5,-294.5 2419.5,-294.5 2419.5,-318.5 2419.5,-318.5 2419.5,-324.5 2413.5,-330.5 2407.5,-330.5"/>
<text text-anchor="start" x="2260.5" y="-313.3" font-family="Times New Roman,serif" font-size="14.00">velocities</text>
<polygon fill="none" stroke="black" points="2161.5,-286.5 2161.5,-307.5 2263.5,-307.5 2263.5,-286.5 2161.5,-286.5"/>
<text text-anchor="start" x="2164.5" y="-293.3" font-family="Times New Roman,serif" font-size="14.00">remote parent 0=</text>
<polygon fill="none" stroke="black" points="2263.5,-286.5 2263.5,-307.5 2411.5,-307.5 2411.5,-286.5 2263.5,-286.5"/>
<text text-anchor="start" x="2266.5" y="-293.3" font-family="Times New Roman,serif" font-size="14.00">cmv_ch_model:velocities</text>
</a>
</g>
</g>
<!-- cluster_cluster_cluster_cluster_cluster_cluster_&#45;2202121249019829706&#45;86859714295765440732958695195304796365&#45;7657194543931302675&#45;137012289073905425015518395599346994591395676110976739562&#45;&gt;cluster_cluster_cluster_cluster_cluster_cluster_&#45;2202121249019829706&#45;86859714295765440732958695195304796365&#45;7657194543931302675&#45;13701228907390542501551839559934699459&#45;7050952919536416659 -->
<g id="edge17" class="edge"><title>cluster_cluster_cluster_cluster_cluster_cluster_&#45;2202121249019829706&#45;86859714295765440732958695195304796365&#45;7657194543931302675&#45;137012289073905425015518395599346994591395676110976739562&#45;&gt;cluster_cluster_cluster_cluster_cluster_cluster_&#45;2202121249019829706&#45;86859714295765440732958695195304796365&#45;7657194543931302675&#45;13701228907390542501551839559934699459&#45;7050952919536416659</title>
<path fill="none" stroke="black" d="M2330.83,-282.108C2330.83,-215.768 2330.83,-37 2330.83,-37 2330.83,-37 1572.66,-37 1572.66,-37"/>
<polygon fill="black" stroke="black" points="1572.66,-33.5001 1562.66,-37 1572.66,-40.5001 1572.66,-33.5001"/>
</g>
<!-- cluster_cluster_cluster_cluster_cluster_cluster_&#45;2202121249019829706&#45;86859714295765440732958695195304796365&#45;7657194543931302675&#45;137012289073905425015518395599346994591395676110976739562&#45;&gt;cluster_cluster_cluster_cluster_cluster_cluster_&#45;2202121249019829706&#45;86859714295765440732958695195304796365&#45;7657194543931302675&#45;137012289073905425015518395599346994597881524652768393119 -->
<g id="edge18" class="edge"><title>cluster_cluster_cluster_cluster_cluster_cluster_&#45;2202121249019829706&#45;86859714295765440732958695195304796365&#45;7657194543931302675&#45;137012289073905425015518395599346994591395676110976739562&#45;&gt;cluster_cluster_cluster_cluster_cluster_cluster_&#45;2202121249019829706&#45;86859714295765440732958695195304796365&#45;7657194543931302675&#45;137012289073905425015518395599346994597881524652768393119</title>
<path fill="none" stroke="black" d="M2242.17,-282.197C2242.17,-254.791 2242.17,-214 2242.17,-214 2242.17,-214 1426.88,-214 1426.88,-214"/>
<polygon fill="black" stroke="black" points="1426.88,-210.5 1416.88,-214 1426.88,-217.5 1426.88,-210.5"/>
</g>
<!-- cluster_cluster_cluster_cluster_cluster_cluster_&#45;2202121249019829706&#45;86859714295765440732958695195304796365&#45;7657194543931302675&#45;137012289073905425015518395599346994595551426227045653540 -->
<g id="node14" class="node"><title>cluster_cluster_cluster_cluster_cluster_cluster_&#45;2202121249019829706&#45;86859714295765440732958695195304796365&#45;7657194543931302675&#45;137012289073905425015518395599346994595551426227045653540</title>
<g id="a_node14"><a xlink:title="Constant velocity speed ratios of the gear box [km/(h*RPM)].">
<path fill="cyan" stroke="black" d="M2763,-330.5C2763,-330.5 2450,-330.5 2450,-330.5 2444,-330.5 2438,-324.5 2438,-318.5 2438,-318.5 2438,-294.5 2438,-294.5 2438,-288.5 2444,-282.5 2450,-282.5 2450,-282.5 2763,-282.5 2763,-282.5 2769,-282.5 2775,-288.5 2775,-294.5 2775,-294.5 2775,-318.5 2775,-318.5 2775,-324.5 2769,-330.5 2763,-330.5"/>
<text text-anchor="start" x="2545.5" y="-313.3" font-family="Times New Roman,serif" font-size="14.00">velocity_speed_ratios</text>
<polygon fill="none" stroke="black" points="2446.5,-286.5 2446.5,-307.5 2548.5,-307.5 2548.5,-286.5 2446.5,-286.5"/>
<text text-anchor="start" x="2449.5" y="-293.3" font-family="Times New Roman,serif" font-size="14.00">remote parent 0=</text>
<polygon fill="none" stroke="black" points="2548.5,-286.5 2548.5,-307.5 2767.5,-307.5 2767.5,-286.5 2548.5,-286.5"/>
<text text-anchor="start" x="2551.5" y="-293.3" font-family="Times New Roman,serif" font-size="14.00">cmv_ch_model:velocity_speed_ratios</text>
</a>
</g>
</g>
<!-- cluster_cluster_cluster_cluster_cluster_cluster_&#45;2202121249019829706&#45;86859714295765440732958695195304796365&#45;7657194543931302675&#45;137012289073905425015518395599346994595551426227045653540&#45;&gt;cluster_cluster_cluster_cluster_cluster_cluster_&#45;2202121249019829706&#45;86859714295765440732958695195304796365&#45;7657194543931302675&#45;13701228907390542501551839559934699459&#45;7050952919536416659 -->
<g id="edge19" class="edge"><title>cluster_cluster_cluster_cluster_cluster_cluster_&#45;2202121249019829706&#45;86859714295765440732958695195304796365&#45;7657194543931302675&#45;137012289073905425015518395599346994595551426227045653540&#45;&gt;cluster_cluster_cluster_cluster_cluster_cluster_&#45;2202121249019829706&#45;86859714295765440732958695195304796365&#45;7657194543931302675&#45;13701228907390542501551839559934699459&#45;7050952919536416659</title>
<path fill="none" stroke="black" d="M2662.67,-282.446C2662.67,-215.175 2662.67,-30 2662.67,-30 2662.67,-30 1572.69,-30 1572.69,-30"/>
<polygon fill="black" stroke="black" points="1572.69,-26.5001 1562.69,-30 1572.69,-33.5001 1572.69,-26.5001"/>
</g>
<!-- cluster_cluster_cluster_cluster_cluster_cluster_&#45;2202121249019829706&#45;86859714295765440732958695195304796365&#45;7657194543931302675&#45;137012289073905425015518395599346994595551426227045653540&#45;&gt;cluster_cluster_cluster_cluster_cluster_cluster_&#45;2202121249019829706&#45;86859714295765440732958695195304796365&#45;7657194543931302675&#45;137012289073905425015518395599346994597881524652768393119 -->
<g id="edge20" class="edge"><title>cluster_cluster_cluster_cluster_cluster_cluster_&#45;2202121249019829706&#45;86859714295765440732958695195304796365&#45;7657194543931302675&#45;137012289073905425015518395599346994595551426227045653540&#45;&gt;cluster_cluster_cluster_cluster_cluster_cluster_&#45;2202121249019829706&#45;86859714295765440732958695195304796365&#45;7657194543931302675&#45;137012289073905425015518395599346994597881524652768393119</title>
<path fill="none" stroke="black" d="M2550.33,-282.414C2550.33,-252.967 2550.33,-207 2550.33,-207 2550.33,-207 1426.55,-207 1426.55,-207"/>
<polygon fill="black" stroke="black" points="1426.55,-203.5 1416.55,-207 1426.55,-210.5 1426.55,-203.5"/>
</g>
</g>
</svg>
