<?xml version="1.0" encoding="UTF-8" standalone="no"?>
<!DOCTYPE svg PUBLIC "-//W3C//DTD SVG 1.1//EN"
 "http://www.w3.org/Graphics/SVG/1.1/DTD/svg11.dtd">
<!-- Generated by graphviz version 2.38.0 (20140413.2041)
 -->
<!-- Title: cluster_AM&#45;wltp_h errors Pages: 1 -->
<svg width="514pt" height="727pt"
 viewBox="0.00 0.00 514.00 727.00" xmlns="http://www.w3.org/2000/svg" xmlns:xlink="http://www.w3.org/1999/xlink">
<g id="graph0" class="graph" transform="scale(1 1) rotate(0) translate(4 723)">
<title>cluster_AM&#45;wltp_h errors</title>
<polygon fill="white" stroke="none" points="-4,4 -4,-723 510,-723 510,4 -4,4"/>
<text text-anchor="start" x="202" y="-7.8" font-family="Times New Roman,serif" font-size="14.00">AM&#45;wltp_h errors</text>
<!-- cluster_cluster_cluster_&#45;22021212490198297068604106051578193977295869519530479636577532400 -->
<g id="node1" class="node"><title>cluster_cluster_cluster_&#45;22021212490198297068604106051578193977295869519530479636577532400</title>
<g id="a_node1"><a xlink:title="start">
<polygon fill="red" stroke="black" points="144.683,-677.049 146.459,-677.148 148.216,-677.295 149.948,-677.491 151.648,-677.735 153.308,-678.027 154.923,-678.364 156.485,-678.748 157.989,-679.176 159.429,-679.647 160.8,-680.161 162.098,-680.715 163.317,-681.308 164.455,-681.939 165.507,-682.605 166.472,-683.306 167.346,-684.039 168.127,-684.801 168.815,-685.592 169.408,-686.408 169.906,-687.248 170.309,-688.109 170.617,-688.989 170.832,-689.886 170.956,-690.797 170.989,-691.719 170.934,-692.65 170.794,-693.587 170.571,-694.529 170.269,-695.471 169.89,-696.413 169.439,-697.35 168.918,-698.281 168.332,-699.203 167.685,-700.114 166.981,-701.011 166.223,-701.891 165.415,-702.752 164.561,-703.592 163.666,-704.408 162.732,-705.199 161.764,-705.961 160.764,-706.694 159.737,-707.395 158.684,-708.061 157.61,-708.692 156.516,-709.285 155.405,-709.839 154.28,-710.353 153.142,-710.824 151.994,-711.252 150.837,-711.636 149.672,-711.973 148.501,-712.265 147.325,-712.509 146.145,-712.705 144.963,-712.852 143.779,-712.951 142.593,-713 141.407,-713 140.221,-712.951 139.037,-712.852 137.855,-712.705 136.675,-712.509 135.499,-712.265 134.328,-711.973 133.163,-711.636 132.006,-711.252 130.858,-710.824 129.72,-710.353 128.595,-709.839 127.484,-709.285 126.39,-708.692 125.316,-708.061 124.263,-707.395 123.236,-706.694 122.236,-705.961 121.268,-705.199 120.334,-704.408 119.439,-703.592 118.585,-702.752 117.777,-701.891 117.019,-701.011 116.315,-700.114 115.668,-699.203 115.082,-698.281 114.561,-697.35 114.11,-696.413 113.731,-695.471 113.429,-694.529 113.206,-693.587 113.066,-692.65 113.011,-691.719 113.044,-690.797 113.168,-689.886 113.383,-688.989 113.691,-688.109 114.094,-687.248 114.592,-686.408 115.185,-685.592 115.873,-684.801 116.654,-684.039 117.528,-683.306 118.493,-682.605 119.545,-681.939 120.683,-681.308 121.902,-680.715 123.2,-680.161 124.571,-679.647 126.011,-679.176 127.515,-678.748 129.077,-678.364 130.692,-678.027 132.352,-677.735 134.052,-677.491 135.784,-677.295 137.541,-677.148 139.317,-677.049 141.105,-677 142.895,-677 144.683,-677.049"/>
<text text-anchor="middle" x="142" y="-691.3" font-family="Times New Roman,serif" font-size="14.00">start</text>
</a>
</g>
</g>
<!-- cluster_cluster_cluster_&#45;220212124901982970686041060515781939772958695195304796365&#45;3431188338771875485 -->
<g id="node10" class="node"><title>cluster_cluster_cluster_&#45;220212124901982970686041060515781939772958695195304796365&#45;3431188338771875485</title>
<g id="a_node10"><a xlink:title="error_settings">
<path fill="cyan" stroke="black" d="M215.5,-215C215.5,-215 142.5,-215 142.5,-215 136.5,-215 130.5,-209 130.5,-203 130.5,-203 130.5,-179 130.5,-179 130.5,-173 136.5,-167 142.5,-167 142.5,-167 215.5,-167 215.5,-167 221.5,-167 227.5,-173 227.5,-179 227.5,-179 227.5,-203 227.5,-203 227.5,-209 221.5,-215 215.5,-215"/>
<text text-anchor="start" x="141" y="-197.8" font-family="Times New Roman,serif" font-size="14.00">error_settings</text>
<polygon fill="none" stroke="black" points="139,-171 139,-192 195,-192 195,-171 139,-171"/>
<text text-anchor="start" x="146" y="-177.8" font-family="Times New Roman,serif" font-size="14.00">default=</text>
<polygon fill="none" stroke="black" points="195,-171 195,-192 220,-192 220,-171 195,-171"/>
<text text-anchor="start" x="198" y="-177.8" font-family="Times New Roman,serif" font-size="14.00">{}</text>
</a>
</g>
</g>
<!-- cluster_cluster_cluster_&#45;22021212490198297068604106051578193977295869519530479636577532400&#45;&gt;cluster_cluster_cluster_&#45;220212124901982970686041060515781939772958695195304796365&#45;3431188338771875485 -->
<g id="edge13" class="edge"><title>cluster_cluster_cluster_&#45;22021212490198297068604106051578193977295869519530479636577532400&#45;&gt;cluster_cluster_cluster_&#45;220212124901982970686041060515781939772958695195304796365&#45;3431188338771875485</title>
<path fill="none" stroke="black" d="M143.667,-676.765C143.667,-676.765 143.667,-225.145 143.667,-225.145"/>
<polygon fill="black" stroke="black" points="147.167,-225.145 143.667,-215.145 140.167,-225.145 147.167,-225.145"/>
<polygon fill="none" stroke="black" points="81.1667,-450.455 81.1667,-471.455 131.167,-471.455 131.167,-450.455 81.1667,-450.455"/>
<text text-anchor="start" x="84.1667" y="-457.255" font-family="Times New Roman,serif" font-size="14.00">inp_id=</text>
<polygon fill="none" stroke="black" points="131.167,-450.455 131.167,-471.455 144.167,-471.455 144.167,-450.455 131.167,-450.455"/>
<text text-anchor="start" x="134.167" y="-457.255" font-family="Times New Roman,serif" font-size="14.00">0</text>
</g>
<!-- cluster_cluster_cluster_&#45;2202121249019829706860410605157819397729586951953047963654712647501736754553 -->
<g id="node15" class="node"><title>cluster_cluster_cluster_&#45;2202121249019829706860410605157819397729586951953047963654712647501736754553</title>
<g id="a_node15"><a xlink:title="A sequence of data.">
<path fill="cyan" stroke="black" d="M494,-569C494,-569 458,-569 458,-569 452,-569 446,-563 446,-557 446,-557 446,-545 446,-545 446,-539 452,-533 458,-533 458,-533 494,-533 494,-533 500,-533 506,-539 506,-545 506,-545 506,-557 506,-557 506,-563 500,-569 494,-569"/>
<text text-anchor="start" x="456.5" y="-546.8" font-family="Times New Roman,serif" font-size="14.00">wltp_h</text>
</a>
</g>
</g>
<!-- cluster_cluster_cluster_&#45;22021212490198297068604106051578193977295869519530479636577532400&#45;&gt;cluster_cluster_cluster_&#45;2202121249019829706860410605157819397729586951953047963654712647501736754553 -->
<g id="edge14" class="edge"><title>cluster_cluster_cluster_&#45;22021212490198297068604106051578193977295869519530479636577532400&#45;&gt;cluster_cluster_cluster_&#45;2202121249019829706860410605157819397729586951953047963654712647501736754553</title>
<path fill="none" stroke="black" d="M156.833,-678.4C156.833,-666.661 156.833,-653 156.833,-653 156.833,-653 476,-653 476,-653 476,-653 476,-579.236 476,-579.236"/>
<polygon fill="black" stroke="black" points="479.5,-579.236 476,-569.236 472.5,-579.236 479.5,-579.236"/>
<polygon fill="none" stroke="black" points="341.099,-652.5 341.099,-673.5 391.099,-673.5 391.099,-652.5 341.099,-652.5"/>
<text text-anchor="start" x="344.099" y="-659.3" font-family="Times New Roman,serif" font-size="14.00">inp_id=</text>
<polygon fill="none" stroke="black" points="391.099,-652.5 391.099,-673.5 404.099,-673.5 404.099,-652.5 391.099,-652.5"/>
<text text-anchor="start" x="394.099" y="-659.3" font-family="Times New Roman,serif" font-size="14.00">1</text>
</g>
<!-- cluster_cluster_cluster_&#45;220212124901982970686041060515781939772958695195304796365&#45;4779657526738643707 -->
<g id="node16" class="node"><title>cluster_cluster_cluster_&#45;220212124901982970686041060515781939772958695195304796365&#45;4779657526738643707</title>
<g id="a_node16"><a xlink:title="A sequence of data.">
<path fill="cyan" stroke="black" d="M98,-431C98,-431 66,-431 66,-431 60,-431 54,-425 54,-419 54,-419 54,-407 54,-407 54,-401 60,-395 66,-395 66,-395 98,-395 98,-395 104,-395 110,-401 110,-407 110,-407 110,-419 110,-419 110,-425 104,-431 98,-431"/>
<text text-anchor="start" x="64.5" y="-408.8" font-family="Times New Roman,serif" font-size="14.00">wltp_l</text>
</a>
</g>
</g>
<!-- cluster_cluster_cluster_&#45;22021212490198297068604106051578193977295869519530479636577532400&#45;&gt;cluster_cluster_cluster_&#45;220212124901982970686041060515781939772958695195304796365&#45;4779657526738643707 -->
<g id="edge15" class="edge"><title>cluster_cluster_cluster_&#45;22021212490198297068604106051578193977295869519530479636577532400&#45;&gt;cluster_cluster_cluster_&#45;220212124901982970686041060515781939772958695195304796365&#45;4779657526738643707</title>
<path fill="none" stroke="black" d="M122.25,-680.236C122.25,-622.212 122.25,-413 122.25,-413 122.25,-413 120.391,-413 120.391,-413"/>
<polygon fill="black" stroke="black" points="120.391,-409.5 110.391,-413 120.391,-416.5 120.391,-409.5"/>
<polygon fill="none" stroke="black" points="59.75,-545.188 59.75,-566.188 109.75,-566.188 109.75,-545.188 59.75,-545.188"/>
<text text-anchor="start" x="62.75" y="-551.988" font-family="Times New Roman,serif" font-size="14.00">inp_id=</text>
<polygon fill="none" stroke="black" points="109.75,-545.188 109.75,-566.188 122.75,-566.188 122.75,-545.188 109.75,-545.188"/>
<text text-anchor="start" x="112.75" y="-551.988" font-family="Times New Roman,serif" font-size="14.00">2</text>
</g>
<!-- cluster_cluster_cluster_&#45;220212124901982970686041060515781939772958695195304796365&#45;2181095411792409824 -->
<g id="node2" class="node"><title>cluster_cluster_cluster_&#45;220212124901982970686041060515781939772958695195304796365&#45;2181095411792409824</title>
<g id="a_node2"><a xlink:title="A sequence of data.">
<path fill="cyan" stroke="black" d="M347,-359C347,-359 247,-359 247,-359 241,-359 235,-353 235,-347 235,-347 235,-335 235,-335 235,-329 241,-323 247,-323 247,-323 347,-323 347,-323 353,-323 359,-329 359,-335 359,-335 359,-347 359,-347 359,-353 353,-359 347,-359"/>
<text text-anchor="start" x="245.5" y="-336.8" font-family="Times New Roman,serif" font-size="14.00">calibrated_models</text>
</a>
</g>
</g>
<!-- cluster_cluster_cluster_&#45;220212124901982970686041060515781939772958695195304796365&#45;7067757294929678007 -->
<g id="node3" class="node"><title>cluster_cluster_cluster_&#45;220212124901982970686041060515781939772958695195304796365&#45;7067757294929678007</title>
<g id="a_node3"><a xlink:href="./AM-wltp_h_errors/co2mpas.dispatcher.utils.dspmap_list.txt" xlink:title="Returns a new dict.">
<polygon fill="springgreen" stroke="black" points="331,-287 263,-287 263,-251 331,-251 331,-287"/>
<text text-anchor="start" x="273" y="-264.8" font-family="Times New Roman,serif" font-size="14.00">map_list</text>
</a>
</g>
</g>
<!-- cluster_cluster_cluster_&#45;220212124901982970686041060515781939772958695195304796365&#45;2181095411792409824&#45;&gt;cluster_cluster_cluster_&#45;220212124901982970686041060515781939772958695195304796365&#45;7067757294929678007 -->
<g id="edge1" class="edge"><title>cluster_cluster_cluster_&#45;220212124901982970686041060515781939772958695195304796365&#45;2181095411792409824&#45;&gt;cluster_cluster_cluster_&#45;220212124901982970686041060515781939772958695195304796365&#45;7067757294929678007</title>
<path fill="none" stroke="black" d="M297,-322.831C297,-322.831 297,-297.413 297,-297.413"/>
<polygon fill="black" stroke="black" points="300.5,-297.413 297,-287.413 293.5,-297.413 300.5,-297.413"/>
</g>
<!-- cluster_cluster_cluster_&#45;2202121249019829706860410605157819397729586951953047963654298277636058170859 -->
<g id="node4" class="node"><title>cluster_cluster_cluster_&#45;2202121249019829706860410605157819397729586951953047963654298277636058170859</title>
<g id="a_node4"><a xlink:href="./AM-wltp_h_errors/co2mpas.dispatcher.utils.dspmap_list.txt" xlink:title="Returns a new dict.">
<polygon fill="springgreen" stroke="black" points="114,-287 22,-287 22,-251 114,-251 114,-287"/>
<text text-anchor="start" x="32.5" y="-264.8" font-family="Times New Roman,serif" font-size="14.00">map_list&lt;0&gt;</text>
</a>
</g>
</g>
<!-- cluster_cluster_cluster_&#45;220212124901982970686041060515781939772958695195304796365&#45;2181095411792409824&#45;&gt;cluster_cluster_cluster_&#45;2202121249019829706860410605157819397729586951953047963654298277636058170859 -->
<g id="edge2" class="edge"><title>cluster_cluster_cluster_&#45;220212124901982970686041060515781939772958695195304796365&#45;2181095411792409824&#45;&gt;cluster_cluster_cluster_&#45;2202121249019829706860410605157819397729586951953047963654298277636058170859</title>
<path fill="none" stroke="black" d="M242.5,-322.831C242.5,-301.502 242.5,-269 242.5,-269 242.5,-269 124.305,-269 124.305,-269"/>
<polygon fill="black" stroke="black" points="124.305,-265.5 114.305,-269 124.305,-272.5 124.305,-265.5"/>
</g>
<!-- cluster_cluster_cluster_&#45;2202121249019829706860410605157819397729586951953047963657702748476113788344 -->
<g id="node11" class="node"><title>cluster_cluster_cluster_&#45;2202121249019829706860410605157819397729586951953047963657702748476113788344</title>
<g id="a_node11"><a xlink:title="A unique dict with new values.">
<path fill="cyan" stroke="black" d="M328,-209C328,-209 262,-209 262,-209 256,-209 250,-203 250,-197 250,-197 250,-185 250,-185 250,-179 256,-173 262,-173 262,-173 328,-173 328,-173 334,-173 340,-179 340,-185 340,-185 340,-197 340,-197 340,-203 334,-209 328,-209"/>
<text text-anchor="start" x="260" y="-186.8" font-family="Times New Roman,serif" font-size="14.00">input/wltp_h</text>
</a>
</g>
</g>
<!-- cluster_cluster_cluster_&#45;220212124901982970686041060515781939772958695195304796365&#45;7067757294929678007&#45;&gt;cluster_cluster_cluster_&#45;2202121249019829706860410605157819397729586951953047963657702748476113788344 -->
<g id="edge3" class="edge"><title>cluster_cluster_cluster_&#45;220212124901982970686041060515781939772958695195304796365&#45;7067757294929678007&#45;&gt;cluster_cluster_cluster_&#45;2202121249019829706860410605157819397729586951953047963657702748476113788344</title>
<path fill="none" stroke="black" d="M297,-250.909C297,-250.909 297,-219.263 297,-219.263"/>
<polygon fill="black" stroke="black" points="300.5,-219.263 297,-209.263 293.5,-219.263 300.5,-219.263"/>
</g>
<!-- cluster_cluster_cluster_&#45;2202121249019829706860410605157819397729586951953047963654919105944985796052 -->
<g id="node12" class="node"><title>cluster_cluster_cluster_&#45;2202121249019829706860410605157819397729586951953047963654919105944985796052</title>
<g id="a_node12"><a xlink:title="A unique dict with new values.">
<path fill="cyan" stroke="black" d="M100,-209C100,-209 36,-209 36,-209 30,-209 24,-203 24,-197 24,-197 24,-185 24,-185 24,-179 30,-173 36,-173 36,-173 100,-173 100,-173 106,-173 112,-179 112,-185 112,-185 112,-197 112,-197 112,-203 106,-209 100,-209"/>
<text text-anchor="start" x="34.5" y="-186.8" font-family="Times New Roman,serif" font-size="14.00">input/wltp_l</text>
</a>
</g>
</g>
<!-- cluster_cluster_cluster_&#45;2202121249019829706860410605157819397729586951953047963654298277636058170859&#45;&gt;cluster_cluster_cluster_&#45;2202121249019829706860410605157819397729586951953047963654919105944985796052 -->
<g id="edge4" class="edge"><title>cluster_cluster_cluster_&#45;2202121249019829706860410605157819397729586951953047963654298277636058170859&#45;&gt;cluster_cluster_cluster_&#45;2202121249019829706860410605157819397729586951953047963654919105944985796052</title>
<path fill="none" stroke="black" d="M68,-250.909C68,-250.909 68,-219.263 68,-219.263"/>
<polygon fill="black" stroke="black" points="71.5001,-219.263 68,-209.263 64.5001,-219.263 71.5001,-219.263"/>
</g>
<!-- cluster_cluster_cluster_&#45;220212124901982970686041060515781939772958695195304796365780796865716420896 -->
<g id="node5" class="node"><title>cluster_cluster_cluster_&#45;220212124901982970686041060515781939772958695195304796365780796865716420896</title>
<g id="a_node5"><a xlink:href="./AM-wltp_h_errors/AM-wltp_h_error_vs_wltp_h.gv.svg" xlink:title="Calculates the error of calibrated model of a reference.">
<polygon fill="yellow" stroke="black" points="367,-131 199,-131 199,-95 373,-95 373,-125 367,-131"/>
<polyline fill="none" stroke="black" points="367,-131 367,-125 "/>
<polyline fill="none" stroke="black" points="373,-125 367,-125 "/>
<text text-anchor="start" x="209" y="-108.8" font-family="Times New Roman,serif" font-size="14.00">AM&#45;wltp_h error vs wltp_h</text>
</a>
</g>
</g>
<!-- cluster_cluster_cluster_&#45;220212124901982970686041060515781939772958695195304796365&#45;2427563387242055365 -->
<g id="node8" class="node"><title>cluster_cluster_cluster_&#45;220212124901982970686041060515781939772958695195304796365&#45;2427563387242055365</title>
<g id="a_node8"><a xlink:title="error/wltp_h">
<path fill="cyan" stroke="black" d="M319,-59C319,-59 253,-59 253,-59 247,-59 241,-53 241,-47 241,-47 241,-35 241,-35 241,-29 247,-23 253,-23 253,-23 319,-23 319,-23 325,-23 331,-29 331,-35 331,-35 331,-47 331,-47 331,-53 325,-59 319,-59"/>
<text text-anchor="start" x="251" y="-36.8" font-family="Times New Roman,serif" font-size="14.00">error/wltp_h</text>
</a>
</g>
</g>
<!-- cluster_cluster_cluster_&#45;220212124901982970686041060515781939772958695195304796365780796865716420896&#45;&gt;cluster_cluster_cluster_&#45;220212124901982970686041060515781939772958695195304796365&#45;2427563387242055365 -->
<g id="edge5" class="edge"><title>cluster_cluster_cluster_&#45;220212124901982970686041060515781939772958695195304796365780796865716420896&#45;&gt;cluster_cluster_cluster_&#45;220212124901982970686041060515781939772958695195304796365&#45;2427563387242055365</title>
<path fill="none" stroke="black" d="M286,-94.8314C286,-94.8314 286,-69.4133 286,-69.4133"/>
<polygon fill="black" stroke="black" points="289.5,-69.4132 286,-59.4133 282.5,-69.4133 289.5,-69.4132"/>
</g>
<!-- cluster_cluster_cluster_&#45;220212124901982970686041060515781939772958695195304796365&#45;7657194543931302675 -->
<g id="node6" class="node"><title>cluster_cluster_cluster_&#45;220212124901982970686041060515781939772958695195304796365&#45;7657194543931302675</title>
<g id="a_node6"><a xlink:href="./AM-wltp_h_errors/AM-wltp_h_error_vs_wltp_l.gv.svg" xlink:title="Calculates the error of calibrated model of a reference.">
<polygon fill="yellow" stroke="black" points="166,-131 0,-131 0,-95 172,-95 172,-125 166,-131"/>
<polyline fill="none" stroke="black" points="166,-131 166,-125 "/>
<polyline fill="none" stroke="black" points="172,-125 166,-125 "/>
<text text-anchor="start" x="10.5" y="-108.8" font-family="Times New Roman,serif" font-size="14.00">AM&#45;wltp_h error vs wltp_l</text>
</a>
</g>
</g>
<!-- cluster_cluster_cluster_&#45;220212124901982970686041060515781939772958695195304796365&#45;7302022848986384642 -->
<g id="node9" class="node"><title>cluster_cluster_cluster_&#45;220212124901982970686041060515781939772958695195304796365&#45;7302022848986384642</title>
<g id="a_node9"><a xlink:title="error/wltp_l">
<path fill="cyan" stroke="black" d="M117,-59C117,-59 55,-59 55,-59 49,-59 43,-53 43,-47 43,-47 43,-35 43,-35 43,-29 49,-23 55,-23 55,-23 117,-23 117,-23 123,-23 129,-29 129,-35 129,-35 129,-47 129,-47 129,-53 123,-59 117,-59"/>
<text text-anchor="start" x="53" y="-36.8" font-family="Times New Roman,serif" font-size="14.00">error/wltp_l</text>
</a>
</g>
</g>
<!-- cluster_cluster_cluster_&#45;220212124901982970686041060515781939772958695195304796365&#45;7657194543931302675&#45;&gt;cluster_cluster_cluster_&#45;220212124901982970686041060515781939772958695195304796365&#45;7302022848986384642 -->
<g id="edge6" class="edge"><title>cluster_cluster_cluster_&#45;220212124901982970686041060515781939772958695195304796365&#45;7657194543931302675&#45;&gt;cluster_cluster_cluster_&#45;220212124901982970686041060515781939772958695195304796365&#45;7302022848986384642</title>
<path fill="none" stroke="black" d="M86,-94.8314C86,-94.8314 86,-69.4133 86,-69.4133"/>
<polygon fill="black" stroke="black" points="89.5001,-69.4132 86,-59.4133 82.5001,-69.4133 89.5001,-69.4132"/>
</g>
<!-- cluster_cluster_cluster_&#45;220212124901982970686041060515781939772958695195304796365&#45;1177382896934224609 -->
<g id="node7" class="node"><title>cluster_cluster_cluster_&#45;220212124901982970686041060515781939772958695195304796365&#45;1177382896934224609</title>
<g id="a_node7"><a xlink:title="data_in">
<path fill="cyan" stroke="black" d="M289.5,-719C289.5,-719 200.5,-719 200.5,-719 194.5,-719 188.5,-713 188.5,-707 188.5,-707 188.5,-683 188.5,-683 188.5,-677 194.5,-671 200.5,-671 200.5,-671 289.5,-671 289.5,-671 295.5,-671 301.5,-677 301.5,-683 301.5,-683 301.5,-707 301.5,-707 301.5,-713 295.5,-719 289.5,-719"/>
<text text-anchor="start" x="225" y="-701.8" font-family="Times New Roman,serif" font-size="14.00">data_in</text>
<polygon fill="none" stroke="black" points="197,-675 197,-696 249,-696 249,-675 197,-675"/>
<text text-anchor="start" x="200" y="-681.8" font-family="Times New Roman,serif" font-size="14.00">default=</text>
<polygon fill="none" stroke="black" points="249,-675 249,-696 294,-696 294,-675 249,-675"/>
<text text-anchor="start" x="252" y="-681.8" font-family="Times New Roman,serif" font-size="14.00">wltp_h</text>
</a>
</g>
</g>
<!-- cluster_cluster_cluster_&#45;220212124901982970686041060515781939772958695195304796365&#45;3431188338771875485&#45;&gt;cluster_cluster_cluster_&#45;220212124901982970686041060515781939772958695195304796365780796865716420896 -->
<g id="edge7" class="edge"><title>cluster_cluster_cluster_&#45;220212124901982970686041060515781939772958695195304796365&#45;3431188338771875485&#45;&gt;cluster_cluster_cluster_&#45;220212124901982970686041060515781939772958695195304796365780796865716420896</title>
<path fill="none" stroke="black" d="M213.25,-166.748C213.25,-166.748 213.25,-141.288 213.25,-141.288"/>
<polygon fill="black" stroke="black" points="216.75,-141.287 213.25,-131.288 209.75,-141.288 216.75,-141.287"/>
</g>
<!-- cluster_cluster_cluster_&#45;220212124901982970686041060515781939772958695195304796365&#45;3431188338771875485&#45;&gt;cluster_cluster_cluster_&#45;220212124901982970686041060515781939772958695195304796365&#45;7657194543931302675 -->
<g id="edge8" class="edge"><title>cluster_cluster_cluster_&#45;220212124901982970686041060515781939772958695195304796365&#45;3431188338771875485&#45;&gt;cluster_cluster_cluster_&#45;220212124901982970686041060515781939772958695195304796365&#45;7657194543931302675</title>
<path fill="none" stroke="black" d="M151.25,-166.748C151.25,-166.748 151.25,-141.288 151.25,-141.288"/>
<polygon fill="black" stroke="black" points="154.75,-141.287 151.25,-131.288 147.75,-141.288 154.75,-141.287"/>
</g>
<!-- cluster_cluster_cluster_&#45;2202121249019829706860410605157819397729586951953047963657702748476113788344&#45;&gt;cluster_cluster_cluster_&#45;220212124901982970686041060515781939772958695195304796365780796865716420896 -->
<g id="edge9" class="edge"><title>cluster_cluster_cluster_&#45;2202121249019829706860410605157819397729586951953047963657702748476113788344&#45;&gt;cluster_cluster_cluster_&#45;220212124901982970686041060515781939772958695195304796365780796865716420896</title>
<path fill="none" stroke="black" d="M295,-172.909C295,-172.909 295,-141.263 295,-141.263"/>
<polygon fill="black" stroke="black" points="298.5,-141.263 295,-131.263 291.5,-141.263 298.5,-141.263"/>
</g>
<!-- cluster_cluster_cluster_&#45;2202121249019829706860410605157819397729586951953047963654919105944985796052&#45;&gt;cluster_cluster_cluster_&#45;220212124901982970686041060515781939772958695195304796365&#45;7657194543931302675 -->
<g id="edge10" class="edge"><title>cluster_cluster_cluster_&#45;2202121249019829706860410605157819397729586951953047963654919105944985796052&#45;&gt;cluster_cluster_cluster_&#45;220212124901982970686041060515781939772958695195304796365&#45;7657194543931302675</title>
<path fill="none" stroke="black" d="M68,-172.909C68,-172.909 68,-141.263 68,-141.263"/>
<polygon fill="black" stroke="black" points="71.5001,-141.263 68,-131.263 64.5001,-141.263 71.5001,-141.263"/>
</g>
<!-- cluster_cluster_cluster_&#45;220212124901982970686041060515781939772958695195304796365&#45;3274255707223734200 -->
<g id="node13" class="node"><title>cluster_cluster_cluster_&#45;220212124901982970686041060515781939772958695195304796365&#45;3274255707223734200</title>
<g id="a_node13"><a xlink:title="Keys to select.">
<path fill="cyan" stroke="black" d="M416,-635C416,-635 182,-635 182,-635 176,-635 170,-629 170,-623 170,-623 170,-479 170,-479 170,-473 176,-467 182,-467 182,-467 416,-467 416,-467 422,-467 428,-473 428,-479 428,-479 428,-623 428,-623 428,-629 422,-635 416,-635"/>
<text text-anchor="start" x="278.5" y="-617.8" font-family="Times New Roman,serif" font-size="14.00">models</text>
<polygon fill="none" stroke="black" points="178,-471 178,-612 230,-612 230,-471 178,-471"/>
<text text-anchor="start" x="181" y="-537.8" font-family="Times New Roman,serif" font-size="14.00">default=</text>
<polygon fill="none" stroke="black" points="230,-471 230,-612 420,-612 420,-471 230,-471"/>
<text text-anchor="start" x="251" y="-597.8" font-family="Times New Roman,serif" font-size="14.00">[&#39;alternator_status_model&#39;,</text>
<text text-anchor="start" x="243" y="-582.8" font-family="Times New Roman,serif" font-size="14.00"> &#39;alternator_nominal_voltage&#39;,</text>
<text text-anchor="start" x="248" y="-567.8" font-family="Times New Roman,serif" font-size="14.00"> &#39;alternator_current_model&#39;,</text>
<text text-anchor="start" x="233" y="-552.8" font-family="Times New Roman,serif" font-size="14.00"> &#39;max_battery_charging_current&#39;,</text>
<text text-anchor="start" x="280" y="-537.8" font-family="Times New Roman,serif" font-size="14.00"> &#39;start_demand&#39;,</text>
<text text-anchor="start" x="282.5" y="-522.8" font-family="Times New Roman,serif" font-size="14.00"> &#39;electric_load&#39;,</text>
<text text-anchor="start" x="245" y="-507.8" font-family="Times New Roman,serif" font-size="14.00"> &#39;alternator_nominal_power&#39;,</text>
<text text-anchor="start" x="261.5" y="-492.8" font-family="Times New Roman,serif" font-size="14.00"> &#39;alternator_efficiency&#39;,</text>
<text text-anchor="start" x="240.5" y="-477.8" font-family="Times New Roman,serif" font-size="14.00"> &#39;alternator_initialization_time&#39;]</text>
</a>
</g>
</g>
<!-- cluster_cluster_cluster_&#45;220212124901982970686041060515781939772958695195304796365&#45;8800720961443810657 -->
<g id="node14" class="node"><title>cluster_cluster_cluster_&#45;220212124901982970686041060515781939772958695195304796365&#45;8800720961443810657</title>
<g id="a_node14"><a xlink:href="./AM-wltp_h_errors/AM-wltp_h_error_vs_wltp_h/select_inputs0.txt" xlink:title="Selects the chosen dictionary keys from the given dictionary.">
<polygon fill="springgreen" stroke="black" points="349,-431 249,-431 249,-395 349,-395 349,-431"/>
<text text-anchor="start" x="259" y="-408.8" font-family="Times New Roman,serif" font-size="14.00">select_models</text>
</a>
</g>
</g>
<!-- cluster_cluster_cluster_&#45;220212124901982970686041060515781939772958695195304796365&#45;3274255707223734200&#45;&gt;cluster_cluster_cluster_&#45;220212124901982970686041060515781939772958695195304796365&#45;8800720961443810657 -->
<g id="edge11" class="edge"><title>cluster_cluster_cluster_&#45;220212124901982970686041060515781939772958695195304796365&#45;3274255707223734200&#45;&gt;cluster_cluster_cluster_&#45;220212124901982970686041060515781939772958695195304796365&#45;8800720961443810657</title>
<path fill="none" stroke="black" d="M299,-466.75C299,-466.75 299,-441.473 299,-441.473"/>
<polygon fill="black" stroke="black" points="302.5,-441.473 299,-431.473 295.5,-441.473 302.5,-441.473"/>
</g>
<!-- cluster_cluster_cluster_&#45;220212124901982970686041060515781939772958695195304796365&#45;8800720961443810657&#45;&gt;cluster_cluster_cluster_&#45;220212124901982970686041060515781939772958695195304796365&#45;2181095411792409824 -->
<g id="edge12" class="edge"><title>cluster_cluster_cluster_&#45;220212124901982970686041060515781939772958695195304796365&#45;8800720961443810657&#45;&gt;cluster_cluster_cluster_&#45;220212124901982970686041060515781939772958695195304796365&#45;2181095411792409824</title>
<path fill="none" stroke="black" d="M299,-394.831C299,-394.831 299,-369.413 299,-369.413"/>
<polygon fill="black" stroke="black" points="302.5,-369.413 299,-359.413 295.5,-369.413 302.5,-369.413"/>
</g>
<!-- cluster_cluster_cluster_&#45;2202121249019829706860410605157819397729586951953047963654712647501736754553&#45;&gt;cluster_cluster_cluster_&#45;220212124901982970686041060515781939772958695195304796365&#45;7067757294929678007 -->
<g id="edge16" class="edge"><title>cluster_cluster_cluster_&#45;2202121249019829706860410605157819397729586951953047963654712647501736754553&#45;&gt;cluster_cluster_cluster_&#45;220212124901982970686041060515781939772958695195304796365&#45;7067757294929678007</title>
<path fill="none" stroke="black" d="M486,-532.931C486,-470.69 486,-269 486,-269 486,-269 341.226,-269 341.226,-269"/>
<polygon fill="black" stroke="black" points="341.227,-265.5 331.226,-269 341.226,-272.5 341.227,-265.5"/>
</g>
<!-- cluster_cluster_cluster_&#45;2202121249019829706860410605157819397729586951953047963654712647501736754553&#45;&gt;cluster_cluster_cluster_&#45;220212124901982970686041060515781939772958695195304796365&#45;8800720961443810657 -->
<g id="edge17" class="edge"><title>cluster_cluster_cluster_&#45;2202121249019829706860410605157819397729586951953047963654712647501736754553&#45;&gt;cluster_cluster_cluster_&#45;220212124901982970686041060515781939772958695195304796365&#45;8800720961443810657</title>
<path fill="none" stroke="black" d="M466,-532.959C466,-495.552 466,-413 466,-413 466,-413 359.106,-413 359.106,-413"/>
<polygon fill="black" stroke="black" points="359.106,-409.5 349.106,-413 359.105,-416.5 359.106,-409.5"/>
</g>
<!-- cluster_cluster_cluster_&#45;220212124901982970686041060515781939772958695195304796365&#45;4779657526738643707&#45;&gt;cluster_cluster_cluster_&#45;2202121249019829706860410605157819397729586951953047963654298277636058170859 -->
<g id="edge18" class="edge"><title>cluster_cluster_cluster_&#45;220212124901982970686041060515781939772958695195304796365&#45;4779657526738643707&#45;&gt;cluster_cluster_cluster_&#45;2202121249019829706860410605157819397729586951953047963654298277636058170859</title>
<path fill="none" stroke="black" d="M82,-394.762C82,-394.762 82,-297.09 82,-297.09"/>
<polygon fill="black" stroke="black" points="85.5001,-297.09 82,-287.09 78.5001,-297.09 85.5001,-297.09"/>
</g>
</g>
</svg>
