<?xml version="1.0" encoding="UTF-8" standalone="no"?>
<!DOCTYPE svg PUBLIC "-//W3C//DTD SVG 1.1//EN"
 "http://www.w3.org/Graphics/SVG/1.1/DTD/svg11.dtd">
<!-- Generated by graphviz version 2.38.0 (20140413.2041)
 -->
<!-- Title: cluster_AM&#45;wltp_l errors Pages: 1 -->
<svg width="500pt" height="727pt"
 viewBox="0.00 0.00 500.00 727.00" xmlns="http://www.w3.org/2000/svg" xmlns:xlink="http://www.w3.org/1999/xlink">
<g id="graph0" class="graph" transform="scale(1 1) rotate(0) translate(4 723)">
<title>cluster_AM&#45;wltp_l errors</title>
<polygon fill="white" stroke="none" points="-4,4 -4,-723 496,-723 496,4 -4,4"/>
<text text-anchor="start" x="197" y="-7.8" font-family="Times New Roman,serif" font-size="14.00">AM&#45;wltp_l errors</text>
<!-- cluster_cluster_cluster_&#45;22021212490198297068604106051578193977&#45;417421260726540492877532400 -->
<g id="node1" class="node"><title>cluster_cluster_cluster_&#45;22021212490198297068604106051578193977&#45;417421260726540492877532400</title>
<g id="a_node1"><a xlink:title="start">
<polygon fill="red" stroke="black" points="134.683,-677.049 136.459,-677.148 138.216,-677.295 139.948,-677.491 141.648,-677.735 143.308,-678.027 144.923,-678.364 146.485,-678.748 147.989,-679.176 149.429,-679.647 150.8,-680.161 152.098,-680.715 153.317,-681.308 154.455,-681.939 155.507,-682.605 156.472,-683.306 157.346,-684.039 158.127,-684.801 158.815,-685.592 159.408,-686.408 159.906,-687.248 160.309,-688.109 160.617,-688.989 160.832,-689.886 160.956,-690.797 160.989,-691.719 160.934,-692.65 160.794,-693.587 160.571,-694.529 160.269,-695.471 159.89,-696.413 159.439,-697.35 158.918,-698.281 158.332,-699.203 157.685,-700.114 156.981,-701.011 156.223,-701.891 155.415,-702.752 154.561,-703.592 153.666,-704.408 152.732,-705.199 151.764,-705.961 150.764,-706.694 149.737,-707.395 148.684,-708.061 147.61,-708.692 146.516,-709.285 145.405,-709.839 144.28,-710.353 143.142,-710.824 141.994,-711.252 140.837,-711.636 139.672,-711.973 138.501,-712.265 137.325,-712.509 136.145,-712.705 134.963,-712.852 133.779,-712.951 132.593,-713 131.407,-713 130.221,-712.951 129.037,-712.852 127.855,-712.705 126.675,-712.509 125.499,-712.265 124.328,-711.973 123.163,-711.636 122.006,-711.252 120.858,-710.824 119.72,-710.353 118.595,-709.839 117.484,-709.285 116.39,-708.692 115.316,-708.061 114.263,-707.395 113.236,-706.694 112.236,-705.961 111.268,-705.199 110.334,-704.408 109.439,-703.592 108.585,-702.752 107.777,-701.891 107.019,-701.011 106.315,-700.114 105.668,-699.203 105.082,-698.281 104.561,-697.35 104.11,-696.413 103.731,-695.471 103.429,-694.529 103.206,-693.587 103.066,-692.65 103.011,-691.719 103.044,-690.797 103.168,-689.886 103.383,-688.989 103.691,-688.109 104.094,-687.248 104.592,-686.408 105.185,-685.592 105.873,-684.801 106.654,-684.039 107.528,-683.306 108.493,-682.605 109.545,-681.939 110.683,-681.308 111.902,-680.715 113.2,-680.161 114.571,-679.647 116.011,-679.176 117.515,-678.748 119.077,-678.364 120.692,-678.027 122.352,-677.735 124.052,-677.491 125.784,-677.295 127.541,-677.148 129.317,-677.049 131.105,-677 132.895,-677 134.683,-677.049"/>
<text text-anchor="middle" x="132" y="-691.3" font-family="Times New Roman,serif" font-size="14.00">start</text>
</a>
</g>
</g>
<!-- cluster_cluster_cluster_&#45;22021212490198297068604106051578193977&#45;4174212607265404928&#45;3431188338771875485 -->
<g id="node10" class="node"><title>cluster_cluster_cluster_&#45;22021212490198297068604106051578193977&#45;4174212607265404928&#45;3431188338771875485</title>
<g id="a_node10"><a xlink:title="error_settings">
<path fill="cyan" stroke="black" d="M217.5,-215C217.5,-215 144.5,-215 144.5,-215 138.5,-215 132.5,-209 132.5,-203 132.5,-203 132.5,-179 132.5,-179 132.5,-173 138.5,-167 144.5,-167 144.5,-167 217.5,-167 217.5,-167 223.5,-167 229.5,-173 229.5,-179 229.5,-179 229.5,-203 229.5,-203 229.5,-209 223.5,-215 217.5,-215"/>
<text text-anchor="start" x="143" y="-197.8" font-family="Times New Roman,serif" font-size="14.00">error_settings</text>
<polygon fill="none" stroke="black" points="141,-171 141,-192 197,-192 197,-171 141,-171"/>
<text text-anchor="start" x="148" y="-177.8" font-family="Times New Roman,serif" font-size="14.00">default=</text>
<polygon fill="none" stroke="black" points="197,-171 197,-192 222,-192 222,-171 197,-171"/>
<text text-anchor="start" x="200" y="-177.8" font-family="Times New Roman,serif" font-size="14.00">{}</text>
</a>
</g>
</g>
<!-- cluster_cluster_cluster_&#45;22021212490198297068604106051578193977&#45;417421260726540492877532400&#45;&gt;cluster_cluster_cluster_&#45;22021212490198297068604106051578193977&#45;4174212607265404928&#45;3431188338771875485 -->
<g id="edge13" class="edge"><title>cluster_cluster_cluster_&#45;22021212490198297068604106051578193977&#45;417421260726540492877532400&#45;&gt;cluster_cluster_cluster_&#45;22021212490198297068604106051578193977&#45;4174212607265404928&#45;3431188338771875485</title>
<path fill="none" stroke="black" d="M141.667,-677.651C141.667,-677.651 141.667,-225.298 141.667,-225.298"/>
<polygon fill="black" stroke="black" points="145.167,-225.298 141.667,-215.298 138.167,-225.298 145.167,-225.298"/>
<polygon fill="none" stroke="black" points="79.1667,-450.974 79.1667,-471.974 129.167,-471.974 129.167,-450.974 79.1667,-450.974"/>
<text text-anchor="start" x="82.1667" y="-457.774" font-family="Times New Roman,serif" font-size="14.00">inp_id=</text>
<polygon fill="none" stroke="black" points="129.167,-450.974 129.167,-471.974 142.167,-471.974 142.167,-450.974 129.167,-450.974"/>
<text text-anchor="start" x="132.167" y="-457.774" font-family="Times New Roman,serif" font-size="14.00">0</text>
</g>
<!-- cluster_cluster_cluster_&#45;22021212490198297068604106051578193977&#45;41742126072654049284712647501736754553 -->
<g id="node15" class="node"><title>cluster_cluster_cluster_&#45;22021212490198297068604106051578193977&#45;41742126072654049284712647501736754553</title>
<g id="a_node15"><a xlink:title="A sequence of data.">
<path fill="cyan" stroke="black" d="M91,-431C91,-431 55,-431 55,-431 49,-431 43,-425 43,-419 43,-419 43,-407 43,-407 43,-401 49,-395 55,-395 55,-395 91,-395 91,-395 97,-395 103,-401 103,-407 103,-407 103,-419 103,-419 103,-425 97,-431 91,-431"/>
<text text-anchor="start" x="53.5" y="-408.8" font-family="Times New Roman,serif" font-size="14.00">wltp_h</text>
</a>
</g>
</g>
<!-- cluster_cluster_cluster_&#45;22021212490198297068604106051578193977&#45;417421260726540492877532400&#45;&gt;cluster_cluster_cluster_&#45;22021212490198297068604106051578193977&#45;41742126072654049284712647501736754553 -->
<g id="edge14" class="edge"><title>cluster_cluster_cluster_&#45;22021212490198297068604106051578193977&#45;417421260726540492877532400&#45;&gt;cluster_cluster_cluster_&#45;22021212490198297068604106051578193977&#45;41742126072654049284712647501736754553</title>
<path fill="none" stroke="black" d="M109,-682.15C109,-626.983 109,-413 109,-413 109,-413 108.406,-413 108.406,-413"/>
<polygon fill="black" stroke="black" points="113.055,-409.5 103.055,-413 113.055,-416.5 113.055,-409.5"/>
<polygon fill="none" stroke="black" points="46.5,-546.778 46.5,-567.778 96.5,-567.778 96.5,-546.778 46.5,-546.778"/>
<text text-anchor="start" x="49.5" y="-553.578" font-family="Times New Roman,serif" font-size="14.00">inp_id=</text>
<polygon fill="none" stroke="black" points="96.5,-546.778 96.5,-567.778 109.5,-567.778 109.5,-546.778 96.5,-546.778"/>
<text text-anchor="start" x="99.5" y="-553.578" font-family="Times New Roman,serif" font-size="14.00">2</text>
</g>
<!-- cluster_cluster_cluster_&#45;22021212490198297068604106051578193977&#45;4174212607265404928&#45;4779657526738643707 -->
<g id="node16" class="node"><title>cluster_cluster_cluster_&#45;22021212490198297068604106051578193977&#45;4174212607265404928&#45;4779657526738643707</title>
<g id="a_node16"><a xlink:title="A sequence of data.">
<path fill="cyan" stroke="black" d="M480,-569C480,-569 448,-569 448,-569 442,-569 436,-563 436,-557 436,-557 436,-545 436,-545 436,-539 442,-533 448,-533 448,-533 480,-533 480,-533 486,-533 492,-539 492,-545 492,-545 492,-557 492,-557 492,-563 486,-569 480,-569"/>
<text text-anchor="start" x="446.5" y="-546.8" font-family="Times New Roman,serif" font-size="14.00">wltp_l</text>
</a>
</g>
</g>
<!-- cluster_cluster_cluster_&#45;22021212490198297068604106051578193977&#45;417421260726540492877532400&#45;&gt;cluster_cluster_cluster_&#45;22021212490198297068604106051578193977&#45;4174212607265404928&#45;4779657526738643707 -->
<g id="edge15" class="edge"><title>cluster_cluster_cluster_&#45;22021212490198297068604106051578193977&#45;417421260726540492877532400&#45;&gt;cluster_cluster_cluster_&#45;22021212490198297068604106051578193977&#45;4174212607265404928&#45;4779657526738643707</title>
<path fill="none" stroke="black" d="M150.833,-679.837C150.833,-667.807 150.833,-653 150.833,-653 150.833,-653 464,-653 464,-653 464,-653 464,-579.236 464,-579.236"/>
<polygon fill="black" stroke="black" points="467.5,-579.236 464,-569.236 460.5,-579.236 467.5,-579.236"/>
<polygon fill="none" stroke="black" points="331.38,-652.5 331.38,-673.5 381.38,-673.5 381.38,-652.5 331.38,-652.5"/>
<text text-anchor="start" x="334.38" y="-659.3" font-family="Times New Roman,serif" font-size="14.00">inp_id=</text>
<polygon fill="none" stroke="black" points="381.38,-652.5 381.38,-673.5 394.38,-673.5 394.38,-652.5 381.38,-652.5"/>
<text text-anchor="start" x="384.38" y="-659.3" font-family="Times New Roman,serif" font-size="14.00">1</text>
</g>
<!-- cluster_cluster_cluster_&#45;22021212490198297068604106051578193977&#45;4174212607265404928&#45;2181095411792409824 -->
<g id="node2" class="node"><title>cluster_cluster_cluster_&#45;22021212490198297068604106051578193977&#45;4174212607265404928&#45;2181095411792409824</title>
<g id="a_node2"><a xlink:title="A sequence of data.">
<path fill="cyan" stroke="black" d="M340,-359C340,-359 240,-359 240,-359 234,-359 228,-353 228,-347 228,-347 228,-335 228,-335 228,-329 234,-323 240,-323 240,-323 340,-323 340,-323 346,-323 352,-329 352,-335 352,-335 352,-347 352,-347 352,-353 346,-359 340,-359"/>
<text text-anchor="start" x="238.5" y="-336.8" font-family="Times New Roman,serif" font-size="14.00">calibrated_models</text>
</a>
</g>
</g>
<!-- cluster_cluster_cluster_&#45;22021212490198297068604106051578193977&#45;4174212607265404928&#45;7067757294929678007 -->
<g id="node3" class="node"><title>cluster_cluster_cluster_&#45;22021212490198297068604106051578193977&#45;4174212607265404928&#45;7067757294929678007</title>
<g id="a_node3"><a xlink:href="./AM-wltp_h_errors/co2mpas.dispatcher.utils.dspmap_list.txt" xlink:title="Returns a new dict.">
<polygon fill="springgreen" stroke="black" points="104,-287 36,-287 36,-251 104,-251 104,-287"/>
<text text-anchor="start" x="46" y="-264.8" font-family="Times New Roman,serif" font-size="14.00">map_list</text>
</a>
</g>
</g>
<!-- cluster_cluster_cluster_&#45;22021212490198297068604106051578193977&#45;4174212607265404928&#45;2181095411792409824&#45;&gt;cluster_cluster_cluster_&#45;22021212490198297068604106051578193977&#45;4174212607265404928&#45;7067757294929678007 -->
<g id="edge1" class="edge"><title>cluster_cluster_cluster_&#45;22021212490198297068604106051578193977&#45;4174212607265404928&#45;2181095411792409824&#45;&gt;cluster_cluster_cluster_&#45;22021212490198297068604106051578193977&#45;4174212607265404928&#45;7067757294929678007</title>
<path fill="none" stroke="black" d="M237.75,-322.831C237.75,-301.502 237.75,-269 237.75,-269 237.75,-269 114.352,-269 114.352,-269"/>
<polygon fill="black" stroke="black" points="114.352,-265.5 104.352,-269 114.351,-272.5 114.352,-265.5"/>
</g>
<!-- cluster_cluster_cluster_&#45;22021212490198297068604106051578193977&#45;41742126072654049284298277636058170859 -->
<g id="node4" class="node"><title>cluster_cluster_cluster_&#45;22021212490198297068604106051578193977&#45;41742126072654049284298277636058170859</title>
<g id="a_node4"><a xlink:href="./AM-wltp_h_errors/co2mpas.dispatcher.utils.dspmap_list.txt" xlink:title="Returns a new dict.">
<polygon fill="springgreen" stroke="black" points="338,-287 246,-287 246,-251 338,-251 338,-287"/>
<text text-anchor="start" x="256.5" y="-264.8" font-family="Times New Roman,serif" font-size="14.00">map_list&lt;0&gt;</text>
</a>
</g>
</g>
<!-- cluster_cluster_cluster_&#45;22021212490198297068604106051578193977&#45;4174212607265404928&#45;2181095411792409824&#45;&gt;cluster_cluster_cluster_&#45;22021212490198297068604106051578193977&#45;41742126072654049284298277636058170859 -->
<g id="edge2" class="edge"><title>cluster_cluster_cluster_&#45;22021212490198297068604106051578193977&#45;4174212607265404928&#45;2181095411792409824&#45;&gt;cluster_cluster_cluster_&#45;22021212490198297068604106051578193977&#45;41742126072654049284298277636058170859</title>
<path fill="none" stroke="black" d="M292,-322.831C292,-322.831 292,-297.413 292,-297.413"/>
<polygon fill="black" stroke="black" points="295.5,-297.413 292,-287.413 288.5,-297.413 295.5,-297.413"/>
</g>
<!-- cluster_cluster_cluster_&#45;22021212490198297068604106051578193977&#45;41742126072654049287702748476113788344 -->
<g id="node11" class="node"><title>cluster_cluster_cluster_&#45;22021212490198297068604106051578193977&#45;41742126072654049287702748476113788344</title>
<g id="a_node11"><a xlink:title="A unique dict with new values.">
<path fill="cyan" stroke="black" d="M102,-209C102,-209 36,-209 36,-209 30,-209 24,-203 24,-197 24,-197 24,-185 24,-185 24,-179 30,-173 36,-173 36,-173 102,-173 102,-173 108,-173 114,-179 114,-185 114,-185 114,-197 114,-197 114,-203 108,-209 102,-209"/>
<text text-anchor="start" x="34" y="-186.8" font-family="Times New Roman,serif" font-size="14.00">input/wltp_h</text>
</a>
</g>
</g>
<!-- cluster_cluster_cluster_&#45;22021212490198297068604106051578193977&#45;4174212607265404928&#45;7067757294929678007&#45;&gt;cluster_cluster_cluster_&#45;22021212490198297068604106051578193977&#45;41742126072654049287702748476113788344 -->
<g id="edge3" class="edge"><title>cluster_cluster_cluster_&#45;22021212490198297068604106051578193977&#45;4174212607265404928&#45;7067757294929678007&#45;&gt;cluster_cluster_cluster_&#45;22021212490198297068604106051578193977&#45;41742126072654049287702748476113788344</title>
<path fill="none" stroke="black" d="M70,-250.909C70,-250.909 70,-219.263 70,-219.263"/>
<polygon fill="black" stroke="black" points="73.5001,-219.263 70,-209.263 66.5001,-219.263 73.5001,-219.263"/>
</g>
<!-- cluster_cluster_cluster_&#45;22021212490198297068604106051578193977&#45;41742126072654049284919105944985796052 -->
<g id="node12" class="node"><title>cluster_cluster_cluster_&#45;22021212490198297068604106051578193977&#45;41742126072654049284919105944985796052</title>
<g id="a_node12"><a xlink:title="A unique dict with new values.">
<path fill="cyan" stroke="black" d="M324,-209C324,-209 260,-209 260,-209 254,-209 248,-203 248,-197 248,-197 248,-185 248,-185 248,-179 254,-173 260,-173 260,-173 324,-173 324,-173 330,-173 336,-179 336,-185 336,-185 336,-197 336,-197 336,-203 330,-209 324,-209"/>
<text text-anchor="start" x="258.5" y="-186.8" font-family="Times New Roman,serif" font-size="14.00">input/wltp_l</text>
</a>
</g>
</g>
<!-- cluster_cluster_cluster_&#45;22021212490198297068604106051578193977&#45;41742126072654049284298277636058170859&#45;&gt;cluster_cluster_cluster_&#45;22021212490198297068604106051578193977&#45;41742126072654049284919105944985796052 -->
<g id="edge4" class="edge"><title>cluster_cluster_cluster_&#45;22021212490198297068604106051578193977&#45;41742126072654049284298277636058170859&#45;&gt;cluster_cluster_cluster_&#45;22021212490198297068604106051578193977&#45;41742126072654049284919105944985796052</title>
<path fill="none" stroke="black" d="M292,-250.909C292,-250.909 292,-219.263 292,-219.263"/>
<polygon fill="black" stroke="black" points="295.5,-219.263 292,-209.263 288.5,-219.263 295.5,-219.263"/>
</g>
<!-- cluster_cluster_cluster_&#45;22021212490198297068604106051578193977&#45;4174212607265404928978186106006331128 -->
<g id="node5" class="node"><title>cluster_cluster_cluster_&#45;22021212490198297068604106051578193977&#45;4174212607265404928978186106006331128</title>
<g id="a_node5"><a xlink:href="./AM-wltp_l_errors/AM-wltp_l_error_vs_wltp_h.gv.svg" xlink:title="Calculates the error of calibrated model of a reference.">
<polygon fill="yellow" stroke="black" points="166,-131 0,-131 0,-95 172,-95 172,-125 166,-131"/>
<polyline fill="none" stroke="black" points="166,-131 166,-125 "/>
<polyline fill="none" stroke="black" points="172,-125 166,-125 "/>
<text text-anchor="start" x="10.5" y="-108.8" font-family="Times New Roman,serif" font-size="14.00">AM&#45;wltp_l error vs wltp_h</text>
</a>
</g>
</g>
<!-- cluster_cluster_cluster_&#45;22021212490198297068604106051578193977&#45;4174212607265404928&#45;2427563387242055365 -->
<g id="node8" class="node"><title>cluster_cluster_cluster_&#45;22021212490198297068604106051578193977&#45;4174212607265404928&#45;2427563387242055365</title>
<g id="a_node8"><a xlink:title="error/wltp_h">
<path fill="cyan" stroke="black" d="M119,-59C119,-59 53,-59 53,-59 47,-59 41,-53 41,-47 41,-47 41,-35 41,-35 41,-29 47,-23 53,-23 53,-23 119,-23 119,-23 125,-23 131,-29 131,-35 131,-35 131,-47 131,-47 131,-53 125,-59 119,-59"/>
<text text-anchor="start" x="51" y="-36.8" font-family="Times New Roman,serif" font-size="14.00">error/wltp_h</text>
</a>
</g>
</g>
<!-- cluster_cluster_cluster_&#45;22021212490198297068604106051578193977&#45;4174212607265404928978186106006331128&#45;&gt;cluster_cluster_cluster_&#45;22021212490198297068604106051578193977&#45;4174212607265404928&#45;2427563387242055365 -->
<g id="edge5" class="edge"><title>cluster_cluster_cluster_&#45;22021212490198297068604106051578193977&#45;4174212607265404928978186106006331128&#45;&gt;cluster_cluster_cluster_&#45;22021212490198297068604106051578193977&#45;4174212607265404928&#45;2427563387242055365</title>
<path fill="none" stroke="black" d="M86,-94.8314C86,-94.8314 86,-69.4133 86,-69.4133"/>
<polygon fill="black" stroke="black" points="89.5001,-69.4132 86,-59.4133 82.5001,-69.4133 89.5001,-69.4132"/>
</g>
<!-- cluster_cluster_cluster_&#45;22021212490198297068604106051578193977&#45;4174212607265404928&#45;4970331641515606702 -->
<g id="node6" class="node"><title>cluster_cluster_cluster_&#45;22021212490198297068604106051578193977&#45;4174212607265404928&#45;4970331641515606702</title>
<g id="a_node6"><a xlink:href="./AM-wltp_l_errors/AM-wltp_l_error_vs_wltp_l.gv.svg" xlink:title="Calculates the error of calibrated model of a reference.">
<polygon fill="yellow" stroke="black" points="361,-131 199,-131 199,-95 367,-95 367,-125 361,-131"/>
<polyline fill="none" stroke="black" points="361,-131 361,-125 "/>
<polyline fill="none" stroke="black" points="367,-125 361,-125 "/>
<text text-anchor="start" x="209.5" y="-108.8" font-family="Times New Roman,serif" font-size="14.00">AM&#45;wltp_l error vs wltp_l</text>
</a>
</g>
</g>
<!-- cluster_cluster_cluster_&#45;22021212490198297068604106051578193977&#45;4174212607265404928&#45;7302022848986384642 -->
<g id="node9" class="node"><title>cluster_cluster_cluster_&#45;22021212490198297068604106051578193977&#45;4174212607265404928&#45;7302022848986384642</title>
<g id="a_node9"><a xlink:title="error/wltp_l">
<path fill="cyan" stroke="black" d="M314,-59C314,-59 252,-59 252,-59 246,-59 240,-53 240,-47 240,-47 240,-35 240,-35 240,-29 246,-23 252,-23 252,-23 314,-23 314,-23 320,-23 326,-29 326,-35 326,-35 326,-47 326,-47 326,-53 320,-59 314,-59"/>
<text text-anchor="start" x="250" y="-36.8" font-family="Times New Roman,serif" font-size="14.00">error/wltp_l</text>
</a>
</g>
</g>
<!-- cluster_cluster_cluster_&#45;22021212490198297068604106051578193977&#45;4174212607265404928&#45;4970331641515606702&#45;&gt;cluster_cluster_cluster_&#45;22021212490198297068604106051578193977&#45;4174212607265404928&#45;7302022848986384642 -->
<g id="edge6" class="edge"><title>cluster_cluster_cluster_&#45;22021212490198297068604106051578193977&#45;4174212607265404928&#45;4970331641515606702&#45;&gt;cluster_cluster_cluster_&#45;22021212490198297068604106051578193977&#45;4174212607265404928&#45;7302022848986384642</title>
<path fill="none" stroke="black" d="M283,-94.8314C283,-94.8314 283,-69.4133 283,-69.4133"/>
<polygon fill="black" stroke="black" points="286.5,-69.4132 283,-59.4133 279.5,-69.4133 286.5,-69.4132"/>
</g>
<!-- cluster_cluster_cluster_&#45;22021212490198297068604106051578193977&#45;4174212607265404928&#45;1177382896934224609 -->
<g id="node7" class="node"><title>cluster_cluster_cluster_&#45;22021212490198297068604106051578193977&#45;4174212607265404928&#45;1177382896934224609</title>
<g id="a_node7"><a xlink:title="data_in">
<path fill="cyan" stroke="black" d="M275.5,-719C275.5,-719 190.5,-719 190.5,-719 184.5,-719 178.5,-713 178.5,-707 178.5,-707 178.5,-683 178.5,-683 178.5,-677 184.5,-671 190.5,-671 190.5,-671 275.5,-671 275.5,-671 281.5,-671 287.5,-677 287.5,-683 287.5,-683 287.5,-707 287.5,-707 287.5,-713 281.5,-719 275.5,-719"/>
<text text-anchor="start" x="213" y="-701.8" font-family="Times New Roman,serif" font-size="14.00">data_in</text>
<polygon fill="none" stroke="black" points="187,-675 187,-696 239,-696 239,-675 187,-675"/>
<text text-anchor="start" x="190" y="-681.8" font-family="Times New Roman,serif" font-size="14.00">default=</text>
<polygon fill="none" stroke="black" points="239,-675 239,-696 280,-696 280,-675 239,-675"/>
<text text-anchor="start" x="242" y="-681.8" font-family="Times New Roman,serif" font-size="14.00">wltp_l</text>
</a>
</g>
</g>
<!-- cluster_cluster_cluster_&#45;22021212490198297068604106051578193977&#45;4174212607265404928&#45;3431188338771875485&#45;&gt;cluster_cluster_cluster_&#45;22021212490198297068604106051578193977&#45;4174212607265404928978186106006331128 -->
<g id="edge7" class="edge"><title>cluster_cluster_cluster_&#45;22021212490198297068604106051578193977&#45;4174212607265404928&#45;3431188338771875485&#45;&gt;cluster_cluster_cluster_&#45;22021212490198297068604106051578193977&#45;4174212607265404928978186106006331128</title>
<path fill="none" stroke="black" d="M152.25,-166.748C152.25,-166.748 152.25,-141.288 152.25,-141.288"/>
<polygon fill="black" stroke="black" points="155.75,-141.287 152.25,-131.288 148.75,-141.288 155.75,-141.287"/>
</g>
<!-- cluster_cluster_cluster_&#45;22021212490198297068604106051578193977&#45;4174212607265404928&#45;3431188338771875485&#45;&gt;cluster_cluster_cluster_&#45;22021212490198297068604106051578193977&#45;4174212607265404928&#45;4970331641515606702 -->
<g id="edge8" class="edge"><title>cluster_cluster_cluster_&#45;22021212490198297068604106051578193977&#45;4174212607265404928&#45;3431188338771875485&#45;&gt;cluster_cluster_cluster_&#45;22021212490198297068604106051578193977&#45;4174212607265404928&#45;4970331641515606702</title>
<path fill="none" stroke="black" d="M214.25,-166.748C214.25,-166.748 214.25,-141.288 214.25,-141.288"/>
<polygon fill="black" stroke="black" points="217.75,-141.287 214.25,-131.288 210.75,-141.288 217.75,-141.287"/>
</g>
<!-- cluster_cluster_cluster_&#45;22021212490198297068604106051578193977&#45;41742126072654049287702748476113788344&#45;&gt;cluster_cluster_cluster_&#45;22021212490198297068604106051578193977&#45;4174212607265404928978186106006331128 -->
<g id="edge9" class="edge"><title>cluster_cluster_cluster_&#45;22021212490198297068604106051578193977&#45;41742126072654049287702748476113788344&#45;&gt;cluster_cluster_cluster_&#45;22021212490198297068604106051578193977&#45;4174212607265404928978186106006331128</title>
<path fill="none" stroke="black" d="M69,-172.909C69,-172.909 69,-141.263 69,-141.263"/>
<polygon fill="black" stroke="black" points="72.5001,-141.263 69,-131.263 65.5001,-141.263 72.5001,-141.263"/>
</g>
<!-- cluster_cluster_cluster_&#45;22021212490198297068604106051578193977&#45;41742126072654049284919105944985796052&#45;&gt;cluster_cluster_cluster_&#45;22021212490198297068604106051578193977&#45;4174212607265404928&#45;4970331641515606702 -->
<g id="edge10" class="edge"><title>cluster_cluster_cluster_&#45;22021212490198297068604106051578193977&#45;41742126072654049284919105944985796052&#45;&gt;cluster_cluster_cluster_&#45;22021212490198297068604106051578193977&#45;4174212607265404928&#45;4970331641515606702</title>
<path fill="none" stroke="black" d="M292,-172.909C292,-172.909 292,-141.263 292,-141.263"/>
<polygon fill="black" stroke="black" points="295.5,-141.263 292,-131.263 288.5,-141.263 295.5,-141.263"/>
</g>
<!-- cluster_cluster_cluster_&#45;22021212490198297068604106051578193977&#45;4174212607265404928&#45;3274255707223734200 -->
<g id="node13" class="node"><title>cluster_cluster_cluster_&#45;22021212490198297068604106051578193977&#45;4174212607265404928&#45;3274255707223734200</title>
<g id="a_node13"><a xlink:title="Keys to select.">
<path fill="cyan" stroke="black" d="M406,-635C406,-635 172,-635 172,-635 166,-635 160,-629 160,-623 160,-623 160,-479 160,-479 160,-473 166,-467 172,-467 172,-467 406,-467 406,-467 412,-467 418,-473 418,-479 418,-479 418,-623 418,-623 418,-629 412,-635 406,-635"/>
<text text-anchor="start" x="268.5" y="-617.8" font-family="Times New Roman,serif" font-size="14.00">models</text>
<polygon fill="none" stroke="black" points="168,-471 168,-612 220,-612 220,-471 168,-471"/>
<text text-anchor="start" x="171" y="-537.8" font-family="Times New Roman,serif" font-size="14.00">default=</text>
<polygon fill="none" stroke="black" points="220,-471 220,-612 410,-612 410,-471 220,-471"/>
<text text-anchor="start" x="241" y="-597.8" font-family="Times New Roman,serif" font-size="14.00">[&#39;alternator_status_model&#39;,</text>
<text text-anchor="start" x="233" y="-582.8" font-family="Times New Roman,serif" font-size="14.00"> &#39;alternator_nominal_voltage&#39;,</text>
<text text-anchor="start" x="238" y="-567.8" font-family="Times New Roman,serif" font-size="14.00"> &#39;alternator_current_model&#39;,</text>
<text text-anchor="start" x="223" y="-552.8" font-family="Times New Roman,serif" font-size="14.00"> &#39;max_battery_charging_current&#39;,</text>
<text text-anchor="start" x="270" y="-537.8" font-family="Times New Roman,serif" font-size="14.00"> &#39;start_demand&#39;,</text>
<text text-anchor="start" x="272.5" y="-522.8" font-family="Times New Roman,serif" font-size="14.00"> &#39;electric_load&#39;,</text>
<text text-anchor="start" x="235" y="-507.8" font-family="Times New Roman,serif" font-size="14.00"> &#39;alternator_nominal_power&#39;,</text>
<text text-anchor="start" x="251.5" y="-492.8" font-family="Times New Roman,serif" font-size="14.00"> &#39;alternator_efficiency&#39;,</text>
<text text-anchor="start" x="230.5" y="-477.8" font-family="Times New Roman,serif" font-size="14.00"> &#39;alternator_initialization_time&#39;]</text>
</a>
</g>
</g>
<!-- cluster_cluster_cluster_&#45;22021212490198297068604106051578193977&#45;4174212607265404928&#45;8800720961443810657 -->
<g id="node14" class="node"><title>cluster_cluster_cluster_&#45;22021212490198297068604106051578193977&#45;4174212607265404928&#45;8800720961443810657</title>
<g id="a_node14"><a xlink:href="./AM-wltp_h_errors/AM-wltp_h_error_vs_wltp_h/select_inputs0.txt" xlink:title="Selects the chosen dictionary keys from the given dictionary.">
<polygon fill="springgreen" stroke="black" points="340,-431 240,-431 240,-395 340,-395 340,-431"/>
<text text-anchor="start" x="250" y="-408.8" font-family="Times New Roman,serif" font-size="14.00">select_models</text>
</a>
</g>
</g>
<!-- cluster_cluster_cluster_&#45;22021212490198297068604106051578193977&#45;4174212607265404928&#45;3274255707223734200&#45;&gt;cluster_cluster_cluster_&#45;22021212490198297068604106051578193977&#45;4174212607265404928&#45;8800720961443810657 -->
<g id="edge11" class="edge"><title>cluster_cluster_cluster_&#45;22021212490198297068604106051578193977&#45;4174212607265404928&#45;3274255707223734200&#45;&gt;cluster_cluster_cluster_&#45;22021212490198297068604106051578193977&#45;4174212607265404928&#45;8800720961443810657</title>
<path fill="none" stroke="black" d="M290,-466.75C290,-466.75 290,-441.473 290,-441.473"/>
<polygon fill="black" stroke="black" points="293.5,-441.473 290,-431.473 286.5,-441.473 293.5,-441.473"/>
</g>
<!-- cluster_cluster_cluster_&#45;22021212490198297068604106051578193977&#45;4174212607265404928&#45;8800720961443810657&#45;&gt;cluster_cluster_cluster_&#45;22021212490198297068604106051578193977&#45;4174212607265404928&#45;2181095411792409824 -->
<g id="edge12" class="edge"><title>cluster_cluster_cluster_&#45;22021212490198297068604106051578193977&#45;4174212607265404928&#45;8800720961443810657&#45;&gt;cluster_cluster_cluster_&#45;22021212490198297068604106051578193977&#45;4174212607265404928&#45;2181095411792409824</title>
<path fill="none" stroke="black" d="M290,-394.831C290,-394.831 290,-369.413 290,-369.413"/>
<polygon fill="black" stroke="black" points="293.5,-369.413 290,-359.413 286.5,-369.413 293.5,-369.413"/>
</g>
<!-- cluster_cluster_cluster_&#45;22021212490198297068604106051578193977&#45;41742126072654049284712647501736754553&#45;&gt;cluster_cluster_cluster_&#45;22021212490198297068604106051578193977&#45;4174212607265404928&#45;7067757294929678007 -->
<g id="edge16" class="edge"><title>cluster_cluster_cluster_&#45;22021212490198297068604106051578193977&#45;41742126072654049284712647501736754553&#45;&gt;cluster_cluster_cluster_&#45;22021212490198297068604106051578193977&#45;4174212607265404928&#45;7067757294929678007</title>
<path fill="none" stroke="black" d="M73,-394.762C73,-394.762 73,-297.09 73,-297.09"/>
<polygon fill="black" stroke="black" points="76.5001,-297.09 73,-287.09 69.5001,-297.09 76.5001,-297.09"/>
</g>
<!-- cluster_cluster_cluster_&#45;22021212490198297068604106051578193977&#45;4174212607265404928&#45;4779657526738643707&#45;&gt;cluster_cluster_cluster_&#45;22021212490198297068604106051578193977&#45;41742126072654049284298277636058170859 -->
<g id="edge17" class="edge"><title>cluster_cluster_cluster_&#45;22021212490198297068604106051578193977&#45;4174212607265404928&#45;4779657526738643707&#45;&gt;cluster_cluster_cluster_&#45;22021212490198297068604106051578193977&#45;41742126072654049284298277636058170859</title>
<path fill="none" stroke="black" d="M473.333,-532.931C473.333,-470.69 473.333,-269 473.333,-269 473.333,-269 348.227,-269 348.227,-269"/>
<polygon fill="black" stroke="black" points="348.227,-265.5 338.227,-269 348.227,-272.5 348.227,-265.5"/>
</g>
<!-- cluster_cluster_cluster_&#45;22021212490198297068604106051578193977&#45;4174212607265404928&#45;4779657526738643707&#45;&gt;cluster_cluster_cluster_&#45;22021212490198297068604106051578193977&#45;4174212607265404928&#45;8800720961443810657 -->
<g id="edge18" class="edge"><title>cluster_cluster_cluster_&#45;22021212490198297068604106051578193977&#45;4174212607265404928&#45;4779657526738643707&#45;&gt;cluster_cluster_cluster_&#45;22021212490198297068604106051578193977&#45;4174212607265404928&#45;8800720961443810657</title>
<path fill="none" stroke="black" d="M454.667,-532.959C454.667,-495.552 454.667,-413 454.667,-413 454.667,-413 350.3,-413 350.3,-413"/>
<polygon fill="black" stroke="black" points="350.3,-409.5 340.3,-413 350.3,-416.5 350.3,-409.5"/>
</g>
</g>
</svg>
