<?xml version="1.0" encoding="UTF-8" standalone="no"?>
<!DOCTYPE svg PUBLIC "-//W3C//DTD SVG 1.1//EN"
 "http://www.w3.org/Graphics/SVG/1.1/DTD/svg11.dtd">
<!-- Generated by graphviz version 2.38.0 (20140413.2041)
 -->
<!-- Title: cluster_WLTP cycle model Pages: 1 -->
<svg width="3772pt" height="100pt"
 viewBox="0.00 0.00 3771.50 100.00" xmlns="http://www.w3.org/2000/svg" xmlns:xlink="http://www.w3.org/1999/xlink">
<g id="graph0" class="graph" transform="scale(1 1) rotate(0) translate(4 96)">
<title>cluster_WLTP cycle model</title>
<polygon fill="white" stroke="none" points="-4,4 -4,-96 3767.5,-96 3767.5,4 -4,4"/>
<text text-anchor="start" x="1826.25" y="-7.8" font-family="Times New Roman,serif" font-size="14.00">WLTP cycle model</text>
<!-- cluster_cluster_cluster_cluster_cluster_cluster_cluster_&#45;220212124901982970656214335412117874644487423537040413414&#45;539432496793273069572473681055795821385914118046030077388047931719890035597&#45;6281391710310240799 -->
<g id="node1" class="node"><title>cluster_cluster_cluster_cluster_cluster_cluster_cluster_&#45;220212124901982970656214335412117874644487423537040413414&#45;539432496793273069572473681055795821385914118046030077388047931719890035597&#45;6281391710310240799</title>
<g id="a_node1"><a xlink:title="accelerations">
<path fill="cyan" stroke="black" d="M298,-81.5C298,-81.5 12,-81.5 12,-81.5 6,-81.5 0,-75.5 0,-69.5 0,-69.5 0,-45.5 0,-45.5 0,-39.5 6,-33.5 12,-33.5 12,-33.5 298,-33.5 298,-33.5 304,-33.5 310,-39.5 310,-45.5 310,-45.5 310,-69.5 310,-69.5 310,-75.5 304,-81.5 298,-81.5"/>
<text text-anchor="start" x="118.5" y="-64.3" font-family="Times New Roman,serif" font-size="14.00">accelerations</text>
<polygon fill="none" stroke="black" points="8,-37.5 8,-58.5 110,-58.5 110,-37.5 8,-37.5"/>
<text text-anchor="start" x="11" y="-44.3" font-family="Times New Roman,serif" font-size="14.00">remote parent 0=</text>
<polygon fill="none" stroke="black" points="110,-37.5 110,-58.5 302,-58.5 302,-37.5 110,-37.5"/>
<text text-anchor="start" x="113" y="-44.3" font-family="Times New Roman,serif" font-size="14.00">WLTP cycle model:accelerations</text>
</a>
</g>
</g>
<!-- cluster_cluster_cluster_cluster_cluster_cluster_cluster_&#45;220212124901982970656214335412117874644487423537040413414&#45;539432496793273069572473681055795821385914118046030077388047931719890035597&#45;6215422529513533217 -->
<g id="node2" class="node"><title>cluster_cluster_cluster_cluster_cluster_cluster_cluster_&#45;220212124901982970656214335412117874644487423537040413414&#45;539432496793273069572473681055795821385914118046030077388047931719890035597&#45;6215422529513533217</title>
<g id="a_node2"><a xlink:title="gear_box_type">
<path fill="cyan" stroke="black" d="M638,-81.5C638,-81.5 340,-81.5 340,-81.5 334,-81.5 328,-75.5 328,-69.5 328,-69.5 328,-45.5 328,-45.5 328,-39.5 334,-33.5 340,-33.5 340,-33.5 638,-33.5 638,-33.5 644,-33.5 650,-39.5 650,-45.5 650,-45.5 650,-69.5 650,-69.5 650,-75.5 644,-81.5 638,-81.5"/>
<text text-anchor="start" x="446.5" y="-64.3" font-family="Times New Roman,serif" font-size="14.00">gear_box_type</text>
<polygon fill="none" stroke="black" points="336,-37.5 336,-58.5 438,-58.5 438,-37.5 336,-37.5"/>
<text text-anchor="start" x="339" y="-44.3" font-family="Times New Roman,serif" font-size="14.00">remote parent 0=</text>
<polygon fill="none" stroke="black" points="438,-37.5 438,-58.5 642,-58.5 642,-37.5 438,-37.5"/>
<text text-anchor="start" x="441" y="-44.3" font-family="Times New Roman,serif" font-size="14.00">WLTP cycle model:gear_box_type</text>
</a>
</g>
</g>
<!-- cluster_cluster_cluster_cluster_cluster_cluster_cluster_&#45;220212124901982970656214335412117874644487423537040413414&#45;5394324967932730695724736810557958213859141180460300773880479317198900355975823726384603252559 -->
<g id="node3" class="node"><title>cluster_cluster_cluster_cluster_cluster_cluster_cluster_&#45;220212124901982970656214335412117874644487423537040413414&#45;5394324967932730695724736810557958213859141180460300773880479317198900355975823726384603252559</title>
<g id="a_node3"><a xlink:title="gears">
<path fill="cyan" stroke="black" d="M923.5,-81.5C923.5,-81.5 680.5,-81.5 680.5,-81.5 674.5,-81.5 668.5,-75.5 668.5,-69.5 668.5,-69.5 668.5,-45.5 668.5,-45.5 668.5,-39.5 674.5,-33.5 680.5,-33.5 680.5,-33.5 923.5,-33.5 923.5,-33.5 929.5,-33.5 935.5,-39.5 935.5,-45.5 935.5,-45.5 935.5,-69.5 935.5,-69.5 935.5,-75.5 929.5,-81.5 923.5,-81.5"/>
<text text-anchor="start" x="787.5" y="-64.3" font-family="Times New Roman,serif" font-size="14.00">gears</text>
<polygon fill="none" stroke="black" points="677,-37.5 677,-58.5 779,-58.5 779,-37.5 677,-37.5"/>
<text text-anchor="start" x="680" y="-44.3" font-family="Times New Roman,serif" font-size="14.00">remote parent 0=</text>
<polygon fill="none" stroke="black" points="779,-37.5 779,-58.5 928,-58.5 928,-37.5 779,-37.5"/>
<text text-anchor="start" x="782" y="-44.3" font-family="Times New Roman,serif" font-size="14.00">WLTP cycle model:gears</text>
</a>
</g>
</g>
<!-- cluster_cluster_cluster_cluster_cluster_cluster_cluster_&#45;220212124901982970656214335412117874644487423537040413414&#45;539432496793273069572473681055795821385914118046030077388047931719890035597&#45;3009578804924602371 -->
<g id="node4" class="node"><title>cluster_cluster_cluster_cluster_cluster_cluster_cluster_&#45;220212124901982970656214335412117874644487423537040413414&#45;539432496793273069572473681055795821385914118046030077388047931719890035597&#45;3009578804924602371</title>
<g id="a_node4"><a xlink:title="idle_engine_speed">
<path fill="cyan" stroke="black" d="M1282.5,-81.5C1282.5,-81.5 965.5,-81.5 965.5,-81.5 959.5,-81.5 953.5,-75.5 953.5,-69.5 953.5,-69.5 953.5,-45.5 953.5,-45.5 953.5,-39.5 959.5,-33.5 965.5,-33.5 965.5,-33.5 1282.5,-33.5 1282.5,-33.5 1288.5,-33.5 1294.5,-39.5 1294.5,-45.5 1294.5,-45.5 1294.5,-69.5 1294.5,-69.5 1294.5,-75.5 1288.5,-81.5 1282.5,-81.5"/>
<text text-anchor="start" x="1073" y="-64.3" font-family="Times New Roman,serif" font-size="14.00">idle_engine_speed</text>
<polygon fill="none" stroke="black" points="962,-37.5 962,-58.5 1064,-58.5 1064,-37.5 962,-37.5"/>
<text text-anchor="start" x="965" y="-44.3" font-family="Times New Roman,serif" font-size="14.00">remote parent 0=</text>
<polygon fill="none" stroke="black" points="1064,-37.5 1064,-58.5 1287,-58.5 1287,-37.5 1064,-37.5"/>
<text text-anchor="start" x="1067" y="-44.3" font-family="Times New Roman,serif" font-size="14.00">WLTP cycle model:idle_engine_speed</text>
</a>
</g>
</g>
<!-- cluster_cluster_cluster_cluster_cluster_cluster_cluster_&#45;220212124901982970656214335412117874644487423537040413414&#45;5394324967932730695724736810557958213859141180460300773880479317198900355975710857425003681082 -->
<g id="node5" class="node"><title>cluster_cluster_cluster_cluster_cluster_cluster_cluster_&#45;220212124901982970656214335412117874644487423537040413414&#45;5394324967932730695724736810557958213859141180460300773880479317198900355975710857425003681082</title>
<g id="a_node5"><a xlink:title="Initial temperature of the test cell [°C].">
<path fill="cyan" stroke="black" d="M1631.5,-92C1631.5,-92 1324.5,-92 1324.5,-92 1318.5,-92 1312.5,-86 1312.5,-80 1312.5,-80 1312.5,-35 1312.5,-35 1312.5,-29 1318.5,-23 1324.5,-23 1324.5,-23 1631.5,-23 1631.5,-23 1637.5,-23 1643.5,-29 1643.5,-35 1643.5,-35 1643.5,-80 1643.5,-80 1643.5,-86 1637.5,-92 1631.5,-92"/>
<text text-anchor="start" x="1427.5" y="-74.3" font-family="Times New Roman,serif" font-size="14.00">initial_temperature</text>
<polygon fill="none" stroke="black" points="1321,-47.5 1321,-68.5 1415,-68.5 1415,-47.5 1321,-47.5"/>
<text text-anchor="start" x="1366" y="-54.3" font-family="Times New Roman,serif" font-size="14.00">default=</text>
<polygon fill="none" stroke="black" points="1415,-47.5 1415,-68.5 1636,-68.5 1636,-47.5 1415,-47.5"/>
<text text-anchor="start" x="1418" y="-54.3" font-family="Times New Roman,serif" font-size="14.00">23.0</text>
<polygon fill="none" stroke="black" points="1321,-26.5 1321,-47.5 1415,-47.5 1415,-26.5 1321,-26.5"/>
<text text-anchor="start" x="1324" y="-33.3" font-family="Times New Roman,serif" font-size="14.00">remote child 0=</text>
<polygon fill="none" stroke="black" points="1415,-26.5 1415,-47.5 1636,-47.5 1636,-26.5 1415,-26.5"/>
<text text-anchor="start" x="1418" y="-33.3" font-family="Times New Roman,serif" font-size="14.00">WLTP cycle model:initial_temperature</text>
</a>
</g>
</g>
<!-- cluster_cluster_cluster_cluster_cluster_cluster_cluster_&#45;220212124901982970656214335412117874644487423537040413414&#45;539432496793273069572473681055795821385914118046030077388047931719890035597&#45;3266232678127081741 -->
<g id="node6" class="node"><title>cluster_cluster_cluster_cluster_cluster_cluster_cluster_&#45;220212124901982970656214335412117874644487423537040413414&#45;539432496793273069572473681055795821385914118046030077388047931719890035597&#45;3266232678127081741</title>
<g id="a_node6"><a xlink:title="max_speed_velocity_ratio">
<path fill="cyan" stroke="black" d="M2034.5,-81.5C2034.5,-81.5 1673.5,-81.5 1673.5,-81.5 1667.5,-81.5 1661.5,-75.5 1661.5,-69.5 1661.5,-69.5 1661.5,-45.5 1661.5,-45.5 1661.5,-39.5 1667.5,-33.5 1673.5,-33.5 1673.5,-33.5 2034.5,-33.5 2034.5,-33.5 2040.5,-33.5 2046.5,-39.5 2046.5,-45.5 2046.5,-45.5 2046.5,-69.5 2046.5,-69.5 2046.5,-75.5 2040.5,-81.5 2034.5,-81.5"/>
<text text-anchor="start" x="1780.5" y="-64.3" font-family="Times New Roman,serif" font-size="14.00">max_speed_velocity_ratio</text>
<polygon fill="none" stroke="black" points="1670,-37.5 1670,-58.5 1772,-58.5 1772,-37.5 1670,-37.5"/>
<text text-anchor="start" x="1673" y="-44.3" font-family="Times New Roman,serif" font-size="14.00">remote parent 0=</text>
<polygon fill="none" stroke="black" points="1772,-37.5 1772,-58.5 2039,-58.5 2039,-37.5 1772,-37.5"/>
<text text-anchor="start" x="1775" y="-44.3" font-family="Times New Roman,serif" font-size="14.00">WLTP cycle model:max_speed_velocity_ratio</text>
</a>
</g>
</g>
<!-- cluster_cluster_cluster_cluster_cluster_cluster_cluster_&#45;220212124901982970656214335412117874644487423537040413414&#45;539432496793273069572473681055795821385914118046030077388047931719890035597&#45;4081924377432798624 -->
<g id="node7" class="node"><title>cluster_cluster_cluster_cluster_cluster_cluster_cluster_&#45;220212124901982970656214335412117874644487423537040413414&#45;539432496793273069572473681055795821385914118046030077388047931719890035597&#45;4081924377432798624</title>
<g id="a_node7"><a xlink:title="speed_velocity_ratios">
<path fill="cyan" stroke="black" d="M2413,-81.5C2413,-81.5 2077,-81.5 2077,-81.5 2071,-81.5 2065,-75.5 2065,-69.5 2065,-69.5 2065,-45.5 2065,-45.5 2065,-39.5 2071,-33.5 2077,-33.5 2077,-33.5 2413,-33.5 2413,-33.5 2419,-33.5 2425,-39.5 2425,-45.5 2425,-45.5 2425,-69.5 2425,-69.5 2425,-75.5 2419,-81.5 2413,-81.5"/>
<text text-anchor="start" x="2183.5" y="-64.3" font-family="Times New Roman,serif" font-size="14.00">speed_velocity_ratios</text>
<polygon fill="none" stroke="black" points="2073,-37.5 2073,-58.5 2175,-58.5 2175,-37.5 2073,-37.5"/>
<text text-anchor="start" x="2076" y="-44.3" font-family="Times New Roman,serif" font-size="14.00">remote parent 0=</text>
<polygon fill="none" stroke="black" points="2175,-37.5 2175,-58.5 2417,-58.5 2417,-37.5 2175,-37.5"/>
<text text-anchor="start" x="2178" y="-44.3" font-family="Times New Roman,serif" font-size="14.00">WLTP cycle model:speed_velocity_ratios</text>
</a>
</g>
</g>
<!-- cluster_cluster_cluster_cluster_cluster_cluster_cluster_&#45;220212124901982970656214335412117874644487423537040413414&#45;5394324967932730695724736810557958213859141180460300773880479317198900355971095843056856409543 -->
<g id="node8" class="node"><title>cluster_cluster_cluster_cluster_cluster_cluster_cluster_&#45;220212124901982970656214335412117874644487423537040413414&#45;5394324967932730695724736810557958213859141180460300773880479317198900355971095843056856409543</title>
<g id="a_node8"><a xlink:title="time_sample_frequency">
<path fill="cyan" stroke="black" d="M2802.5,-81.5C2802.5,-81.5 2455.5,-81.5 2455.5,-81.5 2449.5,-81.5 2443.5,-75.5 2443.5,-69.5 2443.5,-69.5 2443.5,-45.5 2443.5,-45.5 2443.5,-39.5 2449.5,-33.5 2455.5,-33.5 2455.5,-33.5 2802.5,-33.5 2802.5,-33.5 2808.5,-33.5 2814.5,-39.5 2814.5,-45.5 2814.5,-45.5 2814.5,-69.5 2814.5,-69.5 2814.5,-75.5 2808.5,-81.5 2802.5,-81.5"/>
<text text-anchor="start" x="2563" y="-64.3" font-family="Times New Roman,serif" font-size="14.00">time_sample_frequency</text>
<polygon fill="none" stroke="black" points="2452,-37.5 2452,-58.5 2554,-58.5 2554,-37.5 2452,-37.5"/>
<text text-anchor="start" x="2455" y="-44.3" font-family="Times New Roman,serif" font-size="14.00">remote parent 0=</text>
<polygon fill="none" stroke="black" points="2554,-37.5 2554,-58.5 2807,-58.5 2807,-37.5 2554,-37.5"/>
<text text-anchor="start" x="2557" y="-44.3" font-family="Times New Roman,serif" font-size="14.00">WLTP cycle model:time_sample_frequency</text>
</a>
</g>
</g>
<!-- cluster_cluster_cluster_cluster_cluster_cluster_cluster_&#45;220212124901982970656214335412117874644487423537040413414&#45;539432496793273069572473681055795821385914118046030077388047931719890035597&#45;1825562924159530342 -->
<g id="node9" class="node"><title>cluster_cluster_cluster_cluster_cluster_cluster_cluster_&#45;220212124901982970656214335412117874644487423537040413414&#45;539432496793273069572473681055795821385914118046030077388047931719890035597&#45;1825562924159530342</title>
<g id="a_node9"><a xlink:title="times">
<path fill="cyan" stroke="black" d="M3087.5,-81.5C3087.5,-81.5 2844.5,-81.5 2844.5,-81.5 2838.5,-81.5 2832.5,-75.5 2832.5,-69.5 2832.5,-69.5 2832.5,-45.5 2832.5,-45.5 2832.5,-39.5 2838.5,-33.5 2844.5,-33.5 2844.5,-33.5 3087.5,-33.5 3087.5,-33.5 3093.5,-33.5 3099.5,-39.5 3099.5,-45.5 3099.5,-45.5 3099.5,-69.5 3099.5,-69.5 3099.5,-75.5 3093.5,-81.5 3087.5,-81.5"/>
<text text-anchor="start" x="2951.5" y="-64.3" font-family="Times New Roman,serif" font-size="14.00">times</text>
<polygon fill="none" stroke="black" points="2841,-37.5 2841,-58.5 2943,-58.5 2943,-37.5 2841,-37.5"/>
<text text-anchor="start" x="2844" y="-44.3" font-family="Times New Roman,serif" font-size="14.00">remote parent 0=</text>
<polygon fill="none" stroke="black" points="2943,-37.5 2943,-58.5 3092,-58.5 3092,-37.5 2943,-37.5"/>
<text text-anchor="start" x="2946" y="-44.3" font-family="Times New Roman,serif" font-size="14.00">WLTP cycle model:times</text>
</a>
</g>
</g>
<!-- cluster_cluster_cluster_cluster_cluster_cluster_cluster_&#45;220212124901982970656214335412117874644487423537040413414&#45;5394324967932730695724736810557958213859141180460300773880479317198900355971395676110976739562 -->
<g id="node10" class="node"><title>cluster_cluster_cluster_cluster_cluster_cluster_cluster_&#45;220212124901982970656214335412117874644487423537040413414&#45;5394324967932730695724736810557958213859141180460300773880479317198900355971395676110976739562</title>
<g id="a_node10"><a xlink:title="velocities">
<path fill="cyan" stroke="black" d="M3396,-81.5C3396,-81.5 3130,-81.5 3130,-81.5 3124,-81.5 3118,-75.5 3118,-69.5 3118,-69.5 3118,-45.5 3118,-45.5 3118,-39.5 3124,-33.5 3130,-33.5 3130,-33.5 3396,-33.5 3396,-33.5 3402,-33.5 3408,-39.5 3408,-45.5 3408,-45.5 3408,-69.5 3408,-69.5 3408,-75.5 3402,-81.5 3396,-81.5"/>
<text text-anchor="start" x="3237" y="-64.3" font-family="Times New Roman,serif" font-size="14.00">velocities</text>
<polygon fill="none" stroke="black" points="3126,-37.5 3126,-58.5 3228,-58.5 3228,-37.5 3126,-37.5"/>
<text text-anchor="start" x="3129" y="-44.3" font-family="Times New Roman,serif" font-size="14.00">remote parent 0=</text>
<polygon fill="none" stroke="black" points="3228,-37.5 3228,-58.5 3400,-58.5 3400,-37.5 3228,-37.5"/>
<text text-anchor="start" x="3231" y="-44.3" font-family="Times New Roman,serif" font-size="14.00">WLTP cycle model:velocities</text>
</a>
</g>
</g>
<!-- cluster_cluster_cluster_cluster_cluster_cluster_cluster_&#45;220212124901982970656214335412117874644487423537040413414&#45;539432496793273069572473681055795821385914118046030077388047931719890035597&#45;5885501648332812160 -->
<g id="node11" class="node"><title>cluster_cluster_cluster_cluster_cluster_cluster_cluster_&#45;220212124901982970656214335412117874644487423537040413414&#45;539432496793273069572473681055795821385914118046030077388047931719890035597&#45;5885501648332812160</title>
<g id="a_node11"><a xlink:title="wltp_base_model">
<path fill="cyan" stroke="black" d="M3751.5,-81.5C3751.5,-81.5 3438.5,-81.5 3438.5,-81.5 3432.5,-81.5 3426.5,-75.5 3426.5,-69.5 3426.5,-69.5 3426.5,-45.5 3426.5,-45.5 3426.5,-39.5 3432.5,-33.5 3438.5,-33.5 3438.5,-33.5 3751.5,-33.5 3751.5,-33.5 3757.5,-33.5 3763.5,-39.5 3763.5,-45.5 3763.5,-45.5 3763.5,-69.5 3763.5,-69.5 3763.5,-75.5 3757.5,-81.5 3751.5,-81.5"/>
<text text-anchor="start" x="3545.5" y="-64.3" font-family="Times New Roman,serif" font-size="14.00">wltp_base_model</text>
<polygon fill="none" stroke="black" points="3435,-37.5 3435,-58.5 3537,-58.5 3537,-37.5 3435,-37.5"/>
<text text-anchor="start" x="3438" y="-44.3" font-family="Times New Roman,serif" font-size="14.00">remote parent 0=</text>
<polygon fill="none" stroke="black" points="3537,-37.5 3537,-58.5 3756,-58.5 3756,-37.5 3537,-37.5"/>
<text text-anchor="start" x="3540" y="-44.3" font-family="Times New Roman,serif" font-size="14.00">WLTP cycle model:wltp_base_model</text>
</a>
</g>
</g>
</g>
</svg>
