<?xml version="1.0" encoding="UTF-8" standalone="no"?>
<!DOCTYPE svg PUBLIC "-//W3C//DTD SVG 1.1//EN"
 "http://www.w3.org/Graphics/SVG/1.1/DTD/svg11.dtd">
<!-- Generated by graphviz version 2.38.0 (20140413.2041)
 -->
<!-- Title: cluster_mechanical model Pages: 1 -->
<svg width="3935pt" height="391pt"
 viewBox="0.00 0.00 3935.00 391.00" xmlns="http://www.w3.org/2000/svg" xmlns:xlink="http://www.w3.org/1999/xlink">
<g id="graph0" class="graph" transform="scale(1 1) rotate(0) translate(4 387)">
<title>cluster_mechanical model</title>
<polygon fill="white" stroke="none" points="-4,4 -4,-387 3931,-387 3931,4 -4,4"/>
<text text-anchor="start" x="1913.5" y="-7.8" font-family="Times New Roman,serif" font-size="14.00">mechanical model</text>
<!-- cluster_cluster_cluster_cluster_cluster_cluster_cluster_&#45;220212124901982970656214335412117874644487423537040413414&#45;2008554569736104303724736810557958213&#45;307933898330344884&#45;2904666805620598835&#45;6281391710310240799 -->
<g id="node1" class="node"><title>cluster_cluster_cluster_cluster_cluster_cluster_cluster_&#45;220212124901982970656214335412117874644487423537040413414&#45;2008554569736104303724736810557958213&#45;307933898330344884&#45;2904666805620598835&#45;6281391710310240799</title>
<g id="a_node1"><a xlink:title="accelerations">
<path fill="cyan" stroke="black" d="M287,-383C287,-383 12,-383 12,-383 6,-383 0,-377 0,-371 0,-371 0,-347 0,-347 0,-341 6,-335 12,-335 12,-335 287,-335 287,-335 293,-335 299,-341 299,-347 299,-347 299,-371 299,-371 299,-377 293,-383 287,-383"/>
<text text-anchor="start" x="113.5" y="-365.8" font-family="Times New Roman,serif" font-size="14.00">accelerations</text>
<polygon fill="none" stroke="black" points="8.5,-339 8.5,-360 110.5,-360 110.5,-339 8.5,-339"/>
<text text-anchor="start" x="11.5" y="-345.8" font-family="Times New Roman,serif" font-size="14.00">remote parent 0=</text>
<polygon fill="none" stroke="black" points="110.5,-339 110.5,-360 291.5,-360 291.5,-339 110.5,-339"/>
<text text-anchor="start" x="113.5" y="-345.8" font-family="Times New Roman,serif" font-size="14.00">mechanical model:accelerations</text>
</a>
</g>
</g>
<!-- cluster_cluster_cluster_cluster_cluster_cluster_cluster_&#45;220212124901982970656214335412117874644487423537040413414&#45;2008554569736104303724736810557958213&#45;307933898330344884&#45;29046668056205988355336250277280352593 -->
<g id="node2" class="node"><title>cluster_cluster_cluster_cluster_cluster_cluster_cluster_&#45;220212124901982970656214335412117874644487423537040413414&#45;2008554569736104303724736810557958213&#45;307933898330344884&#45;29046668056205988355336250277280352593</title>
<g id="a_node2"><a xlink:title="change_gear_window_width">
<path fill="cyan" stroke="black" d="M692,-383C692,-383 329,-383 329,-383 323,-383 317,-377 317,-371 317,-371 317,-347 317,-347 317,-341 323,-335 329,-335 329,-335 692,-335 692,-335 698,-335 704,-341 704,-347 704,-347 704,-371 704,-371 704,-377 698,-383 692,-383"/>
<text text-anchor="start" x="431" y="-365.8" font-family="Times New Roman,serif" font-size="14.00">change_gear_window_width</text>
<polygon fill="none" stroke="black" points="325.5,-339 325.5,-360 427.5,-360 427.5,-339 325.5,-339"/>
<text text-anchor="start" x="328.5" y="-345.8" font-family="Times New Roman,serif" font-size="14.00">remote parent 0=</text>
<polygon fill="none" stroke="black" points="427.5,-339 427.5,-360 696.5,-360 696.5,-339 427.5,-339"/>
<text text-anchor="start" x="430.5" y="-345.8" font-family="Times New Roman,serif" font-size="14.00">mechanical model:change_gear_window_width</text>
</a>
</g>
</g>
<!-- cluster_cluster_cluster_cluster_cluster_cluster_cluster_&#45;220212124901982970656214335412117874644487423537040413414&#45;2008554569736104303724736810557958213&#45;307933898330344884&#45;2904666805620598835479786920904010690 -->
<g id="node3" class="node"><title>cluster_cluster_cluster_cluster_cluster_cluster_cluster_&#45;220212124901982970656214335412117874644487423537040413414&#45;2008554569736104303724736810557958213&#45;307933898330344884&#45;2904666805620598835479786920904010690</title>
<g id="a_node3"><a xlink:href="./../../../../ESM-wltp_h_errors/ESM-wltp_h_error_vs_wltp_h/CO2MPAS_physical_model/gear_box_model/mechanical_model/co2mpas.model.physical.gear_box.mechanicalcalculate_gear_box_speeds_in_v1.txt" xlink:title="Calculates Gear box speed vector [RPM].">
<polygon fill="springgreen" stroke="black" points="1280.5,-299 1066.5,-299 1066.5,-263 1280.5,-263 1280.5,-299"/>
<text text-anchor="start" x="1077" y="-276.8" font-family="Times New Roman,serif" font-size="14.00">calculate_gear_box_speeds_in_v1</text>
</a>
</g>
</g>
<!-- cluster_cluster_cluster_cluster_cluster_cluster_cluster_&#45;220212124901982970656214335412117874644487423537040413414&#45;2008554569736104303724736810557958213&#45;307933898330344884&#45;29046668056205988358629495254995206395 -->
<g id="node9" class="node"><title>cluster_cluster_cluster_cluster_cluster_cluster_cluster_&#45;220212124901982970656214335412117874644487423537040413414&#45;2008554569736104303724736810557958213&#45;307933898330344884&#45;29046668056205988358629495254995206395</title>
<g id="a_node9"><a xlink:title="Gear box speed vector [RPM].">
<path fill="cyan" stroke="black" d="M1329.5,-227C1329.5,-227 1017.5,-227 1017.5,-227 1011.5,-227 1005.5,-221 1005.5,-215 1005.5,-215 1005.5,-191 1005.5,-191 1005.5,-185 1011.5,-179 1017.5,-179 1017.5,-179 1329.5,-179 1329.5,-179 1335.5,-179 1341.5,-185 1341.5,-191 1341.5,-191 1341.5,-215 1341.5,-215 1341.5,-221 1335.5,-227 1329.5,-227"/>
<text text-anchor="start" x="1115" y="-209.8" font-family="Times New Roman,serif" font-size="14.00">gear_box_speeds_in</text>
<polygon fill="none" stroke="black" points="1013.5,-183 1013.5,-204 1107.5,-204 1107.5,-183 1013.5,-183"/>
<text text-anchor="start" x="1016.5" y="-189.8" font-family="Times New Roman,serif" font-size="14.00">remote child 0=</text>
<polygon fill="none" stroke="black" points="1107.5,-183 1107.5,-204 1333.5,-204 1333.5,-183 1107.5,-183"/>
<text text-anchor="start" x="1110.5" y="-189.8" font-family="Times New Roman,serif" font-size="14.00">mechanical model:gear_box_speeds_in</text>
</a>
</g>
</g>
<!-- cluster_cluster_cluster_cluster_cluster_cluster_cluster_&#45;220212124901982970656214335412117874644487423537040413414&#45;2008554569736104303724736810557958213&#45;307933898330344884&#45;2904666805620598835479786920904010690&#45;&gt;cluster_cluster_cluster_cluster_cluster_cluster_cluster_&#45;220212124901982970656214335412117874644487423537040413414&#45;2008554569736104303724736810557958213&#45;307933898330344884&#45;29046668056205988358629495254995206395 -->
<g id="edge1" class="edge"><title>cluster_cluster_cluster_cluster_cluster_cluster_cluster_&#45;220212124901982970656214335412117874644487423537040413414&#45;2008554569736104303724736810557958213&#45;307933898330344884&#45;2904666805620598835479786920904010690&#45;&gt;cluster_cluster_cluster_cluster_cluster_cluster_cluster_&#45;220212124901982970656214335412117874644487423537040413414&#45;2008554569736104303724736810557958213&#45;307933898330344884&#45;29046668056205988358629495254995206395</title>
<path fill="none" stroke="black" d="M1173.5,-262.909C1173.5,-262.909 1173.5,-237.199 1173.5,-237.199"/>
<polygon fill="black" stroke="black" points="1177,-237.199 1173.5,-227.199 1170,-237.199 1177,-237.199"/>
</g>
<!-- cluster_cluster_cluster_cluster_cluster_cluster_cluster_&#45;220212124901982970656214335412117874644487423537040413414&#45;2008554569736104303724736810557958213&#45;307933898330344884&#45;2904666805620598835&#45;9176462784606522342 -->
<g id="node4" class="node"><title>cluster_cluster_cluster_cluster_cluster_cluster_cluster_&#45;220212124901982970656214335412117874644487423537040413414&#45;2008554569736104303724736810557958213&#45;307933898330344884&#45;2904666805620598835&#45;9176462784606522342</title>
<g id="a_node4"><a xlink:href="./../../../../ESM-wltp_h_errors/ESM-wltp_h_error_vs_wltp_h/CO2MPAS_physical_model/gear_box_model/mechanical_model/co2mpas.model.physical.gear_box.mechanicalcalculate_speed_velocity_ratios.txt" xlink:title="Calculates speed velocity ratios of the gear box [h*RPM/km].">
<polygon fill="springgreen" stroke="black" points="1946.5,-299 1748.5,-299 1748.5,-263 1946.5,-263 1946.5,-299"/>
<text text-anchor="start" x="1758.5" y="-276.8" font-family="Times New Roman,serif" font-size="14.00">calculate_speed_velocity_ratios</text>
</a>
</g>
</g>
<!-- cluster_cluster_cluster_cluster_cluster_cluster_cluster_&#45;220212124901982970656214335412117874644487423537040413414&#45;2008554569736104303724736810557958213&#45;307933898330344884&#45;2904666805620598835&#45;4081924377432798624 -->
<g id="node16" class="node"><title>cluster_cluster_cluster_cluster_cluster_cluster_cluster_&#45;220212124901982970656214335412117874644487423537040413414&#45;2008554569736104303724736810557958213&#45;307933898330344884&#45;2904666805620598835&#45;4081924377432798624</title>
<g id="a_node16"><a xlink:title="Constant speed velocity (or velocity speed) ratios of the gear box &#160;&#160;&#160;&#160;&#160;&#160;&#160;&#160;[h*RPM/km or km/(h*RPM)].">
<path fill="cyan" stroke="black" d="M2006.5,-227C2006.5,-227 1688.5,-227 1688.5,-227 1682.5,-227 1676.5,-221 1676.5,-215 1676.5,-215 1676.5,-191 1676.5,-191 1676.5,-185 1682.5,-179 1688.5,-179 1688.5,-179 2006.5,-179 2006.5,-179 2012.5,-179 2018.5,-185 2018.5,-191 2018.5,-191 2018.5,-215 2018.5,-215 2018.5,-221 2012.5,-227 2006.5,-227"/>
<text text-anchor="start" x="1786" y="-209.8" font-family="Times New Roman,serif" font-size="14.00">speed_velocity_ratios</text>
<polygon fill="none" stroke="black" points="1684.5,-183 1684.5,-204 1778.5,-204 1778.5,-183 1684.5,-183"/>
<text text-anchor="start" x="1687.5" y="-189.8" font-family="Times New Roman,serif" font-size="14.00">remote child 0=</text>
<polygon fill="none" stroke="black" points="1778.5,-183 1778.5,-204 2010.5,-204 2010.5,-183 1778.5,-183"/>
<text text-anchor="start" x="1781.5" y="-189.8" font-family="Times New Roman,serif" font-size="14.00">mechanical model:speed_velocity_ratios</text>
</a>
</g>
</g>
<!-- cluster_cluster_cluster_cluster_cluster_cluster_cluster_&#45;220212124901982970656214335412117874644487423537040413414&#45;2008554569736104303724736810557958213&#45;307933898330344884&#45;2904666805620598835&#45;9176462784606522342&#45;&gt;cluster_cluster_cluster_cluster_cluster_cluster_cluster_&#45;220212124901982970656214335412117874644487423537040413414&#45;2008554569736104303724736810557958213&#45;307933898330344884&#45;2904666805620598835&#45;4081924377432798624 -->
<g id="edge2" class="edge"><title>cluster_cluster_cluster_cluster_cluster_cluster_cluster_&#45;220212124901982970656214335412117874644487423537040413414&#45;2008554569736104303724736810557958213&#45;307933898330344884&#45;2904666805620598835&#45;9176462784606522342&#45;&gt;cluster_cluster_cluster_cluster_cluster_cluster_cluster_&#45;220212124901982970656214335412117874644487423537040413414&#45;2008554569736104303724736810557958213&#45;307933898330344884&#45;2904666805620598835&#45;4081924377432798624</title>
<path fill="none" stroke="black" d="M1847.5,-262.909C1847.5,-262.909 1847.5,-237.199 1847.5,-237.199"/>
<polygon fill="black" stroke="black" points="1851,-237.199 1847.5,-227.199 1844,-237.199 1851,-237.199"/>
</g>
<!-- cluster_cluster_cluster_cluster_cluster_cluster_cluster_&#45;220212124901982970656214335412117874644487423537040413414&#45;2008554569736104303724736810557958213&#45;307933898330344884&#45;2904666805620598835&#45;4521207554857702138 -->
<g id="node5" class="node"><title>cluster_cluster_cluster_cluster_cluster_cluster_cluster_&#45;220212124901982970656214335412117874644487423537040413414&#45;2008554569736104303724736810557958213&#45;307933898330344884&#45;2904666805620598835&#45;4521207554857702138</title>
<g id="a_node5"><a xlink:href="./../../../../ESM-wltp_h_errors/ESM-wltp_h_error_vs_wltp_h/CO2MPAS_physical_model/gear_box_model/mechanical_model/co2mpas.model.physical.gear_box.mechanicalcalculate_velocity_speed_ratios.txt" xlink:title="Calculates velocity speed (or speed velocity) ratios of the gear box &#160;&#160;&#160;&#160;[km/(h*RPM) or h*RPM/km].">
<polygon fill="springgreen" stroke="black" points="1946.5,-143 1748.5,-143 1748.5,-107 1946.5,-107 1946.5,-143"/>
<text text-anchor="start" x="1758.5" y="-120.8" font-family="Times New Roman,serif" font-size="14.00">calculate_velocity_speed_ratios</text>
</a>
</g>
</g>
<!-- cluster_cluster_cluster_cluster_cluster_cluster_cluster_&#45;220212124901982970656214335412117874644487423537040413414&#45;2008554569736104303724736810557958213&#45;307933898330344884&#45;29046668056205988355551426227045653540 -->
<g id="node20" class="node"><title>cluster_cluster_cluster_cluster_cluster_cluster_cluster_&#45;220212124901982970656214335412117874644487423537040413414&#45;2008554569736104303724736810557958213&#45;307933898330344884&#45;29046668056205988355551426227045653540</title>
<g id="a_node20"><a xlink:title="Constant velocity speed (or speed velocity) ratios of the gear box &#160;&#160;&#160;&#160;&#160;&#160;&#160;&#160;[km/(h*RPM) or h*RPM/km].">
<path fill="cyan" stroke="black" d="M2006.5,-71C2006.5,-71 1688.5,-71 1688.5,-71 1682.5,-71 1676.5,-65 1676.5,-59 1676.5,-59 1676.5,-35 1676.5,-35 1676.5,-29 1682.5,-23 1688.5,-23 1688.5,-23 2006.5,-23 2006.5,-23 2012.5,-23 2018.5,-29 2018.5,-35 2018.5,-35 2018.5,-59 2018.5,-59 2018.5,-65 2012.5,-71 2006.5,-71"/>
<text text-anchor="start" x="1786" y="-53.8" font-family="Times New Roman,serif" font-size="14.00">velocity_speed_ratios</text>
<polygon fill="none" stroke="black" points="1684.5,-27 1684.5,-48 1778.5,-48 1778.5,-27 1684.5,-27"/>
<text text-anchor="start" x="1687.5" y="-33.8" font-family="Times New Roman,serif" font-size="14.00">remote child 0=</text>
<polygon fill="none" stroke="black" points="1778.5,-27 1778.5,-48 2010.5,-48 2010.5,-27 1778.5,-27"/>
<text text-anchor="start" x="1781.5" y="-33.8" font-family="Times New Roman,serif" font-size="14.00">mechanical model:velocity_speed_ratios</text>
</a>
</g>
</g>
<!-- cluster_cluster_cluster_cluster_cluster_cluster_cluster_&#45;220212124901982970656214335412117874644487423537040413414&#45;2008554569736104303724736810557958213&#45;307933898330344884&#45;2904666805620598835&#45;4521207554857702138&#45;&gt;cluster_cluster_cluster_cluster_cluster_cluster_cluster_&#45;220212124901982970656214335412117874644487423537040413414&#45;2008554569736104303724736810557958213&#45;307933898330344884&#45;29046668056205988355551426227045653540 -->
<g id="edge3" class="edge"><title>cluster_cluster_cluster_cluster_cluster_cluster_cluster_&#45;220212124901982970656214335412117874644487423537040413414&#45;2008554569736104303724736810557958213&#45;307933898330344884&#45;2904666805620598835&#45;4521207554857702138&#45;&gt;cluster_cluster_cluster_cluster_cluster_cluster_cluster_&#45;220212124901982970656214335412117874644487423537040413414&#45;2008554569736104303724736810557958213&#45;307933898330344884&#45;29046668056205988355551426227045653540</title>
<path fill="none" stroke="black" d="M1847.5,-106.909C1847.5,-106.909 1847.5,-81.1988 1847.5,-81.1988"/>
<polygon fill="black" stroke="black" points="1851,-81.1988 1847.5,-71.1988 1844,-81.1988 1851,-81.1988"/>
</g>
<!-- cluster_cluster_cluster_cluster_cluster_cluster_cluster_&#45;220212124901982970656214335412117874644487423537040413414&#45;2008554569736104303724736810557958213&#45;307933898330344884&#45;29046668056205988359136847606665580011 -->
<g id="node6" class="node"><title>cluster_cluster_cluster_cluster_cluster_cluster_cluster_&#45;220212124901982970656214335412117874644487423537040413414&#45;2008554569736104303724736810557958213&#45;307933898330344884&#45;29046668056205988359136847606665580011</title>
<g id="a_node6"><a xlink:href="./../../../../ESM-wltp_h_errors/ESM-wltp_h_error_vs_wltp_h/CO2MPAS_physical_model/gear_box_model/mechanical_model/co2mpas.model.physical.gear_box.mechanicalidentify_n_gears.txt" xlink:title="Identify the number of gears [&#45;].">
<polygon fill="springgreen" stroke="black" points="1583.5,-299 1469.5,-299 1469.5,-263 1583.5,-263 1583.5,-299"/>
<text text-anchor="start" x="1480" y="-276.8" font-family="Times New Roman,serif" font-size="14.00">identify_n_gears</text>
</a>
</g>
</g>
<!-- cluster_cluster_cluster_cluster_cluster_cluster_cluster_&#45;220212124901982970656214335412117874644487423537040413414&#45;2008554569736104303724736810557958213&#45;307933898330344884&#45;2904666805620598835&#45;3590457341320412837 -->
<g id="node13" class="node"><title>cluster_cluster_cluster_cluster_cluster_cluster_cluster_&#45;220212124901982970656214335412117874644487423537040413414&#45;2008554569736104303724736810557958213&#45;307933898330344884&#45;2904666805620598835&#45;3590457341320412837</title>
<g id="a_node13"><a xlink:title="Number of gears [&#45;].">
<path fill="cyan" stroke="black" d="M1646,-227C1646,-227 1407,-227 1407,-227 1401,-227 1395,-221 1395,-215 1395,-215 1395,-191 1395,-191 1395,-185 1401,-179 1407,-179 1407,-179 1646,-179 1646,-179 1652,-179 1658,-185 1658,-191 1658,-191 1658,-215 1658,-215 1658,-221 1652,-227 1646,-227"/>
<text text-anchor="start" x="1505" y="-209.8" font-family="Times New Roman,serif" font-size="14.00">n_gears</text>
<polygon fill="none" stroke="black" points="1403.5,-183 1403.5,-204 1497.5,-204 1497.5,-183 1403.5,-183"/>
<text text-anchor="start" x="1406.5" y="-189.8" font-family="Times New Roman,serif" font-size="14.00">remote child 0=</text>
<polygon fill="none" stroke="black" points="1497.5,-183 1497.5,-204 1650.5,-204 1650.5,-183 1497.5,-183"/>
<text text-anchor="start" x="1500.5" y="-189.8" font-family="Times New Roman,serif" font-size="14.00">mechanical model:n_gears</text>
</a>
</g>
</g>
<!-- cluster_cluster_cluster_cluster_cluster_cluster_cluster_&#45;220212124901982970656214335412117874644487423537040413414&#45;2008554569736104303724736810557958213&#45;307933898330344884&#45;29046668056205988359136847606665580011&#45;&gt;cluster_cluster_cluster_cluster_cluster_cluster_cluster_&#45;220212124901982970656214335412117874644487423537040413414&#45;2008554569736104303724736810557958213&#45;307933898330344884&#45;2904666805620598835&#45;3590457341320412837 -->
<g id="edge4" class="edge"><title>cluster_cluster_cluster_cluster_cluster_cluster_cluster_&#45;220212124901982970656214335412117874644487423537040413414&#45;2008554569736104303724736810557958213&#45;307933898330344884&#45;29046668056205988359136847606665580011&#45;&gt;cluster_cluster_cluster_cluster_cluster_cluster_cluster_&#45;220212124901982970656214335412117874644487423537040413414&#45;2008554569736104303724736810557958213&#45;307933898330344884&#45;2904666805620598835&#45;3590457341320412837</title>
<path fill="none" stroke="black" d="M1526.5,-262.909C1526.5,-262.909 1526.5,-237.199 1526.5,-237.199"/>
<polygon fill="black" stroke="black" points="1530,-237.199 1526.5,-227.199 1523,-237.199 1530,-237.199"/>
</g>
<!-- cluster_cluster_cluster_cluster_cluster_cluster_cluster_&#45;220212124901982970656214335412117874644487423537040413414&#45;2008554569736104303724736810557958213&#45;307933898330344884&#45;2904666805620598835&#45;3989215812469180633 -->
<g id="node7" class="node"><title>cluster_cluster_cluster_cluster_cluster_cluster_cluster_&#45;220212124901982970656214335412117874644487423537040413414&#45;2008554569736104303724736810557958213&#45;307933898330344884&#45;2904666805620598835&#45;3989215812469180633</title>
<g id="a_node7"><a xlink:title="Final drive ratio [&#45;].">
<path fill="cyan" stroke="black" d="M2315.5,-383C2315.5,-383 2021.5,-383 2021.5,-383 2015.5,-383 2009.5,-377 2009.5,-371 2009.5,-371 2009.5,-347 2009.5,-347 2009.5,-341 2015.5,-335 2021.5,-335 2021.5,-335 2315.5,-335 2315.5,-335 2321.5,-335 2327.5,-341 2327.5,-347 2327.5,-347 2327.5,-371 2327.5,-371 2327.5,-377 2321.5,-383 2315.5,-383"/>
<text text-anchor="start" x="2123" y="-365.8" font-family="Times New Roman,serif" font-size="14.00">final_drive_ratio</text>
<polygon fill="none" stroke="black" points="2017.5,-339 2017.5,-360 2119.5,-360 2119.5,-339 2017.5,-339"/>
<text text-anchor="start" x="2020.5" y="-345.8" font-family="Times New Roman,serif" font-size="14.00">remote parent 0=</text>
<polygon fill="none" stroke="black" points="2119.5,-339 2119.5,-360 2319.5,-360 2319.5,-339 2119.5,-339"/>
<text text-anchor="start" x="2122.5" y="-345.8" font-family="Times New Roman,serif" font-size="14.00">mechanical model:final_drive_ratio</text>
</a>
</g>
</g>
<!-- cluster_cluster_cluster_cluster_cluster_cluster_cluster_&#45;220212124901982970656214335412117874644487423537040413414&#45;2008554569736104303724736810557958213&#45;307933898330344884&#45;2904666805620598835&#45;3989215812469180633&#45;&gt;cluster_cluster_cluster_cluster_cluster_cluster_cluster_&#45;220212124901982970656214335412117874644487423537040413414&#45;2008554569736104303724736810557958213&#45;307933898330344884&#45;2904666805620598835&#45;9176462784606522342 -->
<g id="edge5" class="edge"><title>cluster_cluster_cluster_cluster_cluster_cluster_cluster_&#45;220212124901982970656214335412117874644487423537040413414&#45;2008554569736104303724736810557958213&#45;307933898330344884&#45;2904666805620598835&#45;3989215812469180633&#45;&gt;cluster_cluster_cluster_cluster_cluster_cluster_cluster_&#45;220212124901982970656214335412117874644487423537040413414&#45;2008554569736104303724736810557958213&#45;307933898330344884&#45;2904666805620598835&#45;9176462784606522342</title>
<path fill="none" stroke="black" d="M2014,-334.748C2014,-311.851 2014,-281 2014,-281 2014,-281 1956.76,-281 1956.76,-281"/>
<polygon fill="black" stroke="black" points="1956.76,-277.5 1946.76,-281 1956.76,-284.5 1956.76,-277.5"/>
</g>
<!-- cluster_cluster_cluster_cluster_cluster_cluster_cluster_&#45;220212124901982970656214335412117874644487423537040413414&#45;2008554569736104303724736810557958213&#45;307933898330344884&#45;2904666805620598835&#45;9126591676917095117 -->
<g id="node8" class="node"><title>cluster_cluster_cluster_cluster_cluster_cluster_cluster_&#45;220212124901982970656214335412117874644487423537040413414&#45;2008554569736104303724736810557958213&#45;307933898330344884&#45;2904666805620598835&#45;9126591676917095117</title>
<g id="a_node8"><a xlink:title="Gear box ratios [&#45;].">
<path fill="cyan" stroke="black" d="M1673.5,-383C1673.5,-383 1379.5,-383 1379.5,-383 1373.5,-383 1367.5,-377 1367.5,-371 1367.5,-371 1367.5,-347 1367.5,-347 1367.5,-341 1373.5,-335 1379.5,-335 1379.5,-335 1673.5,-335 1673.5,-335 1679.5,-335 1685.5,-341 1685.5,-347 1685.5,-347 1685.5,-371 1685.5,-371 1685.5,-377 1679.5,-383 1673.5,-383"/>
<text text-anchor="start" x="1481" y="-365.8" font-family="Times New Roman,serif" font-size="14.00">gear_box_ratios</text>
<polygon fill="none" stroke="black" points="1375.5,-339 1375.5,-360 1477.5,-360 1477.5,-339 1375.5,-339"/>
<text text-anchor="start" x="1378.5" y="-345.8" font-family="Times New Roman,serif" font-size="14.00">remote parent 0=</text>
<polygon fill="none" stroke="black" points="1477.5,-339 1477.5,-360 1677.5,-360 1677.5,-339 1477.5,-339"/>
<text text-anchor="start" x="1480.5" y="-345.8" font-family="Times New Roman,serif" font-size="14.00">mechanical model:gear_box_ratios</text>
</a>
</g>
</g>
<!-- cluster_cluster_cluster_cluster_cluster_cluster_cluster_&#45;220212124901982970656214335412117874644487423537040413414&#45;2008554569736104303724736810557958213&#45;307933898330344884&#45;2904666805620598835&#45;9126591676917095117&#45;&gt;cluster_cluster_cluster_cluster_cluster_cluster_cluster_&#45;220212124901982970656214335412117874644487423537040413414&#45;2008554569736104303724736810557958213&#45;307933898330344884&#45;2904666805620598835479786920904010690 -->
<g id="edge6" class="edge"><title>cluster_cluster_cluster_cluster_cluster_cluster_cluster_&#45;220212124901982970656214335412117874644487423537040413414&#45;2008554569736104303724736810557958213&#45;307933898330344884&#45;2904666805620598835&#45;9126591676917095117&#45;&gt;cluster_cluster_cluster_cluster_cluster_cluster_cluster_&#45;220212124901982970656214335412117874644487423537040413414&#45;2008554569736104303724736810557958213&#45;307933898330344884&#45;2904666805620598835479786920904010690</title>
<path fill="none" stroke="black" d="M1381.25,-334.748C1381.25,-311.851 1381.25,-281 1381.25,-281 1381.25,-281 1290.72,-281 1290.72,-281"/>
<polygon fill="black" stroke="black" points="1290.72,-277.5 1280.72,-281 1290.72,-284.5 1290.72,-277.5"/>
</g>
<!-- cluster_cluster_cluster_cluster_cluster_cluster_cluster_&#45;220212124901982970656214335412117874644487423537040413414&#45;2008554569736104303724736810557958213&#45;307933898330344884&#45;2904666805620598835&#45;9126591676917095117&#45;&gt;cluster_cluster_cluster_cluster_cluster_cluster_cluster_&#45;220212124901982970656214335412117874644487423537040413414&#45;2008554569736104303724736810557958213&#45;307933898330344884&#45;2904666805620598835&#45;9176462784606522342 -->
<g id="edge7" class="edge"><title>cluster_cluster_cluster_cluster_cluster_cluster_cluster_&#45;220212124901982970656214335412117874644487423537040413414&#45;2008554569736104303724736810557958213&#45;307933898330344884&#45;2904666805620598835&#45;9126591676917095117&#45;&gt;cluster_cluster_cluster_cluster_cluster_cluster_cluster_&#45;220212124901982970656214335412117874644487423537040413414&#45;2008554569736104303724736810557958213&#45;307933898330344884&#45;2904666805620598835&#45;9176462784606522342</title>
<path fill="none" stroke="black" d="M1681,-334.748C1681,-311.851 1681,-281 1681,-281 1681,-281 1738.24,-281 1738.24,-281"/>
<polygon fill="black" stroke="black" points="1738.24,-284.5 1748.24,-281 1738.24,-277.5 1738.24,-284.5"/>
</g>
<!-- cluster_cluster_cluster_cluster_cluster_cluster_cluster_&#45;220212124901982970656214335412117874644487423537040413414&#45;2008554569736104303724736810557958213&#45;307933898330344884&#45;2904666805620598835&#45;9126591676917095117&#45;&gt;cluster_cluster_cluster_cluster_cluster_cluster_cluster_&#45;220212124901982970656214335412117874644487423537040413414&#45;2008554569736104303724736810557958213&#45;307933898330344884&#45;29046668056205988359136847606665580011 -->
<g id="edge8" class="edge"><title>cluster_cluster_cluster_cluster_cluster_cluster_cluster_&#45;220212124901982970656214335412117874644487423537040413414&#45;2008554569736104303724736810557958213&#45;307933898330344884&#45;2904666805620598835&#45;9126591676917095117&#45;&gt;cluster_cluster_cluster_cluster_cluster_cluster_cluster_&#45;220212124901982970656214335412117874644487423537040413414&#45;2008554569736104303724736810557958213&#45;307933898330344884&#45;29046668056205988359136847606665580011</title>
<path fill="none" stroke="black" d="M1526.5,-334.748C1526.5,-334.748 1526.5,-309.288 1526.5,-309.288"/>
<polygon fill="black" stroke="black" points="1530,-309.287 1526.5,-299.288 1523,-309.288 1530,-309.287"/>
</g>
<!-- cluster_cluster_cluster_cluster_cluster_cluster_cluster_&#45;220212124901982970656214335412117874644487423537040413414&#45;2008554569736104303724736810557958213&#45;307933898330344884&#45;2904666805620598835&#45;7328576633694589085 -->
<g id="node10" class="node"><title>cluster_cluster_cluster_cluster_cluster_cluster_cluster_&#45;220212124901982970656214335412117874644487423537040413414&#45;2008554569736104303724736810557958213&#45;307933898330344884&#45;2904666805620598835&#45;7328576633694589085</title>
<g id="a_node10"><a xlink:title="Wheel speed vector [RPM].">
<path fill="cyan" stroke="black" d="M1337.5,-383C1337.5,-383 1009.5,-383 1009.5,-383 1003.5,-383 997.5,-377 997.5,-371 997.5,-371 997.5,-347 997.5,-347 997.5,-341 1003.5,-335 1009.5,-335 1009.5,-335 1337.5,-335 1337.5,-335 1343.5,-335 1349.5,-341 1349.5,-347 1349.5,-347 1349.5,-371 1349.5,-371 1349.5,-377 1343.5,-383 1337.5,-383"/>
<text text-anchor="start" x="1111" y="-365.8" font-family="Times New Roman,serif" font-size="14.00">gear_box_speeds_out</text>
<polygon fill="none" stroke="black" points="1005.5,-339 1005.5,-360 1107.5,-360 1107.5,-339 1005.5,-339"/>
<text text-anchor="start" x="1008.5" y="-345.8" font-family="Times New Roman,serif" font-size="14.00">remote parent 0=</text>
<polygon fill="none" stroke="black" points="1107.5,-339 1107.5,-360 1341.5,-360 1341.5,-339 1107.5,-339"/>
<text text-anchor="start" x="1110.5" y="-345.8" font-family="Times New Roman,serif" font-size="14.00">mechanical model:gear_box_speeds_out</text>
</a>
</g>
</g>
<!-- cluster_cluster_cluster_cluster_cluster_cluster_cluster_&#45;220212124901982970656214335412117874644487423537040413414&#45;2008554569736104303724736810557958213&#45;307933898330344884&#45;2904666805620598835&#45;7328576633694589085&#45;&gt;cluster_cluster_cluster_cluster_cluster_cluster_cluster_&#45;220212124901982970656214335412117874644487423537040413414&#45;2008554569736104303724736810557958213&#45;307933898330344884&#45;2904666805620598835479786920904010690 -->
<g id="edge9" class="edge"><title>cluster_cluster_cluster_cluster_cluster_cluster_cluster_&#45;220212124901982970656214335412117874644487423537040413414&#45;2008554569736104303724736810557958213&#45;307933898330344884&#45;2904666805620598835&#45;7328576633694589085&#45;&gt;cluster_cluster_cluster_cluster_cluster_cluster_cluster_&#45;220212124901982970656214335412117874644487423537040413414&#45;2008554569736104303724736810557958213&#45;307933898330344884&#45;2904666805620598835479786920904010690</title>
<path fill="none" stroke="black" d="M1173.5,-334.748C1173.5,-334.748 1173.5,-309.288 1173.5,-309.288"/>
<polygon fill="black" stroke="black" points="1177,-309.287 1173.5,-299.288 1170,-309.288 1177,-309.287"/>
</g>
<!-- cluster_cluster_cluster_cluster_cluster_cluster_cluster_&#45;220212124901982970656214335412117874644487423537040413414&#45;2008554569736104303724736810557958213&#45;307933898330344884&#45;29046668056205988355823726384603252559 -->
<g id="node11" class="node"><title>cluster_cluster_cluster_cluster_cluster_cluster_cluster_&#45;220212124901982970656214335412117874644487423537040413414&#45;2008554569736104303724736810557958213&#45;307933898330344884&#45;29046668056205988355823726384603252559</title>
<g id="a_node11"><a xlink:title="Gear vector [&#45;].">
<path fill="cyan" stroke="black" d="M967,-383C967,-383 734,-383 734,-383 728,-383 722,-377 722,-371 722,-371 722,-347 722,-347 722,-341 728,-335 734,-335 734,-335 967,-335 967,-335 973,-335 979,-341 979,-347 979,-347 979,-371 979,-371 979,-377 973,-383 967,-383"/>
<text text-anchor="start" x="836" y="-365.8" font-family="Times New Roman,serif" font-size="14.00">gears</text>
<polygon fill="none" stroke="black" points="730.5,-339 730.5,-360 832.5,-360 832.5,-339 730.5,-339"/>
<text text-anchor="start" x="733.5" y="-345.8" font-family="Times New Roman,serif" font-size="14.00">remote parent 0=</text>
<polygon fill="none" stroke="black" points="832.5,-339 832.5,-360 971.5,-360 971.5,-339 832.5,-339"/>
<text text-anchor="start" x="835.5" y="-345.8" font-family="Times New Roman,serif" font-size="14.00">mechanical model:gears</text>
</a>
</g>
</g>
<!-- cluster_cluster_cluster_cluster_cluster_cluster_cluster_&#45;220212124901982970656214335412117874644487423537040413414&#45;2008554569736104303724736810557958213&#45;307933898330344884&#45;29046668056205988355823726384603252559&#45;&gt;cluster_cluster_cluster_cluster_cluster_cluster_cluster_&#45;220212124901982970656214335412117874644487423537040413414&#45;2008554569736104303724736810557958213&#45;307933898330344884&#45;2904666805620598835479786920904010690 -->
<g id="edge10" class="edge"><title>cluster_cluster_cluster_cluster_cluster_cluster_cluster_&#45;220212124901982970656214335412117874644487423537040413414&#45;2008554569736104303724736810557958213&#45;307933898330344884&#45;29046668056205988355823726384603252559&#45;&gt;cluster_cluster_cluster_cluster_cluster_cluster_cluster_&#45;220212124901982970656214335412117874644487423537040413414&#45;2008554569736104303724736810557958213&#45;307933898330344884&#45;2904666805620598835479786920904010690</title>
<path fill="none" stroke="black" d="M850.5,-334.748C850.5,-311.851 850.5,-281 850.5,-281 850.5,-281 1056.39,-281 1056.39,-281"/>
<polygon fill="black" stroke="black" points="1056.39,-284.5 1066.39,-281 1056.39,-277.5 1056.39,-284.5"/>
</g>
<!-- cluster_cluster_cluster_cluster_cluster_cluster_cluster_&#45;220212124901982970656214335412117874644487423537040413414&#45;2008554569736104303724736810557958213&#45;307933898330344884&#45;2904666805620598835&#45;3009578804924602371 -->
<g id="node12" class="node"><title>cluster_cluster_cluster_cluster_cluster_cluster_cluster_&#45;220212124901982970656214335412117874644487423537040413414&#45;2008554569736104303724736810557958213&#45;307933898330344884&#45;2904666805620598835&#45;3009578804924602371</title>
<g id="a_node12"><a xlink:title="idle_engine_speed">
<path fill="cyan" stroke="black" d="M2663.5,-383C2663.5,-383 2357.5,-383 2357.5,-383 2351.5,-383 2345.5,-377 2345.5,-371 2345.5,-371 2345.5,-347 2345.5,-347 2345.5,-341 2351.5,-335 2357.5,-335 2357.5,-335 2663.5,-335 2663.5,-335 2669.5,-335 2675.5,-341 2675.5,-347 2675.5,-347 2675.5,-371 2675.5,-371 2675.5,-377 2669.5,-383 2663.5,-383"/>
<text text-anchor="start" x="2459" y="-365.8" font-family="Times New Roman,serif" font-size="14.00">idle_engine_speed</text>
<polygon fill="none" stroke="black" points="2353.5,-339 2353.5,-360 2455.5,-360 2455.5,-339 2353.5,-339"/>
<text text-anchor="start" x="2356.5" y="-345.8" font-family="Times New Roman,serif" font-size="14.00">remote parent 0=</text>
<polygon fill="none" stroke="black" points="2455.5,-339 2455.5,-360 2667.5,-360 2667.5,-339 2455.5,-339"/>
<text text-anchor="start" x="2458.5" y="-345.8" font-family="Times New Roman,serif" font-size="14.00">mechanical model:idle_engine_speed</text>
</a>
</g>
</g>
<!-- cluster_cluster_cluster_cluster_cluster_cluster_cluster_&#45;220212124901982970656214335412117874644487423537040413414&#45;2008554569736104303724736810557958213&#45;307933898330344884&#45;2904666805620598835&#45;3007001203767642810 -->
<g id="node14" class="node"><title>cluster_cluster_cluster_cluster_cluster_cluster_cluster_&#45;220212124901982970656214335412117874644487423537040413414&#45;2008554569736104303724736810557958213&#45;307933898330344884&#45;2904666805620598835&#45;3007001203767642810</title>
<g id="a_node14"><a xlink:title="plateau_acceleration">
<path fill="cyan" stroke="black" d="M3021.5,-383C3021.5,-383 2705.5,-383 2705.5,-383 2699.5,-383 2693.5,-377 2693.5,-371 2693.5,-371 2693.5,-347 2693.5,-347 2693.5,-341 2699.5,-335 2705.5,-335 2705.5,-335 3021.5,-335 3021.5,-335 3027.5,-335 3033.5,-341 3033.5,-347 3033.5,-347 3033.5,-371 3033.5,-371 3033.5,-377 3027.5,-383 3021.5,-383"/>
<text text-anchor="start" x="2807" y="-365.8" font-family="Times New Roman,serif" font-size="14.00">plateau_acceleration</text>
<polygon fill="none" stroke="black" points="2701.5,-339 2701.5,-360 2803.5,-360 2803.5,-339 2701.5,-339"/>
<text text-anchor="start" x="2704.5" y="-345.8" font-family="Times New Roman,serif" font-size="14.00">remote parent 0=</text>
<polygon fill="none" stroke="black" points="2803.5,-339 2803.5,-360 3025.5,-360 3025.5,-339 2803.5,-339"/>
<text text-anchor="start" x="2806.5" y="-345.8" font-family="Times New Roman,serif" font-size="14.00">mechanical model:plateau_acceleration</text>
</a>
</g>
</g>
<!-- cluster_cluster_cluster_cluster_cluster_cluster_cluster_&#45;220212124901982970656214335412117874644487423537040413414&#45;2008554569736104303724736810557958213&#45;307933898330344884&#45;29046668056205988352855877872949932050 -->
<g id="node15" class="node"><title>cluster_cluster_cluster_cluster_cluster_cluster_cluster_&#45;220212124901982970656214335412117874644487423537040413414&#45;2008554569736104303724736810557958213&#45;307933898330344884&#45;29046668056205988352855877872949932050</title>
<g id="a_node15"><a xlink:title="Dynamic radius of the wheels [m].">
<path fill="cyan" stroke="black" d="M1979,-383C1979,-383 1716,-383 1716,-383 1710,-383 1704,-377 1704,-371 1704,-371 1704,-347 1704,-347 1704,-341 1710,-335 1716,-335 1716,-335 1979,-335 1979,-335 1985,-335 1991,-341 1991,-347 1991,-347 1991,-371 1991,-371 1991,-377 1985,-383 1979,-383"/>
<text text-anchor="start" x="1818" y="-365.8" font-family="Times New Roman,serif" font-size="14.00">r_dynamic</text>
<polygon fill="none" stroke="black" points="1712.5,-339 1712.5,-360 1814.5,-360 1814.5,-339 1712.5,-339"/>
<text text-anchor="start" x="1715.5" y="-345.8" font-family="Times New Roman,serif" font-size="14.00">remote parent 0=</text>
<polygon fill="none" stroke="black" points="1814.5,-339 1814.5,-360 1983.5,-360 1983.5,-339 1814.5,-339"/>
<text text-anchor="start" x="1817.5" y="-345.8" font-family="Times New Roman,serif" font-size="14.00">mechanical model:r_dynamic</text>
</a>
</g>
</g>
<!-- cluster_cluster_cluster_cluster_cluster_cluster_cluster_&#45;220212124901982970656214335412117874644487423537040413414&#45;2008554569736104303724736810557958213&#45;307933898330344884&#45;29046668056205988352855877872949932050&#45;&gt;cluster_cluster_cluster_cluster_cluster_cluster_cluster_&#45;220212124901982970656214335412117874644487423537040413414&#45;2008554569736104303724736810557958213&#45;307933898330344884&#45;2904666805620598835&#45;9176462784606522342 -->
<g id="edge11" class="edge"><title>cluster_cluster_cluster_cluster_cluster_cluster_cluster_&#45;220212124901982970656214335412117874644487423537040413414&#45;2008554569736104303724736810557958213&#45;307933898330344884&#45;29046668056205988352855877872949932050&#45;&gt;cluster_cluster_cluster_cluster_cluster_cluster_cluster_&#45;220212124901982970656214335412117874644487423537040413414&#45;2008554569736104303724736810557958213&#45;307933898330344884&#45;2904666805620598835&#45;9176462784606522342</title>
<path fill="none" stroke="black" d="M1847.5,-334.748C1847.5,-334.748 1847.5,-309.288 1847.5,-309.288"/>
<polygon fill="black" stroke="black" points="1851,-309.287 1847.5,-299.288 1844,-309.288 1851,-309.287"/>
</g>
<!-- cluster_cluster_cluster_cluster_cluster_cluster_cluster_&#45;220212124901982970656214335412117874644487423537040413414&#45;2008554569736104303724736810557958213&#45;307933898330344884&#45;2904666805620598835&#45;4081924377432798624&#45;&gt;cluster_cluster_cluster_cluster_cluster_cluster_cluster_&#45;220212124901982970656214335412117874644487423537040413414&#45;2008554569736104303724736810557958213&#45;307933898330344884&#45;2904666805620598835&#45;4521207554857702138 -->
<g id="edge12" class="edge"><title>cluster_cluster_cluster_cluster_cluster_cluster_cluster_&#45;220212124901982970656214335412117874644487423537040413414&#45;2008554569736104303724736810557958213&#45;307933898330344884&#45;2904666805620598835&#45;4081924377432798624&#45;&gt;cluster_cluster_cluster_cluster_cluster_cluster_cluster_&#45;220212124901982970656214335412117874644487423537040413414&#45;2008554569736104303724736810557958213&#45;307933898330344884&#45;2904666805620598835&#45;4521207554857702138</title>
<path fill="none" stroke="black" d="M1847.5,-178.748C1847.5,-178.748 1847.5,-153.288 1847.5,-153.288"/>
<polygon fill="black" stroke="black" points="1851,-153.287 1847.5,-143.288 1844,-153.288 1851,-153.287"/>
</g>
<!-- cluster_cluster_cluster_cluster_cluster_cluster_cluster_&#45;220212124901982970656214335412117874644487423537040413414&#45;2008554569736104303724736810557958213&#45;307933898330344884&#45;2904666805620598835&#45;3822089204281359213 -->
<g id="node17" class="node"><title>cluster_cluster_cluster_cluster_cluster_cluster_cluster_&#45;220212124901982970656214335412117874644487423537040413414&#45;2008554569736104303724736810557958213&#45;307933898330344884&#45;2904666805620598835&#45;3822089204281359213</title>
<g id="a_node17"><a xlink:title="stop_velocity">
<path fill="cyan" stroke="black" d="M3343,-383C3343,-383 3064,-383 3064,-383 3058,-383 3052,-377 3052,-371 3052,-371 3052,-347 3052,-347 3052,-341 3058,-335 3064,-335 3064,-335 3343,-335 3343,-335 3349,-335 3355,-341 3355,-347 3355,-347 3355,-371 3355,-371 3355,-377 3349,-383 3343,-383"/>
<text text-anchor="start" x="3166" y="-365.8" font-family="Times New Roman,serif" font-size="14.00">stop_velocity</text>
<polygon fill="none" stroke="black" points="3060.5,-339 3060.5,-360 3162.5,-360 3162.5,-339 3060.5,-339"/>
<text text-anchor="start" x="3063.5" y="-345.8" font-family="Times New Roman,serif" font-size="14.00">remote parent 0=</text>
<polygon fill="none" stroke="black" points="3162.5,-339 3162.5,-360 3347.5,-360 3347.5,-339 3162.5,-339"/>
<text text-anchor="start" x="3165.5" y="-345.8" font-family="Times New Roman,serif" font-size="14.00">mechanical model:stop_velocity</text>
</a>
</g>
</g>
<!-- cluster_cluster_cluster_cluster_cluster_cluster_cluster_&#45;220212124901982970656214335412117874644487423537040413414&#45;2008554569736104303724736810557958213&#45;307933898330344884&#45;2904666805620598835&#45;1825562924159530342 -->
<g id="node18" class="node"><title>cluster_cluster_cluster_cluster_cluster_cluster_cluster_&#45;220212124901982970656214335412117874644487423537040413414&#45;2008554569736104303724736810557958213&#45;307933898330344884&#45;2904666805620598835&#45;1825562924159530342</title>
<g id="a_node18"><a xlink:title="times">
<path fill="cyan" stroke="black" d="M3618,-383C3618,-383 3385,-383 3385,-383 3379,-383 3373,-377 3373,-371 3373,-371 3373,-347 3373,-347 3373,-341 3379,-335 3385,-335 3385,-335 3618,-335 3618,-335 3624,-335 3630,-341 3630,-347 3630,-347 3630,-371 3630,-371 3630,-377 3624,-383 3618,-383"/>
<text text-anchor="start" x="3487" y="-365.8" font-family="Times New Roman,serif" font-size="14.00">times</text>
<polygon fill="none" stroke="black" points="3381.5,-339 3381.5,-360 3483.5,-360 3483.5,-339 3381.5,-339"/>
<text text-anchor="start" x="3384.5" y="-345.8" font-family="Times New Roman,serif" font-size="14.00">remote parent 0=</text>
<polygon fill="none" stroke="black" points="3483.5,-339 3483.5,-360 3622.5,-360 3622.5,-339 3483.5,-339"/>
<text text-anchor="start" x="3486.5" y="-345.8" font-family="Times New Roman,serif" font-size="14.00">mechanical model:times</text>
</a>
</g>
</g>
<!-- cluster_cluster_cluster_cluster_cluster_cluster_cluster_&#45;220212124901982970656214335412117874644487423537040413414&#45;2008554569736104303724736810557958213&#45;307933898330344884&#45;29046668056205988351395676110976739562 -->
<g id="node19" class="node"><title>cluster_cluster_cluster_cluster_cluster_cluster_cluster_&#45;220212124901982970656214335412117874644487423537040413414&#45;2008554569736104303724736810557958213&#45;307933898330344884&#45;29046668056205988351395676110976739562</title>
<g id="a_node19"><a xlink:title="velocities">
<path fill="cyan" stroke="black" d="M3915,-383C3915,-383 3660,-383 3660,-383 3654,-383 3648,-377 3648,-371 3648,-371 3648,-347 3648,-347 3648,-341 3654,-335 3660,-335 3660,-335 3915,-335 3915,-335 3921,-335 3927,-341 3927,-347 3927,-347 3927,-371 3927,-371 3927,-377 3921,-383 3915,-383"/>
<text text-anchor="start" x="3762" y="-365.8" font-family="Times New Roman,serif" font-size="14.00">velocities</text>
<polygon fill="none" stroke="black" points="3656.5,-339 3656.5,-360 3758.5,-360 3758.5,-339 3656.5,-339"/>
<text text-anchor="start" x="3659.5" y="-345.8" font-family="Times New Roman,serif" font-size="14.00">remote parent 0=</text>
<polygon fill="none" stroke="black" points="3758.5,-339 3758.5,-360 3919.5,-360 3919.5,-339 3758.5,-339"/>
<text text-anchor="start" x="3761.5" y="-345.8" font-family="Times New Roman,serif" font-size="14.00">mechanical model:velocities</text>
</a>
</g>
</g>
</g>
</svg>
