<?xml version="1.0" encoding="UTF-8" standalone="no"?>
<!DOCTYPE svg PUBLIC "-//W3C//DTD SVG 1.1//EN"
 "http://www.w3.org/Graphics/SVG/1.1/DTD/svg11.dtd">
<!-- Generated by graphviz version 2.38.0 (20140413.2041)
 -->
<!-- Title: cluster_cold_start Pages: 1 -->
<svg width="780pt" height="355pt"
 viewBox="0.00 0.00 780.00 355.00" xmlns="http://www.w3.org/2000/svg" xmlns:xlink="http://www.w3.org/1999/xlink">
<g id="graph0" class="graph" transform="scale(1 1) rotate(0) translate(4 351)">
<title>cluster_cold_start</title>
<polygon fill="white" stroke="none" points="-4,4 -4,-351 776,-351 776,4 -4,4"/>
<text text-anchor="start" x="357.5" y="-7.8" font-family="Times New Roman,serif" font-size="14.00">cold_start</text>
<!-- cluster_cluster_cluster_cluster_cluster_&#45;2202121249019829706&#45;8986526737437215088&#45;240294359443136749817993801226436945768858165506818283465413959875299472221 -->
<g id="node1" class="node"><title>cluster_cluster_cluster_cluster_cluster_&#45;2202121249019829706&#45;8986526737437215088&#45;240294359443136749817993801226436945768858165506818283465413959875299472221</title>
<g id="a_node1"><a xlink:href="./../../ECSSM-wltp_h_errors/ECSSM-wltp_h_error_vs_wltp_h/cold_start/co2mpas.model.physical.engine.cold_startcalculate_cold_start_speeds_delta.txt" xlink:title="Calculates the engine speed delta and phases due to the cold start [RPM, &#45;].">
<polygon fill="springgreen" stroke="black" points="503,-275 289,-275 289,-239 503,-239 503,-275"/>
<text text-anchor="start" x="299.5" y="-252.8" font-family="Times New Roman,serif" font-size="14.00">calculate_cold_start_speeds_delta</text>
</a>
</g>
</g>
<!-- cluster_cluster_cluster_cluster_cluster_&#45;2202121249019829706&#45;8986526737437215088&#45;240294359443136749817993801226436945768858165506818283466520122835744747430 -->
<g id="node4" class="node"><title>cluster_cluster_cluster_cluster_cluster_&#45;2202121249019829706&#45;8986526737437215088&#45;240294359443136749817993801226436945768858165506818283466520122835744747430</title>
<g id="a_node4"><a xlink:title="Delta engine speed [RPM].">
<path fill="cyan" stroke="black" d="M440,-203C440,-203 306,-203 306,-203 300,-203 294,-197 294,-191 294,-191 294,-179 294,-179 294,-173 300,-167 306,-167 306,-167 440,-167 440,-167 446,-167 452,-173 452,-179 452,-179 452,-191 452,-191 452,-197 446,-203 440,-203"/>
<text text-anchor="start" x="304.5" y="-180.8" font-family="Times New Roman,serif" font-size="14.00">cold_start_speeds_delta</text>
</a>
</g>
</g>
<!-- cluster_cluster_cluster_cluster_cluster_&#45;2202121249019829706&#45;8986526737437215088&#45;240294359443136749817993801226436945768858165506818283465413959875299472221&#45;&gt;cluster_cluster_cluster_cluster_cluster_&#45;2202121249019829706&#45;8986526737437215088&#45;240294359443136749817993801226436945768858165506818283466520122835744747430 -->
<g id="edge1" class="edge"><title>cluster_cluster_cluster_cluster_cluster_&#45;2202121249019829706&#45;8986526737437215088&#45;240294359443136749817993801226436945768858165506818283465413959875299472221&#45;&gt;cluster_cluster_cluster_cluster_cluster_&#45;2202121249019829706&#45;8986526737437215088&#45;240294359443136749817993801226436945768858165506818283466520122835744747430</title>
<path fill="none" stroke="black" d="M373,-238.831C373,-238.831 373,-213.413 373,-213.413"/>
<polygon fill="black" stroke="black" points="376.5,-213.413 373,-203.413 369.5,-213.413 376.5,-213.413"/>
</g>
<!-- cluster_cluster_cluster_cluster_cluster_&#45;2202121249019829706&#45;8986526737437215088&#45;24029435944313674981799380122643694576885816550681828346&#45;6274312968893209467 -->
<g id="node2" class="node"><title>cluster_cluster_cluster_cluster_cluster_&#45;2202121249019829706&#45;8986526737437215088&#45;24029435944313674981799380122643694576885816550681828346&#45;6274312968893209467</title>
<g id="a_node2"><a xlink:href="./../../../clutch_torque_converter_model_selector/CTCM-wltp_h_errors/CTCM-wltp_h_error_vs_wltp_h/Clutch_and_torque-converter/co2mpas.model.physical.enginecalculate_engine_speeds_out.txt" xlink:title="Calculates the engine speed [RPM].">
<polygon fill="springgreen" stroke="black" points="400,-131 216,-131 216,-95 400,-95 400,-131"/>
<text text-anchor="start" x="226.5" y="-108.8" font-family="Times New Roman,serif" font-size="14.00">calculate_engine_speeds_out</text>
</a>
</g>
</g>
<!-- cluster_cluster_cluster_cluster_cluster_&#45;2202121249019829706&#45;8986526737437215088&#45;24029435944313674981799380122643694576885816550681828346&#45;3904256270299959966 -->
<g id="node6" class="node"><title>cluster_cluster_cluster_cluster_cluster_&#45;2202121249019829706&#45;8986526737437215088&#45;24029435944313674981799380122643694576885816550681828346&#45;3904256270299959966</title>
<g id="a_node6"><a xlink:title="Engine speed [RPM].">
<path fill="cyan" stroke="black" d="M360,-59C360,-59 256,-59 256,-59 250,-59 244,-53 244,-47 244,-47 244,-35 244,-35 244,-29 250,-23 256,-23 256,-23 360,-23 360,-23 366,-23 372,-29 372,-35 372,-35 372,-47 372,-47 372,-53 366,-59 360,-59"/>
<text text-anchor="start" x="254" y="-36.8" font-family="Times New Roman,serif" font-size="14.00">engine_speeds_out</text>
</a>
</g>
</g>
<!-- cluster_cluster_cluster_cluster_cluster_&#45;2202121249019829706&#45;8986526737437215088&#45;24029435944313674981799380122643694576885816550681828346&#45;6274312968893209467&#45;&gt;cluster_cluster_cluster_cluster_cluster_&#45;2202121249019829706&#45;8986526737437215088&#45;24029435944313674981799380122643694576885816550681828346&#45;3904256270299959966 -->
<g id="edge2" class="edge"><title>cluster_cluster_cluster_cluster_cluster_&#45;2202121249019829706&#45;8986526737437215088&#45;24029435944313674981799380122643694576885816550681828346&#45;6274312968893209467&#45;&gt;cluster_cluster_cluster_cluster_cluster_&#45;2202121249019829706&#45;8986526737437215088&#45;24029435944313674981799380122643694576885816550681828346&#45;3904256270299959966</title>
<path fill="none" stroke="black" d="M308,-94.8314C308,-94.8314 308,-69.4133 308,-69.4133"/>
<polygon fill="black" stroke="black" points="311.5,-69.4132 308,-59.4133 304.5,-69.4133 311.5,-69.4132"/>
</g>
<!-- cluster_cluster_cluster_cluster_cluster_&#45;2202121249019829706&#45;8986526737437215088&#45;240294359443136749817993801226436945768858165506818283467189501469097655148 -->
<g id="node3" class="node"><title>cluster_cluster_cluster_cluster_cluster_&#45;2202121249019829706&#45;8986526737437215088&#45;240294359443136749817993801226436945768858165506818283467189501469097655148</title>
<g id="a_node3"><a xlink:title="Cold start speed model.">
<path fill="cyan" stroke="black" d="M664,-347C664,-347 528,-347 528,-347 522,-347 516,-341 516,-335 516,-335 516,-323 516,-323 516,-317 522,-311 528,-311 528,-311 664,-311 664,-311 670,-311 676,-317 676,-323 676,-323 676,-335 676,-335 676,-341 670,-347 664,-347"/>
<text text-anchor="start" x="526.5" y="-324.8" font-family="Times New Roman,serif" font-size="14.00">cold_start_speed_model</text>
</a>
</g>
</g>
<!-- cluster_cluster_cluster_cluster_cluster_&#45;2202121249019829706&#45;8986526737437215088&#45;240294359443136749817993801226436945768858165506818283467189501469097655148&#45;&gt;cluster_cluster_cluster_cluster_cluster_&#45;2202121249019829706&#45;8986526737437215088&#45;240294359443136749817993801226436945768858165506818283465413959875299472221 -->
<g id="edge3" class="edge"><title>cluster_cluster_cluster_cluster_cluster_&#45;2202121249019829706&#45;8986526737437215088&#45;240294359443136749817993801226436945768858165506818283467189501469097655148&#45;&gt;cluster_cluster_cluster_cluster_cluster_&#45;2202121249019829706&#45;8986526737437215088&#45;240294359443136749817993801226436945768858165506818283465413959875299472221</title>
<path fill="none" stroke="black" d="M596,-310.965C596,-291.424 596,-263 596,-263 596,-263 513.026,-263 513.026,-263"/>
<polygon fill="black" stroke="black" points="513.026,-259.5 503.026,-263 513.026,-266.5 513.026,-259.5"/>
</g>
<!-- cluster_cluster_cluster_cluster_cluster_&#45;2202121249019829706&#45;8986526737437215088&#45;240294359443136749817993801226436945768858165506818283466520122835744747430&#45;&gt;cluster_cluster_cluster_cluster_cluster_&#45;2202121249019829706&#45;8986526737437215088&#45;24029435944313674981799380122643694576885816550681828346&#45;6274312968893209467 -->
<g id="edge4" class="edge"><title>cluster_cluster_cluster_cluster_cluster_&#45;2202121249019829706&#45;8986526737437215088&#45;240294359443136749817993801226436945768858165506818283466520122835744747430&#45;&gt;cluster_cluster_cluster_cluster_cluster_&#45;2202121249019829706&#45;8986526737437215088&#45;24029435944313674981799380122643694576885816550681828346&#45;6274312968893209467</title>
<path fill="none" stroke="black" d="M347,-166.831C347,-166.831 347,-141.413 347,-141.413"/>
<polygon fill="black" stroke="black" points="350.5,-141.413 347,-131.413 343.5,-141.413 350.5,-141.413"/>
</g>
<!-- cluster_cluster_cluster_cluster_cluster_&#45;2202121249019829706&#45;8986526737437215088&#45;240294359443136749817993801226436945768858165506818283464429227571388341383 -->
<g id="node5" class="node"><title>cluster_cluster_cluster_cluster_cluster_&#45;2202121249019829706&#45;8986526737437215088&#45;240294359443136749817993801226436945768858165506818283464429227571388341383</title>
<g id="a_node5"><a xlink:title="Engine coolant temperature vector [°C].">
<path fill="cyan" stroke="black" d="M486,-347C486,-347 326,-347 326,-347 320,-347 314,-341 314,-335 314,-335 314,-323 314,-323 314,-317 320,-311 326,-311 326,-311 486,-311 486,-311 492,-311 498,-317 498,-323 498,-323 498,-335 498,-335 498,-341 492,-347 486,-347"/>
<text text-anchor="start" x="324.5" y="-324.8" font-family="Times New Roman,serif" font-size="14.00">engine_coolant_temperatures</text>
</a>
</g>
</g>
<!-- cluster_cluster_cluster_cluster_cluster_&#45;2202121249019829706&#45;8986526737437215088&#45;240294359443136749817993801226436945768858165506818283464429227571388341383&#45;&gt;cluster_cluster_cluster_cluster_cluster_&#45;2202121249019829706&#45;8986526737437215088&#45;240294359443136749817993801226436945768858165506818283465413959875299472221 -->
<g id="edge5" class="edge"><title>cluster_cluster_cluster_cluster_cluster_&#45;2202121249019829706&#45;8986526737437215088&#45;240294359443136749817993801226436945768858165506818283464429227571388341383&#45;&gt;cluster_cluster_cluster_cluster_cluster_&#45;2202121249019829706&#45;8986526737437215088&#45;240294359443136749817993801226436945768858165506818283465413959875299472221</title>
<path fill="none" stroke="black" d="M406,-310.831C406,-310.831 406,-285.413 406,-285.413"/>
<polygon fill="black" stroke="black" points="409.5,-285.413 406,-275.413 402.5,-285.413 409.5,-285.413"/>
</g>
<!-- cluster_cluster_cluster_cluster_cluster_&#45;2202121249019829706&#45;8986526737437215088&#45;24029435944313674981799380122643694576885816550681828346&#45;3168126550270477918 -->
<g id="node7" class="node"><title>cluster_cluster_cluster_cluster_cluster_&#45;2202121249019829706&#45;8986526737437215088&#45;24029435944313674981799380122643694576885816550681828346&#45;3168126550270477918</title>
<g id="a_node7"><a xlink:title="Engine speed at hot condition [RPM].">
<path fill="cyan" stroke="black" d="M142,-347C142,-347 12,-347 12,-347 6,-347 0,-341 0,-335 0,-335 0,-323 0,-323 0,-317 6,-311 12,-311 12,-311 142,-311 142,-311 148,-311 154,-317 154,-323 154,-323 154,-335 154,-335 154,-341 148,-347 142,-347"/>
<text text-anchor="start" x="10.5" y="-324.8" font-family="Times New Roman,serif" font-size="14.00">engine_speeds_out_hot</text>
</a>
</g>
</g>
<!-- cluster_cluster_cluster_cluster_cluster_&#45;2202121249019829706&#45;8986526737437215088&#45;24029435944313674981799380122643694576885816550681828346&#45;3168126550270477918&#45;&gt;cluster_cluster_cluster_cluster_cluster_&#45;2202121249019829706&#45;8986526737437215088&#45;240294359443136749817993801226436945768858165506818283465413959875299472221 -->
<g id="edge6" class="edge"><title>cluster_cluster_cluster_cluster_cluster_&#45;2202121249019829706&#45;8986526737437215088&#45;24029435944313674981799380122643694576885816550681828346&#45;3168126550270477918&#45;&gt;cluster_cluster_cluster_cluster_cluster_&#45;2202121249019829706&#45;8986526737437215088&#45;240294359443136749817993801226436945768858165506818283465413959875299472221</title>
<path fill="none" stroke="black" d="M102.667,-310.831C102.667,-289.502 102.667,-257 102.667,-257 102.667,-257 278.855,-257 278.855,-257"/>
<polygon fill="black" stroke="black" points="278.855,-260.5 288.855,-257 278.855,-253.5 278.855,-260.5"/>
</g>
<!-- cluster_cluster_cluster_cluster_cluster_&#45;2202121249019829706&#45;8986526737437215088&#45;24029435944313674981799380122643694576885816550681828346&#45;3168126550270477918&#45;&gt;cluster_cluster_cluster_cluster_cluster_&#45;2202121249019829706&#45;8986526737437215088&#45;24029435944313674981799380122643694576885816550681828346&#45;6274312968893209467 -->
<g id="edge7" class="edge"><title>cluster_cluster_cluster_cluster_cluster_&#45;2202121249019829706&#45;8986526737437215088&#45;24029435944313674981799380122643694576885816550681828346&#45;3168126550270477918&#45;&gt;cluster_cluster_cluster_cluster_cluster_&#45;2202121249019829706&#45;8986526737437215088&#45;24029435944313674981799380122643694576885816550681828346&#45;6274312968893209467</title>
<path fill="none" stroke="black" d="M51.3333,-310.955C51.3333,-259.042 51.3333,-113 51.3333,-113 51.3333,-113 205.7,-113 205.7,-113"/>
<polygon fill="black" stroke="black" points="205.7,-116.5 215.7,-113 205.7,-109.5 205.7,-116.5"/>
</g>
<!-- cluster_cluster_cluster_cluster_cluster_&#45;2202121249019829706&#45;8986526737437215088&#45;24029435944313674981799380122643694576885816550681828346&#45;3009578804924602371 -->
<g id="node8" class="node"><title>cluster_cluster_cluster_cluster_cluster_&#45;2202121249019829706&#45;8986526737437215088&#45;24029435944313674981799380122643694576885816550681828346&#45;3009578804924602371</title>
<g id="a_node8"><a xlink:title="Engine speed idle median and std [RPM].">
<path fill="cyan" stroke="black" d="M284,-347C284,-347 184,-347 184,-347 178,-347 172,-341 172,-335 172,-335 172,-323 172,-323 172,-317 178,-311 184,-311 184,-311 284,-311 284,-311 290,-311 296,-317 296,-323 296,-323 296,-335 296,-335 296,-341 290,-347 284,-347"/>
<text text-anchor="start" x="182.5" y="-324.8" font-family="Times New Roman,serif" font-size="14.00">idle_engine_speed</text>
</a>
</g>
</g>
<!-- cluster_cluster_cluster_cluster_cluster_&#45;2202121249019829706&#45;8986526737437215088&#45;24029435944313674981799380122643694576885816550681828346&#45;3009578804924602371&#45;&gt;cluster_cluster_cluster_cluster_cluster_&#45;2202121249019829706&#45;8986526737437215088&#45;240294359443136749817993801226436945768858165506818283465413959875299472221 -->
<g id="edge8" class="edge"><title>cluster_cluster_cluster_cluster_cluster_&#45;2202121249019829706&#45;8986526737437215088&#45;24029435944313674981799380122643694576885816550681828346&#45;3009578804924602371&#45;&gt;cluster_cluster_cluster_cluster_cluster_&#45;2202121249019829706&#45;8986526737437215088&#45;240294359443136749817993801226436945768858165506818283465413959875299472221</title>
<path fill="none" stroke="black" d="M292.5,-310.831C292.5,-310.831 292.5,-285.413 292.5,-285.413"/>
<polygon fill="black" stroke="black" points="296,-285.413 292.5,-275.413 289,-285.413 296,-285.413"/>
</g>
<!-- cluster_cluster_cluster_cluster_cluster_&#45;2202121249019829706&#45;8986526737437215088&#45;24029435944313674981799380122643694576885816550681828346&#45;3009578804924602371&#45;&gt;cluster_cluster_cluster_cluster_cluster_&#45;2202121249019829706&#45;8986526737437215088&#45;24029435944313674981799380122643694576885816550681828346&#45;6274312968893209467 -->
<g id="edge9" class="edge"><title>cluster_cluster_cluster_cluster_cluster_&#45;2202121249019829706&#45;8986526737437215088&#45;24029435944313674981799380122643694576885816550681828346&#45;3009578804924602371&#45;&gt;cluster_cluster_cluster_cluster_cluster_&#45;2202121249019829706&#45;8986526737437215088&#45;24029435944313674981799380122643694576885816550681828346&#45;6274312968893209467</title>
<path fill="none" stroke="black" d="M252.5,-310.955C252.5,-310.955 252.5,-141.145 252.5,-141.145"/>
<polygon fill="black" stroke="black" points="256,-141.145 252.5,-131.145 249,-141.145 256,-141.145"/>
</g>
<!-- cluster_cluster_cluster_cluster_cluster_&#45;2202121249019829706&#45;8986526737437215088&#45;240294359443136749817993801226436945768858165506818283462474993859311970617 -->
<g id="node9" class="node"><title>cluster_cluster_cluster_cluster_cluster_&#45;2202121249019829706&#45;8986526737437215088&#45;240294359443136749817993801226436945768858165506818283462474993859311970617</title>
<g id="a_node9"><a xlink:title="If the engine is on [&#45;].">
<path fill="cyan" stroke="black" d="M760,-347C760,-347 706,-347 706,-347 700,-347 694,-341 694,-335 694,-335 694,-323 694,-323 694,-317 700,-311 706,-311 706,-311 760,-311 760,-311 766,-311 772,-317 772,-323 772,-323 772,-335 772,-335 772,-341 766,-347 760,-347"/>
<text text-anchor="start" x="704" y="-324.8" font-family="Times New Roman,serif" font-size="14.00">on_engine</text>
</a>
</g>
</g>
<!-- cluster_cluster_cluster_cluster_cluster_&#45;2202121249019829706&#45;8986526737437215088&#45;240294359443136749817993801226436945768858165506818283462474993859311970617&#45;&gt;cluster_cluster_cluster_cluster_cluster_&#45;2202121249019829706&#45;8986526737437215088&#45;240294359443136749817993801226436945768858165506818283465413959875299472221 -->
<g id="edge10" class="edge"><title>cluster_cluster_cluster_cluster_cluster_&#45;2202121249019829706&#45;8986526737437215088&#45;240294359443136749817993801226436945768858165506818283462474993859311970617&#45;&gt;cluster_cluster_cluster_cluster_cluster_&#45;2202121249019829706&#45;8986526737437215088&#45;240294359443136749817993801226436945768858165506818283465413959875299472221</title>
<path fill="none" stroke="black" d="M720,-310.909C720,-287.867 720,-251 720,-251 720,-251 513.437,-251 513.437,-251"/>
<polygon fill="black" stroke="black" points="513.437,-247.5 503.437,-251 513.437,-254.5 513.437,-247.5"/>
</g>
<!-- cluster_cluster_cluster_cluster_cluster_&#45;2202121249019829706&#45;8986526737437215088&#45;240294359443136749817993801226436945768858165506818283462474993859311970617&#45;&gt;cluster_cluster_cluster_cluster_cluster_&#45;2202121249019829706&#45;8986526737437215088&#45;24029435944313674981799380122643694576885816550681828346&#45;6274312968893209467 -->
<g id="edge11" class="edge"><title>cluster_cluster_cluster_cluster_cluster_&#45;2202121249019829706&#45;8986526737437215088&#45;240294359443136749817993801226436945768858165506818283462474993859311970617&#45;&gt;cluster_cluster_cluster_cluster_cluster_&#45;2202121249019829706&#45;8986526737437215088&#45;24029435944313674981799380122643694576885816550681828346&#45;6274312968893209467</title>
<path fill="none" stroke="black" d="M746,-310.955C746,-259.042 746,-113 746,-113 746,-113 410.086,-113 410.086,-113"/>
<polygon fill="black" stroke="black" points="410.086,-109.5 400.086,-113 410.086,-116.5 410.086,-109.5"/>
</g>
</g>
</svg>
