<?xml version="1.0" encoding="UTF-8" standalone="no"?>
<!DOCTYPE svg PUBLIC "-//W3C//DTD SVG 1.1//EN"
 "http://www.w3.org/Graphics/SVG/1.1/DTD/svg11.dtd">
<!-- Generated by graphviz version 2.38.0 (20140413.2041)
 -->
<!-- Title: cluster_torque_converter Pages: 1 -->
<svg width="3159pt" height="445pt"
 viewBox="0.00 0.00 3159.00 445.00" xmlns="http://www.w3.org/2000/svg" xmlns:xlink="http://www.w3.org/1999/xlink">
<g id="graph0" class="graph" transform="scale(1 1) rotate(0) translate(4 441)">
<title>cluster_torque_converter</title>
<polygon fill="white" stroke="none" points="-4,4 -4,-441 3155,-441 3155,4 -4,4"/>
<text text-anchor="start" x="1527" y="-7.8" font-family="Times New Roman,serif" font-size="14.00">torque_converter</text>
<!-- cluster_cluster_cluster_34472182003530241496633949877140804093&#45;12857662566644471377532400 -->
<g id="node1" class="node"><title>cluster_cluster_cluster_34472182003530241496633949877140804093&#45;12857662566644471377532400</title>
<g id="a_node1"><a xlink:title="Starting node that identifies initial inputs of the workflow.">
<polygon fill="red" stroke="black" points="68.1825,-395.049 69.9586,-395.148 71.7163,-395.295 73.4484,-395.491 75.148,-395.735 76.8083,-396.027 78.4225,-396.364 79.9846,-396.748 81.4886,-397.176 82.9288,-397.647 84.3,-398.161 85.5976,-398.715 86.8172,-399.308 87.9549,-399.939 89.0074,-400.605 89.9717,-401.306 90.8455,-402.039 91.6269,-402.801 92.3146,-403.592 92.9075,-404.408 93.4055,-405.248 93.8085,-406.109 94.1172,-406.989 94.3325,-407.886 94.4558,-408.797 94.489,-409.719 94.4342,-410.65 94.2939,-411.587 94.0711,-412.529 93.7687,-413.471 93.39,-414.413 92.9386,-415.35 92.4181,-416.281 91.8324,-417.203 91.1853,-418.114 90.4807,-419.011 89.7225,-419.891 88.9148,-420.752 88.0613,-421.592 87.1659,-422.408 86.2323,-423.199 85.2639,-423.961 84.2644,-424.694 83.2368,-425.395 82.1844,-426.061 81.1099,-426.692 80.0161,-427.285 78.9054,-427.839 77.7801,-428.353 76.6423,-428.824 75.4939,-429.252 74.3365,-429.636 73.1717,-429.973 72.0009,-430.265 70.8251,-430.509 69.6455,-430.705 68.463,-430.852 67.2786,-430.951 66.093,-431 64.907,-431 63.7214,-430.951 62.537,-430.852 61.3545,-430.705 60.1749,-430.509 58.9991,-430.265 57.8283,-429.973 56.6635,-429.636 55.5061,-429.252 54.3577,-428.824 53.2199,-428.353 52.0946,-427.839 50.9839,-427.285 49.8901,-426.692 48.8156,-426.061 47.7632,-425.395 46.7356,-424.694 45.7361,-423.961 44.7677,-423.199 43.8341,-422.408 42.9387,-421.592 42.0852,-420.752 41.2775,-419.891 40.5193,-419.011 39.8147,-418.114 39.1676,-417.203 38.5819,-416.281 38.0614,-415.35 37.61,-414.413 37.2313,-413.471 36.9289,-412.529 36.7061,-411.587 36.5658,-410.65 36.511,-409.719 36.5442,-408.797 36.6675,-407.886 36.8828,-406.989 37.1915,-406.109 37.5945,-405.248 38.0925,-404.408 38.6854,-403.592 39.3731,-402.801 40.1545,-402.039 41.0283,-401.306 41.9926,-400.605 43.0451,-399.939 44.1828,-399.308 45.4024,-398.715 46.7,-398.161 48.0712,-397.647 49.5114,-397.176 51.0154,-396.748 52.5775,-396.364 54.1917,-396.027 55.852,-395.735 57.5516,-395.491 59.2837,-395.295 61.0414,-395.148 62.8175,-395.049 64.6046,-395 66.3954,-395 68.1825,-395.049"/>
<text text-anchor="middle" x="65.5" y="-409.3" font-family="Times New Roman,serif" font-size="14.00">start</text>
</a>
</g>
</g>
<!-- cluster_cluster_cluster_34472182003530241496633949877140804093&#45;1285766256664447135610128068843506380 -->
<g id="node5" class="node"><title>cluster_cluster_cluster_34472182003530241496633949877140804093&#45;1285766256664447135610128068843506380</title>
<g id="a_node5"><a xlink:href="./../../extract_calibrated_models/clutch_torque_converter_model_selector/CTCM-wltp_h_errors/CTCM-wltp_h_error_vs_wltp_h/Clutch_and_torque-converter/torque_converter/co2mpas.model.physical.clutch_tc.torque_converterdefault_tc_k_factor_curve.txt" xlink:title="Returns a default k factor curve for a generic torque converter.">
<polygon fill="springgreen" stroke="black" points="169,-353 0,-353 0,-305 169,-305 169,-353"/>
<text text-anchor="start" x="10.5" y="-335.8" font-family="Times New Roman,serif" font-size="14.00">default_tc_k_factor_curve</text>
<polygon fill="none" stroke="black" points="8.5,-309 8.5,-330 103.5,-330 103.5,-309 8.5,-309"/>
<text text-anchor="start" x="55.5" y="-315.8" font-family="Times New Roman,serif" font-size="14.00">weight=</text>
<polygon fill="none" stroke="black" points="103.5,-309 103.5,-330 161.5,-330 161.5,-309 103.5,-309"/>
<text text-anchor="start" x="106.5" y="-315.8" font-family="Times New Roman,serif" font-size="14.00">2</text>
</a>
</g>
</g>
<!-- cluster_cluster_cluster_34472182003530241496633949877140804093&#45;12857662566644471377532400&#45;&gt;cluster_cluster_cluster_34472182003530241496633949877140804093&#45;1285766256664447135610128068843506380 -->
<g id="edge20" class="edge"><title>cluster_cluster_cluster_34472182003530241496633949877140804093&#45;12857662566644471377532400&#45;&gt;cluster_cluster_cluster_34472182003530241496633949877140804093&#45;1285766256664447135610128068843506380</title>
<path fill="none" stroke="black" d="M65.5,-394.773C65.5,-394.773 65.5,-363.25 65.5,-363.25"/>
<polygon fill="black" stroke="black" points="69.0001,-363.25 65.5,-353.25 62.0001,-363.251 69.0001,-363.25"/>
</g>
<!-- cluster_cluster_cluster_34472182003530241496633949877140804093&#45;128576625666444713&#45;6281391710310240799 -->
<g id="node2" class="node"><title>cluster_cluster_cluster_34472182003530241496633949877140804093&#45;128576625666444713&#45;6281391710310240799</title>
<g id="a_node2"><a xlink:title="Acceleration vector [m/s2].">
<path fill="cyan" stroke="black" d="M1123.5,-437C1123.5,-437 851.5,-437 851.5,-437 845.5,-437 839.5,-431 839.5,-425 839.5,-425 839.5,-401 839.5,-401 839.5,-395 845.5,-389 851.5,-389 851.5,-389 1123.5,-389 1123.5,-389 1129.5,-389 1135.5,-395 1135.5,-401 1135.5,-401 1135.5,-425 1135.5,-425 1135.5,-431 1129.5,-437 1123.5,-437"/>
<text text-anchor="start" x="951" y="-419.8" font-family="Times New Roman,serif" font-size="14.00">accelerations</text>
<polygon fill="none" stroke="black" points="847.5,-393 847.5,-414 949.5,-414 949.5,-393 847.5,-393"/>
<text text-anchor="start" x="850.5" y="-399.8" font-family="Times New Roman,serif" font-size="14.00">remote parent 0=</text>
<polygon fill="none" stroke="black" points="949.5,-393 949.5,-414 1127.5,-414 1127.5,-393 949.5,-393"/>
<text text-anchor="start" x="952.5" y="-399.8" font-family="Times New Roman,serif" font-size="14.00">torque_converter:accelerations</text>
</a>
</g>
</g>
<!-- cluster_cluster_cluster_34472182003530241496633949877140804093&#45;128576625666444713&#45;1440892420980045854 -->
<g id="node4" class="node"><title>cluster_cluster_cluster_34472182003530241496633949877140804093&#45;128576625666444713&#45;1440892420980045854</title>
<g id="a_node4"><a xlink:href="./../../extract_calibrated_models/clutch_torque_converter_model_selector/CTCM-wltp_h_errors/CTCM-wltp_h_error_vs_wltp_h/Clutch_and_torque-converter/torque_converter/co2mpas.model.physical.clutch_tc.torque_convertercalibrate_torque_converter_model.txt" xlink:title="Calibrate torque converter model.">
<polygon fill="springgreen" stroke="black" points="2049.5,-347 1835.5,-347 1835.5,-311 2049.5,-311 2049.5,-347"/>
<text text-anchor="start" x="1846" y="-324.8" font-family="Times New Roman,serif" font-size="14.00">calibrate_torque_converter_model</text>
</a>
</g>
</g>
<!-- cluster_cluster_cluster_34472182003530241496633949877140804093&#45;128576625666444713&#45;6281391710310240799&#45;&gt;cluster_cluster_cluster_34472182003530241496633949877140804093&#45;128576625666444713&#45;1440892420980045854 -->
<g id="edge1" class="edge"><title>cluster_cluster_cluster_34472182003530241496633949877140804093&#45;128576625666444713&#45;6281391710310240799&#45;&gt;cluster_cluster_cluster_34472182003530241496633949877140804093&#45;128576625666444713&#45;1440892420980045854</title>
<path fill="none" stroke="black" d="M945.167,-388.882C945.167,-362.223 945.167,-323 945.167,-323 945.167,-323 1825.29,-323 1825.29,-323"/>
<polygon fill="black" stroke="black" points="1825.29,-326.5 1835.29,-323 1825.29,-319.5 1825.29,-326.5"/>
</g>
<!-- cluster_cluster_cluster_34472182003530241496633949877140804093&#45;128576625666444713&#45;7781936401092667536 -->
<g id="node7" class="node"><title>cluster_cluster_cluster_34472182003530241496633949877140804093&#45;128576625666444713&#45;7781936401092667536</title>
<g id="a_node7"><a xlink:href="./../../extract_calibrated_models/clutch_torque_converter_model_selector/CTCM-wltp_h_errors/CTCM-wltp_h_error_vs_wltp_h/Clutch_and_torque-converter/torque_converter/co2mpas.model.physical.clutch_tc.torque_converterpredict_torque_converter_speeds_delta.txt" xlink:title="Predicts engine speed delta due to the torque converter [RPM].">
<polygon fill="springgreen" stroke="black" points="1885.5,-164 1641.5,-164 1641.5,-128 1885.5,-128 1885.5,-164"/>
<text text-anchor="start" x="1652" y="-141.8" font-family="Times New Roman,serif" font-size="14.00">predict_torque_converter_speeds_delta</text>
</a>
</g>
</g>
<!-- cluster_cluster_cluster_34472182003530241496633949877140804093&#45;128576625666444713&#45;6281391710310240799&#45;&gt;cluster_cluster_cluster_34472182003530241496633949877140804093&#45;128576625666444713&#45;7781936401092667536 -->
<g id="edge2" class="edge"><title>cluster_cluster_cluster_34472182003530241496633949877140804093&#45;128576625666444713&#45;6281391710310240799&#45;&gt;cluster_cluster_cluster_34472182003530241496633949877140804093&#45;128576625666444713&#45;7781936401092667536</title>
<path fill="none" stroke="black" d="M1040.33,-388.719C1040.33,-376.813 1040.33,-365 1040.33,-365 1040.33,-365 1653,-365 1653,-365 1653,-365 1653,-174.295 1653,-174.295"/>
<polygon fill="black" stroke="black" points="1656.5,-174.295 1653,-164.295 1649.5,-174.295 1656.5,-174.295"/>
</g>
<!-- cluster_cluster_cluster_34472182003530241496633949877140804093&#45;1285766256664447134553702861701986980 -->
<g id="node3" class="node"><title>cluster_cluster_cluster_34472182003530241496633949877140804093&#45;1285766256664447134553702861701986980</title>
<g id="a_node3"><a xlink:title="Calibration torque converter speeds delta threshold [RPM].">
<path fill="cyan" stroke="black" d="M2503,-437C2503,-437 2128,-437 2128,-437 2122,-437 2116,-431 2116,-425 2116,-425 2116,-401 2116,-401 2116,-395 2122,-389 2128,-389 2128,-389 2503,-389 2503,-389 2509,-389 2515,-395 2515,-401 2515,-401 2515,-425 2515,-425 2515,-431 2509,-437 2503,-437"/>
<text text-anchor="start" x="2228" y="-419.8" font-family="Times New Roman,serif" font-size="14.00">calibration_tc_speed_threshold</text>
<polygon fill="none" stroke="black" points="2124.5,-393 2124.5,-414 2226.5,-414 2226.5,-393 2124.5,-393"/>
<text text-anchor="start" x="2127.5" y="-399.8" font-family="Times New Roman,serif" font-size="14.00">remote parent 0=</text>
<polygon fill="none" stroke="black" points="2226.5,-393 2226.5,-414 2507.5,-414 2507.5,-393 2226.5,-393"/>
<text text-anchor="start" x="2229.5" y="-399.8" font-family="Times New Roman,serif" font-size="14.00">torque_converter:calibration_tc_speed_threshold</text>
</a>
</g>
</g>
<!-- cluster_cluster_cluster_34472182003530241496633949877140804093&#45;1285766256664447134553702861701986980&#45;&gt;cluster_cluster_cluster_34472182003530241496633949877140804093&#45;128576625666444713&#45;1440892420980045854 -->
<g id="edge3" class="edge"><title>cluster_cluster_cluster_34472182003530241496633949877140804093&#45;1285766256664447134553702861701986980&#45;&gt;cluster_cluster_cluster_34472182003530241496633949877140804093&#45;128576625666444713&#45;1440892420980045854</title>
<path fill="none" stroke="black" d="M2315.5,-388.857C2315.5,-366.932 2315.5,-338 2315.5,-338 2315.5,-338 2059.89,-338 2059.89,-338"/>
<polygon fill="black" stroke="black" points="2059.89,-334.5 2049.89,-338 2059.89,-341.5 2059.89,-334.5"/>
</g>
<!-- cluster_cluster_cluster_34472182003530241496633949877140804093&#45;1285766256664447131513712230048317604 -->
<g id="node19" class="node"><title>cluster_cluster_cluster_34472182003530241496633949877140804093&#45;1285766256664447131513712230048317604</title>
<g id="a_node19"><a xlink:title="Torque converter model.">
<path fill="cyan" stroke="black" d="M2037.5,-269C2037.5,-269 1699.5,-269 1699.5,-269 1693.5,-269 1687.5,-263 1687.5,-257 1687.5,-257 1687.5,-212 1687.5,-212 1687.5,-206 1693.5,-200 1699.5,-200 1699.5,-200 2037.5,-200 2037.5,-200 2043.5,-200 2049.5,-206 2049.5,-212 2049.5,-212 2049.5,-257 2049.5,-257 2049.5,-263 2043.5,-269 2037.5,-269"/>
<text text-anchor="start" x="1799" y="-251.3" font-family="Times New Roman,serif" font-size="14.00">torque_converter_model</text>
<polygon fill="none" stroke="black" points="1695.5,-224.5 1695.5,-245.5 1797.5,-245.5 1797.5,-224.5 1695.5,-224.5"/>
<text text-anchor="start" x="1706.5" y="-231.3" font-family="Times New Roman,serif" font-size="14.00">remote child 1=</text>
<polygon fill="none" stroke="black" points="1797.5,-224.5 1797.5,-245.5 2041.5,-245.5 2041.5,-224.5 1797.5,-224.5"/>
<text text-anchor="start" x="1800.5" y="-231.3" font-family="Times New Roman,serif" font-size="14.00">torque_converter:torque_converter_model</text>
<polygon fill="none" stroke="black" points="1695.5,-203.5 1695.5,-224.5 1797.5,-224.5 1797.5,-203.5 1695.5,-203.5"/>
<text text-anchor="start" x="1698.5" y="-210.3" font-family="Times New Roman,serif" font-size="14.00">remote parent 0=</text>
<polygon fill="none" stroke="black" points="1797.5,-203.5 1797.5,-224.5 2041.5,-224.5 2041.5,-203.5 1797.5,-203.5"/>
<text text-anchor="start" x="1800.5" y="-210.3" font-family="Times New Roman,serif" font-size="14.00">torque_converter:torque_converter_model</text>
</a>
</g>
</g>
<!-- cluster_cluster_cluster_34472182003530241496633949877140804093&#45;128576625666444713&#45;1440892420980045854&#45;&gt;cluster_cluster_cluster_34472182003530241496633949877140804093&#45;1285766256664447131513712230048317604 -->
<g id="edge4" class="edge"><title>cluster_cluster_cluster_34472182003530241496633949877140804093&#45;128576625666444713&#45;1440892420980045854&#45;&gt;cluster_cluster_cluster_34472182003530241496633949877140804093&#45;1285766256664447131513712230048317604</title>
<path fill="none" stroke="black" d="M1942.5,-310.779C1942.5,-310.779 1942.5,-279.118 1942.5,-279.118"/>
<polygon fill="black" stroke="black" points="1946,-279.118 1942.5,-269.118 1939,-279.118 1946,-279.118"/>
</g>
<!-- cluster_cluster_cluster_34472182003530241496633949877140804093&#45;1285766256664447138706340598394022638 -->
<g id="node14" class="node"><title>cluster_cluster_cluster_34472182003530241496633949877140804093&#45;1285766256664447138706340598394022638</title>
<g id="a_node14"><a xlink:title="k factor curve.">
<path fill="cyan" stroke="black" d="M321,-258.5C321,-258.5 44,-258.5 44,-258.5 38,-258.5 32,-252.5 32,-246.5 32,-246.5 32,-222.5 32,-222.5 32,-216.5 38,-210.5 44,-210.5 44,-210.5 321,-210.5 321,-210.5 327,-210.5 333,-216.5 333,-222.5 333,-222.5 333,-246.5 333,-246.5 333,-252.5 327,-258.5 321,-258.5"/>
<text text-anchor="start" x="140" y="-241.3" font-family="Times New Roman,serif" font-size="14.00">k_factor_curve</text>
<polygon fill="none" stroke="black" points="40.5,-214.5 40.5,-235.5 134.5,-235.5 134.5,-214.5 40.5,-214.5"/>
<text text-anchor="start" x="43.5" y="-221.3" font-family="Times New Roman,serif" font-size="14.00">remote child 0=</text>
<polygon fill="none" stroke="black" points="134.5,-214.5 134.5,-235.5 325.5,-235.5 325.5,-214.5 134.5,-214.5"/>
<text text-anchor="start" x="137.5" y="-221.3" font-family="Times New Roman,serif" font-size="14.00">torque_converter:k_factor_curve</text>
</a>
</g>
</g>
<!-- cluster_cluster_cluster_34472182003530241496633949877140804093&#45;1285766256664447135610128068843506380&#45;&gt;cluster_cluster_cluster_34472182003530241496633949877140804093&#45;1285766256664447138706340598394022638 -->
<g id="edge5" class="edge"><title>cluster_cluster_cluster_34472182003530241496633949877140804093&#45;1285766256664447135610128068843506380&#45;&gt;cluster_cluster_cluster_34472182003530241496633949877140804093&#45;1285766256664447138706340598394022638</title>
<path fill="none" stroke="black" d="M100.5,-304.664C100.5,-304.664 100.5,-268.754 100.5,-268.754"/>
<polygon fill="black" stroke="black" points="104,-268.754 100.5,-258.754 97.0001,-268.754 104,-268.754"/>
</g>
<!-- cluster_cluster_cluster_34472182003530241496633949877140804093&#45;128576625666444713&#45;7854970567361447602 -->
<g id="node6" class="node"><title>cluster_cluster_cluster_34472182003530241496633949877140804093&#45;128576625666444713&#45;7854970567361447602</title>
<g id="a_node6"><a xlink:href="./../../extract_calibrated_models/clutch_torque_converter_model_selector/CTCM-wltp_h_errors/CTCM-wltp_h_error_vs_wltp_h/Clutch_and_torque-converter/torque_converter/co2mpas.model.physical.clutch_tc.torque_converteridentify_torque_converter_speeds_delta.txt" xlink:title="Calculates the engine speed delta due to the clutch [RPM].">
<polygon fill="springgreen" stroke="black" points="1319.5,-164 1073.5,-164 1073.5,-128 1319.5,-128 1319.5,-164"/>
<text text-anchor="start" x="1083.5" y="-141.8" font-family="Times New Roman,serif" font-size="14.00">identify_torque_converter_speeds_delta</text>
</a>
</g>
</g>
<!-- cluster_cluster_cluster_34472182003530241496633949877140804093&#45;128576625666444713&#45;8335704924087933908 -->
<g id="node20" class="node"><title>cluster_cluster_cluster_34472182003530241496633949877140804093&#45;128576625666444713&#45;8335704924087933908</title>
<g id="a_node20"><a xlink:title="Engine speed delta due to the torque converter [RPM].">
<path fill="cyan" stroke="black" d="M1929.5,-92C1929.5,-92 1597.5,-92 1597.5,-92 1591.5,-92 1585.5,-86 1585.5,-80 1585.5,-80 1585.5,-35 1585.5,-35 1585.5,-29 1591.5,-23 1597.5,-23 1597.5,-23 1929.5,-23 1929.5,-23 1935.5,-23 1941.5,-29 1941.5,-35 1941.5,-35 1941.5,-80 1941.5,-80 1941.5,-86 1935.5,-92 1929.5,-92"/>
<text text-anchor="start" x="1675" y="-74.3" font-family="Times New Roman,serif" font-size="14.00">torque_converter_speeds_delta</text>
<polygon fill="none" stroke="black" points="1593.5,-47.5 1593.5,-68.5 1695.5,-68.5 1695.5,-47.5 1593.5,-47.5"/>
<text text-anchor="start" x="1604.5" y="-54.3" font-family="Times New Roman,serif" font-size="14.00">remote child 1=</text>
<polygon fill="none" stroke="black" points="1695.5,-47.5 1695.5,-68.5 1933.5,-68.5 1933.5,-47.5 1695.5,-47.5"/>
<text text-anchor="start" x="1698.5" y="-54.3" font-family="Times New Roman,serif" font-size="14.00">torque_converter:clutch_tc_speeds_delta</text>
<polygon fill="none" stroke="black" points="1593.5,-26.5 1593.5,-47.5 1695.5,-47.5 1695.5,-26.5 1593.5,-26.5"/>
<text text-anchor="start" x="1596.5" y="-33.3" font-family="Times New Roman,serif" font-size="14.00">remote parent 0=</text>
<polygon fill="none" stroke="black" points="1695.5,-26.5 1695.5,-47.5 1933.5,-47.5 1933.5,-26.5 1695.5,-26.5"/>
<text text-anchor="start" x="1698.5" y="-33.3" font-family="Times New Roman,serif" font-size="14.00">torque_converter:clutch_tc_speeds_delta</text>
</a>
</g>
</g>
<!-- cluster_cluster_cluster_34472182003530241496633949877140804093&#45;128576625666444713&#45;7854970567361447602&#45;&gt;cluster_cluster_cluster_34472182003530241496633949877140804093&#45;128576625666444713&#45;8335704924087933908 -->
<g id="edge6" class="edge"><title>cluster_cluster_cluster_34472182003530241496633949877140804093&#45;128576625666444713&#45;7854970567361447602&#45;&gt;cluster_cluster_cluster_34472182003530241496633949877140804093&#45;128576625666444713&#45;8335704924087933908</title>
<path fill="none" stroke="black" d="M1319.64,-146C1439.65,-146 1604.17,-146 1604.17,-146 1604.17,-146 1604.17,-102.224 1604.17,-102.224"/>
<polygon fill="black" stroke="black" points="1607.67,-102.224 1604.17,-92.2235 1600.67,-102.224 1607.67,-102.224"/>
</g>
<!-- cluster_cluster_cluster_34472182003530241496633949877140804093&#45;128576625666444713&#45;7781936401092667536&#45;&gt;cluster_cluster_cluster_34472182003530241496633949877140804093&#45;128576625666444713&#45;8335704924087933908 -->
<g id="edge7" class="edge"><title>cluster_cluster_cluster_34472182003530241496633949877140804093&#45;128576625666444713&#45;7781936401092667536&#45;&gt;cluster_cluster_cluster_34472182003530241496633949877140804093&#45;128576625666444713&#45;8335704924087933908</title>
<path fill="none" stroke="black" d="M1763.5,-127.663C1763.5,-127.663 1763.5,-102.269 1763.5,-102.269"/>
<polygon fill="black" stroke="black" points="1767,-102.269 1763.5,-92.2692 1760,-102.269 1767,-102.269"/>
</g>
<!-- cluster_cluster_cluster_34472182003530241496633949877140804093&#45;1285766256664447135828550869265096342 -->
<g id="node8" class="node"><title>cluster_cluster_cluster_34472182003530241496633949877140804093&#45;1285766256664447135828550869265096342</title>
<g id="a_node8"><a xlink:href="./../../extract_calibrated_models/clutch_torque_converter_model_selector/CTCM-wltp_h_errors/CTCM-wltp_h_error_vs_wltp_h/Clutch_and_torque-converter/clutch/co2mpas.model.physical.clutch_tcdefine_k_factor_curve.txt" xlink:title="Defines k factor curve.">
<polygon fill="springgreen" stroke="black" points="353.5,-347 205.5,-347 205.5,-311 353.5,-311 353.5,-347"/>
<text text-anchor="start" x="216" y="-324.8" font-family="Times New Roman,serif" font-size="14.00">define_k_factor_curve</text>
</a>
</g>
</g>
<!-- cluster_cluster_cluster_34472182003530241496633949877140804093&#45;1285766256664447135828550869265096342&#45;&gt;cluster_cluster_cluster_34472182003530241496633949877140804093&#45;1285766256664447138706340598394022638 -->
<g id="edge8" class="edge"><title>cluster_cluster_cluster_34472182003530241496633949877140804093&#45;1285766256664447135828550869265096342&#45;&gt;cluster_cluster_cluster_34472182003530241496633949877140804093&#45;1285766256664447138706340598394022638</title>
<path fill="none" stroke="black" d="M269.25,-310.779C269.25,-310.779 269.25,-268.744 269.25,-268.744"/>
<polygon fill="black" stroke="black" points="272.75,-268.744 269.25,-258.744 265.75,-268.744 272.75,-268.744"/>
</g>
<!-- cluster_cluster_cluster_34472182003530241496633949877140804093&#45;1285766256664447136520122835744747430 -->
<g id="node9" class="node"><title>cluster_cluster_cluster_34472182003530241496633949877140804093&#45;1285766256664447136520122835744747430</title>
<g id="a_node9"><a xlink:title="Engine speed delta due to the cold start [RPM].">
<path fill="cyan" stroke="black" d="M819.5,-258.5C819.5,-258.5 483.5,-258.5 483.5,-258.5 477.5,-258.5 471.5,-252.5 471.5,-246.5 471.5,-246.5 471.5,-222.5 471.5,-222.5 471.5,-216.5 477.5,-210.5 483.5,-210.5 483.5,-210.5 819.5,-210.5 819.5,-210.5 825.5,-210.5 831.5,-216.5 831.5,-222.5 831.5,-222.5 831.5,-246.5 831.5,-246.5 831.5,-252.5 825.5,-258.5 819.5,-258.5"/>
<text text-anchor="start" x="583" y="-241.3" font-family="Times New Roman,serif" font-size="14.00">cold_start_speeds_delta</text>
<polygon fill="none" stroke="black" points="479.5,-214.5 479.5,-235.5 581.5,-235.5 581.5,-214.5 479.5,-214.5"/>
<text text-anchor="start" x="482.5" y="-221.3" font-family="Times New Roman,serif" font-size="14.00">remote parent 0=</text>
<polygon fill="none" stroke="black" points="581.5,-214.5 581.5,-235.5 823.5,-235.5 823.5,-214.5 581.5,-214.5"/>
<text text-anchor="start" x="584.5" y="-221.3" font-family="Times New Roman,serif" font-size="14.00">torque_converter:cold_start_speeds_delta</text>
</a>
</g>
</g>
<!-- cluster_cluster_cluster_34472182003530241496633949877140804093&#45;1285766256664447136520122835744747430&#45;&gt;cluster_cluster_cluster_34472182003530241496633949877140804093&#45;128576625666444713&#45;7854970567361447602 -->
<g id="edge9" class="edge"><title>cluster_cluster_cluster_34472182003530241496633949877140804093&#45;1285766256664447136520122835744747430&#45;&gt;cluster_cluster_cluster_34472182003530241496633949877140804093&#45;128576625666444713&#45;7854970567361447602</title>
<path fill="none" stroke="black" d="M651.5,-210.317C651.5,-184.114 651.5,-146 651.5,-146 651.5,-146 1063.17,-146 1063.17,-146"/>
<polygon fill="black" stroke="black" points="1063.17,-149.5 1073.17,-146 1063.17,-142.5 1063.17,-149.5"/>
</g>
<!-- cluster_cluster_cluster_34472182003530241496633949877140804093&#45;128576625666444713&#45;3904256270299959966 -->
<g id="node10" class="node"><title>cluster_cluster_cluster_34472182003530241496633949877140804093&#45;128576625666444713&#45;3904256270299959966</title>
<g id="a_node10"><a xlink:title="Engine speed [RPM].">
<path fill="cyan" stroke="black" d="M1169,-258.5C1169,-258.5 862,-258.5 862,-258.5 856,-258.5 850,-252.5 850,-246.5 850,-246.5 850,-222.5 850,-222.5 850,-216.5 856,-210.5 862,-210.5 862,-210.5 1169,-210.5 1169,-210.5 1175,-210.5 1181,-216.5 1181,-222.5 1181,-222.5 1181,-246.5 1181,-246.5 1181,-252.5 1175,-258.5 1169,-258.5"/>
<text text-anchor="start" x="962" y="-241.3" font-family="Times New Roman,serif" font-size="14.00">engine_speeds_out</text>
<polygon fill="none" stroke="black" points="858.5,-214.5 858.5,-235.5 960.5,-235.5 960.5,-214.5 858.5,-214.5"/>
<text text-anchor="start" x="861.5" y="-221.3" font-family="Times New Roman,serif" font-size="14.00">remote parent 0=</text>
<polygon fill="none" stroke="black" points="960.5,-214.5 960.5,-235.5 1173.5,-235.5 1173.5,-214.5 960.5,-214.5"/>
<text text-anchor="start" x="963.5" y="-221.3" font-family="Times New Roman,serif" font-size="14.00">torque_converter:engine_speeds_out</text>
</a>
</g>
</g>
<!-- cluster_cluster_cluster_34472182003530241496633949877140804093&#45;128576625666444713&#45;3904256270299959966&#45;&gt;cluster_cluster_cluster_34472182003530241496633949877140804093&#45;128576625666444713&#45;7854970567361447602 -->
<g id="edge10" class="edge"><title>cluster_cluster_cluster_34472182003530241496633949877140804093&#45;128576625666444713&#45;3904256270299959966&#45;&gt;cluster_cluster_cluster_34472182003530241496633949877140804093&#45;128576625666444713&#45;7854970567361447602</title>
<path fill="none" stroke="black" d="M1127.25,-210.317C1127.25,-210.317 1127.25,-174.257 1127.25,-174.257"/>
<polygon fill="black" stroke="black" points="1130.75,-174.257 1127.25,-164.257 1123.75,-174.257 1130.75,-174.257"/>
</g>
<!-- cluster_cluster_cluster_34472182003530241496633949877140804093&#45;128576625666444713&#45;3168126550270477918 -->
<g id="node11" class="node"><title>cluster_cluster_cluster_34472182003530241496633949877140804093&#45;128576625666444713&#45;3168126550270477918</title>
<g id="a_node11"><a xlink:title="Engine speed at hot condition [RPM].">
<path fill="cyan" stroke="black" d="M1543.5,-258.5C1543.5,-258.5 1211.5,-258.5 1211.5,-258.5 1205.5,-258.5 1199.5,-252.5 1199.5,-246.5 1199.5,-246.5 1199.5,-222.5 1199.5,-222.5 1199.5,-216.5 1205.5,-210.5 1211.5,-210.5 1211.5,-210.5 1543.5,-210.5 1543.5,-210.5 1549.5,-210.5 1555.5,-216.5 1555.5,-222.5 1555.5,-222.5 1555.5,-246.5 1555.5,-246.5 1555.5,-252.5 1549.5,-258.5 1543.5,-258.5"/>
<text text-anchor="start" x="1311" y="-241.3" font-family="Times New Roman,serif" font-size="14.00">engine_speeds_out_hot</text>
<polygon fill="none" stroke="black" points="1207.5,-214.5 1207.5,-235.5 1309.5,-235.5 1309.5,-214.5 1207.5,-214.5"/>
<text text-anchor="start" x="1210.5" y="-221.3" font-family="Times New Roman,serif" font-size="14.00">remote parent 0=</text>
<polygon fill="none" stroke="black" points="1309.5,-214.5 1309.5,-235.5 1547.5,-235.5 1547.5,-214.5 1309.5,-214.5"/>
<text text-anchor="start" x="1312.5" y="-221.3" font-family="Times New Roman,serif" font-size="14.00">torque_converter:engine_speeds_out_hot</text>
</a>
</g>
</g>
<!-- cluster_cluster_cluster_34472182003530241496633949877140804093&#45;128576625666444713&#45;3168126550270477918&#45;&gt;cluster_cluster_cluster_34472182003530241496633949877140804093&#45;128576625666444713&#45;7854970567361447602 -->
<g id="edge11" class="edge"><title>cluster_cluster_cluster_34472182003530241496633949877140804093&#45;128576625666444713&#45;3168126550270477918&#45;&gt;cluster_cluster_cluster_34472182003530241496633949877140804093&#45;128576625666444713&#45;7854970567361447602</title>
<path fill="none" stroke="black" d="M1259.5,-210.317C1259.5,-210.317 1259.5,-174.257 1259.5,-174.257"/>
<polygon fill="black" stroke="black" points="1263,-174.257 1259.5,-164.257 1256,-174.257 1263,-174.257"/>
</g>
<!-- cluster_cluster_cluster_34472182003530241496633949877140804093&#45;1285766256664447138629495254995206395 -->
<g id="node12" class="node"><title>cluster_cluster_cluster_34472182003530241496633949877140804093&#45;1285766256664447138629495254995206395</title>
<g id="a_node12"><a xlink:title="Gear box speed vector [RPM].">
<path fill="cyan" stroke="black" d="M1497.5,-437C1497.5,-437 1165.5,-437 1165.5,-437 1159.5,-437 1153.5,-431 1153.5,-425 1153.5,-425 1153.5,-401 1153.5,-401 1153.5,-395 1159.5,-389 1165.5,-389 1165.5,-389 1497.5,-389 1497.5,-389 1503.5,-389 1509.5,-395 1509.5,-401 1509.5,-401 1509.5,-425 1509.5,-425 1509.5,-431 1503.5,-437 1497.5,-437"/>
<text text-anchor="start" x="1273" y="-419.8" font-family="Times New Roman,serif" font-size="14.00">gear_box_speeds_in</text>
<polygon fill="none" stroke="black" points="1161.5,-393 1161.5,-414 1263.5,-414 1263.5,-393 1161.5,-393"/>
<text text-anchor="start" x="1164.5" y="-399.8" font-family="Times New Roman,serif" font-size="14.00">remote parent 0=</text>
<polygon fill="none" stroke="black" points="1263.5,-393 1263.5,-414 1501.5,-414 1501.5,-393 1263.5,-393"/>
<text text-anchor="start" x="1266.5" y="-399.8" font-family="Times New Roman,serif" font-size="14.00">torque_converter:engine_speeds_out_hot</text>
</a>
</g>
</g>
<!-- cluster_cluster_cluster_34472182003530241496633949877140804093&#45;1285766256664447138629495254995206395&#45;&gt;cluster_cluster_cluster_34472182003530241496633949877140804093&#45;128576625666444713&#45;1440892420980045854 -->
<g id="edge12" class="edge"><title>cluster_cluster_cluster_34472182003530241496633949877140804093&#45;1285766256664447138629495254995206395&#45;&gt;cluster_cluster_cluster_34472182003530241496633949877140804093&#45;128576625666444713&#45;1440892420980045854</title>
<path fill="none" stroke="black" d="M1302.83,-388.704C1302.83,-363.895 1302.83,-329 1302.83,-329 1302.83,-329 1825.43,-329 1825.43,-329"/>
<polygon fill="black" stroke="black" points="1825.43,-332.5 1835.43,-329 1825.43,-325.5 1825.43,-332.5"/>
</g>
<!-- cluster_cluster_cluster_34472182003530241496633949877140804093&#45;1285766256664447138629495254995206395&#45;&gt;cluster_cluster_cluster_34472182003530241496633949877140804093&#45;128576625666444713&#45;7781936401092667536 -->
<g id="edge13" class="edge"><title>cluster_cluster_cluster_34472182003530241496633949877140804093&#45;1285766256664447138629495254995206395&#45;&gt;cluster_cluster_cluster_34472182003530241496633949877140804093&#45;128576625666444713&#45;7781936401092667536</title>
<path fill="none" stroke="black" d="M1406.17,-388.788C1406.17,-382.276 1406.17,-377 1406.17,-377 1406.17,-377 1664.5,-377 1664.5,-377 1664.5,-377 1664.5,-174.126 1664.5,-174.126"/>
<polygon fill="black" stroke="black" points="1668,-174.126 1664.5,-164.126 1661,-174.126 1668,-174.126"/>
</g>
<!-- cluster_cluster_cluster_34472182003530241496633949877140804093&#45;1285766256664447135823726384603252559 -->
<g id="node13" class="node"><title>cluster_cluster_cluster_34472182003530241496633949877140804093&#45;1285766256664447135823726384603252559</title>
<g id="a_node13"><a xlink:title="Gear vector [&#45;].">
<path fill="cyan" stroke="black" d="M1769,-437C1769,-437 1540,-437 1540,-437 1534,-437 1528,-431 1528,-425 1528,-425 1528,-401 1528,-401 1528,-395 1534,-389 1540,-389 1540,-389 1769,-389 1769,-389 1775,-389 1781,-395 1781,-401 1781,-401 1781,-425 1781,-425 1781,-431 1775,-437 1769,-437"/>
<text text-anchor="start" x="1640" y="-419.8" font-family="Times New Roman,serif" font-size="14.00">gears</text>
<polygon fill="none" stroke="black" points="1536.5,-393 1536.5,-414 1638.5,-414 1638.5,-393 1536.5,-393"/>
<text text-anchor="start" x="1539.5" y="-399.8" font-family="Times New Roman,serif" font-size="14.00">remote parent 0=</text>
<polygon fill="none" stroke="black" points="1638.5,-393 1638.5,-414 1773.5,-414 1773.5,-393 1638.5,-393"/>
<text text-anchor="start" x="1641.5" y="-399.8" font-family="Times New Roman,serif" font-size="14.00">torque_converter:gears</text>
</a>
</g>
</g>
<!-- cluster_cluster_cluster_34472182003530241496633949877140804093&#45;1285766256664447135823726384603252559&#45;&gt;cluster_cluster_cluster_34472182003530241496633949877140804093&#45;128576625666444713&#45;1440892420980045854 -->
<g id="edge14" class="edge"><title>cluster_cluster_cluster_34472182003530241496633949877140804093&#45;1285766256664447135823726384603252559&#45;&gt;cluster_cluster_cluster_34472182003530241496633949877140804093&#45;128576625666444713&#45;1440892420980045854</title>
<path fill="none" stroke="black" d="M1734.25,-388.748C1734.25,-365.851 1734.25,-335 1734.25,-335 1734.25,-335 1825.32,-335 1825.32,-335"/>
<polygon fill="black" stroke="black" points="1825.32,-338.5 1835.32,-335 1825.32,-331.5 1825.32,-338.5"/>
</g>
<!-- cluster_cluster_cluster_34472182003530241496633949877140804093&#45;1285766256664447135823726384603252559&#45;&gt;cluster_cluster_cluster_34472182003530241496633949877140804093&#45;128576625666444713&#45;7781936401092667536 -->
<g id="edge15" class="edge"><title>cluster_cluster_cluster_34472182003530241496633949877140804093&#45;1285766256664447135823726384603252559&#45;&gt;cluster_cluster_cluster_34472182003530241496633949877140804093&#45;128576625666444713&#45;7781936401092667536</title>
<path fill="none" stroke="black" d="M1676,-388.835C1676,-388.835 1676,-174.119 1676,-174.119"/>
<polygon fill="black" stroke="black" points="1679.5,-174.119 1676,-164.119 1672.5,-174.119 1679.5,-174.119"/>
</g>
<!-- cluster_cluster_cluster_34472182003530241496633949877140804093&#45;128576625666444713&#45;6428424691495631235 -->
<g id="node15" class="node"><title>cluster_cluster_cluster_34472182003530241496633949877140804093&#45;128576625666444713&#45;6428424691495631235</title>
<g id="a_node15"><a xlink:title="Limits (vel, acc) when torque converter is active [km/h, m/s].">
<path fill="cyan" stroke="black" d="M2845.5,-437C2845.5,-437 2545.5,-437 2545.5,-437 2539.5,-437 2533.5,-431 2533.5,-425 2533.5,-425 2533.5,-401 2533.5,-401 2533.5,-395 2539.5,-389 2545.5,-389 2545.5,-389 2845.5,-389 2845.5,-389 2851.5,-389 2857.5,-395 2857.5,-401 2857.5,-401 2857.5,-425 2857.5,-425 2857.5,-431 2851.5,-437 2845.5,-437"/>
<text text-anchor="start" x="2645" y="-419.8" font-family="Times New Roman,serif" font-size="14.00">lock_up_tc_limits</text>
<polygon fill="none" stroke="black" points="2541.5,-393 2541.5,-414 2643.5,-414 2643.5,-393 2541.5,-393"/>
<text text-anchor="start" x="2544.5" y="-399.8" font-family="Times New Roman,serif" font-size="14.00">remote parent 0=</text>
<polygon fill="none" stroke="black" points="2643.5,-393 2643.5,-414 2849.5,-414 2849.5,-393 2643.5,-393"/>
<text text-anchor="start" x="2646.5" y="-399.8" font-family="Times New Roman,serif" font-size="14.00">torque_converter:lock_up_tc_limits</text>
</a>
</g>
</g>
<!-- cluster_cluster_cluster_34472182003530241496633949877140804093&#45;128576625666444713&#45;6428424691495631235&#45;&gt;cluster_cluster_cluster_34472182003530241496633949877140804093&#45;128576625666444713&#45;1440892420980045854 -->
<g id="edge16" class="edge"><title>cluster_cluster_cluster_34472182003530241496633949877140804093&#45;128576625666444713&#45;6428424691495631235&#45;&gt;cluster_cluster_cluster_34472182003530241496633949877140804093&#45;128576625666444713&#45;1440892420980045854</title>
<path fill="none" stroke="black" d="M2641.5,-388.704C2641.5,-363.895 2641.5,-329 2641.5,-329 2641.5,-329 2059.81,-329 2059.81,-329"/>
<polygon fill="black" stroke="black" points="2059.81,-325.5 2049.81,-329 2059.81,-332.5 2059.81,-325.5"/>
</g>
<!-- cluster_cluster_cluster_34472182003530241496633949877140804093&#45;128576625666444713&#45;6428424691495631235&#45;&gt;cluster_cluster_cluster_34472182003530241496633949877140804093&#45;128576625666444713&#45;7781936401092667536 -->
<g id="edge17" class="edge"><title>cluster_cluster_cluster_34472182003530241496633949877140804093&#45;128576625666444713&#45;6428424691495631235&#45;&gt;cluster_cluster_cluster_34472182003530241496633949877140804093&#45;128576625666444713&#45;7781936401092667536</title>
<path fill="none" stroke="black" d="M2749.5,-388.914C2749.5,-324.301 2749.5,-152 2749.5,-152 2749.5,-152 1895.89,-152 1895.89,-152"/>
<polygon fill="black" stroke="black" points="1895.89,-148.5 1885.89,-152 1895.89,-155.5 1895.89,-148.5"/>
</g>
<!-- cluster_cluster_cluster_34472182003530241496633949877140804093&#45;1285766256664447138590912300162231870 -->
<g id="node16" class="node"><title>cluster_cluster_cluster_34472182003530241496633949877140804093&#45;1285766256664447138590912300162231870</title>
<g id="a_node16"><a xlink:title="Minimum speed ratio where torque ratio==1.">
<path fill="cyan" stroke="black" d="M435,-437C435,-437 124,-437 124,-437 118,-437 112,-431 112,-425 112,-425 112,-401 112,-401 112,-395 118,-389 124,-389 124,-389 435,-389 435,-389 441,-389 447,-395 447,-401 447,-401 447,-425 447,-425 447,-431 441,-437 435,-437"/>
<text text-anchor="start" x="224" y="-419.8" font-family="Times New Roman,serif" font-size="14.00">lockup_speed_ratio</text>
<polygon fill="none" stroke="black" points="120.5,-393 120.5,-414 222.5,-414 222.5,-393 120.5,-393"/>
<text text-anchor="start" x="123.5" y="-399.8" font-family="Times New Roman,serif" font-size="14.00">remote parent 0=</text>
<polygon fill="none" stroke="black" points="222.5,-393 222.5,-414 439.5,-414 439.5,-393 222.5,-393"/>
<text text-anchor="start" x="225.5" y="-399.8" font-family="Times New Roman,serif" font-size="14.00">torque_converter:lockup_speed_ratio</text>
</a>
</g>
</g>
<!-- cluster_cluster_cluster_34472182003530241496633949877140804093&#45;1285766256664447138590912300162231870&#45;&gt;cluster_cluster_cluster_34472182003530241496633949877140804093&#45;1285766256664447135828550869265096342 -->
<g id="edge18" class="edge"><title>cluster_cluster_cluster_34472182003530241496633949877140804093&#45;1285766256664447138590912300162231870&#45;&gt;cluster_cluster_cluster_34472182003530241496633949877140804093&#45;1285766256664447135828550869265096342</title>
<path fill="none" stroke="black" d="M279.5,-388.704C279.5,-388.704 279.5,-357.102 279.5,-357.102"/>
<polygon fill="black" stroke="black" points="283,-357.102 279.5,-347.102 276,-357.102 283,-357.102"/>
</g>
<!-- cluster_cluster_cluster_34472182003530241496633949877140804093&#45;128576625666444713&#45;6322048719294338958 -->
<g id="node17" class="node"><title>cluster_cluster_cluster_34472182003530241496633949877140804093&#45;128576625666444713&#45;6322048719294338958</title>
<g id="a_node17"><a xlink:title="Torque ratio when speed ratio==0.">
<path fill="cyan" stroke="black" d="M809.5,-437C809.5,-437 477.5,-437 477.5,-437 471.5,-437 465.5,-431 465.5,-425 465.5,-425 465.5,-401 465.5,-401 465.5,-395 471.5,-389 477.5,-389 477.5,-389 809.5,-389 809.5,-389 815.5,-389 821.5,-395 821.5,-401 821.5,-401 821.5,-425 821.5,-425 821.5,-431 815.5,-437 809.5,-437"/>
<text text-anchor="start" x="577" y="-419.8" font-family="Times New Roman,serif" font-size="14.00">stand_still_torque_ratio</text>
<polygon fill="none" stroke="black" points="473.5,-393 473.5,-414 575.5,-414 575.5,-393 473.5,-393"/>
<text text-anchor="start" x="476.5" y="-399.8" font-family="Times New Roman,serif" font-size="14.00">remote parent 0=</text>
<polygon fill="none" stroke="black" points="575.5,-393 575.5,-414 813.5,-414 813.5,-393 575.5,-393"/>
<text text-anchor="start" x="578.5" y="-399.8" font-family="Times New Roman,serif" font-size="14.00">torque_converter:stand_still_torque_ratio</text>
</a>
</g>
</g>
<!-- cluster_cluster_cluster_34472182003530241496633949877140804093&#45;128576625666444713&#45;6322048719294338958&#45;&gt;cluster_cluster_cluster_34472182003530241496633949877140804093&#45;1285766256664447135828550869265096342 -->
<g id="edge19" class="edge"><title>cluster_cluster_cluster_34472182003530241496633949877140804093&#45;128576625666444713&#45;6322048719294338958&#45;&gt;cluster_cluster_cluster_34472182003530241496633949877140804093&#45;1285766256664447135828550869265096342</title>
<path fill="none" stroke="black" d="M646.5,-388.624C646.5,-367.736 646.5,-341 646.5,-341 646.5,-341 363.768,-341 363.768,-341"/>
<polygon fill="black" stroke="black" points="363.768,-337.5 353.768,-341 363.768,-344.5 363.768,-337.5"/>
</g>
<!-- cluster_cluster_cluster_34472182003530241496633949877140804093&#45;128576625666444713&#45;3822089204281359213 -->
<g id="node18" class="node"><title>cluster_cluster_cluster_34472182003530241496633949877140804093&#45;128576625666444713&#45;3822089204281359213</title>
<g id="a_node18"><a xlink:title="Maximum velocity to consider the vehicle stopped [km/h].">
<path fill="cyan" stroke="black" d="M2086,-437C2086,-437 1811,-437 1811,-437 1805,-437 1799,-431 1799,-425 1799,-425 1799,-401 1799,-401 1799,-395 1805,-389 1811,-389 1811,-389 2086,-389 2086,-389 2092,-389 2098,-395 2098,-401 2098,-401 2098,-425 2098,-425 2098,-431 2092,-437 2086,-437"/>
<text text-anchor="start" x="1911" y="-419.8" font-family="Times New Roman,serif" font-size="14.00">stop_velocity</text>
<polygon fill="none" stroke="black" points="1807.5,-393 1807.5,-414 1909.5,-414 1909.5,-393 1807.5,-393"/>
<text text-anchor="start" x="1810.5" y="-399.8" font-family="Times New Roman,serif" font-size="14.00">remote parent 0=</text>
<polygon fill="none" stroke="black" points="1909.5,-393 1909.5,-414 2090.5,-414 2090.5,-393 1909.5,-393"/>
<text text-anchor="start" x="1912.5" y="-399.8" font-family="Times New Roman,serif" font-size="14.00">torque_converter:stop_velocity</text>
</a>
</g>
</g>
<!-- cluster_cluster_cluster_34472182003530241496633949877140804093&#45;128576625666444713&#45;3822089204281359213&#45;&gt;cluster_cluster_cluster_34472182003530241496633949877140804093&#45;128576625666444713&#45;1440892420980045854 -->
<g id="edge21" class="edge"><title>cluster_cluster_cluster_34472182003530241496633949877140804093&#45;128576625666444713&#45;3822089204281359213&#45;&gt;cluster_cluster_cluster_34472182003530241496633949877140804093&#45;128576625666444713&#45;1440892420980045854</title>
<path fill="none" stroke="black" d="M1942.5,-388.704C1942.5,-388.704 1942.5,-357.102 1942.5,-357.102"/>
<polygon fill="black" stroke="black" points="1946,-357.102 1942.5,-347.102 1939,-357.102 1946,-357.102"/>
</g>
<!-- cluster_cluster_cluster_34472182003530241496633949877140804093&#45;1285766256664447131513712230048317604&#45;&gt;cluster_cluster_cluster_34472182003530241496633949877140804093&#45;128576625666444713&#45;7781936401092667536 -->
<g id="edge22" class="edge"><title>cluster_cluster_cluster_34472182003530241496633949877140804093&#45;1285766256664447131513712230048317604&#45;&gt;cluster_cluster_cluster_34472182003530241496633949877140804093&#45;128576625666444713&#45;7781936401092667536</title>
<path fill="none" stroke="black" d="M1786.5,-199.776C1786.5,-199.776 1786.5,-174.078 1786.5,-174.078"/>
<polygon fill="black" stroke="black" points="1790,-174.078 1786.5,-164.078 1783,-174.078 1790,-174.078"/>
</g>
<!-- cluster_cluster_cluster_34472182003530241496633949877140804093&#45;128576625666444713&#45;8335704924087933908&#45;&gt;cluster_cluster_cluster_34472182003530241496633949877140804093&#45;128576625666444713&#45;1440892420980045854 -->
<g id="edge23" class="edge"><title>cluster_cluster_cluster_34472182003530241496633949877140804093&#45;128576625666444713&#45;8335704924087933908&#45;&gt;cluster_cluster_cluster_34472182003530241496633949877140804093&#45;128576625666444713&#45;1440892420980045854</title>
<path fill="none" stroke="black" d="M1622.83,-92.2281C1622.83,-162.939 1622.83,-317 1622.83,-317 1622.83,-317 1825.17,-317 1825.17,-317"/>
<polygon fill="black" stroke="black" points="1825.17,-320.5 1835.17,-317 1825.17,-313.5 1825.17,-320.5"/>
</g>
<!-- cluster_cluster_cluster_34472182003530241496633949877140804093&#45;1285766256664447131395676110976739562 -->
<g id="node21" class="node"><title>cluster_cluster_cluster_34472182003530241496633949877140804093&#45;1285766256664447131395676110976739562</title>
<g id="a_node21"><a xlink:title="Velocity vector [km/h].">
<path fill="cyan" stroke="black" d="M3139,-437C3139,-437 2888,-437 2888,-437 2882,-437 2876,-431 2876,-425 2876,-425 2876,-401 2876,-401 2876,-395 2882,-389 2888,-389 2888,-389 3139,-389 3139,-389 3145,-389 3151,-395 3151,-401 3151,-401 3151,-425 3151,-425 3151,-431 3145,-437 3139,-437"/>
<text text-anchor="start" x="2988" y="-419.8" font-family="Times New Roman,serif" font-size="14.00">velocities</text>
<polygon fill="none" stroke="black" points="2884.5,-393 2884.5,-414 2986.5,-414 2986.5,-393 2884.5,-393"/>
<text text-anchor="start" x="2887.5" y="-399.8" font-family="Times New Roman,serif" font-size="14.00">remote parent 0=</text>
<polygon fill="none" stroke="black" points="2986.5,-393 2986.5,-414 3143.5,-414 3143.5,-393 2986.5,-393"/>
<text text-anchor="start" x="2989.5" y="-399.8" font-family="Times New Roman,serif" font-size="14.00">torque_converter:velocities</text>
</a>
</g>
</g>
<!-- cluster_cluster_cluster_34472182003530241496633949877140804093&#45;1285766256664447131395676110976739562&#45;&gt;cluster_cluster_cluster_34472182003530241496633949877140804093&#45;128576625666444713&#45;1440892420980045854 -->
<g id="edge24" class="edge"><title>cluster_cluster_cluster_34472182003530241496633949877140804093&#45;1285766256664447131395676110976739562&#45;&gt;cluster_cluster_cluster_34472182003530241496633949877140804093&#45;128576625666444713&#45;1440892420980045854</title>
<path fill="none" stroke="black" d="M2967.67,-388.565C2967.67,-361.011 2967.67,-320 2967.67,-320 2967.67,-320 2059.79,-320 2059.79,-320"/>
<polygon fill="black" stroke="black" points="2059.79,-316.5 2049.79,-320 2059.79,-323.5 2059.79,-316.5"/>
</g>
<!-- cluster_cluster_cluster_34472182003530241496633949877140804093&#45;1285766256664447131395676110976739562&#45;&gt;cluster_cluster_cluster_34472182003530241496633949877140804093&#45;128576625666444713&#45;7781936401092667536 -->
<g id="edge25" class="edge"><title>cluster_cluster_cluster_34472182003530241496633949877140804093&#45;1285766256664447131395676110976739562&#45;&gt;cluster_cluster_cluster_34472182003530241496633949877140804093&#45;128576625666444713&#45;7781936401092667536</title>
<path fill="none" stroke="black" d="M3059.33,-388.773C3059.33,-321.96 3059.33,-140 3059.33,-140 3059.33,-140 1895.7,-140 1895.7,-140"/>
<polygon fill="black" stroke="black" points="1895.7,-136.5 1885.7,-140 1895.7,-143.5 1895.7,-136.5"/>
</g>
</g>
</svg>
