<?xml version="1.0" encoding="UTF-8" standalone="no"?>
<!DOCTYPE svg PUBLIC "-//W3C//DTD SVG 1.1//EN"
 "http://www.w3.org/Graphics/SVG/1.1/DTD/svg11.dtd">
<!-- Generated by graphviz version 2.38.0 (20140413.2041)
 -->
<!-- Title: cluster_NEDC cycle model Pages: 1 -->
<svg width="1841pt" height="424pt"
 viewBox="0.00 0.00 1840.50 424.00" xmlns="http://www.w3.org/2000/svg" xmlns:xlink="http://www.w3.org/1999/xlink">
<g id="graph0" class="graph" transform="scale(1 1) rotate(0) translate(4 420)">
<title>cluster_NEDC cycle model</title>
<polygon fill="white" stroke="none" points="-4,4 -4,-420 1836.5,-420 1836.5,4 -4,4"/>
<text text-anchor="start" x="861.75" y="-7.8" font-family="Times New Roman,serif" font-size="14.00">NEDC cycle model</text>
<!-- cluster_cluster_cluster_cluster_cluster_cluster_cluster_&#45;22021212490198297065621433541211787464&#45;5690564999758951521&#45;563374694946743956472473681055795821385914118046030077384008035146516381901&#45;6215422529513533217 -->
<g id="node1" class="node"><title>cluster_cluster_cluster_cluster_cluster_cluster_cluster_&#45;22021212490198297065621433541211787464&#45;5690564999758951521&#45;563374694946743956472473681055795821385914118046030077384008035146516381901&#45;6215422529513533217</title>
<g id="a_node1"><a xlink:title="gear_box_type">
<path fill="cyan" stroke="black" d="M308,-239C308,-239 12,-239 12,-239 6,-239 0,-233 0,-227 0,-227 0,-203 0,-203 0,-197 6,-191 12,-191 12,-191 308,-191 308,-191 314,-191 320,-197 320,-203 320,-203 320,-227 320,-227 320,-233 314,-239 308,-239"/>
<text text-anchor="start" x="117.5" y="-221.8" font-family="Times New Roman,serif" font-size="14.00">gear_box_type</text>
<polygon fill="none" stroke="black" points="8,-195 8,-216 110,-216 110,-195 8,-195"/>
<text text-anchor="start" x="11" y="-201.8" font-family="Times New Roman,serif" font-size="14.00">remote parent 0=</text>
<polygon fill="none" stroke="black" points="110,-195 110,-216 312,-216 312,-195 110,-195"/>
<text text-anchor="start" x="113" y="-201.8" font-family="Times New Roman,serif" font-size="14.00">NEDC cycle model:gear_box_type</text>
</a>
</g>
</g>
<!-- cluster_cluster_cluster_cluster_cluster_cluster_cluster_&#45;22021212490198297065621433541211787464&#45;5690564999758951521&#45;563374694946743956472473681055795821385914118046030077384008035146516381901&#45;2840349884536709809 -->
<g id="node8" class="node"><title>cluster_cluster_cluster_cluster_cluster_cluster_cluster_&#45;22021212490198297065621433541211787464&#45;5690564999758951521&#45;563374694946743956472473681055795821385914118046030077384008035146516381901&#45;2840349884536709809</title>
<g id="a_node8"><a xlink:href="./NEDC_cycle_model/nedc_gears.txt" xlink:title="Returns the gear shifting profile according to NEDC [&#45;].">
<polygon fill="springgreen" stroke="black" points="892.5,-155 721.5,-155 721.5,-107 892.5,-107 892.5,-155"/>
<text text-anchor="start" x="775.5" y="-137.8" font-family="Times New Roman,serif" font-size="14.00">nedc_gears</text>
<polygon fill="none" stroke="black" points="730,-111 730,-132 821,-132 821,-111 730,-111"/>
<text text-anchor="start" x="733" y="-117.8" font-family="Times New Roman,serif" font-size="14.00">input_domain=</text>
<polygon fill="none" stroke="black" points="821,-111 821,-132 885,-132 885,-111 821,-111"/>
<text text-anchor="start" x="824" y="-117.8" font-family="Times New Roman,serif" font-size="14.00">&lt;lambda&gt;</text>
</a>
</g>
</g>
<!-- cluster_cluster_cluster_cluster_cluster_cluster_cluster_&#45;22021212490198297065621433541211787464&#45;5690564999758951521&#45;563374694946743956472473681055795821385914118046030077384008035146516381901&#45;6215422529513533217&#45;&gt;cluster_cluster_cluster_cluster_cluster_cluster_cluster_&#45;22021212490198297065621433541211787464&#45;5690564999758951521&#45;563374694946743956472473681055795821385914118046030077384008035146516381901&#45;2840349884536709809 -->
<g id="edge1" class="edge"><title>cluster_cluster_cluster_cluster_cluster_cluster_cluster_&#45;22021212490198297065621433541211787464&#45;5690564999758951521&#45;563374694946743956472473681055795821385914118046030077384008035146516381901&#45;6215422529513533217&#45;&gt;cluster_cluster_cluster_cluster_cluster_cluster_cluster_&#45;22021212490198297065621433541211787464&#45;5690564999758951521&#45;563374694946743956472473681055795821385914118046030077384008035146516381901&#45;2840349884536709809</title>
<path fill="none" stroke="black" d="M160,-190.828C160,-163.57 160,-123 160,-123 160,-123 711.417,-123 711.417,-123"/>
<polygon fill="black" stroke="black" points="711.417,-126.5 721.417,-123 711.417,-119.5 711.417,-126.5"/>
</g>
<!-- cluster_cluster_cluster_cluster_cluster_cluster_cluster_&#45;22021212490198297065621433541211787464&#45;5690564999758951521&#45;5633746949467439564724736810557958213859141180460300773840080351465163819015823726384603252559 -->
<g id="node2" class="node"><title>cluster_cluster_cluster_cluster_cluster_cluster_cluster_&#45;22021212490198297065621433541211787464&#45;5690564999758951521&#45;5633746949467439564724736810557958213859141180460300773840080351465163819015823726384603252559</title>
<g id="a_node2"><a xlink:title="Gear vector [&#45;].">
<path fill="cyan" stroke="black" d="M928,-71C928,-71 686,-71 686,-71 680,-71 674,-65 674,-59 674,-59 674,-35 674,-35 674,-29 680,-23 686,-23 686,-23 928,-23 928,-23 934,-23 940,-29 940,-35 940,-35 940,-59 940,-59 940,-65 934,-71 928,-71"/>
<text text-anchor="start" x="792" y="-53.8" font-family="Times New Roman,serif" font-size="14.00">gears</text>
<polygon fill="none" stroke="black" points="682,-27 682,-48 784,-48 784,-27 682,-27"/>
<text text-anchor="start" x="685" y="-33.8" font-family="Times New Roman,serif" font-size="14.00">remote parent 0=</text>
<polygon fill="none" stroke="black" points="784,-27 784,-48 932,-48 932,-27 784,-27"/>
<text text-anchor="start" x="787" y="-33.8" font-family="Times New Roman,serif" font-size="14.00">NEDC cycle model:gears</text>
</a>
</g>
</g>
<!-- cluster_cluster_cluster_cluster_cluster_cluster_cluster_&#45;22021212490198297065621433541211787464&#45;5690564999758951521&#45;5633746949467439564724736810557958213859141180460300773840080351465163819015710857425003681082 -->
<g id="node3" class="node"><title>cluster_cluster_cluster_cluster_cluster_cluster_cluster_&#45;22021212490198297065621433541211787464&#45;5690564999758951521&#45;5633746949467439564724736810557958213859141180460300773840080351465163819015710857425003681082</title>
<g id="a_node3"><a xlink:title="Initial temperature of the test cell [°C].">
<path fill="cyan" stroke="black" d="M1433,-416C1433,-416 1127,-416 1127,-416 1121,-416 1115,-410 1115,-404 1115,-404 1115,-359 1115,-359 1115,-353 1121,-347 1127,-347 1127,-347 1433,-347 1433,-347 1439,-347 1445,-353 1445,-359 1445,-359 1445,-404 1445,-404 1445,-410 1439,-416 1433,-416"/>
<text text-anchor="start" x="1229" y="-398.3" font-family="Times New Roman,serif" font-size="14.00">initial_temperature</text>
<polygon fill="none" stroke="black" points="1123,-371.5 1123,-392.5 1217,-392.5 1217,-371.5 1123,-371.5"/>
<text text-anchor="start" x="1168" y="-378.3" font-family="Times New Roman,serif" font-size="14.00">default=</text>
<polygon fill="none" stroke="black" points="1217,-371.5 1217,-392.5 1437,-392.5 1437,-371.5 1217,-371.5"/>
<text text-anchor="start" x="1220" y="-378.3" font-family="Times New Roman,serif" font-size="14.00">25.0</text>
<polygon fill="none" stroke="black" points="1123,-350.5 1123,-371.5 1217,-371.5 1217,-350.5 1123,-350.5"/>
<text text-anchor="start" x="1126" y="-357.3" font-family="Times New Roman,serif" font-size="14.00">remote child 0=</text>
<polygon fill="none" stroke="black" points="1217,-350.5 1217,-371.5 1437,-371.5 1437,-350.5 1217,-350.5"/>
<text text-anchor="start" x="1220" y="-357.3" font-family="Times New Roman,serif" font-size="14.00">NEDC cycle model:initial_temperature</text>
</a>
</g>
</g>
<!-- cluster_cluster_cluster_cluster_cluster_cluster_cluster_&#45;22021212490198297065621433541211787464&#45;5690564999758951521&#45;5633746949467439564724736810557958213859141180460300773840080351465163819013946548646462490374 -->
<g id="node4" class="node"><title>cluster_cluster_cluster_cluster_cluster_cluster_cluster_&#45;22021212490198297065621433541211787464&#45;5690564999758951521&#45;5633746949467439564724736810557958213859141180460300773840080351465163819013946548646462490374</title>
<g id="a_node4"><a xlink:title="K1 NEDC parameter (first or second gear) [&#45;].">
<path fill="cyan" stroke="black" d="M576,-239C576,-239 350,-239 350,-239 344,-239 338,-233 338,-227 338,-227 338,-203 338,-203 338,-197 344,-191 350,-191 350,-191 576,-191 576,-191 582,-191 588,-197 588,-203 588,-203 588,-227 588,-227 588,-233 582,-239 576,-239"/>
<text text-anchor="start" x="456" y="-221.8" font-family="Times New Roman,serif" font-size="14.00">k1</text>
<polygon fill="none" stroke="black" points="346,-195 346,-216 448,-216 448,-195 346,-195"/>
<text text-anchor="start" x="349" y="-201.8" font-family="Times New Roman,serif" font-size="14.00">remote parent 0=</text>
<polygon fill="none" stroke="black" points="448,-195 448,-216 580,-216 580,-195 448,-195"/>
<text text-anchor="start" x="451" y="-201.8" font-family="Times New Roman,serif" font-size="14.00">NEDC cycle model:k1</text>
</a>
</g>
</g>
<!-- cluster_cluster_cluster_cluster_cluster_cluster_cluster_&#45;22021212490198297065621433541211787464&#45;5690564999758951521&#45;5633746949467439564724736810557958213859141180460300773840080351465163819013946548646462490374&#45;&gt;cluster_cluster_cluster_cluster_cluster_cluster_cluster_&#45;22021212490198297065621433541211787464&#45;5690564999758951521&#45;563374694946743956472473681055795821385914118046030077384008035146516381901&#45;2840349884536709809 -->
<g id="edge2" class="edge"><title>cluster_cluster_cluster_cluster_cluster_cluster_cluster_&#45;22021212490198297065621433541211787464&#45;5690564999758951521&#45;5633746949467439564724736810557958213859141180460300773840080351465163819013946548646462490374&#45;&gt;cluster_cluster_cluster_cluster_cluster_cluster_cluster_&#45;22021212490198297065621433541211787464&#45;5690564999758951521&#45;563374694946743956472473681055795821385914118046030077384008035146516381901&#45;2840349884536709809</title>
<path fill="none" stroke="black" d="M463,-190.953C463,-168.688 463,-139 463,-139 463,-139 711.082,-139 711.082,-139"/>
<polygon fill="black" stroke="black" points="711.082,-142.5 721.082,-139 711.082,-135.5 711.082,-142.5"/>
</g>
<!-- cluster_cluster_cluster_cluster_cluster_cluster_cluster_&#45;22021212490198297065621433541211787464&#45;5690564999758951521&#45;5633746949467439564724736810557958213859141180460300773840080351465163819016922247875390761644 -->
<g id="node5" class="node"><title>cluster_cluster_cluster_cluster_cluster_cluster_cluster_&#45;22021212490198297065621433541211787464&#45;5690564999758951521&#45;5633746949467439564724736810557958213859141180460300773840080351465163819016922247875390761644</title>
<g id="a_node5"><a xlink:title="K2 NEDC parameter (first or second gear) [&#45;].">
<path fill="cyan" stroke="black" d="M844,-239C844,-239 618,-239 618,-239 612,-239 606,-233 606,-227 606,-227 606,-203 606,-203 606,-197 612,-191 618,-191 618,-191 844,-191 844,-191 850,-191 856,-197 856,-203 856,-203 856,-227 856,-227 856,-233 850,-239 844,-239"/>
<text text-anchor="start" x="724" y="-221.8" font-family="Times New Roman,serif" font-size="14.00">k2</text>
<polygon fill="none" stroke="black" points="614,-195 614,-216 716,-216 716,-195 614,-195"/>
<text text-anchor="start" x="617" y="-201.8" font-family="Times New Roman,serif" font-size="14.00">remote parent 0=</text>
<polygon fill="none" stroke="black" points="716,-195 716,-216 848,-216 848,-195 716,-195"/>
<text text-anchor="start" x="719" y="-201.8" font-family="Times New Roman,serif" font-size="14.00">NEDC cycle model:k2</text>
</a>
</g>
</g>
<!-- cluster_cluster_cluster_cluster_cluster_cluster_cluster_&#45;22021212490198297065621433541211787464&#45;5690564999758951521&#45;5633746949467439564724736810557958213859141180460300773840080351465163819016922247875390761644&#45;&gt;cluster_cluster_cluster_cluster_cluster_cluster_cluster_&#45;22021212490198297065621433541211787464&#45;5690564999758951521&#45;563374694946743956472473681055795821385914118046030077384008035146516381901&#45;2840349884536709809 -->
<g id="edge3" class="edge"><title>cluster_cluster_cluster_cluster_cluster_cluster_cluster_&#45;22021212490198297065621433541211787464&#45;5690564999758951521&#45;5633746949467439564724736810557958213859141180460300773840080351465163819016922247875390761644&#45;&gt;cluster_cluster_cluster_cluster_cluster_cluster_cluster_&#45;22021212490198297065621433541211787464&#45;5690564999758951521&#45;563374694946743956472473681055795821385914118046030077384008035146516381901&#45;2840349884536709809</title>
<path fill="none" stroke="black" d="M788.75,-190.704C788.75,-190.704 788.75,-165.242 788.75,-165.242"/>
<polygon fill="black" stroke="black" points="792.25,-165.242 788.75,-155.242 785.25,-165.242 792.25,-165.242"/>
</g>
<!-- cluster_cluster_cluster_cluster_cluster_cluster_cluster_&#45;22021212490198297065621433541211787464&#45;5690564999758951521&#45;563374694946743956472473681055795821385914118046030077384008035146516381901&#45;6047659993931640753 -->
<g id="node6" class="node"><title>cluster_cluster_cluster_cluster_cluster_cluster_cluster_&#45;22021212490198297065621433541211787464&#45;5690564999758951521&#45;563374694946743956472473681055795821385914118046030077384008035146516381901&#45;6047659993931640753</title>
<g id="a_node6"><a xlink:title="K5 NEDC parameter (first or second gear) [&#45;].">
<path fill="cyan" stroke="black" d="M1150,-239C1150,-239 924,-239 924,-239 918,-239 912,-233 912,-227 912,-227 912,-203 912,-203 912,-197 918,-191 924,-191 924,-191 1150,-191 1150,-191 1156,-191 1162,-197 1162,-203 1162,-203 1162,-227 1162,-227 1162,-233 1156,-239 1150,-239"/>
<text text-anchor="start" x="1030" y="-221.8" font-family="Times New Roman,serif" font-size="14.00">k5</text>
<polygon fill="none" stroke="black" points="920,-195 920,-216 1022,-216 1022,-195 920,-195"/>
<text text-anchor="start" x="923" y="-201.8" font-family="Times New Roman,serif" font-size="14.00">remote parent 0=</text>
<polygon fill="none" stroke="black" points="1022,-195 1022,-216 1154,-216 1154,-195 1022,-195"/>
<text text-anchor="start" x="1025" y="-201.8" font-family="Times New Roman,serif" font-size="14.00">NEDC cycle model:k5</text>
</a>
</g>
</g>
<!-- cluster_cluster_cluster_cluster_cluster_cluster_cluster_&#45;22021212490198297065621433541211787464&#45;5690564999758951521&#45;563374694946743956472473681055795821385914118046030077384008035146516381901&#45;6047659993931640753&#45;&gt;cluster_cluster_cluster_cluster_cluster_cluster_cluster_&#45;22021212490198297065621433541211787464&#45;5690564999758951521&#45;563374694946743956472473681055795821385914118046030077384008035146516381901&#45;2840349884536709809 -->
<g id="edge4" class="edge"><title>cluster_cluster_cluster_cluster_cluster_cluster_cluster_&#45;22021212490198297065621433541211787464&#45;5690564999758951521&#45;563374694946743956472473681055795821385914118046030077384008035146516381901&#45;6047659993931640753&#45;&gt;cluster_cluster_cluster_cluster_cluster_cluster_cluster_&#45;22021212490198297065621433541211787464&#45;5690564999758951521&#45;563374694946743956472473681055795821385914118046030077384008035146516381901&#45;2840349884536709809</title>
<path fill="none" stroke="black" d="M926,-190.953C926,-168.688 926,-139 926,-139 926,-139 902.535,-139 902.535,-139"/>
<polygon fill="black" stroke="black" points="902.535,-135.5 892.535,-139 902.535,-142.5 902.535,-135.5"/>
</g>
<!-- cluster_cluster_cluster_cluster_cluster_cluster_cluster_&#45;22021212490198297065621433541211787464&#45;5690564999758951521&#45;563374694946743956472473681055795821385914118046030077384008035146516381901&#45;3579311186073635 -->
<g id="node7" class="node"><title>cluster_cluster_cluster_cluster_cluster_cluster_cluster_&#45;22021212490198297065621433541211787464&#45;5690564999758951521&#45;563374694946743956472473681055795821385914118046030077384008035146516381901&#45;3579311186073635</title>
<g id="a_node7"><a xlink:title="Maximum gear of the gear box [&#45;].">
<path fill="cyan" stroke="black" d="M1085,-405.5C1085,-405.5 819,-405.5 819,-405.5 813,-405.5 807,-399.5 807,-393.5 807,-393.5 807,-369.5 807,-369.5 807,-363.5 813,-357.5 819,-357.5 819,-357.5 1085,-357.5 1085,-357.5 1091,-357.5 1097,-363.5 1097,-369.5 1097,-369.5 1097,-393.5 1097,-393.5 1097,-399.5 1091,-405.5 1085,-405.5"/>
<text text-anchor="start" x="924.5" y="-388.3" font-family="Times New Roman,serif" font-size="14.00">max_gear</text>
<polygon fill="none" stroke="black" points="815,-361.5 815,-382.5 917,-382.5 917,-361.5 815,-361.5"/>
<text text-anchor="start" x="818" y="-368.3" font-family="Times New Roman,serif" font-size="14.00">remote parent 0=</text>
<polygon fill="none" stroke="black" points="917,-361.5 917,-382.5 1089,-382.5 1089,-361.5 917,-361.5"/>
<text text-anchor="start" x="920" y="-368.3" font-family="Times New Roman,serif" font-size="14.00">NEDC cycle model:max_gear</text>
</a>
</g>
</g>
<!-- cluster_cluster_cluster_cluster_cluster_cluster_cluster_&#45;22021212490198297065621433541211787464&#45;5690564999758951521&#45;563374694946743956472473681055795821385914118046030077384008035146516381901&#45;3579311186073635&#45;&gt;cluster_cluster_cluster_cluster_cluster_cluster_cluster_&#45;22021212490198297065621433541211787464&#45;5690564999758951521&#45;563374694946743956472473681055795821385914118046030077384008035146516381901&#45;2840349884536709809 -->
<g id="edge5" class="edge"><title>cluster_cluster_cluster_cluster_cluster_cluster_cluster_&#45;22021212490198297065621433541211787464&#45;5690564999758951521&#45;563374694946743956472473681055795821385914118046030077384008035146516381901&#45;3579311186073635&#45;&gt;cluster_cluster_cluster_cluster_cluster_cluster_cluster_&#45;22021212490198297065621433541211787464&#45;5690564999758951521&#45;563374694946743956472473681055795821385914118046030077384008035146516381901&#45;2840349884536709809</title>
<path fill="none" stroke="black" d="M874.25,-357.481C874.25,-357.481 874.25,-165.314 874.25,-165.314"/>
<polygon fill="black" stroke="black" points="877.75,-165.314 874.25,-155.314 870.75,-165.314 877.75,-165.314"/>
</g>
<!-- cluster_cluster_cluster_cluster_cluster_cluster_cluster_&#45;22021212490198297065621433541211787464&#45;5690564999758951521&#45;5633746949467439564724736810557958213859141180460300773840080351465163819014112993811645272567 -->
<g id="node9" class="node"><title>cluster_cluster_cluster_cluster_cluster_cluster_cluster_&#45;22021212490198297065621433541211787464&#45;5690564999758951521&#45;5633746949467439564724736810557958213859141180460300773840080351465163819014112993811645272567</title>
<g id="a_node9"><a xlink:href="./NEDC_cycle_model/set_max_gear_as_default_k5.txt" xlink:title="Returns the same arguments.">
<polygon fill="springgreen" stroke="black" points="1112,-311 928,-311 928,-275 1112,-275 1112,-311"/>
<text text-anchor="start" x="938.5" y="-288.8" font-family="Times New Roman,serif" font-size="14.00">set_max_gear_as_default_k5</text>
</a>
</g>
</g>
<!-- cluster_cluster_cluster_cluster_cluster_cluster_cluster_&#45;22021212490198297065621433541211787464&#45;5690564999758951521&#45;563374694946743956472473681055795821385914118046030077384008035146516381901&#45;3579311186073635&#45;&gt;cluster_cluster_cluster_cluster_cluster_cluster_cluster_&#45;22021212490198297065621433541211787464&#45;5690564999758951521&#45;5633746949467439564724736810557958213859141180460300773840080351465163819014112993811645272567 -->
<g id="edge6" class="edge"><title>cluster_cluster_cluster_cluster_cluster_cluster_cluster_&#45;22021212490198297065621433541211787464&#45;5690564999758951521&#45;563374694946743956472473681055795821385914118046030077384008035146516381901&#45;3579311186073635&#45;&gt;cluster_cluster_cluster_cluster_cluster_cluster_cluster_&#45;22021212490198297065621433541211787464&#45;5690564999758951521&#45;5633746949467439564724736810557958213859141180460300773840080351465163819014112993811645272567</title>
<path fill="none" stroke="black" d="M1012.5,-357.317C1012.5,-357.317 1012.5,-321.257 1012.5,-321.257"/>
<polygon fill="black" stroke="black" points="1016,-321.257 1012.5,-311.257 1009,-321.257 1016,-321.257"/>
</g>
<!-- cluster_cluster_cluster_cluster_cluster_cluster_cluster_&#45;22021212490198297065621433541211787464&#45;5690564999758951521&#45;563374694946743956472473681055795821385914118046030077384008035146516381901&#45;2840349884536709809&#45;&gt;cluster_cluster_cluster_cluster_cluster_cluster_cluster_&#45;22021212490198297065621433541211787464&#45;5690564999758951521&#45;5633746949467439564724736810557958213859141180460300773840080351465163819015823726384603252559 -->
<g id="edge7" class="edge"><title>cluster_cluster_cluster_cluster_cluster_cluster_cluster_&#45;22021212490198297065621433541211787464&#45;5690564999758951521&#45;563374694946743956472473681055795821385914118046030077384008035146516381901&#45;2840349884536709809&#45;&gt;cluster_cluster_cluster_cluster_cluster_cluster_cluster_&#45;22021212490198297065621433541211787464&#45;5690564999758951521&#45;5633746949467439564724736810557958213859141180460300773840080351465163819015823726384603252559</title>
<path fill="none" stroke="black" d="M807,-106.704C807,-106.704 807,-81.2417 807,-81.2417"/>
<polygon fill="black" stroke="black" points="810.5,-81.2416 807,-71.2417 803.5,-81.2417 810.5,-81.2416"/>
</g>
<!-- cluster_cluster_cluster_cluster_cluster_cluster_cluster_&#45;22021212490198297065621433541211787464&#45;5690564999758951521&#45;5633746949467439564724736810557958213859141180460300773840080351465163819014112993811645272567&#45;&gt;cluster_cluster_cluster_cluster_cluster_cluster_cluster_&#45;22021212490198297065621433541211787464&#45;5690564999758951521&#45;563374694946743956472473681055795821385914118046030077384008035146516381901&#45;6047659993931640753 -->
<g id="edge8" class="edge"><title>cluster_cluster_cluster_cluster_cluster_cluster_cluster_&#45;22021212490198297065621433541211787464&#45;5690564999758951521&#45;5633746949467439564724736810557958213859141180460300773840080351465163819014112993811645272567&#45;&gt;cluster_cluster_cluster_cluster_cluster_cluster_cluster_&#45;22021212490198297065621433541211787464&#45;5690564999758951521&#45;563374694946743956472473681055795821385914118046030077384008035146516381901&#45;6047659993931640753</title>
<path fill="none" stroke="black" d="M1020,-274.909C1020,-274.909 1020,-249.199 1020,-249.199"/>
<polygon fill="black" stroke="black" points="1023.5,-249.199 1020,-239.199 1016.5,-249.199 1023.5,-249.199"/>
</g>
<!-- cluster_cluster_cluster_cluster_cluster_cluster_cluster_&#45;22021212490198297065621433541211787464&#45;5690564999758951521&#45;5633746949467439564724736810557958213859141180460300773840080351465163819011095843056856409543 -->
<g id="node10" class="node"><title>cluster_cluster_cluster_cluster_cluster_cluster_cluster_&#45;22021212490198297065621433541211787464&#45;5690564999758951521&#45;5633746949467439564724736810557958213859141180460300773840080351465163819011095843056856409543</title>
<g id="a_node10"><a xlink:title="time_sample_frequency">
<path fill="cyan" stroke="black" d="M1820.5,-405.5C1820.5,-405.5 1475.5,-405.5 1475.5,-405.5 1469.5,-405.5 1463.5,-399.5 1463.5,-393.5 1463.5,-393.5 1463.5,-369.5 1463.5,-369.5 1463.5,-363.5 1469.5,-357.5 1475.5,-357.5 1475.5,-357.5 1820.5,-357.5 1820.5,-357.5 1826.5,-357.5 1832.5,-363.5 1832.5,-369.5 1832.5,-369.5 1832.5,-393.5 1832.5,-393.5 1832.5,-399.5 1826.5,-405.5 1820.5,-405.5"/>
<text text-anchor="start" x="1582" y="-388.3" font-family="Times New Roman,serif" font-size="14.00">time_sample_frequency</text>
<polygon fill="none" stroke="black" points="1472,-361.5 1472,-382.5 1574,-382.5 1574,-361.5 1472,-361.5"/>
<text text-anchor="start" x="1475" y="-368.3" font-family="Times New Roman,serif" font-size="14.00">remote parent 0=</text>
<polygon fill="none" stroke="black" points="1574,-361.5 1574,-382.5 1825,-382.5 1825,-361.5 1574,-361.5"/>
<text text-anchor="start" x="1577" y="-368.3" font-family="Times New Roman,serif" font-size="14.00">NEDC cycle model:time_sample_frequency</text>
</a>
</g>
</g>
<!-- cluster_cluster_cluster_cluster_cluster_cluster_cluster_&#45;22021212490198297065621433541211787464&#45;5690564999758951521&#45;563374694946743956472473681055795821385914118046030077384008035146516381901&#45;1825562924159530342 -->
<g id="node11" class="node"><title>cluster_cluster_cluster_cluster_cluster_cluster_cluster_&#45;22021212490198297065621433541211787464&#45;5690564999758951521&#45;563374694946743956472473681055795821385914118046030077384008035146516381901&#45;1825562924159530342</title>
<g id="a_node11"><a xlink:title="Time vector [s].">
<path fill="cyan" stroke="black" d="M1434,-239C1434,-239 1192,-239 1192,-239 1186,-239 1180,-233 1180,-227 1180,-227 1180,-203 1180,-203 1180,-197 1186,-191 1192,-191 1192,-191 1434,-191 1434,-191 1440,-191 1446,-197 1446,-203 1446,-203 1446,-227 1446,-227 1446,-233 1440,-239 1434,-239"/>
<text text-anchor="start" x="1298" y="-221.8" font-family="Times New Roman,serif" font-size="14.00">times</text>
<polygon fill="none" stroke="black" points="1188,-195 1188,-216 1290,-216 1290,-195 1188,-195"/>
<text text-anchor="start" x="1191" y="-201.8" font-family="Times New Roman,serif" font-size="14.00">remote parent 0=</text>
<polygon fill="none" stroke="black" points="1290,-195 1290,-216 1438,-216 1438,-195 1290,-195"/>
<text text-anchor="start" x="1293" y="-201.8" font-family="Times New Roman,serif" font-size="14.00">NEDC cycle model:times</text>
</a>
</g>
</g>
<!-- cluster_cluster_cluster_cluster_cluster_cluster_cluster_&#45;22021212490198297065621433541211787464&#45;5690564999758951521&#45;563374694946743956472473681055795821385914118046030077384008035146516381901&#45;1825562924159530342&#45;&gt;cluster_cluster_cluster_cluster_cluster_cluster_cluster_&#45;22021212490198297065621433541211787464&#45;5690564999758951521&#45;563374694946743956472473681055795821385914118046030077384008035146516381901&#45;2840349884536709809 -->
<g id="edge9" class="edge"><title>cluster_cluster_cluster_cluster_cluster_cluster_cluster_&#45;22021212490198297065621433541211787464&#45;5690564999758951521&#45;563374694946743956472473681055795821385914118046030077384008035146516381901&#45;1825562924159530342&#45;&gt;cluster_cluster_cluster_cluster_cluster_cluster_cluster_&#45;22021212490198297065621433541211787464&#45;5690564999758951521&#45;563374694946743956472473681055795821385914118046030077384008035146516381901&#45;2840349884536709809</title>
<path fill="none" stroke="black" d="M1313,-190.828C1313,-163.57 1313,-123 1313,-123 1313,-123 902.55,-123 902.55,-123"/>
<polygon fill="black" stroke="black" points="902.55,-119.5 892.55,-123 902.55,-126.5 902.55,-119.5"/>
</g>
</g>
</svg>
