<?xml version="1.0" encoding="UTF-8" standalone="no"?>
<!DOCTYPE svg PUBLIC "-//W3C//DTD SVG 1.1//EN"
 "http://www.w3.org/Graphics/SVG/1.1/DTD/svg11.dtd">
<!-- Generated by graphviz version 2.38.0 (20140413.2041)
 -->
<!-- Title: cluster_ECSSM&#45;wltp_l errors Pages: 1 -->
<svg width="498pt" height="607pt"
 viewBox="0.00 0.00 498.00 607.00" xmlns="http://www.w3.org/2000/svg" xmlns:xlink="http://www.w3.org/1999/xlink">
<g id="graph0" class="graph" transform="scale(1 1) rotate(0) translate(4 603)">
<title>cluster_ECSSM&#45;wltp_l errors</title>
<polygon fill="white" stroke="none" points="-4,4 -4,-603 494,-603 494,4 -4,4"/>
<text text-anchor="start" x="183.5" y="-7.8" font-family="Times New Roman,serif" font-size="14.00">ECSSM&#45;wltp_l errors</text>
<!-- cluster_cluster_cluster_&#45;2202121249019829706&#45;8986526737437215088&#45;24029435944313674977532400 -->
<g id="node1" class="node"><title>cluster_cluster_cluster_&#45;2202121249019829706&#45;8986526737437215088&#45;24029435944313674977532400</title>
<g id="a_node1"><a xlink:title="start">
<polygon fill="red" stroke="black" points="162.683,-557.049 164.459,-557.148 166.216,-557.295 167.948,-557.491 169.648,-557.735 171.308,-558.027 172.923,-558.364 174.485,-558.748 175.989,-559.176 177.429,-559.647 178.8,-560.161 180.098,-560.715 181.317,-561.308 182.455,-561.939 183.507,-562.605 184.472,-563.306 185.346,-564.039 186.127,-564.801 186.815,-565.592 187.408,-566.408 187.906,-567.248 188.309,-568.109 188.617,-568.989 188.832,-569.886 188.956,-570.797 188.989,-571.719 188.934,-572.65 188.794,-573.587 188.571,-574.529 188.269,-575.471 187.89,-576.413 187.439,-577.35 186.918,-578.281 186.332,-579.203 185.685,-580.114 184.981,-581.011 184.223,-581.891 183.415,-582.752 182.561,-583.592 181.666,-584.408 180.732,-585.199 179.764,-585.961 178.764,-586.694 177.737,-587.395 176.684,-588.061 175.61,-588.692 174.516,-589.285 173.405,-589.839 172.28,-590.353 171.142,-590.824 169.994,-591.252 168.837,-591.636 167.672,-591.973 166.501,-592.265 165.325,-592.509 164.145,-592.705 162.963,-592.852 161.779,-592.951 160.593,-593 159.407,-593 158.221,-592.951 157.037,-592.852 155.855,-592.705 154.675,-592.509 153.499,-592.265 152.328,-591.973 151.163,-591.636 150.006,-591.252 148.858,-590.824 147.72,-590.353 146.595,-589.839 145.484,-589.285 144.39,-588.692 143.316,-588.061 142.263,-587.395 141.236,-586.694 140.236,-585.961 139.268,-585.199 138.334,-584.408 137.439,-583.592 136.585,-582.752 135.777,-581.891 135.019,-581.011 134.315,-580.114 133.668,-579.203 133.082,-578.281 132.561,-577.35 132.11,-576.413 131.731,-575.471 131.429,-574.529 131.206,-573.587 131.066,-572.65 131.011,-571.719 131.044,-570.797 131.168,-569.886 131.383,-568.989 131.691,-568.109 132.094,-567.248 132.592,-566.408 133.185,-565.592 133.873,-564.801 134.654,-564.039 135.528,-563.306 136.493,-562.605 137.545,-561.939 138.683,-561.308 139.902,-560.715 141.2,-560.161 142.571,-559.647 144.011,-559.176 145.515,-558.748 147.077,-558.364 148.692,-558.027 150.352,-557.735 152.052,-557.491 153.784,-557.295 155.541,-557.148 157.317,-557.049 159.105,-557 160.895,-557 162.683,-557.049"/>
<text text-anchor="middle" x="160" y="-571.3" font-family="Times New Roman,serif" font-size="14.00">start</text>
</a>
</g>
</g>
<!-- cluster_cluster_cluster_&#45;2202121249019829706&#45;8986526737437215088&#45;240294359443136749&#45;3431188338771875485 -->
<g id="node10" class="node"><title>cluster_cluster_cluster_&#45;2202121249019829706&#45;8986526737437215088&#45;240294359443136749&#45;3431188338771875485</title>
<g id="a_node10"><a xlink:title="error_settings">
<path fill="cyan" stroke="black" d="M241.5,-215C241.5,-215 168.5,-215 168.5,-215 162.5,-215 156.5,-209 156.5,-203 156.5,-203 156.5,-179 156.5,-179 156.5,-173 162.5,-167 168.5,-167 168.5,-167 241.5,-167 241.5,-167 247.5,-167 253.5,-173 253.5,-179 253.5,-179 253.5,-203 253.5,-203 253.5,-209 247.5,-215 241.5,-215"/>
<text text-anchor="start" x="167" y="-197.8" font-family="Times New Roman,serif" font-size="14.00">error_settings</text>
<polygon fill="none" stroke="black" points="165,-171 165,-192 221,-192 221,-171 165,-171"/>
<text text-anchor="start" x="172" y="-177.8" font-family="Times New Roman,serif" font-size="14.00">default=</text>
<polygon fill="none" stroke="black" points="221,-171 221,-192 246,-192 246,-171 221,-171"/>
<text text-anchor="start" x="224" y="-177.8" font-family="Times New Roman,serif" font-size="14.00">{}</text>
</a>
</g>
</g>
<!-- cluster_cluster_cluster_&#45;2202121249019829706&#45;8986526737437215088&#45;24029435944313674977532400&#45;&gt;cluster_cluster_cluster_&#45;2202121249019829706&#45;8986526737437215088&#45;240294359443136749&#45;3431188338771875485 -->
<g id="edge13" class="edge"><title>cluster_cluster_cluster_&#45;2202121249019829706&#45;8986526737437215088&#45;24029435944313674977532400&#45;&gt;cluster_cluster_cluster_&#45;2202121249019829706&#45;8986526737437215088&#45;240294359443136749&#45;3431188338771875485</title>
<path fill="none" stroke="black" d="M167,-557.249C167,-557.249 167,-225.202 167,-225.202"/>
<polygon fill="black" stroke="black" points="170.5,-225.202 167,-215.202 163.5,-225.202 170.5,-225.202"/>
<polygon fill="none" stroke="black" points="104.5,-369.725 104.5,-390.725 154.5,-390.725 154.5,-369.725 104.5,-369.725"/>
<text text-anchor="start" x="107.5" y="-376.525" font-family="Times New Roman,serif" font-size="14.00">inp_id=</text>
<polygon fill="none" stroke="black" points="154.5,-369.725 154.5,-390.725 167.5,-390.725 167.5,-369.725 154.5,-369.725"/>
<text text-anchor="start" x="157.5" y="-376.525" font-family="Times New Roman,serif" font-size="14.00">0</text>
</g>
<!-- cluster_cluster_cluster_&#45;2202121249019829706&#45;8986526737437215088&#45;2402943594431367494712647501736754553 -->
<g id="node15" class="node"><title>cluster_cluster_cluster_&#45;2202121249019829706&#45;8986526737437215088&#45;2402943594431367494712647501736754553</title>
<g id="a_node15"><a xlink:title="A sequence of data.">
<path fill="cyan" stroke="black" d="M119,-431C119,-431 83,-431 83,-431 77,-431 71,-425 71,-419 71,-419 71,-407 71,-407 71,-401 77,-395 83,-395 83,-395 119,-395 119,-395 125,-395 131,-401 131,-407 131,-407 131,-419 131,-419 131,-425 125,-431 119,-431"/>
<text text-anchor="start" x="81.5" y="-408.8" font-family="Times New Roman,serif" font-size="14.00">wltp_h</text>
</a>
</g>
</g>
<!-- cluster_cluster_cluster_&#45;2202121249019829706&#45;8986526737437215088&#45;24029435944313674977532400&#45;&gt;cluster_cluster_cluster_&#45;2202121249019829706&#45;8986526737437215088&#45;2402943594431367494712647501736754553 -->
<g id="edge14" class="edge"><title>cluster_cluster_cluster_&#45;2202121249019829706&#45;8986526737437215088&#45;24029435944313674977532400&#45;&gt;cluster_cluster_cluster_&#45;2202121249019829706&#45;8986526737437215088&#45;2402943594431367494712647501736754553</title>
<path fill="none" stroke="black" d="M147.25,-558.273C147.25,-516.883 147.25,-413 147.25,-413 147.25,-413 141.074,-413 141.074,-413"/>
<polygon fill="black" stroke="black" points="141.074,-409.5 131.074,-413 141.074,-416.5 141.074,-409.5"/>
<polygon fill="none" stroke="black" points="84.75,-482.049 84.75,-503.049 134.75,-503.049 134.75,-482.049 84.75,-482.049"/>
<text text-anchor="start" x="87.75" y="-488.849" font-family="Times New Roman,serif" font-size="14.00">inp_id=</text>
<polygon fill="none" stroke="black" points="134.75,-482.049 134.75,-503.049 147.75,-503.049 147.75,-482.049 134.75,-482.049"/>
<text text-anchor="start" x="137.75" y="-488.849" font-family="Times New Roman,serif" font-size="14.00">2</text>
</g>
<!-- cluster_cluster_cluster_&#45;2202121249019829706&#45;8986526737437215088&#45;240294359443136749&#45;4779657526738643707 -->
<g id="node16" class="node"><title>cluster_cluster_cluster_&#45;2202121249019829706&#45;8986526737437215088&#45;240294359443136749&#45;4779657526738643707</title>
<g id="a_node16"><a xlink:title="A sequence of data.">
<path fill="cyan" stroke="black" d="M478,-509C478,-509 446,-509 446,-509 440,-509 434,-503 434,-497 434,-497 434,-485 434,-485 434,-479 440,-473 446,-473 446,-473 478,-473 478,-473 484,-473 490,-479 490,-485 490,-485 490,-497 490,-497 490,-503 484,-509 478,-509"/>
<text text-anchor="start" x="444.5" y="-486.8" font-family="Times New Roman,serif" font-size="14.00">wltp_l</text>
</a>
</g>
</g>
<!-- cluster_cluster_cluster_&#45;2202121249019829706&#45;8986526737437215088&#45;24029435944313674977532400&#45;&gt;cluster_cluster_cluster_&#45;2202121249019829706&#45;8986526737437215088&#45;240294359443136749&#45;4779657526738643707 -->
<g id="edge15" class="edge"><title>cluster_cluster_cluster_&#45;2202121249019829706&#45;8986526737437215088&#45;24029435944313674977532400&#45;&gt;cluster_cluster_cluster_&#45;2202121249019829706&#45;8986526737437215088&#45;240294359443136749&#45;4779657526738643707</title>
<path fill="none" stroke="black" d="M177.5,-559.361C177.5,-547.42 177.5,-533 177.5,-533 177.5,-533 462,-533 462,-533 462,-533 462,-519.056 462,-519.056"/>
<polygon fill="black" stroke="black" points="465.5,-519.055 462,-509.056 458.5,-519.056 465.5,-519.055"/>
<polygon fill="none" stroke="black" points="314.042,-532.5 314.042,-553.5 364.042,-553.5 364.042,-532.5 314.042,-532.5"/>
<text text-anchor="start" x="317.042" y="-539.3" font-family="Times New Roman,serif" font-size="14.00">inp_id=</text>
<polygon fill="none" stroke="black" points="364.042,-532.5 364.042,-553.5 377.042,-553.5 377.042,-532.5 364.042,-532.5"/>
<text text-anchor="start" x="367.042" y="-539.3" font-family="Times New Roman,serif" font-size="14.00">1</text>
</g>
<!-- cluster_cluster_cluster_&#45;2202121249019829706&#45;8986526737437215088&#45;240294359443136749&#45;2181095411792409824 -->
<g id="node2" class="node"><title>cluster_cluster_cluster_&#45;2202121249019829706&#45;8986526737437215088&#45;240294359443136749&#45;2181095411792409824</title>
<g id="a_node2"><a xlink:title="A sequence of data.">
<path fill="cyan" stroke="black" d="M357,-359C357,-359 257,-359 257,-359 251,-359 245,-353 245,-347 245,-347 245,-335 245,-335 245,-329 251,-323 257,-323 257,-323 357,-323 357,-323 363,-323 369,-329 369,-335 369,-335 369,-347 369,-347 369,-353 363,-359 357,-359"/>
<text text-anchor="start" x="255.5" y="-336.8" font-family="Times New Roman,serif" font-size="14.00">calibrated_models</text>
</a>
</g>
</g>
<!-- cluster_cluster_cluster_&#45;2202121249019829706&#45;8986526737437215088&#45;240294359443136749&#45;7067757294929678007 -->
<g id="node3" class="node"><title>cluster_cluster_cluster_&#45;2202121249019829706&#45;8986526737437215088&#45;240294359443136749&#45;7067757294929678007</title>
<g id="a_node3"><a xlink:href="./../alternator_model_selector/AM-wltp_h_errors/co2mpas.dispatcher.utils.dspmap_list.txt" xlink:title="Returns a new dict.">
<polygon fill="springgreen" stroke="black" points="132,-287 64,-287 64,-251 132,-251 132,-287"/>
<text text-anchor="start" x="74" y="-264.8" font-family="Times New Roman,serif" font-size="14.00">map_list</text>
</a>
</g>
</g>
<!-- cluster_cluster_cluster_&#45;2202121249019829706&#45;8986526737437215088&#45;240294359443136749&#45;2181095411792409824&#45;&gt;cluster_cluster_cluster_&#45;2202121249019829706&#45;8986526737437215088&#45;240294359443136749&#45;7067757294929678007 -->
<g id="edge1" class="edge"><title>cluster_cluster_cluster_&#45;2202121249019829706&#45;8986526737437215088&#45;240294359443136749&#45;2181095411792409824&#45;&gt;cluster_cluster_cluster_&#45;2202121249019829706&#45;8986526737437215088&#45;240294359443136749&#45;7067757294929678007</title>
<path fill="none" stroke="black" d="M249.25,-322.831C249.25,-301.502 249.25,-269 249.25,-269 249.25,-269 142.321,-269 142.321,-269"/>
<polygon fill="black" stroke="black" points="142.321,-265.5 132.321,-269 142.321,-272.5 142.321,-265.5"/>
</g>
<!-- cluster_cluster_cluster_&#45;2202121249019829706&#45;8986526737437215088&#45;2402943594431367494298277636058170859 -->
<g id="node4" class="node"><title>cluster_cluster_cluster_&#45;2202121249019829706&#45;8986526737437215088&#45;2402943594431367494298277636058170859</title>
<g id="a_node4"><a xlink:href="./../alternator_model_selector/AM-wltp_h_errors/co2mpas.dispatcher.utils.dspmap_list.txt" xlink:title="Returns a new dict.">
<polygon fill="springgreen" stroke="black" points="362,-287 270,-287 270,-251 362,-251 362,-287"/>
<text text-anchor="start" x="280.5" y="-264.8" font-family="Times New Roman,serif" font-size="14.00">map_list&lt;0&gt;</text>
</a>
</g>
</g>
<!-- cluster_cluster_cluster_&#45;2202121249019829706&#45;8986526737437215088&#45;240294359443136749&#45;2181095411792409824&#45;&gt;cluster_cluster_cluster_&#45;2202121249019829706&#45;8986526737437215088&#45;2402943594431367494298277636058170859 -->
<g id="edge2" class="edge"><title>cluster_cluster_cluster_&#45;2202121249019829706&#45;8986526737437215088&#45;240294359443136749&#45;2181095411792409824&#45;&gt;cluster_cluster_cluster_&#45;2202121249019829706&#45;8986526737437215088&#45;2402943594431367494298277636058170859</title>
<path fill="none" stroke="black" d="M316,-322.831C316,-322.831 316,-297.413 316,-297.413"/>
<polygon fill="black" stroke="black" points="319.5,-297.413 316,-287.413 312.5,-297.413 319.5,-297.413"/>
</g>
<!-- cluster_cluster_cluster_&#45;2202121249019829706&#45;8986526737437215088&#45;2402943594431367497702748476113788344 -->
<g id="node11" class="node"><title>cluster_cluster_cluster_&#45;2202121249019829706&#45;8986526737437215088&#45;2402943594431367497702748476113788344</title>
<g id="a_node11"><a xlink:title="A unique dict with new values.">
<path fill="cyan" stroke="black" d="M126,-209C126,-209 60,-209 60,-209 54,-209 48,-203 48,-197 48,-197 48,-185 48,-185 48,-179 54,-173 60,-173 60,-173 126,-173 126,-173 132,-173 138,-179 138,-185 138,-185 138,-197 138,-197 138,-203 132,-209 126,-209"/>
<text text-anchor="start" x="58" y="-186.8" font-family="Times New Roman,serif" font-size="14.00">input/wltp_h</text>
</a>
</g>
</g>
<!-- cluster_cluster_cluster_&#45;2202121249019829706&#45;8986526737437215088&#45;240294359443136749&#45;7067757294929678007&#45;&gt;cluster_cluster_cluster_&#45;2202121249019829706&#45;8986526737437215088&#45;2402943594431367497702748476113788344 -->
<g id="edge3" class="edge"><title>cluster_cluster_cluster_&#45;2202121249019829706&#45;8986526737437215088&#45;240294359443136749&#45;7067757294929678007&#45;&gt;cluster_cluster_cluster_&#45;2202121249019829706&#45;8986526737437215088&#45;2402943594431367497702748476113788344</title>
<path fill="none" stroke="black" d="M98,-250.909C98,-250.909 98,-219.263 98,-219.263"/>
<polygon fill="black" stroke="black" points="101.5,-219.263 98,-209.263 94.5001,-219.263 101.5,-219.263"/>
</g>
<!-- cluster_cluster_cluster_&#45;2202121249019829706&#45;8986526737437215088&#45;2402943594431367494919105944985796052 -->
<g id="node12" class="node"><title>cluster_cluster_cluster_&#45;2202121249019829706&#45;8986526737437215088&#45;2402943594431367494919105944985796052</title>
<g id="a_node12"><a xlink:title="A unique dict with new values.">
<path fill="cyan" stroke="black" d="M348,-209C348,-209 284,-209 284,-209 278,-209 272,-203 272,-197 272,-197 272,-185 272,-185 272,-179 278,-173 284,-173 284,-173 348,-173 348,-173 354,-173 360,-179 360,-185 360,-185 360,-197 360,-197 360,-203 354,-209 348,-209"/>
<text text-anchor="start" x="282.5" y="-186.8" font-family="Times New Roman,serif" font-size="14.00">input/wltp_l</text>
</a>
</g>
</g>
<!-- cluster_cluster_cluster_&#45;2202121249019829706&#45;8986526737437215088&#45;2402943594431367494298277636058170859&#45;&gt;cluster_cluster_cluster_&#45;2202121249019829706&#45;8986526737437215088&#45;2402943594431367494919105944985796052 -->
<g id="edge4" class="edge"><title>cluster_cluster_cluster_&#45;2202121249019829706&#45;8986526737437215088&#45;2402943594431367494298277636058170859&#45;&gt;cluster_cluster_cluster_&#45;2202121249019829706&#45;8986526737437215088&#45;2402943594431367494919105944985796052</title>
<path fill="none" stroke="black" d="M316,-250.909C316,-250.909 316,-219.263 316,-219.263"/>
<polygon fill="black" stroke="black" points="319.5,-219.263 316,-209.263 312.5,-219.263 319.5,-219.263"/>
</g>
<!-- cluster_cluster_cluster_&#45;2202121249019829706&#45;8986526737437215088&#45;2402943594431367498179938012264369457 -->
<g id="node5" class="node"><title>cluster_cluster_cluster_&#45;2202121249019829706&#45;8986526737437215088&#45;2402943594431367498179938012264369457</title>
<g id="a_node5"><a xlink:href="./ECSSM-wltp_l_errors/ECSSM-wltp_l_error_vs_wltp_h.gv.svg" xlink:title="Calculates the error of calibrated model of a reference.">
<polygon fill="yellow" stroke="black" points="190,-131 0,-131 0,-95 196,-95 196,-125 190,-131"/>
<polyline fill="none" stroke="black" points="190,-131 190,-125 "/>
<polyline fill="none" stroke="black" points="196,-125 190,-125 "/>
<text text-anchor="start" x="10.5" y="-108.8" font-family="Times New Roman,serif" font-size="14.00">ECSSM&#45;wltp_l error vs wltp_h</text>
</a>
</g>
</g>
<!-- cluster_cluster_cluster_&#45;2202121249019829706&#45;8986526737437215088&#45;240294359443136749&#45;2427563387242055365 -->
<g id="node8" class="node"><title>cluster_cluster_cluster_&#45;2202121249019829706&#45;8986526737437215088&#45;240294359443136749&#45;2427563387242055365</title>
<g id="a_node8"><a xlink:title="error/wltp_h">
<path fill="cyan" stroke="black" d="M131,-59C131,-59 65,-59 65,-59 59,-59 53,-53 53,-47 53,-47 53,-35 53,-35 53,-29 59,-23 65,-23 65,-23 131,-23 131,-23 137,-23 143,-29 143,-35 143,-35 143,-47 143,-47 143,-53 137,-59 131,-59"/>
<text text-anchor="start" x="63" y="-36.8" font-family="Times New Roman,serif" font-size="14.00">error/wltp_h</text>
</a>
</g>
</g>
<!-- cluster_cluster_cluster_&#45;2202121249019829706&#45;8986526737437215088&#45;2402943594431367498179938012264369457&#45;&gt;cluster_cluster_cluster_&#45;2202121249019829706&#45;8986526737437215088&#45;240294359443136749&#45;2427563387242055365 -->
<g id="edge5" class="edge"><title>cluster_cluster_cluster_&#45;2202121249019829706&#45;8986526737437215088&#45;2402943594431367498179938012264369457&#45;&gt;cluster_cluster_cluster_&#45;2202121249019829706&#45;8986526737437215088&#45;240294359443136749&#45;2427563387242055365</title>
<path fill="none" stroke="black" d="M98,-94.8314C98,-94.8314 98,-69.4133 98,-69.4133"/>
<polygon fill="black" stroke="black" points="101.5,-69.4132 98,-59.4133 94.5001,-69.4133 101.5,-69.4132"/>
</g>
<!-- cluster_cluster_cluster_&#45;2202121249019829706&#45;8986526737437215088&#45;2402943594431367493393847725060792168 -->
<g id="node6" class="node"><title>cluster_cluster_cluster_&#45;2202121249019829706&#45;8986526737437215088&#45;2402943594431367493393847725060792168</title>
<g id="a_node6"><a xlink:href="./ECSSM-wltp_l_errors/ECSSM-wltp_l_error_vs_wltp_l.gv.svg" xlink:title="Calculates the error of calibrated model of a reference.">
<polygon fill="yellow" stroke="black" points="403,-131 217,-131 217,-95 409,-95 409,-125 403,-131"/>
<polyline fill="none" stroke="black" points="403,-131 403,-125 "/>
<polyline fill="none" stroke="black" points="409,-125 403,-125 "/>
<text text-anchor="start" x="227" y="-108.8" font-family="Times New Roman,serif" font-size="14.00">ECSSM&#45;wltp_l error vs wltp_l</text>
</a>
</g>
</g>
<!-- cluster_cluster_cluster_&#45;2202121249019829706&#45;8986526737437215088&#45;240294359443136749&#45;7302022848986384642 -->
<g id="node9" class="node"><title>cluster_cluster_cluster_&#45;2202121249019829706&#45;8986526737437215088&#45;240294359443136749&#45;7302022848986384642</title>
<g id="a_node9"><a xlink:title="error/wltp_l">
<path fill="cyan" stroke="black" d="M344,-59C344,-59 282,-59 282,-59 276,-59 270,-53 270,-47 270,-47 270,-35 270,-35 270,-29 276,-23 282,-23 282,-23 344,-23 344,-23 350,-23 356,-29 356,-35 356,-35 356,-47 356,-47 356,-53 350,-59 344,-59"/>
<text text-anchor="start" x="280" y="-36.8" font-family="Times New Roman,serif" font-size="14.00">error/wltp_l</text>
</a>
</g>
</g>
<!-- cluster_cluster_cluster_&#45;2202121249019829706&#45;8986526737437215088&#45;2402943594431367493393847725060792168&#45;&gt;cluster_cluster_cluster_&#45;2202121249019829706&#45;8986526737437215088&#45;240294359443136749&#45;7302022848986384642 -->
<g id="edge6" class="edge"><title>cluster_cluster_cluster_&#45;2202121249019829706&#45;8986526737437215088&#45;2402943594431367493393847725060792168&#45;&gt;cluster_cluster_cluster_&#45;2202121249019829706&#45;8986526737437215088&#45;240294359443136749&#45;7302022848986384642</title>
<path fill="none" stroke="black" d="M313,-94.8314C313,-94.8314 313,-69.4133 313,-69.4133"/>
<polygon fill="black" stroke="black" points="316.5,-69.4132 313,-59.4133 309.5,-69.4133 316.5,-69.4132"/>
</g>
<!-- cluster_cluster_cluster_&#45;2202121249019829706&#45;8986526737437215088&#45;240294359443136749&#45;1177382896934224609 -->
<g id="node7" class="node"><title>cluster_cluster_cluster_&#45;2202121249019829706&#45;8986526737437215088&#45;240294359443136749&#45;1177382896934224609</title>
<g id="a_node7"><a xlink:title="data_in">
<path fill="cyan" stroke="black" d="M303.5,-599C303.5,-599 218.5,-599 218.5,-599 212.5,-599 206.5,-593 206.5,-587 206.5,-587 206.5,-563 206.5,-563 206.5,-557 212.5,-551 218.5,-551 218.5,-551 303.5,-551 303.5,-551 309.5,-551 315.5,-557 315.5,-563 315.5,-563 315.5,-587 315.5,-587 315.5,-593 309.5,-599 303.5,-599"/>
<text text-anchor="start" x="241" y="-581.8" font-family="Times New Roman,serif" font-size="14.00">data_in</text>
<polygon fill="none" stroke="black" points="215,-555 215,-576 267,-576 267,-555 215,-555"/>
<text text-anchor="start" x="218" y="-561.8" font-family="Times New Roman,serif" font-size="14.00">default=</text>
<polygon fill="none" stroke="black" points="267,-555 267,-576 308,-576 308,-555 267,-555"/>
<text text-anchor="start" x="270" y="-561.8" font-family="Times New Roman,serif" font-size="14.00">wltp_l</text>
</a>
</g>
</g>
<!-- cluster_cluster_cluster_&#45;2202121249019829706&#45;8986526737437215088&#45;240294359443136749&#45;3431188338771875485&#45;&gt;cluster_cluster_cluster_&#45;2202121249019829706&#45;8986526737437215088&#45;2402943594431367498179938012264369457 -->
<g id="edge7" class="edge"><title>cluster_cluster_cluster_&#45;2202121249019829706&#45;8986526737437215088&#45;240294359443136749&#45;3431188338771875485&#45;&gt;cluster_cluster_cluster_&#45;2202121249019829706&#45;8986526737437215088&#45;2402943594431367498179938012264369457</title>
<path fill="none" stroke="black" d="M176.25,-166.748C176.25,-166.748 176.25,-141.288 176.25,-141.288"/>
<polygon fill="black" stroke="black" points="179.75,-141.287 176.25,-131.288 172.75,-141.288 179.75,-141.287"/>
</g>
<!-- cluster_cluster_cluster_&#45;2202121249019829706&#45;8986526737437215088&#45;240294359443136749&#45;3431188338771875485&#45;&gt;cluster_cluster_cluster_&#45;2202121249019829706&#45;8986526737437215088&#45;2402943594431367493393847725060792168 -->
<g id="edge8" class="edge"><title>cluster_cluster_cluster_&#45;2202121249019829706&#45;8986526737437215088&#45;240294359443136749&#45;3431188338771875485&#45;&gt;cluster_cluster_cluster_&#45;2202121249019829706&#45;8986526737437215088&#45;2402943594431367493393847725060792168</title>
<path fill="none" stroke="black" d="M235.25,-166.748C235.25,-166.748 235.25,-141.288 235.25,-141.288"/>
<polygon fill="black" stroke="black" points="238.75,-141.287 235.25,-131.288 231.75,-141.288 238.75,-141.287"/>
</g>
<!-- cluster_cluster_cluster_&#45;2202121249019829706&#45;8986526737437215088&#45;2402943594431367497702748476113788344&#45;&gt;cluster_cluster_cluster_&#45;2202121249019829706&#45;8986526737437215088&#45;2402943594431367498179938012264369457 -->
<g id="edge9" class="edge"><title>cluster_cluster_cluster_&#45;2202121249019829706&#45;8986526737437215088&#45;2402943594431367497702748476113788344&#45;&gt;cluster_cluster_cluster_&#45;2202121249019829706&#45;8986526737437215088&#45;2402943594431367498179938012264369457</title>
<path fill="none" stroke="black" d="M93,-172.909C93,-172.909 93,-141.263 93,-141.263"/>
<polygon fill="black" stroke="black" points="96.5001,-141.263 93,-131.263 89.5001,-141.263 96.5001,-141.263"/>
</g>
<!-- cluster_cluster_cluster_&#45;2202121249019829706&#45;8986526737437215088&#45;2402943594431367494919105944985796052&#45;&gt;cluster_cluster_cluster_&#45;2202121249019829706&#45;8986526737437215088&#45;2402943594431367493393847725060792168 -->
<g id="edge10" class="edge"><title>cluster_cluster_cluster_&#45;2202121249019829706&#45;8986526737437215088&#45;2402943594431367494919105944985796052&#45;&gt;cluster_cluster_cluster_&#45;2202121249019829706&#45;8986526737437215088&#45;2402943594431367493393847725060792168</title>
<path fill="none" stroke="black" d="M316,-172.909C316,-172.909 316,-141.263 316,-141.263"/>
<polygon fill="black" stroke="black" points="319.5,-141.263 316,-131.263 312.5,-141.263 319.5,-141.263"/>
</g>
<!-- cluster_cluster_cluster_&#45;2202121249019829706&#45;8986526737437215088&#45;240294359443136749&#45;3274255707223734200 -->
<g id="node13" class="node"><title>cluster_cluster_cluster_&#45;2202121249019829706&#45;8986526737437215088&#45;240294359443136749&#45;3274255707223734200</title>
<g id="a_node13"><a xlink:title="Keys to select.">
<path fill="cyan" stroke="black" d="M404,-515C404,-515 200,-515 200,-515 194,-515 188,-509 188,-503 188,-503 188,-479 188,-479 188,-473 194,-467 200,-467 200,-467 404,-467 404,-467 410,-467 416,-473 416,-479 416,-479 416,-503 416,-503 416,-509 410,-515 404,-515"/>
<text text-anchor="start" x="281.5" y="-497.8" font-family="Times New Roman,serif" font-size="14.00">models</text>
<polygon fill="none" stroke="black" points="196,-471 196,-492 248,-492 248,-471 196,-471"/>
<text text-anchor="start" x="199" y="-477.8" font-family="Times New Roman,serif" font-size="14.00">default=</text>
<polygon fill="none" stroke="black" points="248,-471 248,-492 408,-492 408,-471 248,-471"/>
<text text-anchor="start" x="251" y="-477.8" font-family="Times New Roman,serif" font-size="14.00">[&#39;cold_start_speed_model&#39;]</text>
</a>
</g>
</g>
<!-- cluster_cluster_cluster_&#45;2202121249019829706&#45;8986526737437215088&#45;240294359443136749&#45;8800720961443810657 -->
<g id="node14" class="node"><title>cluster_cluster_cluster_&#45;2202121249019829706&#45;8986526737437215088&#45;240294359443136749&#45;8800720961443810657</title>
<g id="a_node14"><a xlink:href="./../alternator_model_selector/AM-wltp_h_errors/AM-wltp_h_error_vs_wltp_h/select_inputs0.txt" xlink:title="Selects the chosen dictionary keys from the given dictionary.">
<polygon fill="springgreen" stroke="black" points="357,-431 257,-431 257,-395 357,-395 357,-431"/>
<text text-anchor="start" x="267" y="-408.8" font-family="Times New Roman,serif" font-size="14.00">select_models</text>
</a>
</g>
</g>
<!-- cluster_cluster_cluster_&#45;2202121249019829706&#45;8986526737437215088&#45;240294359443136749&#45;3274255707223734200&#45;&gt;cluster_cluster_cluster_&#45;2202121249019829706&#45;8986526737437215088&#45;240294359443136749&#45;8800720961443810657 -->
<g id="edge11" class="edge"><title>cluster_cluster_cluster_&#45;2202121249019829706&#45;8986526737437215088&#45;240294359443136749&#45;3274255707223734200&#45;&gt;cluster_cluster_cluster_&#45;2202121249019829706&#45;8986526737437215088&#45;240294359443136749&#45;8800720961443810657</title>
<path fill="none" stroke="black" d="M307,-466.748C307,-466.748 307,-441.288 307,-441.288"/>
<polygon fill="black" stroke="black" points="310.5,-441.287 307,-431.288 303.5,-441.288 310.5,-441.287"/>
</g>
<!-- cluster_cluster_cluster_&#45;2202121249019829706&#45;8986526737437215088&#45;240294359443136749&#45;8800720961443810657&#45;&gt;cluster_cluster_cluster_&#45;2202121249019829706&#45;8986526737437215088&#45;240294359443136749&#45;2181095411792409824 -->
<g id="edge12" class="edge"><title>cluster_cluster_cluster_&#45;2202121249019829706&#45;8986526737437215088&#45;240294359443136749&#45;8800720961443810657&#45;&gt;cluster_cluster_cluster_&#45;2202121249019829706&#45;8986526737437215088&#45;240294359443136749&#45;2181095411792409824</title>
<path fill="none" stroke="black" d="M307,-394.831C307,-394.831 307,-369.413 307,-369.413"/>
<polygon fill="black" stroke="black" points="310.5,-369.413 307,-359.413 303.5,-369.413 310.5,-369.413"/>
</g>
<!-- cluster_cluster_cluster_&#45;2202121249019829706&#45;8986526737437215088&#45;2402943594431367494712647501736754553&#45;&gt;cluster_cluster_cluster_&#45;2202121249019829706&#45;8986526737437215088&#45;240294359443136749&#45;7067757294929678007 -->
<g id="edge16" class="edge"><title>cluster_cluster_cluster_&#45;2202121249019829706&#45;8986526737437215088&#45;2402943594431367494712647501736754553&#45;&gt;cluster_cluster_cluster_&#45;2202121249019829706&#45;8986526737437215088&#45;240294359443136749&#45;7067757294929678007</title>
<path fill="none" stroke="black" d="M101,-394.762C101,-394.762 101,-297.09 101,-297.09"/>
<polygon fill="black" stroke="black" points="104.5,-297.09 101,-287.09 97.5001,-297.09 104.5,-297.09"/>
</g>
<!-- cluster_cluster_cluster_&#45;2202121249019829706&#45;8986526737437215088&#45;240294359443136749&#45;4779657526738643707&#45;&gt;cluster_cluster_cluster_&#45;2202121249019829706&#45;8986526737437215088&#45;2402943594431367494298277636058170859 -->
<g id="edge17" class="edge"><title>cluster_cluster_cluster_&#45;2202121249019829706&#45;8986526737437215088&#45;240294359443136749&#45;4779657526738643707&#45;&gt;cluster_cluster_cluster_&#45;2202121249019829706&#45;8986526737437215088&#45;2402943594431367494298277636058170859</title>
<path fill="none" stroke="black" d="M471.333,-472.833C471.333,-419.813 471.333,-269 471.333,-269 471.333,-269 372.185,-269 372.185,-269"/>
<polygon fill="black" stroke="black" points="372.185,-265.5 362.185,-269 372.185,-272.5 372.185,-265.5"/>
</g>
<!-- cluster_cluster_cluster_&#45;2202121249019829706&#45;8986526737437215088&#45;240294359443136749&#45;4779657526738643707&#45;&gt;cluster_cluster_cluster_&#45;2202121249019829706&#45;8986526737437215088&#45;240294359443136749&#45;8800720961443810657 -->
<g id="edge18" class="edge"><title>cluster_cluster_cluster_&#45;2202121249019829706&#45;8986526737437215088&#45;240294359443136749&#45;4779657526738643707&#45;&gt;cluster_cluster_cluster_&#45;2202121249019829706&#45;8986526737437215088&#45;240294359443136749&#45;8800720961443810657</title>
<path fill="none" stroke="black" d="M452.667,-472.909C452.667,-449.867 452.667,-413 452.667,-413 452.667,-413 367.13,-413 367.13,-413"/>
<polygon fill="black" stroke="black" points="367.13,-409.5 357.13,-413 367.13,-416.5 367.13,-409.5"/>
</g>
</g>
</svg>
