<?xml version="1.0" encoding="UTF-8" standalone="no"?>
<!DOCTYPE svg PUBLIC "-//W3C//DTD SVG 1.1//EN"
 "http://www.w3.org/Graphics/SVG/1.1/DTD/svg11.dtd">
<!-- Generated by graphviz version 2.38.0 (20140413.2041)
 -->
<!-- Title: cluster_ECSSM&#45;wltp_h errors Pages: 1 -->
<svg width="513pt" height="607pt"
 viewBox="0.00 0.00 513.00 607.00" xmlns="http://www.w3.org/2000/svg" xmlns:xlink="http://www.w3.org/1999/xlink">
<g id="graph0" class="graph" transform="scale(1 1) rotate(0) translate(4 603)">
<title>cluster_ECSSM&#45;wltp_h errors</title>
<polygon fill="white" stroke="none" points="-4,4 -4,-603 509,-603 509,4 -4,4"/>
<text text-anchor="start" x="189" y="-7.8" font-family="Times New Roman,serif" font-size="14.00">ECSSM&#45;wltp_h errors</text>
<!-- cluster_cluster_cluster_&#45;2202121249019829706&#45;8986526737437215088826397654880630340077532400 -->
<g id="node1" class="node"><title>cluster_cluster_cluster_&#45;2202121249019829706&#45;8986526737437215088826397654880630340077532400</title>
<g id="a_node1"><a xlink:title="start">
<polygon fill="red" stroke="black" points="173.683,-557.049 175.459,-557.148 177.216,-557.295 178.948,-557.491 180.648,-557.735 182.308,-558.027 183.923,-558.364 185.485,-558.748 186.989,-559.176 188.429,-559.647 189.8,-560.161 191.098,-560.715 192.317,-561.308 193.455,-561.939 194.507,-562.605 195.472,-563.306 196.346,-564.039 197.127,-564.801 197.815,-565.592 198.408,-566.408 198.906,-567.248 199.309,-568.109 199.617,-568.989 199.832,-569.886 199.956,-570.797 199.989,-571.719 199.934,-572.65 199.794,-573.587 199.571,-574.529 199.269,-575.471 198.89,-576.413 198.439,-577.35 197.918,-578.281 197.332,-579.203 196.685,-580.114 195.981,-581.011 195.223,-581.891 194.415,-582.752 193.561,-583.592 192.666,-584.408 191.732,-585.199 190.764,-585.961 189.764,-586.694 188.737,-587.395 187.684,-588.061 186.61,-588.692 185.516,-589.285 184.405,-589.839 183.28,-590.353 182.142,-590.824 180.994,-591.252 179.837,-591.636 178.672,-591.973 177.501,-592.265 176.325,-592.509 175.145,-592.705 173.963,-592.852 172.779,-592.951 171.593,-593 170.407,-593 169.221,-592.951 168.037,-592.852 166.855,-592.705 165.675,-592.509 164.499,-592.265 163.328,-591.973 162.163,-591.636 161.006,-591.252 159.858,-590.824 158.72,-590.353 157.595,-589.839 156.484,-589.285 155.39,-588.692 154.316,-588.061 153.263,-587.395 152.236,-586.694 151.236,-585.961 150.268,-585.199 149.334,-584.408 148.439,-583.592 147.585,-582.752 146.777,-581.891 146.019,-581.011 145.315,-580.114 144.668,-579.203 144.082,-578.281 143.561,-577.35 143.11,-576.413 142.731,-575.471 142.429,-574.529 142.206,-573.587 142.066,-572.65 142.011,-571.719 142.044,-570.797 142.168,-569.886 142.383,-568.989 142.691,-568.109 143.094,-567.248 143.592,-566.408 144.185,-565.592 144.873,-564.801 145.654,-564.039 146.528,-563.306 147.493,-562.605 148.545,-561.939 149.683,-561.308 150.902,-560.715 152.2,-560.161 153.571,-559.647 155.011,-559.176 156.515,-558.748 158.077,-558.364 159.692,-558.027 161.352,-557.735 163.052,-557.491 164.784,-557.295 166.541,-557.148 168.317,-557.049 170.105,-557 171.895,-557 173.683,-557.049"/>
<text text-anchor="middle" x="171" y="-571.3" font-family="Times New Roman,serif" font-size="14.00">start</text>
</a>
</g>
</g>
<!-- cluster_cluster_cluster_&#45;2202121249019829706&#45;89865267374372150888263976548806303400&#45;3431188338771875485 -->
<g id="node10" class="node"><title>cluster_cluster_cluster_&#45;2202121249019829706&#45;89865267374372150888263976548806303400&#45;3431188338771875485</title>
<g id="a_node10"><a xlink:title="error_settings">
<path fill="cyan" stroke="black" d="M242.5,-215C242.5,-215 169.5,-215 169.5,-215 163.5,-215 157.5,-209 157.5,-203 157.5,-203 157.5,-179 157.5,-179 157.5,-173 163.5,-167 169.5,-167 169.5,-167 242.5,-167 242.5,-167 248.5,-167 254.5,-173 254.5,-179 254.5,-179 254.5,-203 254.5,-203 254.5,-209 248.5,-215 242.5,-215"/>
<text text-anchor="start" x="168" y="-197.8" font-family="Times New Roman,serif" font-size="14.00">error_settings</text>
<polygon fill="none" stroke="black" points="166,-171 166,-192 222,-192 222,-171 166,-171"/>
<text text-anchor="start" x="173" y="-177.8" font-family="Times New Roman,serif" font-size="14.00">default=</text>
<polygon fill="none" stroke="black" points="222,-171 222,-192 247,-192 247,-171 222,-171"/>
<text text-anchor="start" x="225" y="-177.8" font-family="Times New Roman,serif" font-size="14.00">{}</text>
</a>
</g>
</g>
<!-- cluster_cluster_cluster_&#45;2202121249019829706&#45;8986526737437215088826397654880630340077532400&#45;&gt;cluster_cluster_cluster_&#45;2202121249019829706&#45;89865267374372150888263976548806303400&#45;3431188338771875485 -->
<g id="edge13" class="edge"><title>cluster_cluster_cluster_&#45;2202121249019829706&#45;8986526737437215088826397654880630340077532400&#45;&gt;cluster_cluster_cluster_&#45;2202121249019829706&#45;89865267374372150888263976548806303400&#45;3431188338771875485</title>
<path fill="none" stroke="black" d="M171.333,-556.994C171.333,-556.994 171.333,-225.15 171.333,-225.15"/>
<polygon fill="black" stroke="black" points="174.833,-225.15 171.333,-215.15 167.833,-225.15 174.833,-225.15"/>
<polygon fill="none" stroke="black" points="108.833,-369.572 108.833,-390.572 158.833,-390.572 158.833,-369.572 108.833,-369.572"/>
<text text-anchor="start" x="111.833" y="-376.372" font-family="Times New Roman,serif" font-size="14.00">inp_id=</text>
<polygon fill="none" stroke="black" points="158.833,-369.572 158.833,-390.572 171.833,-390.572 171.833,-369.572 158.833,-369.572"/>
<text text-anchor="start" x="161.833" y="-376.372" font-family="Times New Roman,serif" font-size="14.00">0</text>
</g>
<!-- cluster_cluster_cluster_&#45;2202121249019829706&#45;898652673743721508882639765488063034004712647501736754553 -->
<g id="node15" class="node"><title>cluster_cluster_cluster_&#45;2202121249019829706&#45;898652673743721508882639765488063034004712647501736754553</title>
<g id="a_node15"><a xlink:title="A sequence of data.">
<path fill="cyan" stroke="black" d="M493,-509C493,-509 457,-509 457,-509 451,-509 445,-503 445,-497 445,-497 445,-485 445,-485 445,-479 451,-473 457,-473 457,-473 493,-473 493,-473 499,-473 505,-479 505,-485 505,-485 505,-497 505,-497 505,-503 499,-509 493,-509"/>
<text text-anchor="start" x="455.5" y="-486.8" font-family="Times New Roman,serif" font-size="14.00">wltp_h</text>
</a>
</g>
</g>
<!-- cluster_cluster_cluster_&#45;2202121249019829706&#45;8986526737437215088826397654880630340077532400&#45;&gt;cluster_cluster_cluster_&#45;2202121249019829706&#45;898652673743721508882639765488063034004712647501736754553 -->
<g id="edge14" class="edge"><title>cluster_cluster_cluster_&#45;2202121249019829706&#45;8986526737437215088826397654880630340077532400&#45;&gt;cluster_cluster_cluster_&#45;2202121249019829706&#45;898652673743721508882639765488063034004712647501736754553</title>
<path fill="none" stroke="black" d="M185.167,-558.4C185.167,-546.661 185.167,-533 185.167,-533 185.167,-533 475,-533 475,-533 475,-533 475,-519.056 475,-519.056"/>
<polygon fill="black" stroke="black" points="478.5,-519.055 475,-509.056 471.5,-519.056 478.5,-519.055"/>
<polygon fill="none" stroke="black" points="324.855,-532.5 324.855,-553.5 374.855,-553.5 374.855,-532.5 324.855,-532.5"/>
<text text-anchor="start" x="327.855" y="-539.3" font-family="Times New Roman,serif" font-size="14.00">inp_id=</text>
<polygon fill="none" stroke="black" points="374.855,-532.5 374.855,-553.5 387.855,-553.5 387.855,-532.5 374.855,-532.5"/>
<text text-anchor="start" x="377.855" y="-539.3" font-family="Times New Roman,serif" font-size="14.00">1</text>
</g>
<!-- cluster_cluster_cluster_&#45;2202121249019829706&#45;89865267374372150888263976548806303400&#45;4779657526738643707 -->
<g id="node16" class="node"><title>cluster_cluster_cluster_&#45;2202121249019829706&#45;89865267374372150888263976548806303400&#45;4779657526738643707</title>
<g id="a_node16"><a xlink:title="A sequence of data.">
<path fill="cyan" stroke="black" d="M127,-431C127,-431 95,-431 95,-431 89,-431 83,-425 83,-419 83,-419 83,-407 83,-407 83,-401 89,-395 95,-395 95,-395 127,-395 127,-395 133,-395 139,-401 139,-407 139,-407 139,-419 139,-419 139,-425 133,-431 127,-431"/>
<text text-anchor="start" x="93.5" y="-408.8" font-family="Times New Roman,serif" font-size="14.00">wltp_l</text>
</a>
</g>
</g>
<!-- cluster_cluster_cluster_&#45;2202121249019829706&#45;8986526737437215088826397654880630340077532400&#45;&gt;cluster_cluster_cluster_&#45;2202121249019829706&#45;89865267374372150888263976548806303400&#45;4779657526738643707 -->
<g id="edge15" class="edge"><title>cluster_cluster_cluster_&#45;2202121249019829706&#45;8986526737437215088826397654880630340077532400&#45;&gt;cluster_cluster_cluster_&#45;2202121249019829706&#45;89865267374372150888263976548806303400&#45;4779657526738643707</title>
<path fill="none" stroke="black" d="M150.25,-560.907C150.25,-521.493 150.25,-413 150.25,-413 150.25,-413 149.108,-413 149.108,-413"/>
<polygon fill="black" stroke="black" points="149.108,-409.5 139.108,-413 149.107,-416.5 149.108,-409.5"/>
<polygon fill="none" stroke="black" points="87.75,-485.882 87.75,-506.882 137.75,-506.882 137.75,-485.882 87.75,-485.882"/>
<text text-anchor="start" x="90.75" y="-492.682" font-family="Times New Roman,serif" font-size="14.00">inp_id=</text>
<polygon fill="none" stroke="black" points="137.75,-485.882 137.75,-506.882 150.75,-506.882 150.75,-485.882 137.75,-485.882"/>
<text text-anchor="start" x="140.75" y="-492.682" font-family="Times New Roman,serif" font-size="14.00">2</text>
</g>
<!-- cluster_cluster_cluster_&#45;2202121249019829706&#45;89865267374372150888263976548806303400&#45;2181095411792409824 -->
<g id="node2" class="node"><title>cluster_cluster_cluster_&#45;2202121249019829706&#45;89865267374372150888263976548806303400&#45;2181095411792409824</title>
<g id="a_node2"><a xlink:title="A sequence of data.">
<path fill="cyan" stroke="black" d="M365,-359C365,-359 265,-359 265,-359 259,-359 253,-353 253,-347 253,-347 253,-335 253,-335 253,-329 259,-323 265,-323 265,-323 365,-323 365,-323 371,-323 377,-329 377,-335 377,-335 377,-347 377,-347 377,-353 371,-359 365,-359"/>
<text text-anchor="start" x="263.5" y="-336.8" font-family="Times New Roman,serif" font-size="14.00">calibrated_models</text>
</a>
</g>
</g>
<!-- cluster_cluster_cluster_&#45;2202121249019829706&#45;89865267374372150888263976548806303400&#45;7067757294929678007 -->
<g id="node3" class="node"><title>cluster_cluster_cluster_&#45;2202121249019829706&#45;89865267374372150888263976548806303400&#45;7067757294929678007</title>
<g id="a_node3"><a xlink:href="./../alternator_model_selector/AM-wltp_h_errors/co2mpas.dispatcher.utils.dspmap_list.txt" xlink:title="Returns a new dict.">
<polygon fill="springgreen" stroke="black" points="352,-287 284,-287 284,-251 352,-251 352,-287"/>
<text text-anchor="start" x="294" y="-264.8" font-family="Times New Roman,serif" font-size="14.00">map_list</text>
</a>
</g>
</g>
<!-- cluster_cluster_cluster_&#45;2202121249019829706&#45;89865267374372150888263976548806303400&#45;2181095411792409824&#45;&gt;cluster_cluster_cluster_&#45;2202121249019829706&#45;89865267374372150888263976548806303400&#45;7067757294929678007 -->
<g id="edge1" class="edge"><title>cluster_cluster_cluster_&#45;2202121249019829706&#45;89865267374372150888263976548806303400&#45;2181095411792409824&#45;&gt;cluster_cluster_cluster_&#45;2202121249019829706&#45;89865267374372150888263976548806303400&#45;7067757294929678007</title>
<path fill="none" stroke="black" d="M318,-322.831C318,-322.831 318,-297.413 318,-297.413"/>
<polygon fill="black" stroke="black" points="321.5,-297.413 318,-287.413 314.5,-297.413 321.5,-297.413"/>
</g>
<!-- cluster_cluster_cluster_&#45;2202121249019829706&#45;898652673743721508882639765488063034004298277636058170859 -->
<g id="node4" class="node"><title>cluster_cluster_cluster_&#45;2202121249019829706&#45;898652673743721508882639765488063034004298277636058170859</title>
<g id="a_node4"><a xlink:href="./../alternator_model_selector/AM-wltp_h_errors/co2mpas.dispatcher.utils.dspmap_list.txt" xlink:title="Returns a new dict.">
<polygon fill="springgreen" stroke="black" points="143,-287 51,-287 51,-251 143,-251 143,-287"/>
<text text-anchor="start" x="61.5" y="-264.8" font-family="Times New Roman,serif" font-size="14.00">map_list&lt;0&gt;</text>
</a>
</g>
</g>
<!-- cluster_cluster_cluster_&#45;2202121249019829706&#45;89865267374372150888263976548806303400&#45;2181095411792409824&#45;&gt;cluster_cluster_cluster_&#45;2202121249019829706&#45;898652673743721508882639765488063034004298277636058170859 -->
<g id="edge2" class="edge"><title>cluster_cluster_cluster_&#45;2202121249019829706&#45;89865267374372150888263976548806303400&#45;2181095411792409824&#45;&gt;cluster_cluster_cluster_&#45;2202121249019829706&#45;898652673743721508882639765488063034004298277636058170859</title>
<path fill="none" stroke="black" d="M263.75,-322.831C263.75,-301.502 263.75,-269 263.75,-269 263.75,-269 153.007,-269 153.007,-269"/>
<polygon fill="black" stroke="black" points="153.007,-265.5 143.007,-269 153.007,-272.5 153.007,-265.5"/>
</g>
<!-- cluster_cluster_cluster_&#45;2202121249019829706&#45;898652673743721508882639765488063034007702748476113788344 -->
<g id="node11" class="node"><title>cluster_cluster_cluster_&#45;2202121249019829706&#45;898652673743721508882639765488063034007702748476113788344</title>
<g id="a_node11"><a xlink:title="A unique dict with new values.">
<path fill="cyan" stroke="black" d="M351,-209C351,-209 285,-209 285,-209 279,-209 273,-203 273,-197 273,-197 273,-185 273,-185 273,-179 279,-173 285,-173 285,-173 351,-173 351,-173 357,-173 363,-179 363,-185 363,-185 363,-197 363,-197 363,-203 357,-209 351,-209"/>
<text text-anchor="start" x="283" y="-186.8" font-family="Times New Roman,serif" font-size="14.00">input/wltp_h</text>
</a>
</g>
</g>
<!-- cluster_cluster_cluster_&#45;2202121249019829706&#45;89865267374372150888263976548806303400&#45;7067757294929678007&#45;&gt;cluster_cluster_cluster_&#45;2202121249019829706&#45;898652673743721508882639765488063034007702748476113788344 -->
<g id="edge3" class="edge"><title>cluster_cluster_cluster_&#45;2202121249019829706&#45;89865267374372150888263976548806303400&#45;7067757294929678007&#45;&gt;cluster_cluster_cluster_&#45;2202121249019829706&#45;898652673743721508882639765488063034007702748476113788344</title>
<path fill="none" stroke="black" d="M318,-250.909C318,-250.909 318,-219.263 318,-219.263"/>
<polygon fill="black" stroke="black" points="321.5,-219.263 318,-209.263 314.5,-219.263 321.5,-219.263"/>
</g>
<!-- cluster_cluster_cluster_&#45;2202121249019829706&#45;898652673743721508882639765488063034004919105944985796052 -->
<g id="node12" class="node"><title>cluster_cluster_cluster_&#45;2202121249019829706&#45;898652673743721508882639765488063034004919105944985796052</title>
<g id="a_node12"><a xlink:title="A unique dict with new values.">
<path fill="cyan" stroke="black" d="M127,-209C127,-209 63,-209 63,-209 57,-209 51,-203 51,-197 51,-197 51,-185 51,-185 51,-179 57,-173 63,-173 63,-173 127,-173 127,-173 133,-173 139,-179 139,-185 139,-185 139,-197 139,-197 139,-203 133,-209 127,-209"/>
<text text-anchor="start" x="61.5" y="-186.8" font-family="Times New Roman,serif" font-size="14.00">input/wltp_l</text>
</a>
</g>
</g>
<!-- cluster_cluster_cluster_&#45;2202121249019829706&#45;898652673743721508882639765488063034004298277636058170859&#45;&gt;cluster_cluster_cluster_&#45;2202121249019829706&#45;898652673743721508882639765488063034004919105944985796052 -->
<g id="edge4" class="edge"><title>cluster_cluster_cluster_&#45;2202121249019829706&#45;898652673743721508882639765488063034004298277636058170859&#45;&gt;cluster_cluster_cluster_&#45;2202121249019829706&#45;898652673743721508882639765488063034004919105944985796052</title>
<path fill="none" stroke="black" d="M95,-250.909C95,-250.909 95,-219.263 95,-219.263"/>
<polygon fill="black" stroke="black" points="98.5001,-219.263 95,-209.263 91.5001,-219.263 98.5001,-219.263"/>
</g>
<!-- cluster_cluster_cluster_&#45;2202121249019829706&#45;89865267374372150888263976548806303400&#45;2057012903943538926 -->
<g id="node5" class="node"><title>cluster_cluster_cluster_&#45;2202121249019829706&#45;89865267374372150888263976548806303400&#45;2057012903943538926</title>
<g id="a_node5"><a xlink:href="./ECSSM-wltp_h_errors/ECSSM-wltp_h_error_vs_wltp_h.gv.svg" xlink:title="Calculates the error of calibrated model of a reference.">
<polygon fill="yellow" stroke="black" points="410,-131 216,-131 216,-95 416,-95 416,-125 410,-131"/>
<polyline fill="none" stroke="black" points="410,-131 410,-125 "/>
<polyline fill="none" stroke="black" points="416,-125 410,-125 "/>
<text text-anchor="start" x="226.5" y="-108.8" font-family="Times New Roman,serif" font-size="14.00">ECSSM&#45;wltp_h error vs wltp_h</text>
</a>
</g>
</g>
<!-- cluster_cluster_cluster_&#45;2202121249019829706&#45;89865267374372150888263976548806303400&#45;2427563387242055365 -->
<g id="node8" class="node"><title>cluster_cluster_cluster_&#45;2202121249019829706&#45;89865267374372150888263976548806303400&#45;2427563387242055365</title>
<g id="a_node8"><a xlink:title="error/wltp_h">
<path fill="cyan" stroke="black" d="M349,-59C349,-59 283,-59 283,-59 277,-59 271,-53 271,-47 271,-47 271,-35 271,-35 271,-29 277,-23 283,-23 283,-23 349,-23 349,-23 355,-23 361,-29 361,-35 361,-35 361,-47 361,-47 361,-53 355,-59 349,-59"/>
<text text-anchor="start" x="281" y="-36.8" font-family="Times New Roman,serif" font-size="14.00">error/wltp_h</text>
</a>
</g>
</g>
<!-- cluster_cluster_cluster_&#45;2202121249019829706&#45;89865267374372150888263976548806303400&#45;2057012903943538926&#45;&gt;cluster_cluster_cluster_&#45;2202121249019829706&#45;89865267374372150888263976548806303400&#45;2427563387242055365 -->
<g id="edge5" class="edge"><title>cluster_cluster_cluster_&#45;2202121249019829706&#45;89865267374372150888263976548806303400&#45;2057012903943538926&#45;&gt;cluster_cluster_cluster_&#45;2202121249019829706&#45;89865267374372150888263976548806303400&#45;2427563387242055365</title>
<path fill="none" stroke="black" d="M316,-94.8314C316,-94.8314 316,-69.4133 316,-69.4133"/>
<polygon fill="black" stroke="black" points="319.5,-69.4132 316,-59.4133 312.5,-69.4133 319.5,-69.4132"/>
</g>
<!-- cluster_cluster_cluster_&#45;2202121249019829706&#45;898652673743721508882639765488063034006685184053803829034 -->
<g id="node6" class="node"><title>cluster_cluster_cluster_&#45;2202121249019829706&#45;898652673743721508882639765488063034006685184053803829034</title>
<g id="a_node6"><a xlink:href="./ECSSM-wltp_h_errors/ECSSM-wltp_h_error_vs_wltp_l.gv.svg" xlink:title="Calculates the error of calibrated model of a reference.">
<polygon fill="yellow" stroke="black" points="190,-131 0,-131 0,-95 196,-95 196,-125 190,-131"/>
<polyline fill="none" stroke="black" points="190,-131 190,-125 "/>
<polyline fill="none" stroke="black" points="196,-125 190,-125 "/>
<text text-anchor="start" x="10.5" y="-108.8" font-family="Times New Roman,serif" font-size="14.00">ECSSM&#45;wltp_h error vs wltp_l</text>
</a>
</g>
</g>
<!-- cluster_cluster_cluster_&#45;2202121249019829706&#45;89865267374372150888263976548806303400&#45;7302022848986384642 -->
<g id="node9" class="node"><title>cluster_cluster_cluster_&#45;2202121249019829706&#45;89865267374372150888263976548806303400&#45;7302022848986384642</title>
<g id="a_node9"><a xlink:title="error/wltp_l">
<path fill="cyan" stroke="black" d="M129,-59C129,-59 67,-59 67,-59 61,-59 55,-53 55,-47 55,-47 55,-35 55,-35 55,-29 61,-23 67,-23 67,-23 129,-23 129,-23 135,-23 141,-29 141,-35 141,-35 141,-47 141,-47 141,-53 135,-59 129,-59"/>
<text text-anchor="start" x="65" y="-36.8" font-family="Times New Roman,serif" font-size="14.00">error/wltp_l</text>
</a>
</g>
</g>
<!-- cluster_cluster_cluster_&#45;2202121249019829706&#45;898652673743721508882639765488063034006685184053803829034&#45;&gt;cluster_cluster_cluster_&#45;2202121249019829706&#45;89865267374372150888263976548806303400&#45;7302022848986384642 -->
<g id="edge6" class="edge"><title>cluster_cluster_cluster_&#45;2202121249019829706&#45;898652673743721508882639765488063034006685184053803829034&#45;&gt;cluster_cluster_cluster_&#45;2202121249019829706&#45;89865267374372150888263976548806303400&#45;7302022848986384642</title>
<path fill="none" stroke="black" d="M98,-94.8314C98,-94.8314 98,-69.4133 98,-69.4133"/>
<polygon fill="black" stroke="black" points="101.5,-69.4132 98,-59.4133 94.5001,-69.4133 101.5,-69.4132"/>
</g>
<!-- cluster_cluster_cluster_&#45;2202121249019829706&#45;89865267374372150888263976548806303400&#45;1177382896934224609 -->
<g id="node7" class="node"><title>cluster_cluster_cluster_&#45;2202121249019829706&#45;89865267374372150888263976548806303400&#45;1177382896934224609</title>
<g id="a_node7"><a xlink:title="data_in">
<path fill="cyan" stroke="black" d="M318.5,-599C318.5,-599 229.5,-599 229.5,-599 223.5,-599 217.5,-593 217.5,-587 217.5,-587 217.5,-563 217.5,-563 217.5,-557 223.5,-551 229.5,-551 229.5,-551 318.5,-551 318.5,-551 324.5,-551 330.5,-557 330.5,-563 330.5,-563 330.5,-587 330.5,-587 330.5,-593 324.5,-599 318.5,-599"/>
<text text-anchor="start" x="254" y="-581.8" font-family="Times New Roman,serif" font-size="14.00">data_in</text>
<polygon fill="none" stroke="black" points="226,-555 226,-576 278,-576 278,-555 226,-555"/>
<text text-anchor="start" x="229" y="-561.8" font-family="Times New Roman,serif" font-size="14.00">default=</text>
<polygon fill="none" stroke="black" points="278,-555 278,-576 323,-576 323,-555 278,-555"/>
<text text-anchor="start" x="281" y="-561.8" font-family="Times New Roman,serif" font-size="14.00">wltp_h</text>
</a>
</g>
</g>
<!-- cluster_cluster_cluster_&#45;2202121249019829706&#45;89865267374372150888263976548806303400&#45;3431188338771875485&#45;&gt;cluster_cluster_cluster_&#45;2202121249019829706&#45;89865267374372150888263976548806303400&#45;2057012903943538926 -->
<g id="edge7" class="edge"><title>cluster_cluster_cluster_&#45;2202121249019829706&#45;89865267374372150888263976548806303400&#45;3431188338771875485&#45;&gt;cluster_cluster_cluster_&#45;2202121249019829706&#45;89865267374372150888263976548806303400&#45;2057012903943538926</title>
<path fill="none" stroke="black" d="M235.25,-166.748C235.25,-166.748 235.25,-141.288 235.25,-141.288"/>
<polygon fill="black" stroke="black" points="238.75,-141.287 235.25,-131.288 231.75,-141.288 238.75,-141.287"/>
</g>
<!-- cluster_cluster_cluster_&#45;2202121249019829706&#45;89865267374372150888263976548806303400&#45;3431188338771875485&#45;&gt;cluster_cluster_cluster_&#45;2202121249019829706&#45;898652673743721508882639765488063034006685184053803829034 -->
<g id="edge8" class="edge"><title>cluster_cluster_cluster_&#45;2202121249019829706&#45;89865267374372150888263976548806303400&#45;3431188338771875485&#45;&gt;cluster_cluster_cluster_&#45;2202121249019829706&#45;898652673743721508882639765488063034006685184053803829034</title>
<path fill="none" stroke="black" d="M176.75,-166.748C176.75,-166.748 176.75,-141.288 176.75,-141.288"/>
<polygon fill="black" stroke="black" points="180.25,-141.287 176.75,-131.288 173.25,-141.288 180.25,-141.287"/>
</g>
<!-- cluster_cluster_cluster_&#45;2202121249019829706&#45;898652673743721508882639765488063034007702748476113788344&#45;&gt;cluster_cluster_cluster_&#45;2202121249019829706&#45;89865267374372150888263976548806303400&#45;2057012903943538926 -->
<g id="edge9" class="edge"><title>cluster_cluster_cluster_&#45;2202121249019829706&#45;898652673743721508882639765488063034007702748476113788344&#45;&gt;cluster_cluster_cluster_&#45;2202121249019829706&#45;89865267374372150888263976548806303400&#45;2057012903943538926</title>
<path fill="none" stroke="black" d="M318,-172.909C318,-172.909 318,-141.263 318,-141.263"/>
<polygon fill="black" stroke="black" points="321.5,-141.263 318,-131.263 314.5,-141.263 321.5,-141.263"/>
</g>
<!-- cluster_cluster_cluster_&#45;2202121249019829706&#45;898652673743721508882639765488063034004919105944985796052&#45;&gt;cluster_cluster_cluster_&#45;2202121249019829706&#45;898652673743721508882639765488063034006685184053803829034 -->
<g id="edge10" class="edge"><title>cluster_cluster_cluster_&#45;2202121249019829706&#45;898652673743721508882639765488063034004919105944985796052&#45;&gt;cluster_cluster_cluster_&#45;2202121249019829706&#45;898652673743721508882639765488063034006685184053803829034</title>
<path fill="none" stroke="black" d="M95,-172.909C95,-172.909 95,-141.263 95,-141.263"/>
<polygon fill="black" stroke="black" points="98.5001,-141.263 95,-131.263 91.5001,-141.263 98.5001,-141.263"/>
</g>
<!-- cluster_cluster_cluster_&#45;2202121249019829706&#45;89865267374372150888263976548806303400&#45;3274255707223734200 -->
<g id="node13" class="node"><title>cluster_cluster_cluster_&#45;2202121249019829706&#45;89865267374372150888263976548806303400&#45;3274255707223734200</title>
<g id="a_node13"><a xlink:title="Keys to select.">
<path fill="cyan" stroke="black" d="M415,-515C415,-515 211,-515 211,-515 205,-515 199,-509 199,-503 199,-503 199,-479 199,-479 199,-473 205,-467 211,-467 211,-467 415,-467 415,-467 421,-467 427,-473 427,-479 427,-479 427,-503 427,-503 427,-509 421,-515 415,-515"/>
<text text-anchor="start" x="292.5" y="-497.8" font-family="Times New Roman,serif" font-size="14.00">models</text>
<polygon fill="none" stroke="black" points="207,-471 207,-492 259,-492 259,-471 207,-471"/>
<text text-anchor="start" x="210" y="-477.8" font-family="Times New Roman,serif" font-size="14.00">default=</text>
<polygon fill="none" stroke="black" points="259,-471 259,-492 419,-492 419,-471 259,-471"/>
<text text-anchor="start" x="262" y="-477.8" font-family="Times New Roman,serif" font-size="14.00">[&#39;cold_start_speed_model&#39;]</text>
</a>
</g>
</g>
<!-- cluster_cluster_cluster_&#45;2202121249019829706&#45;89865267374372150888263976548806303400&#45;8800720961443810657 -->
<g id="node14" class="node"><title>cluster_cluster_cluster_&#45;2202121249019829706&#45;89865267374372150888263976548806303400&#45;8800720961443810657</title>
<g id="a_node14"><a xlink:href="./../alternator_model_selector/AM-wltp_h_errors/AM-wltp_h_error_vs_wltp_h/select_inputs0.txt" xlink:title="Selects the chosen dictionary keys from the given dictionary.">
<polygon fill="springgreen" stroke="black" points="365,-431 265,-431 265,-395 365,-395 365,-431"/>
<text text-anchor="start" x="275" y="-408.8" font-family="Times New Roman,serif" font-size="14.00">select_models</text>
</a>
</g>
</g>
<!-- cluster_cluster_cluster_&#45;2202121249019829706&#45;89865267374372150888263976548806303400&#45;3274255707223734200&#45;&gt;cluster_cluster_cluster_&#45;2202121249019829706&#45;89865267374372150888263976548806303400&#45;8800720961443810657 -->
<g id="edge11" class="edge"><title>cluster_cluster_cluster_&#45;2202121249019829706&#45;89865267374372150888263976548806303400&#45;3274255707223734200&#45;&gt;cluster_cluster_cluster_&#45;2202121249019829706&#45;89865267374372150888263976548806303400&#45;8800720961443810657</title>
<path fill="none" stroke="black" d="M315,-466.748C315,-466.748 315,-441.288 315,-441.288"/>
<polygon fill="black" stroke="black" points="318.5,-441.287 315,-431.288 311.5,-441.288 318.5,-441.287"/>
</g>
<!-- cluster_cluster_cluster_&#45;2202121249019829706&#45;89865267374372150888263976548806303400&#45;8800720961443810657&#45;&gt;cluster_cluster_cluster_&#45;2202121249019829706&#45;89865267374372150888263976548806303400&#45;2181095411792409824 -->
<g id="edge12" class="edge"><title>cluster_cluster_cluster_&#45;2202121249019829706&#45;89865267374372150888263976548806303400&#45;8800720961443810657&#45;&gt;cluster_cluster_cluster_&#45;2202121249019829706&#45;89865267374372150888263976548806303400&#45;2181095411792409824</title>
<path fill="none" stroke="black" d="M315,-394.831C315,-394.831 315,-369.413 315,-369.413"/>
<polygon fill="black" stroke="black" points="318.5,-369.413 315,-359.413 311.5,-369.413 318.5,-369.413"/>
</g>
<!-- cluster_cluster_cluster_&#45;2202121249019829706&#45;898652673743721508882639765488063034004712647501736754553&#45;&gt;cluster_cluster_cluster_&#45;2202121249019829706&#45;89865267374372150888263976548806303400&#45;7067757294929678007 -->
<g id="edge16" class="edge"><title>cluster_cluster_cluster_&#45;2202121249019829706&#45;898652673743721508882639765488063034004712647501736754553&#45;&gt;cluster_cluster_cluster_&#45;2202121249019829706&#45;89865267374372150888263976548806303400&#45;7067757294929678007</title>
<path fill="none" stroke="black" d="M485,-472.833C485,-419.813 485,-269 485,-269 485,-269 362.198,-269 362.198,-269"/>
<polygon fill="black" stroke="black" points="362.198,-265.5 352.198,-269 362.198,-272.5 362.198,-265.5"/>
</g>
<!-- cluster_cluster_cluster_&#45;2202121249019829706&#45;898652673743721508882639765488063034004712647501736754553&#45;&gt;cluster_cluster_cluster_&#45;2202121249019829706&#45;89865267374372150888263976548806303400&#45;8800720961443810657 -->
<g id="edge17" class="edge"><title>cluster_cluster_cluster_&#45;2202121249019829706&#45;898652673743721508882639765488063034004712647501736754553&#45;&gt;cluster_cluster_cluster_&#45;2202121249019829706&#45;89865267374372150888263976548806303400&#45;8800720961443810657</title>
<path fill="none" stroke="black" d="M465,-472.909C465,-449.867 465,-413 465,-413 465,-413 375.365,-413 375.365,-413"/>
<polygon fill="black" stroke="black" points="375.365,-409.5 365.365,-413 375.365,-416.5 375.365,-409.5"/>
</g>
<!-- cluster_cluster_cluster_&#45;2202121249019829706&#45;89865267374372150888263976548806303400&#45;4779657526738643707&#45;&gt;cluster_cluster_cluster_&#45;2202121249019829706&#45;898652673743721508882639765488063034004298277636058170859 -->
<g id="edge18" class="edge"><title>cluster_cluster_cluster_&#45;2202121249019829706&#45;89865267374372150888263976548806303400&#45;4779657526738643707&#45;&gt;cluster_cluster_cluster_&#45;2202121249019829706&#45;898652673743721508882639765488063034004298277636058170859</title>
<path fill="none" stroke="black" d="M111,-394.762C111,-394.762 111,-297.09 111,-297.09"/>
<polygon fill="black" stroke="black" points="114.5,-297.09 111,-287.09 107.5,-297.09 114.5,-297.09"/>
</g>
</g>
</svg>
