<?xml version="1.0" encoding="UTF-8" standalone="no"?>
<!DOCTYPE svg PUBLIC "-//W3C//DTD SVG 1.1//EN"
 "http://www.w3.org/Graphics/SVG/1.1/DTD/svg11.dtd">
<!-- Generated by graphviz version 2.38.0 (20140413.2041)
 -->
<!-- Title: cluster_clutch_torque_converter_model Pages: 1 -->
<svg width="429pt" height="235pt"
 viewBox="0.00 0.00 429.00 235.00" xmlns="http://www.w3.org/2000/svg" xmlns:xlink="http://www.w3.org/1999/xlink">
<g id="graph0" class="graph" transform="scale(1 1) rotate(0) translate(4 231)">
<title>cluster_clutch_torque_converter_model</title>
<polygon fill="white" stroke="none" points="-4,4 -4,-231 425,-231 425,4 -4,4"/>
<text text-anchor="start" x="120.5" y="-7.8" font-family="Times New Roman,serif" font-size="14.00">clutch_torque_converter_model</text>
<!-- cluster_cluster_cluster_cluster_cluster_cluster_&#45;220212124901982970656214335412117874644487423537040413414&#45;539432496793273069572473681055795821366339498771408040933519555527577189601 -->
<g id="node1" class="node"><title>cluster_cluster_cluster_cluster_cluster_cluster_&#45;220212124901982970656214335412117874644487423537040413414&#45;539432496793273069572473681055795821366339498771408040933519555527577189601</title>
<g id="a_node1"><a xlink:href="./../../../../clutch_torque_converter_model_selector/CTCM-wltp_h_errors/CTCM-wltp_h_error_vs_wltp_h/Clutch_and_torque-converter/co2mpas.model.physical.clutch_tcdefault_has_torque_converter.txt" xlink:title="Returns the default has torque converter value [&#45;].">
<polygon fill="springgreen" stroke="black" points="304.5,-143 116.5,-143 116.5,-107 304.5,-107 304.5,-143"/>
<text text-anchor="start" x="126.5" y="-120.8" font-family="Times New Roman,serif" font-size="14.00">default_has_torque_converter</text>
</a>
</g>
</g>
<!-- cluster_cluster_cluster_cluster_cluster_cluster_&#45;220212124901982970656214335412117874644487423537040413414&#45;53943249679327306957247368105579582136633949877140804093&#45;3597913885302119308 -->
<g id="node3" class="node"><title>cluster_cluster_cluster_cluster_cluster_cluster_&#45;220212124901982970656214335412117874644487423537040413414&#45;53943249679327306957247368105579582136633949877140804093&#45;3597913885302119308</title>
<g id="a_node3"><a xlink:title="Does the vehicle use torque converter? [&#45;]">
<path fill="cyan" stroke="black" d="M409,-71C409,-71 12,-71 12,-71 6,-71 0,-65 0,-59 0,-59 0,-35 0,-35 0,-29 6,-23 12,-23 12,-23 409,-23 409,-23 415,-23 421,-29 421,-35 421,-35 421,-59 421,-59 421,-65 415,-71 409,-71"/>
<text text-anchor="start" x="149.5" y="-53.8" font-family="Times New Roman,serif" font-size="14.00">has_torque_converter</text>
<polygon fill="none" stroke="black" points="8.5,-27 8.5,-48 102.5,-48 102.5,-27 8.5,-27"/>
<text text-anchor="start" x="11.5" y="-33.8" font-family="Times New Roman,serif" font-size="14.00">remote child 0=</text>
<polygon fill="none" stroke="black" points="102.5,-27 102.5,-48 413.5,-48 413.5,-27 102.5,-27"/>
<text text-anchor="start" x="105.5" y="-33.8" font-family="Times New Roman,serif" font-size="14.00">clutch_torque_converter_model:has_torque_converter</text>
</a>
</g>
</g>
<!-- cluster_cluster_cluster_cluster_cluster_cluster_&#45;220212124901982970656214335412117874644487423537040413414&#45;539432496793273069572473681055795821366339498771408040933519555527577189601&#45;&gt;cluster_cluster_cluster_cluster_cluster_cluster_&#45;220212124901982970656214335412117874644487423537040413414&#45;53943249679327306957247368105579582136633949877140804093&#45;3597913885302119308 -->
<g id="edge1" class="edge"><title>cluster_cluster_cluster_cluster_cluster_cluster_&#45;220212124901982970656214335412117874644487423537040413414&#45;539432496793273069572473681055795821366339498771408040933519555527577189601&#45;&gt;cluster_cluster_cluster_cluster_cluster_cluster_&#45;220212124901982970656214335412117874644487423537040413414&#45;53943249679327306957247368105579582136633949877140804093&#45;3597913885302119308</title>
<path fill="none" stroke="black" d="M210.5,-106.909C210.5,-106.909 210.5,-81.1988 210.5,-81.1988"/>
<polygon fill="black" stroke="black" points="214,-81.1988 210.5,-71.1988 207,-81.1988 214,-81.1988"/>
</g>
<!-- cluster_cluster_cluster_cluster_cluster_cluster_&#45;220212124901982970656214335412117874644487423537040413414&#45;53943249679327306957247368105579582136633949877140804093&#45;6215422529513533217 -->
<g id="node2" class="node"><title>cluster_cluster_cluster_cluster_cluster_cluster_&#45;220212124901982970656214335412117874644487423537040413414&#45;53943249679327306957247368105579582136633949877140804093&#45;6215422529513533217</title>
<g id="a_node2"><a xlink:title="Gear box type (manual or automatic or cvt).">
<path fill="cyan" stroke="black" d="M394,-227C394,-227 27,-227 27,-227 21,-227 15,-221 15,-215 15,-215 15,-191 15,-191 15,-185 21,-179 27,-179 27,-179 394,-179 394,-179 400,-179 406,-185 406,-191 406,-191 406,-215 406,-215 406,-221 400,-227 394,-227"/>
<text text-anchor="start" x="168.5" y="-209.8" font-family="Times New Roman,serif" font-size="14.00">gear_box_type</text>
<polygon fill="none" stroke="black" points="23.5,-183 23.5,-204 125.5,-204 125.5,-183 23.5,-183"/>
<text text-anchor="start" x="26.5" y="-189.8" font-family="Times New Roman,serif" font-size="14.00">remote parent 0=</text>
<polygon fill="none" stroke="black" points="125.5,-183 125.5,-204 398.5,-204 398.5,-183 125.5,-183"/>
<text text-anchor="start" x="128.5" y="-189.8" font-family="Times New Roman,serif" font-size="14.00">clutch_torque_converter_model:gear_box_type</text>
</a>
</g>
</g>
<!-- cluster_cluster_cluster_cluster_cluster_cluster_&#45;220212124901982970656214335412117874644487423537040413414&#45;53943249679327306957247368105579582136633949877140804093&#45;6215422529513533217&#45;&gt;cluster_cluster_cluster_cluster_cluster_cluster_&#45;220212124901982970656214335412117874644487423537040413414&#45;539432496793273069572473681055795821366339498771408040933519555527577189601 -->
<g id="edge2" class="edge"><title>cluster_cluster_cluster_cluster_cluster_cluster_&#45;220212124901982970656214335412117874644487423537040413414&#45;53943249679327306957247368105579582136633949877140804093&#45;6215422529513533217&#45;&gt;cluster_cluster_cluster_cluster_cluster_cluster_&#45;220212124901982970656214335412117874644487423537040413414&#45;539432496793273069572473681055795821366339498771408040933519555527577189601</title>
<path fill="none" stroke="black" d="M210.5,-178.748C210.5,-178.748 210.5,-153.288 210.5,-153.288"/>
<polygon fill="black" stroke="black" points="214,-153.287 210.5,-143.288 207,-153.288 214,-153.287"/>
</g>
</g>
</svg>
