<?xml version="1.0" encoding="UTF-8" standalone="no"?>
<!DOCTYPE svg PUBLIC "-//W3C//DTD SVG 1.1//EN"
 "http://www.w3.org/Graphics/SVG/1.1/DTD/svg11.dtd">
<!-- Generated by graphviz version 2.38.0 (20140413.2041)
 -->
<!-- Title: cluster_wheels_model Pages: 1 -->
<svg width="735pt" height="691pt"
 viewBox="0.00 0.00 735.00 691.00" xmlns="http://www.w3.org/2000/svg" xmlns:xlink="http://www.w3.org/1999/xlink">
<g id="graph0" class="graph" transform="scale(1 1) rotate(0) translate(4 687)">
<title>cluster_wheels_model</title>
<polygon fill="white" stroke="none" points="-4,4 -4,-687 731,-687 731,4 -4,4"/>
<text text-anchor="start" x="323.5" y="-7.8" font-family="Times New Roman,serif" font-size="14.00">wheels_model</text>
<!-- cluster_cluster_cluster_cluster_cluster_cluster_&#45;220212124901982970656214335412117874644487423537040413414&#45;5394324967932730695724736810557958213&#45;8844760969919072894&#45;8133458596870071772 -->
<g id="node1" class="node"><title>cluster_cluster_cluster_cluster_cluster_cluster_&#45;220212124901982970656214335412117874644487423537040413414&#45;5394324967932730695724736810557958213&#45;8844760969919072894&#45;8133458596870071772</title>
<g id="a_node1"><a xlink:href="./../../../ESM-wltp_h_errors/ESM-wltp_h_error_vs_wltp_h/CO2MPAS_physical_model/wheels_model/co2mpas.model.physical.wheelscalculate_r_dynamic.txt" xlink:title="Calculates the dynamic radius of the wheels [m].">
<polygon fill="springgreen" stroke="black" points="474.5,-299 338.5,-299 338.5,-263 474.5,-263 474.5,-299"/>
<text text-anchor="start" x="349" y="-276.8" font-family="Times New Roman,serif" font-size="14.00">calculate_r_dynamic</text>
</a>
</g>
</g>
<!-- cluster_cluster_cluster_cluster_cluster_cluster_&#45;220212124901982970656214335412117874644487423537040413414&#45;5394324967932730695724736810557958213&#45;88447609699190728942855877872949932050 -->
<g id="node5" class="node"><title>cluster_cluster_cluster_cluster_cluster_cluster_&#45;220212124901982970656214335412117874644487423537040413414&#45;5394324967932730695724736810557958213&#45;88447609699190728942855877872949932050</title>
<g id="a_node5"><a xlink:title="Dynamic radius of the wheels [m].">
<path fill="cyan" stroke="black" d="M523.5,-227C523.5,-227 289.5,-227 289.5,-227 283.5,-227 277.5,-221 277.5,-215 277.5,-215 277.5,-191 277.5,-191 277.5,-185 283.5,-179 289.5,-179 289.5,-179 523.5,-179 523.5,-179 529.5,-179 535.5,-185 535.5,-191 535.5,-191 535.5,-215 535.5,-215 535.5,-221 529.5,-227 523.5,-227"/>
<text text-anchor="start" x="376.5" y="-209.8" font-family="Times New Roman,serif" font-size="14.00">r_dynamic</text>
<polygon fill="none" stroke="black" points="285.5,-183 285.5,-204 379.5,-204 379.5,-183 285.5,-183"/>
<text text-anchor="start" x="288.5" y="-189.8" font-family="Times New Roman,serif" font-size="14.00">remote child 0=</text>
<polygon fill="none" stroke="black" points="379.5,-183 379.5,-204 527.5,-204 527.5,-183 379.5,-183"/>
<text text-anchor="start" x="382.5" y="-189.8" font-family="Times New Roman,serif" font-size="14.00">wheels_model:r_dynamic</text>
</a>
</g>
</g>
<!-- cluster_cluster_cluster_cluster_cluster_cluster_&#45;220212124901982970656214335412117874644487423537040413414&#45;5394324967932730695724736810557958213&#45;8844760969919072894&#45;8133458596870071772&#45;&gt;cluster_cluster_cluster_cluster_cluster_cluster_&#45;220212124901982970656214335412117874644487423537040413414&#45;5394324967932730695724736810557958213&#45;88447609699190728942855877872949932050 -->
<g id="edge1" class="edge"><title>cluster_cluster_cluster_cluster_cluster_cluster_&#45;220212124901982970656214335412117874644487423537040413414&#45;5394324967932730695724736810557958213&#45;8844760969919072894&#45;8133458596870071772&#45;&gt;cluster_cluster_cluster_cluster_cluster_cluster_&#45;220212124901982970656214335412117874644487423537040413414&#45;5394324967932730695724736810557958213&#45;88447609699190728942855877872949932050</title>
<path fill="none" stroke="black" d="M406.5,-262.909C406.5,-262.909 406.5,-237.199 406.5,-237.199"/>
<polygon fill="black" stroke="black" points="410,-237.199 406.5,-227.199 403,-237.199 410,-237.199"/>
</g>
<!-- cluster_cluster_cluster_cluster_cluster_cluster_&#45;220212124901982970656214335412117874644487423537040413414&#45;5394324967932730695724736810557958213&#45;8844760969919072894&#45;2425025618165759793 -->
<g id="node2" class="node"><title>cluster_cluster_cluster_cluster_cluster_cluster_&#45;220212124901982970656214335412117874644487423537040413414&#45;5394324967932730695724736810557958213&#45;8844760969919072894&#45;2425025618165759793</title>
<g id="a_node2"><a xlink:href="./../../../ESM-wltp_h_errors/ESM-wltp_h_error_vs_wltp_h/CO2MPAS_physical_model/wheels_model/co2mpas.model.physical.wheelscalculate_r_wheels.txt" xlink:title="Calculates the radius of the wheels [m] from the tyre dimensions.">
<polygon fill="springgreen" stroke="black" points="345.5,-455 219.5,-455 219.5,-419 345.5,-419 345.5,-455"/>
<text text-anchor="start" x="229.5" y="-432.8" font-family="Times New Roman,serif" font-size="14.00">calculate_r_wheels</text>
</a>
</g>
</g>
<!-- cluster_cluster_cluster_cluster_cluster_cluster_&#45;220212124901982970656214335412117874644487423537040413414&#45;5394324967932730695724736810557958213&#45;8844760969919072894&#45;6958772390179552731 -->
<g id="node6" class="node"><title>cluster_cluster_cluster_cluster_cluster_cluster_&#45;220212124901982970656214335412117874644487423537040413414&#45;5394324967932730695724736810557958213&#45;8844760969919072894&#45;6958772390179552731</title>
<g id="a_node6"><a xlink:title="Radius of the wheels [m].">
<path fill="cyan" stroke="black" d="M305.5,-377C305.5,-377 259.5,-377 259.5,-377 253.5,-377 247.5,-371 247.5,-365 247.5,-365 247.5,-353 247.5,-353 247.5,-347 253.5,-341 259.5,-341 259.5,-341 305.5,-341 305.5,-341 311.5,-341 317.5,-347 317.5,-353 317.5,-353 317.5,-365 317.5,-365 317.5,-371 311.5,-377 305.5,-377"/>
<text text-anchor="start" x="257.5" y="-354.8" font-family="Times New Roman,serif" font-size="14.00">r_wheels</text>
</a>
</g>
</g>
<!-- cluster_cluster_cluster_cluster_cluster_cluster_&#45;220212124901982970656214335412117874644487423537040413414&#45;5394324967932730695724736810557958213&#45;8844760969919072894&#45;2425025618165759793&#45;&gt;cluster_cluster_cluster_cluster_cluster_cluster_&#45;220212124901982970656214335412117874644487423537040413414&#45;5394324967932730695724736810557958213&#45;8844760969919072894&#45;6958772390179552731 -->
<g id="edge2" class="edge"><title>cluster_cluster_cluster_cluster_cluster_cluster_&#45;220212124901982970656214335412117874644487423537040413414&#45;5394324967932730695724736810557958213&#45;8844760969919072894&#45;2425025618165759793&#45;&gt;cluster_cluster_cluster_cluster_cluster_cluster_&#45;220212124901982970656214335412117874644487423537040413414&#45;5394324967932730695724736810557958213&#45;8844760969919072894&#45;6958772390179552731</title>
<path fill="none" stroke="black" d="M282.5,-418.909C282.5,-418.909 282.5,-387.263 282.5,-387.263"/>
<polygon fill="black" stroke="black" points="286,-387.263 282.5,-377.263 279,-387.263 286,-387.263"/>
</g>
<!-- cluster_cluster_cluster_cluster_cluster_cluster_&#45;220212124901982970656214335412117874644487423537040413414&#45;5394324967932730695724736810557958213&#45;88447609699190728942112108384676229004 -->
<g id="node3" class="node"><title>cluster_cluster_cluster_cluster_cluster_cluster_&#45;220212124901982970656214335412117874644487423537040413414&#45;5394324967932730695724736810557958213&#45;88447609699190728942112108384676229004</title>
<g id="a_node3"><a xlink:href="./../../../ESM-wltp_h_errors/ESM-wltp_h_error_vs_wltp_h/CO2MPAS_physical_model/wheels_model/co2mpas.model.physical.wheelscalculate_tyre_dimensions.txt" xlink:title="Calculates the tyre dimensions from the tyre code.">
<polygon fill="springgreen" stroke="black" points="366.5,-599 198.5,-599 198.5,-563 366.5,-563 366.5,-599"/>
<text text-anchor="start" x="208.5" y="-576.8" font-family="Times New Roman,serif" font-size="14.00">calculate_tyre_dimensions</text>
</a>
</g>
</g>
<!-- cluster_cluster_cluster_cluster_cluster_cluster_&#45;220212124901982970656214335412117874644487423537040413414&#45;5394324967932730695724736810557958213&#45;8844760969919072894&#45;7900771477228139136 -->
<g id="node8" class="node"><title>cluster_cluster_cluster_cluster_cluster_cluster_&#45;220212124901982970656214335412117874644487423537040413414&#45;5394324967932730695724736810557958213&#45;8844760969919072894&#45;7900771477228139136</title>
<g id="a_node8"><a xlink:title="Tyre dimensions.">
<path fill="cyan" stroke="black" d="M326.5,-527C326.5,-527 238.5,-527 238.5,-527 232.5,-527 226.5,-521 226.5,-515 226.5,-515 226.5,-503 226.5,-503 226.5,-497 232.5,-491 238.5,-491 238.5,-491 326.5,-491 326.5,-491 332.5,-491 338.5,-497 338.5,-503 338.5,-503 338.5,-515 338.5,-515 338.5,-521 332.5,-527 326.5,-527"/>
<text text-anchor="start" x="236.5" y="-504.8" font-family="Times New Roman,serif" font-size="14.00">tyre_dimensions</text>
</a>
</g>
</g>
<!-- cluster_cluster_cluster_cluster_cluster_cluster_&#45;220212124901982970656214335412117874644487423537040413414&#45;5394324967932730695724736810557958213&#45;88447609699190728942112108384676229004&#45;&gt;cluster_cluster_cluster_cluster_cluster_cluster_&#45;220212124901982970656214335412117874644487423537040413414&#45;5394324967932730695724736810557958213&#45;8844760969919072894&#45;7900771477228139136 -->
<g id="edge3" class="edge"><title>cluster_cluster_cluster_cluster_cluster_cluster_&#45;220212124901982970656214335412117874644487423537040413414&#45;5394324967932730695724736810557958213&#45;88447609699190728942112108384676229004&#45;&gt;cluster_cluster_cluster_cluster_cluster_cluster_&#45;220212124901982970656214335412117874644487423537040413414&#45;5394324967932730695724736810557958213&#45;8844760969919072894&#45;7900771477228139136</title>
<path fill="none" stroke="black" d="M282.5,-562.831C282.5,-562.831 282.5,-537.413 282.5,-537.413"/>
<polygon fill="black" stroke="black" points="286,-537.413 282.5,-527.413 279,-537.413 286,-537.413"/>
</g>
<!-- cluster_cluster_cluster_cluster_cluster_cluster_&#45;220212124901982970656214335412117874644487423537040413414&#45;5394324967932730695724736810557958213&#45;88447609699190728942725884252126388092 -->
<g id="node4" class="node"><title>cluster_cluster_cluster_cluster_cluster_cluster_&#45;220212124901982970656214335412117874644487423537040413414&#45;5394324967932730695724736810557958213&#45;88447609699190728942725884252126388092</title>
<g id="a_node4"><a xlink:href="./../../../ESM-wltp_h_errors/ESM-wltp_h_error_vs_wltp_h/CO2MPAS_physical_model/wheels_model/co2mpas.model.physical.wheelscalculate_wheel_speeds.txt" xlink:title="Calculates rotating speed of the wheels [RPM].">
<polygon fill="springgreen" stroke="black" points="344.5,-143 190.5,-143 190.5,-107 344.5,-107 344.5,-143"/>
<text text-anchor="start" x="200.5" y="-120.8" font-family="Times New Roman,serif" font-size="14.00">calculate_wheel_speeds</text>
</a>
</g>
</g>
<!-- cluster_cluster_cluster_cluster_cluster_cluster_&#45;220212124901982970656214335412117874644487423537040413414&#45;5394324967932730695724736810557958213&#45;88447609699190728945436702292339844777 -->
<g id="node11" class="node"><title>cluster_cluster_cluster_cluster_cluster_cluster_&#45;220212124901982970656214335412117874644487423537040413414&#45;5394324967932730695724736810557958213&#45;88447609699190728945436702292339844777</title>
<g id="a_node11"><a xlink:title="Rotating speed of the wheel [RPM].">
<path fill="cyan" stroke="black" d="M394,-71C394,-71 141,-71 141,-71 135,-71 129,-65 129,-59 129,-59 129,-35 129,-35 129,-29 135,-23 141,-23 141,-23 394,-23 394,-23 400,-23 406,-29 406,-35 406,-35 406,-59 406,-59 406,-65 400,-71 394,-71"/>
<text text-anchor="start" x="228.5" y="-53.8" font-family="Times New Roman,serif" font-size="14.00">wheel_speeds</text>
<polygon fill="none" stroke="black" points="137.5,-27 137.5,-48 231.5,-48 231.5,-27 137.5,-27"/>
<text text-anchor="start" x="140.5" y="-33.8" font-family="Times New Roman,serif" font-size="14.00">remote child 0=</text>
<polygon fill="none" stroke="black" points="231.5,-27 231.5,-48 398.5,-48 398.5,-27 231.5,-27"/>
<text text-anchor="start" x="234.5" y="-33.8" font-family="Times New Roman,serif" font-size="14.00">wheels_model:wheel_speeds</text>
</a>
</g>
</g>
<!-- cluster_cluster_cluster_cluster_cluster_cluster_&#45;220212124901982970656214335412117874644487423537040413414&#45;5394324967932730695724736810557958213&#45;88447609699190728942725884252126388092&#45;&gt;cluster_cluster_cluster_cluster_cluster_cluster_&#45;220212124901982970656214335412117874644487423537040413414&#45;5394324967932730695724736810557958213&#45;88447609699190728945436702292339844777 -->
<g id="edge4" class="edge"><title>cluster_cluster_cluster_cluster_cluster_cluster_&#45;220212124901982970656214335412117874644487423537040413414&#45;5394324967932730695724736810557958213&#45;88447609699190728942725884252126388092&#45;&gt;cluster_cluster_cluster_cluster_cluster_cluster_&#45;220212124901982970656214335412117874644487423537040413414&#45;5394324967932730695724736810557958213&#45;88447609699190728945436702292339844777</title>
<path fill="none" stroke="black" d="M267.5,-106.909C267.5,-106.909 267.5,-81.1988 267.5,-81.1988"/>
<polygon fill="black" stroke="black" points="271,-81.1988 267.5,-71.1988 264,-81.1988 271,-81.1988"/>
</g>
<!-- cluster_cluster_cluster_cluster_cluster_cluster_&#45;220212124901982970656214335412117874644487423537040413414&#45;5394324967932730695724736810557958213&#45;88447609699190728942855877872949932050&#45;&gt;cluster_cluster_cluster_cluster_cluster_cluster_&#45;220212124901982970656214335412117874644487423537040413414&#45;5394324967932730695724736810557958213&#45;88447609699190728942725884252126388092 -->
<g id="edge5" class="edge"><title>cluster_cluster_cluster_cluster_cluster_cluster_&#45;220212124901982970656214335412117874644487423537040413414&#45;5394324967932730695724736810557958213&#45;88447609699190728942855877872949932050&#45;&gt;cluster_cluster_cluster_cluster_cluster_cluster_&#45;220212124901982970656214335412117874644487423537040413414&#45;5394324967932730695724736810557958213&#45;88447609699190728942725884252126388092</title>
<path fill="none" stroke="black" d="M311,-178.748C311,-178.748 311,-153.288 311,-153.288"/>
<polygon fill="black" stroke="black" points="314.5,-153.287 311,-143.288 307.5,-153.288 314.5,-153.287"/>
</g>
<!-- cluster_cluster_cluster_cluster_cluster_cluster_&#45;220212124901982970656214335412117874644487423537040413414&#45;5394324967932730695724736810557958213&#45;8844760969919072894&#45;6958772390179552731&#45;&gt;cluster_cluster_cluster_cluster_cluster_cluster_&#45;220212124901982970656214335412117874644487423537040413414&#45;5394324967932730695724736810557958213&#45;8844760969919072894&#45;8133458596870071772 -->
<g id="edge6" class="edge"><title>cluster_cluster_cluster_cluster_cluster_cluster_&#45;220212124901982970656214335412117874644487423537040413414&#45;5394324967932730695724736810557958213&#45;8844760969919072894&#45;6958772390179552731&#45;&gt;cluster_cluster_cluster_cluster_cluster_cluster_&#45;220212124901982970656214335412117874644487423537040413414&#45;5394324967932730695724736810557958213&#45;8844760969919072894&#45;8133458596870071772</title>
<path fill="none" stroke="black" d="M297.5,-340.909C297.5,-317.867 297.5,-281 297.5,-281 297.5,-281 328.398,-281 328.398,-281"/>
<polygon fill="black" stroke="black" points="328.398,-284.5 338.398,-281 328.398,-277.5 328.398,-284.5"/>
</g>
<!-- cluster_cluster_cluster_cluster_cluster_cluster_&#45;220212124901982970656214335412117874644487423537040413414&#45;5394324967932730695724736810557958213&#45;8844760969919072894&#45;8410037120583442267 -->
<g id="node7" class="node"><title>cluster_cluster_cluster_cluster_cluster_cluster_&#45;220212124901982970656214335412117874644487423537040413414&#45;5394324967932730695724736810557958213&#45;8844760969919072894&#45;8410037120583442267</title>
<g id="a_node7"><a xlink:title="Tyre code (e.g.,P225/70R14).">
<path fill="cyan" stroke="black" d="M402,-683C402,-683 163,-683 163,-683 157,-683 151,-677 151,-671 151,-671 151,-647 151,-647 151,-641 157,-635 163,-635 163,-635 402,-635 402,-635 408,-635 414,-641 414,-647 414,-647 414,-671 414,-671 414,-677 408,-683 402,-683"/>
<text text-anchor="start" x="254.5" y="-665.8" font-family="Times New Roman,serif" font-size="14.00">tyre_code</text>
<polygon fill="none" stroke="black" points="159.5,-639 159.5,-660 261.5,-660 261.5,-639 159.5,-639"/>
<text text-anchor="start" x="162.5" y="-645.8" font-family="Times New Roman,serif" font-size="14.00">remote parent 0=</text>
<polygon fill="none" stroke="black" points="261.5,-639 261.5,-660 406.5,-660 406.5,-639 261.5,-639"/>
<text text-anchor="start" x="264.5" y="-645.8" font-family="Times New Roman,serif" font-size="14.00">wheels_model:tyre_code</text>
</a>
</g>
</g>
<!-- cluster_cluster_cluster_cluster_cluster_cluster_&#45;220212124901982970656214335412117874644487423537040413414&#45;5394324967932730695724736810557958213&#45;8844760969919072894&#45;8410037120583442267&#45;&gt;cluster_cluster_cluster_cluster_cluster_cluster_&#45;220212124901982970656214335412117874644487423537040413414&#45;5394324967932730695724736810557958213&#45;88447609699190728942112108384676229004 -->
<g id="edge7" class="edge"><title>cluster_cluster_cluster_cluster_cluster_cluster_&#45;220212124901982970656214335412117874644487423537040413414&#45;5394324967932730695724736810557958213&#45;8844760969919072894&#45;8410037120583442267&#45;&gt;cluster_cluster_cluster_cluster_cluster_cluster_&#45;220212124901982970656214335412117874644487423537040413414&#45;5394324967932730695724736810557958213&#45;88447609699190728942112108384676229004</title>
<path fill="none" stroke="black" d="M282.5,-634.748C282.5,-634.748 282.5,-609.288 282.5,-609.288"/>
<polygon fill="black" stroke="black" points="286,-609.287 282.5,-599.288 279,-609.288 286,-609.287"/>
</g>
<!-- cluster_cluster_cluster_cluster_cluster_cluster_&#45;220212124901982970656214335412117874644487423537040413414&#45;5394324967932730695724736810557958213&#45;8844760969919072894&#45;7900771477228139136&#45;&gt;cluster_cluster_cluster_cluster_cluster_cluster_&#45;220212124901982970656214335412117874644487423537040413414&#45;5394324967932730695724736810557958213&#45;8844760969919072894&#45;2425025618165759793 -->
<g id="edge8" class="edge"><title>cluster_cluster_cluster_cluster_cluster_cluster_&#45;220212124901982970656214335412117874644487423537040413414&#45;5394324967932730695724736810557958213&#45;8844760969919072894&#45;7900771477228139136&#45;&gt;cluster_cluster_cluster_cluster_cluster_cluster_&#45;220212124901982970656214335412117874644487423537040413414&#45;5394324967932730695724736810557958213&#45;8844760969919072894&#45;2425025618165759793</title>
<path fill="none" stroke="black" d="M282.5,-490.831C282.5,-490.831 282.5,-465.413 282.5,-465.413"/>
<polygon fill="black" stroke="black" points="286,-465.413 282.5,-455.413 279,-465.413 286,-465.413"/>
</g>
<!-- cluster_cluster_cluster_cluster_cluster_cluster_&#45;220212124901982970656214335412117874644487423537040413414&#45;5394324967932730695724736810557958213&#45;8844760969919072894&#45;1827130348584404111 -->
<g id="node9" class="node"><title>cluster_cluster_cluster_cluster_cluster_cluster_&#45;220212124901982970656214335412117874644487423537040413414&#45;5394324967932730695724736810557958213&#45;8844760969919072894&#45;1827130348584404111</title>
<g id="a_node9"><a xlink:title="Dynamic rolling coefficient [&#45;].">
<path fill="cyan" stroke="black" d="M715,-383C715,-383 348,-383 348,-383 342,-383 336,-377 336,-371 336,-371 336,-347 336,-347 336,-341 342,-335 348,-335 348,-335 715,-335 715,-335 721,-335 727,-341 727,-347 727,-347 727,-371 727,-371 727,-377 721,-383 715,-383"/>
<text text-anchor="start" x="440" y="-365.8" font-family="Times New Roman,serif" font-size="14.00">tyre_dynamic_rolling_coefficient</text>
<polygon fill="none" stroke="black" points="344.5,-339 344.5,-360 446.5,-360 446.5,-339 344.5,-339"/>
<text text-anchor="start" x="347.5" y="-345.8" font-family="Times New Roman,serif" font-size="14.00">remote parent 0=</text>
<polygon fill="none" stroke="black" points="446.5,-339 446.5,-360 719.5,-360 719.5,-339 446.5,-339"/>
<text text-anchor="start" x="449.5" y="-345.8" font-family="Times New Roman,serif" font-size="14.00">wheels_model:tyre_dynamic_rolling_coefficient</text>
</a>
</g>
</g>
<!-- cluster_cluster_cluster_cluster_cluster_cluster_&#45;220212124901982970656214335412117874644487423537040413414&#45;5394324967932730695724736810557958213&#45;8844760969919072894&#45;1827130348584404111&#45;&gt;cluster_cluster_cluster_cluster_cluster_cluster_&#45;220212124901982970656214335412117874644487423537040413414&#45;5394324967932730695724736810557958213&#45;8844760969919072894&#45;8133458596870071772 -->
<g id="edge9" class="edge"><title>cluster_cluster_cluster_cluster_cluster_cluster_&#45;220212124901982970656214335412117874644487423537040413414&#45;5394324967932730695724736810557958213&#45;8844760969919072894&#45;1827130348584404111&#45;&gt;cluster_cluster_cluster_cluster_cluster_cluster_&#45;220212124901982970656214335412117874644487423537040413414&#45;5394324967932730695724736810557958213&#45;8844760969919072894&#45;8133458596870071772</title>
<path fill="none" stroke="black" d="M406.5,-334.748C406.5,-334.748 406.5,-309.288 406.5,-309.288"/>
<polygon fill="black" stroke="black" points="410,-309.287 406.5,-299.288 403,-309.288 410,-309.287"/>
</g>
<!-- cluster_cluster_cluster_cluster_cluster_cluster_&#45;220212124901982970656214335412117874644487423537040413414&#45;5394324967932730695724736810557958213&#45;88447609699190728941395676110976739562 -->
<g id="node10" class="node"><title>cluster_cluster_cluster_cluster_cluster_cluster_&#45;220212124901982970656214335412117874644487423537040413414&#45;5394324967932730695724736810557958213&#45;88447609699190728941395676110976739562</title>
<g id="a_node10"><a xlink:title="Vehicle velocity [km/h].">
<path fill="cyan" stroke="black" d="M247,-227C247,-227 12,-227 12,-227 6,-227 0,-221 0,-215 0,-215 0,-191 0,-191 0,-185 6,-179 12,-179 12,-179 247,-179 247,-179 253,-179 259,-185 259,-191 259,-191 259,-215 259,-215 259,-221 253,-227 247,-227"/>
<text text-anchor="start" x="104" y="-209.8" font-family="Times New Roman,serif" font-size="14.00">velocities</text>
<polygon fill="none" stroke="black" points="8.5,-183 8.5,-204 110.5,-204 110.5,-183 8.5,-183"/>
<text text-anchor="start" x="11.5" y="-189.8" font-family="Times New Roman,serif" font-size="14.00">remote parent 0=</text>
<polygon fill="none" stroke="black" points="110.5,-183 110.5,-204 251.5,-204 251.5,-183 110.5,-183"/>
<text text-anchor="start" x="113.5" y="-189.8" font-family="Times New Roman,serif" font-size="14.00">wheels_model:velocities</text>
</a>
</g>
</g>
<!-- cluster_cluster_cluster_cluster_cluster_cluster_&#45;220212124901982970656214335412117874644487423537040413414&#45;5394324967932730695724736810557958213&#45;88447609699190728941395676110976739562&#45;&gt;cluster_cluster_cluster_cluster_cluster_cluster_&#45;220212124901982970656214335412117874644487423537040413414&#45;5394324967932730695724736810557958213&#45;88447609699190728942725884252126388092 -->
<g id="edge10" class="edge"><title>cluster_cluster_cluster_cluster_cluster_cluster_&#45;220212124901982970656214335412117874644487423537040413414&#45;5394324967932730695724736810557958213&#45;88447609699190728941395676110976739562&#45;&gt;cluster_cluster_cluster_cluster_cluster_cluster_&#45;220212124901982970656214335412117874644487423537040413414&#45;5394324967932730695724736810557958213&#45;88447609699190728942725884252126388092</title>
<path fill="none" stroke="black" d="M224.75,-178.748C224.75,-178.748 224.75,-153.288 224.75,-153.288"/>
<polygon fill="black" stroke="black" points="228.25,-153.287 224.75,-143.288 221.25,-153.288 228.25,-153.287"/>
</g>
</g>
</svg>
