<?xml version="1.0" encoding="UTF-8" standalone="no"?>
<!DOCTYPE svg PUBLIC "-//W3C//DTD SVG 1.1//EN"
 "http://www.w3.org/Graphics/SVG/1.1/DTD/svg11.dtd">
<!-- Generated by graphviz version 2.38.0 (20140413.2041)
 -->
<!-- Title: cluster_dt_vap_model Pages: 1 -->
<svg width="1998pt" height="349pt"
 viewBox="0.00 0.00 1997.50 349.00" xmlns="http://www.w3.org/2000/svg" xmlns:xlink="http://www.w3.org/1999/xlink">
<g id="graph0" class="graph" transform="scale(1 1) rotate(0) translate(4 345)">
<title>cluster_dt_vap_model</title>
<polygon fill="white" stroke="none" points="-4,4 -4,-345 1993.5,-345 1993.5,4 -4,4"/>
<text text-anchor="start" x="953.75" y="-7.8" font-family="Times New Roman,serif" font-size="14.00">dt_vap_model</text>
<!-- cluster_cluster_cluster_cluster_1514673138058506975&#45;3079338983303448848506612701516435356&#45;56111726777351666078554271498790934243 -->
<g id="node1" class="node"><title>cluster_cluster_cluster_cluster_1514673138058506975&#45;3079338983303448848506612701516435356&#45;56111726777351666078554271498790934243</title>
<g id="a_node1"><a xlink:title="A decision tree classifier to predict gears.">
<path fill="cyan" stroke="black" d="M550,-341C550,-341 311,-341 311,-341 305,-341 299,-335 299,-329 299,-329 299,-284 299,-284 299,-278 305,-272 311,-272 311,-272 550,-272 550,-272 556,-272 562,-278 562,-284 562,-284 562,-329 562,-329 562,-335 556,-341 550,-341"/>
<text text-anchor="start" x="403.5" y="-323.3" font-family="Times New Roman,serif" font-size="14.00">DT_VAP</text>
<polygon fill="none" stroke="black" points="307.5,-296.5 307.5,-317.5 409.5,-317.5 409.5,-296.5 307.5,-296.5"/>
<text text-anchor="start" x="318.5" y="-303.3" font-family="Times New Roman,serif" font-size="14.00">remote child 1=</text>
<polygon fill="none" stroke="black" points="409.5,-296.5 409.5,-317.5 554.5,-317.5 554.5,-296.5 409.5,-296.5"/>
<text text-anchor="start" x="412.5" y="-303.3" font-family="Times New Roman,serif" font-size="14.00">dt_vap_model:DT_VAP</text>
<polygon fill="none" stroke="black" points="307.5,-275.5 307.5,-296.5 409.5,-296.5 409.5,-275.5 307.5,-275.5"/>
<text text-anchor="start" x="310.5" y="-282.3" font-family="Times New Roman,serif" font-size="14.00">remote parent 0=</text>
<polygon fill="none" stroke="black" points="409.5,-275.5 409.5,-296.5 554.5,-296.5 554.5,-275.5 409.5,-275.5"/>
<text text-anchor="start" x="412.5" y="-282.3" font-family="Times New Roman,serif" font-size="14.00">dt_vap_model:DT_VAP</text>
</a>
</g>
</g>
<!-- cluster_cluster_cluster_cluster_1514673138058506975&#45;3079338983303448848506612701516435356&#45;5611172677735166607&#45;412320468793053698 -->
<g id="node4" class="node"><title>cluster_cluster_cluster_cluster_1514673138058506975&#45;3079338983303448848506612701516435356&#45;5611172677735166607&#45;412320468793053698</title>
<g id="a_node4"><a xlink:href="./../../../extract_calibrated_models/at_model_selector/AM-wltp_h_errors/AM-wltp_h_error_vs_wltp_h/Automatic_gear_model/dt_va_model/co2mpas.model.physical.gear_box.at_gearprediction_gears_decision_tree.txt" xlink:title="Predicts gears with a decision tree classifier [&#45;].">
<polygon fill="springgreen" stroke="black" points="1107.5,-236 911.5,-236 911.5,-200 1107.5,-200 1107.5,-236"/>
<text text-anchor="start" x="922" y="-213.8" font-family="Times New Roman,serif" font-size="14.00">prediction_gears_decision_tree</text>
</a>
</g>
</g>
<!-- cluster_cluster_cluster_cluster_1514673138058506975&#45;3079338983303448848506612701516435356&#45;56111726777351666078554271498790934243&#45;&gt;cluster_cluster_cluster_cluster_1514673138058506975&#45;3079338983303448848506612701516435356&#45;5611172677735166607&#45;412320468793053698 -->
<g id="edge1" class="edge"><title>cluster_cluster_cluster_cluster_1514673138058506975&#45;3079338983303448848506612701516435356&#45;56111726777351666078554271498790934243&#45;&gt;cluster_cluster_cluster_cluster_1514673138058506975&#45;3079338983303448848506612701516435356&#45;5611172677735166607&#45;412320468793053698</title>
<path fill="none" stroke="black" d="M562.056,-277C723.715,-277 976.833,-277 976.833,-277 976.833,-277 976.833,-246.023 976.833,-246.023"/>
<polygon fill="black" stroke="black" points="980.333,-246.022 976.833,-236.023 973.333,-246.023 980.333,-246.022"/>
</g>
<!-- cluster_cluster_cluster_cluster_1514673138058506975&#45;3079338983303448848506612701516435356&#45;5611172677735166607&#45;6281391710310240799 -->
<g id="node2" class="node"><title>cluster_cluster_cluster_cluster_1514673138058506975&#45;3079338983303448848506612701516435356&#45;5611172677735166607&#45;6281391710310240799</title>
<g id="a_node2"><a xlink:title="Acceleration vector [m/s2].">
<path fill="cyan" stroke="black" d="M269,-330.5C269,-330.5 12,-330.5 12,-330.5 6,-330.5 0,-324.5 0,-318.5 0,-318.5 0,-294.5 0,-294.5 0,-288.5 6,-282.5 12,-282.5 12,-282.5 269,-282.5 269,-282.5 275,-282.5 281,-288.5 281,-294.5 281,-294.5 281,-318.5 281,-318.5 281,-324.5 275,-330.5 269,-330.5"/>
<text text-anchor="start" x="104.5" y="-313.3" font-family="Times New Roman,serif" font-size="14.00">accelerations</text>
<polygon fill="none" stroke="black" points="8.5,-286.5 8.5,-307.5 110.5,-307.5 110.5,-286.5 8.5,-286.5"/>
<text text-anchor="start" x="11.5" y="-293.3" font-family="Times New Roman,serif" font-size="14.00">remote parent 0=</text>
<polygon fill="none" stroke="black" points="110.5,-286.5 110.5,-307.5 273.5,-307.5 273.5,-286.5 110.5,-286.5"/>
<text text-anchor="start" x="113.5" y="-293.3" font-family="Times New Roman,serif" font-size="14.00">dt_vap_model:accelerations</text>
</a>
</g>
</g>
<!-- cluster_cluster_cluster_cluster_1514673138058506975&#45;3079338983303448848506612701516435356&#45;5611172677735166607&#45;992705794952703737 -->
<g id="node3" class="node"><title>cluster_cluster_cluster_cluster_1514673138058506975&#45;3079338983303448848506612701516435356&#45;5611172677735166607&#45;992705794952703737</title>
<g id="a_node3"><a xlink:href="./../../../extract_calibrated_models/at_model_selector/AM-wltp_h_errors/AM-wltp_h_error_vs_wltp_h/Automatic_gear_model/dt_va_model/co2mpas.model.physical.gear_box.at_gearcalibrate_gear_shifting_decision_tree.txt" xlink:title="Calibrates a decision tree classifier to predict gears.">
<polygon fill="springgreen" stroke="black" points="1123.5,-59 895.5,-59 895.5,-23 1123.5,-23 1123.5,-59"/>
<text text-anchor="start" x="905.5" y="-36.8" font-family="Times New Roman,serif" font-size="14.00">calibrate_gear_shifting_decision_tree</text>
</a>
</g>
</g>
<!-- cluster_cluster_cluster_cluster_1514673138058506975&#45;3079338983303448848506612701516435356&#45;5611172677735166607&#45;6281391710310240799&#45;&gt;cluster_cluster_cluster_cluster_1514673138058506975&#45;3079338983303448848506612701516435356&#45;5611172677735166607&#45;992705794952703737 -->
<g id="edge2" class="edge"><title>cluster_cluster_cluster_cluster_1514673138058506975&#45;3079338983303448848506612701516435356&#45;5611172677735166607&#45;6281391710310240799&#45;&gt;cluster_cluster_cluster_cluster_1514673138058506975&#45;3079338983303448848506612701516435356&#45;5611172677735166607&#45;992705794952703737</title>
<path fill="none" stroke="black" d="M93.6667,-282.406C93.6667,-215.96 93.6667,-35 93.6667,-35 93.6667,-35 885.361,-35 885.361,-35"/>
<polygon fill="black" stroke="black" points="885.361,-38.5001 895.361,-35 885.361,-31.5001 885.361,-38.5001"/>
</g>
<!-- cluster_cluster_cluster_cluster_1514673138058506975&#45;3079338983303448848506612701516435356&#45;5611172677735166607&#45;6281391710310240799&#45;&gt;cluster_cluster_cluster_cluster_1514673138058506975&#45;3079338983303448848506612701516435356&#45;5611172677735166607&#45;412320468793053698 -->
<g id="edge3" class="edge"><title>cluster_cluster_cluster_cluster_1514673138058506975&#45;3079338983303448848506612701516435356&#45;5611172677735166607&#45;6281391710310240799&#45;&gt;cluster_cluster_cluster_cluster_1514673138058506975&#45;3079338983303448848506612701516435356&#45;5611172677735166607&#45;412320468793053698</title>
<path fill="none" stroke="black" d="M187.333,-282.164C187.333,-254.164 187.333,-212 187.333,-212 187.333,-212 901.144,-212 901.144,-212"/>
<polygon fill="black" stroke="black" points="901.144,-215.5 911.144,-212 901.144,-208.5 901.144,-215.5"/>
</g>
<!-- cluster_cluster_cluster_cluster_1514673138058506975&#45;3079338983303448848506612701516435356&#45;5611172677735166607&#45;992705794952703737&#45;&gt;cluster_cluster_cluster_cluster_1514673138058506975&#45;3079338983303448848506612701516435356&#45;56111726777351666078554271498790934243 -->
<g id="edge4" class="edge"><title>cluster_cluster_cluster_cluster_1514673138058506975&#45;3079338983303448848506612701516435356&#45;5611172677735166607&#45;992705794952703737&#45;&gt;cluster_cluster_cluster_cluster_1514673138058506975&#45;3079338983303448848506612701516435356&#45;56111726777351666078554271498790934243</title>
<path fill="none" stroke="black" d="M895.454,-47C726.774,-47 430.5,-47 430.5,-47 430.5,-47 430.5,-261.772 430.5,-261.772"/>
<polygon fill="black" stroke="black" points="427,-261.772 430.5,-271.772 434,-261.772 427,-261.772"/>
</g>
<!-- cluster_cluster_cluster_cluster_1514673138058506975&#45;3079338983303448848506612701516435356&#45;56111726777351666075823726384603252559 -->
<g id="node7" class="node"><title>cluster_cluster_cluster_cluster_1514673138058506975&#45;3079338983303448848506612701516435356&#45;56111726777351666075823726384603252559</title>
<g id="a_node7"><a xlink:title="Gear vector [&#45;].">
<path fill="cyan" stroke="black" d="M1116.5,-164C1116.5,-164 902.5,-164 902.5,-164 896.5,-164 890.5,-158 890.5,-152 890.5,-152 890.5,-107 890.5,-107 890.5,-101 896.5,-95 902.5,-95 902.5,-95 1116.5,-95 1116.5,-95 1122.5,-95 1128.5,-101 1128.5,-107 1128.5,-107 1128.5,-152 1128.5,-152 1128.5,-158 1122.5,-164 1116.5,-164"/>
<text text-anchor="start" x="994.5" y="-146.3" font-family="Times New Roman,serif" font-size="14.00">gears</text>
<polygon fill="none" stroke="black" points="898.5,-119.5 898.5,-140.5 1000.5,-140.5 1000.5,-119.5 898.5,-119.5"/>
<text text-anchor="start" x="909.5" y="-126.3" font-family="Times New Roman,serif" font-size="14.00">remote child 1=</text>
<polygon fill="none" stroke="black" points="1000.5,-119.5 1000.5,-140.5 1120.5,-140.5 1120.5,-119.5 1000.5,-119.5"/>
<text text-anchor="start" x="1003.5" y="-126.3" font-family="Times New Roman,serif" font-size="14.00">dt_vap_model:gears</text>
<polygon fill="none" stroke="black" points="898.5,-98.5 898.5,-119.5 1000.5,-119.5 1000.5,-98.5 898.5,-98.5"/>
<text text-anchor="start" x="901.5" y="-105.3" font-family="Times New Roman,serif" font-size="14.00">remote parent 0=</text>
<polygon fill="none" stroke="black" points="1000.5,-98.5 1000.5,-119.5 1120.5,-119.5 1120.5,-98.5 1000.5,-98.5"/>
<text text-anchor="start" x="1003.5" y="-105.3" font-family="Times New Roman,serif" font-size="14.00">dt_vap_model:gears</text>
</a>
</g>
</g>
<!-- cluster_cluster_cluster_cluster_1514673138058506975&#45;3079338983303448848506612701516435356&#45;5611172677735166607&#45;412320468793053698&#45;&gt;cluster_cluster_cluster_cluster_1514673138058506975&#45;3079338983303448848506612701516435356&#45;56111726777351666075823726384603252559 -->
<g id="edge5" class="edge"><title>cluster_cluster_cluster_cluster_1514673138058506975&#45;3079338983303448848506612701516435356&#45;5611172677735166607&#45;412320468793053698&#45;&gt;cluster_cluster_cluster_cluster_1514673138058506975&#45;3079338983303448848506612701516435356&#45;56111726777351666075823726384603252559</title>
<path fill="none" stroke="black" d="M1009.5,-199.663C1009.5,-199.663 1009.5,-174.269 1009.5,-174.269"/>
<polygon fill="black" stroke="black" points="1013,-174.269 1009.5,-164.269 1006,-174.269 1013,-174.269"/>
</g>
<!-- cluster_cluster_cluster_cluster_1514673138058506975&#45;3079338983303448848506612701516435356&#45;5611172677735166607&#45;2328696801353446754 -->
<g id="node5" class="node"><title>cluster_cluster_cluster_cluster_1514673138058506975&#45;3079338983303448848506612701516435356&#45;5611172677735166607&#45;2328696801353446754</title>
<g id="a_node5"><a xlink:title="A function to correct the gear predicted.">
<path fill="cyan" stroke="black" d="M847,-330.5C847,-330.5 592,-330.5 592,-330.5 586,-330.5 580,-324.5 580,-318.5 580,-318.5 580,-294.5 580,-294.5 580,-288.5 586,-282.5 592,-282.5 592,-282.5 847,-282.5 847,-282.5 853,-282.5 859,-288.5 859,-294.5 859,-294.5 859,-318.5 859,-318.5 859,-324.5 853,-330.5 847,-330.5"/>
<text text-anchor="start" x="684.5" y="-313.3" font-family="Times New Roman,serif" font-size="14.00">correct_gear</text>
<polygon fill="none" stroke="black" points="588.5,-286.5 588.5,-307.5 690.5,-307.5 690.5,-286.5 588.5,-286.5"/>
<text text-anchor="start" x="591.5" y="-293.3" font-family="Times New Roman,serif" font-size="14.00">remote parent 0=</text>
<polygon fill="none" stroke="black" points="690.5,-286.5 690.5,-307.5 851.5,-307.5 851.5,-286.5 690.5,-286.5"/>
<text text-anchor="start" x="693.5" y="-293.3" font-family="Times New Roman,serif" font-size="14.00">dt_vap_model:correct_gear</text>
</a>
</g>
</g>
<!-- cluster_cluster_cluster_cluster_1514673138058506975&#45;3079338983303448848506612701516435356&#45;5611172677735166607&#45;2328696801353446754&#45;&gt;cluster_cluster_cluster_cluster_1514673138058506975&#45;3079338983303448848506612701516435356&#45;5611172677735166607&#45;412320468793053698 -->
<g id="edge6" class="edge"><title>cluster_cluster_cluster_cluster_1514673138058506975&#45;3079338983303448848506612701516435356&#45;5611172677735166607&#45;2328696801353446754&#45;&gt;cluster_cluster_cluster_cluster_1514673138058506975&#45;3079338983303448848506612701516435356&#45;5611172677735166607&#45;412320468793053698</title>
<path fill="none" stroke="black" d="M719.5,-282.193C719.5,-257.858 719.5,-224 719.5,-224 719.5,-224 901.319,-224 901.319,-224"/>
<polygon fill="black" stroke="black" points="901.319,-227.5 911.319,-224 901.319,-220.5 901.319,-227.5"/>
</g>
<!-- cluster_cluster_cluster_cluster_1514673138058506975&#45;3079338983303448848506612701516435356&#45;56111726777351666072896906763587689886 -->
<g id="node6" class="node"><title>cluster_cluster_cluster_cluster_1514673138058506975&#45;3079338983303448848506612701516435356&#45;56111726777351666072896906763587689886</title>
<g id="a_node6"><a xlink:title="Gear filter function.">
<path fill="cyan" stroke="black" d="M1129.5,-330.5C1129.5,-330.5 889.5,-330.5 889.5,-330.5 883.5,-330.5 877.5,-324.5 877.5,-318.5 877.5,-318.5 877.5,-294.5 877.5,-294.5 877.5,-288.5 883.5,-282.5 889.5,-282.5 889.5,-282.5 1129.5,-282.5 1129.5,-282.5 1135.5,-282.5 1141.5,-288.5 1141.5,-294.5 1141.5,-294.5 1141.5,-318.5 1141.5,-318.5 1141.5,-324.5 1135.5,-330.5 1129.5,-330.5"/>
<text text-anchor="start" x="981.5" y="-313.3" font-family="Times New Roman,serif" font-size="14.00">gear_filter</text>
<polygon fill="none" stroke="black" points="885.5,-286.5 885.5,-307.5 987.5,-307.5 987.5,-286.5 885.5,-286.5"/>
<text text-anchor="start" x="888.5" y="-293.3" font-family="Times New Roman,serif" font-size="14.00">remote parent 0=</text>
<polygon fill="none" stroke="black" points="987.5,-286.5 987.5,-307.5 1133.5,-307.5 1133.5,-286.5 987.5,-286.5"/>
<text text-anchor="start" x="990.5" y="-293.3" font-family="Times New Roman,serif" font-size="14.00">dt_vap_model:gear_filter</text>
</a>
</g>
</g>
<!-- cluster_cluster_cluster_cluster_1514673138058506975&#45;3079338983303448848506612701516435356&#45;56111726777351666072896906763587689886&#45;&gt;cluster_cluster_cluster_cluster_1514673138058506975&#45;3079338983303448848506612701516435356&#45;5611172677735166607&#45;412320468793053698 -->
<g id="edge7" class="edge"><title>cluster_cluster_cluster_cluster_1514673138058506975&#45;3079338983303448848506612701516435356&#45;56111726777351666072896906763587689886&#45;&gt;cluster_cluster_cluster_cluster_1514673138058506975&#45;3079338983303448848506612701516435356&#45;5611172677735166607&#45;412320468793053698</title>
<path fill="none" stroke="black" d="M1042.17,-282.317C1042.17,-282.317 1042.17,-246.257 1042.17,-246.257"/>
<polygon fill="black" stroke="black" points="1045.67,-246.257 1042.17,-236.257 1038.67,-246.257 1045.67,-246.257"/>
</g>
<!-- cluster_cluster_cluster_cluster_1514673138058506975&#45;3079338983303448848506612701516435356&#45;56111726777351666075823726384603252559&#45;&gt;cluster_cluster_cluster_cluster_1514673138058506975&#45;3079338983303448848506612701516435356&#45;5611172677735166607&#45;992705794952703737 -->
<g id="edge8" class="edge"><title>cluster_cluster_cluster_cluster_1514673138058506975&#45;3079338983303448848506612701516435356&#45;56111726777351666075823726384603252559&#45;&gt;cluster_cluster_cluster_cluster_1514673138058506975&#45;3079338983303448848506612701516435356&#45;5611172677735166607&#45;992705794952703737</title>
<path fill="none" stroke="black" d="M1009.5,-94.7765C1009.5,-94.7765 1009.5,-69.0777 1009.5,-69.0777"/>
<polygon fill="black" stroke="black" points="1013,-69.0777 1009.5,-59.0777 1006,-69.0778 1013,-69.0777"/>
</g>
<!-- cluster_cluster_cluster_cluster_1514673138058506975&#45;3079338983303448848506612701516435356&#45;5611172677735166607&#45;1694690716081511724 -->
<g id="node8" class="node"><title>cluster_cluster_cluster_cluster_1514673138058506975&#45;3079338983303448848506612701516435356&#45;5611172677735166607&#45;1694690716081511724</title>
<g id="a_node8"><a xlink:title="Motive power [kW].">
<path fill="cyan" stroke="black" d="M1699,-330.5C1699,-330.5 1428,-330.5 1428,-330.5 1422,-330.5 1416,-324.5 1416,-318.5 1416,-318.5 1416,-294.5 1416,-294.5 1416,-288.5 1422,-282.5 1428,-282.5 1428,-282.5 1699,-282.5 1699,-282.5 1705,-282.5 1711,-288.5 1711,-294.5 1711,-294.5 1711,-318.5 1711,-318.5 1711,-324.5 1705,-330.5 1699,-330.5"/>
<text text-anchor="start" x="1520.5" y="-313.3" font-family="Times New Roman,serif" font-size="14.00">motive_powers</text>
<polygon fill="none" stroke="black" points="1424.5,-286.5 1424.5,-307.5 1526.5,-307.5 1526.5,-286.5 1424.5,-286.5"/>
<text text-anchor="start" x="1427.5" y="-293.3" font-family="Times New Roman,serif" font-size="14.00">remote parent 0=</text>
<polygon fill="none" stroke="black" points="1526.5,-286.5 1526.5,-307.5 1703.5,-307.5 1703.5,-286.5 1526.5,-286.5"/>
<text text-anchor="start" x="1529.5" y="-293.3" font-family="Times New Roman,serif" font-size="14.00">dt_vap_model:motive_powers</text>
</a>
</g>
</g>
<!-- cluster_cluster_cluster_cluster_1514673138058506975&#45;3079338983303448848506612701516435356&#45;5611172677735166607&#45;1694690716081511724&#45;&gt;cluster_cluster_cluster_cluster_1514673138058506975&#45;3079338983303448848506612701516435356&#45;5611172677735166607&#45;992705794952703737 -->
<g id="edge9" class="edge"><title>cluster_cluster_cluster_cluster_1514673138058506975&#45;3079338983303448848506612701516435356&#45;5611172677735166607&#45;1694690716081511724&#45;&gt;cluster_cluster_cluster_cluster_1514673138058506975&#45;3079338983303448848506612701516435356&#45;5611172677735166607&#45;992705794952703737</title>
<path fill="none" stroke="black" d="M1612.67,-282.087C1612.67,-217.488 1612.67,-47 1612.67,-47 1612.67,-47 1133.66,-47 1133.66,-47"/>
<polygon fill="black" stroke="black" points="1133.66,-43.5001 1123.66,-47 1133.66,-50.5001 1133.66,-43.5001"/>
</g>
<!-- cluster_cluster_cluster_cluster_1514673138058506975&#45;3079338983303448848506612701516435356&#45;5611172677735166607&#45;1694690716081511724&#45;&gt;cluster_cluster_cluster_cluster_1514673138058506975&#45;3079338983303448848506612701516435356&#45;5611172677735166607&#45;412320468793053698 -->
<g id="edge10" class="edge"><title>cluster_cluster_cluster_cluster_1514673138058506975&#45;3079338983303448848506612701516435356&#45;5611172677735166607&#45;1694690716081511724&#45;&gt;cluster_cluster_cluster_cluster_1514673138058506975&#45;3079338983303448848506612701516435356&#45;5611172677735166607&#45;412320468793053698</title>
<path fill="none" stroke="black" d="M1514.33,-282.317C1514.33,-256.114 1514.33,-218 1514.33,-218 1514.33,-218 1117.74,-218 1117.74,-218"/>
<polygon fill="black" stroke="black" points="1117.74,-214.5 1107.74,-218 1117.74,-221.5 1117.74,-214.5"/>
</g>
<!-- cluster_cluster_cluster_cluster_1514673138058506975&#45;3079338983303448848506612701516435356&#45;5611172677735166607&#45;1825562924159530342 -->
<g id="node9" class="node"><title>cluster_cluster_cluster_cluster_1514673138058506975&#45;3079338983303448848506612701516435356&#45;5611172677735166607&#45;1825562924159530342</title>
<g id="a_node9"><a xlink:title="Time vector [s].">
<path fill="cyan" stroke="black" d="M1385.5,-330.5C1385.5,-330.5 1171.5,-330.5 1171.5,-330.5 1165.5,-330.5 1159.5,-324.5 1159.5,-318.5 1159.5,-318.5 1159.5,-294.5 1159.5,-294.5 1159.5,-288.5 1165.5,-282.5 1171.5,-282.5 1171.5,-282.5 1385.5,-282.5 1385.5,-282.5 1391.5,-282.5 1397.5,-288.5 1397.5,-294.5 1397.5,-294.5 1397.5,-318.5 1397.5,-318.5 1397.5,-324.5 1391.5,-330.5 1385.5,-330.5"/>
<text text-anchor="start" x="1263.5" y="-313.3" font-family="Times New Roman,serif" font-size="14.00">times</text>
<polygon fill="none" stroke="black" points="1167.5,-286.5 1167.5,-307.5 1269.5,-307.5 1269.5,-286.5 1167.5,-286.5"/>
<text text-anchor="start" x="1170.5" y="-293.3" font-family="Times New Roman,serif" font-size="14.00">remote parent 0=</text>
<polygon fill="none" stroke="black" points="1269.5,-286.5 1269.5,-307.5 1389.5,-307.5 1389.5,-286.5 1269.5,-286.5"/>
<text text-anchor="start" x="1272.5" y="-293.3" font-family="Times New Roman,serif" font-size="14.00">dt_vap_model:times</text>
</a>
</g>
</g>
<!-- cluster_cluster_cluster_cluster_1514673138058506975&#45;3079338983303448848506612701516435356&#45;5611172677735166607&#45;1825562924159530342&#45;&gt;cluster_cluster_cluster_cluster_1514673138058506975&#45;3079338983303448848506612701516435356&#45;5611172677735166607&#45;412320468793053698 -->
<g id="edge11" class="edge"><title>cluster_cluster_cluster_cluster_1514673138058506975&#45;3079338983303448848506612701516435356&#45;5611172677735166607&#45;1825562924159530342&#45;&gt;cluster_cluster_cluster_cluster_1514673138058506975&#45;3079338983303448848506612701516435356&#45;5611172677735166607&#45;412320468793053698</title>
<path fill="none" stroke="black" d="M1278.5,-282.215C1278.5,-258.836 1278.5,-227 1278.5,-227 1278.5,-227 1117.76,-227 1117.76,-227"/>
<polygon fill="black" stroke="black" points="1117.76,-223.5 1107.76,-227 1117.76,-230.5 1117.76,-223.5"/>
</g>
<!-- cluster_cluster_cluster_cluster_1514673138058506975&#45;3079338983303448848506612701516435356&#45;56111726777351666071395676110976739562 -->
<g id="node10" class="node"><title>cluster_cluster_cluster_cluster_1514673138058506975&#45;3079338983303448848506612701516435356&#45;56111726777351666071395676110976739562</title>
<g id="a_node10"><a xlink:title="Time series vectors.">
<path fill="cyan" stroke="black" d="M1977.5,-330.5C1977.5,-330.5 1741.5,-330.5 1741.5,-330.5 1735.5,-330.5 1729.5,-324.5 1729.5,-318.5 1729.5,-318.5 1729.5,-294.5 1729.5,-294.5 1729.5,-288.5 1735.5,-282.5 1741.5,-282.5 1741.5,-282.5 1977.5,-282.5 1977.5,-282.5 1983.5,-282.5 1989.5,-288.5 1989.5,-294.5 1989.5,-294.5 1989.5,-318.5 1989.5,-318.5 1989.5,-324.5 1983.5,-330.5 1977.5,-330.5"/>
<text text-anchor="start" x="1833.5" y="-313.3" font-family="Times New Roman,serif" font-size="14.00">velocities</text>
<polygon fill="none" stroke="black" points="1737.5,-286.5 1737.5,-307.5 1839.5,-307.5 1839.5,-286.5 1737.5,-286.5"/>
<text text-anchor="start" x="1740.5" y="-293.3" font-family="Times New Roman,serif" font-size="14.00">remote parent 0=</text>
<polygon fill="none" stroke="black" points="1839.5,-286.5 1839.5,-307.5 1981.5,-307.5 1981.5,-286.5 1839.5,-286.5"/>
<text text-anchor="start" x="1842.5" y="-293.3" font-family="Times New Roman,serif" font-size="14.00">dt_vap_model:velocities</text>
</a>
</g>
</g>
<!-- cluster_cluster_cluster_cluster_1514673138058506975&#45;3079338983303448848506612701516435356&#45;56111726777351666071395676110976739562&#45;&gt;cluster_cluster_cluster_cluster_1514673138058506975&#45;3079338983303448848506612701516435356&#45;5611172677735166607&#45;992705794952703737 -->
<g id="edge12" class="edge"><title>cluster_cluster_cluster_cluster_1514673138058506975&#45;3079338983303448848506612701516435356&#45;56111726777351666071395676110976739562&#45;&gt;cluster_cluster_cluster_cluster_1514673138058506975&#45;3079338983303448848506612701516435356&#45;5611172677735166607&#45;992705794952703737</title>
<path fill="none" stroke="black" d="M1902.83,-282.406C1902.83,-215.96 1902.83,-35 1902.83,-35 1902.83,-35 1133.55,-35 1133.55,-35"/>
<polygon fill="black" stroke="black" points="1133.55,-31.5001 1123.55,-35 1133.55,-38.5001 1133.55,-31.5001"/>
</g>
<!-- cluster_cluster_cluster_cluster_1514673138058506975&#45;3079338983303448848506612701516435356&#45;56111726777351666071395676110976739562&#45;&gt;cluster_cluster_cluster_cluster_1514673138058506975&#45;3079338983303448848506612701516435356&#45;5611172677735166607&#45;412320468793053698 -->
<g id="edge13" class="edge"><title>cluster_cluster_cluster_cluster_1514673138058506975&#45;3079338983303448848506612701516435356&#45;56111726777351666071395676110976739562&#45;&gt;cluster_cluster_cluster_cluster_1514673138058506975&#45;3079338983303448848506612701516435356&#45;5611172677735166607&#45;412320468793053698</title>
<path fill="none" stroke="black" d="M1816.17,-282.399C1816.17,-253.526 1816.17,-209 1816.17,-209 1816.17,-209 1117.61,-209 1117.61,-209"/>
<polygon fill="black" stroke="black" points="1117.61,-205.5 1107.61,-209 1117.61,-212.5 1117.61,-205.5"/>
</g>
</g>
</svg>
