<?xml version="1.0" encoding="UTF-8" standalone="no"?>
<!DOCTYPE svg PUBLIC "-//W3C//DTD SVG 1.1//EN"
 "http://www.w3.org/Graphics/SVG/1.1/DTD/svg11.dtd">
<!-- Generated by graphviz version 2.38.0 (20140413.2041)
 -->
<!-- Title: cluster_gspv_ch_model Pages: 1 -->
<svg width="3137pt" height="349pt"
 viewBox="0.00 0.00 3137.00 349.00" xmlns="http://www.w3.org/2000/svg" xmlns:xlink="http://www.w3.org/1999/xlink">
<g id="graph0" class="graph" transform="scale(1 1) rotate(0) translate(4 345)">
<title>cluster_gspv_ch_model</title>
<polygon fill="white" stroke="none" points="-4,4 -4,-345 3133,-345 3133,4 -4,4"/>
<text text-anchor="start" x="1519" y="-7.8" font-family="Times New Roman,serif" font-size="14.00">gspv_ch_model</text>
<!-- cluster_cluster_cluster_cluster_1514673138058506975&#45;3079338983303448848506612701516435356&#45;7416957092070699361267474688352407043 -->
<g id="node1" class="node"><title>cluster_cluster_cluster_cluster_1514673138058506975&#45;3079338983303448848506612701516435356&#45;7416957092070699361267474688352407043</title>
<g id="a_node1"><a xlink:title="A gear shifting matrix (cmv or gspv).">
<path fill="cyan" stroke="black" d="M306,-341C306,-341 12,-341 12,-341 6,-341 0,-335 0,-329 0,-329 0,-284 0,-284 0,-278 6,-272 12,-272 12,-272 306,-272 306,-272 312,-272 318,-278 318,-284 318,-284 318,-329 318,-329 318,-335 312,-341 306,-341"/>
<text text-anchor="start" x="108.5" y="-323.3" font-family="Times New Roman,serif" font-size="14.00">GSPV_Cold_Hot</text>
<polygon fill="none" stroke="black" points="8,-296.5 8,-317.5 110,-317.5 110,-296.5 8,-296.5"/>
<text text-anchor="start" x="19" y="-303.3" font-family="Times New Roman,serif" font-size="14.00">remote child 1=</text>
<polygon fill="none" stroke="black" points="110,-296.5 110,-317.5 310,-317.5 310,-296.5 110,-296.5"/>
<text text-anchor="start" x="113" y="-303.3" font-family="Times New Roman,serif" font-size="14.00">gspv_ch_model:GSPV_Cold_Hot</text>
<polygon fill="none" stroke="black" points="8,-275.5 8,-296.5 110,-296.5 110,-275.5 8,-275.5"/>
<text text-anchor="start" x="11" y="-282.3" font-family="Times New Roman,serif" font-size="14.00">remote parent 0=</text>
<polygon fill="none" stroke="black" points="110,-275.5 110,-296.5 310,-296.5 310,-275.5 110,-275.5"/>
<text text-anchor="start" x="113" y="-282.3" font-family="Times New Roman,serif" font-size="14.00">gspv_ch_model:GSPV_Cold_Hot</text>
</a>
</g>
</g>
<!-- cluster_cluster_cluster_cluster_1514673138058506975&#45;3079338983303448848506612701516435356&#45;7416957092070699367881524652768393119 -->
<g id="node4" class="node"><title>cluster_cluster_cluster_cluster_1514673138058506975&#45;3079338983303448848506612701516435356&#45;7416957092070699367881524652768393119</title>
<g id="a_node4"><a xlink:href="./../../../extract_calibrated_models/at_model_selector/AM-wltp_h_errors/AM-wltp_h_error_vs_wltp_h/Automatic_gear_model/cmv_ch_model/co2mpas.model.physical.gear_box.at_gearprediction_gears_gsm_hot_cold.txt" xlink:title="Predicts gears with a gear shifting matrix (cmv or gspv) for cold and hot &#160;&#160;&#160;&#160;phases [&#45;].">
<polygon fill="springgreen" stroke="black" points="1539,-236 1337,-236 1337,-200 1539,-200 1539,-236"/>
<text text-anchor="start" x="1347" y="-213.8" font-family="Times New Roman,serif" font-size="14.00">prediction_gears_gsm_hot_cold</text>
</a>
</g>
</g>
<!-- cluster_cluster_cluster_cluster_1514673138058506975&#45;3079338983303448848506612701516435356&#45;7416957092070699361267474688352407043&#45;&gt;cluster_cluster_cluster_cluster_1514673138058506975&#45;3079338983303448848506612701516435356&#45;7416957092070699367881524652768393119 -->
<g id="edge1" class="edge"><title>cluster_cluster_cluster_cluster_1514673138058506975&#45;3079338983303448848506612701516435356&#45;7416957092070699361267474688352407043&#45;&gt;cluster_cluster_cluster_cluster_1514673138058506975&#45;3079338983303448848506612701516435356&#45;7416957092070699367881524652768393119</title>
<path fill="none" stroke="black" d="M318.304,-279C654.186,-279 1404.33,-279 1404.33,-279 1404.33,-279 1404.33,-246.302 1404.33,-246.302"/>
<polygon fill="black" stroke="black" points="1407.83,-246.302 1404.33,-236.302 1400.83,-246.302 1407.83,-246.302"/>
</g>
<!-- cluster_cluster_cluster_cluster_1514673138058506975&#45;3079338983303448848506612701516435356&#45;741695709207069936&#45;6281391710310240799 -->
<g id="node2" class="node"><title>cluster_cluster_cluster_cluster_1514673138058506975&#45;3079338983303448848506612701516435356&#45;741695709207069936&#45;6281391710310240799</title>
<g id="a_node2"><a xlink:title="Vehicle acceleration [m/s2].">
<path fill="cyan" stroke="black" d="M2165,-330.5C2165,-330.5 1899,-330.5 1899,-330.5 1893,-330.5 1887,-324.5 1887,-318.5 1887,-318.5 1887,-294.5 1887,-294.5 1887,-288.5 1893,-282.5 1899,-282.5 1899,-282.5 2165,-282.5 2165,-282.5 2171,-282.5 2177,-288.5 2177,-294.5 2177,-294.5 2177,-318.5 2177,-318.5 2177,-324.5 2171,-330.5 2165,-330.5"/>
<text text-anchor="start" x="1995.5" y="-313.3" font-family="Times New Roman,serif" font-size="14.00">accelerations</text>
<polygon fill="none" stroke="black" points="1895,-286.5 1895,-307.5 1997,-307.5 1997,-286.5 1895,-286.5"/>
<text text-anchor="start" x="1898" y="-293.3" font-family="Times New Roman,serif" font-size="14.00">remote parent 0=</text>
<polygon fill="none" stroke="black" points="1997,-286.5 1997,-307.5 2169,-307.5 2169,-286.5 1997,-286.5"/>
<text text-anchor="start" x="2000" y="-293.3" font-family="Times New Roman,serif" font-size="14.00">gspv_ch_model:accelerations</text>
</a>
</g>
</g>
<!-- cluster_cluster_cluster_cluster_1514673138058506975&#45;3079338983303448848506612701516435356&#45;741695709207069936&#45;6281391710310240799&#45;&gt;cluster_cluster_cluster_cluster_1514673138058506975&#45;3079338983303448848506612701516435356&#45;7416957092070699367881524652768393119 -->
<g id="edge2" class="edge"><title>cluster_cluster_cluster_cluster_1514673138058506975&#45;3079338983303448848506612701516435356&#45;741695709207069936&#45;6281391710310240799&#45;&gt;cluster_cluster_cluster_cluster_1514673138058506975&#45;3079338983303448848506612701516435356&#45;7416957092070699367881524652768393119</title>
<path fill="none" stroke="black" d="M2032,-282.193C2032,-257.858 2032,-224 2032,-224 2032,-224 1549.1,-224 1549.1,-224"/>
<polygon fill="black" stroke="black" points="1549.1,-220.5 1539.1,-224 1549.1,-227.5 1549.1,-220.5"/>
</g>
<!-- cluster_cluster_cluster_cluster_1514673138058506975&#45;3079338983303448848506612701516435356&#45;741695709207069936&#45;5811787423577527659 -->
<g id="node3" class="node"><title>cluster_cluster_cluster_cluster_1514673138058506975&#45;3079338983303448848506612701516435356&#45;741695709207069936&#45;5811787423577527659</title>
<g id="a_node3"><a xlink:href="./../../../extract_calibrated_models/at_model_selector/AM-wltp_h_errors/AM-wltp_h_error_vs_wltp_h/Automatic_gear_model/gspv_ch_model/co2mpas.model.physical.gear_box.at_gearcalibrate_gspv_hot_cold.txt" xlink:title="Identifies gear shifting power velocity matrices for cold and hot phases.">
<polygon fill="springgreen" stroke="black" points="1179,-59 1019,-59 1019,-23 1179,-23 1179,-59"/>
<text text-anchor="start" x="1029.5" y="-36.8" font-family="Times New Roman,serif" font-size="14.00">calibrate_gspv_hot_cold</text>
</a>
</g>
</g>
<!-- cluster_cluster_cluster_cluster_1514673138058506975&#45;3079338983303448848506612701516435356&#45;741695709207069936&#45;5811787423577527659&#45;&gt;cluster_cluster_cluster_cluster_1514673138058506975&#45;3079338983303448848506612701516435356&#45;7416957092070699361267474688352407043 -->
<g id="edge3" class="edge"><title>cluster_cluster_cluster_cluster_1514673138058506975&#45;3079338983303448848506612701516435356&#45;741695709207069936&#45;5811787423577527659&#45;&gt;cluster_cluster_cluster_cluster_1514673138058506975&#45;3079338983303448848506612701516435356&#45;7416957092070699361267474688352407043</title>
<path fill="none" stroke="black" d="M1163.63,-59.3616C1163.63,-114.525 1163.63,-275 1163.63,-275 1163.63,-275 328.186,-275 328.186,-275"/>
<polygon fill="black" stroke="black" points="328.186,-271.5 318.186,-275 328.186,-278.5 328.186,-271.5"/>
</g>
<!-- cluster_cluster_cluster_cluster_1514673138058506975&#45;3079338983303448848506612701516435356&#45;7416957092070699365823726384603252559 -->
<g id="node8" class="node"><title>cluster_cluster_cluster_cluster_1514673138058506975&#45;3079338983303448848506612701516435356&#45;7416957092070699365823726384603252559</title>
<g id="a_node8"><a xlink:title="Gear vector [&#45;].">
<path fill="cyan" stroke="black" d="M1494.5,-164C1494.5,-164 1271.5,-164 1271.5,-164 1265.5,-164 1259.5,-158 1259.5,-152 1259.5,-152 1259.5,-107 1259.5,-107 1259.5,-101 1265.5,-95 1271.5,-95 1271.5,-95 1494.5,-95 1494.5,-95 1500.5,-95 1506.5,-101 1506.5,-107 1506.5,-107 1506.5,-152 1506.5,-152 1506.5,-158 1500.5,-164 1494.5,-164"/>
<text text-anchor="start" x="1368.5" y="-146.3" font-family="Times New Roman,serif" font-size="14.00">gears</text>
<polygon fill="none" stroke="black" points="1268,-119.5 1268,-140.5 1370,-140.5 1370,-119.5 1268,-119.5"/>
<text text-anchor="start" x="1279" y="-126.3" font-family="Times New Roman,serif" font-size="14.00">remote child 1=</text>
<polygon fill="none" stroke="black" points="1370,-119.5 1370,-140.5 1499,-140.5 1499,-119.5 1370,-119.5"/>
<text text-anchor="start" x="1373" y="-126.3" font-family="Times New Roman,serif" font-size="14.00">gspv_ch_model:gears</text>
<polygon fill="none" stroke="black" points="1268,-98.5 1268,-119.5 1370,-119.5 1370,-98.5 1268,-98.5"/>
<text text-anchor="start" x="1271" y="-105.3" font-family="Times New Roman,serif" font-size="14.00">remote parent 0=</text>
<polygon fill="none" stroke="black" points="1370,-98.5 1370,-119.5 1499,-119.5 1499,-98.5 1370,-98.5"/>
<text text-anchor="start" x="1373" y="-105.3" font-family="Times New Roman,serif" font-size="14.00">gspv_ch_model:gears</text>
</a>
</g>
</g>
<!-- cluster_cluster_cluster_cluster_1514673138058506975&#45;3079338983303448848506612701516435356&#45;7416957092070699367881524652768393119&#45;&gt;cluster_cluster_cluster_cluster_1514673138058506975&#45;3079338983303448848506612701516435356&#45;7416957092070699365823726384603252559 -->
<g id="edge4" class="edge"><title>cluster_cluster_cluster_cluster_1514673138058506975&#45;3079338983303448848506612701516435356&#45;7416957092070699367881524652768393119&#45;&gt;cluster_cluster_cluster_cluster_1514673138058506975&#45;3079338983303448848506612701516435356&#45;7416957092070699365823726384603252559</title>
<path fill="none" stroke="black" d="M1421.75,-199.663C1421.75,-199.663 1421.75,-174.269 1421.75,-174.269"/>
<polygon fill="black" stroke="black" points="1425.25,-174.269 1421.75,-164.269 1418.25,-174.269 1425.25,-174.269"/>
</g>
<!-- cluster_cluster_cluster_cluster_1514673138058506975&#45;3079338983303448848506612701516435356&#45;741695709207069936&#45;2328696801353446754 -->
<g id="node5" class="node"><title>cluster_cluster_cluster_cluster_1514673138058506975&#45;3079338983303448848506612701516435356&#45;741695709207069936&#45;2328696801353446754</title>
<g id="a_node5"><a xlink:title="A function to correct the gear predicted.">
<path fill="cyan" stroke="black" d="M2471,-330.5C2471,-330.5 2207,-330.5 2207,-330.5 2201,-330.5 2195,-324.5 2195,-318.5 2195,-318.5 2195,-294.5 2195,-294.5 2195,-288.5 2201,-282.5 2207,-282.5 2207,-282.5 2471,-282.5 2471,-282.5 2477,-282.5 2483,-288.5 2483,-294.5 2483,-294.5 2483,-318.5 2483,-318.5 2483,-324.5 2477,-330.5 2471,-330.5"/>
<text text-anchor="start" x="2303.5" y="-313.3" font-family="Times New Roman,serif" font-size="14.00">correct_gear</text>
<polygon fill="none" stroke="black" points="2203,-286.5 2203,-307.5 2305,-307.5 2305,-286.5 2203,-286.5"/>
<text text-anchor="start" x="2206" y="-293.3" font-family="Times New Roman,serif" font-size="14.00">remote parent 0=</text>
<polygon fill="none" stroke="black" points="2305,-286.5 2305,-307.5 2475,-307.5 2475,-286.5 2305,-286.5"/>
<text text-anchor="start" x="2308" y="-293.3" font-family="Times New Roman,serif" font-size="14.00">gspv_ch_model:correct_gear</text>
</a>
</g>
</g>
<!-- cluster_cluster_cluster_cluster_1514673138058506975&#45;3079338983303448848506612701516435356&#45;741695709207069936&#45;2328696801353446754&#45;&gt;cluster_cluster_cluster_cluster_1514673138058506975&#45;3079338983303448848506612701516435356&#45;7416957092070699367881524652768393119 -->
<g id="edge5" class="edge"><title>cluster_cluster_cluster_cluster_1514673138058506975&#45;3079338983303448848506612701516435356&#45;741695709207069936&#45;2328696801353446754&#45;&gt;cluster_cluster_cluster_cluster_1514673138058506975&#45;3079338983303448848506612701516435356&#45;7416957092070699367881524652768393119</title>
<path fill="none" stroke="black" d="M2339,-282.317C2339,-256.114 2339,-218 2339,-218 2339,-218 1549.17,-218 1549.17,-218"/>
<polygon fill="black" stroke="black" points="1549.17,-214.5 1539.17,-218 1549.17,-221.5 1549.17,-214.5"/>
</g>
<!-- cluster_cluster_cluster_cluster_1514673138058506975&#45;3079338983303448848506612701516435356&#45;7416957092070699363659860576675406351 -->
<g id="node6" class="node"><title>cluster_cluster_cluster_cluster_1514673138058506975&#45;3079338983303448848506612701516435356&#45;7416957092070699363659860576675406351</title>
<g id="a_node6"><a xlink:title="Cycle type (WLTP or NEDC).">
<path fill="cyan" stroke="black" d="M1565,-330.5C1565,-330.5 1311,-330.5 1311,-330.5 1305,-330.5 1299,-324.5 1299,-318.5 1299,-318.5 1299,-294.5 1299,-294.5 1299,-288.5 1305,-282.5 1311,-282.5 1311,-282.5 1565,-282.5 1565,-282.5 1571,-282.5 1577,-288.5 1577,-294.5 1577,-294.5 1577,-318.5 1577,-318.5 1577,-324.5 1571,-330.5 1565,-330.5"/>
<text text-anchor="start" x="1407.5" y="-313.3" font-family="Times New Roman,serif" font-size="14.00">cycle_type</text>
<polygon fill="none" stroke="black" points="1307,-286.5 1307,-307.5 1409,-307.5 1409,-286.5 1307,-286.5"/>
<text text-anchor="start" x="1310" y="-293.3" font-family="Times New Roman,serif" font-size="14.00">remote parent 0=</text>
<polygon fill="none" stroke="black" points="1409,-286.5 1409,-307.5 1569,-307.5 1569,-286.5 1409,-286.5"/>
<text text-anchor="start" x="1412" y="-293.3" font-family="Times New Roman,serif" font-size="14.00">gspv_ch_model:cycle_type</text>
</a>
</g>
</g>
<!-- cluster_cluster_cluster_cluster_1514673138058506975&#45;3079338983303448848506612701516435356&#45;7416957092070699363659860576675406351&#45;&gt;cluster_cluster_cluster_cluster_1514673138058506975&#45;3079338983303448848506612701516435356&#45;7416957092070699367881524652768393119 -->
<g id="edge6" class="edge"><title>cluster_cluster_cluster_cluster_1514673138058506975&#45;3079338983303448848506612701516435356&#45;7416957092070699363659860576675406351&#45;&gt;cluster_cluster_cluster_cluster_1514673138058506975&#45;3079338983303448848506612701516435356&#45;7416957092070699367881524652768393119</title>
<path fill="none" stroke="black" d="M1471.67,-282.317C1471.67,-282.317 1471.67,-246.257 1471.67,-246.257"/>
<polygon fill="black" stroke="black" points="1475.17,-246.257 1471.67,-236.257 1468.17,-246.257 1475.17,-246.257"/>
</g>
<!-- cluster_cluster_cluster_cluster_1514673138058506975&#45;3079338983303448848506612701516435356&#45;7416957092070699362896906763587689886 -->
<g id="node7" class="node"><title>cluster_cluster_cluster_cluster_1514673138058506975&#45;3079338983303448848506612701516435356&#45;7416957092070699362896906763587689886</title>
<g id="a_node7"><a xlink:title="Gear filter function.">
<path fill="cyan" stroke="black" d="M1856.5,-330.5C1856.5,-330.5 1607.5,-330.5 1607.5,-330.5 1601.5,-330.5 1595.5,-324.5 1595.5,-318.5 1595.5,-318.5 1595.5,-294.5 1595.5,-294.5 1595.5,-288.5 1601.5,-282.5 1607.5,-282.5 1607.5,-282.5 1856.5,-282.5 1856.5,-282.5 1862.5,-282.5 1868.5,-288.5 1868.5,-294.5 1868.5,-294.5 1868.5,-318.5 1868.5,-318.5 1868.5,-324.5 1862.5,-330.5 1856.5,-330.5"/>
<text text-anchor="start" x="1704.5" y="-313.3" font-family="Times New Roman,serif" font-size="14.00">gear_filter</text>
<polygon fill="none" stroke="black" points="1604,-286.5 1604,-307.5 1706,-307.5 1706,-286.5 1604,-286.5"/>
<text text-anchor="start" x="1607" y="-293.3" font-family="Times New Roman,serif" font-size="14.00">remote parent 0=</text>
<polygon fill="none" stroke="black" points="1706,-286.5 1706,-307.5 1861,-307.5 1861,-286.5 1706,-286.5"/>
<text text-anchor="start" x="1709" y="-293.3" font-family="Times New Roman,serif" font-size="14.00">gspv_ch_model:gear_filter</text>
</a>
</g>
</g>
<!-- cluster_cluster_cluster_cluster_1514673138058506975&#45;3079338983303448848506612701516435356&#45;7416957092070699362896906763587689886&#45;&gt;cluster_cluster_cluster_cluster_1514673138058506975&#45;3079338983303448848506612701516435356&#45;7416957092070699367881524652768393119 -->
<g id="edge7" class="edge"><title>cluster_cluster_cluster_cluster_1514673138058506975&#45;3079338983303448848506612701516435356&#45;7416957092070699362896906763587689886&#45;&gt;cluster_cluster_cluster_cluster_1514673138058506975&#45;3079338983303448848506612701516435356&#45;7416957092070699367881524652768393119</title>
<path fill="none" stroke="black" d="M1732,-282.295C1732,-259.883 1732,-230 1732,-230 1732,-230 1549.18,-230 1549.18,-230"/>
<polygon fill="black" stroke="black" points="1549.18,-226.5 1539.18,-230 1549.18,-233.5 1549.18,-226.5"/>
</g>
<!-- cluster_cluster_cluster_cluster_1514673138058506975&#45;3079338983303448848506612701516435356&#45;7416957092070699365823726384603252559&#45;&gt;cluster_cluster_cluster_cluster_1514673138058506975&#45;3079338983303448848506612701516435356&#45;741695709207069936&#45;5811787423577527659 -->
<g id="edge8" class="edge"><title>cluster_cluster_cluster_cluster_1514673138058506975&#45;3079338983303448848506612701516435356&#45;7416957092070699365823726384603252559&#45;&gt;cluster_cluster_cluster_cluster_1514673138058506975&#45;3079338983303448848506612701516435356&#45;741695709207069936&#45;5811787423577527659</title>
<path fill="none" stroke="black" d="M1259.24,-100C1214.08,-100 1173.88,-100 1173.88,-100 1173.88,-100 1173.88,-69.0225 1173.88,-69.0225"/>
<polygon fill="black" stroke="black" points="1177.38,-69.0225 1173.88,-59.0225 1170.38,-69.0226 1177.38,-69.0225"/>
</g>
<!-- cluster_cluster_cluster_cluster_1514673138058506975&#45;3079338983303448848506612701516435356&#45;741695709207069936&#45;1694690716081511724 -->
<g id="node9" class="node"><title>cluster_cluster_cluster_cluster_1514673138058506975&#45;3079338983303448848506612701516435356&#45;741695709207069936&#45;1694690716081511724</title>
<g id="a_node9"><a xlink:title="Power at wheels vector [kW].">
<path fill="cyan" stroke="black" d="M628,-330.5C628,-330.5 348,-330.5 348,-330.5 342,-330.5 336,-324.5 336,-318.5 336,-318.5 336,-294.5 336,-294.5 336,-288.5 342,-282.5 348,-282.5 348,-282.5 628,-282.5 628,-282.5 634,-282.5 640,-288.5 640,-294.5 640,-294.5 640,-318.5 640,-318.5 640,-324.5 634,-330.5 628,-330.5"/>
<text text-anchor="start" x="444.5" y="-313.3" font-family="Times New Roman,serif" font-size="14.00">motive_powers</text>
<polygon fill="none" stroke="black" points="344,-286.5 344,-307.5 446,-307.5 446,-286.5 344,-286.5"/>
<text text-anchor="start" x="347" y="-293.3" font-family="Times New Roman,serif" font-size="14.00">remote parent 0=</text>
<polygon fill="none" stroke="black" points="446,-286.5 446,-307.5 632,-307.5 632,-286.5 446,-286.5"/>
<text text-anchor="start" x="449" y="-293.3" font-family="Times New Roman,serif" font-size="14.00">gspv_ch_model:motive_powers</text>
</a>
</g>
</g>
<!-- cluster_cluster_cluster_cluster_1514673138058506975&#45;3079338983303448848506612701516435356&#45;741695709207069936&#45;1694690716081511724&#45;&gt;cluster_cluster_cluster_cluster_1514673138058506975&#45;3079338983303448848506612701516435356&#45;741695709207069936&#45;5811787423577527659 -->
<g id="edge9" class="edge"><title>cluster_cluster_cluster_cluster_1514673138058506975&#45;3079338983303448848506612701516435356&#45;741695709207069936&#45;1694690716081511724&#45;&gt;cluster_cluster_cluster_cluster_1514673138058506975&#45;3079338983303448848506612701516435356&#45;741695709207069936&#45;5811787423577527659</title>
<path fill="none" stroke="black" d="M437.333,-282.406C437.333,-215.96 437.333,-35 437.333,-35 437.333,-35 1008.86,-35 1008.86,-35"/>
<polygon fill="black" stroke="black" points="1008.86,-38.5001 1018.86,-35 1008.86,-31.5001 1008.86,-38.5001"/>
</g>
<!-- cluster_cluster_cluster_cluster_1514673138058506975&#45;3079338983303448848506612701516435356&#45;741695709207069936&#45;1694690716081511724&#45;&gt;cluster_cluster_cluster_cluster_1514673138058506975&#45;3079338983303448848506612701516435356&#45;7416957092070699367881524652768393119 -->
<g id="edge10" class="edge"><title>cluster_cluster_cluster_cluster_1514673138058506975&#45;3079338983303448848506612701516435356&#45;741695709207069936&#45;1694690716081511724&#45;&gt;cluster_cluster_cluster_cluster_1514673138058506975&#45;3079338983303448848506612701516435356&#45;7416957092070699367881524652768393119</title>
<path fill="none" stroke="black" d="M538.667,-282.399C538.667,-253.526 538.667,-209 538.667,-209 538.667,-209 1326.58,-209 1326.58,-209"/>
<polygon fill="black" stroke="black" points="1326.58,-212.5 1336.58,-209 1326.58,-205.5 1326.58,-212.5"/>
</g>
<!-- cluster_cluster_cluster_cluster_1514673138058506975&#45;3079338983303448848506612701516435356&#45;741695709207069936&#45;3822089204281359213 -->
<g id="node10" class="node"><title>cluster_cluster_cluster_cluster_1514673138058506975&#45;3079338983303448848506612701516435356&#45;741695709207069936&#45;3822089204281359213</title>
<g id="a_node10"><a xlink:title="Maximum velocity to consider the vehicle stopped [km/h].">
<path fill="cyan" stroke="black" d="M1146.5,-153.5C1146.5,-153.5 877.5,-153.5 877.5,-153.5 871.5,-153.5 865.5,-147.5 865.5,-141.5 865.5,-141.5 865.5,-117.5 865.5,-117.5 865.5,-111.5 871.5,-105.5 877.5,-105.5 877.5,-105.5 1146.5,-105.5 1146.5,-105.5 1152.5,-105.5 1158.5,-111.5 1158.5,-117.5 1158.5,-117.5 1158.5,-141.5 1158.5,-141.5 1158.5,-147.5 1152.5,-153.5 1146.5,-153.5"/>
<text text-anchor="start" x="974.5" y="-136.3" font-family="Times New Roman,serif" font-size="14.00">stop_velocity</text>
<polygon fill="none" stroke="black" points="874,-109.5 874,-130.5 976,-130.5 976,-109.5 874,-109.5"/>
<text text-anchor="start" x="877" y="-116.3" font-family="Times New Roman,serif" font-size="14.00">remote parent 0=</text>
<polygon fill="none" stroke="black" points="976,-109.5 976,-130.5 1151,-130.5 1151,-109.5 976,-109.5"/>
<text text-anchor="start" x="979" y="-116.3" font-family="Times New Roman,serif" font-size="14.00">gspv_ch_model:stop_velocity</text>
</a>
</g>
</g>
<!-- cluster_cluster_cluster_cluster_1514673138058506975&#45;3079338983303448848506612701516435356&#45;741695709207069936&#45;3822089204281359213&#45;&gt;cluster_cluster_cluster_cluster_1514673138058506975&#45;3079338983303448848506612701516435356&#45;741695709207069936&#45;5811787423577527659 -->
<g id="edge11" class="edge"><title>cluster_cluster_cluster_cluster_1514673138058506975&#45;3079338983303448848506612701516435356&#45;741695709207069936&#45;3822089204281359213&#45;&gt;cluster_cluster_cluster_cluster_1514673138058506975&#45;3079338983303448848506612701516435356&#45;741695709207069936&#45;5811787423577527659</title>
<path fill="none" stroke="black" d="M1088.75,-105.317C1088.75,-105.317 1088.75,-69.2568 1088.75,-69.2568"/>
<polygon fill="black" stroke="black" points="1092.25,-69.2567 1088.75,-59.2568 1085.25,-69.2568 1092.25,-69.2567"/>
</g>
<!-- cluster_cluster_cluster_cluster_1514673138058506975&#45;3079338983303448848506612701516435356&#45;7416957092070699367903879806296393403 -->
<g id="node11" class="node"><title>cluster_cluster_cluster_cluster_1514673138058506975&#45;3079338983303448848506612701516435356&#45;7416957092070699367903879806296393403</title>
<g id="a_node11"><a xlink:title="Time at cold hot transition phase [s].">
<path fill="cyan" stroke="black" d="M1003.5,-330.5C1003.5,-330.5 670.5,-330.5 670.5,-330.5 664.5,-330.5 658.5,-324.5 658.5,-318.5 658.5,-318.5 658.5,-294.5 658.5,-294.5 658.5,-288.5 664.5,-282.5 670.5,-282.5 670.5,-282.5 1003.5,-282.5 1003.5,-282.5 1009.5,-282.5 1015.5,-288.5 1015.5,-294.5 1015.5,-294.5 1015.5,-318.5 1015.5,-318.5 1015.5,-324.5 1009.5,-330.5 1003.5,-330.5"/>
<text text-anchor="start" x="767.5" y="-313.3" font-family="Times New Roman,serif" font-size="14.00">time_cold_hot_transition</text>
<polygon fill="none" stroke="black" points="667,-286.5 667,-307.5 769,-307.5 769,-286.5 667,-286.5"/>
<text text-anchor="start" x="670" y="-293.3" font-family="Times New Roman,serif" font-size="14.00">remote parent 0=</text>
<polygon fill="none" stroke="black" points="769,-286.5 769,-307.5 1008,-307.5 1008,-286.5 769,-286.5"/>
<text text-anchor="start" x="772" y="-293.3" font-family="Times New Roman,serif" font-size="14.00">gspv_ch_model:time_cold_hot_transition</text>
</a>
</g>
</g>
<!-- cluster_cluster_cluster_cluster_1514673138058506975&#45;3079338983303448848506612701516435356&#45;7416957092070699367903879806296393403&#45;&gt;cluster_cluster_cluster_cluster_1514673138058506975&#45;3079338983303448848506612701516435356&#45;741695709207069936&#45;5811787423577527659 -->
<g id="edge12" class="edge"><title>cluster_cluster_cluster_cluster_1514673138058506975&#45;3079338983303448848506612701516435356&#45;7416957092070699367903879806296393403&#45;&gt;cluster_cluster_cluster_cluster_1514673138058506975&#45;3079338983303448848506612701516435356&#45;741695709207069936&#45;5811787423577527659</title>
<path fill="none" stroke="black" d="M762,-282.087C762,-217.488 762,-47 762,-47 762,-47 1008.71,-47 1008.71,-47"/>
<polygon fill="black" stroke="black" points="1008.71,-50.5001 1018.71,-47 1008.71,-43.5001 1008.71,-50.5001"/>
</g>
<!-- cluster_cluster_cluster_cluster_1514673138058506975&#45;3079338983303448848506612701516435356&#45;7416957092070699367903879806296393403&#45;&gt;cluster_cluster_cluster_cluster_1514673138058506975&#45;3079338983303448848506612701516435356&#45;7416957092070699367881524652768393119 -->
<g id="edge13" class="edge"><title>cluster_cluster_cluster_cluster_1514673138058506975&#45;3079338983303448848506612701516435356&#45;7416957092070699367903879806296393403&#45;&gt;cluster_cluster_cluster_cluster_1514673138058506975&#45;3079338983303448848506612701516435356&#45;7416957092070699367881524652768393119</title>
<path fill="none" stroke="black" d="M940.5,-282.317C940.5,-256.114 940.5,-218 940.5,-218 940.5,-218 1326.72,-218 1326.72,-218"/>
<polygon fill="black" stroke="black" points="1326.72,-221.5 1336.72,-218 1326.72,-214.5 1326.72,-221.5"/>
</g>
<!-- cluster_cluster_cluster_cluster_1514673138058506975&#45;3079338983303448848506612701516435356&#45;741695709207069936&#45;1825562924159530342 -->
<g id="node12" class="node"><title>cluster_cluster_cluster_cluster_1514673138058506975&#45;3079338983303448848506612701516435356&#45;741695709207069936&#45;1825562924159530342</title>
<g id="a_node12"><a xlink:title="Time vector [s].">
<path fill="cyan" stroke="black" d="M1268.5,-330.5C1268.5,-330.5 1045.5,-330.5 1045.5,-330.5 1039.5,-330.5 1033.5,-324.5 1033.5,-318.5 1033.5,-318.5 1033.5,-294.5 1033.5,-294.5 1033.5,-288.5 1039.5,-282.5 1045.5,-282.5 1045.5,-282.5 1268.5,-282.5 1268.5,-282.5 1274.5,-282.5 1280.5,-288.5 1280.5,-294.5 1280.5,-294.5 1280.5,-318.5 1280.5,-318.5 1280.5,-324.5 1274.5,-330.5 1268.5,-330.5"/>
<text text-anchor="start" x="1142.5" y="-313.3" font-family="Times New Roman,serif" font-size="14.00">times</text>
<polygon fill="none" stroke="black" points="1042,-286.5 1042,-307.5 1144,-307.5 1144,-286.5 1042,-286.5"/>
<text text-anchor="start" x="1045" y="-293.3" font-family="Times New Roman,serif" font-size="14.00">remote parent 0=</text>
<polygon fill="none" stroke="black" points="1144,-286.5 1144,-307.5 1273,-307.5 1273,-286.5 1144,-286.5"/>
<text text-anchor="start" x="1147" y="-293.3" font-family="Times New Roman,serif" font-size="14.00">gspv_ch_model:times</text>
</a>
</g>
</g>
<!-- cluster_cluster_cluster_cluster_1514673138058506975&#45;3079338983303448848506612701516435356&#45;741695709207069936&#45;1825562924159530342&#45;&gt;cluster_cluster_cluster_cluster_1514673138058506975&#45;3079338983303448848506612701516435356&#45;741695709207069936&#45;5811787423577527659 -->
<g id="edge14" class="edge"><title>cluster_cluster_cluster_cluster_1514673138058506975&#45;3079338983303448848506612701516435356&#45;741695709207069936&#45;1825562924159530342&#45;&gt;cluster_cluster_cluster_cluster_1514673138058506975&#45;3079338983303448848506612701516435356&#45;741695709207069936&#45;5811787423577527659</title>
<path fill="none" stroke="black" d="M1168.75,-282.47C1168.75,-282.47 1168.75,-69.0174 1168.75,-69.0174"/>
<polygon fill="black" stroke="black" points="1172.25,-69.0174 1168.75,-59.0174 1165.25,-69.0174 1172.25,-69.0174"/>
</g>
<!-- cluster_cluster_cluster_cluster_1514673138058506975&#45;3079338983303448848506612701516435356&#45;741695709207069936&#45;1825562924159530342&#45;&gt;cluster_cluster_cluster_cluster_1514673138058506975&#45;3079338983303448848506612701516435356&#45;7416957092070699367881524652768393119 -->
<g id="edge15" class="edge"><title>cluster_cluster_cluster_cluster_1514673138058506975&#45;3079338983303448848506612701516435356&#45;741695709207069936&#45;1825562924159530342&#45;&gt;cluster_cluster_cluster_cluster_1514673138058506975&#45;3079338983303448848506612701516435356&#45;7416957092070699367881524652768393119</title>
<path fill="none" stroke="black" d="M1270,-282.215C1270,-258.836 1270,-227 1270,-227 1270,-227 1326.88,-227 1326.88,-227"/>
<polygon fill="black" stroke="black" points="1326.88,-230.5 1336.88,-227 1326.88,-223.5 1326.88,-230.5"/>
</g>
<!-- cluster_cluster_cluster_cluster_1514673138058506975&#45;3079338983303448848506612701516435356&#45;7416957092070699361395676110976739562 -->
<g id="node13" class="node"><title>cluster_cluster_cluster_cluster_1514673138058506975&#45;3079338983303448848506612701516435356&#45;7416957092070699361395676110976739562</title>
<g id="a_node13"><a xlink:title="Vehicle velocity [km/h].">
<path fill="cyan" stroke="black" d="M2758.5,-330.5C2758.5,-330.5 2513.5,-330.5 2513.5,-330.5 2507.5,-330.5 2501.5,-324.5 2501.5,-318.5 2501.5,-318.5 2501.5,-294.5 2501.5,-294.5 2501.5,-288.5 2507.5,-282.5 2513.5,-282.5 2513.5,-282.5 2758.5,-282.5 2758.5,-282.5 2764.5,-282.5 2770.5,-288.5 2770.5,-294.5 2770.5,-294.5 2770.5,-318.5 2770.5,-318.5 2770.5,-324.5 2764.5,-330.5 2758.5,-330.5"/>
<text text-anchor="start" x="2610.5" y="-313.3" font-family="Times New Roman,serif" font-size="14.00">velocities</text>
<polygon fill="none" stroke="black" points="2510,-286.5 2510,-307.5 2612,-307.5 2612,-286.5 2510,-286.5"/>
<text text-anchor="start" x="2513" y="-293.3" font-family="Times New Roman,serif" font-size="14.00">remote parent 0=</text>
<polygon fill="none" stroke="black" points="2612,-286.5 2612,-307.5 2763,-307.5 2763,-286.5 2612,-286.5"/>
<text text-anchor="start" x="2615" y="-293.3" font-family="Times New Roman,serif" font-size="14.00">gspv_ch_model:velocities</text>
</a>
</g>
</g>
<!-- cluster_cluster_cluster_cluster_1514673138058506975&#45;3079338983303448848506612701516435356&#45;7416957092070699361395676110976739562&#45;&gt;cluster_cluster_cluster_cluster_1514673138058506975&#45;3079338983303448848506612701516435356&#45;741695709207069936&#45;5811787423577527659 -->
<g id="edge16" class="edge"><title>cluster_cluster_cluster_cluster_1514673138058506975&#45;3079338983303448848506612701516435356&#45;7416957092070699361395676110976739562&#45;&gt;cluster_cluster_cluster_cluster_1514673138058506975&#45;3079338983303448848506612701516435356&#45;741695709207069936&#45;5811787423577527659</title>
<path fill="none" stroke="black" d="M2680.83,-282.087C2680.83,-217.488 2680.83,-47 2680.83,-47 2680.83,-47 1189.07,-47 1189.07,-47"/>
<polygon fill="black" stroke="black" points="1189.07,-43.5001 1179.07,-47 1189.07,-50.5001 1189.07,-43.5001"/>
</g>
<!-- cluster_cluster_cluster_cluster_1514673138058506975&#45;3079338983303448848506612701516435356&#45;7416957092070699361395676110976739562&#45;&gt;cluster_cluster_cluster_cluster_1514673138058506975&#45;3079338983303448848506612701516435356&#45;7416957092070699367881524652768393119 -->
<g id="edge17" class="edge"><title>cluster_cluster_cluster_cluster_1514673138058506975&#45;3079338983303448848506612701516435356&#45;7416957092070699361395676110976739562&#45;&gt;cluster_cluster_cluster_cluster_1514673138058506975&#45;3079338983303448848506612701516435356&#45;7416957092070699367881524652768393119</title>
<path fill="none" stroke="black" d="M2591.17,-282.164C2591.17,-254.164 2591.17,-212 2591.17,-212 2591.17,-212 1549.07,-212 1549.07,-212"/>
<polygon fill="black" stroke="black" points="1549.07,-208.5 1539.07,-212 1549.07,-215.5 1549.07,-208.5"/>
</g>
<!-- cluster_cluster_cluster_cluster_1514673138058506975&#45;3079338983303448848506612701516435356&#45;7416957092070699365551426227045653540 -->
<g id="node14" class="node"><title>cluster_cluster_cluster_cluster_1514673138058506975&#45;3079338983303448848506612701516435356&#45;7416957092070699365551426227045653540</title>
<g id="a_node14"><a xlink:title="Constant velocity speed ratios of the gear box [km/(h*RPM)].">
<path fill="cyan" stroke="black" d="M3117,-330.5C3117,-330.5 2801,-330.5 2801,-330.5 2795,-330.5 2789,-324.5 2789,-318.5 2789,-318.5 2789,-294.5 2789,-294.5 2789,-288.5 2795,-282.5 2801,-282.5 2801,-282.5 3117,-282.5 3117,-282.5 3123,-282.5 3129,-288.5 3129,-294.5 3129,-294.5 3129,-318.5 3129,-318.5 3129,-324.5 3123,-330.5 3117,-330.5"/>
<text text-anchor="start" x="2897.5" y="-313.3" font-family="Times New Roman,serif" font-size="14.00">velocity_speed_ratios</text>
<polygon fill="none" stroke="black" points="2797,-286.5 2797,-307.5 2899,-307.5 2899,-286.5 2797,-286.5"/>
<text text-anchor="start" x="2800" y="-293.3" font-family="Times New Roman,serif" font-size="14.00">remote parent 0=</text>
<polygon fill="none" stroke="black" points="2899,-286.5 2899,-307.5 3121,-307.5 3121,-286.5 2899,-286.5"/>
<text text-anchor="start" x="2902" y="-293.3" font-family="Times New Roman,serif" font-size="14.00">gspv_ch_model:velocity_speed_ratios</text>
</a>
</g>
</g>
<!-- cluster_cluster_cluster_cluster_1514673138058506975&#45;3079338983303448848506612701516435356&#45;7416957092070699365551426227045653540&#45;&gt;cluster_cluster_cluster_cluster_1514673138058506975&#45;3079338983303448848506612701516435356&#45;741695709207069936&#45;5811787423577527659 -->
<g id="edge18" class="edge"><title>cluster_cluster_cluster_cluster_1514673138058506975&#45;3079338983303448848506612701516435356&#45;7416957092070699365551426227045653540&#45;&gt;cluster_cluster_cluster_cluster_1514673138058506975&#45;3079338983303448848506612701516435356&#45;741695709207069936&#45;5811787423577527659</title>
<path fill="none" stroke="black" d="M3015.67,-282.406C3015.67,-215.96 3015.67,-35 3015.67,-35 3015.67,-35 1189.22,-35 1189.22,-35"/>
<polygon fill="black" stroke="black" points="1189.22,-31.5001 1179.22,-35 1189.22,-38.5001 1189.22,-31.5001"/>
</g>
<!-- cluster_cluster_cluster_cluster_1514673138058506975&#45;3079338983303448848506612701516435356&#45;7416957092070699365551426227045653540&#45;&gt;cluster_cluster_cluster_cluster_1514673138058506975&#45;3079338983303448848506612701516435356&#45;7416957092070699367881524652768393119 -->
<g id="edge19" class="edge"><title>cluster_cluster_cluster_cluster_1514673138058506975&#45;3079338983303448848506612701516435356&#45;7416957092070699365551426227045653540&#45;&gt;cluster_cluster_cluster_cluster_1514673138058506975&#45;3079338983303448848506612701516435356&#45;7416957092070699367881524652768393119</title>
<path fill="none" stroke="black" d="M2902.33,-282.428C2902.33,-252.696 2902.33,-206 2902.33,-206 2902.33,-206 1549.23,-206 1549.23,-206"/>
<polygon fill="black" stroke="black" points="1549.23,-202.5 1539.23,-206 1549.23,-209.5 1549.23,-202.5"/>
</g>
</g>
</svg>
