<?xml version="1.0" encoding="UTF-8" standalone="no"?>
<!DOCTYPE svg PUBLIC "-//W3C//DTD SVG 1.1//EN"
 "http://www.w3.org/Graphics/SVG/1.1/DTD/svg11.dtd">
<!-- Generated by graphviz version 2.38.0 (20140413.2041)
 -->
<!-- Title: cluster_thermal Pages: 1 -->
<svg width="1174pt" height="211pt"
 viewBox="0.00 0.00 1174.00 211.00" xmlns="http://www.w3.org/2000/svg" xmlns:xlink="http://www.w3.org/1999/xlink">
<g id="graph0" class="graph" transform="scale(1 1) rotate(0) translate(4 207)">
<title>cluster_thermal</title>
<polygon fill="white" stroke="none" points="-4,4 -4,-207 1170,-207 1170,4 -4,4"/>
<text text-anchor="start" x="562.5" y="-7.8" font-family="Times New Roman,serif" font-size="14.00">thermal</text>
<!-- cluster_cluster_cluster_cluster_cluster_&#45;2202121249019829706&#45;479780191531757221339636171216110337973957706717811189770&#45;4550022493711751183&#45;6281391710310240799 -->
<g id="node1" class="node"><title>cluster_cluster_cluster_cluster_cluster_&#45;2202121249019829706&#45;479780191531757221339636171216110337973957706717811189770&#45;4550022493711751183&#45;6281391710310240799</title>
<g id="a_node1"><a xlink:title="Acceleration vector [m/s2].">
<path fill="cyan" stroke="black" d="M82,-203C82,-203 12,-203 12,-203 6,-203 -7.10543e-015,-197 -7.10543e-015,-191 -7.10543e-015,-191 -7.10543e-015,-179 -7.10543e-015,-179 -7.10543e-015,-173 6,-167 12,-167 12,-167 82,-167 82,-167 88,-167 94,-173 94,-179 94,-179 94,-191 94,-191 94,-197 88,-203 82,-203"/>
<text text-anchor="start" x="10.5" y="-180.8" font-family="Times New Roman,serif" font-size="14.00">accelerations</text>
</a>
</g>
</g>
<!-- cluster_cluster_cluster_cluster_cluster_&#45;2202121249019829706&#45;479780191531757221339636171216110337973957706717811189770&#45;45500224937117511838376316735024008210 -->
<g id="node2" class="node"><title>cluster_cluster_cluster_cluster_cluster_&#45;2202121249019829706&#45;479780191531757221339636171216110337973957706717811189770&#45;45500224937117511838376316735024008210</title>
<g id="a_node2"><a xlink:href="./thermal/co2mpas.model.physical.engine.thermalpredict_engine_coolant_temperatures.txt" xlink:title="Predicts the engine temperature [째C].">
<polygon fill="springgreen" stroke="black" points="726,-131 496,-131 496,-95 726,-95 726,-131"/>
<text text-anchor="start" x="506" y="-108.8" font-family="Times New Roman,serif" font-size="14.00">predict_engine_coolant_temperatures</text>
</a>
</g>
</g>
<!-- cluster_cluster_cluster_cluster_cluster_&#45;2202121249019829706&#45;479780191531757221339636171216110337973957706717811189770&#45;4550022493711751183&#45;6281391710310240799&#45;&gt;cluster_cluster_cluster_cluster_cluster_&#45;2202121249019829706&#45;479780191531757221339636171216110337973957706717811189770&#45;45500224937117511838376316735024008210 -->
<g id="edge1" class="edge"><title>cluster_cluster_cluster_cluster_cluster_&#45;2202121249019829706&#45;479780191531757221339636171216110337973957706717811189770&#45;4550022493711751183&#45;6281391710310240799&#45;&gt;cluster_cluster_cluster_cluster_cluster_&#45;2202121249019829706&#45;479780191531757221339636171216110337973957706717811189770&#45;45500224937117511838376316735024008210</title>
<path fill="none" stroke="black" d="M47,-166.909C47,-143.867 47,-107 47,-107 47,-107 485.846,-107 485.846,-107"/>
<polygon fill="black" stroke="black" points="485.846,-110.5 495.846,-107 485.846,-103.5 485.846,-110.5"/>
</g>
<!-- cluster_cluster_cluster_cluster_cluster_&#45;2202121249019829706&#45;479780191531757221339636171216110337973957706717811189770&#45;45500224937117511834429227571388341383 -->
<g id="node3" class="node"><title>cluster_cluster_cluster_cluster_cluster_&#45;2202121249019829706&#45;479780191531757221339636171216110337973957706717811189770&#45;45500224937117511834429227571388341383</title>
<g id="a_node3"><a xlink:title="Engine coolant temperature vector [째C].">
<path fill="cyan" stroke="black" d="M691,-59C691,-59 531,-59 531,-59 525,-59 519,-53 519,-47 519,-47 519,-35 519,-35 519,-29 525,-23 531,-23 531,-23 691,-23 691,-23 697,-23 703,-29 703,-35 703,-35 703,-47 703,-47 703,-53 697,-59 691,-59"/>
<text text-anchor="start" x="529.5" y="-36.8" font-family="Times New Roman,serif" font-size="14.00">engine_coolant_temperatures</text>
</a>
</g>
</g>
<!-- cluster_cluster_cluster_cluster_cluster_&#45;2202121249019829706&#45;479780191531757221339636171216110337973957706717811189770&#45;45500224937117511838376316735024008210&#45;&gt;cluster_cluster_cluster_cluster_cluster_&#45;2202121249019829706&#45;479780191531757221339636171216110337973957706717811189770&#45;45500224937117511834429227571388341383 -->
<g id="edge2" class="edge"><title>cluster_cluster_cluster_cluster_cluster_&#45;2202121249019829706&#45;479780191531757221339636171216110337973957706717811189770&#45;45500224937117511838376316735024008210&#45;&gt;cluster_cluster_cluster_cluster_cluster_&#45;2202121249019829706&#45;479780191531757221339636171216110337973957706717811189770&#45;45500224937117511834429227571388341383</title>
<path fill="none" stroke="black" d="M611,-94.8314C611,-94.8314 611,-69.4133 611,-69.4133"/>
<polygon fill="black" stroke="black" points="614.5,-69.4132 611,-59.4133 607.5,-69.4133 614.5,-69.4132"/>
</g>
<!-- cluster_cluster_cluster_cluster_cluster_&#45;2202121249019829706&#45;479780191531757221339636171216110337973957706717811189770&#45;4550022493711751183&#45;3168126550270477918 -->
<g id="node4" class="node"><title>cluster_cluster_cluster_cluster_cluster_&#45;2202121249019829706&#45;479780191531757221339636171216110337973957706717811189770&#45;4550022493711751183&#45;3168126550270477918</title>
<g id="a_node4"><a xlink:title="Engine speed at hot condition [RPM].">
<path fill="cyan" stroke="black" d="M254,-203C254,-203 124,-203 124,-203 118,-203 112,-197 112,-191 112,-191 112,-179 112,-179 112,-173 118,-167 124,-167 124,-167 254,-167 254,-167 260,-167 266,-173 266,-179 266,-179 266,-191 266,-191 266,-197 260,-203 254,-203"/>
<text text-anchor="start" x="122.5" y="-180.8" font-family="Times New Roman,serif" font-size="14.00">engine_speeds_out_hot</text>
</a>
</g>
</g>
<!-- cluster_cluster_cluster_cluster_cluster_&#45;2202121249019829706&#45;479780191531757221339636171216110337973957706717811189770&#45;4550022493711751183&#45;3168126550270477918&#45;&gt;cluster_cluster_cluster_cluster_cluster_&#45;2202121249019829706&#45;479780191531757221339636171216110337973957706717811189770&#45;45500224937117511838376316735024008210 -->
<g id="edge3" class="edge"><title>cluster_cluster_cluster_cluster_cluster_&#45;2202121249019829706&#45;479780191531757221339636171216110337973957706717811189770&#45;4550022493711751183&#45;3168126550270477918&#45;&gt;cluster_cluster_cluster_cluster_cluster_&#45;2202121249019829706&#45;479780191531757221339636171216110337973957706717811189770&#45;45500224937117511838376316735024008210</title>
<path fill="none" stroke="black" d="M189,-166.965C189,-147.424 189,-119 189,-119 189,-119 485.965,-119 485.965,-119"/>
<polygon fill="black" stroke="black" points="485.965,-122.5 495.965,-119 485.965,-115.5 485.965,-122.5"/>
</g>
<!-- cluster_cluster_cluster_cluster_cluster_&#45;2202121249019829706&#45;479780191531757221339636171216110337973957706717811189770&#45;45500224937117511836492424101733310858 -->
<g id="node5" class="node"><title>cluster_cluster_cluster_cluster_cluster_&#45;2202121249019829706&#45;479780191531757221339636171216110337973957706717811189770&#45;45500224937117511836492424101733310858</title>
<g id="a_node5"><a xlink:title="Engine temperature regression model.">
<path fill="cyan" stroke="black" d="M508,-203C508,-203 296,-203 296,-203 290,-203 284,-197 284,-191 284,-191 284,-179 284,-179 284,-173 290,-167 296,-167 296,-167 508,-167 508,-167 514,-167 520,-173 520,-179 520,-179 520,-191 520,-191 520,-197 514,-203 508,-203"/>
<text text-anchor="start" x="294.5" y="-180.8" font-family="Times New Roman,serif" font-size="14.00">engine_temperature_regression_model</text>
</a>
</g>
</g>
<!-- cluster_cluster_cluster_cluster_cluster_&#45;2202121249019829706&#45;479780191531757221339636171216110337973957706717811189770&#45;45500224937117511836492424101733310858&#45;&gt;cluster_cluster_cluster_cluster_cluster_&#45;2202121249019829706&#45;479780191531757221339636171216110337973957706717811189770&#45;45500224937117511838376316735024008210 -->
<g id="edge4" class="edge"><title>cluster_cluster_cluster_cluster_cluster_&#45;2202121249019829706&#45;479780191531757221339636171216110337973957706717811189770&#45;45500224937117511836492424101733310858&#45;&gt;cluster_cluster_cluster_cluster_cluster_&#45;2202121249019829706&#45;479780191531757221339636171216110337973957706717811189770&#45;45500224937117511838376316735024008210</title>
<path fill="none" stroke="black" d="M508,-166.831C508,-166.831 508,-141.413 508,-141.413"/>
<polygon fill="black" stroke="black" points="511.5,-141.413 508,-131.413 504.5,-141.413 511.5,-141.413"/>
</g>
<!-- cluster_cluster_cluster_cluster_cluster_&#45;2202121249019829706&#45;479780191531757221339636171216110337973957706717811189770&#45;4550022493711751183&#45;4241360223242951973 -->
<g id="node6" class="node"><title>cluster_cluster_cluster_cluster_cluster_&#45;2202121249019829706&#45;479780191531757221339636171216110337973957706717811189770&#45;4550022493711751183&#45;4241360223242951973</title>
<g id="a_node6"><a xlink:title="Gear box power vector [kW].">
<path fill="cyan" stroke="black" d="M672,-203C672,-203 550,-203 550,-203 544,-203 538,-197 538,-191 538,-191 538,-179 538,-179 538,-173 544,-167 550,-167 550,-167 672,-167 672,-167 678,-167 684,-173 684,-179 684,-179 684,-191 684,-191 684,-197 678,-203 672,-203"/>
<text text-anchor="start" x="548.5" y="-180.8" font-family="Times New Roman,serif" font-size="14.00">final_drive_powers_in</text>
</a>
</g>
</g>
<!-- cluster_cluster_cluster_cluster_cluster_&#45;2202121249019829706&#45;479780191531757221339636171216110337973957706717811189770&#45;4550022493711751183&#45;4241360223242951973&#45;&gt;cluster_cluster_cluster_cluster_cluster_&#45;2202121249019829706&#45;479780191531757221339636171216110337973957706717811189770&#45;45500224937117511838376316735024008210 -->
<g id="edge5" class="edge"><title>cluster_cluster_cluster_cluster_cluster_&#45;2202121249019829706&#45;479780191531757221339636171216110337973957706717811189770&#45;4550022493711751183&#45;4241360223242951973&#45;&gt;cluster_cluster_cluster_cluster_cluster_&#45;2202121249019829706&#45;479780191531757221339636171216110337973957706717811189770&#45;45500224937117511838376316735024008210</title>
<path fill="none" stroke="black" d="M611,-166.831C611,-166.831 611,-141.413 611,-141.413"/>
<polygon fill="black" stroke="black" points="614.5,-141.413 611,-131.413 607.5,-141.413 614.5,-141.413"/>
</g>
<!-- cluster_cluster_cluster_cluster_cluster_&#45;2202121249019829706&#45;479780191531757221339636171216110337973957706717811189770&#45;4550022493711751183&#45;4094292690572654255 -->
<g id="node7" class="node"><title>cluster_cluster_cluster_cluster_cluster_&#45;2202121249019829706&#45;479780191531757221339636171216110337973957706717811189770&#45;4550022493711751183&#45;4094292690572654255</title>
<g id="a_node7"><a xlink:title="Engine initial temperature [째C]">
<path fill="cyan" stroke="black" d="M856,-203C856,-203 714,-203 714,-203 708,-203 702,-197 702,-191 702,-191 702,-179 702,-179 702,-173 708,-167 714,-167 714,-167 856,-167 856,-167 862,-167 868,-173 868,-179 868,-179 868,-191 868,-191 868,-197 862,-203 856,-203"/>
<text text-anchor="start" x="712.5" y="-180.8" font-family="Times New Roman,serif" font-size="14.00">initial_engine_temperature</text>
</a>
</g>
</g>
<!-- cluster_cluster_cluster_cluster_cluster_&#45;2202121249019829706&#45;479780191531757221339636171216110337973957706717811189770&#45;4550022493711751183&#45;4094292690572654255&#45;&gt;cluster_cluster_cluster_cluster_cluster_&#45;2202121249019829706&#45;479780191531757221339636171216110337973957706717811189770&#45;45500224937117511838376316735024008210 -->
<g id="edge6" class="edge"><title>cluster_cluster_cluster_cluster_cluster_&#45;2202121249019829706&#45;479780191531757221339636171216110337973957706717811189770&#45;4550022493711751183&#45;4094292690572654255&#45;&gt;cluster_cluster_cluster_cluster_cluster_&#45;2202121249019829706&#45;479780191531757221339636171216110337973957706717811189770&#45;45500224937117511838376316735024008210</title>
<path fill="none" stroke="black" d="M714,-166.831C714,-166.831 714,-141.413 714,-141.413"/>
<polygon fill="black" stroke="black" points="717.5,-141.413 714,-131.413 710.5,-141.413 717.5,-141.413"/>
</g>
<!-- cluster_cluster_cluster_cluster_cluster_&#45;2202121249019829706&#45;479780191531757221339636171216110337973957706717811189770&#45;45500224937117511833735004103626618349 -->
<g id="node8" class="node"><title>cluster_cluster_cluster_cluster_cluster_&#45;2202121249019829706&#45;479780191531757221339636171216110337973957706717811189770&#45;45500224937117511833735004103626618349</title>
<g id="a_node8"><a xlink:title="Maximum engine coolant temperature [째C].">
<path fill="cyan" stroke="black" d="M1082,-203C1082,-203 898,-203 898,-203 892,-203 886,-197 886,-191 886,-191 886,-179 886,-179 886,-173 892,-167 898,-167 898,-167 1082,-167 1082,-167 1088,-167 1094,-173 1094,-179 1094,-179 1094,-191 1094,-191 1094,-197 1088,-203 1082,-203"/>
<text text-anchor="start" x="896" y="-180.8" font-family="Times New Roman,serif" font-size="14.00">max_engine_coolant_temperature</text>
</a>
</g>
</g>
<!-- cluster_cluster_cluster_cluster_cluster_&#45;2202121249019829706&#45;479780191531757221339636171216110337973957706717811189770&#45;45500224937117511833735004103626618349&#45;&gt;cluster_cluster_cluster_cluster_cluster_&#45;2202121249019829706&#45;479780191531757221339636171216110337973957706717811189770&#45;45500224937117511838376316735024008210 -->
<g id="edge7" class="edge"><title>cluster_cluster_cluster_cluster_cluster_&#45;2202121249019829706&#45;479780191531757221339636171216110337973957706717811189770&#45;45500224937117511833735004103626618349&#45;&gt;cluster_cluster_cluster_cluster_cluster_&#45;2202121249019829706&#45;479780191531757221339636171216110337973957706717811189770&#45;45500224937117511838376316735024008210</title>
<path fill="none" stroke="black" d="M990,-166.965C990,-147.424 990,-119 990,-119 990,-119 736.256,-119 736.256,-119"/>
<polygon fill="black" stroke="black" points="736.256,-115.5 726.256,-119 736.256,-122.5 736.256,-115.5"/>
</g>
<!-- cluster_cluster_cluster_cluster_cluster_&#45;2202121249019829706&#45;479780191531757221339636171216110337973957706717811189770&#45;4550022493711751183&#45;1825562924159530342 -->
<g id="node9" class="node"><title>cluster_cluster_cluster_cluster_cluster_&#45;2202121249019829706&#45;479780191531757221339636171216110337973957706717811189770&#45;4550022493711751183&#45;1825562924159530342</title>
<g id="a_node9"><a xlink:title="Time vector [s].">
<path fill="cyan" stroke="black" d="M1154,-203C1154,-203 1124,-203 1124,-203 1118,-203 1112,-197 1112,-191 1112,-191 1112,-179 1112,-179 1112,-173 1118,-167 1124,-167 1124,-167 1154,-167 1154,-167 1160,-167 1166,-173 1166,-179 1166,-179 1166,-191 1166,-191 1166,-197 1160,-203 1154,-203"/>
<text text-anchor="start" x="1124" y="-180.8" font-family="Times New Roman,serif" font-size="14.00">times</text>
</a>
</g>
</g>
<!-- cluster_cluster_cluster_cluster_cluster_&#45;2202121249019829706&#45;479780191531757221339636171216110337973957706717811189770&#45;4550022493711751183&#45;1825562924159530342&#45;&gt;cluster_cluster_cluster_cluster_cluster_&#45;2202121249019829706&#45;479780191531757221339636171216110337973957706717811189770&#45;45500224937117511838376316735024008210 -->
<g id="edge8" class="edge"><title>cluster_cluster_cluster_cluster_cluster_&#45;2202121249019829706&#45;479780191531757221339636171216110337973957706717811189770&#45;4550022493711751183&#45;1825562924159530342&#45;&gt;cluster_cluster_cluster_cluster_cluster_&#45;2202121249019829706&#45;479780191531757221339636171216110337973957706717811189770&#45;45500224937117511838376316735024008210</title>
<path fill="none" stroke="black" d="M1139,-166.909C1139,-143.867 1139,-107 1139,-107 1139,-107 736.219,-107 736.219,-107"/>
<polygon fill="black" stroke="black" points="736.219,-103.5 726.219,-107 736.219,-110.5 736.219,-103.5"/>
</g>
</g>
</svg>
