<?xml version="1.0" encoding="UTF-8" standalone="no"?>
<!DOCTYPE svg PUBLIC "-//W3C//DTD SVG 1.1//EN"
 "http://www.w3.org/Graphics/SVG/1.1/DTD/svg11.dtd">
<!-- Generated by graphviz version 2.38.0 (20140413.2041)
 -->
<!-- Title: cluster_cycle_model Pages: 1 -->
<svg width="3995pt" height="247pt"
 viewBox="0.00 0.00 3995.00 247.00" xmlns="http://www.w3.org/2000/svg" xmlns:xlink="http://www.w3.org/1999/xlink">
<g id="graph0" class="graph" transform="scale(1 1) rotate(0) translate(4 243)">
<title>cluster_cycle_model</title>
<polygon fill="white" stroke="none" points="-4,4 -4,-243 3991,-243 3991,4 -4,4"/>
<text text-anchor="start" x="1957.5" y="-7.8" font-family="Times New Roman,serif" font-size="14.00">cycle_model</text>
<!-- cluster_cluster_cluster_cluster_cluster_cluster_&#45;22021212490198297065621433541211787464&#45;5690564999758951521&#45;56337469494674395647247368105579582138591411804603007738&#45;6281391710310240799 -->
<g id="node1" class="node"><title>cluster_cluster_cluster_cluster_cluster_cluster_&#45;22021212490198297065621433541211787464&#45;5690564999758951521&#45;56337469494674395647247368105579582138591411804603007738&#45;6281391710310240799</title>
<g id="a_node1"><a xlink:title="accelerations">
<path fill="cyan" stroke="black" d="M2365.5,-239C2365.5,-239 2118.5,-239 2118.5,-239 2112.5,-239 2106.5,-233 2106.5,-227 2106.5,-227 2106.5,-203 2106.5,-203 2106.5,-197 2112.5,-191 2118.5,-191 2118.5,-191 2365.5,-191 2365.5,-191 2371.5,-191 2377.5,-197 2377.5,-203 2377.5,-203 2377.5,-227 2377.5,-227 2377.5,-233 2371.5,-239 2365.5,-239"/>
<text text-anchor="start" x="2206" y="-221.8" font-family="Times New Roman,serif" font-size="14.00">accelerations</text>
<polygon fill="none" stroke="black" points="2115,-195 2115,-216 2217,-216 2217,-195 2115,-195"/>
<text text-anchor="start" x="2118" y="-201.8" font-family="Times New Roman,serif" font-size="14.00">remote parent 0=</text>
<polygon fill="none" stroke="black" points="2217,-195 2217,-216 2370,-216 2370,-195 2217,-195"/>
<text text-anchor="start" x="2220" y="-201.8" font-family="Times New Roman,serif" font-size="14.00">cycle_model:accelerations</text>
</a>
</g>
</g>
<!-- cluster_cluster_cluster_cluster_cluster_cluster_&#45;22021212490198297065621433541211787464&#45;5690564999758951521&#45;563374694946743956472473681055795821385914118046030077388047931719890035597 -->
<g id="node3" class="node"><title>cluster_cluster_cluster_cluster_cluster_cluster_&#45;22021212490198297065621433541211787464&#45;5690564999758951521&#45;563374694946743956472473681055795821385914118046030077388047931719890035597</title>
<g id="a_node3"><a xlink:href="./cycle_model/WLTP_cycle_model.gv.svg" xlink:title="Returns the theoretical times, velocities, and gears of WLTP.">
<polygon fill="springgreen" stroke="black" points="2313,-155 2165,-155 2165,-107 2319,-107 2319,-149 2313,-155"/>
<polyline fill="none" stroke="black" points="2313,-155 2313,-149 "/>
<polyline fill="none" stroke="black" points="2319,-149 2313,-149 "/>
<text text-anchor="start" x="2186.5" y="-137.8" font-family="Times New Roman,serif" font-size="14.00">WLTP cycle model</text>
<polygon fill="none" stroke="black" points="2173,-111 2173,-132 2264,-132 2264,-111 2173,-111"/>
<text text-anchor="start" x="2176" y="-117.8" font-family="Times New Roman,serif" font-size="14.00">input_domain=</text>
<polygon fill="none" stroke="black" points="2264,-111 2264,-132 2311,-132 2311,-111 2264,-111"/>
<text text-anchor="start" x="2267" y="-117.8" font-family="Times New Roman,serif" font-size="14.00">is_wltp</text>
</a>
</g>
</g>
<!-- cluster_cluster_cluster_cluster_cluster_cluster_&#45;22021212490198297065621433541211787464&#45;5690564999758951521&#45;56337469494674395647247368105579582138591411804603007738&#45;6281391710310240799&#45;&gt;cluster_cluster_cluster_cluster_cluster_cluster_&#45;22021212490198297065621433541211787464&#45;5690564999758951521&#45;563374694946743956472473681055795821385914118046030077388047931719890035597 -->
<g id="edge1" class="edge"><title>cluster_cluster_cluster_cluster_cluster_cluster_&#45;22021212490198297065621433541211787464&#45;5690564999758951521&#45;56337469494674395647247368105579582138591411804603007738&#45;6281391710310240799&#45;&gt;cluster_cluster_cluster_cluster_cluster_cluster_&#45;22021212490198297065621433541211787464&#45;5690564999758951521&#45;563374694946743956472473681055795821385914118046030077388047931719890035597</title>
<path fill="none" stroke="black" d="M2242,-190.704C2242,-190.704 2242,-165.242 2242,-165.242"/>
<polygon fill="black" stroke="black" points="2245.5,-165.242 2242,-155.242 2238.5,-165.242 2245.5,-165.242"/>
</g>
<!-- cluster_cluster_cluster_cluster_cluster_cluster_&#45;22021212490198297065621433541211787464&#45;5690564999758951521&#45;563374694946743956472473681055795821385914118046030077384008035146516381901 -->
<g id="node2" class="node"><title>cluster_cluster_cluster_cluster_cluster_cluster_&#45;22021212490198297065621433541211787464&#45;5690564999758951521&#45;563374694946743956472473681055795821385914118046030077384008035146516381901</title>
<g id="a_node2"><a xlink:href="./cycle_model/NEDC_cycle_model.gv.svg" xlink:title="Returns the theoretical times, velocities, and gears of NEDC.">
<polygon fill="springgreen" stroke="black" points="1176.5,-155 1025.5,-155 1025.5,-107 1182.5,-107 1182.5,-149 1176.5,-155"/>
<polyline fill="none" stroke="black" points="1176.5,-155 1176.5,-149 "/>
<polyline fill="none" stroke="black" points="1182.5,-149 1176.5,-149 "/>
<text text-anchor="start" x="1050" y="-137.8" font-family="Times New Roman,serif" font-size="14.00">NEDC cycle model</text>
<polygon fill="none" stroke="black" points="1034,-111 1034,-132 1125,-132 1125,-111 1034,-111"/>
<text text-anchor="start" x="1037" y="-117.8" font-family="Times New Roman,serif" font-size="14.00">input_domain=</text>
<polygon fill="none" stroke="black" points="1125,-111 1125,-132 1175,-132 1175,-111 1125,-111"/>
<text text-anchor="start" x="1128" y="-117.8" font-family="Times New Roman,serif" font-size="14.00">is_nedc</text>
</a>
</g>
</g>
<!-- cluster_cluster_cluster_cluster_cluster_cluster_&#45;22021212490198297065621433541211787464&#45;5690564999758951521&#45;563374694946743956472473681055795821385914118046030077385710857425003681082 -->
<g id="node7" class="node"><title>cluster_cluster_cluster_cluster_cluster_cluster_&#45;22021212490198297065621433541211787464&#45;5690564999758951521&#45;563374694946743956472473681055795821385914118046030077385710857425003681082</title>
<g id="a_node7"><a xlink:title="Initial temperature of the test cell [°C].">
<path fill="cyan" stroke="black" d="M1807,-71C1807,-71 1539,-71 1539,-71 1533,-71 1527,-65 1527,-59 1527,-59 1527,-35 1527,-35 1527,-29 1533,-23 1539,-23 1539,-23 1807,-23 1807,-23 1813,-23 1819,-29 1819,-35 1819,-35 1819,-59 1819,-59 1819,-65 1813,-71 1807,-71"/>
<text text-anchor="start" x="1622" y="-53.8" font-family="Times New Roman,serif" font-size="14.00">initial_temperature</text>
<polygon fill="none" stroke="black" points="1535,-27 1535,-48 1629,-48 1629,-27 1535,-27"/>
<text text-anchor="start" x="1538" y="-33.8" font-family="Times New Roman,serif" font-size="14.00">remote child 0=</text>
<polygon fill="none" stroke="black" points="1629,-27 1629,-48 1811,-48 1811,-27 1629,-27"/>
<text text-anchor="start" x="1632" y="-33.8" font-family="Times New Roman,serif" font-size="14.00">cycle_model:initial_temperature</text>
</a>
</g>
</g>
<!-- cluster_cluster_cluster_cluster_cluster_cluster_&#45;22021212490198297065621433541211787464&#45;5690564999758951521&#45;563374694946743956472473681055795821385914118046030077384008035146516381901&#45;&gt;cluster_cluster_cluster_cluster_cluster_cluster_&#45;22021212490198297065621433541211787464&#45;5690564999758951521&#45;563374694946743956472473681055795821385914118046030077385710857425003681082 -->
<g id="edge2" class="edge"><title>cluster_cluster_cluster_cluster_cluster_cluster_&#45;22021212490198297065621433541211787464&#45;5690564999758951521&#45;563374694946743956472473681055795821385914118046030077384008035146516381901&#45;&gt;cluster_cluster_cluster_cluster_cluster_cluster_&#45;22021212490198297065621433541211787464&#45;5690564999758951521&#45;563374694946743956472473681055795821385914118046030077385710857425003681082</title>
<path fill="none" stroke="black" d="M1104,-106.704C1104,-81.8953 1104,-47 1104,-47 1104,-47 1516.84,-47 1516.84,-47"/>
<polygon fill="black" stroke="black" points="1516.84,-50.5001 1526.84,-47 1516.84,-43.5001 1516.84,-50.5001"/>
</g>
<!-- cluster_cluster_cluster_cluster_cluster_cluster_&#45;22021212490198297065621433541211787464&#45;5690564999758951521&#45;563374694946743956472473681055795821385914118046030077388047931719890035597&#45;&gt;cluster_cluster_cluster_cluster_cluster_cluster_&#45;22021212490198297065621433541211787464&#45;5690564999758951521&#45;563374694946743956472473681055795821385914118046030077385710857425003681082 -->
<g id="edge3" class="edge"><title>cluster_cluster_cluster_cluster_cluster_cluster_&#45;22021212490198297065621433541211787464&#45;5690564999758951521&#45;563374694946743956472473681055795821385914118046030077388047931719890035597&#45;&gt;cluster_cluster_cluster_cluster_cluster_cluster_&#45;22021212490198297065621433541211787464&#45;5690564999758951521&#45;563374694946743956472473681055795821385914118046030077385710857425003681082</title>
<path fill="none" stroke="black" d="M2242,-106.704C2242,-81.8953 2242,-47 2242,-47 2242,-47 1829.16,-47 1829.16,-47"/>
<polygon fill="black" stroke="black" points="1829.16,-43.5001 1819.16,-47 1829.16,-50.5001 1829.16,-43.5001"/>
</g>
<!-- cluster_cluster_cluster_cluster_cluster_cluster_&#45;22021212490198297065621433541211787464&#45;5690564999758951521&#45;56337469494674395647247368105579582138591411804603007738&#45;6215422529513533217 -->
<g id="node4" class="node"><title>cluster_cluster_cluster_cluster_cluster_cluster_&#45;22021212490198297065621433541211787464&#45;5690564999758951521&#45;56337469494674395647247368105579582138591411804603007738&#45;6215422529513533217</title>
<g id="a_node4"><a xlink:title="gear_box_type">
<path fill="cyan" stroke="black" d="M1233.5,-239C1233.5,-239 974.5,-239 974.5,-239 968.5,-239 962.5,-233 962.5,-227 962.5,-227 962.5,-203 962.5,-203 962.5,-197 968.5,-191 974.5,-191 974.5,-191 1233.5,-191 1233.5,-191 1239.5,-191 1245.5,-197 1245.5,-203 1245.5,-203 1245.5,-227 1245.5,-227 1245.5,-233 1239.5,-239 1233.5,-239"/>
<text text-anchor="start" x="1062" y="-221.8" font-family="Times New Roman,serif" font-size="14.00">gear_box_type</text>
<polygon fill="none" stroke="black" points="971,-195 971,-216 1073,-216 1073,-195 971,-195"/>
<text text-anchor="start" x="974" y="-201.8" font-family="Times New Roman,serif" font-size="14.00">remote parent 0=</text>
<polygon fill="none" stroke="black" points="1073,-195 1073,-216 1238,-216 1238,-195 1073,-195"/>
<text text-anchor="start" x="1076" y="-201.8" font-family="Times New Roman,serif" font-size="14.00">cycle_model:gear_box_type</text>
</a>
</g>
</g>
<!-- cluster_cluster_cluster_cluster_cluster_cluster_&#45;22021212490198297065621433541211787464&#45;5690564999758951521&#45;56337469494674395647247368105579582138591411804603007738&#45;6215422529513533217&#45;&gt;cluster_cluster_cluster_cluster_cluster_cluster_&#45;22021212490198297065621433541211787464&#45;5690564999758951521&#45;563374694946743956472473681055795821385914118046030077384008035146516381901 -->
<g id="edge4" class="edge"><title>cluster_cluster_cluster_cluster_cluster_cluster_&#45;22021212490198297065621433541211787464&#45;5690564999758951521&#45;56337469494674395647247368105579582138591411804603007738&#45;6215422529513533217&#45;&gt;cluster_cluster_cluster_cluster_cluster_cluster_&#45;22021212490198297065621433541211787464&#45;5690564999758951521&#45;563374694946743956472473681055795821385914118046030077384008035146516381901</title>
<path fill="none" stroke="black" d="M1104,-190.704C1104,-190.704 1104,-165.242 1104,-165.242"/>
<polygon fill="black" stroke="black" points="1107.5,-165.242 1104,-155.242 1100.5,-165.242 1107.5,-165.242"/>
</g>
<!-- cluster_cluster_cluster_cluster_cluster_cluster_&#45;22021212490198297065621433541211787464&#45;5690564999758951521&#45;56337469494674395647247368105579582138591411804603007738&#45;6215422529513533217&#45;&gt;cluster_cluster_cluster_cluster_cluster_cluster_&#45;22021212490198297065621433541211787464&#45;5690564999758951521&#45;563374694946743956472473681055795821385914118046030077388047931719890035597 -->
<g id="edge5" class="edge"><title>cluster_cluster_cluster_cluster_cluster_cluster_&#45;22021212490198297065621433541211787464&#45;5690564999758951521&#45;56337469494674395647247368105579582138591411804603007738&#45;6215422529513533217&#45;&gt;cluster_cluster_cluster_cluster_cluster_cluster_&#45;22021212490198297065621433541211787464&#45;5690564999758951521&#45;563374694946743956472473681055795821385914118046030077388047931719890035597</title>
<path fill="none" stroke="black" d="M1214,-190.827C1214,-160.665 1214,-113 1214,-113 1214,-113 2154.73,-113 2154.73,-113"/>
<polygon fill="black" stroke="black" points="2154.73,-116.5 2164.73,-113 2154.73,-109.5 2154.73,-116.5"/>
</g>
<!-- cluster_cluster_cluster_cluster_cluster_cluster_&#45;22021212490198297065621433541211787464&#45;5690564999758951521&#45;563374694946743956472473681055795821385914118046030077385823726384603252559 -->
<g id="node5" class="node"><title>cluster_cluster_cluster_cluster_cluster_cluster_&#45;22021212490198297065621433541211787464&#45;5690564999758951521&#45;563374694946743956472473681055795821385914118046030077385823726384603252559</title>
<g id="a_node5"><a xlink:title="gears">
<path fill="cyan" stroke="black" d="M1480,-239C1480,-239 1276,-239 1276,-239 1270,-239 1264,-233 1264,-227 1264,-227 1264,-203 1264,-203 1264,-197 1270,-191 1276,-191 1276,-191 1480,-191 1480,-191 1486,-191 1492,-197 1492,-203 1492,-203 1492,-227 1492,-227 1492,-233 1486,-239 1480,-239"/>
<text text-anchor="start" x="1363" y="-221.8" font-family="Times New Roman,serif" font-size="14.00">gears</text>
<polygon fill="none" stroke="black" points="1272,-195 1272,-216 1374,-216 1374,-195 1272,-195"/>
<text text-anchor="start" x="1275" y="-201.8" font-family="Times New Roman,serif" font-size="14.00">remote parent 0=</text>
<polygon fill="none" stroke="black" points="1374,-195 1374,-216 1484,-216 1484,-195 1374,-195"/>
<text text-anchor="start" x="1377" y="-201.8" font-family="Times New Roman,serif" font-size="14.00">cycle_model:gears</text>
</a>
</g>
</g>
<!-- cluster_cluster_cluster_cluster_cluster_cluster_&#45;22021212490198297065621433541211787464&#45;5690564999758951521&#45;563374694946743956472473681055795821385914118046030077385823726384603252559&#45;&gt;cluster_cluster_cluster_cluster_cluster_cluster_&#45;22021212490198297065621433541211787464&#45;5690564999758951521&#45;563374694946743956472473681055795821385914118046030077384008035146516381901 -->
<g id="edge6" class="edge"><title>cluster_cluster_cluster_cluster_cluster_cluster_&#45;22021212490198297065621433541211787464&#45;5690564999758951521&#45;563374694946743956472473681055795821385914118046030077385823726384603252559&#45;&gt;cluster_cluster_cluster_cluster_cluster_cluster_&#45;22021212490198297065621433541211787464&#45;5690564999758951521&#45;563374694946743956472473681055795821385914118046030077384008035146516381901</title>
<path fill="none" stroke="black" d="M1340,-190.799C1340,-171.962 1340,-149 1340,-149 1340,-149 1192.58,-149 1192.58,-149"/>
<polygon fill="black" stroke="black" points="1192.58,-145.5 1182.58,-149 1192.58,-152.5 1192.58,-145.5"/>
</g>
<!-- cluster_cluster_cluster_cluster_cluster_cluster_&#45;22021212490198297065621433541211787464&#45;5690564999758951521&#45;563374694946743956472473681055795821385914118046030077385823726384603252559&#45;&gt;cluster_cluster_cluster_cluster_cluster_cluster_&#45;22021212490198297065621433541211787464&#45;5690564999758951521&#45;563374694946743956472473681055795821385914118046030077388047931719890035597 -->
<g id="edge7" class="edge"><title>cluster_cluster_cluster_cluster_cluster_cluster_&#45;22021212490198297065621433541211787464&#45;5690564999758951521&#45;563374694946743956472473681055795821385914118046030077385823726384603252559&#45;&gt;cluster_cluster_cluster_cluster_cluster_cluster_&#45;22021212490198297065621433541211787464&#45;5690564999758951521&#45;563374694946743956472473681055795821385914118046030077388047931719890035597</title>
<path fill="none" stroke="black" d="M1416,-190.775C1416,-162.336 1416,-119 1416,-119 1416,-119 2154.66,-119 2154.66,-119"/>
<polygon fill="black" stroke="black" points="2154.66,-122.5 2164.66,-119 2154.66,-115.5 2154.66,-122.5"/>
</g>
<!-- cluster_cluster_cluster_cluster_cluster_cluster_&#45;22021212490198297065621433541211787464&#45;5690564999758951521&#45;56337469494674395647247368105579582138591411804603007738&#45;3009578804924602371 -->
<g id="node6" class="node"><title>cluster_cluster_cluster_cluster_cluster_cluster_&#45;22021212490198297065621433541211787464&#45;5690564999758951521&#45;56337469494674395647247368105579582138591411804603007738&#45;3009578804924602371</title>
<g id="a_node6"><a xlink:title="idle_engine_speed">
<path fill="cyan" stroke="black" d="M2686,-239C2686,-239 2408,-239 2408,-239 2402,-239 2396,-233 2396,-227 2396,-227 2396,-203 2396,-203 2396,-197 2402,-191 2408,-191 2408,-191 2686,-191 2686,-191 2692,-191 2698,-197 2698,-203 2698,-203 2698,-227 2698,-227 2698,-233 2692,-239 2686,-239"/>
<text text-anchor="start" x="2495.5" y="-221.8" font-family="Times New Roman,serif" font-size="14.00">idle_engine_speed</text>
<polygon fill="none" stroke="black" points="2404,-195 2404,-216 2506,-216 2506,-195 2404,-195"/>
<text text-anchor="start" x="2407" y="-201.8" font-family="Times New Roman,serif" font-size="14.00">remote parent 0=</text>
<polygon fill="none" stroke="black" points="2506,-195 2506,-216 2690,-216 2690,-195 2506,-195"/>
<text text-anchor="start" x="2509" y="-201.8" font-family="Times New Roman,serif" font-size="14.00">cycle_model:idle_engine_speed</text>
</a>
</g>
</g>
<!-- cluster_cluster_cluster_cluster_cluster_cluster_&#45;22021212490198297065621433541211787464&#45;5690564999758951521&#45;56337469494674395647247368105579582138591411804603007738&#45;3009578804924602371&#45;&gt;cluster_cluster_cluster_cluster_cluster_cluster_&#45;22021212490198297065621433541211787464&#45;5690564999758951521&#45;563374694946743956472473681055795821385914118046030077388047931719890035597 -->
<g id="edge8" class="edge"><title>cluster_cluster_cluster_cluster_cluster_cluster_&#45;22021212490198297065621433541211787464&#45;5690564999758951521&#45;56337469494674395647247368105579582138591411804603007738&#45;3009578804924602371&#45;&gt;cluster_cluster_cluster_cluster_cluster_cluster_&#45;22021212490198297065621433541211787464&#45;5690564999758951521&#45;563374694946743956472473681055795821385914118046030077388047931719890035597</title>
<path fill="none" stroke="black" d="M2547,-190.834C2547,-171.289 2547,-147 2547,-147 2547,-147 2329.36,-147 2329.36,-147"/>
<polygon fill="black" stroke="black" points="2329.36,-143.5 2319.36,-147 2329.36,-150.5 2329.36,-143.5"/>
</g>
<!-- cluster_cluster_cluster_cluster_cluster_cluster_&#45;22021212490198297065621433541211787464&#45;5690564999758951521&#45;563374694946743956472473681055795821385914118046030077383946548646462490374 -->
<g id="node8" class="node"><title>cluster_cluster_cluster_cluster_cluster_cluster_&#45;22021212490198297065621433541211787464&#45;5690564999758951521&#45;563374694946743956472473681055795821385914118046030077383946548646462490374</title>
<g id="a_node8"><a xlink:title="k1">
<path fill="cyan" stroke="black" d="M702,-239C702,-239 514,-239 514,-239 508,-239 502,-233 502,-227 502,-227 502,-203 502,-203 502,-197 508,-191 514,-191 514,-191 702,-191 702,-191 708,-191 714,-197 714,-203 714,-203 714,-227 714,-227 714,-233 708,-239 702,-239"/>
<text text-anchor="start" x="601" y="-221.8" font-family="Times New Roman,serif" font-size="14.00">k1</text>
<polygon fill="none" stroke="black" points="510,-195 510,-216 612,-216 612,-195 510,-195"/>
<text text-anchor="start" x="513" y="-201.8" font-family="Times New Roman,serif" font-size="14.00">remote parent 0=</text>
<polygon fill="none" stroke="black" points="612,-195 612,-216 706,-216 706,-195 612,-195"/>
<text text-anchor="start" x="615" y="-201.8" font-family="Times New Roman,serif" font-size="14.00">cycle_model:k1</text>
</a>
</g>
</g>
<!-- cluster_cluster_cluster_cluster_cluster_cluster_&#45;22021212490198297065621433541211787464&#45;5690564999758951521&#45;563374694946743956472473681055795821385914118046030077383946548646462490374&#45;&gt;cluster_cluster_cluster_cluster_cluster_cluster_&#45;22021212490198297065621433541211787464&#45;5690564999758951521&#45;563374694946743956472473681055795821385914118046030077384008035146516381901 -->
<g id="edge9" class="edge"><title>cluster_cluster_cluster_cluster_cluster_cluster_&#45;22021212490198297065621433541211787464&#45;5690564999758951521&#45;563374694946743956472473681055795821385914118046030077383946548646462490374&#45;&gt;cluster_cluster_cluster_cluster_cluster_cluster_&#45;22021212490198297065621433541211787464&#45;5690564999758951521&#45;563374694946743956472473681055795821385914118046030077384008035146516381901</title>
<path fill="none" stroke="black" d="M608,-190.997C608,-167.433 608,-135 608,-135 608,-135 1015.41,-135 1015.41,-135"/>
<polygon fill="black" stroke="black" points="1015.41,-138.5 1025.41,-135 1015.41,-131.5 1015.41,-138.5"/>
</g>
<!-- cluster_cluster_cluster_cluster_cluster_cluster_&#45;22021212490198297065621433541211787464&#45;5690564999758951521&#45;563374694946743956472473681055795821385914118046030077386922247875390761644 -->
<g id="node9" class="node"><title>cluster_cluster_cluster_cluster_cluster_cluster_&#45;22021212490198297065621433541211787464&#45;5690564999758951521&#45;563374694946743956472473681055795821385914118046030077386922247875390761644</title>
<g id="a_node9"><a xlink:title="k2">
<path fill="cyan" stroke="black" d="M932,-239C932,-239 744,-239 744,-239 738,-239 732,-233 732,-227 732,-227 732,-203 732,-203 732,-197 738,-191 744,-191 744,-191 932,-191 932,-191 938,-191 944,-197 944,-203 944,-203 944,-227 944,-227 944,-233 938,-239 932,-239"/>
<text text-anchor="start" x="831" y="-221.8" font-family="Times New Roman,serif" font-size="14.00">k2</text>
<polygon fill="none" stroke="black" points="740,-195 740,-216 842,-216 842,-195 740,-195"/>
<text text-anchor="start" x="743" y="-201.8" font-family="Times New Roman,serif" font-size="14.00">remote parent 0=</text>
<polygon fill="none" stroke="black" points="842,-195 842,-216 936,-216 936,-195 842,-195"/>
<text text-anchor="start" x="845" y="-201.8" font-family="Times New Roman,serif" font-size="14.00">cycle_model:k2</text>
</a>
</g>
</g>
<!-- cluster_cluster_cluster_cluster_cluster_cluster_&#45;22021212490198297065621433541211787464&#45;5690564999758951521&#45;563374694946743956472473681055795821385914118046030077386922247875390761644&#45;&gt;cluster_cluster_cluster_cluster_cluster_cluster_&#45;22021212490198297065621433541211787464&#45;5690564999758951521&#45;563374694946743956472473681055795821385914118046030077384008035146516381901 -->
<g id="edge10" class="edge"><title>cluster_cluster_cluster_cluster_cluster_cluster_&#45;22021212490198297065621433541211787464&#45;5690564999758951521&#45;563374694946743956472473681055795821385914118046030077386922247875390761644&#45;&gt;cluster_cluster_cluster_cluster_cluster_cluster_&#45;22021212490198297065621433541211787464&#45;5690564999758951521&#45;563374694946743956472473681055795821385914118046030077384008035146516381901</title>
<path fill="none" stroke="black" d="M838,-190.91C838,-170.661 838,-145 838,-145 838,-145 1015.27,-145 1015.27,-145"/>
<polygon fill="black" stroke="black" points="1015.27,-148.5 1025.27,-145 1015.27,-141.5 1015.27,-148.5"/>
</g>
<!-- cluster_cluster_cluster_cluster_cluster_cluster_&#45;22021212490198297065621433541211787464&#45;5690564999758951521&#45;56337469494674395647247368105579582138591411804603007738&#45;6047659993931640753 -->
<g id="node10" class="node"><title>cluster_cluster_cluster_cluster_cluster_cluster_&#45;22021212490198297065621433541211787464&#45;5690564999758951521&#45;56337469494674395647247368105579582138591411804603007738&#45;6047659993931640753</title>
<g id="a_node10"><a xlink:title="k5">
<path fill="cyan" stroke="black" d="M200,-239C200,-239 12,-239 12,-239 6,-239 0,-233 0,-227 0,-227 0,-203 0,-203 0,-197 6,-191 12,-191 12,-191 200,-191 200,-191 206,-191 212,-197 212,-203 212,-203 212,-227 212,-227 212,-233 206,-239 200,-239"/>
<text text-anchor="start" x="99" y="-221.8" font-family="Times New Roman,serif" font-size="14.00">k5</text>
<polygon fill="none" stroke="black" points="8,-195 8,-216 110,-216 110,-195 8,-195"/>
<text text-anchor="start" x="11" y="-201.8" font-family="Times New Roman,serif" font-size="14.00">remote parent 0=</text>
<polygon fill="none" stroke="black" points="110,-195 110,-216 204,-216 204,-195 110,-195"/>
<text text-anchor="start" x="113" y="-201.8" font-family="Times New Roman,serif" font-size="14.00">cycle_model:k5</text>
</a>
</g>
</g>
<!-- cluster_cluster_cluster_cluster_cluster_cluster_&#45;22021212490198297065621433541211787464&#45;5690564999758951521&#45;56337469494674395647247368105579582138591411804603007738&#45;6047659993931640753&#45;&gt;cluster_cluster_cluster_cluster_cluster_cluster_&#45;22021212490198297065621433541211787464&#45;5690564999758951521&#45;563374694946743956472473681055795821385914118046030077384008035146516381901 -->
<g id="edge11" class="edge"><title>cluster_cluster_cluster_cluster_cluster_cluster_&#45;22021212490198297065621433541211787464&#45;5690564999758951521&#45;56337469494674395647247368105579582138591411804603007738&#45;6047659993931640753&#45;&gt;cluster_cluster_cluster_cluster_cluster_cluster_&#45;22021212490198297065621433541211787464&#45;5690564999758951521&#45;563374694946743956472473681055795821385914118046030077384008035146516381901</title>
<path fill="none" stroke="black" d="M106,-190.782C106,-161.473 106,-116 106,-116 106,-116 1015.27,-116 1015.27,-116"/>
<polygon fill="black" stroke="black" points="1015.27,-119.5 1025.27,-116 1015.27,-112.5 1015.27,-119.5"/>
</g>
<!-- cluster_cluster_cluster_cluster_cluster_cluster_&#45;22021212490198297065621433541211787464&#45;5690564999758951521&#45;56337469494674395647247368105579582138591411804603007738&#45;3579311186073635 -->
<g id="node11" class="node"><title>cluster_cluster_cluster_cluster_cluster_cluster_&#45;22021212490198297065621433541211787464&#45;5690564999758951521&#45;56337469494674395647247368105579582138591411804603007738&#45;3579311186073635</title>
<g id="a_node11"><a xlink:title="max_gear">
<path fill="cyan" stroke="black" d="M471.5,-239C471.5,-239 242.5,-239 242.5,-239 236.5,-239 230.5,-233 230.5,-227 230.5,-227 230.5,-203 230.5,-203 230.5,-197 236.5,-191 242.5,-191 242.5,-191 471.5,-191 471.5,-191 477.5,-191 483.5,-197 483.5,-203 483.5,-203 483.5,-227 483.5,-227 483.5,-233 477.5,-239 471.5,-239"/>
<text text-anchor="start" x="330" y="-221.8" font-family="Times New Roman,serif" font-size="14.00">max_gear</text>
<polygon fill="none" stroke="black" points="239,-195 239,-216 341,-216 341,-195 239,-195"/>
<text text-anchor="start" x="242" y="-201.8" font-family="Times New Roman,serif" font-size="14.00">remote parent 0=</text>
<polygon fill="none" stroke="black" points="341,-195 341,-216 476,-216 476,-195 341,-195"/>
<text text-anchor="start" x="344" y="-201.8" font-family="Times New Roman,serif" font-size="14.00">cycle_model:max_gear</text>
</a>
</g>
</g>
<!-- cluster_cluster_cluster_cluster_cluster_cluster_&#45;22021212490198297065621433541211787464&#45;5690564999758951521&#45;56337469494674395647247368105579582138591411804603007738&#45;3579311186073635&#45;&gt;cluster_cluster_cluster_cluster_cluster_cluster_&#45;22021212490198297065621433541211787464&#45;5690564999758951521&#45;563374694946743956472473681055795821385914118046030077384008035146516381901 -->
<g id="edge12" class="edge"><title>cluster_cluster_cluster_cluster_cluster_cluster_&#45;22021212490198297065621433541211787464&#45;5690564999758951521&#45;56337469494674395647247368105579582138591411804603007738&#45;3579311186073635&#45;&gt;cluster_cluster_cluster_cluster_cluster_cluster_&#45;22021212490198297065621433541211787464&#45;5690564999758951521&#45;563374694946743956472473681055795821385914118046030077384008035146516381901</title>
<path fill="none" stroke="black" d="M357,-190.68C357,-164.329 357,-126 357,-126 357,-126 1015.47,-126 1015.47,-126"/>
<polygon fill="black" stroke="black" points="1015.47,-129.5 1025.47,-126 1015.47,-122.5 1015.47,-129.5"/>
</g>
<!-- cluster_cluster_cluster_cluster_cluster_cluster_&#45;22021212490198297065621433541211787464&#45;5690564999758951521&#45;56337469494674395647247368105579582138591411804603007738&#45;3266232678127081741 -->
<g id="node12" class="node"><title>cluster_cluster_cluster_cluster_cluster_cluster_&#45;22021212490198297065621433541211787464&#45;5690564999758951521&#45;56337469494674395647247368105579582138591411804603007738&#45;3266232678127081741</title>
<g id="a_node12"><a xlink:title="max_speed_velocity_ratio">
<path fill="cyan" stroke="black" d="M3050,-239C3050,-239 2728,-239 2728,-239 2722,-239 2716,-233 2716,-227 2716,-227 2716,-203 2716,-203 2716,-197 2722,-191 2728,-191 2728,-191 3050,-191 3050,-191 3056,-191 3062,-197 3062,-203 3062,-203 3062,-227 3062,-227 3062,-233 3056,-239 3050,-239"/>
<text text-anchor="start" x="2815" y="-221.8" font-family="Times New Roman,serif" font-size="14.00">max_speed_velocity_ratio</text>
<polygon fill="none" stroke="black" points="2724,-195 2724,-216 2826,-216 2826,-195 2724,-195"/>
<text text-anchor="start" x="2727" y="-201.8" font-family="Times New Roman,serif" font-size="14.00">remote parent 0=</text>
<polygon fill="none" stroke="black" points="2826,-195 2826,-216 3054,-216 3054,-195 2826,-195"/>
<text text-anchor="start" x="2829" y="-201.8" font-family="Times New Roman,serif" font-size="14.00">cycle_model:max_speed_velocity_ratio</text>
</a>
</g>
</g>
<!-- cluster_cluster_cluster_cluster_cluster_cluster_&#45;22021212490198297065621433541211787464&#45;5690564999758951521&#45;56337469494674395647247368105579582138591411804603007738&#45;3266232678127081741&#45;&gt;cluster_cluster_cluster_cluster_cluster_cluster_&#45;22021212490198297065621433541211787464&#45;5690564999758951521&#45;563374694946743956472473681055795821385914118046030077388047931719890035597 -->
<g id="edge13" class="edge"><title>cluster_cluster_cluster_cluster_cluster_cluster_&#45;22021212490198297065621433541211787464&#45;5690564999758951521&#45;56337469494674395647247368105579582138591411804603007738&#45;3266232678127081741&#45;&gt;cluster_cluster_cluster_cluster_cluster_cluster_&#45;22021212490198297065621433541211787464&#45;5690564999758951521&#45;563374694946743956472473681055795821385914118046030077388047931719890035597</title>
<path fill="none" stroke="black" d="M2889,-190.953C2889,-168.688 2889,-139 2889,-139 2889,-139 2329.08,-139 2329.08,-139"/>
<polygon fill="black" stroke="black" points="2329.08,-135.5 2319.08,-139 2329.08,-142.5 2329.08,-135.5"/>
</g>
<!-- cluster_cluster_cluster_cluster_cluster_cluster_&#45;22021212490198297065621433541211787464&#45;5690564999758951521&#45;56337469494674395647247368105579582138591411804603007738&#45;4081924377432798624 -->
<g id="node13" class="node"><title>cluster_cluster_cluster_cluster_cluster_cluster_&#45;22021212490198297065621433541211787464&#45;5690564999758951521&#45;56337469494674395647247368105579582138591411804603007738&#45;4081924377432798624</title>
<g id="a_node13"><a xlink:title="speed_velocity_ratios">
<path fill="cyan" stroke="black" d="M3389.5,-239C3389.5,-239 3092.5,-239 3092.5,-239 3086.5,-239 3080.5,-233 3080.5,-227 3080.5,-227 3080.5,-203 3080.5,-203 3080.5,-197 3086.5,-191 3092.5,-191 3092.5,-191 3389.5,-191 3389.5,-191 3395.5,-191 3401.5,-197 3401.5,-203 3401.5,-203 3401.5,-227 3401.5,-227 3401.5,-233 3395.5,-239 3389.5,-239"/>
<text text-anchor="start" x="3180" y="-221.8" font-family="Times New Roman,serif" font-size="14.00">speed_velocity_ratios</text>
<polygon fill="none" stroke="black" points="3089,-195 3089,-216 3191,-216 3191,-195 3089,-195"/>
<text text-anchor="start" x="3092" y="-201.8" font-family="Times New Roman,serif" font-size="14.00">remote parent 0=</text>
<polygon fill="none" stroke="black" points="3191,-195 3191,-216 3394,-216 3394,-195 3191,-195"/>
<text text-anchor="start" x="3194" y="-201.8" font-family="Times New Roman,serif" font-size="14.00">cycle_model:speed_velocity_ratios</text>
</a>
</g>
</g>
<!-- cluster_cluster_cluster_cluster_cluster_cluster_&#45;22021212490198297065621433541211787464&#45;5690564999758951521&#45;56337469494674395647247368105579582138591411804603007738&#45;4081924377432798624&#45;&gt;cluster_cluster_cluster_cluster_cluster_cluster_&#45;22021212490198297065621433541211787464&#45;5690564999758951521&#45;563374694946743956472473681055795821385914118046030077388047931719890035597 -->
<g id="edge14" class="edge"><title>cluster_cluster_cluster_cluster_cluster_cluster_&#45;22021212490198297065621433541211787464&#45;5690564999758951521&#45;56337469494674395647247368105579582138591411804603007738&#45;4081924377432798624&#45;&gt;cluster_cluster_cluster_cluster_cluster_cluster_&#45;22021212490198297065621433541211787464&#45;5690564999758951521&#45;563374694946743956472473681055795821385914118046030077388047931719890035597</title>
<path fill="none" stroke="black" d="M3241,-190.704C3241,-165.895 3241,-131 3241,-131 3241,-131 2329.14,-131 2329.14,-131"/>
<polygon fill="black" stroke="black" points="2329.14,-127.5 2319.14,-131 2329.14,-134.5 2329.14,-127.5"/>
</g>
<!-- cluster_cluster_cluster_cluster_cluster_cluster_&#45;22021212490198297065621433541211787464&#45;5690564999758951521&#45;563374694946743956472473681055795821385914118046030077381095843056856409543 -->
<g id="node14" class="node"><title>cluster_cluster_cluster_cluster_cluster_cluster_&#45;22021212490198297065621433541211787464&#45;5690564999758951521&#45;563374694946743956472473681055795821385914118046030077381095843056856409543</title>
<g id="a_node14"><a xlink:title="time_sample_frequency">
<path fill="cyan" stroke="black" d="M1830,-239C1830,-239 1522,-239 1522,-239 1516,-239 1510,-233 1510,-227 1510,-227 1510,-203 1510,-203 1510,-197 1516,-191 1522,-191 1522,-191 1830,-191 1830,-191 1836,-191 1842,-197 1842,-203 1842,-203 1842,-227 1842,-227 1842,-233 1836,-239 1830,-239"/>
<text text-anchor="start" x="1609.5" y="-221.8" font-family="Times New Roman,serif" font-size="14.00">time_sample_frequency</text>
<polygon fill="none" stroke="black" points="1518,-195 1518,-216 1620,-216 1620,-195 1518,-195"/>
<text text-anchor="start" x="1521" y="-201.8" font-family="Times New Roman,serif" font-size="14.00">remote parent 0=</text>
<polygon fill="none" stroke="black" points="1620,-195 1620,-216 1834,-216 1834,-195 1620,-195"/>
<text text-anchor="start" x="1623" y="-201.8" font-family="Times New Roman,serif" font-size="14.00">cycle_model:time_sample_frequency</text>
</a>
</g>
</g>
<!-- cluster_cluster_cluster_cluster_cluster_cluster_&#45;22021212490198297065621433541211787464&#45;5690564999758951521&#45;563374694946743956472473681055795821385914118046030077381095843056856409543&#45;&gt;cluster_cluster_cluster_cluster_cluster_cluster_&#45;22021212490198297065621433541211787464&#45;5690564999758951521&#45;563374694946743956472473681055795821385914118046030077384008035146516381901 -->
<g id="edge15" class="edge"><title>cluster_cluster_cluster_cluster_cluster_cluster_&#45;22021212490198297065621433541211787464&#45;5690564999758951521&#45;563374694946743956472473681055795821385914118046030077381095843056856409543&#45;&gt;cluster_cluster_cluster_cluster_cluster_cluster_&#45;22021212490198297065621433541211787464&#45;5690564999758951521&#45;563374694946743956472473681055795821385914118046030077384008035146516381901</title>
<path fill="none" stroke="black" d="M1518.5,-190.624C1518.5,-169.736 1518.5,-143 1518.5,-143 1518.5,-143 1192.94,-143 1192.94,-143"/>
<polygon fill="black" stroke="black" points="1192.94,-139.5 1182.94,-143 1192.94,-146.5 1192.94,-139.5"/>
</g>
<!-- cluster_cluster_cluster_cluster_cluster_cluster_&#45;22021212490198297065621433541211787464&#45;5690564999758951521&#45;563374694946743956472473681055795821385914118046030077381095843056856409543&#45;&gt;cluster_cluster_cluster_cluster_cluster_cluster_&#45;22021212490198297065621433541211787464&#45;5690564999758951521&#45;563374694946743956472473681055795821385914118046030077388047931719890035597 -->
<g id="edge16" class="edge"><title>cluster_cluster_cluster_cluster_cluster_cluster_&#45;22021212490198297065621433541211787464&#45;5690564999758951521&#45;563374694946743956472473681055795821385914118046030077381095843056856409543&#45;&gt;cluster_cluster_cluster_cluster_cluster_cluster_&#45;22021212490198297065621433541211787464&#45;5690564999758951521&#45;563374694946743956472473681055795821385914118046030077388047931719890035597</title>
<path fill="none" stroke="black" d="M1830.5,-190.882C1830.5,-164.223 1830.5,-125 1830.5,-125 1830.5,-125 2154.6,-125 2154.6,-125"/>
<polygon fill="black" stroke="black" points="2154.6,-128.5 2164.6,-125 2154.6,-121.5 2154.6,-128.5"/>
</g>
<!-- cluster_cluster_cluster_cluster_cluster_cluster_&#45;22021212490198297065621433541211787464&#45;5690564999758951521&#45;56337469494674395647247368105579582138591411804603007738&#45;1825562924159530342 -->
<g id="node15" class="node"><title>cluster_cluster_cluster_cluster_cluster_cluster_&#45;22021212490198297065621433541211787464&#45;5690564999758951521&#45;56337469494674395647247368105579582138591411804603007738&#45;1825562924159530342</title>
<g id="a_node15"><a xlink:title="times">
<path fill="cyan" stroke="black" d="M2076,-239C2076,-239 1872,-239 1872,-239 1866,-239 1860,-233 1860,-227 1860,-227 1860,-203 1860,-203 1860,-197 1866,-191 1872,-191 1872,-191 2076,-191 2076,-191 2082,-191 2088,-197 2088,-203 2088,-203 2088,-227 2088,-227 2088,-233 2082,-239 2076,-239"/>
<text text-anchor="start" x="1959" y="-221.8" font-family="Times New Roman,serif" font-size="14.00">times</text>
<polygon fill="none" stroke="black" points="1868,-195 1868,-216 1970,-216 1970,-195 1868,-195"/>
<text text-anchor="start" x="1871" y="-201.8" font-family="Times New Roman,serif" font-size="14.00">remote parent 0=</text>
<polygon fill="none" stroke="black" points="1970,-195 1970,-216 2080,-216 2080,-195 1970,-195"/>
<text text-anchor="start" x="1973" y="-201.8" font-family="Times New Roman,serif" font-size="14.00">cycle_model:times</text>
</a>
</g>
</g>
<!-- cluster_cluster_cluster_cluster_cluster_cluster_&#45;22021212490198297065621433541211787464&#45;5690564999758951521&#45;56337469494674395647247368105579582138591411804603007738&#45;1825562924159530342&#45;&gt;cluster_cluster_cluster_cluster_cluster_cluster_&#45;22021212490198297065621433541211787464&#45;5690564999758951521&#45;563374694946743956472473681055795821385914118046030077384008035146516381901 -->
<g id="edge17" class="edge"><title>cluster_cluster_cluster_cluster_cluster_cluster_&#45;22021212490198297065621433541211787464&#45;5690564999758951521&#45;56337469494674395647247368105579582138591411804603007738&#45;1825562924159530342&#45;&gt;cluster_cluster_cluster_cluster_cluster_cluster_&#45;22021212490198297065621433541211787464&#45;5690564999758951521&#45;563374694946743956472473681055795821385914118046030077384008035146516381901</title>
<path fill="none" stroke="black" d="M1936,-190.748C1936,-167.851 1936,-137 1936,-137 1936,-137 1192.65,-137 1192.65,-137"/>
<polygon fill="black" stroke="black" points="1192.65,-133.5 1182.65,-137 1192.65,-140.5 1192.65,-133.5"/>
</g>
<!-- cluster_cluster_cluster_cluster_cluster_cluster_&#45;22021212490198297065621433541211787464&#45;5690564999758951521&#45;56337469494674395647247368105579582138591411804603007738&#45;1825562924159530342&#45;&gt;cluster_cluster_cluster_cluster_cluster_cluster_&#45;22021212490198297065621433541211787464&#45;5690564999758951521&#45;563374694946743956472473681055795821385914118046030077388047931719890035597 -->
<g id="edge18" class="edge"><title>cluster_cluster_cluster_cluster_cluster_cluster_&#45;22021212490198297065621433541211787464&#45;5690564999758951521&#45;56337469494674395647247368105579582138591411804603007738&#45;1825562924159530342&#45;&gt;cluster_cluster_cluster_cluster_cluster_cluster_&#45;22021212490198297065621433541211787464&#45;5690564999758951521&#45;563374694946743956472473681055795821385914118046030077388047931719890035597</title>
<path fill="none" stroke="black" d="M2012,-190.704C2012,-165.895 2012,-131 2012,-131 2012,-131 2154.77,-131 2154.77,-131"/>
<polygon fill="black" stroke="black" points="2154.77,-134.5 2164.77,-131 2154.77,-127.5 2154.77,-134.5"/>
</g>
<!-- cluster_cluster_cluster_cluster_cluster_cluster_&#45;22021212490198297065621433541211787464&#45;5690564999758951521&#45;563374694946743956472473681055795821385914118046030077381395676110976739562 -->
<g id="node16" class="node"><title>cluster_cluster_cluster_cluster_cluster_cluster_&#45;22021212490198297065621433541211787464&#45;5690564999758951521&#45;563374694946743956472473681055795821385914118046030077381395676110976739562</title>
<g id="a_node16"><a xlink:title="velocities">
<path fill="cyan" stroke="black" d="M3658.5,-239C3658.5,-239 3431.5,-239 3431.5,-239 3425.5,-239 3419.5,-233 3419.5,-227 3419.5,-227 3419.5,-203 3419.5,-203 3419.5,-197 3425.5,-191 3431.5,-191 3431.5,-191 3658.5,-191 3658.5,-191 3664.5,-191 3670.5,-197 3670.5,-203 3670.5,-203 3670.5,-227 3670.5,-227 3670.5,-233 3664.5,-239 3658.5,-239"/>
<text text-anchor="start" x="3519.5" y="-221.8" font-family="Times New Roman,serif" font-size="14.00">velocities</text>
<polygon fill="none" stroke="black" points="3428,-195 3428,-216 3530,-216 3530,-195 3428,-195"/>
<text text-anchor="start" x="3431" y="-201.8" font-family="Times New Roman,serif" font-size="14.00">remote parent 0=</text>
<polygon fill="none" stroke="black" points="3530,-195 3530,-216 3663,-216 3663,-195 3530,-195"/>
<text text-anchor="start" x="3533" y="-201.8" font-family="Times New Roman,serif" font-size="14.00">cycle_model:velocities</text>
</a>
</g>
</g>
<!-- cluster_cluster_cluster_cluster_cluster_cluster_&#45;22021212490198297065621433541211787464&#45;5690564999758951521&#45;563374694946743956472473681055795821385914118046030077381395676110976739562&#45;&gt;cluster_cluster_cluster_cluster_cluster_cluster_&#45;22021212490198297065621433541211787464&#45;5690564999758951521&#45;563374694946743956472473681055795821385914118046030077388047931719890035597 -->
<g id="edge19" class="edge"><title>cluster_cluster_cluster_cluster_cluster_cluster_&#45;22021212490198297065621433541211787464&#45;5690564999758951521&#45;563374694946743956472473681055795821385914118046030077381395676110976739562&#45;&gt;cluster_cluster_cluster_cluster_cluster_cluster_&#45;22021212490198297065621433541211787464&#45;5690564999758951521&#45;563374694946743956472473681055795821385914118046030077388047931719890035597</title>
<path fill="none" stroke="black" d="M3545,-190.828C3545,-163.57 3545,-123 3545,-123 3545,-123 2329.12,-123 2329.12,-123"/>
<polygon fill="black" stroke="black" points="2329.12,-119.5 2319.12,-123 2329.12,-126.5 2329.12,-119.5"/>
</g>
<!-- cluster_cluster_cluster_cluster_cluster_cluster_&#45;22021212490198297065621433541211787464&#45;5690564999758951521&#45;56337469494674395647247368105579582138591411804603007738&#45;5885501648332812160 -->
<g id="node17" class="node"><title>cluster_cluster_cluster_cluster_cluster_cluster_&#45;22021212490198297065621433541211787464&#45;5690564999758951521&#45;56337469494674395647247368105579582138591411804603007738&#45;5885501648332812160</title>
<g id="a_node17"><a xlink:title="wltp_base_model">
<path fill="cyan" stroke="black" d="M3975,-239C3975,-239 3701,-239 3701,-239 3695,-239 3689,-233 3689,-227 3689,-227 3689,-203 3689,-203 3689,-197 3695,-191 3701,-191 3701,-191 3975,-191 3975,-191 3981,-191 3987,-197 3987,-203 3987,-203 3987,-227 3987,-227 3987,-233 3981,-239 3975,-239"/>
<text text-anchor="start" x="3788" y="-221.8" font-family="Times New Roman,serif" font-size="14.00">wltp_base_model</text>
<polygon fill="none" stroke="black" points="3697,-195 3697,-216 3799,-216 3799,-195 3697,-195"/>
<text text-anchor="start" x="3700" y="-201.8" font-family="Times New Roman,serif" font-size="14.00">remote parent 0=</text>
<polygon fill="none" stroke="black" points="3799,-195 3799,-216 3979,-216 3979,-195 3799,-195"/>
<text text-anchor="start" x="3802" y="-201.8" font-family="Times New Roman,serif" font-size="14.00">cycle_model:wltp_base_model</text>
</a>
</g>
</g>
<!-- cluster_cluster_cluster_cluster_cluster_cluster_&#45;22021212490198297065621433541211787464&#45;5690564999758951521&#45;56337469494674395647247368105579582138591411804603007738&#45;5885501648332812160&#45;&gt;cluster_cluster_cluster_cluster_cluster_cluster_&#45;22021212490198297065621433541211787464&#45;5690564999758951521&#45;563374694946743956472473681055795821385914118046030077388047931719890035597 -->
<g id="edge20" class="edge"><title>cluster_cluster_cluster_cluster_cluster_cluster_&#45;22021212490198297065621433541211787464&#45;5690564999758951521&#45;56337469494674395647247368105579582138591411804603007738&#45;5885501648332812160&#45;&gt;cluster_cluster_cluster_cluster_cluster_cluster_&#45;22021212490198297065621433541211787464&#45;5690564999758951521&#45;563374694946743956472473681055795821385914118046030077388047931719890035597</title>
<path fill="none" stroke="black" d="M3838,-190.793C3838,-161.198 3838,-115 3838,-115 3838,-115 2329.25,-115 2329.25,-115"/>
<polygon fill="black" stroke="black" points="2329.25,-111.5 2319.25,-115 2329.25,-118.5 2329.25,-111.5"/>
</g>
</g>
</svg>
