<?xml version="1.0" encoding="UTF-8" standalone="no"?>
<!DOCTYPE svg PUBLIC "-//W3C//DTD SVG 1.1//EN"
 "http://www.w3.org/Graphics/SVG/1.1/DTD/svg11.dtd">
<!-- Generated by graphviz version 2.38.0 (20140413.2041)
 -->
<!-- Title: cluster_final_drive_model Pages: 1 -->
<svg width="652pt" height="235pt"
 viewBox="0.00 0.00 651.50 235.00" xmlns="http://www.w3.org/2000/svg" xmlns:xlink="http://www.w3.org/1999/xlink">
<g id="graph0" class="graph" transform="scale(1 1) rotate(0) translate(4 231)">
<title>cluster_final_drive_model</title>
<polygon fill="white" stroke="none" points="-4,4 -4,-231 647.5,-231 647.5,4 -4,4"/>
<text text-anchor="start" x="271.25" y="-7.8" font-family="Times New Roman,serif" font-size="14.00">final_drive_model</text>
<!-- cluster_cluster_cluster_cluster_cluster_cluster_&#45;22021212490198297065621433541211787464&#45;5690564999758951521&#45;56337469494674395647247368105579582134959085655276911784&#45;220121843878076413 -->
<g id="node1" class="node"><title>cluster_cluster_cluster_cluster_cluster_cluster_&#45;22021212490198297065621433541211787464&#45;5690564999758951521&#45;56337469494674395647247368105579582134959085655276911784&#45;220121843878076413</title>
<g id="a_node1"><a xlink:href="./final_drive_model/co2mpas.model.physical.final_drivecalculate_final_drive_speeds_in.txt" xlink:title="Calculates final drive speed [RPM].">
<polygon fill="springgreen" stroke="black" points="423.5,-143 225.5,-143 225.5,-107 423.5,-107 423.5,-143"/>
<text text-anchor="start" x="235.5" y="-120.8" font-family="Times New Roman,serif" font-size="14.00">calculate_final_drive_speeds_in</text>
</a>
</g>
</g>
<!-- cluster_cluster_cluster_cluster_cluster_cluster_&#45;22021212490198297065621433541211787464&#45;5690564999758951521&#45;56337469494674395647247368105579582134959085655276911784&#45;2838794309066066379 -->
<g id="node3" class="node"><title>cluster_cluster_cluster_cluster_cluster_cluster_&#45;22021212490198297065621433541211787464&#45;5690564999758951521&#45;56337469494674395647247368105579582134959085655276911784&#45;2838794309066066379</title>
<g id="a_node3"><a xlink:title="Final drive speed in [RPM].">
<path fill="cyan" stroke="black" d="M483.5,-71C483.5,-71 165.5,-71 165.5,-71 159.5,-71 153.5,-65 153.5,-59 153.5,-59 153.5,-35 153.5,-35 153.5,-29 159.5,-23 165.5,-23 165.5,-23 483.5,-23 483.5,-23 489.5,-23 495.5,-29 495.5,-35 495.5,-35 495.5,-59 495.5,-59 495.5,-65 489.5,-71 483.5,-71"/>
<text text-anchor="start" x="263" y="-53.8" font-family="Times New Roman,serif" font-size="14.00">final_drive_speeds_in</text>
<polygon fill="none" stroke="black" points="161.5,-27 161.5,-48 255.5,-48 255.5,-27 161.5,-27"/>
<text text-anchor="start" x="164.5" y="-33.8" font-family="Times New Roman,serif" font-size="14.00">remote child 0=</text>
<polygon fill="none" stroke="black" points="255.5,-27 255.5,-48 487.5,-48 487.5,-27 255.5,-27"/>
<text text-anchor="start" x="258.5" y="-33.8" font-family="Times New Roman,serif" font-size="14.00">final_drive_model:final_drive_speeds_in</text>
</a>
</g>
</g>
<!-- cluster_cluster_cluster_cluster_cluster_cluster_&#45;22021212490198297065621433541211787464&#45;5690564999758951521&#45;56337469494674395647247368105579582134959085655276911784&#45;220121843878076413&#45;&gt;cluster_cluster_cluster_cluster_cluster_cluster_&#45;22021212490198297065621433541211787464&#45;5690564999758951521&#45;56337469494674395647247368105579582134959085655276911784&#45;2838794309066066379 -->
<g id="edge1" class="edge"><title>cluster_cluster_cluster_cluster_cluster_cluster_&#45;22021212490198297065621433541211787464&#45;5690564999758951521&#45;56337469494674395647247368105579582134959085655276911784&#45;220121843878076413&#45;&gt;cluster_cluster_cluster_cluster_cluster_cluster_&#45;22021212490198297065621433541211787464&#45;5690564999758951521&#45;56337469494674395647247368105579582134959085655276911784&#45;2838794309066066379</title>
<path fill="none" stroke="black" d="M324.5,-106.909C324.5,-106.909 324.5,-81.1988 324.5,-81.1988"/>
<polygon fill="black" stroke="black" points="328,-81.1988 324.5,-71.1988 321,-81.1988 328,-81.1988"/>
</g>
<!-- cluster_cluster_cluster_cluster_cluster_cluster_&#45;22021212490198297065621433541211787464&#45;5690564999758951521&#45;56337469494674395647247368105579582134959085655276911784&#45;3989215812469180633 -->
<g id="node2" class="node"><title>cluster_cluster_cluster_cluster_cluster_cluster_&#45;22021212490198297065621433541211787464&#45;5690564999758951521&#45;56337469494674395647247368105579582134959085655276911784&#45;3989215812469180633</title>
<g id="a_node2"><a xlink:title="Final drive ratio [&#45;].">
<path fill="cyan" stroke="black" d="M307,-227C307,-227 12,-227 12,-227 6,-227 0,-221 0,-215 0,-215 0,-191 0,-191 0,-185 6,-179 12,-179 12,-179 307,-179 307,-179 313,-179 319,-185 319,-191 319,-191 319,-215 319,-215 319,-221 313,-227 307,-227"/>
<text text-anchor="start" x="114.5" y="-209.8" font-family="Times New Roman,serif" font-size="14.00">final_drive_ratio</text>
<polygon fill="none" stroke="black" points="8.5,-183 8.5,-204 110.5,-204 110.5,-183 8.5,-183"/>
<text text-anchor="start" x="11.5" y="-189.8" font-family="Times New Roman,serif" font-size="14.00">remote parent 0=</text>
<polygon fill="none" stroke="black" points="110.5,-183 110.5,-204 311.5,-204 311.5,-183 110.5,-183"/>
<text text-anchor="start" x="113.5" y="-189.8" font-family="Times New Roman,serif" font-size="14.00">final_drive_model:final_drive_ratio</text>
</a>
</g>
</g>
<!-- cluster_cluster_cluster_cluster_cluster_cluster_&#45;22021212490198297065621433541211787464&#45;5690564999758951521&#45;56337469494674395647247368105579582134959085655276911784&#45;3989215812469180633&#45;&gt;cluster_cluster_cluster_cluster_cluster_cluster_&#45;22021212490198297065621433541211787464&#45;5690564999758951521&#45;56337469494674395647247368105579582134959085655276911784&#45;220121843878076413 -->
<g id="edge2" class="edge"><title>cluster_cluster_cluster_cluster_cluster_cluster_&#45;22021212490198297065621433541211787464&#45;5690564999758951521&#45;56337469494674395647247368105579582134959085655276911784&#45;3989215812469180633&#45;&gt;cluster_cluster_cluster_cluster_cluster_cluster_&#45;22021212490198297065621433541211787464&#45;5690564999758951521&#45;56337469494674395647247368105579582134959085655276911784&#45;220121843878076413</title>
<path fill="none" stroke="black" d="M272.25,-178.748C272.25,-178.748 272.25,-153.288 272.25,-153.288"/>
<polygon fill="black" stroke="black" points="275.75,-153.287 272.25,-143.288 268.75,-153.288 275.75,-153.287"/>
</g>
<!-- cluster_cluster_cluster_cluster_cluster_cluster_&#45;22021212490198297065621433541211787464&#45;5690564999758951521&#45;563374694946743956472473681055795821349590856552769117848799730252555084792 -->
<g id="node4" class="node"><title>cluster_cluster_cluster_cluster_cluster_cluster_&#45;22021212490198297065621433541211787464&#45;5690564999758951521&#45;563374694946743956472473681055795821349590856552769117848799730252555084792</title>
<g id="a_node4"><a xlink:title="Rotating speed of the wheel [RPM].">
<path fill="cyan" stroke="black" d="M631.5,-227C631.5,-227 349.5,-227 349.5,-227 343.5,-227 337.5,-221 337.5,-215 337.5,-215 337.5,-191 337.5,-191 337.5,-185 343.5,-179 349.5,-179 349.5,-179 631.5,-179 631.5,-179 637.5,-179 643.5,-185 643.5,-191 643.5,-191 643.5,-215 643.5,-215 643.5,-221 637.5,-227 631.5,-227"/>
<text text-anchor="start" x="425" y="-209.8" font-family="Times New Roman,serif" font-size="14.00">final_drive_speeds_out</text>
<polygon fill="none" stroke="black" points="345.5,-183 345.5,-204 447.5,-204 447.5,-183 345.5,-183"/>
<text text-anchor="start" x="348.5" y="-189.8" font-family="Times New Roman,serif" font-size="14.00">remote parent 0=</text>
<polygon fill="none" stroke="black" points="447.5,-183 447.5,-204 635.5,-204 635.5,-183 447.5,-183"/>
<text text-anchor="start" x="450.5" y="-189.8" font-family="Times New Roman,serif" font-size="14.00">final_drive_model:wheel_speeds</text>
</a>
</g>
</g>
<!-- cluster_cluster_cluster_cluster_cluster_cluster_&#45;22021212490198297065621433541211787464&#45;5690564999758951521&#45;563374694946743956472473681055795821349590856552769117848799730252555084792&#45;&gt;cluster_cluster_cluster_cluster_cluster_cluster_&#45;22021212490198297065621433541211787464&#45;5690564999758951521&#45;56337469494674395647247368105579582134959085655276911784&#45;220121843878076413 -->
<g id="edge3" class="edge"><title>cluster_cluster_cluster_cluster_cluster_cluster_&#45;22021212490198297065621433541211787464&#45;5690564999758951521&#45;563374694946743956472473681055795821349590856552769117848799730252555084792&#45;&gt;cluster_cluster_cluster_cluster_cluster_cluster_&#45;22021212490198297065621433541211787464&#45;5690564999758951521&#45;56337469494674395647247368105579582134959085655276911784&#45;220121843878076413</title>
<path fill="none" stroke="black" d="M380.5,-178.748C380.5,-178.748 380.5,-153.288 380.5,-153.288"/>
<polygon fill="black" stroke="black" points="384,-153.287 380.5,-143.288 377,-153.288 384,-153.287"/>
</g>
</g>
</svg>
