<?xml version="1.0" encoding="UTF-8" standalone="no"?>
<!DOCTYPE svg PUBLIC "-//W3C//DTD SVG 1.1//EN"
 "http://www.w3.org/Graphics/SVG/1.1/DTD/svg11.dtd">
<!-- Generated by graphviz version 2.38.0 (20140413.2041)
 -->
<!-- Title: cluster_vehicle_model Pages: 1 -->
<svg width="538pt" height="235pt"
 viewBox="0.00 0.00 537.50 235.00" xmlns="http://www.w3.org/2000/svg" xmlns:xlink="http://www.w3.org/1999/xlink">
<g id="graph0" class="graph" transform="scale(1 1) rotate(0) translate(4 231)">
<title>cluster_vehicle_model</title>
<polygon fill="white" stroke="none" points="-4,4 -4,-231 533.5,-231 533.5,4 -4,4"/>
<text text-anchor="start" x="224.25" y="-7.8" font-family="Times New Roman,serif" font-size="14.00">vehicle_model</text>
<!-- cluster_cluster_cluster_cluster_cluster_cluster_&#45;22021212490198297065621433541211787464&#45;5690564999758951521&#45;5633746949467439564724736810557958213&#45;74015165275038000401532707226003129821 -->
<g id="node1" class="node"><title>cluster_cluster_cluster_cluster_cluster_cluster_&#45;22021212490198297065621433541211787464&#45;5690564999758951521&#45;5633746949467439564724736810557958213&#45;74015165275038000401532707226003129821</title>
<g id="a_node1"><a xlink:title="Angle slope [rad].">
<path fill="cyan" stroke="black" d="M262,-227C262,-227 12,-227 12,-227 6,-227 0,-221 0,-215 0,-215 0,-191 0,-191 0,-185 6,-179 12,-179 12,-179 262,-179 262,-179 268,-179 274,-185 274,-191 274,-191 274,-215 274,-215 274,-221 268,-227 262,-227"/>
<text text-anchor="start" x="103.5" y="-209.8" font-family="Times New Roman,serif" font-size="14.00">angle_slope</text>
<polygon fill="none" stroke="black" points="8,-183 8,-204 110,-204 110,-183 8,-183"/>
<text text-anchor="start" x="11" y="-189.8" font-family="Times New Roman,serif" font-size="14.00">remote parent 0=</text>
<polygon fill="none" stroke="black" points="110,-183 110,-204 266,-204 266,-183 110,-183"/>
<text text-anchor="start" x="113" y="-189.8" font-family="Times New Roman,serif" font-size="14.00">vehicle_model:angle_slope</text>
</a>
</g>
</g>
<!-- cluster_cluster_cluster_cluster_cluster_cluster_&#45;22021212490198297065621433541211787464&#45;5690564999758951521&#45;5633746949467439564724736810557958213&#45;7401516527503800040&#45;6058061648340777666 -->
<g id="node3" class="node"><title>cluster_cluster_cluster_cluster_cluster_cluster_&#45;22021212490198297065621433541211787464&#45;5690564999758951521&#45;5633746949467439564724736810557958213&#45;7401516527503800040&#45;6058061648340777666</title>
<g id="a_node3"><a xlink:href="./vehicle_model/co2mpas.model.physical.vehiclecalculate_angle_slopes.txt" xlink:title="Returns the angle slope vector [rad].">
<polygon fill="springgreen" stroke="black" points="348,-143 200,-143 200,-107 348,-107 348,-143"/>
<text text-anchor="start" x="210" y="-120.8" font-family="Times New Roman,serif" font-size="14.00">calculate_angle_slopes</text>
</a>
</g>
</g>
<!-- cluster_cluster_cluster_cluster_cluster_cluster_&#45;22021212490198297065621433541211787464&#45;5690564999758951521&#45;5633746949467439564724736810557958213&#45;74015165275038000401532707226003129821&#45;&gt;cluster_cluster_cluster_cluster_cluster_cluster_&#45;22021212490198297065621433541211787464&#45;5690564999758951521&#45;5633746949467439564724736810557958213&#45;7401516527503800040&#45;6058061648340777666 -->
<g id="edge1" class="edge"><title>cluster_cluster_cluster_cluster_cluster_cluster_&#45;22021212490198297065621433541211787464&#45;5690564999758951521&#45;5633746949467439564724736810557958213&#45;74015165275038000401532707226003129821&#45;&gt;cluster_cluster_cluster_cluster_cluster_cluster_&#45;22021212490198297065621433541211787464&#45;5690564999758951521&#45;5633746949467439564724736810557958213&#45;7401516527503800040&#45;6058061648340777666</title>
<path fill="none" stroke="black" d="M237,-178.748C237,-178.748 237,-153.288 237,-153.288"/>
<polygon fill="black" stroke="black" points="240.5,-153.287 237,-143.288 233.5,-153.288 240.5,-153.287"/>
</g>
<!-- cluster_cluster_cluster_cluster_cluster_cluster_&#45;22021212490198297065621433541211787464&#45;5690564999758951521&#45;5633746949467439564724736810557958213&#45;7401516527503800040&#45;7715127888482710494 -->
<g id="node2" class="node"><title>cluster_cluster_cluster_cluster_cluster_cluster_&#45;22021212490198297065621433541211787464&#45;5690564999758951521&#45;5633746949467439564724736810557958213&#45;7401516527503800040&#45;7715127888482710494</title>
<g id="a_node2"><a xlink:title="Angle slope vector [rad].">
<path fill="cyan" stroke="black" d="M398,-71C398,-71 150,-71 150,-71 144,-71 138,-65 138,-59 138,-59 138,-35 138,-35 138,-29 144,-23 150,-23 150,-23 398,-23 398,-23 404,-23 410,-29 410,-35 410,-35 410,-59 410,-59 410,-65 404,-71 398,-71"/>
<text text-anchor="start" x="237.5" y="-53.8" font-family="Times New Roman,serif" font-size="14.00">angle_slopes</text>
<polygon fill="none" stroke="black" points="146,-27 146,-48 240,-48 240,-27 146,-27"/>
<text text-anchor="start" x="149" y="-33.8" font-family="Times New Roman,serif" font-size="14.00">remote child 0=</text>
<polygon fill="none" stroke="black" points="240,-27 240,-48 402,-48 402,-27 240,-27"/>
<text text-anchor="start" x="243" y="-33.8" font-family="Times New Roman,serif" font-size="14.00">vehicle_model:angle_slopes</text>
</a>
</g>
</g>
<!-- cluster_cluster_cluster_cluster_cluster_cluster_&#45;22021212490198297065621433541211787464&#45;5690564999758951521&#45;5633746949467439564724736810557958213&#45;7401516527503800040&#45;6058061648340777666&#45;&gt;cluster_cluster_cluster_cluster_cluster_cluster_&#45;22021212490198297065621433541211787464&#45;5690564999758951521&#45;5633746949467439564724736810557958213&#45;7401516527503800040&#45;7715127888482710494 -->
<g id="edge2" class="edge"><title>cluster_cluster_cluster_cluster_cluster_cluster_&#45;22021212490198297065621433541211787464&#45;5690564999758951521&#45;5633746949467439564724736810557958213&#45;7401516527503800040&#45;6058061648340777666&#45;&gt;cluster_cluster_cluster_cluster_cluster_cluster_&#45;22021212490198297065621433541211787464&#45;5690564999758951521&#45;5633746949467439564724736810557958213&#45;7401516527503800040&#45;7715127888482710494</title>
<path fill="none" stroke="black" d="M274,-106.909C274,-106.909 274,-81.1988 274,-81.1988"/>
<polygon fill="black" stroke="black" points="277.5,-81.1988 274,-71.1988 270.5,-81.1988 277.5,-81.1988"/>
</g>
<!-- cluster_cluster_cluster_cluster_cluster_cluster_&#45;22021212490198297065621433541211787464&#45;5690564999758951521&#45;5633746949467439564724736810557958213&#45;7401516527503800040&#45;1825562924159530342 -->
<g id="node4" class="node"><title>cluster_cluster_cluster_cluster_cluster_cluster_&#45;22021212490198297065621433541211787464&#45;5690564999758951521&#45;5633746949467439564724736810557958213&#45;7401516527503800040&#45;1825562924159530342</title>
<g id="a_node4"><a xlink:title="Time vector [s].">
<path fill="cyan" stroke="black" d="M517.5,-227C517.5,-227 304.5,-227 304.5,-227 298.5,-227 292.5,-221 292.5,-215 292.5,-215 292.5,-191 292.5,-191 292.5,-185 298.5,-179 304.5,-179 304.5,-179 517.5,-179 517.5,-179 523.5,-179 529.5,-185 529.5,-191 529.5,-191 529.5,-215 529.5,-215 529.5,-221 523.5,-227 517.5,-227"/>
<text text-anchor="start" x="396.5" y="-209.8" font-family="Times New Roman,serif" font-size="14.00">times</text>
<polygon fill="none" stroke="black" points="301,-183 301,-204 403,-204 403,-183 301,-183"/>
<text text-anchor="start" x="304" y="-189.8" font-family="Times New Roman,serif" font-size="14.00">remote parent 0=</text>
<polygon fill="none" stroke="black" points="403,-183 403,-204 522,-204 522,-183 403,-183"/>
<text text-anchor="start" x="406" y="-189.8" font-family="Times New Roman,serif" font-size="14.00">vehicle_model:times</text>
</a>
</g>
</g>
<!-- cluster_cluster_cluster_cluster_cluster_cluster_&#45;22021212490198297065621433541211787464&#45;5690564999758951521&#45;5633746949467439564724736810557958213&#45;7401516527503800040&#45;1825562924159530342&#45;&gt;cluster_cluster_cluster_cluster_cluster_cluster_&#45;22021212490198297065621433541211787464&#45;5690564999758951521&#45;5633746949467439564724736810557958213&#45;7401516527503800040&#45;6058061648340777666 -->
<g id="edge3" class="edge"><title>cluster_cluster_cluster_cluster_cluster_cluster_&#45;22021212490198297065621433541211787464&#45;5690564999758951521&#45;5633746949467439564724736810557958213&#45;7401516527503800040&#45;1825562924159530342&#45;&gt;cluster_cluster_cluster_cluster_cluster_cluster_&#45;22021212490198297065621433541211787464&#45;5690564999758951521&#45;5633746949467439564724736810557958213&#45;7401516527503800040&#45;6058061648340777666</title>
<path fill="none" stroke="black" d="M320.25,-178.748C320.25,-178.748 320.25,-153.288 320.25,-153.288"/>
<polygon fill="black" stroke="black" points="323.75,-153.287 320.25,-143.288 316.75,-153.288 323.75,-153.287"/>
</g>
</g>
</svg>
